<svg data-name="グループ 61168" xmlns="http://www.w3.org/2000/svg" width="28.404" height="39.921"><defs><clipPath id="a"><path data-name="長方形 23004" fill="none" d="M0 0h28.404v39.921H0z"/></clipPath></defs><g data-name="グループ 61167" clip-path="url(#a)"><path data-name="パス 148462" d="M25.228 23.277c2.264-1.6 1.838 1.159 1.475 2.539-.419 1.591-2.621 3.8-4.25 4.052" fill="#fff"/><path data-name="パス 148463" d="M25.82 23.288a5.2 5.2 0 01.263-.174c.048-.029.1-.055.145-.085-.108.067-.04.019-.011.006.045-.02.2-.077-.011 0 .124-.045-.084.023-.088.024.148-.04-.209.04-.066.015.008 0-.284.022-.2.023-.158 0-.018 0 .03.014-.1-.031.016.016.043.035a.365.365 0 01.151.187 2.731 2.731 0 01.087 1.519 5.784 5.784 0 01-.43 1.662 7.322 7.322 0 01-2.518 2.79c-.1.061-.2.118-.3.173.113-.061 0 0-.025.011l-.172.079c-.128.058.024 0 .034-.013-.069.062-.264.025-.036.018a.517.517 0 00-.094.026c-.143.041.2-.036-.023 0a2.388 2.388 0 00-.593.183c-.076.035-.286.13-.321.229-.089.251.541.142.616.129a6.342 6.342 0 002.939-1.424 7.734 7.734 0 001.9-2.245 5.928 5.928 0 00.574-2.035 2.336 2.336 0 00-.172-1.655 1.157 1.157 0 00-1.162-.253 4.313 4.313 0 00-1.746.74c-.048.033-.21.126-.185.219s.213.1.27.1a2.027 2.027 0 001.1-.295" fill="#fff"/><path data-name="パス 148464" d="M1.519 19.606c-2.557-.138-.272 4.929.25 5.7" fill="#fff"/><path data-name="パス 148465" d="M1.735 19.477a1.814 1.814 0 00-1.437.5A1.711 1.711 0 000 21.155a8.921 8.921 0 00.874 3.136 7.054 7.054 0 00.562 1.1c.1.151.7-.114.659-.177a9.452 9.452 0 01-.974-2.153 9.182 9.182 0 01-.4-1.507 2.965 2.965 0 010-1.281.984.984 0 01.266-.466.946.946 0 01.085-.064c.029-.021.034-.015.029-.015h.025a1.478 1.478 0 01.169 0 .865.865 0 00.466-.125c.1-.066.1-.122-.034-.128" fill="#fff"/><path data-name="パス 148466" d="M23.734 25.175c-1.233 1.734-1.105 4.33-1.646 6.056-.487 1.553-2.435 3.216-3.516 4.462-2.143 2.47-4.2 4.075-7.458 4.08a5.928 5.928 0 01-3.222-.611 20.8 20.8 0 01-2.089-1.856c-1.09-.952-1-2.248-1.834-3.453a9.89 9.89 0 01-1.986-4.805c-.071-1.817-.472-3.1-.184-4.863.714-4.369-.73-9.643 2.053-13.46 0 0 5.788-4.336 11.843-3.655s14.363 9.207 8.04 18.106" fill="#fff"/><path data-name="パス 148467" d="M23.408 25.231a10.328 10.328 0 00-1.307 4.454 7.536 7.536 0 01-.507 2.028 8.163 8.163 0 01-1.389 1.937c-.532.593-1.1 1.151-1.64 1.736-.522.566-1.017 1.153-1.57 1.691a8.816 8.816 0 01-3.54 2.255 7.769 7.769 0 01-2.2.3 6.918 6.918 0 01-2.534-.319 6.774 6.774 0 01-2.081-1.626 9.6 9.6 0 01-.9-.874 3.9 3.9 0 01-.552-1.016c-.143-.365-.261-.739-.409-1.1a6.074 6.074 0 00-.611-1.105 13.566 13.566 0 01-1.313-2.39 7.8 7.8 0 01-.409-1.264 8.149 8.149 0 01-.151-1.313c-.056-.9-.2-1.793-.254-2.694a8.755 8.755 0 01.024-1.354c.042-.421.122-.838.168-1.26.085-.789.114-1.584.124-2.377.02-1.636-.044-3.275.083-4.908a11.053 11.053 0 011.225-4.565q.148-.266.317-.52c.05-.076.1-.154.156-.226 0 0-.041.028-.025.011a.939.939 0 01.129-.093c.23-.163.466-.318.7-.47a19.474 19.474 0 017.145-2.857 10.961 10.961 0 014.372.073 11.166 11.166 0 013.244 1.414 13.152 13.152 0 015.107 5.845 10.057 10.057 0 01-.117 8.359 13.646 13.646 0 01-1.291 2.223c-.073.1.24.08.267.075a.585.585 0 00.384-.186 12.181 12.181 0 002.077-4.65 10.047 10.047 0 00-.089-4.281 12.558 12.558 0 00-4.458-6.719 12.949 12.949 0 00-3.271-1.92 10.07 10.07 0 00-3.824-.694A18.756 18.756 0 005.7 9.388a20.341 20.341 0 00-2 1.233 2.755 2.755 0 00-.7.956 9.1 9.1 0 00-.877 2.281c-.8 3.254-.17 6.634-.6 9.927-.057.439-.136.873-.16 1.316a9.9 9.9 0 00.029 1.361c.076.927.194 1.847.251 2.777a7.276 7.276 0 00.775 2.664 13.638 13.638 0 00.683 1.241c.229.372.5.722.712 1.1.4.711.563 1.525.942 2.247a3.347 3.347 0 00.745.948c.341.3.663.629.994.944a4.777 4.777 0 002.214 1.353 9.965 9.965 0 002.559.167 8.81 8.81 0 004.36-1.312 16.613 16.613 0 003.421-3.14 18.519 18.519 0 003.117-3.721 6.894 6.894 0 00.557-2.068c.128-.8.229-1.608.419-2.4a6.261 6.261 0 01.9-2.15c.073-.1-.24-.08-.267-.076a.583.583 0 00-.384.187" fill="#fff"/><path data-name="パス 148468" d="M14.772 10.182a3.955 3.955 0 01-1.886.761c-.627.113-1.848-.255-2.353-.051-.3.12-.39.593-.594.85a2.989 2.989 0 01-1.5 1.026c-.672.25-1.978.173-2.477.5-.94.625-.646 2.137-1.728 2.784-.624.373-1.485.373-1.907 1.017-.362.553-.218 1.815-.376 2.483a8.718 8.718 0 00-.283 1.7C.875 16.83-.778 10.799 2.205 6.841c1.3-1.721 2.824-4.087 4.768-5.238A12.475 12.475 0 0114.384.068a4.805 4.805 0 012.64 1.119c.556.494 1.01 1.946 1.664 2.046.336.052 1.093-.457 1.492-.535a4.61 4.61 0 011.67-.028 10.575 10.575 0 013.558 1.574c3.845 2.388 3.218 7.223 2.306 10.818-.511 2.018-.812 4.111-1.379 6.132-.592 2.109-1.052 5.194-2.783 6.8-.96-.872-.232-4.092-.114-5.29a13.857 13.857 0 00.08-2.967c-.2-1.772-.431-4.19-2.19-5.344-1.115-.731-2.475-.511-3.634-1.1-1.355-.693-1.692-1.7-2.323-2.861z" fill="#fff"/><path data-name="パス 148469" d="M14.772 10.182a3.955 3.955 0 01-1.886.761c-.627.113-1.848-.255-2.353-.051-.3.12-.39.593-.594.85a2.989 2.989 0 01-1.5 1.026c-.672.25-1.978.173-2.477.5-.94.625-.646 2.137-1.728 2.784-.624.373-1.485.373-1.907 1.017-.362.553-.218 1.815-.376 2.483a8.718 8.718 0 00-.283 1.7C.875 16.83-.778 10.799 2.205 6.841c1.3-1.721 2.824-4.087 4.768-5.238A12.475 12.475 0 0114.384.068a4.805 4.805 0 012.64 1.119c.556.494 1.01 1.946 1.664 2.046.336.052 1.093-.457 1.492-.535a4.61 4.61 0 011.67-.028 10.575 10.575 0 013.558 1.574c3.845 2.388 3.218 7.223 2.306 10.818-.511 2.018-.812 4.111-1.379 6.132-.592 2.109-1.052 5.194-2.783 6.8-.96-.872-.232-4.092-.114-5.29a13.857 13.857 0 00.08-2.967c-.2-1.772-.431-4.19-2.19-5.344-1.115-.731-2.475-.511-3.634-1.1-1.355-.693-1.692-1.7-2.323-2.861z" fill="#fff"/><path data-name="パス 148470" d="M13.643 19.249a9.319 9.319 0 013.054-1.326c.92-.275 1.3.026 2.009.827" fill="#fff"/><path data-name="パス 148471" d="M14.255 19.339c.089-.069.18-.138.275-.2-.086.055.093-.053.091-.052l.121-.069q.092-.051.186-.1c.015-.008.181-.087.1-.051l.106-.046.164-.069c.22-.09.445-.168.669-.248.093-.033-.119.037.031-.01l.2-.064.328-.1c.107-.032.213-.066.321-.1.026-.007.2-.038.079-.022s.045-.01.066-.006c-.072-.014-.118.007-.011.007.086 0-.125-.007 0 0s-.052-.021.02 0c.037.012.074.025.109.04a3.091 3.091 0 01.869.779c.313.353 1.791-.194 1.452-.576a2.294 2.294 0 00-2.95-.83 10.358 10.358 0 00-3.451 1.531c-.076.059-.2.179-.165.293s.194.156.29.171a1.565 1.565 0 001.1-.295" fill="#fff"/><path data-name="パス 148472" d="M8.822 18.716a7.281 7.281 0 00-2.837-1.491c-.736-.221-.922.141-1.586.5" fill="#fff"/><path data-name="パス 148473" d="M9.535 18.38a3.551 3.551 0 00-1.039-.794 11.207 11.207 0 00-1.413-.646 3.43 3.43 0 00-1.5-.325 2.189 2.189 0 00-.87.269 7.594 7.594 0 00-.412.254l-.134.087-.086.054q.1-.061-.02.009c-.257.141-.613.456-.375.772a.909.909 0 001.052.1c.234-.129.458-.272.682-.416l.071-.045q.075-.046-.056.033c0-.015.077-.038.092-.046.149-.081-.177.047-.012.007-.039.009-.167.032-.055.016-.164.024-.026 0 .04.014-.079-.014 0 0 .033.013.072.023.145.045.216.069.181.06.36.126.537.2s.38.154.566.239a.533.533 0 00.051.023l.141.07q.139.07.275.145a4.935 4.935 0 01.492.308c.036.026.071.052.106.08.011.009.119.1.059.046s.036.036.047.047c.03.031.059.064.086.1a.909.909 0 001.051.1c.247-.127.627-.469.375-.772" fill="#fff"/><path data-name="パス 148474" d="M13.295 26.216c.429 2.157-2.239 2.422-3.739 2.113-.793-.164-1.73-.544-1.854-1.454a1.072 1.072 0 01.779-1.267" fill="#fff"/><path data-name="パス 148475" d="M12.906 26.319a1.436 1.436 0 01-.309 1.317 1.985 1.985 0 01-1.1.486 4.918 4.918 0 01-1.48.007 2.869 2.869 0 01-1.541-.615 1.227 1.227 0 01-.4-.948.74.74 0 01.463-.727c.136-.041.37-.156.326-.336s-.325-.166-.451-.128a1.527 1.527 0 00-1.007.8 1.488 1.488 0 00-.007 1.142 2.462 2.462 0 001.868 1.24 5.991 5.991 0 001.911.1 3.624 3.624 0 001.835-.649 1.849 1.849 0 00.665-1.9c-.059-.315-.839-.121-.777.208" fill="#fff"/><path data-name="パス 148476" d="M6.477 30.865c.541.944 2.456 4.8 3.918 4.656 3.479-.334 3.829-4.618 4.1-4.656 0 0-1.1.375-1.295.49a17.362 17.362 0 01-3.935.346c-1.434-.32-3.1-.656-3.638-1.6" fill="#fff"/><path data-name="パス 148477" d="M5.998 30.992c.469.822.905 1.659 1.424 2.452a10.735 10.735 0 001.017 1.347 2.915 2.915 0 001.078.826 2.7 2.7 0 001.63-.1 4.715 4.715 0 001.625-.808 5.376 5.376 0 001.576-2.241c.151-.371.273-.752.388-1.135.038-.125.073-.251.117-.373.014-.038.032-.074.045-.112 0-.01.024-.032.023-.041.006.079-.72.262-.52.218l-.07-.26a9.141 9.141 0 00-1.5.581l.326-.13c.27-.078-.018 0-.091.011q-.259.045-.52.086a25.07 25.07 0 01-1.475.191 5.918 5.918 0 01-1.291.038 12.294 12.294 0 01-1.944-.474 2.973 2.973 0 01-1.741-1.1c-.132-.222-1.018.141-.951.255a3.375 3.375 0 002.066 1.248c.458.135.925.24 1.392.344a4.159 4.159 0 00.894.112 15.019 15.019 0 002.131-.181c.482-.066.967-.133 1.444-.228.053-.01.1-.021.157-.035a1.224 1.224 0 00.181-.061.832.832 0 00.146-.069q-.093.047-.032.017c.034-.015.2-.083.117-.051.085-.033.17-.065.255-.1q.376-.139.755-.268c.06-.021.343-.115.314-.224s-.322-.05-.384-.037c-.349.077-.576.165-.687.492-.087.257-.157.519-.241.777a6.914 6.914 0 01-1.114 2.2 3.579 3.579 0 01-1.028.888 2.624 2.624 0 01-.264.127c.043-.018-.084.031-.114.042-.094.033-.036.013-.015.007-.04.013-.08.023-.12.034a2.562 2.562 0 01-.261.07l-.108.012c-.09.01.061 0 0 0s0 .008-.085-.007a2.106 2.106 0 01-1-.641 8.375 8.375 0 01-1.007-1.264c-.588-.863-1.067-1.786-1.584-2.692-.126-.221-1.019.135-.951.255" fill="#fff"/><path data-name="パス 148478" d="M17.724 22.333c-1.153-.75-3.652-1.289-4.722-.1" fill="#fff"/><path data-name="パス 148479" d="M18.086 22.186a5.722 5.722 0 00-2.684-.842 3.408 3.408 0 00-2.759.886c-.128.137.109.2.2.2a.707.707 0 00.515-.206 2.153 2.153 0 011.872-.46 5.086 5.086 0 012.129.712.574.574 0 00.511-.005c.056-.023.358-.2.213-.289" fill="#fff"/><path data-name="パス 148480" d="M15.9 21.968c.186 1.826-2.416-.185-.668-.394" fill="#fff"/><path data-name="パス 148481" d="M15.51 22.072c0 .031.006.062.007.093v-.069a1.045 1.045 0 01-.04.385l.023-.07a.507.507 0 01-.065.129l.047-.066a.4.4 0 01-.056.063l.068-.06a.358.358 0 01-.057.041l.086-.05a.39.39 0 01-.056.026l.1-.037a.412.412 0 01-.064.017l.106-.019a.485.485 0 01-.081.007h.1a.644.644 0 01-.117-.012l.089.018a.877.877 0 01-.19-.063l.074.034a1.169 1.169 0 01-.283-.185l.055.048a.938.938 0 01-.217-.269l.032.062a.488.488 0 01-.056-.19v.069a.324.324 0 01.015-.118l-.023.069a.315.315 0 01.042-.081l-.047.066a.375.375 0 01.056-.061l-.068.06a.5.5 0 01.078-.055l-.086.05a.769.769 0 01.114-.053l-.1.037a1.224 1.224 0 01.2-.052l-.106.019q.05-.009.1-.015a.632.632 0 00.293-.105.318.318 0 00.139-.2c.012-.186-.2-.25-.353-.231a1.761 1.761 0 00-.6.163 1.107 1.107 0 00-.268.189.408.408 0 00-.043.049.7.7 0 00-.075.113.536.536 0 00-.039.357.818.818 0 00.144.292 1.4 1.4 0 00.589.441 1.011 1.011 0 00.353.081 1.181 1.181 0 00.323-.03.955.955 0 00.293-.128.851.851 0 00.352-.783c0-.063-.006-.126-.012-.189s-.1-.126-.161-.144a.532.532 0 00-.294 0 .52.52 0 00-.255.146l-.047.066a.191.191 0 00-.02.139" fill="#fff"/><path data-name="パス 148482" d="M8.472 21.964c-.476-.845-3.053-1.171-3.985-.867" fill="#fff"/><path data-name="パス 148483" d="M8.86 21.859a2.823 2.823 0 00-1.969-.961 5.3 5.3 0 00-2.452.019c-.108.034-.378.124-.341.283s.346.1.437.075c.029-.009.2-.051.107-.032a2.52 2.52 0 01.212-.032 3.564 3.564 0 01.438-.02 6.417 6.417 0 011.117.107 4.64 4.64 0 011.03.3 1.353 1.353 0 01.643.471c.145.245.888-.021.777-.208" fill="#fff"/><path data-name="パス 148484" d="M6.914 21.326c-.255 2.109-1.514.275-.548-.309" fill="#fff"/><path data-name="パス 148485" d="M6.525 21.43c0 .031-.008.061-.012.092l.005-.036a2 2 0 01-.185.66.732.732 0 01-.068.106l.031-.04a.436.436 0 01-.076.076l.054-.041a.338.338 0 01-.038.024l.074-.04-.013.006h-.006c-.027.013-.092.029.081-.033a.494.494 0 00.076-.023.655.655 0 00.078-.018c-.01 0 .128-.013.081-.011h-.013.084-.033l.068.008a.269.269 0 01-.062-.016l.047.019a.408.408 0 01-.162-.13l.023.029a.824.824 0 01-.163-.468.85.85 0 01.007-.154l-.005.036a.733.733 0 01.146-.349l-.033.045a.736.736 0 01.132-.13l-.054.041a.864.864 0 01.073-.05c.028-.017.1-.07.091-.117s-.1-.055-.137-.056a.945.945 0 00-.284.038 1.068 1.068 0 00-.265.109.9.9 0 00-.422.53.919.919 0 00.028.542.814.814 0 00.132.225.416.416 0 00.148.122.535.535 0 00.193.049 1.082 1.082 0 00.361-.043 1.2 1.2 0 00.342-.143.634.634 0 00.134-.112 1.5 1.5 0 00.293-.776q.014-.088.024-.176c.006-.046-.125-.055-.137-.056a.909.909 0 00-.284.038.9.9 0 00-.265.109l-.054.041a.084.084 0 00-.037.076" fill="#fff"/><path data-name="パス 148486" d="M24.29 21.627a42.041 42.041 0 00-4.37.142c-.715.043-.47.06-1.033-.369a2.55 2.55 0 00-1.091-.565 12.146 12.146 0 00-5.956-.062c-.759.216-1.1.631-1.917.45-.967-.213-1.589-1.106-2.659-1.423-1.805-.535-3.994-.9-5.515.491" fill="#fff"/><path data-name="パス 148487" d="M24.417 21.554a28.892 28.892 0 00-2.892.051c-.479.028-.958.06-1.437.089-.213.013-.468.082-.651-.055-.242-.182-.462-.39-.718-.555a3 3 0 00-1.029-.378 14.883 14.883 0 00-2.678-.342 10.762 10.762 0 00-2.607.216 6.1 6.1 0 00-1.151.351 1.8 1.8 0 01-1.059.244 5.512 5.512 0 01-1.907-1.044 6.2 6.2 0 00-2.1-.711 5.261 5.261 0 00-4.62.891c-.065.058.058.054.089.053a.479.479 0 00.261-.09 4.6 4.6 0 014.239-.649 8.665 8.665 0 011.113.307 4.308 4.308 0 01.914.5 4.058 4.058 0 001.792.9 4.9 4.9 0 001.91-.515 9.163 9.163 0 012.666-.311 14.2 14.2 0 012.658.309 3.271 3.271 0 011.088.366 6.934 6.934 0 01.731.557.66.66 0 00.512.121c.47-.025.939-.058 1.408-.087a30.846 30.846 0 013.208-.07.465.465 0 00.275-.074c.05-.042.065-.07-.02-.074" fill="#fff"/><path data-name="パス 148488" d="M9.878 21.903a2.551 2.551 0 01-.6 1.4c-.361.416-.6.4-1.184.39a22.366 22.366 0 01-3.395-.27c-1.335-.227-1.484-1.857-1.657-2.938" fill="#fff"/><path data-name="パス 148489" d="M9.681 21.915a2.378 2.378 0 01-.358 1.05 1.163 1.163 0 01-.586.552 3.168 3.168 0 01-.862.025q-.625-.012-1.249-.053a20.358 20.358 0 01-1.182-.112 3.673 3.673 0 01-.983-.19 1.752 1.752 0 01-.881-1.1 9.6 9.6 0 01-.34-1.647c-.03-.191-.42-.092-.389.1.16 1.011.274 2.381 1.321 2.89a3.308 3.308 0 001.02.229 24.877 24.877 0 002.732.186 2.889 2.889 0 00.951-.062 2.234 2.234 0 001.2-1.892c.019-.209-.378-.163-.395.025" fill="#fff"/><path data-name="パス 148490" d="M19.188 22.522a2.656 2.656 0 01-1.353 1.953 7.238 7.238 0 01-2.738-.042c-.542-.048-1.089-.135-1.633-.162-.584-.028-1.563.051-1.883-.517a4.316 4.316 0 01-.365-2.053" fill="#fff"/><path data-name="パス 148491" d="M18.994 22.574a2.508 2.508 0 01-.905 1.647c-.545.472-1.4.309-2.055.229-.817-.1-1.642-.222-2.465-.257-.54-.023-1.313.074-1.711-.379a2.157 2.157 0 01-.371-1.011 4.462 4.462 0 01-.075-1.154c0-.048-.38-.009-.388.1a4.47 4.47 0 00.075 1.154 2.213 2.213 0 00.375 1.019c.416.488 1.247.4 1.82.42.926.036 1.848.2 2.769.289a3.385 3.385 0 002.137-.267 2.606 2.606 0 001.185-1.9c0-.055-.386-.006-.388.1" fill="#fff"/><path data-name="パス 148492" d="M25.228 23.277c2.264-1.6 1.838 1.159 1.475 2.539-.419 1.591-2.621 3.8-4.25 4.052" fill="#fff"/><path data-name="パス 148493" d="M25.82 23.288a5.2 5.2 0 01.263-.174c.048-.029.1-.055.145-.085-.108.067-.04.019-.011.006.045-.02.2-.077-.011 0 .124-.045-.084.023-.088.024.148-.04-.209.04-.066.015.008 0-.284.022-.2.023-.158 0-.018 0 .03.014-.1-.031.016.016.043.035a.365.365 0 01.151.187 2.731 2.731 0 01.087 1.519 5.784 5.784 0 01-.43 1.662 7.322 7.322 0 01-2.518 2.79c-.1.061-.2.118-.3.173.113-.061 0 0-.025.011l-.172.079c-.128.058.024 0 .034-.013-.069.062-.264.025-.036.018a.517.517 0 00-.094.026c-.143.041.2-.036-.023 0a2.388 2.388 0 00-.593.183c-.076.035-.286.13-.321.229-.089.251.541.142.616.129a6.342 6.342 0 002.939-1.424 7.734 7.734 0 001.9-2.245 5.928 5.928 0 00.574-2.035 2.336 2.336 0 00-.172-1.655 1.157 1.157 0 00-1.162-.253 4.313 4.313 0 00-1.746.74c-.048.033-.21.126-.185.219s.213.1.27.1a2.027 2.027 0 001.1-.295" fill="#251e1c"/><path data-name="パス 148494" d="M1.519 19.606c-2.557-.138-.272 4.929.25 5.7" fill="#fff"/><path data-name="パス 148495" d="M1.735 19.477a1.814 1.814 0 00-1.437.5A1.711 1.711 0 000 21.155a8.921 8.921 0 00.874 3.136 7.054 7.054 0 00.562 1.1c.1.151.7-.114.659-.177a9.452 9.452 0 01-.974-2.153 9.182 9.182 0 01-.4-1.507 2.965 2.965 0 010-1.281.984.984 0 01.266-.466.946.946 0 01.085-.064c.029-.021.034-.015.029-.015h.025a1.478 1.478 0 01.169 0 .865.865 0 00.466-.125c.1-.066.1-.122-.034-.128" fill="#251e1c"/><path data-name="パス 148496" d="M23.734 25.175c-1.233 1.734-1.105 4.33-1.646 6.056-.487 1.553-2.435 3.216-3.516 4.462-2.143 2.47-4.2 4.075-7.458 4.08a5.928 5.928 0 01-3.222-.611 20.8 20.8 0 01-2.089-1.856c-1.09-.952-1-2.248-1.834-3.453a9.89 9.89 0 01-1.986-4.805c-.071-1.817-.472-3.1-.184-4.863.714-4.369-.73-9.643 2.053-13.46 0 0 5.788-4.336 11.843-3.655s14.363 9.207 8.04 18.106" fill="#fff"/><path data-name="パス 148497" d="M23.408 25.231a10.328 10.328 0 00-1.307 4.454 7.536 7.536 0 01-.507 2.028 8.163 8.163 0 01-1.389 1.937c-.532.593-1.1 1.151-1.64 1.736-.522.566-1.017 1.153-1.57 1.691a8.816 8.816 0 01-3.54 2.255 7.769 7.769 0 01-2.2.3 6.918 6.918 0 01-2.534-.319 6.774 6.774 0 01-2.081-1.626 9.6 9.6 0 01-.9-.874 3.9 3.9 0 01-.552-1.016c-.143-.365-.261-.739-.409-1.1a6.074 6.074 0 00-.611-1.105 13.566 13.566 0 01-1.313-2.39 7.8 7.8 0 01-.409-1.264 8.149 8.149 0 01-.151-1.313c-.056-.9-.2-1.793-.254-2.694a8.755 8.755 0 01.024-1.354c.042-.421.122-.838.168-1.26.085-.789.114-1.584.124-2.377.02-1.636-.044-3.275.083-4.908a11.053 11.053 0 011.225-4.565q.148-.266.317-.52c.05-.076.1-.154.156-.226 0 0-.041.028-.025.011a.939.939 0 01.129-.093c.23-.163.466-.318.7-.47a19.474 19.474 0 017.145-2.857 10.961 10.961 0 014.372.073 11.166 11.166 0 013.244 1.414 13.152 13.152 0 015.107 5.845 10.057 10.057 0 01-.117 8.359 13.646 13.646 0 01-1.291 2.223c-.073.1.24.08.267.075a.585.585 0 00.384-.186 12.181 12.181 0 002.077-4.65 10.047 10.047 0 00-.089-4.281 12.558 12.558 0 00-4.458-6.719 12.949 12.949 0 00-3.271-1.92 10.07 10.07 0 00-3.824-.694A18.756 18.756 0 005.7 9.388a20.341 20.341 0 00-2 1.233 2.755 2.755 0 00-.7.956 9.1 9.1 0 00-.877 2.281c-.8 3.254-.17 6.634-.6 9.927-.057.439-.136.873-.16 1.316a9.9 9.9 0 00.029 1.361c.076.927.194 1.847.251 2.777a7.276 7.276 0 00.775 2.664 13.638 13.638 0 00.683 1.241c.229.372.5.722.712 1.1.4.711.563 1.525.942 2.247a3.347 3.347 0 00.745.948c.341.3.663.629.994.944a4.777 4.777 0 002.214 1.353 9.965 9.965 0 002.559.167 8.81 8.81 0 004.36-1.312 16.613 16.613 0 003.421-3.14 18.519 18.519 0 003.117-3.721 6.894 6.894 0 00.557-2.068c.128-.8.229-1.608.419-2.4a6.261 6.261 0 01.9-2.15c.073-.1-.24-.08-.267-.076a.583.583 0 00-.384.187" fill="#251e1c"/><path data-name="パス 148498" d="M14.772 10.182a3.955 3.955 0 01-1.886.761c-.627.113-1.848-.255-2.353-.051-.3.12-.39.593-.594.85a2.989 2.989 0 01-1.5 1.026c-.672.25-1.978.173-2.477.5-.94.625-.646 2.137-1.728 2.784-.624.373-1.485.373-1.907 1.017-.362.553-.218 1.815-.376 2.483a8.718 8.718 0 00-.283 1.7C.875 16.83-.778 10.799 2.205 6.841c1.3-1.721 2.824-4.087 4.768-5.238A12.475 12.475 0 0114.384.068a4.805 4.805 0 012.64 1.119c.556.494 1.01 1.946 1.664 2.046.336.052 1.093-.457 1.492-.535a4.61 4.61 0 011.67-.028 10.575 10.575 0 013.558 1.574c3.845 2.388 3.218 7.223 2.306 10.818-.511 2.018-.812 4.111-1.379 6.132-.592 2.109-1.052 5.194-2.783 6.8-.96-.872-.232-4.092-.114-5.29a13.857 13.857 0 00.08-2.967c-.2-1.772-.431-4.19-2.19-5.344-1.115-.731-2.475-.511-3.634-1.1-1.355-.693-1.692-1.7-2.323-2.861z" fill="#251e1c"/><path data-name="パス 148499" d="M14.255 19.339c.089-.069.18-.138.275-.2-.086.055.093-.053.091-.052l.121-.069q.092-.051.186-.1c.015-.008.181-.087.1-.051l.106-.046.164-.069c.22-.09.445-.168.669-.248.093-.033-.119.037.031-.01l.2-.064.328-.1c.107-.032.213-.066.321-.1.026-.007.2-.038.079-.022s.045-.01.066-.006c-.072-.014-.118.007-.011.007.086 0-.125-.007 0 0s-.052-.021.02 0c.037.012.074.025.109.04a3.091 3.091 0 01.869.779c.313.353 1.791-.194 1.452-.576a2.294 2.294 0 00-2.95-.83 10.358 10.358 0 00-3.451 1.531c-.076.059-.2.179-.165.293s.194.156.29.171a1.565 1.565 0 001.1-.295" fill="#251e1c"/><path data-name="パス 148500" d="M9.535 18.38a3.551 3.551 0 00-1.039-.794 11.207 11.207 0 00-1.413-.646 3.43 3.43 0 00-1.5-.325 2.189 2.189 0 00-.87.269 7.594 7.594 0 00-.412.254l-.134.087-.086.054q.1-.061-.02.009c-.257.141-.613.456-.375.772a.909.909 0 001.052.1c.234-.129.458-.272.682-.416l.071-.045q.075-.046-.056.033c0-.015.077-.038.092-.046.149-.081-.177.047-.012.007-.039.009-.167.032-.055.016-.164.024-.026 0 .04.014-.079-.014 0 0 .033.013.072.023.145.045.216.069.181.06.36.126.537.2s.38.154.566.239a.533.533 0 00.051.023l.141.07q.139.07.275.145a4.935 4.935 0 01.492.308c.036.026.071.052.106.08.011.009.119.1.059.046s.036.036.047.047c.03.031.059.064.086.1a.909.909 0 001.051.1c.247-.127.627-.469.375-.772" fill="#251e1c"/><path data-name="パス 148501" d="M12.906 26.319a1.436 1.436 0 01-.309 1.317 1.985 1.985 0 01-1.1.486 4.918 4.918 0 01-1.48.007 2.869 2.869 0 01-1.541-.615 1.227 1.227 0 01-.4-.948.74.74 0 01.463-.727c.136-.041.37-.156.326-.336s-.325-.166-.451-.128a1.527 1.527 0 00-1.007.8 1.488 1.488 0 00-.007 1.142 2.462 2.462 0 001.868 1.24 5.991 5.991 0 001.911.1 3.624 3.624 0 001.835-.649 1.849 1.849 0 00.665-1.9c-.059-.315-.839-.121-.777.208" fill="#251e1c"/><path data-name="パス 148502" d="M5.998 30.992c.469.822.905 1.659 1.424 2.452a10.735 10.735 0 001.017 1.347 2.915 2.915 0 001.078.826 2.7 2.7 0 001.63-.1 4.715 4.715 0 001.625-.808 5.376 5.376 0 001.576-2.241c.151-.371.273-.752.388-1.135.038-.125.073-.251.117-.373.014-.038.032-.074.045-.112 0-.01.024-.032.023-.041.006.079-.72.262-.52.218l-.07-.26a9.141 9.141 0 00-1.5.581l.326-.13c.27-.078-.018 0-.091.011q-.259.045-.52.086a25.07 25.07 0 01-1.475.191 5.918 5.918 0 01-1.291.038 12.294 12.294 0 01-1.944-.474 2.973 2.973 0 01-1.741-1.1c-.132-.222-1.018.141-.951.255a3.375 3.375 0 002.066 1.248c.458.135.925.24 1.392.344a4.159 4.159 0 00.894.112 15.019 15.019 0 002.131-.181c.482-.066.967-.133 1.444-.228.053-.01.1-.021.157-.035a1.224 1.224 0 00.181-.061.832.832 0 00.146-.069q-.093.047-.032.017c.034-.015.2-.083.117-.051.085-.033.17-.065.255-.1q.376-.139.755-.268c.06-.021.343-.115.314-.224s-.322-.05-.384-.037c-.349.077-.576.165-.687.492-.087.257-.157.519-.241.777a6.914 6.914 0 01-1.114 2.2 3.579 3.579 0 01-1.028.888 2.624 2.624 0 01-.264.127c.043-.018-.084.031-.114.042-.094.033-.036.013-.015.007-.04.013-.08.023-.12.034a2.562 2.562 0 01-.261.07l-.108.012c-.09.01.061 0 0 0s0 .008-.085-.007a2.106 2.106 0 01-1-.641 8.375 8.375 0 01-1.007-1.264c-.588-.863-1.067-1.786-1.584-2.692-.126-.221-1.019.135-.951.255" fill="#251e1c"/><path data-name="パス 148503" d="M18.086 22.186a5.722 5.722 0 00-2.684-.842 3.408 3.408 0 00-2.759.886c-.128.137.109.2.2.2a.707.707 0 00.515-.206 2.153 2.153 0 011.872-.46 5.086 5.086 0 012.129.712.574.574 0 00.511-.005c.056-.023.358-.2.213-.289" fill="#251e1c"/><path data-name="パス 148504" d="M15.9 21.968c.186 1.826-2.416-.185-.668-.394" fill="#251e1c"/><path data-name="パス 148505" d="M15.51 22.072c0 .031.006.062.007.093v-.069a1.045 1.045 0 01-.04.385l.023-.07a.507.507 0 01-.065.129l.047-.066a.4.4 0 01-.056.063l.068-.06a.358.358 0 01-.057.041l.086-.05a.39.39 0 01-.056.026l.1-.037a.412.412 0 01-.064.017l.106-.019a.485.485 0 01-.081.007h.1a.644.644 0 01-.117-.012l.089.018a.877.877 0 01-.19-.063l.074.034a1.169 1.169 0 01-.283-.185l.055.048a.938.938 0 01-.217-.269l.032.062a.488.488 0 01-.056-.19v.069a.324.324 0 01.015-.118l-.023.069a.315.315 0 01.042-.081l-.047.066a.375.375 0 01.056-.061l-.068.06a.5.5 0 01.078-.055l-.086.05a.769.769 0 01.114-.053l-.1.037a1.224 1.224 0 01.2-.052l-.106.019q.05-.009.1-.015a.632.632 0 00.293-.105.318.318 0 00.139-.2c.012-.186-.2-.25-.353-.231a1.761 1.761 0 00-.6.163 1.107 1.107 0 00-.268.189.408.408 0 00-.043.049.7.7 0 00-.075.113.536.536 0 00-.039.357.818.818 0 00.144.292 1.4 1.4 0 00.589.441 1.011 1.011 0 00.353.081 1.181 1.181 0 00.323-.03.955.955 0 00.293-.128.851.851 0 00.352-.783c0-.063-.006-.126-.012-.189s-.1-.126-.161-.144a.532.532 0 00-.294 0 .52.52 0 00-.255.146l-.047.066a.191.191 0 00-.02.139" fill="#251e1c"/><path data-name="パス 148506" d="M8.86 21.859a2.823 2.823 0 00-1.969-.961 5.3 5.3 0 00-2.452.019c-.108.034-.378.124-.341.283s.346.1.437.075c.029-.009.2-.051.107-.032a2.52 2.52 0 01.212-.032 3.564 3.564 0 01.438-.02 6.417 6.417 0 011.117.107 4.64 4.64 0 011.03.3 1.353 1.353 0 01.643.471c.145.245.888-.021.777-.208" fill="#251e1c"/><path data-name="パス 148507" d="M6.914 21.326c-.255 2.109-1.514.275-.548-.309" fill="#251e1c"/><path data-name="パス 148508" d="M6.525 21.43c0 .031-.008.061-.012.092l.005-.036a2 2 0 01-.185.66.732.732 0 01-.068.106l.031-.04a.436.436 0 01-.076.076l.054-.041a.338.338 0 01-.038.024l.074-.04-.013.006h-.006c-.027.013-.092.029.081-.033a.494.494 0 00.076-.023.655.655 0 00.078-.018c-.01 0 .128-.013.081-.011h-.013.084-.033l.068.008a.269.269 0 01-.062-.016l.047.019a.408.408 0 01-.162-.13l.023.029a.824.824 0 01-.163-.468.85.85 0 01.007-.154l-.005.036a.733.733 0 01.146-.349l-.033.045a.736.736 0 01.132-.13l-.054.041a.864.864 0 01.073-.05c.028-.017.1-.07.091-.117s-.1-.055-.137-.056a.945.945 0 00-.284.038 1.068 1.068 0 00-.265.109.9.9 0 00-.422.53.919.919 0 00.028.542.814.814 0 00.132.225.416.416 0 00.148.122.535.535 0 00.193.049 1.082 1.082 0 00.361-.043 1.2 1.2 0 00.342-.143.634.634 0 00.134-.112 1.5 1.5 0 00.293-.776q.014-.088.024-.176c.006-.046-.125-.055-.137-.056a.909.909 0 00-.284.038.9.9 0 00-.265.109l-.054.041a.084.084 0 00-.037.076" fill="#251e1c"/><path data-name="パス 148509" d="M24.417 21.554a28.892 28.892 0 00-2.892.051c-.479.028-.958.06-1.437.089-.213.013-.468.082-.651-.055-.242-.182-.462-.39-.718-.555a3 3 0 00-1.029-.378 14.883 14.883 0 00-2.678-.342 10.762 10.762 0 00-2.607.216 6.1 6.1 0 00-1.151.351 1.8 1.8 0 01-1.059.244 5.512 5.512 0 01-1.907-1.044 6.2 6.2 0 00-2.1-.711 5.261 5.261 0 00-4.62.891c-.065.058.058.054.089.053a.479.479 0 00.261-.09 4.6 4.6 0 014.239-.649 8.665 8.665 0 011.113.307 4.308 4.308 0 01.914.5 4.058 4.058 0 001.792.9 4.9 4.9 0 001.91-.515 9.163 9.163 0 012.666-.311 14.2 14.2 0 012.658.309 3.271 3.271 0 011.088.366 6.934 6.934 0 01.731.557.66.66 0 00.512.121c.47-.025.939-.058 1.408-.087a30.846 30.846 0 013.208-.07.465.465 0 00.275-.074c.05-.042.065-.07-.02-.074" fill="#251e1c"/><path data-name="パス 148510" d="M9.681 21.915a2.378 2.378 0 01-.358 1.05 1.163 1.163 0 01-.586.552 3.168 3.168 0 01-.862.025q-.625-.012-1.249-.053a20.358 20.358 0 01-1.182-.112 3.673 3.673 0 01-.983-.19 1.752 1.752 0 01-.881-1.1 9.6 9.6 0 01-.34-1.647c-.03-.191-.42-.092-.389.1.16 1.011.274 2.381 1.321 2.89a3.308 3.308 0 001.02.229 24.877 24.877 0 002.732.186 2.889 2.889 0 00.951-.062 2.234 2.234 0 001.2-1.892c.019-.209-.378-.163-.395.025" fill="#251e1c"/><path data-name="パス 148511" d="M18.994 22.574a2.508 2.508 0 01-.905 1.647c-.545.472-1.4.309-2.055.229-.817-.1-1.642-.222-2.465-.257-.54-.023-1.313.074-1.711-.379a2.157 2.157 0 01-.371-1.011 4.462 4.462 0 01-.075-1.154c0-.048-.38-.009-.388.1a4.47 4.47 0 00.075 1.154 2.213 2.213 0 00.375 1.019c.416.488 1.247.4 1.82.42.926.036 1.848.2 2.769.289a3.385 3.385 0 002.137-.267 2.606 2.606 0 001.185-1.9c0-.055-.386-.006-.388.1" fill="#251e1c"/></g></svg>