<svg xmlns="http://www.w3.org/2000/svg" xmlns:xlink="http://www.w3.org/1999/xlink" width="30.364" height="38.785" viewBox="0 0 30.364 38.785">
  <defs>
    <clipPath id="clip-path">
      <rect id="長方形_23002" data-name="長方形 23002" width="30.364" height="38.785" transform="translate(0 0)" fill="none"/>
    </clipPath>
  </defs>
  <g id="グループ_61164" data-name="グループ 61164" transform="translate(0 0)">
    <g id="グループ_61164-2" data-name="グループ 61164" transform="translate(0 0)" clip-path="url(#clip-path)">
      <path id="パス_148251" data-name="パス 148251" d="M4.319,50.275A1.593,1.593,0,0,0,1.624,49.4c-.823.97-.363,2.339-.04,3.377.444,1.43.871,2.958,1.437,4.346.209.513.691,1.7,1.372,1.817.492.086,1.044-.119.839-.683Z" transform="translate(-0.729 -30.73)" fill="#fff"/>
      <path id="パス_148252" data-name="パス 148252" d="M4.014,49.749A1.811,1.811,0,0,0,2.181,48.27,2.054,2.054,0,0,0,.046,49.957c-.219,1.232.4,2.572.755,3.725a23.6,23.6,0,0,0,1.382,3.843c.446.878,1.151,1.555,2.2,1.142a.764.764,0,0,0,.546-.942c-.013-.085-.02-.171-.029-.257l-.464-4.053-.42-3.667c-.033-.286-.886-.1-.848.227l.707,6.176.163,1.427c.029.257.213.842-.208.682-.369-.141-.63-.636-.8-.963a12.562,12.562,0,0,1-.557-1.331C2.04,54.8,1.7,53.6,1.328,52.406c-.312-1.011-.9-2.526-.025-3.424.7-.714,1.767.247,1.861.994.036.287.889.1.848-.227" transform="translate(0 -30.317)" fill="#fff"/>
      <path id="パス_148253" data-name="パス 148253" d="M66.1,56.46c.25-1.7,2.652-.773,3.056.383.712,2.035-1.094,5.485-2.657,6.821-1.694,1.447-2.58-.092-2.354-1.831a13.037,13.037,0,0,1,.967-3.462c.367-.866,1-1.49,1.36-2.325" transform="translate(-40.27 -34.875)" fill="#fff"/>
      <path id="パス_148254" data-name="パス 148254" d="M65.809,56.073c.035-.2.1-.527.307-.632a.682.682,0,0,1,.437.013,2.321,2.321,0,0,1,1.246.79c.775.973.291,2.634-.107,3.658a8.559,8.559,0,0,1-2.238,3.393c-.21.179-.505.459-.806.4a.939.939,0,0,1-.554-.5,3.236,3.236,0,0,1-.2-2.025,13.123,13.123,0,0,1,.874-3.054c.367-.88,1.021-1.59,1.414-2.455.094-.208-.73-.125-.843.125-.433.953-1.132,1.731-1.519,2.715a11.6,11.6,0,0,0-.831,3.288,2.5,2.5,0,0,0,.557,2.04,1.76,1.76,0,0,0,1.994-.032A7.817,7.817,0,0,0,68.5,59.877c.491-1.224,1.005-3.15-.126-4.184-.937-.857-3.12-1.133-3.4.5-.048.276.8.129.843-.124" transform="translate(-39.553 -34.55)" fill="#fff"/>
      <path id="パス_148255" data-name="パス 148255" d="M8.009,23.638c-.279,6.474-1.384,12.433,2.524,18,3.5,5,8.384,5.5,12.761,1.59,4.659-4.159,6.041-8.847,7.565-14.071a23.939,23.939,0,0,0,.5-5.709c.1-2.78.3-6.217-1.627-8.539-2.782-3.35-8.17-4.384-12.174-2.637-2.313,1.009-4.233,1.742-5.87,3.7s-3.519,5.109-3.68,7.661" transform="translate(-4.806 -7.184)" fill="#fff"/>
      <path id="パス_148256" data-name="パス 148256" d="M6.86,23.48A73.012,73.012,0,0,0,6.62,33.7a15.7,15.7,0,0,0,3.8,9.085,7.933,7.933,0,0,0,7.314,2.8c3.1-.537,5.6-2.714,7.535-5.081A25.223,25.223,0,0,0,29.5,32.265a32.348,32.348,0,0,0,1.288-4.506,39.585,39.585,0,0,0,.293-5.354c.1-3.02.062-6.244-2.231-8.509a10.836,10.836,0,0,0-7.726-2.889A11.9,11.9,0,0,0,17,11.8a23.861,23.861,0,0,0-4.2,2.018,11.545,11.545,0,0,0-3.158,3.149A17.175,17.175,0,0,0,7.3,21.377a8.6,8.6,0,0,0-.445,2.1c-.006.087.831.007.848-.227a10.973,10.973,0,0,1,1.426-4.293,17.394,17.394,0,0,1,2.618-3.751,11.5,11.5,0,0,1,3.692-2.45A13.837,13.837,0,0,1,19.491,11.4a10.782,10.782,0,0,1,7.747,2.066,7.138,7.138,0,0,1,2.472,3.342,13.155,13.155,0,0,1,.557,4.305c0,1.545-.057,3.1-.118,4.643a15.358,15.358,0,0,1-.283,2.609c-.162.759-.412,1.506-.635,2.249a32.657,32.657,0,0,1-3.287,7.929,20.025,20.025,0,0,1-2.929,3.678,11.989,11.989,0,0,1-3.766,2.693,6.867,6.867,0,0,1-7.27-1.639A14.683,14.683,0,0,1,7.673,35a39.677,39.677,0,0,1-.1-9.3c.051-.814.1-1.628.134-2.443,0-.1-.838,0-.848.227" transform="translate(-4.081 -6.912)" fill="#fff"/>
      <path id="パス_148257" data-name="パス 148257" d="M15.546,7.1c-.233,1.269-.713,4.447-.851,5.741a24.676,24.676,0,0,1,3.872-1.907c.84-.333,2.563-2.44,3.4-2.736,1.019-.361.591.591,1.351,1.52.8.981,1.074,3.253,1.981,4.034a33.09,33.09,0,0,0,.637-4.372c.656,2.047,1.479,5.012,2.026,7.008.21.765.094,2.03.33,2.765.4,1.238-.143,2.842-.259,4.126,4.627-3.243,6.312-12.3,3.238-17.51C29.876,3.41,25.079,1.613,22.5.526A6.046,6.046,0,0,0,18.979.141c-.82.28-.817-.045-1.622-.08C16.83.038,15.9.089,15.322.033c-3.45-.339-6.442,2.025-8.39,4.616a17.267,17.267,0,0,0-2.869,7.309A22.555,22.555,0,0,0,4.8,20.57c1.1-2.24.7-6.194,2.092-8.318a19.368,19.368,0,0,1,4.859-4.9c.388.739-1.411,1.73-1.435,2.533,1.307-.19,2.279-1.52,3.8-1.858Z" transform="translate(-2.46 0)" fill="#fff"/>
      <path id="パス_148258" data-name="パス 148258" d="M15.546,7.1c-.233,1.269-.713,4.447-.851,5.741a24.676,24.676,0,0,1,3.872-1.907c.84-.333,2.563-2.44,3.4-2.736,1.019-.361.591.591,1.351,1.52.8.981,1.074,3.253,1.981,4.034a33.09,33.09,0,0,0,.637-4.372c.656,2.047,1.479,5.012,2.026,7.008.21.765.094,2.03.33,2.765.4,1.238-.143,2.842-.259,4.126,4.627-3.243,6.312-12.3,3.238-17.51C29.876,3.41,25.079,1.613,22.5.526A6.046,6.046,0,0,0,18.979.141c-.82.28-.817-.045-1.622-.08C16.83.038,15.9.089,15.322.033c-3.45-.339-6.442,2.025-8.39,4.616a17.267,17.267,0,0,0-2.869,7.309A22.555,22.555,0,0,0,4.8,20.57c1.1-2.24.7-6.194,2.092-8.318a19.368,19.368,0,0,1,4.859-4.9c.388.739-1.411,1.73-1.435,2.533,1.307-.19,2.279-1.52,3.8-1.858Z" transform="translate(-2.46 0)" fill="#fff"/>
      <path id="パス_148259" data-name="パス 148259" d="M44.953,46.739a7.5,7.5,0,0,1,6.24-.412" transform="translate(-28.234 -28.796)" fill="#fff"/>
      <path id="パス_148260" data-name="パス 148260" d="M44.04,46.189a3.452,3.452,0,0,1,1.092-.5,5.28,5.28,0,0,1,1.205-.163,7.892,7.892,0,0,1,2.745.425,1.551,1.551,0,0,0,1.2-.177c.186-.107.554-.459.168-.591a8.816,8.816,0,0,0-7.436.589c-.2.128-.535.431-.168.591a1.5,1.5,0,0,0,1.2-.177" transform="translate(-26.807 -28.039)" fill="#fff"/>
      <path id="パス_148261" data-name="パス 148261" d="M20.257,43.574c-.627-.8-3.59-3.412-4.69-1.752" transform="translate(-9.777 -25.928)" fill="#fff"/>
      <path id="パス_148262" data-name="パス 148262" d="M19.66,42.819a7.867,7.867,0,0,0-1.747-1.559,3.808,3.808,0,0,0-2.726-.788,2.731,2.731,0,0,0-1.9.979c-.16.234.613.134.668.123.3-.061.807-.158,1-.44a1.428,1.428,0,0,1,.19-.213c.073-.081-.088.049.011-.01.143-.085-.318.122-.146.063a1.967,1.967,0,0,1-.43.1c.117-.012-.171-.013.02,0l.083,0q-.112-.009-.018,0c.042.01.086.013.129.021a3.843,3.843,0,0,1,1.249.548,7.683,7.683,0,0,1,1.919,1.625c.172.217.69.064.91,0,.067-.019.911-.3.787-.456" transform="translate(-8.332 -25.399)" fill="#fff"/>
      <path id="パス_148263" data-name="パス 148263" d="M44.357,56.837c.681-1.836,4.387-2.508,5.157-.395" transform="translate(-27.86 -34.628)" fill="#fff"/>
      <path id="パス_148264" data-name="パス 148264" d="M44.059,56.446c.659-1.709,3.6-2.087,4.314-.207.078.2.913-.057.848-.227-.753-1.987-3.687-1.522-5.06-.547a2.537,2.537,0,0,0-.939,1.129c-.056.145.284.1.341.087.13-.023.439-.084.5-.234" transform="translate(-27.143 -34.311)" fill="#fff"/>
      <path id="パス_148265" data-name="パス 148265" d="M48.621,56.324c.047.877.9,1.327,1.244.414l.209-.776Z" transform="translate(-30.538 -35.149)" fill="#fff"/>
      <path id="パス_148266" data-name="パス 148266" d="M46.318,55.611a1.4,1.4,0,0,0,.33.823,1.354,1.354,0,0,0,1.152.415,1.694,1.694,0,0,0,1.333-.82,2.536,2.536,0,0,0,.208-.6c.045-.164.089-.328.133-.492.052-.193-.118-.338-.271-.4a1.133,1.133,0,0,0-.72-.022l-1.274.317-.179.044a1.217,1.217,0,0,0-.56.31.474.474,0,0,0-.152.426c.134.381.674.359.984.281l1.274-.317.179-.045-.991-.424q-.1.388-.208.776c.017-.048.035-.1.053-.144a1.19,1.19,0,0,1-.147.277l.1-.138a.726.726,0,0,1-.11.115l.151-.125a.629.629,0,0,1-.082.055l.189-.105a.627.627,0,0,1-.061.027l.221-.078a.559.559,0,0,1-.074.02l.231-.042a.508.508,0,0,1-.075.007l.216,0a.5.5,0,0,1-.074-.006l.193.033a.546.546,0,0,1-.111-.032l.16.067a.684.684,0,0,1-.163-.1l.119.1a.923.923,0,0,1-.212-.266l.067.127a1.263,1.263,0,0,1-.137-.512c-.009-.149-.233-.26-.345-.293a1.207,1.207,0,0,0-.639.012,1.182,1.182,0,0,0-.56.31l-.105.138a.379.379,0,0,0-.047.288" transform="translate(-29.083 -34.209)" fill="#fff"/>
      <path id="パス_148267" data-name="パス 148267" d="M20.015,53.733c-.094-1.077-1.8-1.717-2.773-1.854a2.743,2.743,0,0,0-2,.644" transform="translate(-9.571 -32.569)" fill="#fff"/>
      <path id="パス_148268" data-name="パス 148268" d="M19.733,53.283c-.107-.971-1.264-1.492-2.078-1.745a3.842,3.842,0,0,0-1.583-.2,4.4,4.4,0,0,0-1.793.761c-.1.064-.261.185-.091.27a.786.786,0,0,0,.6-.1,2.54,2.54,0,0,1,1.223-.552,3.559,3.559,0,0,1,1.185.257c.7.249,1.6.706,1.693,1.532.024.216.878.042.848-.227" transform="translate(-8.864 -32.233)" fill="#fff"/>
      <path id="パス_148269" data-name="パス 148269" d="M19.712,53.748c-.9.012.222,1.494.906.176" transform="translate(-12.17 -33.758)" fill="#fff"/>
      <path id="パス_148270" data-name="パス 148270" d="M18.592,52.357c-.091,0-.183,0-.274.01a2.6,2.6,0,0,0-.282.051,1.608,1.608,0,0,0-.313.106,1.465,1.465,0,0,0-.405.261.931.931,0,0,0-.077.089.64.64,0,0,0-.074.1.6.6,0,0,0-.077.4.7.7,0,0,0,.115.269.6.6,0,0,0,.122.15,1.088,1.088,0,0,0,.285.2,1.483,1.483,0,0,0,.543.13,2.18,2.18,0,0,0,.875-.163c.022-.008.042-.017.063-.028a2.57,2.57,0,0,0,.25-.136,1.766,1.766,0,0,0,.278-.221,1.925,1.925,0,0,0,.354-.477.259.259,0,0,0,.054-.2.21.21,0,0,0-.065-.182.386.386,0,0,0-.194-.118.644.644,0,0,0-.27-.056,1.485,1.485,0,0,0-.666.128l-.19.1a.829.829,0,0,0-.26.249,1.544,1.544,0,0,1-.174.268l.107-.13a1.009,1.009,0,0,1-.147.144l.152-.119a.762.762,0,0,1-.1.067l.19-.1a.66.66,0,0,1-.081.036l.221-.077a.611.611,0,0,1-.08.022l.23-.044a.562.562,0,0,1-.079.009l.215-.007a.61.61,0,0,1-.09,0l.191.027a.585.585,0,0,1-.118-.029l.158.059a.628.628,0,0,1-.16-.089l.115.089a.6.6,0,0,1-.159-.183l.063.116a.385.385,0,0,1-.05-.17c0,.044,0,.088,0,.132a.239.239,0,0,1,.016-.091l-.056.134a.212.212,0,0,1,.031-.051l-.107.13a.256.256,0,0,1,.035-.034l-.152.119a.282.282,0,0,1,.036-.023l-.19.1.043-.019-.221.077a.527.527,0,0,1,.064-.017l-.23.044a.71.71,0,0,1,.093-.01l-.215.007h.017a1.079,1.079,0,0,0,.33-.029,1.185,1.185,0,0,0,.336-.1.9.9,0,0,0,.266-.161.619.619,0,0,0,.183-.189l.056-.134a.279.279,0,0,0-.067-.248l-.115-.089a.842.842,0,0,0-.349-.086" transform="translate(-10.73 -32.885)" fill="#fff"/>
      <path id="パス_148271" data-name="パス 148271" d="M29.08,60.437c-1.371,1.342-3.955,5.769-1.108,4.966.335.437.361.728,1.019.711.567-.014.758-.3,1.083-.687.714.694,1.392,1.006,1.872-.185.356-.884.168-.693-.3-1.352" transform="translate(-16.763 -37.96)" fill="#fff"/>
      <path id="パス_148272" data-name="パス 148272" d="M28.055,60.127a10.326,10.326,0,0,0-1.845,2.634,5.351,5.351,0,0,0-.54,1.431,1.064,1.064,0,0,0,.161.954c.37.374,1.082.213,1.519.094l-.409-.015a2.623,2.623,0,0,0,.447.576,1.261,1.261,0,0,0,.821.18,2.074,2.074,0,0,0,1.562-.885l-.727.154a2.091,2.091,0,0,0,1.066.649,1.4,1.4,0,0,0,1.2-.415,2.217,2.217,0,0,0,.553-1.241c.014-.322-.337-.579-.511-.816-.131-.179-.888.077-.734.287.128.175.369.362.442.569.083.237-.109.583-.2.791a4.741,4.741,0,0,1-.269.431.774.774,0,0,1-.061.055.25.25,0,0,1,.117-.028s-.086-.02-.126-.035a2.19,2.19,0,0,1-.737-.536c-.16-.153-.6.009-.727.154-.219.26-.38.556-.752.472-.306-.069-.452-.422-.624-.651-.069-.093-.325-.038-.409-.015-.251.069-.563.139-.742-.112a1.165,1.165,0,0,1-.035-.915,8.223,8.223,0,0,1,1.321-2.61,8.441,8.441,0,0,1,.966-1.182c.133-.132-.115-.18-.2-.18a.775.775,0,0,0-.521.2" transform="translate(-16.098 -37.639)" fill="#fff"/>
      <path id="パス_148273" data-name="パス 148273" d="M10.675,53.306c-.067-.849-.415-2.346.214-3.14.39-.491,1.348-.4,1.91-.387a19.514,19.514,0,0,1,3.7.518c.872.194,2.5.381,2.9,1.384a2.555,2.555,0,0,1-.565,1.982" transform="translate(-6.606 -31.256)" fill="#fff"/>
      <path id="パス_148274" data-name="パス 148274" d="M10.174,52.4c-.694-1.983-.936-4.188,1.871-4.072a16.085,16.085,0,0,1,5.919,1.093c1.658.74,1.584,2.189.367,3.336.429-1.071.742-2.1-.705-2.487a45,45,0,0,0-5.171-.836,5.2,5.2,0,0,0-1.563,0,.4.4,0,0,0-.2.122c-.6.791-.382,1.877-.521,2.842" transform="translate(-6.106 -30.354)" fill="#fff"/>
      <path id="パス_148275" data-name="パス 148275" d="M40.073,56.5c-.007-.722-.466-2.092.029-2.758.766-1.029,3.651-.7,4.638-.588,1.224.135,3.235.2,4.178,1.162a1.826,1.826,0,0,1,.431,1.384c-.032.381-.25,1.362-.71,1.444" transform="translate(-25.043 -33.297)" fill="#fff"/>
      <path id="パス_148276" data-name="パス 148276" d="M39.557,55.564a13.083,13.083,0,0,1-.485-1.9c-.262-1.761,1.955-2.147,3.239-2.14,1.881.085,5.591.073,6.617,1.917a2.363,2.363,0,0,1-.094,2.09c-.146.28-.361.653-.711.673a.584.584,0,0,0,.285-.339,2.823,2.823,0,0,0,.143-1.313c-.249-1.774-3.017-1.539-4.411-1.758a12.721,12.721,0,0,0-3.583-.073,1.374,1.374,0,0,0-.644.29c-.533.646-.19,1.71-.356,2.549" transform="translate(-24.527 -32.365)" fill="#fff"/>
      <path id="パス_148277" data-name="パス 148277" d="M64.71,56.178a33.4,33.4,0,0,1,3.689-.91l-3.45,1.845Z" transform="translate(-40.644 -34.713)" fill="#fff"/>
      <path id="パス_148278" data-name="パス 148278" d="M63.744,55.851a18.386,18.386,0,0,0,1.889-.52c.287-.088.575-.174.867-.244.08-.019.159-.038.24-.054.037-.007.182-.03.066-.013.152-.023.3-.041.457-.049l-.206-.768-3.015,1.613-.434.232.893.172-.239-.936c-.138-.54-1.388-.21-1.249.334q.119.468.239.936c.089.349.666.294.893.172l3.016-1.613.434-.232c.174-.093.418-.272.356-.507s-.363-.271-.561-.261a28.539,28.539,0,0,0-3.859.94c-.233.045-.592.286-.518.565.081.3.5.275.731.231" transform="translate(-39.571 -33.988)" fill="#fff"/>
      <path id="パス_148279" data-name="パス 148279" d="M7.556,49.906c-.256-.437-.958-.694-1.349-1.071" transform="translate(-3.899 -30.673)" fill="#fff"/>
      <path id="パス_148280" data-name="パス 148280" d="M7.128,49.291c-.315-.527-.957-.711-1.386-1.12-.064-.061-.248-.05-.32-.046a1.7,1.7,0,0,0-.487.109.877.877,0,0,0-.348.194c-.049.056-.087.112-.021.175a4.316,4.316,0,0,0,.675.481,2.308,2.308,0,0,1,.618.507l-.037-.048c.02.027.038.055.055.083a.255.255,0,0,0,.222.1,1.411,1.411,0,0,0,.458-.058,1.381,1.381,0,0,0,.425-.179c.043-.031.186-.124.144-.194" transform="translate(-2.846 -30.225)" fill="#fff"/>
      <path id="パス_148281" data-name="パス 148281" d="M13.9,62.228a24.2,24.2,0,0,0,4.514.616c.6.022,1.18.118,1.461-.5" transform="translate(-8.73 -39.085)" fill="#fff"/>
      <path id="パス_148282" data-name="パス 148282" d="M13.486,62.115a25.287,25.287,0,0,0,3.827.58c.812.055,1.973.3,2.419-.589.106-.21-.315-.213-.4-.048-.215.427-.608.4-1.027.377-.512-.023-1.022-.05-1.532-.1a26.08,26.08,0,0,1-3.145-.523c-.2-.046-.418.241-.144.3" transform="translate(-8.389 -38.82)" fill="#fff"/>
      <path id="パス_148283" data-name="パス 148283" d="M41.8,64.1c.223.433.392.816.878,1.01a10.651,10.651,0,0,0,3.187.384c.526.024,2.556.184,2.759-.551" transform="translate(-26.253 -40.26)" fill="#fff"/>
      <path id="パス_148284" data-name="パス 148284" d="M41.228,63.963a2.334,2.334,0,0,0,.636.9,2.717,2.717,0,0,0,1.095.38,19.362,19.362,0,0,0,2.555.181,9.188,9.188,0,0,0,1.716-.027c.437-.061,1.076-.189,1.238-.671.045-.135-.37-.082-.416.054-.145.434-.9.423-1.269.436-.417.015-.831-.01-1.247-.028a18.633,18.633,0,0,1-2.217-.148,2.859,2.859,0,0,1-1.017-.306,2.01,2.01,0,0,1-.658-.88c-.07-.138-.475,0-.416.112" transform="translate(-25.891 -40.068)" fill="#fff"/>
      <path id="パス_148285" data-name="パス 148285" d="M34.292,54.827a1.96,1.96,0,0,0,1.677.475,3.163,3.163,0,0,1,.543-.2" transform="translate(-21.538 -34.436)" fill="#fff"/>
      <path id="パス_148286" data-name="パス 148286" d="M4.319,50.275A1.593,1.593,0,0,0,1.624,49.4c-.823.97-.363,2.339-.04,3.377.444,1.43.871,2.958,1.437,4.346.209.513.691,1.7,1.372,1.817.492.086,1.044-.119.839-.683Z" transform="translate(-0.729 -30.73)" fill="#fff"/>
      <path id="パス_148287" data-name="パス 148287" d="M4.014,49.749A1.811,1.811,0,0,0,2.181,48.27,2.054,2.054,0,0,0,.046,49.957c-.219,1.232.4,2.572.755,3.725a23.6,23.6,0,0,0,1.382,3.843c.446.878,1.151,1.555,2.2,1.142a.764.764,0,0,0,.546-.942c-.013-.085-.02-.171-.029-.257l-.464-4.053-.42-3.667c-.033-.286-.886-.1-.848.227l.707,6.176.163,1.427c.029.257.213.842-.208.682-.369-.141-.63-.636-.8-.963a12.562,12.562,0,0,1-.557-1.331C2.04,54.8,1.7,53.6,1.328,52.406c-.312-1.011-.9-2.526-.025-3.424.7-.714,1.767.247,1.861.994.036.287.889.1.848-.227" transform="translate(0 -30.317)" fill="#fff"/>
      <path id="パス_148288" data-name="パス 148288" d="M66.1,56.46c.25-1.7,2.652-.773,3.056.383.712,2.035-1.094,5.485-2.657,6.821-1.694,1.447-2.58-.092-2.354-1.831a13.037,13.037,0,0,1,.967-3.462c.367-.866,1-1.49,1.36-2.325" transform="translate(-40.27 -34.875)" fill="#fff"/>
      <path id="パス_148289" data-name="パス 148289" d="M65.809,56.073c.035-.2.1-.527.307-.632a.682.682,0,0,1,.437.013,2.321,2.321,0,0,1,1.246.79c.775.973.291,2.634-.107,3.658a8.559,8.559,0,0,1-2.238,3.393c-.21.179-.505.459-.806.4a.939.939,0,0,1-.554-.5,3.236,3.236,0,0,1-.2-2.025,13.123,13.123,0,0,1,.874-3.054c.367-.88,1.021-1.59,1.414-2.455.094-.208-.73-.125-.843.125-.433.953-1.132,1.731-1.519,2.715a11.6,11.6,0,0,0-.831,3.288,2.5,2.5,0,0,0,.557,2.04,1.76,1.76,0,0,0,1.994-.032A7.817,7.817,0,0,0,68.5,59.877c.491-1.224,1.005-3.15-.126-4.184-.937-.857-3.12-1.133-3.4.5-.048.276.8.129.843-.124" transform="translate(-39.553 -34.55)" fill="#fff"/>
      <path id="パス_148290" data-name="パス 148290" d="M8.009,23.638c-.279,6.474-1.384,12.433,2.524,18,3.5,5,8.384,5.5,12.761,1.59,4.659-4.159,6.041-8.847,7.565-14.071a23.939,23.939,0,0,0,.5-5.709c.1-2.78.3-6.217-1.627-8.539-2.782-3.35-8.17-4.384-12.174-2.637-2.313,1.009-4.233,1.742-5.87,3.7s-3.519,5.109-3.68,7.661" transform="translate(-4.806 -7.184)" fill="#fff"/>
      <path id="パス_148291" data-name="パス 148291" d="M6.86,23.48A73.012,73.012,0,0,0,6.62,33.7a15.7,15.7,0,0,0,3.8,9.085,7.933,7.933,0,0,0,7.314,2.8c3.1-.537,5.6-2.714,7.535-5.081A25.223,25.223,0,0,0,29.5,32.265a32.348,32.348,0,0,0,1.288-4.506,39.585,39.585,0,0,0,.293-5.354c.1-3.02.062-6.244-2.231-8.509a10.836,10.836,0,0,0-7.726-2.889A11.9,11.9,0,0,0,17,11.8a23.861,23.861,0,0,0-4.2,2.018,11.545,11.545,0,0,0-3.158,3.149A17.175,17.175,0,0,0,7.3,21.377a8.6,8.6,0,0,0-.445,2.1c-.006.087.831.007.848-.227a10.973,10.973,0,0,1,1.426-4.293,17.394,17.394,0,0,1,2.618-3.751,11.5,11.5,0,0,1,3.692-2.45A13.837,13.837,0,0,1,19.491,11.4a10.782,10.782,0,0,1,7.747,2.066,7.138,7.138,0,0,1,2.472,3.342,13.155,13.155,0,0,1,.557,4.305c0,1.545-.057,3.1-.118,4.643a15.358,15.358,0,0,1-.283,2.609c-.162.759-.412,1.506-.635,2.249a32.657,32.657,0,0,1-3.287,7.929,20.025,20.025,0,0,1-2.929,3.678,11.989,11.989,0,0,1-3.766,2.693,6.867,6.867,0,0,1-7.27-1.639A14.683,14.683,0,0,1,7.673,35a39.677,39.677,0,0,1-.1-9.3c.051-.814.1-1.628.134-2.443,0-.1-.838,0-.848.227" transform="translate(-4.081 -6.912)" fill="#fff"/>
      <path id="パス_148292" data-name="パス 148292" d="M15.546,7.1c-.233,1.269-.713,4.447-.851,5.741a24.676,24.676,0,0,1,3.872-1.907c.84-.333,2.563-2.44,3.4-2.736,1.019-.361.591.591,1.351,1.52.8.981,1.074,3.253,1.981,4.034a33.09,33.09,0,0,0,.637-4.372c.656,2.047,1.479,5.012,2.026,7.008.21.765.094,2.03.33,2.765.4,1.238-.143,2.842-.259,4.126,4.627-3.243,6.312-12.3,3.238-17.51C29.876,3.41,25.079,1.613,22.5.526A6.046,6.046,0,0,0,18.979.141c-.82.28-.817-.045-1.622-.08C16.83.038,15.9.089,15.322.033c-3.45-.339-6.442,2.025-8.39,4.616a17.267,17.267,0,0,0-2.869,7.309A22.555,22.555,0,0,0,4.8,20.57c1.1-2.24.7-6.194,2.092-8.318a19.368,19.368,0,0,1,4.859-4.9c.388.739-1.411,1.73-1.435,2.533,1.307-.19,2.279-1.52,3.8-1.858Z" transform="translate(-2.46 0)" fill="#fff"/>
      <path id="パス_148293" data-name="パス 148293" d="M15.546,7.1c-.233,1.269-.713,4.447-.851,5.741a24.676,24.676,0,0,1,3.872-1.907c.84-.333,2.563-2.44,3.4-2.736,1.019-.361.591.591,1.351,1.52.8.981,1.074,3.253,1.981,4.034a33.09,33.09,0,0,0,.637-4.372c.656,2.047,1.479,5.012,2.026,7.008.21.765.094,2.03.33,2.765.4,1.238-.143,2.842-.259,4.126,4.627-3.243,6.312-12.3,3.238-17.51C29.876,3.41,25.079,1.613,22.5.526A6.046,6.046,0,0,0,18.979.141c-.82.28-.817-.045-1.622-.08C16.83.038,15.9.089,15.322.033c-3.45-.339-6.442,2.025-8.39,4.616a17.267,17.267,0,0,0-2.869,7.309A22.555,22.555,0,0,0,4.8,20.57c1.1-2.24.7-6.194,2.092-8.318a19.368,19.368,0,0,1,4.859-4.9c.388.739-1.411,1.73-1.435,2.533,1.307-.19,2.279-1.52,3.8-1.858Z" transform="translate(-2.46 0)" fill="#fff"/>
      <path id="パス_148294" data-name="パス 148294" d="M44.953,46.739a7.5,7.5,0,0,1,6.24-.412" transform="translate(-28.234 -28.796)" fill="#fff"/>
      <path id="パス_148295" data-name="パス 148295" d="M44.04,46.189a3.452,3.452,0,0,1,1.092-.5,5.28,5.28,0,0,1,1.205-.163,7.892,7.892,0,0,1,2.745.425,1.551,1.551,0,0,0,1.2-.177c.186-.107.554-.459.168-.591a8.816,8.816,0,0,0-7.436.589c-.2.128-.535.431-.168.591a1.5,1.5,0,0,0,1.2-.177" transform="translate(-26.807 -28.039)" fill="#fff"/>
      <path id="パス_148296" data-name="パス 148296" d="M20.257,43.574c-.627-.8-3.59-3.412-4.69-1.752" transform="translate(-9.777 -25.928)" fill="#fff"/>
      <path id="パス_148297" data-name="パス 148297" d="M19.66,42.819a7.867,7.867,0,0,0-1.747-1.559,3.808,3.808,0,0,0-2.726-.788,2.731,2.731,0,0,0-1.9.979c-.16.234.613.134.668.123.3-.061.807-.158,1-.44a1.428,1.428,0,0,1,.19-.213c.073-.081-.088.049.011-.01.143-.085-.318.122-.146.063a1.967,1.967,0,0,1-.43.1c.117-.012-.171-.013.02,0l.083,0q-.112-.009-.018,0c.042.01.086.013.129.021a3.843,3.843,0,0,1,1.249.548,7.683,7.683,0,0,1,1.919,1.625c.172.217.69.064.91,0,.067-.019.911-.3.787-.456" transform="translate(-8.332 -25.399)" fill="#fff"/>
      <path id="パス_148298" data-name="パス 148298" d="M44.357,56.837c.681-1.836,4.387-2.508,5.157-.395" transform="translate(-27.86 -34.628)" fill="#fff"/>
      <path id="パス_148299" data-name="パス 148299" d="M44.059,56.446c.659-1.709,3.6-2.087,4.314-.207.078.2.913-.057.848-.227-.753-1.987-3.687-1.522-5.06-.547a2.537,2.537,0,0,0-.939,1.129c-.056.145.284.1.341.087.13-.023.439-.084.5-.234" transform="translate(-27.143 -34.311)" fill="#fff"/>
      <path id="パス_148300" data-name="パス 148300" d="M48.621,56.324c.047.877.9,1.327,1.244.414l.209-.776Z" transform="translate(-30.538 -35.149)" fill="#fff"/>
      <path id="パス_148301" data-name="パス 148301" d="M46.318,55.611a1.4,1.4,0,0,0,.33.823,1.354,1.354,0,0,0,1.152.415,1.694,1.694,0,0,0,1.333-.82,2.536,2.536,0,0,0,.208-.6c.045-.164.089-.328.133-.492.052-.193-.118-.338-.271-.4a1.133,1.133,0,0,0-.72-.022l-1.274.317-.179.044a1.217,1.217,0,0,0-.56.31.474.474,0,0,0-.152.426c.134.381.674.359.984.281l1.274-.317.179-.045-.991-.424q-.1.388-.208.776c.017-.048.035-.1.053-.144a1.19,1.19,0,0,1-.147.277l.1-.138a.726.726,0,0,1-.11.115l.151-.125a.629.629,0,0,1-.082.055l.189-.105a.627.627,0,0,1-.061.027l.221-.078a.559.559,0,0,1-.074.02l.231-.042a.508.508,0,0,1-.075.007l.216,0a.5.5,0,0,1-.074-.006l.193.033a.546.546,0,0,1-.111-.032l.16.067a.684.684,0,0,1-.163-.1l.119.1a.923.923,0,0,1-.212-.266l.067.127a1.263,1.263,0,0,1-.137-.512c-.009-.149-.233-.26-.345-.293a1.207,1.207,0,0,0-.639.012,1.182,1.182,0,0,0-.56.31l-.105.138a.379.379,0,0,0-.047.288" transform="translate(-29.083 -34.209)" fill="#fff"/>
      <path id="パス_148302" data-name="パス 148302" d="M20.015,53.733c-.094-1.077-1.8-1.717-2.773-1.854a2.743,2.743,0,0,0-2,.644" transform="translate(-9.571 -32.569)" fill="#fff"/>
      <path id="パス_148303" data-name="パス 148303" d="M19.733,53.283c-.107-.971-1.264-1.492-2.078-1.745a3.842,3.842,0,0,0-1.583-.2,4.4,4.4,0,0,0-1.793.761c-.1.064-.261.185-.091.27a.786.786,0,0,0,.6-.1,2.54,2.54,0,0,1,1.223-.552,3.559,3.559,0,0,1,1.185.257c.7.249,1.6.706,1.693,1.532.024.216.878.042.848-.227" transform="translate(-8.864 -32.233)" fill="#fff"/>
      <path id="パス_148304" data-name="パス 148304" d="M19.712,53.748c-.9.012.222,1.494.906.176" transform="translate(-12.17 -33.758)" fill="#fff"/>
      <path id="パス_148305" data-name="パス 148305" d="M18.592,52.357c-.091,0-.183,0-.274.01a2.6,2.6,0,0,0-.282.051,1.608,1.608,0,0,0-.313.106,1.465,1.465,0,0,0-.405.261.931.931,0,0,0-.077.089.64.64,0,0,0-.074.1.6.6,0,0,0-.077.4.7.7,0,0,0,.115.269.6.6,0,0,0,.122.15,1.088,1.088,0,0,0,.285.2,1.483,1.483,0,0,0,.543.13,2.18,2.18,0,0,0,.875-.163c.022-.008.042-.017.063-.028a2.57,2.57,0,0,0,.25-.136,1.766,1.766,0,0,0,.278-.221,1.925,1.925,0,0,0,.354-.477.259.259,0,0,0,.054-.2.21.21,0,0,0-.065-.182.386.386,0,0,0-.194-.118.644.644,0,0,0-.27-.056,1.485,1.485,0,0,0-.666.128l-.19.1a.829.829,0,0,0-.26.249,1.544,1.544,0,0,1-.174.268l.107-.13a1.009,1.009,0,0,1-.147.144l.152-.119a.762.762,0,0,1-.1.067l.19-.1a.66.66,0,0,1-.081.036l.221-.077a.611.611,0,0,1-.08.022l.23-.044a.562.562,0,0,1-.079.009l.215-.007a.61.61,0,0,1-.09,0l.191.027a.585.585,0,0,1-.118-.029l.158.059a.628.628,0,0,1-.16-.089l.115.089a.6.6,0,0,1-.159-.183l.063.116a.385.385,0,0,1-.05-.17c0,.044,0,.088,0,.132a.239.239,0,0,1,.016-.091l-.056.134a.212.212,0,0,1,.031-.051l-.107.13a.256.256,0,0,1,.035-.034l-.152.119a.282.282,0,0,1,.036-.023l-.19.1.043-.019-.221.077a.527.527,0,0,1,.064-.017l-.23.044a.71.71,0,0,1,.093-.01l-.215.007h.017a1.079,1.079,0,0,0,.33-.029,1.185,1.185,0,0,0,.336-.1.9.9,0,0,0,.266-.161.619.619,0,0,0,.183-.189l.056-.134a.279.279,0,0,0-.067-.248l-.115-.089a.842.842,0,0,0-.349-.086" transform="translate(-10.73 -32.885)" fill="#fff"/>
      <path id="パス_148306" data-name="パス 148306" d="M29.08,60.437c-1.371,1.342-3.955,5.769-1.108,4.966.335.437.361.728,1.019.711.567-.014.758-.3,1.083-.687.714.694,1.392,1.006,1.872-.185.356-.884.168-.693-.3-1.352" transform="translate(-16.763 -37.96)" fill="#fff"/>
      <path id="パス_148307" data-name="パス 148307" d="M28.055,60.127a10.326,10.326,0,0,0-1.845,2.634,5.351,5.351,0,0,0-.54,1.431,1.064,1.064,0,0,0,.161.954c.37.374,1.082.213,1.519.094l-.409-.015a2.623,2.623,0,0,0,.447.576,1.261,1.261,0,0,0,.821.18,2.074,2.074,0,0,0,1.562-.885l-.727.154a2.091,2.091,0,0,0,1.066.649,1.4,1.4,0,0,0,1.2-.415,2.217,2.217,0,0,0,.553-1.241c.014-.322-.337-.579-.511-.816-.131-.179-.888.077-.734.287.128.175.369.362.442.569.083.237-.109.583-.2.791a4.741,4.741,0,0,1-.269.431.774.774,0,0,1-.061.055.25.25,0,0,1,.117-.028s-.086-.02-.126-.035a2.19,2.19,0,0,1-.737-.536c-.16-.153-.6.009-.727.154-.219.26-.38.556-.752.472-.306-.069-.452-.422-.624-.651-.069-.093-.325-.038-.409-.015-.251.069-.563.139-.742-.112a1.165,1.165,0,0,1-.035-.915,8.223,8.223,0,0,1,1.321-2.61,8.441,8.441,0,0,1,.966-1.182c.133-.132-.115-.18-.2-.18a.775.775,0,0,0-.521.2" transform="translate(-16.098 -37.639)" fill="#fff"/>
      <path id="パス_148308" data-name="パス 148308" d="M10.675,53.306c-.067-.849-.415-2.346.214-3.14.39-.491,1.348-.4,1.91-.387a19.514,19.514,0,0,1,3.7.518c.872.194,2.5.381,2.9,1.384a2.555,2.555,0,0,1-.565,1.982" transform="translate(-6.606 -31.256)" fill="#fff"/>
      <path id="パス_148309" data-name="パス 148309" d="M10.174,52.4c-.694-1.983-.936-4.188,1.871-4.072a16.085,16.085,0,0,1,5.919,1.093c1.658.74,1.584,2.189.367,3.336.429-1.071.742-2.1-.705-2.487a45,45,0,0,0-5.171-.836,5.2,5.2,0,0,0-1.563,0,.4.4,0,0,0-.2.122c-.6.791-.382,1.877-.521,2.842" transform="translate(-6.106 -30.354)" fill="#fff"/>
      <path id="パス_148310" data-name="パス 148310" d="M40.073,56.5c-.007-.722-.466-2.092.029-2.758.766-1.029,3.651-.7,4.638-.588,1.224.135,3.235.2,4.178,1.162a1.826,1.826,0,0,1,.431,1.384c-.032.381-.25,1.362-.71,1.444" transform="translate(-25.043 -33.297)" fill="#fff"/>
      <path id="パス_148311" data-name="パス 148311" d="M39.557,55.564a13.083,13.083,0,0,1-.485-1.9c-.262-1.761,1.955-2.147,3.239-2.14,1.881.085,5.591.073,6.617,1.917a2.363,2.363,0,0,1-.094,2.09c-.146.28-.361.653-.711.673a.584.584,0,0,0,.285-.339,2.823,2.823,0,0,0,.143-1.313c-.249-1.774-3.017-1.539-4.411-1.758a12.721,12.721,0,0,0-3.583-.073,1.374,1.374,0,0,0-.644.29c-.533.646-.19,1.71-.356,2.549" transform="translate(-24.527 -32.365)" fill="#fff"/>
      <path id="パス_148312" data-name="パス 148312" d="M64.71,56.178a33.4,33.4,0,0,1,3.689-.91l-3.45,1.845Z" transform="translate(-40.644 -34.713)" fill="#fff"/>
      <path id="パス_148313" data-name="パス 148313" d="M63.744,55.851a18.386,18.386,0,0,0,1.889-.52c.287-.088.575-.174.867-.244.08-.019.159-.038.24-.054.037-.007.182-.03.066-.013.152-.023.3-.041.457-.049l-.206-.768-3.015,1.613-.434.232.893.172-.239-.936c-.138-.54-1.388-.21-1.249.334q.119.468.239.936c.089.349.666.294.893.172l3.016-1.613.434-.232c.174-.093.418-.272.356-.507s-.363-.271-.561-.261a28.539,28.539,0,0,0-3.859.94c-.233.045-.592.286-.518.565.081.3.5.275.731.231" transform="translate(-39.571 -33.988)" fill="#fff"/>
      <path id="パス_148314" data-name="パス 148314" d="M7.556,49.906c-.256-.437-.958-.694-1.349-1.071" transform="translate(-3.899 -30.673)" fill="#fff"/>
      <path id="パス_148315" data-name="パス 148315" d="M7.128,49.291c-.315-.527-.957-.711-1.386-1.12-.064-.061-.248-.05-.32-.046a1.7,1.7,0,0,0-.487.109.877.877,0,0,0-.348.194c-.049.056-.087.112-.021.175a4.316,4.316,0,0,0,.675.481,2.308,2.308,0,0,1,.618.507l-.037-.048c.02.027.038.055.055.083a.255.255,0,0,0,.222.1,1.411,1.411,0,0,0,.458-.058,1.381,1.381,0,0,0,.425-.179c.043-.031.186-.124.144-.194" transform="translate(-2.846 -30.225)" fill="#fff"/>
      <path id="パス_148316" data-name="パス 148316" d="M13.9,62.228a24.2,24.2,0,0,0,4.514.616c.6.022,1.18.118,1.461-.5" transform="translate(-8.73 -39.085)" fill="#fff"/>
      <path id="パス_148317" data-name="パス 148317" d="M13.486,62.115a25.287,25.287,0,0,0,3.827.58c.812.055,1.973.3,2.419-.589.106-.21-.315-.213-.4-.048-.215.427-.608.4-1.027.377-.512-.023-1.022-.05-1.532-.1a26.08,26.08,0,0,1-3.145-.523c-.2-.046-.418.241-.144.3" transform="translate(-8.389 -38.82)" fill="#fff"/>
      <path id="パス_148318" data-name="パス 148318" d="M41.8,64.1c.223.433.392.816.878,1.01a10.651,10.651,0,0,0,3.187.384c.526.024,2.556.184,2.759-.551" transform="translate(-26.253 -40.26)" fill="#fff"/>
      <path id="パス_148319" data-name="パス 148319" d="M41.228,63.963a2.334,2.334,0,0,0,.636.9,2.717,2.717,0,0,0,1.095.38,19.362,19.362,0,0,0,2.555.181,9.188,9.188,0,0,0,1.716-.027c.437-.061,1.076-.189,1.238-.671.045-.135-.37-.082-.416.054-.145.434-.9.423-1.269.436-.417.015-.831-.01-1.247-.028a18.633,18.633,0,0,1-2.217-.148,2.859,2.859,0,0,1-1.017-.306,2.01,2.01,0,0,1-.658-.88c-.07-.138-.475,0-.416.112" transform="translate(-25.891 -40.068)" fill="#fff"/>
      <path id="パス_148320" data-name="パス 148320" d="M34.292,54.827a1.96,1.96,0,0,0,1.677.475,3.163,3.163,0,0,1,.543-.2" transform="translate(-21.538 -34.436)" fill="#fff"/>
      <path id="パス_148321" data-name="パス 148321" d="M4.319,50.275A1.593,1.593,0,0,0,1.624,49.4c-.823.97-.363,2.339-.04,3.377.444,1.43.871,2.958,1.437,4.346.209.513.691,1.7,1.372,1.817.492.086,1.044-.119.839-.683Z" transform="translate(-0.729 -30.73)" fill="#fff"/>
      <path id="パス_148322" data-name="パス 148322" d="M4.014,49.749A1.811,1.811,0,0,0,2.181,48.27,2.054,2.054,0,0,0,.046,49.957c-.219,1.232.4,2.572.755,3.725a23.6,23.6,0,0,0,1.382,3.843c.446.878,1.151,1.555,2.2,1.142a.764.764,0,0,0,.546-.942c-.013-.085-.02-.171-.029-.257l-.464-4.053-.42-3.667c-.033-.286-.886-.1-.848.227l.707,6.176.163,1.427c.029.257.213.842-.208.682-.369-.141-.63-.636-.8-.963a12.562,12.562,0,0,1-.557-1.331C2.04,54.8,1.7,53.6,1.328,52.406c-.312-1.011-.9-2.526-.025-3.424.7-.714,1.767.247,1.861.994.036.287.889.1.848-.227" transform="translate(0 -30.317)" fill="#fff"/>
      <path id="パス_148323" data-name="パス 148323" d="M66.1,56.46c.25-1.7,2.652-.773,3.056.383.712,2.035-1.094,5.485-2.657,6.821-1.694,1.447-2.58-.092-2.354-1.831a13.037,13.037,0,0,1,.967-3.462c.367-.866,1-1.49,1.36-2.325" transform="translate(-40.27 -34.875)" fill="#fff"/>
      <path id="パス_148324" data-name="パス 148324" d="M65.809,56.073c.035-.2.1-.527.307-.632a.682.682,0,0,1,.437.013,2.321,2.321,0,0,1,1.246.79c.775.973.291,2.634-.107,3.658a8.559,8.559,0,0,1-2.238,3.393c-.21.179-.505.459-.806.4a.939.939,0,0,1-.554-.5,3.236,3.236,0,0,1-.2-2.025,13.123,13.123,0,0,1,.874-3.054c.367-.88,1.021-1.59,1.414-2.455.094-.208-.73-.125-.843.125-.433.953-1.132,1.731-1.519,2.715a11.6,11.6,0,0,0-.831,3.288,2.5,2.5,0,0,0,.557,2.04,1.76,1.76,0,0,0,1.994-.032A7.817,7.817,0,0,0,68.5,59.877c.491-1.224,1.005-3.15-.126-4.184-.937-.857-3.12-1.133-3.4.5-.048.276.8.129.843-.124" transform="translate(-39.553 -34.55)" fill="#fff"/>
      <path id="パス_148325" data-name="パス 148325" d="M8.009,23.638c-.279,6.474-1.384,12.433,2.524,18,3.5,5,8.384,5.5,12.761,1.59,4.659-4.159,6.041-8.847,7.565-14.071a23.939,23.939,0,0,0,.5-5.709c.1-2.78.3-6.217-1.627-8.539-2.782-3.35-8.17-4.384-12.174-2.637-2.313,1.009-4.233,1.742-5.87,3.7s-3.519,5.109-3.68,7.661" transform="translate(-4.806 -7.184)" fill="#fff"/>
      <path id="パス_148326" data-name="パス 148326" d="M6.86,23.48A73.012,73.012,0,0,0,6.62,33.7a15.7,15.7,0,0,0,3.8,9.085,7.933,7.933,0,0,0,7.314,2.8c3.1-.537,5.6-2.714,7.535-5.081A25.223,25.223,0,0,0,29.5,32.265a32.348,32.348,0,0,0,1.288-4.506,39.585,39.585,0,0,0,.293-5.354c.1-3.02.062-6.244-2.231-8.509a10.836,10.836,0,0,0-7.726-2.889A11.9,11.9,0,0,0,17,11.8a23.861,23.861,0,0,0-4.2,2.018,11.545,11.545,0,0,0-3.158,3.149A17.175,17.175,0,0,0,7.3,21.377a8.6,8.6,0,0,0-.445,2.1c-.006.087.831.007.848-.227a10.973,10.973,0,0,1,1.426-4.293,17.394,17.394,0,0,1,2.618-3.751,11.5,11.5,0,0,1,3.692-2.45A13.837,13.837,0,0,1,19.491,11.4a10.782,10.782,0,0,1,7.747,2.066,7.138,7.138,0,0,1,2.472,3.342,13.155,13.155,0,0,1,.557,4.305c0,1.545-.057,3.1-.118,4.643a15.358,15.358,0,0,1-.283,2.609c-.162.759-.412,1.506-.635,2.249a32.657,32.657,0,0,1-3.287,7.929,20.025,20.025,0,0,1-2.929,3.678,11.989,11.989,0,0,1-3.766,2.693,6.867,6.867,0,0,1-7.27-1.639A14.683,14.683,0,0,1,7.673,35a39.677,39.677,0,0,1-.1-9.3c.051-.814.1-1.628.134-2.443,0-.1-.838,0-.848.227" transform="translate(-4.081 -6.912)" fill="#fff"/>
      <path id="パス_148327" data-name="パス 148327" d="M15.546,7.1c-.233,1.269-.713,4.447-.851,5.741a24.676,24.676,0,0,1,3.872-1.907c.84-.333,2.563-2.44,3.4-2.736,1.019-.361.591.591,1.351,1.52.8.981,1.074,3.253,1.981,4.034a33.09,33.09,0,0,0,.637-4.372c.656,2.047,1.479,5.012,2.026,7.008.21.765.094,2.03.33,2.765.4,1.238-.143,2.842-.259,4.126,4.627-3.243,6.312-12.3,3.238-17.51C29.876,3.41,25.079,1.613,22.5.526A6.046,6.046,0,0,0,18.979.141c-.82.28-.817-.045-1.622-.08C16.83.038,15.9.089,15.322.033c-3.45-.339-6.442,2.025-8.39,4.616a17.267,17.267,0,0,0-2.869,7.309A22.555,22.555,0,0,0,4.8,20.57c1.1-2.24.7-6.194,2.092-8.318a19.368,19.368,0,0,1,4.859-4.9c.388.739-1.411,1.73-1.435,2.533,1.307-.19,2.279-1.52,3.8-1.858Z" transform="translate(-2.46 0)" fill="#fff"/>
      <path id="パス_148328" data-name="パス 148328" d="M15.546,7.1c-.233,1.269-.713,4.447-.851,5.741a24.676,24.676,0,0,1,3.872-1.907c.84-.333,2.563-2.44,3.4-2.736,1.019-.361.591.591,1.351,1.52.8.981,1.074,3.253,1.981,4.034a33.09,33.09,0,0,0,.637-4.372c.656,2.047,1.479,5.012,2.026,7.008.21.765.094,2.03.33,2.765.4,1.238-.143,2.842-.259,4.126,4.627-3.243,6.312-12.3,3.238-17.51C29.876,3.41,25.079,1.613,22.5.526A6.046,6.046,0,0,0,18.979.141c-.82.28-.817-.045-1.622-.08C16.83.038,15.9.089,15.322.033c-3.45-.339-6.442,2.025-8.39,4.616a17.267,17.267,0,0,0-2.869,7.309A22.555,22.555,0,0,0,4.8,20.57c1.1-2.24.7-6.194,2.092-8.318a19.368,19.368,0,0,1,4.859-4.9c.388.739-1.411,1.73-1.435,2.533,1.307-.19,2.279-1.52,3.8-1.858Z" transform="translate(-2.46 0)" fill="#fff"/>
      <path id="パス_148329" data-name="パス 148329" d="M44.953,46.739a7.5,7.5,0,0,1,6.24-.412" transform="translate(-28.234 -28.796)" fill="#fff"/>
      <path id="パス_148330" data-name="パス 148330" d="M44.04,46.189a3.452,3.452,0,0,1,1.092-.5,5.28,5.28,0,0,1,1.205-.163,7.892,7.892,0,0,1,2.745.425,1.551,1.551,0,0,0,1.2-.177c.186-.107.554-.459.168-.591a8.816,8.816,0,0,0-7.436.589c-.2.128-.535.431-.168.591a1.5,1.5,0,0,0,1.2-.177" transform="translate(-26.807 -28.039)" fill="#fff"/>
      <path id="パス_148331" data-name="パス 148331" d="M20.257,43.574c-.627-.8-3.59-3.412-4.69-1.752" transform="translate(-9.777 -25.928)" fill="#fff"/>
      <path id="パス_148332" data-name="パス 148332" d="M19.66,42.819a7.867,7.867,0,0,0-1.747-1.559,3.808,3.808,0,0,0-2.726-.788,2.731,2.731,0,0,0-1.9.979c-.16.234.613.134.668.123.3-.061.807-.158,1-.44a1.428,1.428,0,0,1,.19-.213c.073-.081-.088.049.011-.01.143-.085-.318.122-.146.063a1.967,1.967,0,0,1-.43.1c.117-.012-.171-.013.02,0l.083,0q-.112-.009-.018,0c.042.01.086.013.129.021a3.843,3.843,0,0,1,1.249.548,7.683,7.683,0,0,1,1.919,1.625c.172.217.69.064.91,0,.067-.019.911-.3.787-.456" transform="translate(-8.332 -25.399)" fill="#fff"/>
      <path id="パス_148333" data-name="パス 148333" d="M44.357,56.837c.681-1.836,4.387-2.508,5.157-.395" transform="translate(-27.86 -34.628)" fill="#fff"/>
      <path id="パス_148334" data-name="パス 148334" d="M44.059,56.446c.659-1.709,3.6-2.087,4.314-.207.078.2.913-.057.848-.227-.753-1.987-3.687-1.522-5.06-.547a2.537,2.537,0,0,0-.939,1.129c-.056.145.284.1.341.087.13-.023.439-.084.5-.234" transform="translate(-27.143 -34.311)" fill="#fff"/>
      <path id="パス_148335" data-name="パス 148335" d="M48.621,56.324c.047.877.9,1.327,1.244.414l.209-.776Z" transform="translate(-30.538 -35.149)" fill="#fff"/>
      <path id="パス_148336" data-name="パス 148336" d="M46.318,55.611a1.4,1.4,0,0,0,.33.823,1.354,1.354,0,0,0,1.152.415,1.694,1.694,0,0,0,1.333-.82,2.536,2.536,0,0,0,.208-.6c.045-.164.089-.328.133-.492.052-.193-.118-.338-.271-.4a1.133,1.133,0,0,0-.72-.022l-1.274.317-.179.044a1.217,1.217,0,0,0-.56.31.474.474,0,0,0-.152.426c.134.381.674.359.984.281l1.274-.317.179-.045-.991-.424q-.1.388-.208.776c.017-.048.035-.1.053-.144a1.19,1.19,0,0,1-.147.277l.1-.138a.726.726,0,0,1-.11.115l.151-.125a.629.629,0,0,1-.082.055l.189-.105a.627.627,0,0,1-.061.027l.221-.078a.559.559,0,0,1-.074.02l.231-.042a.508.508,0,0,1-.075.007l.216,0a.5.5,0,0,1-.074-.006l.193.033a.546.546,0,0,1-.111-.032l.16.067a.684.684,0,0,1-.163-.1l.119.1a.923.923,0,0,1-.212-.266l.067.127a1.263,1.263,0,0,1-.137-.512c-.009-.149-.233-.26-.345-.293a1.207,1.207,0,0,0-.639.012,1.182,1.182,0,0,0-.56.31l-.105.138a.379.379,0,0,0-.047.288" transform="translate(-29.083 -34.209)" fill="#fff"/>
      <path id="パス_148337" data-name="パス 148337" d="M20.015,53.733c-.094-1.077-1.8-1.717-2.773-1.854a2.743,2.743,0,0,0-2,.644" transform="translate(-9.571 -32.569)" fill="#fff"/>
      <path id="パス_148338" data-name="パス 148338" d="M19.733,53.283c-.107-.971-1.264-1.492-2.078-1.745a3.842,3.842,0,0,0-1.583-.2,4.4,4.4,0,0,0-1.793.761c-.1.064-.261.185-.091.27a.786.786,0,0,0,.6-.1,2.54,2.54,0,0,1,1.223-.552,3.559,3.559,0,0,1,1.185.257c.7.249,1.6.706,1.693,1.532.024.216.878.042.848-.227" transform="translate(-8.864 -32.233)" fill="#fff"/>
      <path id="パス_148339" data-name="パス 148339" d="M19.712,53.748c-.9.012.222,1.494.906.176" transform="translate(-12.17 -33.758)" fill="#fff"/>
      <path id="パス_148340" data-name="パス 148340" d="M18.592,52.357c-.091,0-.183,0-.274.01a2.6,2.6,0,0,0-.282.051,1.608,1.608,0,0,0-.313.106,1.465,1.465,0,0,0-.405.261.931.931,0,0,0-.077.089.64.64,0,0,0-.074.1.6.6,0,0,0-.077.4.7.7,0,0,0,.115.269.6.6,0,0,0,.122.15,1.088,1.088,0,0,0,.285.2,1.483,1.483,0,0,0,.543.13,2.18,2.18,0,0,0,.875-.163c.022-.008.042-.017.063-.028a2.57,2.57,0,0,0,.25-.136,1.766,1.766,0,0,0,.278-.221,1.925,1.925,0,0,0,.354-.477.259.259,0,0,0,.054-.2.21.21,0,0,0-.065-.182.386.386,0,0,0-.194-.118.644.644,0,0,0-.27-.056,1.485,1.485,0,0,0-.666.128l-.19.1a.829.829,0,0,0-.26.249,1.544,1.544,0,0,1-.174.268l.107-.13a1.009,1.009,0,0,1-.147.144l.152-.119a.762.762,0,0,1-.1.067l.19-.1a.66.66,0,0,1-.081.036l.221-.077a.611.611,0,0,1-.08.022l.23-.044a.562.562,0,0,1-.079.009l.215-.007a.61.61,0,0,1-.09,0l.191.027a.585.585,0,0,1-.118-.029l.158.059a.628.628,0,0,1-.16-.089l.115.089a.6.6,0,0,1-.159-.183l.063.116a.385.385,0,0,1-.05-.17c0,.044,0,.088,0,.132a.239.239,0,0,1,.016-.091l-.056.134a.212.212,0,0,1,.031-.051l-.107.13a.256.256,0,0,1,.035-.034l-.152.119a.282.282,0,0,1,.036-.023l-.19.1.043-.019-.221.077a.527.527,0,0,1,.064-.017l-.23.044a.71.71,0,0,1,.093-.01l-.215.007h.017a1.079,1.079,0,0,0,.33-.029,1.185,1.185,0,0,0,.336-.1.9.9,0,0,0,.266-.161.619.619,0,0,0,.183-.189l.056-.134a.279.279,0,0,0-.067-.248l-.115-.089a.842.842,0,0,0-.349-.086" transform="translate(-10.73 -32.885)" fill="#fff"/>
      <path id="パス_148341" data-name="パス 148341" d="M29.08,60.437c-1.371,1.342-3.955,5.769-1.108,4.966.335.437.361.728,1.019.711.567-.014.758-.3,1.083-.687.714.694,1.392,1.006,1.872-.185.356-.884.168-.693-.3-1.352" transform="translate(-16.763 -37.96)" fill="#fff"/>
      <path id="パス_148342" data-name="パス 148342" d="M28.055,60.127a10.326,10.326,0,0,0-1.845,2.634,5.351,5.351,0,0,0-.54,1.431,1.064,1.064,0,0,0,.161.954c.37.374,1.082.213,1.519.094l-.409-.015a2.623,2.623,0,0,0,.447.576,1.261,1.261,0,0,0,.821.18,2.074,2.074,0,0,0,1.562-.885l-.727.154a2.091,2.091,0,0,0,1.066.649,1.4,1.4,0,0,0,1.2-.415,2.217,2.217,0,0,0,.553-1.241c.014-.322-.337-.579-.511-.816-.131-.179-.888.077-.734.287.128.175.369.362.442.569.083.237-.109.583-.2.791a4.741,4.741,0,0,1-.269.431.774.774,0,0,1-.061.055.25.25,0,0,1,.117-.028s-.086-.02-.126-.035a2.19,2.19,0,0,1-.737-.536c-.16-.153-.6.009-.727.154-.219.26-.38.556-.752.472-.306-.069-.452-.422-.624-.651-.069-.093-.325-.038-.409-.015-.251.069-.563.139-.742-.112a1.165,1.165,0,0,1-.035-.915,8.223,8.223,0,0,1,1.321-2.61,8.441,8.441,0,0,1,.966-1.182c.133-.132-.115-.18-.2-.18a.775.775,0,0,0-.521.2" transform="translate(-16.098 -37.639)" fill="#fff"/>
      <path id="パス_148343" data-name="パス 148343" d="M10.675,53.306c-.067-.849-.415-2.346.214-3.14.39-.491,1.348-.4,1.91-.387a19.514,19.514,0,0,1,3.7.518c.872.194,2.5.381,2.9,1.384a2.555,2.555,0,0,1-.565,1.982" transform="translate(-6.606 -31.256)" fill="#fff"/>
      <path id="パス_148344" data-name="パス 148344" d="M10.174,52.4c-.694-1.983-.936-4.188,1.871-4.072a16.085,16.085,0,0,1,5.919,1.093c1.658.74,1.584,2.189.367,3.336.429-1.071.742-2.1-.705-2.487a45,45,0,0,0-5.171-.836,5.2,5.2,0,0,0-1.563,0,.4.4,0,0,0-.2.122c-.6.791-.382,1.877-.521,2.842" transform="translate(-6.106 -30.354)" fill="#fff"/>
      <path id="パス_148345" data-name="パス 148345" d="M40.073,56.5c-.007-.722-.466-2.092.029-2.758.766-1.029,3.651-.7,4.638-.588,1.224.135,3.235.2,4.178,1.162a1.826,1.826,0,0,1,.431,1.384c-.032.381-.25,1.362-.71,1.444" transform="translate(-25.043 -33.297)" fill="#fff"/>
      <path id="パス_148346" data-name="パス 148346" d="M39.557,55.564a13.083,13.083,0,0,1-.485-1.9c-.262-1.761,1.955-2.147,3.239-2.14,1.881.085,5.591.073,6.617,1.917a2.363,2.363,0,0,1-.094,2.09c-.146.28-.361.653-.711.673a.584.584,0,0,0,.285-.339,2.823,2.823,0,0,0,.143-1.313c-.249-1.774-3.017-1.539-4.411-1.758a12.721,12.721,0,0,0-3.583-.073,1.374,1.374,0,0,0-.644.29c-.533.646-.19,1.71-.356,2.549" transform="translate(-24.527 -32.365)" fill="#fff"/>
      <path id="パス_148347" data-name="パス 148347" d="M64.71,56.178a33.4,33.4,0,0,1,3.689-.91l-3.45,1.845Z" transform="translate(-40.644 -34.713)" fill="#fff"/>
      <path id="パス_148348" data-name="パス 148348" d="M63.744,55.851a18.386,18.386,0,0,0,1.889-.52c.287-.088.575-.174.867-.244.08-.019.159-.038.24-.054.037-.007.182-.03.066-.013.152-.023.3-.041.457-.049l-.206-.768-3.015,1.613-.434.232.893.172-.239-.936c-.138-.54-1.388-.21-1.249.334q.119.468.239.936c.089.349.666.294.893.172l3.016-1.613.434-.232c.174-.093.418-.272.356-.507s-.363-.271-.561-.261a28.539,28.539,0,0,0-3.859.94c-.233.045-.592.286-.518.565.081.3.5.275.731.231" transform="translate(-39.571 -33.988)" fill="#fff"/>
      <path id="パス_148349" data-name="パス 148349" d="M7.556,49.906c-.256-.437-.958-.694-1.349-1.071" transform="translate(-3.899 -30.673)" fill="#fff"/>
      <path id="パス_148350" data-name="パス 148350" d="M7.128,49.291c-.315-.527-.957-.711-1.386-1.12-.064-.061-.248-.05-.32-.046a1.7,1.7,0,0,0-.487.109.877.877,0,0,0-.348.194c-.049.056-.087.112-.021.175a4.316,4.316,0,0,0,.675.481,2.308,2.308,0,0,1,.618.507l-.037-.048c.02.027.038.055.055.083a.255.255,0,0,0,.222.1,1.411,1.411,0,0,0,.458-.058,1.381,1.381,0,0,0,.425-.179c.043-.031.186-.124.144-.194" transform="translate(-2.846 -30.225)" fill="#fff"/>
      <path id="パス_148351" data-name="パス 148351" d="M13.9,62.228a24.2,24.2,0,0,0,4.514.616c.6.022,1.18.118,1.461-.5" transform="translate(-8.73 -39.085)" fill="#fff"/>
      <path id="パス_148352" data-name="パス 148352" d="M13.486,62.115a25.287,25.287,0,0,0,3.827.58c.812.055,1.973.3,2.419-.589.106-.21-.315-.213-.4-.048-.215.427-.608.4-1.027.377-.512-.023-1.022-.05-1.532-.1a26.08,26.08,0,0,1-3.145-.523c-.2-.046-.418.241-.144.3" transform="translate(-8.389 -38.82)" fill="#fff"/>
      <path id="パス_148353" data-name="パス 148353" d="M41.8,64.1c.223.433.392.816.878,1.01a10.651,10.651,0,0,0,3.187.384c.526.024,2.556.184,2.759-.551" transform="translate(-26.253 -40.26)" fill="#fff"/>
      <path id="パス_148354" data-name="パス 148354" d="M41.228,63.963a2.334,2.334,0,0,0,.636.9,2.717,2.717,0,0,0,1.095.38,19.362,19.362,0,0,0,2.555.181,9.188,9.188,0,0,0,1.716-.027c.437-.061,1.076-.189,1.238-.671.045-.135-.37-.082-.416.054-.145.434-.9.423-1.269.436-.417.015-.831-.01-1.247-.028a18.633,18.633,0,0,1-2.217-.148,2.859,2.859,0,0,1-1.017-.306,2.01,2.01,0,0,1-.658-.88c-.07-.138-.475,0-.416.112" transform="translate(-25.891 -40.068)" fill="#fff"/>
      <path id="パス_148355" data-name="パス 148355" d="M34.292,54.827a1.96,1.96,0,0,0,1.677.475,3.163,3.163,0,0,1,.543-.2" transform="translate(-21.538 -34.436)" fill="#fff"/>
      <path id="パス_148356" data-name="パス 148356" d="M20.776,78.322c.608,1.063,2.764,5.4,4.409,5.24,3.915-.376,4.309-5.2,4.617-5.24,0,0-1.237.422-1.458.551a19.545,19.545,0,0,1-4.428.39c-1.614-.36-3.486-.738-4.094-1.8" transform="translate(-12.45 -48.653)" fill="#fff"/>
      <path id="パス_148357" data-name="パス 148357" d="M19.33,78.091c.544.957,1.053,1.93,1.661,2.849.572.864,1.323,2.034,2.362,2.378A3.1,3.1,0,0,0,25.08,83.2a5.3,5.3,0,0,0,1.693-.788A5.84,5.84,0,0,0,28.667,79.9a13.018,13.018,0,0,0,.471-1.334c.045-.149.086-.3.138-.447.124-.351.173-.17-.344-.019l-.222-.26c-.309.106-.617.214-.922.328-.183.069-.369.136-.546.218-.512.236.518-.089.216-.056-.718.078-1.429.235-2.148.314a11.888,11.888,0,0,1-1.3.089A6.2,6.2,0,0,1,22.6,78.5c-1.074-.251-2.528-.536-3.155-1.554-.154-.25-1.145.164-1.07.287.65,1.053,2.082,1.368,3.2,1.635a7.877,7.877,0,0,0,1.567.282,11.4,11.4,0,0,0,1.482-.075c.866-.086,1.737-.2,2.592-.368a14.543,14.543,0,0,0,1.855-.649c.087-.03.4-.136.338-.269s-.491-.012-.561.009c-.661.193-.667.662-.854,1.25a8.358,8.358,0,0,1-1.143,2.419c-.5.685-1.508,1.676-2.456,1.5a2.383,2.383,0,0,1-1.1-.735,9.627,9.627,0,0,1-1.143-1.439c-.649-.959-1.182-1.982-1.754-2.986-.142-.249-1.147.152-1.07.287" transform="translate(-11.539 -48.278)" fill="#fff"/>
      <path id="パス_148358" data-name="パス 148358" d="M4.319,50.275A1.593,1.593,0,0,0,1.624,49.4c-.823.97-.363,2.339-.04,3.377.444,1.43.871,2.958,1.437,4.346.209.513.691,1.7,1.372,1.817.492.086,1.044-.119.839-.683Z" transform="translate(-0.729 -30.73)" fill="#fff"/>
      <path id="パス_148359" data-name="パス 148359" d="M4.014,49.749A1.811,1.811,0,0,0,2.181,48.27,2.054,2.054,0,0,0,.046,49.957c-.219,1.232.4,2.572.755,3.725a23.6,23.6,0,0,0,1.382,3.843c.446.878,1.151,1.555,2.2,1.142a.764.764,0,0,0,.546-.942c-.013-.085-.02-.171-.029-.257l-.464-4.053-.42-3.667c-.033-.286-.886-.1-.848.227l.707,6.176.163,1.427c.029.257.213.842-.208.682-.369-.141-.63-.636-.8-.963a12.562,12.562,0,0,1-.557-1.331C2.04,54.8,1.7,53.6,1.328,52.406c-.312-1.011-.9-2.526-.025-3.424.7-.714,1.767.247,1.861.994.036.287.889.1.848-.227" transform="translate(0 -30.317)" fill="#fff"/>
      <path id="パス_148360" data-name="パス 148360" d="M66.1,56.46c.25-1.7,2.652-.773,3.056.383.712,2.035-1.094,5.485-2.657,6.821-1.694,1.447-2.58-.092-2.354-1.831a13.037,13.037,0,0,1,.967-3.462c.367-.866,1-1.49,1.36-2.325" transform="translate(-40.27 -34.875)" fill="#fff"/>
      <path id="パス_148361" data-name="パス 148361" d="M65.809,56.073c.035-.2.1-.527.307-.632a.682.682,0,0,1,.437.013,2.321,2.321,0,0,1,1.246.79c.775.973.291,2.634-.107,3.658a8.559,8.559,0,0,1-2.238,3.393c-.21.179-.505.459-.806.4a.939.939,0,0,1-.554-.5,3.236,3.236,0,0,1-.2-2.025,13.123,13.123,0,0,1,.874-3.054c.367-.88,1.021-1.59,1.414-2.455.094-.208-.73-.125-.843.125-.433.953-1.132,1.731-1.519,2.715a11.6,11.6,0,0,0-.831,3.288,2.5,2.5,0,0,0,.557,2.04,1.76,1.76,0,0,0,1.994-.032A7.817,7.817,0,0,0,68.5,59.877c.491-1.224,1.005-3.15-.126-4.184-.937-.857-3.12-1.133-3.4.5-.048.276.8.129.843-.124" transform="translate(-39.553 -34.55)" fill="#fff"/>
      <path id="パス_148362" data-name="パス 148362" d="M8.009,23.638c-.279,6.474-1.384,12.433,2.524,18,3.5,5,8.384,5.5,12.761,1.59,4.659-4.159,6.041-8.847,7.565-14.071a23.939,23.939,0,0,0,.5-5.709c.1-2.78.3-6.217-1.627-8.539-2.782-3.35-8.17-4.384-12.174-2.637-2.313,1.009-4.233,1.742-5.87,3.7s-3.519,5.109-3.68,7.661" transform="translate(-4.806 -7.184)" fill="#fff"/>
      <path id="パス_148363" data-name="パス 148363" d="M6.86,23.48A73.012,73.012,0,0,0,6.62,33.7a15.7,15.7,0,0,0,3.8,9.085,7.933,7.933,0,0,0,7.314,2.8c3.1-.537,5.6-2.714,7.535-5.081A25.223,25.223,0,0,0,29.5,32.265a32.348,32.348,0,0,0,1.288-4.506,39.585,39.585,0,0,0,.293-5.354c.1-3.02.062-6.244-2.231-8.509a10.836,10.836,0,0,0-7.726-2.889A11.9,11.9,0,0,0,17,11.8a23.861,23.861,0,0,0-4.2,2.018,11.545,11.545,0,0,0-3.158,3.149A17.175,17.175,0,0,0,7.3,21.377a8.6,8.6,0,0,0-.445,2.1c-.006.087.831.007.848-.227a10.973,10.973,0,0,1,1.426-4.293,17.394,17.394,0,0,1,2.618-3.751,11.5,11.5,0,0,1,3.692-2.45A13.837,13.837,0,0,1,19.491,11.4a10.782,10.782,0,0,1,7.747,2.066,7.138,7.138,0,0,1,2.472,3.342,13.155,13.155,0,0,1,.557,4.305c0,1.545-.057,3.1-.118,4.643a15.358,15.358,0,0,1-.283,2.609c-.162.759-.412,1.506-.635,2.249a32.657,32.657,0,0,1-3.287,7.929,20.025,20.025,0,0,1-2.929,3.678,11.989,11.989,0,0,1-3.766,2.693,6.867,6.867,0,0,1-7.27-1.639A14.683,14.683,0,0,1,7.673,35a39.677,39.677,0,0,1-.1-9.3c.051-.814.1-1.628.134-2.443,0-.1-.838,0-.848.227" transform="translate(-4.081 -6.912)" fill="#fff"/>
      <path id="パス_148364" data-name="パス 148364" d="M15.546,7.1c-.233,1.269-.713,4.447-.851,5.741a24.676,24.676,0,0,1,3.872-1.907c.84-.333,2.563-2.44,3.4-2.736,1.019-.361.591.591,1.351,1.52.8.981,1.074,3.253,1.981,4.034a33.09,33.09,0,0,0,.637-4.372c.656,2.047,1.479,5.012,2.026,7.008.21.765.094,2.03.33,2.765.4,1.238-.143,2.842-.259,4.126,4.627-3.243,6.312-12.3,3.238-17.51C29.876,3.41,25.079,1.613,22.5.526A6.046,6.046,0,0,0,18.979.141c-.82.28-.817-.045-1.622-.08C16.83.038,15.9.089,15.322.033c-3.45-.339-6.442,2.025-8.39,4.616a17.267,17.267,0,0,0-2.869,7.309A22.555,22.555,0,0,0,4.8,20.57c1.1-2.24.7-6.194,2.092-8.318a19.368,19.368,0,0,1,4.859-4.9c.388.739-1.411,1.73-1.435,2.533,1.307-.19,2.279-1.52,3.8-1.858Z" transform="translate(-2.46 0)" fill="#fff"/>
      <path id="パス_148365" data-name="パス 148365" d="M15.546,7.1c-.233,1.269-.713,4.447-.851,5.741a24.676,24.676,0,0,1,3.872-1.907c.84-.333,2.563-2.44,3.4-2.736,1.019-.361.591.591,1.351,1.52.8.981,1.074,3.253,1.981,4.034a33.09,33.09,0,0,0,.637-4.372c.656,2.047,1.479,5.012,2.026,7.008.21.765.094,2.03.33,2.765.4,1.238-.143,2.842-.259,4.126,4.627-3.243,6.312-12.3,3.238-17.51C29.876,3.41,25.079,1.613,22.5.526A6.046,6.046,0,0,0,18.979.141c-.82.28-.817-.045-1.622-.08C16.83.038,15.9.089,15.322.033c-3.45-.339-6.442,2.025-8.39,4.616a17.267,17.267,0,0,0-2.869,7.309A22.555,22.555,0,0,0,4.8,20.57c1.1-2.24.7-6.194,2.092-8.318a19.368,19.368,0,0,1,4.859-4.9c.388.739-1.411,1.73-1.435,2.533,1.307-.19,2.279-1.52,3.8-1.858Z" transform="translate(-2.46 0)" fill="#fff"/>
      <path id="パス_148366" data-name="パス 148366" d="M44.953,46.739a7.5,7.5,0,0,1,6.24-.412" transform="translate(-28.234 -28.796)" fill="#fff"/>
      <path id="パス_148367" data-name="パス 148367" d="M44.04,46.189a3.452,3.452,0,0,1,1.092-.5,5.28,5.28,0,0,1,1.205-.163,7.892,7.892,0,0,1,2.745.425,1.551,1.551,0,0,0,1.2-.177c.186-.107.554-.459.168-.591a8.816,8.816,0,0,0-7.436.589c-.2.128-.535.431-.168.591a1.5,1.5,0,0,0,1.2-.177" transform="translate(-26.807 -28.039)" fill="#fff"/>
      <path id="パス_148368" data-name="パス 148368" d="M20.257,43.574c-.627-.8-3.59-3.412-4.69-1.752" transform="translate(-9.777 -25.928)" fill="#fff"/>
      <path id="パス_148369" data-name="パス 148369" d="M19.66,42.819a7.867,7.867,0,0,0-1.747-1.559,3.808,3.808,0,0,0-2.726-.788,2.731,2.731,0,0,0-1.9.979c-.16.234.613.134.668.123.3-.061.807-.158,1-.44a1.428,1.428,0,0,1,.19-.213c.073-.081-.088.049.011-.01.143-.085-.318.122-.146.063a1.967,1.967,0,0,1-.43.1c.117-.012-.171-.013.02,0l.083,0q-.112-.009-.018,0c.042.01.086.013.129.021a3.843,3.843,0,0,1,1.249.548,7.683,7.683,0,0,1,1.919,1.625c.172.217.69.064.91,0,.067-.019.911-.3.787-.456" transform="translate(-8.332 -25.399)" fill="#fff"/>
      <path id="パス_148370" data-name="パス 148370" d="M44.357,56.837c.681-1.836,4.387-2.508,5.157-.395" transform="translate(-27.86 -34.628)" fill="#fff"/>
      <path id="パス_148371" data-name="パス 148371" d="M44.059,56.446c.659-1.709,3.6-2.087,4.314-.207.078.2.913-.057.848-.227-.753-1.987-3.687-1.522-5.06-.547a2.537,2.537,0,0,0-.939,1.129c-.056.145.284.1.341.087.13-.023.439-.084.5-.234" transform="translate(-27.143 -34.311)" fill="#fff"/>
      <path id="パス_148372" data-name="パス 148372" d="M48.621,56.324c.047.877.9,1.327,1.244.414l.209-.776Z" transform="translate(-30.538 -35.149)" fill="#fff"/>
      <path id="パス_148373" data-name="パス 148373" d="M46.318,55.611a1.4,1.4,0,0,0,.33.823,1.354,1.354,0,0,0,1.152.415,1.694,1.694,0,0,0,1.333-.82,2.536,2.536,0,0,0,.208-.6c.045-.164.089-.328.133-.492.052-.193-.118-.338-.271-.4a1.133,1.133,0,0,0-.72-.022l-1.274.317-.179.044a1.217,1.217,0,0,0-.56.31.474.474,0,0,0-.152.426c.134.381.674.359.984.281l1.274-.317.179-.045-.991-.424q-.1.388-.208.776c.017-.048.035-.1.053-.144a1.19,1.19,0,0,1-.147.277l.1-.138a.726.726,0,0,1-.11.115l.151-.125a.629.629,0,0,1-.082.055l.189-.105a.627.627,0,0,1-.061.027l.221-.078a.559.559,0,0,1-.074.02l.231-.042a.508.508,0,0,1-.075.007l.216,0a.5.5,0,0,1-.074-.006l.193.033a.546.546,0,0,1-.111-.032l.16.067a.684.684,0,0,1-.163-.1l.119.1a.923.923,0,0,1-.212-.266l.067.127a1.263,1.263,0,0,1-.137-.512c-.009-.149-.233-.26-.345-.293a1.207,1.207,0,0,0-.639.012,1.182,1.182,0,0,0-.56.31l-.105.138a.379.379,0,0,0-.047.288" transform="translate(-29.083 -34.209)" fill="#fff"/>
      <path id="パス_148374" data-name="パス 148374" d="M20.015,53.733c-.094-1.077-1.8-1.717-2.773-1.854a2.743,2.743,0,0,0-2,.644" transform="translate(-9.571 -32.569)" fill="#fff"/>
      <path id="パス_148375" data-name="パス 148375" d="M19.733,53.283c-.107-.971-1.264-1.492-2.078-1.745a3.842,3.842,0,0,0-1.583-.2,4.4,4.4,0,0,0-1.793.761c-.1.064-.261.185-.091.27a.786.786,0,0,0,.6-.1,2.54,2.54,0,0,1,1.223-.552,3.559,3.559,0,0,1,1.185.257c.7.249,1.6.706,1.693,1.532.024.216.878.042.848-.227" transform="translate(-8.864 -32.233)" fill="#fff"/>
      <path id="パス_148376" data-name="パス 148376" d="M19.712,53.748c-.9.012.222,1.494.906.176" transform="translate(-12.17 -33.758)" fill="#fff"/>
      <path id="パス_148377" data-name="パス 148377" d="M18.592,52.357c-.091,0-.183,0-.274.01a2.6,2.6,0,0,0-.282.051,1.608,1.608,0,0,0-.313.106,1.465,1.465,0,0,0-.405.261.931.931,0,0,0-.077.089.64.64,0,0,0-.074.1.6.6,0,0,0-.077.4.7.7,0,0,0,.115.269.6.6,0,0,0,.122.15,1.088,1.088,0,0,0,.285.2,1.483,1.483,0,0,0,.543.13,2.18,2.18,0,0,0,.875-.163c.022-.008.042-.017.063-.028a2.57,2.57,0,0,0,.25-.136,1.766,1.766,0,0,0,.278-.221,1.925,1.925,0,0,0,.354-.477.259.259,0,0,0,.054-.2.21.21,0,0,0-.065-.182.386.386,0,0,0-.194-.118.644.644,0,0,0-.27-.056,1.485,1.485,0,0,0-.666.128l-.19.1a.829.829,0,0,0-.26.249,1.544,1.544,0,0,1-.174.268l.107-.13a1.009,1.009,0,0,1-.147.144l.152-.119a.762.762,0,0,1-.1.067l.19-.1a.66.66,0,0,1-.081.036l.221-.077a.611.611,0,0,1-.08.022l.23-.044a.562.562,0,0,1-.079.009l.215-.007a.61.61,0,0,1-.09,0l.191.027a.585.585,0,0,1-.118-.029l.158.059a.628.628,0,0,1-.16-.089l.115.089a.6.6,0,0,1-.159-.183l.063.116a.385.385,0,0,1-.05-.17c0,.044,0,.088,0,.132a.239.239,0,0,1,.016-.091l-.056.134a.212.212,0,0,1,.031-.051l-.107.13a.256.256,0,0,1,.035-.034l-.152.119a.282.282,0,0,1,.036-.023l-.19.1.043-.019-.221.077a.527.527,0,0,1,.064-.017l-.23.044a.71.71,0,0,1,.093-.01l-.215.007h.017a1.079,1.079,0,0,0,.33-.029,1.185,1.185,0,0,0,.336-.1.9.9,0,0,0,.266-.161.619.619,0,0,0,.183-.189l.056-.134a.279.279,0,0,0-.067-.248l-.115-.089a.842.842,0,0,0-.349-.086" transform="translate(-10.73 -32.885)" fill="#fff"/>
      <path id="パス_148378" data-name="パス 148378" d="M29.08,60.437c-1.371,1.342-3.955,5.769-1.108,4.966.335.437.361.728,1.019.711.567-.014.758-.3,1.083-.687.714.694,1.392,1.006,1.872-.185.356-.884.168-.693-.3-1.352" transform="translate(-16.763 -37.96)" fill="#fff"/>
      <path id="パス_148379" data-name="パス 148379" d="M28.055,60.127a10.326,10.326,0,0,0-1.845,2.634,5.351,5.351,0,0,0-.54,1.431,1.064,1.064,0,0,0,.161.954c.37.374,1.082.213,1.519.094l-.409-.015a2.623,2.623,0,0,0,.447.576,1.261,1.261,0,0,0,.821.18,2.074,2.074,0,0,0,1.562-.885l-.727.154a2.091,2.091,0,0,0,1.066.649,1.4,1.4,0,0,0,1.2-.415,2.217,2.217,0,0,0,.553-1.241c.014-.322-.337-.579-.511-.816-.131-.179-.888.077-.734.287.128.175.369.362.442.569.083.237-.109.583-.2.791a4.741,4.741,0,0,1-.269.431.774.774,0,0,1-.061.055.25.25,0,0,1,.117-.028s-.086-.02-.126-.035a2.19,2.19,0,0,1-.737-.536c-.16-.153-.6.009-.727.154-.219.26-.38.556-.752.472-.306-.069-.452-.422-.624-.651-.069-.093-.325-.038-.409-.015-.251.069-.563.139-.742-.112a1.165,1.165,0,0,1-.035-.915,8.223,8.223,0,0,1,1.321-2.61,8.441,8.441,0,0,1,.966-1.182c.133-.132-.115-.18-.2-.18a.775.775,0,0,0-.521.2" transform="translate(-16.098 -37.639)" fill="#fff"/>
      <path id="パス_148380" data-name="パス 148380" d="M10.675,53.306c-.067-.849-.415-2.346.214-3.14.39-.491,1.348-.4,1.91-.387a19.514,19.514,0,0,1,3.7.518c.872.194,2.5.381,2.9,1.384a2.555,2.555,0,0,1-.565,1.982" transform="translate(-6.606 -31.256)" fill="#fff"/>
      <path id="パス_148381" data-name="パス 148381" d="M10.174,52.4c-.694-1.983-.936-4.188,1.871-4.072a16.085,16.085,0,0,1,5.919,1.093c1.658.74,1.584,2.189.367,3.336.429-1.071.742-2.1-.705-2.487a45,45,0,0,0-5.171-.836,5.2,5.2,0,0,0-1.563,0,.4.4,0,0,0-.2.122c-.6.791-.382,1.877-.521,2.842" transform="translate(-6.106 -30.354)" fill="#fff"/>
      <path id="パス_148382" data-name="パス 148382" d="M40.073,56.5c-.007-.722-.466-2.092.029-2.758.766-1.029,3.651-.7,4.638-.588,1.224.135,3.235.2,4.178,1.162a1.826,1.826,0,0,1,.431,1.384c-.032.381-.25,1.362-.71,1.444" transform="translate(-25.043 -33.297)" fill="#fff"/>
      <path id="パス_148383" data-name="パス 148383" d="M39.557,55.564a13.083,13.083,0,0,1-.485-1.9c-.262-1.761,1.955-2.147,3.239-2.14,1.881.085,5.591.073,6.617,1.917a2.363,2.363,0,0,1-.094,2.09c-.146.28-.361.653-.711.673a.584.584,0,0,0,.285-.339,2.823,2.823,0,0,0,.143-1.313c-.249-1.774-3.017-1.539-4.411-1.758a12.721,12.721,0,0,0-3.583-.073,1.374,1.374,0,0,0-.644.29c-.533.646-.19,1.71-.356,2.549" transform="translate(-24.527 -32.365)" fill="#fff"/>
      <path id="パス_148384" data-name="パス 148384" d="M64.71,56.178a33.4,33.4,0,0,1,3.689-.91l-3.45,1.845Z" transform="translate(-40.644 -34.713)" fill="#fff"/>
      <path id="パス_148385" data-name="パス 148385" d="M63.744,55.851a18.386,18.386,0,0,0,1.889-.52c.287-.088.575-.174.867-.244.08-.019.159-.038.24-.054.037-.007.182-.03.066-.013.152-.023.3-.041.457-.049l-.206-.768-3.015,1.613-.434.232.893.172-.239-.936c-.138-.54-1.388-.21-1.249.334q.119.468.239.936c.089.349.666.294.893.172l3.016-1.613.434-.232c.174-.093.418-.272.356-.507s-.363-.271-.561-.261a28.539,28.539,0,0,0-3.859.94c-.233.045-.592.286-.518.565.081.3.5.275.731.231" transform="translate(-39.571 -33.988)" fill="#fff"/>
      <path id="パス_148386" data-name="パス 148386" d="M7.556,49.906c-.256-.437-.958-.694-1.349-1.071" transform="translate(-3.899 -30.673)" fill="#fff"/>
      <path id="パス_148387" data-name="パス 148387" d="M7.128,49.291c-.315-.527-.957-.711-1.386-1.12-.064-.061-.248-.05-.32-.046a1.7,1.7,0,0,0-.487.109.877.877,0,0,0-.348.194c-.049.056-.087.112-.021.175a4.316,4.316,0,0,0,.675.481,2.308,2.308,0,0,1,.618.507l-.037-.048c.02.027.038.055.055.083a.255.255,0,0,0,.222.1,1.411,1.411,0,0,0,.458-.058,1.381,1.381,0,0,0,.425-.179c.043-.031.186-.124.144-.194" transform="translate(-2.846 -30.225)" fill="#fff"/>
      <path id="パス_148388" data-name="パス 148388" d="M13.9,62.228a24.2,24.2,0,0,0,4.514.616c.6.022,1.18.118,1.461-.5" transform="translate(-8.73 -39.085)" fill="#fff"/>
      <path id="パス_148389" data-name="パス 148389" d="M13.486,62.115a25.287,25.287,0,0,0,3.827.58c.812.055,1.973.3,2.419-.589.106-.21-.315-.213-.4-.048-.215.427-.608.4-1.027.377-.512-.023-1.022-.05-1.532-.1a26.08,26.08,0,0,1-3.145-.523c-.2-.046-.418.241-.144.3" transform="translate(-8.389 -38.82)" fill="#fff"/>
      <path id="パス_148390" data-name="パス 148390" d="M41.8,64.1c.223.433.392.816.878,1.01a10.651,10.651,0,0,0,3.187.384c.526.024,2.556.184,2.759-.551" transform="translate(-26.253 -40.26)" fill="#fff"/>
      <path id="パス_148391" data-name="パス 148391" d="M41.228,63.963a2.334,2.334,0,0,0,.636.9,2.717,2.717,0,0,0,1.095.38,19.362,19.362,0,0,0,2.555.181,9.188,9.188,0,0,0,1.716-.027c.437-.061,1.076-.189,1.238-.671.045-.135-.37-.082-.416.054-.145.434-.9.423-1.269.436-.417.015-.831-.01-1.247-.028a18.633,18.633,0,0,1-2.217-.148,2.859,2.859,0,0,1-1.017-.306,2.01,2.01,0,0,1-.658-.88c-.07-.138-.475,0-.416.112" transform="translate(-25.891 -40.068)" fill="#fff"/>
      <path id="パス_148392" data-name="パス 148392" d="M34.292,54.827a1.96,1.96,0,0,0,1.677.475,3.163,3.163,0,0,1,.543-.2" transform="translate(-21.538 -34.436)" fill="#fff"/>
      <path id="パス_148393" data-name="パス 148393" d="M4.319,50.275A1.593,1.593,0,0,0,1.624,49.4c-.823.97-.363,2.339-.04,3.377.444,1.43.871,2.958,1.437,4.346.209.513.691,1.7,1.372,1.817.492.086,1.044-.119.839-.683Z" transform="translate(-0.729 -30.73)" fill="#fff"/>
      <path id="パス_148394" data-name="パス 148394" d="M4.014,49.749A1.811,1.811,0,0,0,2.181,48.27,2.054,2.054,0,0,0,.046,49.957c-.219,1.232.4,2.572.755,3.725a23.6,23.6,0,0,0,1.382,3.843c.446.878,1.151,1.555,2.2,1.142a.764.764,0,0,0,.546-.942c-.013-.085-.02-.171-.029-.257l-.464-4.053-.42-3.667c-.033-.286-.886-.1-.848.227l.707,6.176.163,1.427c.029.257.213.842-.208.682-.369-.141-.63-.636-.8-.963a12.562,12.562,0,0,1-.557-1.331C2.04,54.8,1.7,53.6,1.328,52.406c-.312-1.011-.9-2.526-.025-3.424.7-.714,1.767.247,1.861.994.036.287.889.1.848-.227" transform="translate(0 -30.317)"/>
      <path id="パス_148395" data-name="パス 148395" d="M66.1,56.46c.25-1.7,2.652-.773,3.056.383.712,2.035-1.094,5.485-2.657,6.821-1.694,1.447-2.58-.092-2.354-1.831a13.037,13.037,0,0,1,.967-3.462c.367-.866,1-1.49,1.36-2.325" transform="translate(-40.27 -34.875)" fill="#fff"/>
      <path id="パス_148396" data-name="パス 148396" d="M65.809,56.073c.035-.2.1-.527.307-.632a.682.682,0,0,1,.437.013,2.321,2.321,0,0,1,1.246.79c.775.973.291,2.634-.107,3.658a8.559,8.559,0,0,1-2.238,3.393c-.21.179-.505.459-.806.4a.939.939,0,0,1-.554-.5,3.236,3.236,0,0,1-.2-2.025,13.123,13.123,0,0,1,.874-3.054c.367-.88,1.021-1.59,1.414-2.455.094-.208-.73-.125-.843.125-.433.953-1.132,1.731-1.519,2.715a11.6,11.6,0,0,0-.831,3.288,2.5,2.5,0,0,0,.557,2.04,1.76,1.76,0,0,0,1.994-.032A7.817,7.817,0,0,0,68.5,59.877c.491-1.224,1.005-3.15-.126-4.184-.937-.857-3.12-1.133-3.4.5-.048.276.8.129.843-.124" transform="translate(-39.553 -34.55)"/>
      <path id="パス_148397" data-name="パス 148397" d="M8.009,23.638c-.279,6.474-1.384,12.433,2.524,18,3.5,5,8.384,5.5,12.761,1.59,4.659-4.159,6.041-8.847,7.565-14.071a23.939,23.939,0,0,0,.5-5.709c.1-2.78.3-6.217-1.627-8.539-2.782-3.35-8.17-4.384-12.174-2.637-2.313,1.009-4.233,1.742-5.87,3.7s-3.519,5.109-3.68,7.661" transform="translate(-4.806 -7.184)" fill="#fff"/>
      <path id="パス_148398" data-name="パス 148398" d="M6.86,23.48A73.012,73.012,0,0,0,6.62,33.7a15.7,15.7,0,0,0,3.8,9.085,7.933,7.933,0,0,0,7.314,2.8c3.1-.537,5.6-2.714,7.535-5.081A25.223,25.223,0,0,0,29.5,32.265a32.348,32.348,0,0,0,1.288-4.506,39.585,39.585,0,0,0,.293-5.354c.1-3.02.062-6.244-2.231-8.509a10.836,10.836,0,0,0-7.726-2.889A11.9,11.9,0,0,0,17,11.8a23.861,23.861,0,0,0-4.2,2.018,11.545,11.545,0,0,0-3.158,3.149A17.175,17.175,0,0,0,7.3,21.377a8.6,8.6,0,0,0-.445,2.1c-.006.087.831.007.848-.227a10.973,10.973,0,0,1,1.426-4.293,17.394,17.394,0,0,1,2.618-3.751,11.5,11.5,0,0,1,3.692-2.45A13.837,13.837,0,0,1,19.491,11.4a10.782,10.782,0,0,1,7.747,2.066,7.138,7.138,0,0,1,2.472,3.342,13.155,13.155,0,0,1,.557,4.305c0,1.545-.057,3.1-.118,4.643a15.358,15.358,0,0,1-.283,2.609c-.162.759-.412,1.506-.635,2.249a32.657,32.657,0,0,1-3.287,7.929,20.025,20.025,0,0,1-2.929,3.678,11.989,11.989,0,0,1-3.766,2.693,6.867,6.867,0,0,1-7.27-1.639A14.683,14.683,0,0,1,7.673,35a39.677,39.677,0,0,1-.1-9.3c.051-.814.1-1.628.134-2.443,0-.1-.838,0-.848.227" transform="translate(-4.081 -6.912)"/>
      <path id="パス_148399" data-name="パス 148399" d="M15.546,7.1c-.233,1.269-.713,4.447-.851,5.741a24.676,24.676,0,0,1,3.872-1.907c.84-.333,2.563-2.44,3.4-2.736,1.019-.361.591.591,1.351,1.52.8.981,1.074,3.253,1.981,4.034a33.09,33.09,0,0,0,.637-4.372c.656,2.047,1.479,5.012,2.026,7.008.21.765.094,2.03.33,2.765.4,1.238-.143,2.842-.259,4.126,4.627-3.243,6.312-12.3,3.238-17.51C29.876,3.41,25.079,1.613,22.5.526A6.046,6.046,0,0,0,18.979.141c-.82.28-.817-.045-1.622-.08C16.83.038,15.9.089,15.322.033c-3.45-.339-6.442,2.025-8.39,4.616a17.267,17.267,0,0,0-2.869,7.309A22.555,22.555,0,0,0,4.8,20.57c1.1-2.24.7-6.194,2.092-8.318a19.368,19.368,0,0,1,4.859-4.9c.388.739-1.411,1.73-1.435,2.533,1.307-.19,2.279-1.52,3.8-1.858Z" transform="translate(-2.46 0)" fill="#251e1c"/>
      <path id="パス_148400" data-name="パス 148400" d="M44.04,46.189a3.452,3.452,0,0,1,1.092-.5,5.28,5.28,0,0,1,1.205-.163,7.892,7.892,0,0,1,2.745.425,1.551,1.551,0,0,0,1.2-.177c.186-.107.554-.459.168-.591a8.816,8.816,0,0,0-7.436.589c-.2.128-.535.431-.168.591a1.5,1.5,0,0,0,1.2-.177" transform="translate(-26.807 -28.039)"/>
      <path id="パス_148401" data-name="パス 148401" d="M19.66,42.819a7.867,7.867,0,0,0-1.747-1.559,3.808,3.808,0,0,0-2.726-.788,2.731,2.731,0,0,0-1.9.979c-.16.234.613.134.668.123.3-.061.807-.158,1-.44a1.428,1.428,0,0,1,.19-.213c.073-.081-.088.049.011-.01.143-.085-.318.122-.146.063a1.967,1.967,0,0,1-.43.1c.117-.012-.171-.013.02,0l.083,0q-.112-.009-.018,0c.042.01.086.013.129.021a3.843,3.843,0,0,1,1.249.548,7.683,7.683,0,0,1,1.919,1.625c.172.217.69.064.91,0,.067-.019.911-.3.787-.456" transform="translate(-8.332 -25.399)"/>
      <path id="パス_148402" data-name="パス 148402" d="M44.059,56.446c.659-1.709,3.6-2.087,4.314-.207.078.2.913-.057.848-.227-.753-1.987-3.687-1.522-5.06-.547a2.537,2.537,0,0,0-.939,1.129c-.056.145.284.1.341.087.13-.023.439-.084.5-.234" transform="translate(-27.143 -34.311)"/>
      <path id="パス_148403" data-name="パス 148403" d="M46.318,55.611a1.4,1.4,0,0,0,.33.823,1.354,1.354,0,0,0,1.152.415,1.694,1.694,0,0,0,1.333-.82,2.536,2.536,0,0,0,.208-.6c.045-.164.089-.328.133-.492.052-.193-.118-.338-.271-.4a1.133,1.133,0,0,0-.72-.022l-1.274.317-.179.044a1.217,1.217,0,0,0-.56.31.474.474,0,0,0-.152.426c.134.381.674.359.984.281l1.274-.317.179-.045-.991-.424q-.1.388-.208.776c.017-.048.035-.1.053-.144a1.19,1.19,0,0,1-.147.277l.1-.138a.726.726,0,0,1-.11.115l.151-.125a.629.629,0,0,1-.082.055l.189-.105a.627.627,0,0,1-.061.027l.221-.078a.559.559,0,0,1-.074.02l.231-.042a.508.508,0,0,1-.075.007l.216,0a.5.5,0,0,1-.074-.006l.193.033a.546.546,0,0,1-.111-.032l.16.067a.684.684,0,0,1-.163-.1l.119.1a.923.923,0,0,1-.212-.266l.067.127a1.263,1.263,0,0,1-.137-.512c-.009-.149-.233-.26-.345-.293a1.207,1.207,0,0,0-.639.012,1.182,1.182,0,0,0-.56.31l-.105.138a.379.379,0,0,0-.047.288" transform="translate(-29.083 -34.209)"/>
      <path id="パス_148404" data-name="パス 148404" d="M19.733,53.283c-.107-.971-1.264-1.492-2.078-1.745a3.842,3.842,0,0,0-1.583-.2,4.4,4.4,0,0,0-1.793.761c-.1.064-.261.185-.091.27a.786.786,0,0,0,.6-.1,2.54,2.54,0,0,1,1.223-.552,3.559,3.559,0,0,1,1.185.257c.7.249,1.6.706,1.693,1.532.024.216.878.042.848-.227" transform="translate(-8.864 -32.233)"/>
      <path id="パス_148405" data-name="パス 148405" d="M18.592,52.357c-.091,0-.183,0-.274.01a2.6,2.6,0,0,0-.282.051,1.608,1.608,0,0,0-.313.106,1.465,1.465,0,0,0-.405.261.931.931,0,0,0-.077.089.64.64,0,0,0-.074.1.6.6,0,0,0-.077.4.7.7,0,0,0,.115.269.6.6,0,0,0,.122.15,1.088,1.088,0,0,0,.285.2,1.483,1.483,0,0,0,.543.13,2.18,2.18,0,0,0,.875-.163c.022-.008.042-.017.063-.028a2.57,2.57,0,0,0,.25-.136,1.766,1.766,0,0,0,.278-.221,1.925,1.925,0,0,0,.354-.477.259.259,0,0,0,.054-.2.21.21,0,0,0-.065-.182.386.386,0,0,0-.194-.118.644.644,0,0,0-.27-.056,1.485,1.485,0,0,0-.666.128l-.19.1a.829.829,0,0,0-.26.249,1.544,1.544,0,0,1-.174.268l.107-.13a1.009,1.009,0,0,1-.147.144l.152-.119a.762.762,0,0,1-.1.067l.19-.1a.66.66,0,0,1-.081.036l.221-.077a.611.611,0,0,1-.08.022l.23-.044a.562.562,0,0,1-.079.009l.215-.007a.61.61,0,0,1-.09,0l.191.027a.585.585,0,0,1-.118-.029l.158.059a.628.628,0,0,1-.16-.089l.115.089a.6.6,0,0,1-.159-.183l.063.116a.385.385,0,0,1-.05-.17c0,.044,0,.088,0,.132a.239.239,0,0,1,.016-.091l-.056.134a.212.212,0,0,1,.031-.051l-.107.13a.256.256,0,0,1,.035-.034l-.152.119a.282.282,0,0,1,.036-.023l-.19.1.043-.019-.221.077a.527.527,0,0,1,.064-.017l-.23.044a.71.71,0,0,1,.093-.01l-.215.007h.017a1.079,1.079,0,0,0,.33-.029,1.185,1.185,0,0,0,.336-.1.9.9,0,0,0,.266-.161.619.619,0,0,0,.183-.189l.056-.134a.279.279,0,0,0-.067-.248l-.115-.089a.842.842,0,0,0-.349-.086" transform="translate(-10.73 -32.885)"/>
      <path id="パス_148406" data-name="パス 148406" d="M28.055,60.127a10.326,10.326,0,0,0-1.845,2.634,5.351,5.351,0,0,0-.54,1.431,1.064,1.064,0,0,0,.161.954c.37.374,1.082.213,1.519.094l-.409-.015a2.623,2.623,0,0,0,.447.576,1.261,1.261,0,0,0,.821.18,2.074,2.074,0,0,0,1.562-.885l-.727.154a2.091,2.091,0,0,0,1.066.649,1.4,1.4,0,0,0,1.2-.415,2.217,2.217,0,0,0,.553-1.241c.014-.322-.337-.579-.511-.816-.131-.179-.888.077-.734.287.128.175.369.362.442.569.083.237-.109.583-.2.791a4.741,4.741,0,0,1-.269.431.774.774,0,0,1-.061.055.25.25,0,0,1,.117-.028s-.086-.02-.126-.035a2.19,2.19,0,0,1-.737-.536c-.16-.153-.6.009-.727.154-.219.26-.38.556-.752.472-.306-.069-.452-.422-.624-.651-.069-.093-.325-.038-.409-.015-.251.069-.563.139-.742-.112a1.165,1.165,0,0,1-.035-.915,8.223,8.223,0,0,1,1.321-2.61,8.441,8.441,0,0,1,.966-1.182c.133-.132-.115-.18-.2-.18a.775.775,0,0,0-.521.2" transform="translate(-16.098 -37.639)"/>
      <path id="パス_148407" data-name="パス 148407" d="M10.174,52.4c-.694-1.983-.936-4.188,1.871-4.072a16.085,16.085,0,0,1,5.919,1.093c1.658.74,1.584,2.189.367,3.336.429-1.071.742-2.1-.705-2.487a45,45,0,0,0-5.171-.836,5.2,5.2,0,0,0-1.563,0,.4.4,0,0,0-.2.122c-.6.791-.382,1.877-.521,2.842" transform="translate(-6.106 -30.354)"/>
      <path id="パス_148408" data-name="パス 148408" d="M39.557,55.564a13.083,13.083,0,0,1-.485-1.9c-.262-1.761,1.955-2.147,3.239-2.14,1.881.085,5.591.073,6.617,1.917a2.363,2.363,0,0,1-.094,2.09c-.146.28-.361.653-.711.673a.584.584,0,0,0,.285-.339,2.823,2.823,0,0,0,.143-1.313c-.249-1.774-3.017-1.539-4.411-1.758a12.721,12.721,0,0,0-3.583-.073,1.374,1.374,0,0,0-.644.29c-.533.646-.19,1.71-.356,2.549" transform="translate(-24.527 -32.365)"/>
      <path id="パス_148409" data-name="パス 148409" d="M63.744,55.851a18.386,18.386,0,0,0,1.889-.52c.287-.088.575-.174.867-.244.08-.019.159-.038.24-.054.037-.007.182-.03.066-.013.152-.023.3-.041.457-.049l-.206-.768-3.015,1.613-.434.232.893.172-.239-.936c-.138-.54-1.388-.21-1.249.334q.119.468.239.936c.089.349.666.294.893.172l3.016-1.613.434-.232c.174-.093.418-.272.356-.507s-.363-.271-.561-.261a28.539,28.539,0,0,0-3.859.94c-.233.045-.592.286-.518.565.081.3.5.275.731.231" transform="translate(-39.571 -33.988)"/>
      <path id="パス_148410" data-name="パス 148410" d="M7.128,49.291c-.315-.527-.957-.711-1.386-1.12-.064-.061-.248-.05-.32-.046a1.7,1.7,0,0,0-.487.109.877.877,0,0,0-.348.194c-.049.056-.087.112-.021.175a4.316,4.316,0,0,0,.675.481,2.308,2.308,0,0,1,.618.507l-.037-.048c.02.027.038.055.055.083a.255.255,0,0,0,.222.1,1.411,1.411,0,0,0,.458-.058,1.381,1.381,0,0,0,.425-.179c.043-.031.186-.124.144-.194" transform="translate(-2.846 -30.225)"/>
      <path id="パス_148411" data-name="パス 148411" d="M13.486,62.115a25.287,25.287,0,0,0,3.827.58c.812.055,1.973.3,2.419-.589.106-.21-.315-.213-.4-.048-.215.427-.608.4-1.027.377-.512-.023-1.022-.05-1.532-.1a26.08,26.08,0,0,1-3.145-.523c-.2-.046-.418.241-.144.3" transform="translate(-8.389 -38.82)"/>
      <path id="パス_148412" data-name="パス 148412" d="M41.228,63.963a2.334,2.334,0,0,0,.636.9,2.717,2.717,0,0,0,1.095.38,19.362,19.362,0,0,0,2.555.181,9.188,9.188,0,0,0,1.716-.027c.437-.061,1.076-.189,1.238-.671.045-.135-.37-.082-.416.054-.145.434-.9.423-1.269.436-.417.015-.831-.01-1.247-.028a18.633,18.633,0,0,1-2.217-.148,2.859,2.859,0,0,1-1.017-.306,2.01,2.01,0,0,1-.658-.88c-.07-.138-.475,0-.416.112" transform="translate(-25.891 -40.068)"/>
      <path id="パス_148413" data-name="パス 148413" d="M34.292,54.827a1.96,1.96,0,0,0,1.677.475,3.163,3.163,0,0,1,.543-.2" transform="translate(-21.538 -34.436)" fill="none" stroke="#251e1c" stroke-miterlimit="10" stroke-width="1.574"/>
      <path id="パス_148414" data-name="パス 148414" d="M19.33,78.091c.544.957,1.053,1.93,1.661,2.849.572.864,1.323,2.034,2.362,2.378A3.1,3.1,0,0,0,25.08,83.2a5.3,5.3,0,0,0,1.693-.788A5.84,5.84,0,0,0,28.667,79.9a13.018,13.018,0,0,0,.471-1.334c.045-.149.086-.3.138-.447.124-.351.173-.17-.344-.019l-.222-.26c-.309.106-.617.214-.922.328-.183.069-.369.136-.546.218-.512.236.518-.089.216-.056-.718.078-1.429.235-2.148.314a11.888,11.888,0,0,1-1.3.089A6.2,6.2,0,0,1,22.6,78.5c-1.074-.251-2.528-.536-3.155-1.554-.154-.25-1.145.164-1.07.287.65,1.053,2.082,1.368,3.2,1.635a7.877,7.877,0,0,0,1.567.282,11.4,11.4,0,0,0,1.482-.075c.866-.086,1.737-.2,2.592-.368a14.543,14.543,0,0,0,1.855-.649c.087-.03.4-.136.338-.269s-.491-.012-.561.009c-.661.193-.667.662-.854,1.25a8.358,8.358,0,0,1-1.143,2.419c-.5.685-1.508,1.676-2.456,1.5a2.383,2.383,0,0,1-1.1-.735,9.627,9.627,0,0,1-1.143-1.439c-.649-.959-1.182-1.982-1.754-2.986-.142-.249-1.147.152-1.07.287" transform="translate(-11.539 -48.278)" fill="#251e1c"/>
    </g>
  </g>
</svg>
