<svg data-name="グループ 61166" xmlns="http://www.w3.org/2000/svg" width="34.926" height="39.807"><defs><clipPath id="a"><path data-name="長方形 23003" fill="none" d="M0 0h34.926v39.807H0z"/></clipPath></defs><g data-name="グループ 61166" clip-path="url(#a)"><path data-name="パス 148415" d="M3.561 18.32C2.545 15.848.7 17.76.419 19.398c-.409 2.347.643 3.405 2.394 4.832" fill="#fff"/><path data-name="パス 148416" d="M3.878 18.235c-.284-.668-.758-1.366-1.572-1.322a2.2 2.2 0 00-1.584 1.04 4.15 4.15 0 00-.154 4.431 8.727 8.727 0 002 2.024c.208.17.769-.131.492-.357C2.012 23.197.9 22.254.689 20.839a4.106 4.106 0 01.235-2.1 2.565 2.565 0 011-1.287c.645-.355 1.108.456 1.318.95.116.272.745.089.635-.17" fill="#fff"/><path data-name="パス 148417" d="M31.536 22.088c.995-.109 2.287-.473 2.9.556.574.962-.328 2.192-.838 2.956-.93 1.394-3.217 3.523-5.227 2.4" fill="#fff"/><path data-name="パス 148418" d="M31.511 22.334a4.131 4.131 0 012.123-.025c.841.386.726 1.357.392 2.049a7.494 7.494 0 01-3.035 3.33 2.5 2.5 0 01-2.438.092c-.275-.147-.721.256-.361.448 1.759.942 3.683-.273 4.891-1.549a9.432 9.432 0 001.494-2.113 1.921 1.921 0 00-.207-2.48c-.776-.644-1.908-.347-2.809-.244-.141.016-.336.1-.347.266s.161.241.3.226" fill="#fff"/><path data-name="パス 148419" d="M22.835.913c-2.389-.302-5.189-.956-7.548-.399a13.551 13.551 0 00-4.985 2.537 16.9 16.9 0 00-5.456 6.026 20.553 20.553 0 00-1.665 7.561c-.114 1.654.226 3.285.193 4.955-.043 1.985-.461 3.558-.228 5.558.435 3.676.693 8.471 6.111 10.438 1.281.466 2.867 1.644 4.689 1.848 4.3.481 9.546-1.527 11.842-3.8 2.256-2.231 1.718-3.641 3.209-6.375a27.918 27.918 0 002.9-9.38c.672-3.794-.533-7.81-1.848-11.415-1.258-3.447-3.023-5.067-6.27-7.126z" fill="#fff"/><path data-name="パス 148420" d="M23.149.628a34.358 34.358 0 00-6.3-.609 11.547 11.547 0 00-5.535 1.949c-3.277 2.1-6.33 4.908-7.607 8.676a23.05 23.05 0 00-1.059 6.248 27.9 27.9 0 00.155 3.307 20.745 20.745 0 01-.1 3.54 17.781 17.781 0 00-.111 3.168c.055.682.147 1.365.233 2.044a16.738 16.738 0 00.888 3.936 8.211 8.211 0 002.395 3.412 22.563 22.563 0 004.463 2.351 10.057 10.057 0 002.735 1.018 11.66 11.66 0 002.706.1 18.533 18.533 0 005.613-1.269 14.351 14.351 0 004.248-2.456 8.4 8.4 0 002.472-3.9 17.907 17.907 0 01.839-2.275c.433-.909.932-1.78 1.322-2.712a28.749 28.749 0 001.627-5.783 22.5 22.5 0 00.46-3.161 16.636 16.636 0 00-.169-3.155 33.4 33.4 0 00-1.799-6.558 12.745 12.745 0 00-2.364-4.18 18 18 0 00-3.807-3.059 9.31 9.31 0 00-1.213-.6.826.826 0 00-.731.094c-.133.086-.317.307-.088.411a13.6 13.6 0 016.093 5.228 23.537 23.537 0 012.01 5.162 21.232 21.232 0 011.046 6.329 26.546 26.546 0 01-.935 5.786 23.01 23.01 0 01-2.03 5.418 15.171 15.171 0 00-1 2.256c-.215.631-.389 1.276-.641 1.894a7.642 7.642 0 01-2.984 3.417 16.051 16.051 0 01-4.711 2.032 12.841 12.841 0 01-5.337.415 9.5 9.5 0 01-2.614-.99c-.755-.382-1.518-.7-2.291-1.034a7.878 7.878 0 01-3.412-2.774c-1.423-2.105-1.658-4.736-1.94-7.193-.235-2.058.246-4.081.209-6.137-.02-1.114-.176-2.219-.209-3.332a20.818 20.818 0 01.209-3.123 16.51 16.51 0 011.588-5.72 14.933 14.933 0 013.525-4.285 19.241 19.241 0 014.719-3.183 10.742 10.742 0 015.9-.548c.97.128 1.935.293 2.9.418a.878.878 0 00.73-.2c.129-.143.143-.342-.1-.374" fill="#fff"/><path data-name="パス 148421" d="M11.779 20.85c-.507-1.17-3.838-1.822-4.75-.912" fill="#fff"/><path data-name="パス 148422" d="M12.317 20.705c-.431-.944-1.666-1.309-2.6-1.485a3.61 3.61 0 00-3.136.561.309.309 0 00.138.517.757.757 0 00.76-.2c-.1.094.008 0 .028-.016.091-.086-.066.02.024-.016.035-.014.072-.033.106-.051.113-.059-.114.028.014-.006.092-.025.183-.051.277-.07l-.033.006.094-.013.145-.015c.1-.008.2-.012.3-.013h.097c.062 0 .125.006.187.011a6.249 6.249 0 01.677.094 5.164 5.164 0 01.587.16c.107.036.214.076.319.119s.191.084.235.108a2.577 2.577 0 01.485.324c.064.055-.021-.027.039.038a1.137 1.137 0 01.142.175c.01.015.076.142.039.061a.514.514 0 00.635.221c.172-.046.55-.267.439-.509" fill="#fff"/><path data-name="パス 148423" d="M18.208 21.079c.868-1.226 4.578-1.583 5.746-.412" fill="#fff"/><path data-name="パス 148424" d="M18.713 21.107a1.82 1.82 0 01.858-.538c.024-.009.026-.011.1-.032s.123-.037.185-.054q.175-.048.352-.086a6.479 6.479 0 01.733-.1 3.364 3.364 0 012.52.586c.294.285 1.312-.129.993-.438a4.487 4.487 0 00-3.452-.8 4.572 4.572 0 00-3.3 1.4c-.155.211.133.35.3.36a.83.83 0 00.706-.3" fill="#fff"/><path data-name="パス 148425" d="M18.932 17.548a20.64 20.64 0 013.072-.416c1.054-.039 1.278.351 2.253.883" fill="#fff"/><path data-name="パス 148426" d="M18.813 18.009a18.693 18.693 0 012.9-.4 2.908 2.908 0 01.295 0c-.112-.009.136.025.162.031q.112.03.028 0c.039.013.077.028.115.043a2.443 2.443 0 01.22.106c.357.192.687.43 1.042.627a1.37 1.37 0 001.205-.162c.245-.15.5-.461.152-.654-.373-.206-.718-.462-1.1-.655a2.992 2.992 0 00-1.367-.3 18.026 18.026 0 00-3.421.431c-.314.062-.886.192-.969.573-.08.364.518.4.733.355" fill="#fff"/><path data-name="パス 148427" d="M11.28 17.429c-.8-.13-1.573-1.175-2.353-1.242-.664-.057-1.1.6-1.736.828" fill="#fff"/><path data-name="パス 148428" d="M11.565 16.779c-.168-.031.164.066 0 0-.041-.016-.082-.029-.122-.047s-.08-.039-.121-.057c.164.071.006 0-.027-.019-.183-.111-.356-.24-.529-.366a4.1 4.1 0 00-1.143-.663 2.21 2.21 0 00-1.753.193c-.228.129-.441.281-.654.431l-.119.082c-.118.079-.051 0 .016-.008a1.883 1.883 0 00-.312.151c-.324.125-.647.6-.39.923a.981.981 0 001.164.153 3.412 3.412 0 00.646-.361 4.259 4.259 0 00.469-.326c-.148.131-.066.041 0 0l.1-.048c.172-.09-.2.086-.021.012.106-.045-.031.006-.075.011.168-.019-.156-.036-.007 0a.36.36 0 00.1.018q-.165-.044-.079-.017l.071.026c.04.016.079.039.119.053.088.029-.145-.09 0 0l.119.073c.081.051.16.106.238.162.16.114.317.233.478.346a3.217 3.217 0 001.264.577 1.055 1.055 0 001.105-.535c.153-.412-.146-.7-.533-.767" fill="#fff"/><path data-name="パス 148429" d="M10.049 19.803c-.027.206-.014 1.172-.213 1.278-.563.3-.843-.663-.743-1.088" fill="#fff"/><path data-name="パス 148430" d="M9.204 19.934c-.027.217-.025.439-.04.656 0-.032 0-.064.007-.1a3.88 3.88 0 01-.043.387.792.792 0 01-.086.279l.064-.1a.221.221 0 01-.031.038l.115-.1-.015.011.158-.1-.043.021.195-.088-.025.01c-.092.038.266-.081.181-.059-.105.027.288-.051.165-.037l.213-.021h-.045l.186.006a.391.391 0 01-.064-.008l.151.031a.392.392 0 01-.089-.033l.107.056a.56.56 0 01-.189-.179l.054.08a1.333 1.333 0 01-.2-.809c0 .032 0 .064-.007.1a.818.818 0 01.017-.116c.075-.332-.524-.28-.7-.249a2.012 2.012 0 00-.648.209l-.158.1a.5.5 0 00-.18.205 1.431 1.431 0 00.033.693 1.191 1.191 0 00.127.3.81.81 0 00.244.279 1.1 1.1 0 00.661.142 2.585 2.585 0 00.772-.169 1.416 1.416 0 00.555-.336 1.043 1.043 0 00.2-.613c.027-.261.032-.522.05-.784 0 .032 0 .064-.007.1 0-.02 0-.041.006-.061a.112.112 0 00-.02-.136.176.176 0 00-.134-.1 1.174 1.174 0 00-.55-.016 2.006 2.006 0 00-.647.209l-.158.1a.5.5 0 00-.18.2" fill="#fff"/><path data-name="パス 148431" d="M21.516 20.319c.711 1.089-1.462 1.427-1.205.239" fill="#fff"/><path data-name="パス 148432" d="M20.523 20.77q.029.045.055.093l-.085-.164a.737.737 0 01.088.3l-.008-.185a.5.5 0 01-.028.188l.066-.185a.5.5 0 01-.068.125l.133-.178a.6.6 0 01-.089.094l.19-.161a.734.734 0 01-.109.076l.239-.135a.889.889 0 01-.125.057l.279-.1a1.043 1.043 0 01-.143.039l.292-.053a1 1 0 01-.166.016h.274a.893.893 0 01-.163-.014l.245.044a.776.776 0 01-.152-.045l.2.088a.591.591 0 01-.15-.092l.15.128a.515.515 0 01-.115-.144l.085.164a.574.574 0 01-.06-.232l.009.185a.878.878 0 01.02-.221.481.481 0 00-.244-.477.764.764 0 00-.326-.11 1.064 1.064 0 00-.4-.02 1.692 1.692 0 00-.81.288.824.824 0 00-.41.7 1.57 1.57 0 00.02.32.553.553 0 00.041.127 1.245 1.245 0 00.145.26 1.5 1.5 0 001 .469 1.922 1.922 0 00.526 0 2.976 2.976 0 00.8-.218 2.2 2.2 0 00.625-.42 1.617 1.617 0 00.207-.259.555.555 0 00.06-.1 1.044 1.044 0 00.089-.632.7.7 0 00-.046-.167 2.077 2.077 0 00-.177-.337.522.522 0 00-.252-.172.789.789 0 00-.347-.088 1.243 1.243 0 00-.42.029 1.358 1.358 0 00-.425.127l-.239.135a1.04 1.04 0 00-.322.339l-.066.186a.431.431 0 00.094.349" fill="#fff"/><path data-name="パス 148433" d="M17.876 25.942c.674-.378.777.5.609.933-.189.487-.688.638-1.088.937-.782.583-1.7 1.64-2.785 1.456-1.135-.194-1.662-1.384-2.154-2.26-.186-.332-.8-.946-.585-1.381.25-.517 2.8-5.441 3.058-5.033" fill="#fff"/><path data-name="パス 148434" d="M18.029 26.152c.195-.1.195.289.18.445a1 1 0 01-.579.756c-.533.333-.985.748-1.484 1.127a1.627 1.627 0 01-2 .291 3.918 3.918 0 01-1.12-1.441 7.675 7.675 0 00-.413-.7c-.184-.262-.513-.611-.416-.955a3.566 3.566 0 01.31-.608q.62-1.2 1.281-2.372c.246-.434.5-.868.767-1.285.1-.148.195-.3.3-.436a.972.972 0 00.138-.166c0-.01.022-.049.012-.012.017-.057-.145.246-.382-.048.2.249.84-.026.615-.3-.56-.69-1.471 1.089-1.648 1.384a58.056 58.056 0 00-1.773 3.228c-.191.369-.423.71-.264 1.14a6.079 6.079 0 00.6.965c.23.382.417.787.669 1.156a2.5 2.5 0 001.917 1.229 3.473 3.473 0 002.251-1.049 14.7 14.7 0 011.213-.886 1.459 1.459 0 00.669-.9c.164-.79-.371-1.359-1.145-.979-.412.2-.045.593.3.421" fill="#fff"/><path data-name="パス 148435" d="M31.241 11.972c-.175 1.362-.215 2.857-1.209 3.906-.21.221-.766.434-.862.712-.182.53.423 1.225.637 1.662.669 1.367.535 3.25 1.312 4.5z" fill="#fff"/><path data-name="パス 148436" d="M30.387 12.068a8.846 8.846 0 01-.635 3.041 2.686 2.686 0 01-.93.958 1.1 1.1 0 00-.507 1.174 5.222 5.222 0 00.642 1.24 5.771 5.771 0 01.47 1.522 9.591 9.591 0 00.906 3.091c.264.447 1.637.076 1.642-.44q.054-4.716.106-9.433l.016-1.345c.009-.757-1.7-.425-1.709.191l-.108 9.43-.015 1.345 1.642-.44a9.472 9.472 0 01-.794-2.935 6.081 6.081 0 00-.455-1.445 4.946 4.946 0 01-.642-1.24c-.039-.228-.042-.205.133-.316a3.525 3.525 0 00.536-.387 3.6 3.6 0 00.816-1.226 10.967 10.967 0 00.593-2.979c.091-.728-1.631-.438-1.709.191" fill="#fff"/><path data-name="パス 148437" d="M4.396 9.839c-.047 1.13.8 2.356 1.294 3.344.181.359.415.579.34.975-.131.692-1.33 1.807-1.736 2.343a6.868 6.868 0 00-1.067 1.964z" fill="#fff"/><path data-name="パス 148438" d="M3.545 9.949a5.345 5.345 0 00.839 2.619c.205.378.405.761.618 1.134a.822.822 0 01.006.961 14.144 14.144 0 01-1.357 1.642 7.366 7.366 0 00-1.275 2.27l1.7-.219L5.1 10.802l.146-1.073c.088-.653-1.625-.35-1.7.219l-1.024 7.554-.145 1.073c-.1.7 1.527.266 1.7-.219a6.683 6.683 0 011.279-2.165 9.234 9.234 0 001.333-1.67 1.237 1.237 0 00.165-.978 7.555 7.555 0 00-.63-1.181 5.7 5.7 0 01-.977-2.631c0-.371-.448-.388-.732-.352-.24.03-.966.22-.97.571" fill="#fff"/><path data-name="パス 148439" d="M18.738 26.178c.394.613.573 1.336.919 1.958" fill="#fff"/><path data-name="パス 148440" d="M18.597 26.216c.389.613.571 1.325.919 1.958.042.076.311-.025.283-.076-.349-.634-.53-1.346-.919-1.959-.048-.075-.312.031-.283.076" fill="#fff"/><path data-name="パス 148441" d="M10.703 30.833c.671 1.172 3.047 5.951 4.861 5.776 4.316-.415 4.751-5.729 5.09-5.776 0 0-1.364.465-1.607.607-.013.008-3.735.686-4.882.43-1.779-.4-3.843-.814-4.513-1.986" fill="#fff"/><path data-name="パス 148442" d="M10.111 30.992c.6 1.057 1.163 2.132 1.836 3.147.629.948 1.445 2.215 2.577 2.608a3.342 3.342 0 001.9-.116 5.849 5.849 0 001.921-.9 6.466 6.466 0 002.071-2.767 14.606 14.606 0 00.512-1.457c.05-.166.1-.334.154-.5.135-.378.183-.168-.384-.005l-.245-.287c-.34.116-.68.236-1.017.362-.213.08-.427.159-.634.254-.546.251.675-.123.242-.07-.794.1-1.579.259-2.376.345a12.672 12.672 0 01-1.422.094 6.8 6.8 0 01-1.5-.252c-1.19-.277-2.809-.59-3.5-1.719-.17-.276-1.263.181-1.18.316.718 1.166 2.321 1.515 3.559 1.809a8.6 8.6 0 001.676.3 12.213 12.213 0 001.627-.079 34.748 34.748 0 002.855-.4 15.362 15.362 0 002.076-.721c.081-.028.457-.159.373-.3s-.523-.018-.618.01c-.733.211-.738.737-.944 1.387a9.184 9.184 0 01-1.267 2.67c-.549.752-1.652 1.829-2.692 1.646a2.6 2.6 0 01-1.217-.808 10.6 10.6 0 01-1.264-1.589c-.716-1.058-1.3-2.187-1.935-3.295-.156-.275-1.264.168-1.18.316" fill="#fff"/><path data-name="パス 148443" d="M3.561 18.32C2.545 15.848.7 17.76.419 19.398c-.409 2.347.643 3.405 2.394 4.832" fill="#fff" fill-rule="evenodd"/><path data-name="パス 148444" d="M3.878 18.235c-.284-.668-.758-1.366-1.572-1.322a2.2 2.2 0 00-1.584 1.04 4.15 4.15 0 00-.154 4.431 8.727 8.727 0 002 2.024c.208.17.769-.131.492-.357C2.012 23.197.9 22.254.689 20.839a4.106 4.106 0 01.235-2.1 2.565 2.565 0 011-1.287c.645-.355 1.108.456 1.318.95.116.272.745.089.635-.17"/><path data-name="パス 148445" d="M31.536 22.088c.995-.109 2.287-.473 2.9.556.574.962-.328 2.192-.838 2.956-.93 1.394-3.217 3.523-5.227 2.4" fill="#fff" fill-rule="evenodd"/><path data-name="パス 148446" d="M31.511 22.334a4.131 4.131 0 012.123-.025c.841.386.726 1.357.392 2.049a7.494 7.494 0 01-3.035 3.33 2.5 2.5 0 01-2.438.092c-.275-.147-.721.256-.361.448 1.759.942 3.683-.273 4.891-1.549a9.432 9.432 0 001.494-2.113 1.921 1.921 0 00-.207-2.48c-.776-.644-1.908-.347-2.809-.244-.141.016-.336.1-.347.266s.161.241.3.226"/><path data-name="パス 148447" d="M22.835.913c-2.389-.302-5.189-.956-7.548-.399a13.551 13.551 0 00-4.985 2.537 16.9 16.9 0 00-5.456 6.026 20.553 20.553 0 00-1.665 7.561c-.114 1.654.226 3.285.193 4.955-.043 1.985-.461 3.558-.228 5.558.435 3.676.693 8.471 6.111 10.438 1.281.466 2.867 1.644 4.689 1.848 4.3.481 9.546-1.527 11.842-3.8 2.256-2.231 1.718-3.641 3.209-6.375a27.918 27.918 0 002.9-9.38c.672-3.794-.533-7.81-1.848-11.415-1.258-3.447-3.023-5.067-6.27-7.126z" fill="#fff" fill-rule="evenodd"/><path data-name="パス 148448" d="M23.149.628a34.358 34.358 0 00-6.3-.609 11.547 11.547 0 00-5.535 1.949c-3.277 2.1-6.33 4.908-7.607 8.676a23.05 23.05 0 00-1.059 6.248 27.9 27.9 0 00.155 3.307 20.745 20.745 0 01-.1 3.54 17.781 17.781 0 00-.111 3.168c.055.682.147 1.365.233 2.044a16.738 16.738 0 00.888 3.936 8.211 8.211 0 002.395 3.412 22.563 22.563 0 004.463 2.351 10.057 10.057 0 002.735 1.018 11.66 11.66 0 002.706.1 18.533 18.533 0 005.613-1.269 14.351 14.351 0 004.248-2.456 8.4 8.4 0 002.472-3.9 17.907 17.907 0 01.839-2.275c.433-.909.932-1.78 1.322-2.712a28.749 28.749 0 001.627-5.783 22.5 22.5 0 00.46-3.161 16.636 16.636 0 00-.169-3.155 33.4 33.4 0 00-1.799-6.558 12.745 12.745 0 00-2.364-4.18 18 18 0 00-3.807-3.059 9.31 9.31 0 00-1.213-.6.826.826 0 00-.731.094c-.133.086-.317.307-.088.411a13.6 13.6 0 016.093 5.228 23.537 23.537 0 012.01 5.162 21.232 21.232 0 011.046 6.329 26.546 26.546 0 01-.935 5.786 23.01 23.01 0 01-2.03 5.418 15.171 15.171 0 00-1 2.256c-.215.631-.389 1.276-.641 1.894a7.642 7.642 0 01-2.984 3.417 16.051 16.051 0 01-4.711 2.032 12.841 12.841 0 01-5.337.415 9.5 9.5 0 01-2.614-.99c-.755-.382-1.518-.7-2.291-1.034a7.878 7.878 0 01-3.412-2.774c-1.423-2.105-1.658-4.736-1.94-7.193-.235-2.058.246-4.081.209-6.137-.02-1.114-.176-2.219-.209-3.332a20.818 20.818 0 01.209-3.123 16.51 16.51 0 011.588-5.72 14.933 14.933 0 013.525-4.285 19.241 19.241 0 014.719-3.183 10.742 10.742 0 015.9-.548c.97.128 1.935.293 2.9.418a.878.878 0 00.73-.2c.129-.143.143-.342-.1-.374"/><path data-name="パス 148449" d="M12.317 20.705c-.431-.944-1.666-1.309-2.6-1.485a3.61 3.61 0 00-3.136.561.309.309 0 00.138.517.757.757 0 00.76-.2c-.1.094.008 0 .028-.016.091-.086-.066.02.024-.016.035-.014.072-.033.106-.051.113-.059-.114.028.014-.006.092-.025.183-.051.277-.07l-.033.006.094-.013.145-.015c.1-.008.2-.012.3-.013h.097c.062 0 .125.006.187.011a6.249 6.249 0 01.677.094 5.164 5.164 0 01.587.16c.107.036.214.076.319.119s.191.084.235.108a2.577 2.577 0 01.485.324c.064.055-.021-.027.039.038a1.137 1.137 0 01.142.175c.01.015.076.142.039.061a.514.514 0 00.635.221c.172-.046.55-.267.439-.509"/><path data-name="パス 148450" d="M18.713 21.107a1.82 1.82 0 01.858-.538c.024-.009.026-.011.1-.032s.123-.037.185-.054q.175-.048.352-.086a6.479 6.479 0 01.733-.1 3.364 3.364 0 012.52.586c.294.285 1.312-.129.993-.438a4.487 4.487 0 00-3.452-.8 4.572 4.572 0 00-3.3 1.4c-.155.211.133.35.3.36a.83.83 0 00.706-.3"/><path data-name="パス 148451" d="M18.813 18.009a18.693 18.693 0 012.9-.4 2.908 2.908 0 01.295 0c-.112-.009.136.025.162.031q.112.03.028 0c.039.013.077.028.115.043a2.443 2.443 0 01.22.106c.357.192.687.43 1.042.627a1.37 1.37 0 001.205-.162c.245-.15.5-.461.152-.654-.373-.206-.718-.462-1.1-.655a2.992 2.992 0 00-1.367-.3 18.026 18.026 0 00-3.421.431c-.314.062-.886.192-.969.573-.08.364.518.4.733.355"/><path data-name="パス 148452" d="M11.565 16.779c-.168-.031.164.066 0 0-.041-.016-.082-.029-.122-.047s-.08-.039-.121-.057c.164.071.006 0-.027-.019-.183-.111-.356-.24-.529-.366a4.1 4.1 0 00-1.143-.663 2.21 2.21 0 00-1.753.193c-.228.129-.441.281-.654.431l-.119.082c-.118.079-.051 0 .016-.008a1.883 1.883 0 00-.312.151c-.324.125-.647.6-.39.923a.981.981 0 001.164.153 3.412 3.412 0 00.646-.361 4.259 4.259 0 00.469-.326c-.148.131-.066.041 0 0l.1-.048c.172-.09-.2.086-.021.012.106-.045-.031.006-.075.011.168-.019-.156-.036-.007 0a.36.36 0 00.1.018q-.165-.044-.079-.017l.071.026c.04.016.079.039.119.053.088.029-.145-.09 0 0l.119.073c.081.051.16.106.238.162.16.114.317.233.478.346a3.217 3.217 0 001.264.577 1.055 1.055 0 001.105-.535c.153-.412-.146-.7-.533-.767"/><path data-name="パス 148453" d="M9.204 19.934c-.027.217-.025.439-.04.656 0-.032 0-.064.007-.1a3.88 3.88 0 01-.043.387.792.792 0 01-.086.279l.064-.1a.221.221 0 01-.031.038l.115-.1-.015.011.158-.1-.043.021.195-.088-.025.01c-.092.038.266-.081.181-.059-.105.027.288-.051.165-.037l.213-.021h-.045l.186.006a.391.391 0 01-.064-.008l.151.031a.392.392 0 01-.089-.033l.107.056a.56.56 0 01-.189-.179l.054.08a1.333 1.333 0 01-.2-.809c0 .032 0 .064-.007.1a.818.818 0 01.017-.116c.075-.332-.524-.28-.7-.249a2.012 2.012 0 00-.648.209l-.158.1a.5.5 0 00-.18.205 1.431 1.431 0 00.033.693 1.191 1.191 0 00.127.3.81.81 0 00.244.279 1.1 1.1 0 00.661.142 2.585 2.585 0 00.772-.169 1.416 1.416 0 00.555-.336 1.043 1.043 0 00.2-.613c.027-.261.032-.522.05-.784 0 .032 0 .064-.007.1 0-.02 0-.041.006-.061a.112.112 0 00-.02-.136.176.176 0 00-.134-.1 1.174 1.174 0 00-.55-.016 2.006 2.006 0 00-.647.209l-.158.1a.5.5 0 00-.18.2"/><path data-name="パス 148454" d="M20.523 20.77q.029.045.055.093l-.085-.164a.737.737 0 01.088.3l-.008-.185a.5.5 0 01-.028.188l.066-.185a.5.5 0 01-.068.125l.133-.178a.6.6 0 01-.089.094l.19-.161a.734.734 0 01-.109.076l.239-.135a.889.889 0 01-.125.057l.279-.1a1.043 1.043 0 01-.143.039l.292-.053a1 1 0 01-.166.016h.274a.893.893 0 01-.163-.014l.245.044a.776.776 0 01-.152-.045l.2.088a.591.591 0 01-.15-.092l.15.128a.515.515 0 01-.115-.144l.085.164a.574.574 0 01-.06-.232l.009.185a.878.878 0 01.02-.221.481.481 0 00-.244-.477.764.764 0 00-.326-.11 1.064 1.064 0 00-.4-.02 1.692 1.692 0 00-.81.288.824.824 0 00-.41.7 1.57 1.57 0 00.02.32.553.553 0 00.041.127 1.245 1.245 0 00.145.26 1.5 1.5 0 001 .469 1.922 1.922 0 00.526 0 2.976 2.976 0 00.8-.218 2.2 2.2 0 00.625-.42 1.617 1.617 0 00.207-.259.555.555 0 00.06-.1 1.044 1.044 0 00.089-.632.7.7 0 00-.046-.167 2.077 2.077 0 00-.177-.337.522.522 0 00-.252-.172.789.789 0 00-.347-.088 1.243 1.243 0 00-.42.029 1.358 1.358 0 00-.425.127l-.239.135a1.04 1.04 0 00-.322.339l-.066.186a.431.431 0 00.094.349"/><path data-name="パス 148455" d="M18.029 26.152c.195-.1.195.289.18.445a1 1 0 01-.579.756c-.533.333-.985.748-1.484 1.127a1.627 1.627 0 01-2 .291 3.918 3.918 0 01-1.12-1.441 7.675 7.675 0 00-.413-.7c-.184-.262-.513-.611-.416-.955a3.566 3.566 0 01.31-.608q.62-1.2 1.281-2.372c.246-.434.5-.868.767-1.285.1-.148.195-.3.3-.436a.972.972 0 00.138-.166c0-.01.022-.049.012-.012.017-.057-.145.246-.382-.048.2.249.84-.026.615-.3-.56-.69-1.471 1.089-1.648 1.384a58.056 58.056 0 00-1.773 3.228c-.191.369-.423.71-.264 1.14a6.079 6.079 0 00.6.965c.23.382.417.787.669 1.156a2.5 2.5 0 001.917 1.229 3.473 3.473 0 002.251-1.049 14.7 14.7 0 011.213-.886 1.459 1.459 0 00.669-.9c.164-.79-.371-1.359-1.145-.979-.412.2-.045.593.3.421"/><path data-name="パス 148456" d="M31.241 11.972c-.175 1.362-.215 2.857-1.209 3.906-.21.221-.766.434-.862.712-.182.53.423 1.225.637 1.662.669 1.367.535 3.25 1.312 4.5z" fill="#251e1c" fill-rule="evenodd"/><path data-name="パス 148457" d="M30.387 12.068a8.846 8.846 0 01-.635 3.041 2.686 2.686 0 01-.93.958 1.1 1.1 0 00-.507 1.174 5.222 5.222 0 00.642 1.24 5.771 5.771 0 01.47 1.522 9.591 9.591 0 00.906 3.091c.264.447 1.637.076 1.642-.44q.054-4.716.106-9.433l.016-1.345c.009-.757-1.7-.425-1.709.191l-.108 9.43-.015 1.345 1.642-.44a9.472 9.472 0 01-.794-2.935 6.081 6.081 0 00-.455-1.445 4.946 4.946 0 01-.642-1.24c-.039-.228-.042-.205.133-.316a3.525 3.525 0 00.536-.387 3.6 3.6 0 00.816-1.226 10.967 10.967 0 00.593-2.979c.091-.728-1.631-.438-1.709.191"/><path data-name="パス 148458" d="M4.396 9.839c-.047 1.13.8 2.356 1.294 3.344.181.359.415.579.34.975-.131.692-1.33 1.807-1.736 2.343a6.868 6.868 0 00-1.067 1.964z" fill="#251e1c" fill-rule="evenodd"/><path data-name="パス 148459" d="M3.545 9.949a5.345 5.345 0 00.839 2.619c.205.378.405.761.618 1.134a.822.822 0 01.006.961 14.144 14.144 0 01-1.357 1.642 7.366 7.366 0 00-1.275 2.27l1.7-.219L5.1 10.802l.146-1.073c.088-.653-1.625-.35-1.7.219l-1.024 7.554-.145 1.073c-.1.7 1.527.266 1.7-.219a6.683 6.683 0 011.279-2.165 9.234 9.234 0 001.333-1.67 1.237 1.237 0 00.165-.978 7.555 7.555 0 00-.63-1.181 5.7 5.7 0 01-.977-2.631c0-.371-.448-.388-.732-.352-.24.03-.966.22-.97.571"/><path data-name="パス 148460" d="M18.597 26.216c.389.613.571 1.325.919 1.958.042.076.311-.025.283-.076-.349-.634-.53-1.346-.919-1.959-.048-.075-.312.031-.283.076"/><path data-name="パス 148461" d="M10.111 30.992c.6 1.057 1.163 2.132 1.836 3.147.629.948 1.445 2.215 2.577 2.608a3.342 3.342 0 001.9-.116 5.849 5.849 0 001.921-.9 6.466 6.466 0 002.071-2.767 14.606 14.606 0 00.512-1.457c.05-.166.1-.334.154-.5.135-.378.183-.168-.384-.005l-.245-.287c-.34.116-.68.236-1.017.362-.213.08-.427.159-.634.254-.546.251.675-.123.242-.07-.794.1-1.579.259-2.376.345a12.672 12.672 0 01-1.422.094 6.8 6.8 0 01-1.5-.252c-1.19-.277-2.809-.59-3.5-1.719-.17-.276-1.263.181-1.18.316.718 1.166 2.321 1.515 3.559 1.809a8.6 8.6 0 001.676.3 12.213 12.213 0 001.627-.079 34.748 34.748 0 002.855-.4 15.362 15.362 0 002.076-.721c.081-.028.457-.159.373-.3s-.523-.018-.618.01c-.733.211-.738.737-.944 1.387a9.184 9.184 0 01-1.267 2.67c-.549.752-1.652 1.829-2.692 1.646a2.6 2.6 0 01-1.217-.808 10.6 10.6 0 01-1.264-1.589c-.716-1.058-1.3-2.187-1.935-3.295-.156-.275-1.264.168-1.18.316" fill="#251e1c"/></g></svg>