<svg width="56" height="63" fill="none" xmlns="http://www.w3.org/2000/svg"><g clip-path="url(#clip0_345_2)"><mask id="a" style="mask-type:luminance" maskUnits="userSpaceOnUse" x="-156" y="0" width="213" height="63"><path d="M56.155 0H-156v62.88H56.155V0z" fill="#fff"/></mask><g mask="url(#a)"><path d="M39.521 24.637a7.217 7.217 0 003.162.752c.651.6 1.1.027 1.524-.318a5.785 5.785 0 001.162-1.618c.587-.959.656-.99-.144-1.707a3.79 3.79 0 01-1.18-3.485 2.738 2.738 0 012.477-2.3c.343-.01.4-.18.576-.413.233-.382.579-.682.99-.86a4.766 4.766 0 012.445-.077 16.72 16.72 0 013.476 1.5 2.984 2.984 0 011.481 1.477 5.346 5.346 0 01.507 3.829 4.088 4.088 0 01-2.884 3.227c-.214.076-.5.173-.588.345-.707 1.418-1.655 2.693-2.386 4.1a11.31 11.31 0 01-3.33 4.044 4.35 4.35 0 01-2.582.945 16.306 16.306 0 01-2.4-.474 15.62 15.62 0 01-4.256-1.423c-.289-.136-.392-.149-.488.206a18.903 18.903 0 01-.755 1.92 10.357 10.357 0 01-1.246 2.327 2.876 2.876 0 01-1.339.873c-.293.1-.292.279-.424.446-.493.618-.56 1.429-1.03 2.063a1.538 1.538 0 00.538 2.5c.1.058.216.083.312.142 1.288.787 2.6 1.544 3.853 2.376 1.651 1.093 3.29 2.212 5.022 3.165a18.032 18.032 0 012.7 1.843c1.165.951 2.24 2.016 3.324 3.062a1.157 1.157 0 00.86.346 11.873 11.873 0 001.512-.233 25.94 25.94 0 013.1-.016c.35.007.694.093 1.006.252a1.157 1.157 0 01.721 1.019 4.41 4.41 0 01-.512 2.279 8.5 8.5 0 01-2.269 3.019c-.723.553-1.479 1.057-2.16 1.67-.47.413-.989.767-1.545 1.054-1.127.6-2.368.328-3.566.369-.058 0-.113-.133-.182-.149-1.075-.242-1.716-1.374-2.89-1.412-.03 0-.058-.056-.089-.084-.726-.644-1.5-1.243-2.168-1.94a29.793 29.793 0 00-3.686-2.826 26.282 26.282 0 00-2.986-1.755 45.034 45.034 0 00-7.09-2.943.516.516 0 00-.415.084 26.808 26.808 0 01-3.1 2.1 9.348 9.348 0 01-4.47 1.509 16.325 16.325 0 01-4.348-.919c-.85-.206-1.67-.555-2.5-.843a33.35 33.35 0 00-3.327-1.262c-.247-.057-.5-.482-.658-.437-.28.079-.5.392-.733.613-.15.14-.3.289-.439.438a4.089 4.089 0 01-1.595.947 8.575 8.575 0 01-2.77.167 1.47 1.47 0 01-1-.508 1.622 1.622 0 01-.38-1.2c.095-.611.242-1.213.438-1.8a24.221 24.221 0 012.01-4.505 8.027 8.027 0 011.864-2.573.91.91 0 01.5-.283 6.31 6.31 0 012.626.235 4.824 4.824 0 002.41.788c.16-.017.346.149.508.251.462.286.9.619 1.38.867a2.423 2.423 0 002.37.088 1.708 1.708 0 001.065-1.7 6.916 6.916 0 01.211-2.882c.1-.247.146-.651-.386-.689-.206-.015-.4-.223-.6-.333a3.426 3.426 0 01-1.759-2.108c-.3-.978-.582-1.963-.8-2.989a13.82 13.82 0 01-.67 1.519c-.142.24-.569.339-.652.578-.083.239.224.606.147.852a8.448 8.448 0 01-.725 1.558c-.479.863-2.04 1.741-2.786 1.432-.446-.184-.936-.034-1.256-.243-.44-.287-.858-.154-1.283-.217a3.232 3.232 0 01-2.056-1.315c-.064-.08-.049-.227-.059-.345a5.844 5.844 0 011.607-4.547c.154-.17.366-.393.358-.585a9.21 9.21 0 01.79-3.4 15.235 15.235 0 012.983-5.334 11.741 11.741 0 012.932-2.2 3.873 3.873 0 011.845-.623c.992-.17 1.995-.263 3-.277.157.023.361-.129.51-.245a5.908 5.908 0 012.2-.965c.44-.072.886-.1 1.331-.082.22-.547-.432-.778-.452-1.259a6.743 6.743 0 00-.235-1.138.815.815 0 00-.945-.759 3.683 3.683 0 01-1.918-.473 2.738 2.738 0 01-1.34-1.3 3.366 3.366 0 011.607-4.405c.287-.133.366-.2.363-.473-.045-.826-.04-1.654.015-2.479a6.6 6.6 0 011.061-3.284c.333-.459.7-.868 1.071-1.288.371-.42.693-.874 1.06-1.295a6.785 6.785 0 012.8-1.631A4.557 4.557 0 0126.25.1a5.731 5.731 0 001.79.011 12.146 12.146 0 014.72.242c.563.2 1.135.152 1.7.386a16.02 16.02 0 013.763 2.021 8.38 8.38 0 013.325 4.574c.313.847.483 1.74.5 2.644a9.164 9.164 0 01-.235 1.262 15.187 15.187 0 01-.28 1.623c-.268.923-.3.914.356 1.552a1.5 1.5 0 00.177.174 2.428 2.428 0 01.007 3.5 4.122 4.122 0 01-2.414 1.076.909.909 0 00-.844.508 11.176 11.176 0 01-2.357 3c-.217.184-.424.379-.689.617 1.31.47 2.533.911 3.757 1.349m-18.23 16.605a26.664 26.664 0 01-3.015-.8c-.107-.03-.193-.138-.3-.168a1.463 1.463 0 00-.716-.13c-.32.1-.2.484-.3.726a7.217 7.217 0 00-.238 2.261 4.77 4.77 0 001.228 3.224 9.58 9.58 0 001.515 1.72 5.465 5.465 0 003.042 1.66c.543.059 1.07.384 1.654.488.585.104 1.183.143 1.757.252.9.197 1.786.458 2.65.78a33.587 33.587 0 015.823 2.7 31.609 31.609 0 014.885 3.225c.581.5 1.15 1.006 1.72 1.513.246.193.503.37.77.532.193.133.426.417.568.377.322-.093.75-.28.861-.544a4.98 4.98 0 01.91-1.113c.268-.342.51-.705.793-1.034.633-.735 1.288-1.45 1.922-2.185.121-.141.148-.369.276-.5.155-.156.137-.22-.009-.364a41.806 41.806 0 00-5.058-4.281c-.65-.463-1.433-.74-2.118-1.162-.993-.612-1.953-1.277-2.927-1.922-1.454-.963-2.9-1.932-4.425-2.785-.739-.412-1.483-.815-2.227-1.219a7.044 7.044 0 00-2.543-.8 22.532 22.532 0 00-2.64-.13c-1.288-.1-2.588-.129-3.86-.325m12.011-18.158c.282-.118.568-.225.846-.352a8.459 8.459 0 003.945-4.526c.45-1.19.798-2.417 1.037-3.666.02-.117.27-.211.04-.35-.386-.235-.323-.608-.352-.975a4.749 4.749 0 00-1.22-2.843c-.615-.7-1.45-1.2-1.85-2.087a.483.483 0 00-.173-.174c-.543-.383-1.079-.779-1.639-1.136-.364-.232-.809-.114-.8.216.02 1.092-.792 1.96-.762 3.042-.32.153-.006.758-.582.765a.771.771 0 01-.9-.813 8.738 8.738 0 00-.217-1.52c-.144-.526-.679-.909-.535-1.521-.139-.028-.362-.126-.406-.073a31.67 31.67 0 00-1.328 1.68 4.73 4.73 0 00-.6.989.691.691 0 01-.775.518c-.553-.013-.422-.518-.574-.762-.168-.269-.03-.721-.04-1.093a1.327 1.327 0 00-.087-.58c-.054-.1-.155-.442-.42-.174-.096.08-.183.169-.262.265a12.092 12.092 0 01-2.88 2.879 6.23 6.23 0 01-1.237.91.8.8 0 00-.58.9.4.4 0 01-.565.36 1.36 1.36 0 01-.364-.315 1.865 1.865 0 00-2.34-.657 2.167 2.167 0 00-.986 2.845c.36.822 1.034.868 1.662 1.094.256.092.577-.015.862.024.35.046.783-.212 1.033.174.203.325.353.68.444 1.052.076.3-.084.663.261.887-.086 1.07.662 1.727 1.238 2.463 1.3 1.669 2.823 2.112 4.594 2.636.678.2 1.377.076 2 .263.682.158 1.38.233 2.08.224a4.64 4.64 0 002.436-.573m-9.614 3.267a9.276 9.276 0 01-1.27 2.459 16.892 16.892 0 01-2.492 2.925c-.386.343-.79.665-1.21.966a.733.733 0 01-.32.121c-.2.032-.518-.03-.576.071a2.28 2.28 0 00-.329.97 32.69 32.69 0 00-.272 4.363.758.758 0 00.656.829c1.09.24 2.159.56 3.2.958.08.019.163.023.244.011 1.615.17 3.236.256 4.86.26a3.54 3.54 0 011.767.212c.488.214 1.1-.15 1.64.252.183.139.564 0 .85.028.41.047.393-.176.47-.492a18.24 18.24 0 011.077-2.651c.2-.47.053-.915.266-1.379.491-1.073.787-2.235 1.177-3.356a6.025 6.025 0 00.443-2.05c-.015-1.654 0-3.308 0-4.961a2.331 2.331 0 010-.248 1.421 1.421 0 00-.458-1.249c-.413.285-1.058.162-1.325.677-.473.653-1 1.265-1.573 1.832-.813 1.1-1.95.983-3.08.963a.328.328 0 01-.214-.077c-.518-.568-1.067-1.114-1.53-1.724a6.57 6.57 0 01-1.116-2.328c-.344 1.022-.63 1.815-.876 2.62m5.236-20.41c.046-.482.885-.585 1.3-.2.437.398.752.913.906 1.483.011.038-.013.09 0 .122.191.376.387.749.582 1.122.135-.374.283-.744.4-1.124a2.11 2.11 0 00.257-1.138c-.1-.461.348-.608.58-.867.05-.056.287.005.407.07.531.23 1.031.525 1.488.879.68.638 1.667.926 2.074 1.9a2.9 2.9 0 00.857.883 5.32 5.32 0 012.046 3.6c.018.113.168.2.257.3.077-.071.2-.129.223-.217a10.14 10.14 0 00.483-1.778c.055-.742.06-1.487.017-2.23a13.303 13.303 0 00-1.23-3.088 9.021 9.021 0 00-3.44-3.058 13.774 13.774 0 00-2.9-1.084 14.247 14.247 0 00-4.645-.442c-.628.009-1.252.187-1.882.227a13.68 13.68 0 00-1.977.038 6 6 0 00-2 .824 5.422 5.422 0 00-2.12 2.059c-.288.429-.62.828-.988 1.191a5.288 5.288 0 00-.923 2.858c-.08.711.271 1.467-.228 2.14-.027.037.118.285.22.316.223.07.56-.028.694.1.723.705 1.3.077 1.8-.246a13.716 13.716 0 001.926-1.646c.867-.827 1.7-1.691 2.55-2.538.2-.2.36-.408.712-.387.522.031.708.169.781.691.06.42.156.835.271 1.435.661-.769 1.4-1.221 1.491-2.193M14.96 22.9a7.166 7.166 0 00-1.647.206 8.673 8.673 0 00-5.128 4.272 16.08 16.08 0 00-1.7 3.888 9.99 9.99 0 00-.442 2.179 1.052 1.052 0 00.462.931 5.016 5.016 0 003.6 1.189c.38-.041.621-.167.667-.551a13.584 13.584 0 011.768-4.477 3.67 3.67 0 011.294-1.217 6.807 6.807 0 014.447-.954.75.75 0 01.518.218c.281.389.506.173.615-.072.466-.925.82-1.903 1.054-2.912.09-.493.252-.971.365-1.46.068-.3.108-.6.18-1.016-2.1.179-4.055-.425-6.053-.221m5.521 30.63a349.727 349.727 0 003.238-1.756c.08-.045.114-.171.17-.257-.072-.026-.144-.053-.217-.076a22.191 22.191 0 01-2.635-.816 10.466 10.466 0 01-4.545-4.09c-.082-.129-.134-.28-.226-.4a.3.3 0 00-.508-.043 3.346 3.346 0 01-2.484.907 3.913 3.913 0 01-2.066-.721 7.376 7.376 0 00-.779-.513.923.923 0 00-1.139.4 5.445 5.445 0 00-.723.941c-.297.747-.55 1.511-.755 2.289a1.828 1.828 0 001.181 2.038c1.284.492 2.546 1.068 3.853 1.46 1.249.531 2.567.878 3.915 1.031.367.35.828.226 1.384.262a5.935 5.935 0 002.337-.654M46.973 31.3c.877-.96 1.64-2.02 2.272-3.156.671-.991 1.261-2.036 1.913-3.04.21-.32 0-.489-.187-.592a14.07 14.07 0 00-2.507-1.116 3.415 3.415 0 00-.535-.2 2.22 2.22 0 00-.96-.021c-.2.067-.31.4-.444.622a6.87 6.87 0 01-1.6 2.3 2.468 2.468 0 01-1.779.756 13.107 13.107 0 01-3.6-.87c-.379-.177-.787-.293-1.178-.443-.313-.12-.622-.254-.934-.382a.978.978 0 00.135 1.109c.1.115.032.4.013.6.068 1.178.024 2.36-.13 3.529-.046.159.366.551.64.67.7.3 1.457.466 2.15.777.693.311 1.477.386 2.188.7.478.095.969.105 1.45.03a3.614 3.614 0 003.09-1.276m3.172 23.117a3.358 3.358 0 00-3.122 1.676 26.897 26.897 0 01-2.228 2.925 7.57 7.57 0 00-.708.944c-.365.5-.387.534.03.855a3.684 3.684 0 002.02.829 4.964 4.964 0 003.732-1.5c.237-.2.528-.336.77-.532a9.047 9.047 0 002.856-3.259 6.23 6.23 0 00.573-1.132c.04-.179.262-.329.05-.511a.954.954 0 00-.5-.271c-.744-.03-1.489-.013-2.234-.013-.412.02-.826.017-1.239-.007m.015-37.774a1.613 1.613 0 01.816 1.409c.136.77.043 1.564-.267 2.282.681-.041.714-.669.976-1.03.141-.193.143-.413.463-.381a.559.559 0 01.567.515 2.37 2.37 0 01-.089.7c-.022.109-.138.206-.138.31.016.153.05.304.1.45.141-.048.327-.057.414-.154.17-.211.32-.44.445-.68.075-.131.081-.341.186-.409.19-.133.413-.208.644-.215.3.017.181.311.183.49a2.258 2.258 0 01-2.29 2.219.8.8 0 01-.435-.136 3.73 3.73 0 01-.446-.532c-.166.28-.439.152-.67.174a.77.77 0 01-.772-.252.75.75 0 00-.512-.232c-.69-.019-.916-.415-1.108-1.025-.13-.415-.152-.927-.592-1.25-.247-.182-.192-.491.03-.747.245-.284.407-.211.704-.019.348.171.727.268 1.113.285.117.016.294-.127.378-.243.043-.06-.02-.256-.095-.336a2.933 2.933 0 00-3.277-.727c-.979.3-1.154.622-1.217 1.558a2.617 2.617 0 00.96 2.342 3.588 3.588 0 001.706 1c1.265.317 2.47.834 3.572 1.532.2.114.53.37.576.324.2-.191.451-.15.657-.24a3.174 3.174 0 002.218-3.056c.006-.248-.019-.5 0-.743a2.75 2.75 0 00-1.654-2.856 19.03 19.03 0 00-2.5-1.14c-.526-.174-1.135.113-1.6-.354-.058-.059-.453.217-.695.339.465.429 1.116.452 1.648.824M6.046 44.256a.513.513 0 00-.44.1c-.395.397-.76.821-1.093 1.27-.877 1.411-1.4 2.978-2.178 4.427a3.58 3.58 0 00-.5 1.656c-.026.19-.087.373-.179.541-.089.209-.1.319.164.449a3.4 3.4 0 003.325-.464c.188-.16.334-.371.53-.519a2.214 2.214 0 00.913-2.116 6.151 6.151 0 011.106-3.367 12 12 0 01.86-1.182c-.832-.267-1.665-.546-2.507-.8m10.223-10.6c.251-1.277.7-2.516 1.062-3.771.042-.143.088-.283.132-.424-.192-.034-.494-.162-.56-.087-.393.452-1.02.059-1.439.467a2.93 2.93 0 01-1.173.732c-.495.141-.44.629-.743.859.137.922-.65 1.779-.08 2.782.262.461.012 1.158.273 1.741.13.45.222.91.273 1.376a2.88 2.88 0 001.078 1.405.977.977 0 00.73.274c.36-.1.14-.49.163-.751.033-.368.01-.743.01-1.115l-.06-.006c.05-1.166.16-2.329.332-3.483M5.143 39.033c.891.081 1.773.242 2.635.481.147.053.376-.061.546-.141a2.163 2.163 0 001.47-2.08c0-.207.481-.547-.219-.506a5.38 5.38 0 01-3.918-1.53c-.29-.254-.51-.27-.683.039a6.17 6.17 0 00-.886 2.204c-.01 1.054.278 1.4 1.06 1.531m31.2-13.541a1.074 1.074 0 00-1.238-1.1c-.089.01-.235.12-.238.189-.09.488-.084.989.018 1.474.217.86.289 1.75.213 2.634.033.493-.006.99.008 1.486a11.618 11.618 0 01-1.246 5.181c-.048.105-.187.186-.2.287.01.14.044.278.1.407.11-.034.27-.033.322-.107.33-.43.622-.89.87-1.372.346-.766.642-1.552.888-2.355a8.943 8.943 0 00.51-3.012c-.02-.495 0-.991 0-1.485 0-.743.008-1.487 0-2.23m-8.6-.856a1.912 1.912 0 00-1.376-.231c-.07 0-.218.293-.18.345.294.42.658.792.937 1.22.755 1.161 2.25.748 3.022-.395.134-.2.3-.372.563-.687-1.09.062-1.993-.416-2.967-.253m-6.969 4.153c.06 0 .14-.01.171-.049a11.109 11.109 0 002-3.62c.137-.437.323-.86.43-1.3.024-.224.002-.45-.064-.665-.013-.067-.132-.178-.164-.167a7.87 7.87 0 00-1 .422.462.462 0 00-.189.362 8.553 8.553 0 01-.615 3.088 4.59 4.59 0 01-.633 1.718c-.02.024 0 .081 0 .121.02.033.042.093.062.093m20.662-13.307a3.835 3.835 0 00-.946-.7c-.063-.035-.407.213-.4.3a5.27 5.27 0 01-.267 1.636c-.022.118.031.287-.033.355-.258.272-.406.6-.08.835.284.205.615-.068.87-.235.537-.357 1.12-.709 1.02-1.522-.05-.23-.03-.528-.168-.676M18.515 21.7c.463.443 1.068.068 1.623.4.443.267 1.174.054 1.778.054-1.074-.849-2.27-.282-3.4-.456" fill="#fff"/><path d="M25.155 41.568c-1.287-.1-2.587-.129-3.859-.325a26.755 26.755 0 01-3.014-.8c-.107-.03-.194-.138-.3-.168a1.472 1.472 0 00-.716-.13c-.32.1-.2.484-.3.726a7.214 7.214 0 00-.237 2.261 4.773 4.773 0 001.227 3.224 9.58 9.58 0 001.515 1.72 5.463 5.463 0 003.042 1.66c.543.06 1.068.384 1.654.488.586.104 1.183.143 1.757.252.9.197 1.785.458 2.65.78a33.638 33.638 0 015.823 2.7 31.671 31.671 0 014.885 3.224c.58.5 1.148 1.006 1.72 1.513.246.193.503.37.77.532.193.133.426.417.568.376.322-.093.75-.28.861-.544.248-.413.554-.788.91-1.113.268-.342.51-.705.793-1.034.633-.735 1.29-1.45 1.922-2.185.121-.14.147-.369.276-.5.156-.155.137-.22-.009-.363a41.772 41.772 0 00-5.058-4.28c-.65-.465-1.433-.74-2.118-1.163-.993-.613-1.954-1.277-2.927-1.922-1.454-.963-2.9-1.932-4.425-2.785-.739-.413-1.483-.816-2.228-1.219a7.04 7.04 0 00-2.542-.8 22.317 22.317 0 00-2.64-.13m3.638-18.126c-.626-.188-1.324-.063-2-.264-1.771-.524-3.291-.967-4.594-2.636-.575-.736-1.324-1.393-1.238-2.463-.345-.224-.185-.587-.261-.887a3.603 3.603 0 00-.444-1.052c-.251-.386-.685-.128-1.034-.174-.284-.039-.605.068-.862-.024-.628-.227-1.3-.272-1.662-1.094a2.166 2.166 0 01.986-2.845 1.863 1.863 0 012.34.657c.101.126.225.232.364.314a.4.4 0 00.564-.36.8.8 0 01.58-.9 6.246 6.246 0 001.236-.91 12.081 12.081 0 002.882-2.88c.078-.096.165-.185.26-.265.267-.268.367.078.42.174.072.185.102.383.087.58.01.372-.126.825.04 1.094.152.244.022.75.575.761a.691.691 0 00.775-.526c.158-.353.36-.685.6-.989a33.11 33.11 0 011.327-1.68c.044-.052.267.045.406.074-.144.611.39.994.536 1.521.116.5.189 1.008.217 1.52a.77.77 0 00.9.812c.577-.007.263-.612.583-.765-.03-1.08.782-1.95.762-3.042-.006-.329.439-.448.8-.216.56.357 1.1.753 1.64 1.136a.493.493 0 01.173.175c.4.888 1.234 1.39 1.849 2.086a4.751 4.751 0 011.22 2.843c.03.367-.034.74.353.975.23.14-.022.233-.04.35a22.116 22.116 0 01-1.037 3.667 8.46 8.46 0 01-3.944 4.526c-.278.127-.565.234-.846.352a4.629 4.629 0 01-2.437.573c-.7.01-1.398-.066-2.08-.224m-1.78-4.037c.383.745.758 1.494 1.147 2.235.27.516.683.732 1.149.466a6.927 6.927 0 002.935-2.673c.3-.574.12-.874-.513-1-.378-.073-.75-.195-1.131-.238-.365-.04-.743.03-1.107-.017-.54-.07-1.073-.2-1.608-.307-1.335.071-1.485.328-.871 1.53m5.547-5.75c.716-.6 1.255-.528 1.526.317.09.28.132.552.379.7.149.07.318.08.475.031.423-.122.36-.5.193-1.185-.255-1.04-1.13-1.183-1.88-1.492a1.211 1.211 0 00-.862.216c-.48.275-.988.551-1.014 1.228-.013.34.024.577.507.594.235-.12.46-.258.675-.413m-4.9-1.8a2.42 2.42 0 00-3.1 1.123c-.146.3.027.683.442.941.3.186.443-.076.587-.245.119-.14.152-.355.27-.5.525-.64 1.019-.594 1.553.123.07.095.13.224.227.268.17.09.357.14.549.147.324-.007.188-.286.214-.462a2.922 2.922 0 000-.34c.146-.545-.193-.838-.741-1.059m1.867 4.575c.39-.479.713-.129.829.161.109.272.145.466.44.308a.577.577 0 00.328-.708 1.67 1.67 0 00-1.247-.954c-.43-.123-.8.223-1.112.507a.59.59 0 00-.092.544c.054.12.317.145.408.18.215-.014.395.025.446-.038zm4.099-6.8c.52.128 1.058.177 1.593.143.209-.036.439-.032.37-.32a1.17 1.17 0 00-.3-.606c-.35-.295-.886.15-1.252-.256-.024-.027-.235.1-.35.173-.133.084-.256.187-.434.32.106.192.23.375.37.546m-9.048 14.127c-.344 1.022-.63 1.815-.876 2.62a9.286 9.286 0 01-1.27 2.46 16.895 16.895 0 01-2.493 2.924c-.387.343-.791.665-1.211.966a.745.745 0 01-.32.121c-.2.032-.517-.03-.575.071a2.28 2.28 0 00-.33.97 32.688 32.688 0 00-.27 4.363.757.757 0 00.656.828c1.088.241 2.158.562 3.2.96.08.018.162.022.244.01 1.614.17 3.236.257 4.859.26a3.544 3.544 0 011.768.211c.488.214 1.105-.15 1.639.252.184.14.565 0 .85.028.41.047.394-.176.47-.492.289-.91.649-1.797 1.078-2.65.2-.47.053-.916.266-1.38.49-1.074.787-2.235 1.177-3.356a6.025 6.025 0 00.443-2.05c-.015-1.655 0-3.308 0-4.962a2.331 2.331 0 010-.248 1.423 1.423 0 00-.457-1.248c-.413.285-1.058.162-1.325.677-.474.653-1 1.266-1.574 1.832-.813 1.1-1.95.984-3.081.963a.324.324 0 01-.213-.077c-.518-.568-1.067-1.113-1.53-1.724a6.58 6.58 0 01-1.116-2.328" fill="#fff"/><path d="M27.438 8.136c.66-.77 1.4-1.221 1.492-2.193.045-.482.884-.585 1.3-.2a3.1 3.1 0 01.906 1.483c.01.038-.013.09 0 .122.19.376.387.749.582 1.122.135-.374.283-.744.4-1.124.19-.348.28-.742.257-1.138-.1-.461.348-.608.578-.867.05-.056.288.005.408.07.53.23 1.03.525 1.488.879.68.638 1.667.926 2.074 1.9a2.9 2.9 0 00.857.883 5.323 5.323 0 012.046 3.6c.018.113.168.2.257.3.077-.072.2-.13.223-.217.214-.577.376-1.172.483-1.778.054-.742.06-1.487.017-2.23a13.307 13.307 0 00-1.218-3.092 9.021 9.021 0 00-3.437-3.06 13.773 13.773 0 00-2.9-1.084 14.245 14.245 0 00-4.644-.442c-.628.009-1.252.187-1.882.227-.66-.035-1.32-.023-1.978.038a6 6 0 00-2 .824 5.421 5.421 0 00-2.12 2.059c-.29.429-.62.828-.988 1.19a5.288 5.288 0 00-.923 2.859c-.08.71.27 1.467-.228 2.14-.027.037.118.285.219.316.224.07.56-.028.695.1.723.705 1.3.077 1.8-.246a13.682 13.682 0 001.926-1.646c.867-.827 1.7-1.691 2.549-2.537.2-.2.362-.41.713-.387.522.03.708.169.78.69.06.42.157.836.272 1.436m-6.427 14.99c-2.1.179-4.055-.425-6.053-.221a7.171 7.171 0 00-1.647.206 8.676 8.676 0 00-5.128 4.272 16.1 16.1 0 00-1.7 3.888 10 10 0 00-.442 2.179 1.05 1.05 0 00.462.931 5.012 5.012 0 003.6 1.189c.38-.04.62-.166.667-.55a13.568 13.568 0 011.767-4.477c.325-.506.77-.924 1.294-1.218a6.808 6.808 0 014.447-.954c.194.003.38.081.518.218.28.39.506.173.615-.072.464-.927.816-1.906 1.048-2.917.089-.492.25-.971.364-1.46.069-.3.108-.6.18-1.016m-2.862 31.065a5.935 5.935 0 002.337-.654 349.727 349.727 0 003.238-1.756c.079-.045.114-.17.17-.257-.072-.026-.144-.053-.217-.076a22.21 22.21 0 01-2.635-.816 10.467 10.467 0 01-4.545-4.09c-.082-.129-.134-.28-.226-.4a.3.3 0 00-.508-.043 3.345 3.345 0 01-2.484.907 3.913 3.913 0 01-2.066-.72 7.34 7.34 0 00-.779-.514.923.923 0 00-1.139.4 5.444 5.444 0 00-.723.941 19.93 19.93 0 00-.755 2.29 1.828 1.828 0 001.181 2.037c1.284.492 2.546 1.068 3.853 1.46 1.248.531 2.567.878 3.915 1.031.367.35.828.226 1.384.262m25.74-21.616a3.612 3.612 0 003.09-1.276 16.85 16.85 0 002.272-3.155c.67-.992 1.26-2.036 1.913-3.04.208-.32 0-.489-.187-.592a14.04 14.04 0 00-2.506-1.116 3.392 3.392 0 00-.535-.2 2.221 2.221 0 00-.96-.022c-.2.067-.31.4-.444.622a6.859 6.859 0 01-1.6 2.3 2.467 2.467 0 01-1.779.756 13.1 13.1 0 01-3.6-.87c-.379-.178-.787-.293-1.178-.443-.314-.12-.623-.254-.934-.382a.977.977 0 00.134 1.11c.1.114.032.4.013.6a18.916 18.916 0 01-.13 3.528c-.045.16.366.551.64.67.7.3 1.457.466 2.15.777.693.311 1.477.386 2.188.7.478.095.969.105 1.45.03m7.501 21.851c-.413.02-.827.017-1.24-.007a3.36 3.36 0 00-3.122 1.676 26.713 26.713 0 01-2.228 2.925c-.26.296-.496.611-.707.944-.366.5-.387.534.03.855a3.684 3.684 0 002.02.83 4.967 4.967 0 003.733-1.5c.236-.2.528-.337.77-.533a9.045 9.045 0 002.856-3.26 6.13 6.13 0 00.573-1.131c.04-.18.262-.33.05-.511a.963.963 0 00-.5-.271c-.744-.03-1.489-.013-2.234-.013m-2.87-38.608c.465.429 1.116.452 1.648.824a1.612 1.612 0 01.816 1.409c.136.77.044 1.564-.266 2.282.681-.041.714-.669.976-1.03.141-.194.143-.413.463-.381a.559.559 0 01.567.515c.005.237-.025.472-.089.7-.022.109-.138.206-.138.31.016.154.05.305.1.451.142-.049.328-.057.414-.154.17-.211.32-.44.445-.68.075-.131.081-.341.186-.409.19-.133.413-.208.644-.215.3.017.181.311.183.49a2.258 2.258 0 01-2.29 2.219.8.8 0 01-.435-.136 3.73 3.73 0 01-.446-.532c-.166.28-.439.152-.67.174a.771.771 0 01-.772-.252.75.75 0 00-.512-.232c-.69-.019-.916-.415-1.108-1.025-.13-.415-.152-.927-.592-1.25-.247-.182-.192-.491.03-.748.245-.284.407-.211.704-.019.348.171.727.268 1.113.285.117.016.294-.127.378-.243.043-.06-.02-.256-.095-.336a2.933 2.933 0 00-3.277-.727c-.979.3-1.154.622-1.217 1.558a2.614 2.614 0 00.96 2.341 3.58 3.58 0 001.706 1c1.265.318 2.47.835 3.572 1.532.2.114.53.37.576.325.2-.191.451-.15.657-.24a3.174 3.174 0 002.218-3.056c.006-.248-.019-.5 0-.743a2.752 2.752 0 00-1.654-2.856 19.03 19.03 0 00-2.5-1.14c-.526-.174-1.135.113-1.6-.354-.058-.059-.453.217-.695.339M8.552 45.052c-.83-.268-1.664-.546-2.506-.8a.513.513 0 00-.44.1c-.394.397-.759.82-1.092 1.27-.877 1.411-1.4 2.978-2.177 4.426a3.584 3.584 0 00-.5 1.656c-.026.19-.087.373-.179.541-.089.209-.1.318.164.448a3.399 3.399 0 003.325-.463c.188-.16.334-.372.531-.519a2.215 2.215 0 00.906-2.115 6.152 6.152 0 011.106-3.367c.262-.41.55-.805.86-1.181" fill="#fff"/><path d="M15.938 37.132c.049-1.166.16-2.329.332-3.483.25-1.277.7-2.516 1.061-3.771.041-.143.088-.283.133-.424-.192-.034-.494-.162-.56-.087-.393.452-1.02.06-1.44.467a2.941 2.941 0 01-1.173.732c-.495.14-.44.629-.742.859.136.922-.651 1.779-.082 2.782.263.462.013 1.158.274 1.74.131.45.223.911.274 1.377.204.57.58 1.061 1.079 1.405a.982.982 0 00.73.274c.359-.1.14-.49.162-.751.034-.368.01-.743.01-1.115l-.06-.006m-11.854.372c-.01 1.054.278 1.4 1.061 1.531.891.081 1.773.242 2.635.481.147.053.376-.06.546-.14a2.163 2.163 0 001.47-2.08c0-.208.482-.548-.219-.507a5.386 5.386 0 01-3.918-1.53c-.29-.254-.51-.27-.683.04a6.169 6.169 0 00-.892 2.205zm32.266-9.781c0-.743.008-1.487 0-2.23a1.073 1.073 0 00-1.238-1.1c-.089.01-.235.12-.238.189a3.79 3.79 0 00.018 1.474c.216.86.288 1.75.213 2.634.032.493-.006.99.008 1.486a11.618 11.618 0 01-1.243 5.185c-.048.105-.187.186-.2.287.01.14.044.278.1.407.111-.034.27-.033.322-.107.33-.43.622-.89.87-1.372a20.22 20.22 0 00.888-2.355 8.953 8.953 0 00.51-3.012c-.021-.494 0-.991 0-1.485m-5.645-2.835c-1.09.062-1.993-.416-2.967-.253a1.91 1.91 0 00-1.376-.23c-.07 0-.218.292-.18.344.294.42.658.792.937 1.22.755 1.161 2.249.748 3.022-.395.134-.2.3-.372.564-.687M20.71 28.696c.021.033.043.093.062.093.06 0 .141-.009.172-.049a11.106 11.106 0 002-3.619c.137-.438.323-.861.43-1.3.024-.224.002-.45-.064-.665-.013-.067-.132-.178-.164-.167a7.91 7.91 0 00-1 .422.462.462 0 00-.189.363 8.55 8.55 0 01-.615 3.088 4.576 4.576 0 01-.634 1.718c-.02.025 0 .081 0 .121M41.6 16.16c-.05-.23-.028-.527-.166-.675a3.843 3.843 0 00-.946-.7c-.063-.035-.408.213-.4.3a5.246 5.246 0 01-.267 1.636c-.022.118.03.287-.033.354-.258.272-.4.6-.08.835.285.206.616-.067.87-.235.538-.357 1.12-.71 1.02-1.522m-19.682 6.001c-1.074-.848-2.27-.282-3.4-.456.463.443 1.068.068 1.623.4.443.267 1.174.054 1.778.054m7.573-3.979c.364.047.742-.024 1.107.017s.752.165 1.13.238c.634.122.814.422.513 1a6.928 6.928 0 01-2.935 2.673c-.466.266-.878.05-1.149-.466-.39-.742-.765-1.49-1.146-2.235-.614-1.2-.463-1.459.872-1.529.535.106 1.068.237 1.608.307m.074 1.015c-.49-.036-.98-.04-1.47-.014.311.451.56.81.804 1.168.26.382.475.436.783.154.331-.3.638-.632.963-.957a6.2 6.2 0 00-1.08-.35zm2.321-5.133c.235-.12.461-.258.675-.413.716-.6 1.255-.527 1.527.318.089.28.131.552.378.7a.66.66 0 00.475.03c.423-.121.361-.5.193-1.185-.255-1.04-1.129-1.183-1.88-1.492a1.214 1.214 0 00-.862.216c-.479.275-.988.55-1.014 1.229-.013.34.024.576.507.593m-3.48-1.152c.146-.545-.192-.838-.741-1.06a2.42 2.42 0 00-3.1 1.124c-.146.3.027.683.442.94.3.187.443-.075.587-.244.119-.141.152-.355.27-.5.526-.64 1.019-.594 1.553.123.07.095.13.223.227.268.17.09.357.14.549.147.324-.007.188-.286.214-.462a2.836 2.836 0 000-.34m.678 3.56c.215-.015.393.024.445-.039.391-.479.713-.129.829.161.109.272.145.467.441.308a.576.576 0 00.327-.707 1.67 1.67 0 00-1.246-.955c-.429-.122-.8.223-1.112.508a.587.587 0 00-.093.543c.055.12.317.145.409.181m4.176-7.386c.106.193.23.376.37.547.52.128 1.058.176 1.593.143.209-.036.439-.032.37-.32a1.173 1.173 0 00-.3-.606c-.348-.295-.885.15-1.251-.256-.024-.027-.235.1-.348.173-.134.084-.256.187-.434.319z" fill="#fff"/><path d="M30.645 19.541a6.2 6.2 0 00-1.08-.35c-.49-.036-.981-.04-1.471-.014.312.45.56.808.806 1.169.259.381.475.436.783.154.33-.3.638-.633.963-.957" fill="#fff"/><path fill-rule="evenodd" clip-rule="evenodd" d="M39.521 24.637a7.217 7.217 0 003.162.752c.651.6 1.1.027 1.524-.318a5.785 5.785 0 001.162-1.618c.587-.959.656-.99-.144-1.707a3.79 3.79 0 01-1.18-3.485 2.738 2.738 0 012.477-2.3c.343-.01.4-.18.576-.413.233-.382.579-.682.99-.86a4.766 4.766 0 012.445-.077 16.72 16.72 0 013.476 1.5 2.984 2.984 0 011.481 1.477 5.346 5.346 0 01.507 3.829 4.088 4.088 0 01-2.884 3.227c-.214.076-.5.173-.588.345-.707 1.418-1.655 2.693-2.386 4.1a11.31 11.31 0 01-3.33 4.044 4.35 4.35 0 01-2.582.945 16.306 16.306 0 01-2.4-.474 15.62 15.62 0 01-4.256-1.423c-.289-.136-.392-.149-.488.206a18.903 18.903 0 01-.755 1.92 10.357 10.357 0 01-1.246 2.327 2.876 2.876 0 01-1.339.873c-.293.1-.292.279-.424.446-.493.618-.56 1.429-1.03 2.063a1.538 1.538 0 00.538 2.5c.1.058.216.083.312.142 1.288.787 2.6 1.544 3.853 2.376 1.651 1.093 3.29 2.212 5.022 3.165a18.032 18.032 0 012.7 1.843c1.165.951 2.24 2.016 3.324 3.062a1.157 1.157 0 00.86.346 11.873 11.873 0 001.512-.233 25.94 25.94 0 013.1-.016c.35.007.694.093 1.006.252a1.157 1.157 0 01.721 1.019 4.41 4.41 0 01-.512 2.279 8.5 8.5 0 01-2.269 3.019c-.723.553-1.479 1.057-2.16 1.67-.47.413-.989.767-1.545 1.054-1.127.6-2.368.328-3.566.369-.058 0-.113-.133-.182-.149-1.075-.242-1.716-1.374-2.89-1.412-.03 0-.058-.056-.089-.084-.726-.644-1.5-1.243-2.168-1.94a29.793 29.793 0 00-3.686-2.826 26.282 26.282 0 00-2.986-1.755 45.034 45.034 0 00-7.09-2.943.516.516 0 00-.415.084 26.808 26.808 0 01-3.1 2.1 9.348 9.348 0 01-4.47 1.509 16.325 16.325 0 01-4.348-.919c-.85-.206-1.67-.555-2.5-.843a33.35 33.35 0 00-3.327-1.262c-.247-.057-.5-.482-.658-.437-.28.079-.5.392-.733.613-.15.14-.3.289-.439.438a4.089 4.089 0 01-1.595.947 8.575 8.575 0 01-2.77.167 1.47 1.47 0 01-1-.508 1.622 1.622 0 01-.38-1.2c.095-.611.242-1.213.438-1.8a24.221 24.221 0 012.01-4.505 8.027 8.027 0 011.864-2.573.91.91 0 01.5-.283 6.31 6.31 0 012.626.235 4.824 4.824 0 002.41.788c.16-.017.346.149.508.251.462.286.9.619 1.38.867a2.423 2.423 0 002.37.088 1.708 1.708 0 001.065-1.7 6.916 6.916 0 01.211-2.882c.1-.247.146-.651-.386-.689-.206-.015-.4-.223-.6-.333a3.426 3.426 0 01-1.759-2.108c-.3-.978-.582-1.963-.8-2.989a13.82 13.82 0 01-.67 1.519c-.142.24-.569.339-.652.578-.083.239.224.606.147.852a8.448 8.448 0 01-.725 1.558c-.479.863-2.04 1.741-2.786 1.432-.446-.184-.936-.034-1.256-.243-.44-.287-.858-.154-1.283-.217a3.232 3.232 0 01-2.056-1.315c-.064-.08-.049-.227-.059-.345a5.844 5.844 0 011.607-4.547c.154-.17.366-.393.358-.585a9.21 9.21 0 01.79-3.4 15.235 15.235 0 012.983-5.334 11.741 11.741 0 012.932-2.2 3.873 3.873 0 011.845-.623c.992-.17 1.995-.263 3-.277.157.023.361-.129.51-.245a5.908 5.908 0 012.2-.965c.44-.072.886-.1 1.331-.082.22-.547-.432-.778-.452-1.259a6.743 6.743 0 00-.235-1.138.815.815 0 00-.945-.759 3.683 3.683 0 01-1.918-.473 2.738 2.738 0 01-1.34-1.3 3.366 3.366 0 011.607-4.405c.287-.133.366-.2.363-.473-.045-.826-.04-1.654.015-2.479a6.6 6.6 0 011.061-3.284c.333-.459.7-.868 1.071-1.288.371-.42.693-.874 1.06-1.295a6.785 6.785 0 012.8-1.631A4.557 4.557 0 0126.25.1a5.731 5.731 0 001.79.011 12.146 12.146 0 014.72.242c.563.2 1.135.152 1.7.386a16.02 16.02 0 013.763 2.021 8.38 8.38 0 013.325 4.574c.313.847.483 1.74.5 2.644a9.164 9.164 0 01-.235 1.262 15.187 15.187 0 01-.28 1.623c-.268.923-.3.914.356 1.552a1.5 1.5 0 00.177.174 2.428 2.428 0 01.007 3.5 4.122 4.122 0 01-2.414 1.076.909.909 0 00-.844.508 11.176 11.176 0 01-2.357 3c-.217.184-.424.379-.689.617 1.31.47 2.533.911 3.757 1.349m-18.23 16.605a26.664 26.664 0 01-3.015-.8c-.107-.03-.193-.138-.3-.168a1.463 1.463 0 00-.716-.13c-.32.1-.2.484-.3.726a7.217 7.217 0 00-.238 2.261 4.77 4.77 0 001.228 3.224 9.58 9.58 0 001.515 1.72 5.465 5.465 0 003.042 1.66c.543.059 1.07.384 1.654.488.585.104 1.183.143 1.757.252.9.197 1.786.458 2.65.78a33.587 33.587 0 015.823 2.7 31.609 31.609 0 014.885 3.225c.581.5 1.15 1.006 1.72 1.513.246.193.503.37.77.532.193.133.426.417.568.377.322-.093.75-.28.861-.544a4.98 4.98 0 01.91-1.113c.268-.342.51-.705.793-1.034.633-.735 1.288-1.45 1.922-2.185.121-.141.148-.369.276-.5.155-.156.137-.22-.009-.364a41.806 41.806 0 00-5.058-4.281c-.65-.463-1.433-.74-2.118-1.162-.993-.612-1.953-1.277-2.927-1.922-1.454-.963-2.9-1.932-4.425-2.785-.739-.412-1.483-.815-2.227-1.219a7.044 7.044 0 00-2.543-.8 22.532 22.532 0 00-2.64-.13c-1.288-.1-2.588-.129-3.86-.325m12.011-18.158c.282-.118.568-.225.846-.352a8.459 8.459 0 003.945-4.526c.45-1.19.798-2.417 1.037-3.666.02-.117.27-.211.04-.35-.386-.235-.323-.608-.352-.975a4.749 4.749 0 00-1.22-2.843c-.615-.7-1.45-1.2-1.85-2.087a.483.483 0 00-.173-.174c-.543-.383-1.079-.779-1.639-1.136-.364-.232-.809-.114-.8.216.02 1.092-.792 1.96-.762 3.042-.32.153-.006.758-.582.765a.771.771 0 01-.9-.813 8.738 8.738 0 00-.217-1.52c-.144-.526-.679-.909-.535-1.521-.139-.028-.362-.126-.406-.073a31.67 31.67 0 00-1.328 1.68 4.73 4.73 0 00-.6.989.691.691 0 01-.775.518c-.553-.013-.422-.518-.574-.762-.168-.269-.03-.721-.04-1.093a1.327 1.327 0 00-.087-.58c-.054-.1-.155-.442-.42-.174-.096.08-.183.169-.262.265a12.092 12.092 0 01-2.88 2.879 6.23 6.23 0 01-1.237.91.8.8 0 00-.58.9.4.4 0 01-.565.36 1.36 1.36 0 01-.364-.315 1.865 1.865 0 00-2.34-.657 2.167 2.167 0 00-.986 2.845c.36.822 1.034.868 1.662 1.094.256.092.577-.015.862.024.35.046.783-.212 1.033.174.203.325.353.68.444 1.052.076.3-.084.663.261.887-.086 1.07.662 1.727 1.238 2.463 1.3 1.669 2.823 2.112 4.594 2.636.678.2 1.377.076 2 .263.682.158 1.38.233 2.08.224a4.64 4.64 0 002.436-.573m-9.614 3.267a9.276 9.276 0 01-1.27 2.459 16.892 16.892 0 01-2.492 2.925c-.386.343-.79.665-1.21.966a.733.733 0 01-.32.121c-.2.032-.518-.03-.576.071a2.28 2.28 0 00-.329.97 32.69 32.69 0 00-.272 4.363.758.758 0 00.656.829c1.09.24 2.159.56 3.2.958.08.019.163.023.244.011 1.615.17 3.236.256 4.86.26a3.54 3.54 0 011.767.212c.488.214 1.1-.15 1.64.252.183.139.564 0 .85.028.41.047.393-.176.47-.492a18.24 18.24 0 011.077-2.651c.2-.47.053-.915.266-1.379.491-1.073.787-2.235 1.177-3.356a6.025 6.025 0 00.443-2.05c-.015-1.654 0-3.308 0-4.961a2.331 2.331 0 010-.248 1.421 1.421 0 00-.458-1.249c-.413.285-1.058.162-1.325.677-.473.653-1 1.265-1.573 1.832-.813 1.1-1.95.983-3.08.963a.328.328 0 01-.214-.077c-.518-.568-1.067-1.114-1.53-1.724a6.57 6.57 0 01-1.116-2.328c-.344 1.022-.63 1.815-.876 2.62m5.236-20.41c.046-.482.885-.585 1.3-.2.437.398.752.913.906 1.483.011.038-.013.09 0 .122.191.376.387.749.582 1.122.135-.374.283-.744.4-1.124a2.11 2.11 0 00.257-1.138c-.1-.461.348-.608.58-.867.05-.056.287.005.407.07.531.23 1.031.525 1.488.879.68.638 1.667.926 2.074 1.9a2.9 2.9 0 00.857.883 5.32 5.32 0 012.046 3.6c.018.113.168.2.257.3.077-.071.2-.129.223-.217a10.14 10.14 0 00.483-1.778c.055-.742.06-1.487.017-2.23a13.303 13.303 0 00-1.23-3.088 9.021 9.021 0 00-3.44-3.058 13.774 13.774 0 00-2.9-1.084 14.247 14.247 0 00-4.645-.442c-.628.009-1.252.187-1.882.227a13.68 13.68 0 00-1.977.038 6 6 0 00-2 .824 5.422 5.422 0 00-2.12 2.059c-.288.429-.62.828-.988 1.191a5.288 5.288 0 00-.923 2.858c-.08.711.271 1.467-.228 2.14-.027.037.118.285.22.316.223.07.56-.028.694.1.723.705 1.3.077 1.8-.246a13.716 13.716 0 001.926-1.646c.867-.827 1.7-1.691 2.55-2.538.2-.2.36-.408.712-.387.522.031.708.169.781.691.06.42.156.835.271 1.435.661-.769 1.4-1.221 1.491-2.193M14.96 22.9a7.166 7.166 0 00-1.647.206 8.673 8.673 0 00-5.128 4.272 16.08 16.08 0 00-1.7 3.888 9.99 9.99 0 00-.442 2.179 1.052 1.052 0 00.462.931 5.016 5.016 0 003.6 1.189c.38-.041.621-.167.667-.551a13.584 13.584 0 011.768-4.477 3.67 3.67 0 011.294-1.217 6.807 6.807 0 014.447-.954.75.75 0 01.518.218c.281.389.506.173.615-.072.466-.925.82-1.903 1.054-2.912.09-.493.252-.971.365-1.46.068-.3.108-.6.18-1.016-2.1.179-4.055-.425-6.053-.221m5.521 30.63a349.727 349.727 0 003.238-1.756c.08-.045.114-.171.17-.257-.072-.026-.144-.053-.217-.076a22.191 22.191 0 01-2.635-.816 10.466 10.466 0 01-4.545-4.09c-.082-.129-.134-.28-.226-.4a.3.3 0 00-.508-.043 3.346 3.346 0 01-2.484.907 3.913 3.913 0 01-2.066-.721 7.376 7.376 0 00-.779-.513.923.923 0 00-1.139.4 5.445 5.445 0 00-.723.941c-.297.747-.55 1.511-.755 2.289a1.828 1.828 0 001.181 2.038c1.284.492 2.546 1.068 3.853 1.46 1.249.531 2.567.878 3.915 1.031.367.35.828.226 1.384.262a5.935 5.935 0 002.337-.654M46.973 31.3c.877-.96 1.64-2.02 2.272-3.156.671-.991 1.261-2.036 1.913-3.04.21-.32 0-.489-.187-.592a14.07 14.07 0 00-2.507-1.116 3.415 3.415 0 00-.535-.2 2.22 2.22 0 00-.96-.021c-.2.067-.31.4-.444.622a6.87 6.87 0 01-1.6 2.3 2.468 2.468 0 01-1.779.756 13.107 13.107 0 01-3.6-.87c-.379-.177-.787-.293-1.178-.443-.313-.12-.622-.254-.934-.382a.978.978 0 00.135 1.109c.1.115.032.4.013.6.068 1.178.024 2.36-.13 3.529-.046.159.366.551.64.67.7.3 1.457.466 2.15.777.693.311 1.477.386 2.188.7.478.095.969.105 1.45.03a3.614 3.614 0 003.09-1.276m3.172 23.117a3.358 3.358 0 00-3.122 1.676 26.897 26.897 0 01-2.228 2.925 7.57 7.57 0 00-.708.944c-.365.5-.387.534.03.855a3.684 3.684 0 002.02.829 4.964 4.964 0 003.732-1.5c.237-.2.528-.336.77-.532a9.047 9.047 0 002.856-3.259 6.23 6.23 0 00.573-1.132c.04-.179.262-.329.05-.511a.954.954 0 00-.5-.271c-.744-.03-1.489-.013-2.234-.013-.412.02-.826.017-1.239-.007m.015-37.774a1.613 1.613 0 01.816 1.409c.136.77.043 1.564-.267 2.282.681-.041.714-.669.976-1.03.141-.193.143-.413.463-.381a.559.559 0 01.567.515 2.37 2.37 0 01-.089.7c-.022.109-.138.206-.138.31.016.153.05.304.1.45.141-.048.327-.057.414-.154.17-.211.32-.44.445-.68.075-.131.081-.341.186-.409.19-.133.413-.208.644-.215.3.017.181.311.183.49a2.258 2.258 0 01-2.29 2.219.8.8 0 01-.435-.136 3.73 3.73 0 01-.446-.532c-.166.28-.439.152-.67.174a.77.77 0 01-.772-.252.75.75 0 00-.512-.232c-.69-.019-.916-.415-1.108-1.025-.13-.415-.152-.927-.592-1.25-.247-.182-.192-.491.03-.747.245-.284.407-.211.704-.019.348.171.727.268 1.113.285.117.016.294-.127.378-.243.043-.06-.02-.256-.095-.336a2.933 2.933 0 00-3.277-.727c-.979.3-1.154.622-1.217 1.558a2.617 2.617 0 00.96 2.342 3.588 3.588 0 001.706 1c1.265.317 2.47.834 3.572 1.532.2.114.53.37.576.324.2-.191.451-.15.657-.24a3.174 3.174 0 002.218-3.056c.006-.248-.019-.5 0-.743a2.75 2.75 0 00-1.654-2.856 19.03 19.03 0 00-2.5-1.14c-.526-.174-1.135.113-1.6-.354-.058-.059-.453.217-.695.339.465.429 1.116.452 1.648.824M6.046 44.256a.513.513 0 00-.44.1c-.395.397-.76.821-1.093 1.27-.877 1.411-1.4 2.978-2.178 4.427a3.58 3.58 0 00-.5 1.656c-.026.19-.087.373-.179.541-.089.209-.1.319.164.449a3.4 3.4 0 003.325-.464c.188-.16.334-.371.53-.519a2.214 2.214 0 00.913-2.116 6.151 6.151 0 011.106-3.367 12 12 0 01.86-1.182c-.832-.267-1.665-.546-2.507-.8m10.223-10.6c.251-1.277.7-2.516 1.062-3.771.042-.143.088-.283.132-.424-.192-.034-.494-.162-.56-.087-.393.452-1.02.059-1.439.467a2.93 2.93 0 01-1.173.732c-.495.141-.44.629-.743.859.137.922-.65 1.779-.08 2.782.262.461.012 1.158.273 1.741.13.45.222.91.273 1.376a2.88 2.88 0 001.078 1.405.977.977 0 00.73.274c.36-.1.14-.49.163-.751.033-.368.01-.743.01-1.115l-.06-.006c.05-1.166.16-2.329.332-3.483M5.143 39.033c.891.081 1.773.242 2.635.481.147.053.376-.061.546-.141a2.163 2.163 0 001.47-2.08c0-.207.481-.547-.219-.506a5.38 5.38 0 01-3.918-1.53c-.29-.254-.51-.27-.683.039a6.17 6.17 0 00-.886 2.204c-.01 1.054.278 1.4 1.06 1.531m31.2-13.541a1.074 1.074 0 00-1.238-1.1c-.089.01-.235.12-.238.189-.09.488-.084.989.018 1.474.217.86.289 1.75.213 2.634.033.493-.006.99.008 1.486a11.618 11.618 0 01-1.246 5.181c-.048.105-.187.186-.2.287.01.14.044.278.1.407.11-.034.27-.033.322-.107.33-.43.622-.89.87-1.372.346-.766.642-1.552.888-2.355a8.943 8.943 0 00.51-3.012c-.02-.495 0-.991 0-1.485 0-.743.008-1.487 0-2.23m-8.6-.856a1.912 1.912 0 00-1.376-.231c-.07 0-.218.293-.18.345.294.42.658.792.937 1.22.755 1.161 2.25.748 3.022-.395.134-.2.3-.372.563-.687-1.09.062-1.993-.416-2.967-.253m-6.969 4.153c.06 0 .14-.01.171-.049a11.109 11.109 0 002-3.62c.137-.437.323-.86.43-1.3.024-.224.002-.45-.064-.665-.013-.067-.132-.178-.164-.167a7.87 7.87 0 00-1 .422.462.462 0 00-.189.362 8.553 8.553 0 01-.615 3.088 4.59 4.59 0 01-.633 1.718c-.02.024 0 .081 0 .121.02.033.042.093.062.093m20.662-13.307a3.835 3.835 0 00-.946-.7c-.063-.035-.407.213-.4.3a5.27 5.27 0 01-.267 1.636c-.022.118.031.287-.033.355-.258.272-.406.6-.08.835.284.205.615-.068.87-.235.537-.357 1.12-.709 1.02-1.522-.05-.23-.03-.528-.168-.676M18.515 21.7c.463.443 1.068.068 1.623.4.443.267 1.174.054 1.778.054-1.074-.849-2.27-.282-3.4-.456" fill="#1A1311"/><path fill-rule="evenodd" clip-rule="evenodd" d="M25.155 41.568c-1.287-.1-2.587-.129-3.859-.325a26.755 26.755 0 01-3.014-.8c-.107-.03-.194-.138-.3-.168a1.472 1.472 0 00-.716-.13c-.32.1-.2.484-.3.726a7.214 7.214 0 00-.237 2.261 4.773 4.773 0 001.227 3.224 9.58 9.58 0 001.515 1.72 5.463 5.463 0 003.042 1.66c.543.06 1.068.384 1.654.488.586.104 1.183.143 1.757.252.9.197 1.785.458 2.65.78a33.638 33.638 0 015.823 2.7 31.671 31.671 0 014.885 3.224c.58.5 1.148 1.006 1.72 1.513.246.193.503.37.77.532.193.133.426.417.568.376.322-.093.75-.28.861-.544.248-.413.554-.788.91-1.113.268-.342.51-.705.793-1.034.633-.735 1.29-1.45 1.922-2.185.121-.14.147-.369.276-.5.156-.155.137-.22-.009-.363a41.772 41.772 0 00-5.058-4.28c-.65-.465-1.433-.74-2.118-1.163-.993-.613-1.954-1.277-2.927-1.922-1.454-.963-2.9-1.932-4.425-2.785-.739-.413-1.483-.816-2.228-1.219a7.04 7.04 0 00-2.542-.8 22.317 22.317 0 00-2.64-.13" fill="#1A1311"/><path fill-rule="evenodd" clip-rule="evenodd" d="M28.793 23.437c-.626-.188-1.324-.063-2-.264-1.771-.524-3.291-.967-4.594-2.636-.575-.736-1.324-1.393-1.238-2.463-.345-.224-.185-.587-.261-.887a3.603 3.603 0 00-.444-1.052c-.251-.386-.685-.128-1.034-.174-.284-.039-.605.068-.862-.024-.628-.227-1.3-.272-1.662-1.094a2.166 2.166 0 01.986-2.845 1.863 1.863 0 012.34.657c.101.126.225.232.364.314a.4.4 0 00.564-.36.8.8 0 01.58-.9 6.246 6.246 0 001.236-.91 12.081 12.081 0 002.882-2.88c.078-.096.165-.185.26-.265.267-.268.367.078.42.174.072.185.102.383.087.58.01.372-.126.825.04 1.094.152.244.022.75.575.761a.691.691 0 00.775-.526c.158-.353.36-.685.6-.989a33.11 33.11 0 011.327-1.68c.044-.052.267.045.406.074-.144.611.39.994.536 1.521.116.5.189 1.008.217 1.52a.77.77 0 00.9.812c.577-.007.263-.612.583-.765-.03-1.08.782-1.95.762-3.042-.006-.329.439-.448.8-.216.56.357 1.1.753 1.64 1.136a.493.493 0 01.173.175c.4.888 1.234 1.39 1.849 2.086a4.751 4.751 0 011.22 2.843c.03.367-.034.74.353.975.23.14-.022.233-.04.35a22.116 22.116 0 01-1.037 3.667 8.46 8.46 0 01-3.944 4.526c-.278.127-.565.234-.846.352a4.629 4.629 0 01-2.437.573c-.7.01-1.398-.066-2.08-.224m-1.78-4.037c.383.745.758 1.494 1.147 2.235.27.516.683.732 1.149.466a6.927 6.927 0 002.935-2.673c.3-.574.12-.874-.513-1-.378-.073-.75-.195-1.131-.238-.365-.04-.743.03-1.107-.017-.54-.07-1.073-.2-1.608-.307-1.335.071-1.485.328-.871 1.53m5.547-5.75c.716-.6 1.255-.528 1.526.317.09.28.132.552.379.7.149.07.318.08.475.031.423-.122.36-.5.193-1.185-.255-1.04-1.13-1.183-1.88-1.492a1.211 1.211 0 00-.862.216c-.48.275-.988.551-1.014 1.228-.013.34.024.577.507.594.235-.12.46-.258.675-.413m-4.9-1.8a2.42 2.42 0 00-3.1 1.123c-.146.3.027.683.442.941.3.186.443-.076.587-.245.119-.14.152-.355.27-.5.525-.64 1.019-.594 1.553.123.07.095.13.224.227.268.17.09.357.14.549.147.324-.007.188-.286.214-.462a2.922 2.922 0 000-.34c.146-.545-.193-.838-.741-1.059m1.867 4.575c.39-.479.713-.129.829.161.109.272.145.466.44.308a.577.577 0 00.328-.708 1.67 1.67 0 00-1.247-.954c-.43-.123-.8.223-1.112.507a.59.59 0 00-.092.544c.054.12.317.145.408.18.215-.014.395.025.446-.038zm4.099-6.8c.52.128 1.058.177 1.593.143.209-.036.439-.032.37-.32a1.17 1.17 0 00-.3-.606c-.35-.295-.886.15-1.252-.256-.024-.027-.235.1-.35.173-.133.084-.256.187-.434.32.106.192.23.375.37.546m-9.048 14.127c-.344 1.022-.63 1.815-.876 2.62a9.286 9.286 0 01-1.27 2.46 16.895 16.895 0 01-2.493 2.924c-.387.343-.791.665-1.211.966a.745.745 0 01-.32.121c-.2.032-.517-.03-.575.071a2.28 2.28 0 00-.33.97 32.688 32.688 0 00-.27 4.363.757.757 0 00.656.828c1.088.241 2.158.562 3.2.96.08.018.162.022.244.01 1.614.17 3.236.257 4.859.26a3.544 3.544 0 011.768.211c.488.214 1.105-.15 1.639.252.184.14.565 0 .85.028.41.047.394-.176.47-.492.289-.91.649-1.797 1.078-2.65.2-.47.053-.916.266-1.38.49-1.074.787-2.235 1.177-3.356a6.025 6.025 0 00.443-2.05c-.015-1.655 0-3.308 0-4.962a2.331 2.331 0 010-.248 1.423 1.423 0 00-.457-1.248c-.413.285-1.058.162-1.325.677-.474.653-1 1.266-1.574 1.832-.813 1.1-1.95.984-3.081.963a.324.324 0 01-.213-.077c-.518-.568-1.067-1.113-1.53-1.724a6.58 6.58 0 01-1.116-2.328" fill="#fff"/><path fill-rule="evenodd" clip-rule="evenodd" d="M27.438 8.136c.66-.77 1.4-1.221 1.492-2.193.045-.482.884-.585 1.3-.2a3.1 3.1 0 01.906 1.483c.01.038-.013.09 0 .122.19.376.387.749.582 1.122.135-.374.283-.744.4-1.124.19-.348.28-.742.257-1.138-.1-.461.348-.608.578-.867.05-.056.288.005.408.07.53.23 1.03.525 1.488.879.68.638 1.667.926 2.074 1.9a2.9 2.9 0 00.857.883 5.323 5.323 0 012.046 3.6c.018.113.168.2.257.3.077-.072.2-.13.223-.217.214-.577.376-1.172.483-1.778.054-.742.06-1.487.017-2.23a13.307 13.307 0 00-1.218-3.092 9.021 9.021 0 00-3.437-3.06 13.773 13.773 0 00-2.9-1.084 14.245 14.245 0 00-4.644-.442c-.628.009-1.252.187-1.882.227-.66-.035-1.32-.023-1.978.038a6 6 0 00-2 .824 5.421 5.421 0 00-2.12 2.059c-.29.429-.62.828-.988 1.19a5.288 5.288 0 00-.923 2.859c-.08.71.27 1.467-.228 2.14-.027.037.118.285.219.316.224.07.56-.028.695.1.723.705 1.3.077 1.8-.246a13.682 13.682 0 001.926-1.646c.867-.827 1.7-1.691 2.549-2.537.2-.2.362-.41.713-.387.522.03.708.169.78.69.06.42.157.836.272 1.436" fill="#1A1311"/><path fill-rule="evenodd" clip-rule="evenodd" d="M21.015 23.123c-2.1.179-4.055-.425-6.053-.221a7.171 7.171 0 00-1.647.206 8.676 8.676 0 00-5.128 4.272 16.1 16.1 0 00-1.7 3.888 10 10 0 00-.442 2.179 1.05 1.05 0 00.462.931 5.012 5.012 0 003.6 1.189c.38-.04.62-.166.667-.55a13.568 13.568 0 011.767-4.477c.325-.506.77-.924 1.294-1.218a6.808 6.808 0 014.447-.954c.194.003.38.081.518.218.28.39.506.173.615-.072.464-.927.816-1.906 1.048-2.917.089-.492.25-.971.364-1.46.069-.3.108-.6.18-1.016" fill="#fff"/><path fill-rule="evenodd" clip-rule="evenodd" d="M18.145 54.186a5.935 5.935 0 002.337-.654 349.727 349.727 0 003.238-1.756c.079-.045.114-.17.17-.257-.072-.026-.144-.053-.217-.076a22.21 22.21 0 01-2.635-.816 10.467 10.467 0 01-4.545-4.09c-.082-.129-.134-.28-.226-.4a.3.3 0 00-.508-.043 3.345 3.345 0 01-2.484.907 3.913 3.913 0 01-2.066-.72 7.34 7.34 0 00-.779-.514.923.923 0 00-1.139.4 5.444 5.444 0 00-.723.941 19.93 19.93 0 00-.755 2.29 1.828 1.828 0 001.181 2.037c1.284.492 2.546 1.068 3.853 1.46 1.248.531 2.567.878 3.915 1.031.367.35.828.226 1.384.262" fill="#1A1311"/><path fill-rule="evenodd" clip-rule="evenodd" d="M43.886 32.572a3.612 3.612 0 003.09-1.276 16.85 16.85 0 002.272-3.155c.67-.992 1.26-2.036 1.913-3.04.208-.32 0-.489-.187-.592a14.04 14.04 0 00-2.506-1.116 3.392 3.392 0 00-.535-.2 2.221 2.221 0 00-.96-.022c-.2.067-.31.4-.444.622a6.859 6.859 0 01-1.6 2.3 2.467 2.467 0 01-1.779.756 13.1 13.1 0 01-3.6-.87c-.379-.178-.787-.293-1.178-.443-.314-.12-.623-.254-.934-.382a.977.977 0 00.134 1.11c.1.114.032.4.013.6a18.916 18.916 0 01-.13 3.528c-.045.16.366.551.64.67.7.3 1.457.466 2.15.777.693.311 1.477.386 2.188.7.478.095.969.105 1.45.03m7.501 21.851c-.413.02-.827.017-1.24-.007a3.36 3.36 0 00-3.122 1.676 26.713 26.713 0 01-2.228 2.925c-.26.296-.496.611-.707.944-.366.5-.387.534.03.855a3.684 3.684 0 002.02.83 4.967 4.967 0 003.733-1.5c.236-.2.528-.337.77-.533a9.045 9.045 0 002.856-3.26 6.13 6.13 0 00.573-1.131c.04-.18.262-.33.05-.511a.963.963 0 00-.5-.271c-.744-.03-1.489-.013-2.234-.013m-2.87-38.608c.465.429 1.116.452 1.648.824a1.612 1.612 0 01.816 1.409c.136.77.044 1.564-.266 2.282.681-.041.714-.669.976-1.03.141-.194.143-.413.463-.381a.559.559 0 01.567.515c.005.237-.025.472-.089.7-.022.109-.138.206-.138.31.016.154.05.305.1.451.142-.049.328-.057.414-.154.17-.211.32-.44.445-.68.075-.131.081-.341.186-.409.19-.133.413-.208.644-.215.3.017.181.311.183.49a2.258 2.258 0 01-2.29 2.219.8.8 0 01-.435-.136 3.73 3.73 0 01-.446-.532c-.166.28-.439.152-.67.174a.771.771 0 01-.772-.252.75.75 0 00-.512-.232c-.69-.019-.916-.415-1.108-1.025-.13-.415-.152-.927-.592-1.25-.247-.182-.192-.491.03-.748.245-.284.407-.211.704-.019.348.171.727.268 1.113.285.117.016.294-.127.378-.243.043-.06-.02-.256-.095-.336a2.933 2.933 0 00-3.277-.727c-.979.3-1.154.622-1.217 1.558a2.614 2.614 0 00.96 2.341 3.58 3.58 0 001.706 1c1.265.318 2.47.835 3.572 1.532.2.114.53.37.576.325.2-.191.451-.15.657-.24a3.174 3.174 0 002.218-3.056c.006-.248-.019-.5 0-.743a2.752 2.752 0 00-1.654-2.856 19.03 19.03 0 00-2.5-1.14c-.526-.174-1.135.113-1.6-.354-.058-.059-.453.217-.695.339M8.552 45.052c-.83-.268-1.664-.546-2.506-.8a.513.513 0 00-.44.1c-.394.397-.759.82-1.092 1.27-.877 1.411-1.4 2.978-2.177 4.426a3.584 3.584 0 00-.5 1.656c-.026.19-.087.373-.179.541-.089.209-.1.318.164.448a3.399 3.399 0 003.325-.463c.188-.16.334-.372.531-.519a2.215 2.215 0 00.906-2.115 6.152 6.152 0 011.106-3.367c.262-.41.55-.805.86-1.181" fill="#fff"/><path fill-rule="evenodd" clip-rule="evenodd" d="M15.938 37.132c.049-1.166.16-2.329.332-3.483.25-1.277.7-2.516 1.061-3.771.041-.143.088-.283.133-.424-.192-.034-.494-.162-.56-.087-.393.452-1.02.06-1.44.467a2.941 2.941 0 01-1.173.732c-.495.14-.44.629-.742.859.136.922-.651 1.779-.082 2.782.263.462.013 1.158.274 1.74.131.45.223.911.274 1.377.204.57.58 1.061 1.079 1.405a.982.982 0 00.73.274c.359-.1.14-.49.162-.751.034-.368.01-.743.01-1.115l-.06-.006" fill="#1A1311"/><path fill-rule="evenodd" clip-rule="evenodd" d="M4.082 37.503c-.01 1.054.278 1.4 1.061 1.531.891.081 1.773.242 2.635.481.147.053.376-.06.546-.14a2.163 2.163 0 001.47-2.08c0-.208.482-.548-.219-.507a5.386 5.386 0 01-3.918-1.53c-.29-.254-.51-.27-.683.04a6.169 6.169 0 00-.892 2.205z" fill="#fff"/><path fill-rule="evenodd" clip-rule="evenodd" d="M36.348 27.722c0-.743.008-1.487 0-2.23a1.073 1.073 0 00-1.238-1.1c-.089.01-.235.12-.238.189a3.79 3.79 0 00.018 1.474c.216.86.288 1.75.213 2.634.032.493-.006.99.008 1.486a11.618 11.618 0 01-1.243 5.185c-.048.105-.187.186-.2.287.01.14.044.278.1.407.111-.034.27-.033.322-.107.33-.43.622-.89.87-1.372a20.22 20.22 0 00.888-2.355 8.953 8.953 0 00.51-3.012c-.021-.494 0-.991 0-1.485" fill="#1A1311"/><path fill-rule="evenodd" clip-rule="evenodd" d="M30.713 24.888c-1.09.062-1.993-.416-2.967-.253a1.91 1.91 0 00-1.376-.23c-.07 0-.218.292-.18.344.294.42.658.792.937 1.22.755 1.161 2.249.748 3.022-.395.134-.2.3-.372.564-.687" fill="#fff"/><path fill-rule="evenodd" clip-rule="evenodd" d="M20.71 28.696c.021.033.043.093.062.093.06 0 .141-.009.172-.049a11.106 11.106 0 002-3.619c.137-.438.323-.861.43-1.3.024-.224.002-.45-.064-.665-.013-.067-.132-.178-.164-.167a7.91 7.91 0 00-1 .422.462.462 0 00-.189.363 8.55 8.55 0 01-.615 3.088 4.576 4.576 0 01-.634 1.718c-.02.025 0 .081 0 .121" fill="#1A1311"/><path fill-rule="evenodd" clip-rule="evenodd" d="M41.6 16.16c-.05-.23-.028-.527-.166-.675a3.843 3.843 0 00-.946-.7c-.063-.035-.408.213-.4.3a5.246 5.246 0 01-.267 1.636c-.022.118.03.287-.033.354-.258.272-.4.6-.08.835.285.206.616-.067.87-.235.538-.357 1.12-.71 1.02-1.522" fill="#fff"/><path fill-rule="evenodd" clip-rule="evenodd" d="M21.916 22.154c-1.074-.848-2.27-.282-3.4-.456.463.443 1.068.068 1.623.4.443.267 1.174.054 1.778.054m7.573-3.979c.364.047.742-.024 1.107.017s.752.165 1.13.238c.634.122.814.422.513 1a6.928 6.928 0 01-2.935 2.673c-.466.266-.878.05-1.149-.466-.39-.742-.765-1.49-1.146-2.235-.614-1.2-.463-1.459.872-1.529.535.106 1.068.237 1.608.307m.074 1.015c-.49-.036-.98-.04-1.47-.014.311.451.56.81.804 1.168.26.382.475.436.783.154.331-.3.638-.632.963-.957a6.2 6.2 0 00-1.08-.35zm2.321-5.133c.235-.12.461-.258.675-.413.716-.6 1.255-.527 1.527.318.089.28.131.552.378.7a.66.66 0 00.475.03c.423-.121.361-.5.193-1.185-.255-1.04-1.129-1.183-1.88-1.492a1.214 1.214 0 00-.862.216c-.479.275-.988.55-1.014 1.229-.013.34.024.576.507.593m-3.48-1.152c.146-.545-.192-.838-.741-1.06a2.42 2.42 0 00-3.1 1.124c-.146.3.027.683.442.94.3.187.443-.075.587-.244.119-.141.152-.355.27-.5.526-.64 1.019-.594 1.553.123.07.095.13.223.227.268.17.09.357.14.549.147.324-.007.188-.286.214-.462a2.836 2.836 0 000-.34m.678 3.56c.215-.015.393.024.445-.039.391-.479.713-.129.829.161.109.272.145.467.441.308a.576.576 0 00.327-.707 1.67 1.67 0 00-1.246-.955c-.429-.122-.8.223-1.112.508a.587.587 0 00-.093.543c.055.12.317.145.409.181m4.176-7.386c.106.193.23.376.37.547.52.128 1.058.176 1.593.143.209-.036.439-.032.37-.32a1.173 1.173 0 00-.3-.606c-.348-.295-.885.15-1.251-.256-.024-.027-.235.1-.348.173-.134.084-.256.187-.434.319z" fill="#1A1311"/><path fill-rule="evenodd" clip-rule="evenodd" d="M30.645 19.541a6.2 6.2 0 00-1.08-.35c-.49-.036-.981-.04-1.471-.014.312.45.56.808.806 1.169.259.381.475.436.783.154.33-.3.638-.633.963-.957" fill="#fff"/></g></g><defs><clipPath id="clip0_345_2"><path fill="#fff" d="M0 0h56v63H0z"/></clipPath></defs></svg>