<svg xmlns="http://www.w3.org/2000/svg" width="187" height="60"><defs><clipPath id="a"><path data-name="長方形 22929" fill="#fff" d="M0 0h16.345v12.829H0z"/></clipPath></defs><g data-name="グループ 61517"><path data-name="長方形 22928" fill="#d00303" d="M0 0h187v60H0z"/><g data-name="グループ 61061"><g data-name="グループ 61060" transform="translate(9 23)" clip-path="url(#a)"><path data-name="パス 147665" d="M16.3 1.827a2.262 2.262 0 00-.468-.991 1.954 1.954 0 00-.152-.171A2.262 2.262 0 0014.077 0H2.267a2.265 2.265 0 00-1.6.665 2 2 0 00-.157.17 2.235 2.235 0 00-.466.991A2.2 2.2 0 000 2.267v8.295a2.254 2.254 0 00.188.9 2.222 2.222 0 00.476.7c.051.051.1.1.156.143a2.265 2.265 0 001.447.521h11.81a2.251 2.251 0 001.447-.523 1.957 1.957 0 00.156-.141 2.269 2.269 0 00.479-.7 2.242 2.242 0 00.186-.9V2.267a2.334 2.334 0 00-.042-.441M1.485 1.485a1.1 1.1 0 01.783-.325h11.81a1.091 1.091 0 01.783.325 1.078 1.078 0 01.1.116L8.769 7a.909.909 0 01-1.193 0L1.388 1.6a.822.822 0 01.1-.114m-.328 9.076V2.8l4.48 3.908-4.477 3.9a.327.327 0 010-.048m12.918 1.107H2.267a1.091 1.091 0 01-.548-.145l4.724-4.115.441.384a1.963 1.963 0 002.579 0l.437-.384 4.722 4.117a1.092 1.092 0 01-.548.145m1.107-1.107a.346.346 0 010 .048l-4.477-3.9 4.481-3.91z" fill="#fff"/></g></g><path data-name="パス 158738" d="M33.76 32.4l1.888.56a13.119 13.119 0 01-1.024 1.728 13.7 13.7 0 01-1.272 1.568A13.913 13.913 0 0132 37.52a3.538 3.538 0 00-.448-.432q-.288-.24-.592-.464t-.528-.368a9.451 9.451 0 001.92-1.7A8.726 8.726 0 0033.76 32.4zm-.128 1.7h11.024v1.68H33.168zm-2.848 3.728h14.464v1.712H30.784zm.256 3.744h13.968v1.708H31.04zm4.752-6.88h1.6v7.776h-1.6zm-2.848 0h1.712v7.788h-1.712zm5.632 0h1.6v7.788h-1.6zm2.816 0h1.76v7.788h-1.76zm-6.08 9.488l1.776-.192q.16.72.28 1.568a13.062 13.062 0 01.132 1.436l-1.888.272q0-.384-.04-.912t-.1-1.1q-.064-.58-.16-1.076zm3.184.048l1.792-.3q.208.464.4 1.008t.336 1.056a7.905 7.905 0 01.208.928l-1.92.368A11.989 11.989 0 0039 45.824q-.232-.864-.5-1.6zm3.168-.1l1.84-.576q.384.5.768 1.072t.736 1.144a7.83 7.83 0 01.544 1.016l-1.968.656a10.444 10.444 0 00-.484-1.008q-.312-.576-.688-1.176t-.748-1.128zm-9.232-.512l1.856.464a10.141 10.141 0 01-.752 1.82 7.228 7.228 0 01-1.072 1.552l-1.84-.752a6.052 6.052 0 001.04-1.36 8.238 8.238 0 00.768-1.724zM49.04 32.48h1.76v14.912h-1.76zm-2.432 5.264h6.56v1.792h-6.56zm2.08.944l1.072.528q-.208.8-.48 1.688t-.608 1.768q-.336.88-.7 1.656a8.608 8.608 0 01-.788 1.352 4.989 4.989 0 00-.232-.664q-.152-.36-.32-.712t-.312-.604a8.812 8.812 0 00.936-1.464q.456-.872.84-1.808a13.691 13.691 0 00.592-1.74zm2.1.928q.128.128.376.4t.552.616q.3.344.584.688t.512.616a4.943 4.943 0 01.328.416l-1.168 1.5q-.16-.352-.416-.824t-.56-.976q-.3-.5-.592-.952t-.5-.736zm-4.192-5.9l1.344-.352a12.867 12.867 0 01.376 1.248q.168.672.28 1.312t.16 1.152l-1.44.384a9.221 9.221 0 00-.12-1.16q-.1-.648-.256-1.328a12.83 12.83 0 00-.348-1.26zm5.264-.432l1.616.352q-.192.656-.416 1.344t-.448 1.32q-.224.632-.416 1.112l-1.216-.352q.176-.512.344-1.176t.312-1.352q.14-.692.22-1.252zm6.064-.88h1.792v15.02H57.92zm-4.788 10.012l8.224-1.472.288 1.776-8.224 1.488zm.9-7.84l.944-1.3q.448.256.936.592t.928.688a4.985 4.985 0 01.7.656l-.992 1.44a4.594 4.594 0 00-.664-.688q-.424-.368-.9-.736t-.956-.652zm-.72 4.032l.9-1.376a10.8 10.8 0 01.984.568q.512.328.976.656a5.068 5.068 0 01.752.632l-.976 1.536a5.114 5.114 0 00-.7-.664q-.448-.36-.952-.72a11.2 11.2 0 00-.988-.632zm12.224-6.144l1.824.56a26.672 26.672 0 01-1.112 2.712 26.045 26.045 0 01-1.412 2.592 16.168 16.168 0 01-1.576 2.152q-.1-.24-.28-.616t-.392-.76a5.523 5.523 0 00-.384-.624 11.629 11.629 0 001.3-1.7 18.682 18.682 0 001.14-2.08 18.981 18.981 0 00.888-2.236zm-1.3 4.436l1.824-1.824v12.332H64.24zm6.816-4.416h1.872v14.828h-1.872zm-4.064 2.784H77.36v1.824H66.992zm1.952 7.76h6.144v1.712h-6.144zm4.672-6.736A19.854 19.854 0 0074.688 39a19.518 19.518 0 001.456 2.544 12.045 12.045 0 001.664 1.992 5.972 5.972 0 00-.76.672 5.723 5.723 0 00-.68.816 13.914 13.914 0 01-1.648-2.3 21.885 21.885 0 01-1.408-2.9 31.668 31.668 0 01-1.072-3.152zm-3.152-.16l1.392.384a27.315 27.315 0 01-1.1 3.264 21.866 21.866 0 01-1.472 2.96 12.855 12.855 0 01-1.764 2.332q-.16-.224-.4-.5t-.5-.536a5.62 5.62 0 00-.472-.416 10.712 10.712 0 001.752-2.028 18.842 18.842 0 001.488-2.624 19.7 19.7 0 001.076-2.84zm16.848 3.948v1.472h4.1V40.08zm-1.568-1.392h7.3v4.256h-7.3zm3.488-4.608a9.677 9.677 0 01-.912 1.344 11.842 11.842 0 01-1.256 1.344 9.965 9.965 0 01-1.464 1.12 5.608 5.608 0 00-.384-.808 4.98 4.98 0 00-.5-.744 7.493 7.493 0 001.464-1.088 11.074 11.074 0 001.256-1.4 8.9 8.9 0 00.9-1.432h1.68a13.333 13.333 0 001.072 1.432 10.474 10.474 0 001.3 1.28 7.381 7.381 0 001.392.92 5.831 5.831 0 00-.52.792q-.264.472-.44.856a9.191 9.191 0 01-1.36-1.016 13.363 13.363 0 01-1.248-1.272 10.265 10.265 0 01-.98-1.328zm-.752 2.928h1.7v3.136a14.536 14.536 0 01-.14 1.956 7.027 7.027 0 01-.576 1.968 6.413 6.413 0 01-1.288 1.832 8.322 8.322 0 01-2.276 1.572 4.48 4.48 0 00-.328-.456q-.2-.248-.424-.5a3.026 3.026 0 00-.416-.392 7.471 7.471 0 002.008-1.3 5.161 5.161 0 001.12-1.5 5.655 5.655 0 00.5-1.608 10.989 10.989 0 00.12-1.6zm1.856 5.1a7.08 7.08 0 001.288 2.264 5.4 5.4 0 002.088 1.528 4.266 4.266 0 00-.44.44q-.232.268-.44.56t-.352.528a6.127 6.127 0 01-2.216-2.02 11.233 11.233 0 01-1.384-2.928zm-3.488-5.76h4.944v1.492h-4.944zm-6.688-.928h4.672v1.46H80.16zm0 2.432h4.672V39.3H80.16zm-.912 2.432h5.488v1.488h-5.488zM81.92 33.9h1.52v7.2h-1.52zm.528 8.592l.752-.24a9.622 9.622 0 01.456 1.04 6.292 6.292 0 01.3.992l-.784.288a7.921 7.921 0 00-.28-1.008 8.44 8.44 0 00-.444-1.064zm-1.04.224l.816-.144a10.32 10.32 0 01.352 1.336 9.667 9.667 0 01.176 1.24l-.848.176a10.423 10.423 0 00-.168-1.256 12.257 12.257 0 00-.328-1.348zm-1.1.08l.832-.08a10.93 10.93 0 01.16 1.528q.032.824.016 1.416l-.88.128a11.559 11.559 0 00.008-1.44Q80.4 43.52 80.3 42.8zm-1.184-.336l1.056.208q-.032.736-.12 1.456a8.1 8.1 0 01-.272 1.336 3.576 3.576 0 01-.5 1.064L78.3 46a3.3 3.3 0 00.448-.968A8.286 8.286 0 0079 43.816q.088-.664.12-1.352zm.128-9.456h5.9v1.552h-4.32v6.752h-1.584zm4.656 7.28h1.568v.24q0 .24-.016.4-.064 1.936-.16 3.136a17.282 17.282 0 01-.224 1.848 2.188 2.188 0 01-.32.888 1.243 1.243 0 01-.416.392 1.661 1.661 0 01-.528.168 3.633 3.633 0 01-.616.056q-.376.008-.792-.008a3.6 3.6 0 00-.132-.764 2.981 2.981 0 00-.288-.72q.32.032.576.048t.416.016a.5.5 0 00.224-.048.637.637 0 00.192-.16 1.676 1.676 0 00.216-.688q.088-.528.16-1.616t.132-2.912zm17.072-7.28l-.048.392q-.032.264-.056.528t-.04.472q-.032.464-.056 1.016t-.04 1.136q-.016.584-.024 1.176t-.016 1.156q0 .656.016 1.448t.044 1.572q.024.776.032 1.416t.008.984a4.313 4.313 0 01-.216 1.54 1.406 1.406 0 01-.616.76 1.923 1.923 0 01-.928.216 3.7 3.7 0 01-1.232-.232 4.731 4.731 0 01-1.224-.648 3.71 3.71 0 01-.928-.968 2.141 2.141 0 01-.356-1.192 2.5 2.5 0 01.58-1.528 6.336 6.336 0 011.552-1.4 9.149 9.149 0 012.088-1.024 11.61 11.61 0 012.208-.584 12.929 12.929 0 012.048-.184 5.8 5.8 0 012.224.408 3.7 3.7 0 011.584 1.192 3.043 3.043 0 01.592 1.888 4.131 4.131 0 01-.352 1.712 3.4 3.4 0 01-1.124 1.352 5.881 5.881 0 01-2.06.892q-.54.108-1.08.164t-1.016.088l-.736-2.064q.544 0 1.048-.024a8.849 8.849 0 00.92-.088 4.819 4.819 0 001.184-.384 2.187 2.187 0 00.832-.672 1.635 1.635 0 00.3-.992 1.475 1.475 0 00-.292-.928 1.881 1.881 0 00-.824-.592 3.349 3.349 0 00-1.232-.208 10.306 10.306 0 00-2.044.208 11.905 11.905 0 00-1.976.576 6.989 6.989 0 00-1.264.632 3.833 3.833 0 00-.88.744 1.172 1.172 0 00-.32.736.608.608 0 00.12.36 1.186 1.186 0 00.312.3 1.815 1.815 0 00.392.2 1.044 1.044 0 00.344.072.514.514 0 00.372-.14.741.741 0 00.144-.536q0-.432-.024-1.24t-.048-1.8q-.024-.992-.024-1.968 0-.672.008-1.36t.008-1.312q0-.624.008-1.1t.008-.752q0-.176-.016-.448t-.04-.552a2.872 2.872 0 00-.056-.408zm4.56 1.728q.608.288 1.368.7t1.456.824a10.962 10.962 0 011.112.728l-.96 1.632a8.423 8.423 0 00-.792-.576q-.488-.32-1.056-.656t-1.1-.632q-.528-.3-.912-.472zm-9.808.88q.7.08 1.24.1t.968.024q.624 0 1.376-.056t1.536-.16q.784-.1 1.528-.248t1.352-.32l.048 1.984q-.68.164-1.46.288t-1.576.216q-.792.1-1.5.144T98 37.632q-.8 0-1.312-.016t-.928-.064zm15.82-1.068h12.976v9.52h-2v-7.68h-9.056v7.76h-1.92zM112.816 38h10.656v1.776h-10.656zm-.016 3.456h10.7V43.3h-10.7zm4.144-9.056h2.016v15.024h-2.016zm14.992.912q-.064.5-.12 1.072t-.088 1.056q-.016.656-.056 1.592t-.064 1.96l-.048 2.016q-.024.992-.024 1.728a2.376 2.376 0 00.3 1.272 1.644 1.644 0 00.792.672 2.973 2.973 0 001.12.2 5.851 5.851 0 001.808-.264 5.991 5.991 0 001.484-.716 6.446 6.446 0 001.208-1.04 10.289 10.289 0 00.968-1.248l1.456 1.76a8.649 8.649 0 01-1.008 1.216 8.732 8.732 0 01-1.48 1.2 7.935 7.935 0 01-1.976.912 8.244 8.244 0 01-2.48.352 5.842 5.842 0 01-2.28-.408 3.185 3.185 0 01-1.5-1.264 4.119 4.119 0 01-.536-2.216q0-.656.016-1.5t.048-1.752q.032-.912.048-1.784t.032-1.576q.016-.7.016-1.12 0-.576-.048-1.128a7.345 7.345 0 00-.16-1.032zm16.528-.24h3.392V34.9h-3.392zm2.416 0h2.02a30.585 30.585 0 00.352 3.264 14.411 14.411 0 00.768 2.872 8.392 8.392 0 001.34 2.328 6.456 6.456 0 002.1 1.648 4.422 4.422 0 00-.52.416q-.28.256-.544.536a5.594 5.594 0 00-.44.52 7.694 7.694 0 01-2.144-1.88 9.78 9.78 0 01-1.4-2.5 15.97 15.97 0 01-.816-2.992 30.88 30.88 0 01-.392-3.344h-.32zm-.048 3.344l1.968.272a15.96 15.96 0 01-1.616 4.72 9.554 9.554 0 01-2.864 3.264 5.059 5.059 0 00-.408-.464q-.264-.272-.56-.552a5.1 5.1 0 00-.52-.44 7.254 7.254 0 002.648-2.752 12.524 12.524 0 001.352-4.048zm-4.4 2.224v5.9h-1.872v-4.124h-1.86V38.64zm0 5.072a2.908 2.908 0 001.392 1.152 6.278 6.278 0 002.144.416q.7.032 1.672.04t2.04-.008q1.072-.016 2.1-.064t1.832-.112q-.1.224-.224.576t-.232.72a6.189 6.189 0 00-.152.656q-.72.048-1.648.072t-1.9.032q-.976.008-1.888-.008t-1.632-.048a8.158 8.158 0 01-2.512-.456 4.525 4.525 0 01-1.84-1.32q-.528.448-1.08.928t-1.204.992l-.944-2q.56-.336 1.168-.736t1.168-.832zm-3.712-9.776l1.424-1.152a10.581 10.581 0 011.008.744q.512.424.96.864a6.98 6.98 0 01.72.808l-1.52 1.28a5.434 5.434 0 00-.664-.832q-.424-.448-.936-.9t-.992-.812zm18.688-.048q.336.032.712.056t.632.024q.352 0 .808-.016l.936-.032q.48-.016.912-.048t.7-.048a3.744 3.744 0 00.584-.08 3.457 3.457 0 00.5-.144l1.28.992q-.16.192-.3.344a1.568 1.568 0 00-.24.328 11.985 11.985 0 00-.624 1.224q-.352.776-.744 1.672t-.756 1.74q-.24.544-.5 1.152t-.528 1.208q-.272.6-.528 1.12t-.5.9a3.33 3.33 0 01-1.064 1.072 2.788 2.788 0 01-1.424.348 2.417 2.417 0 01-1.764-.692 2.54 2.54 0 01-.7-1.9 3.832 3.832 0 01.432-1.792 4.388 4.388 0 011.224-1.448 5.857 5.857 0 011.864-.952 7.833 7.833 0 012.352-.336 11.173 11.173 0 012.688.32 14.862 14.862 0 012.424.816 18.93 18.93 0 012.032 1.032q.9.536 1.544.968l-.944 2.224a14.55 14.55 0 00-1.616-1.3 16.472 16.472 0 00-1.912-1.14 10.83 10.83 0 00-2.16-.824 9.212 9.212 0 00-2.376-.3 4.867 4.867 0 00-1.992.368 3.222 3.222 0 00-1.256.92 1.836 1.836 0 00-.432 1.136.82.82 0 00.2.592.634.634 0 00.472.208.715.715 0 00.432-.128 2.027 2.027 0 00.4-.432 4.989 4.989 0 00.408-.688q.2-.4.416-.88t.432-.976q.216-.5.424-.96.288-.64.592-1.336t.584-1.352q.28-.656.52-1.152-.24.016-.592.024t-.744.024q-.392.016-.768.04l-.648.04q-.24.016-.616.048t-.68.08zm10.544 3.792a26.928 26.928 0 01-.344 3.112 10.391 10.391 0 01-.784 2.576 7.324 7.324 0 01-1.464 2.1 9.488 9.488 0 01-2.368 1.688L165.3 45.76a8.214 8.214 0 002.36-1.472 6.235 6.235 0 001.34-1.744 7.171 7.171 0 00.632-1.784 12.263 12.263 0 00.224-1.576q.032-.464.032-.92t-.032-.824z" fill="#fff"/><path data-name="パス 158737" d="M30.768 22.256h14.464v1.52H30.768zm3.072-5.968h9.7v1.248h-9.7zm0 1.92h9.728v1.264H33.84zm-.384-4.064h10.88v1.488h-10.88zm4 .944h1.84V20.7h-1.84zm-.448 6.144h1.9v6.192h-1.9zm-.16 1.648l1.44.72a12.167 12.167 0 01-1.4 1.16 15.327 15.327 0 01-1.7 1.056 19.528 19.528 0 01-1.856.872 17.436 17.436 0 01-1.856.64q-.228-.352-.576-.828a5.975 5.975 0 00-.656-.76q.912-.192 1.856-.488t1.832-.672a15.149 15.149 0 001.64-.808 7.889 7.889 0 001.276-.892zm2.288-.048a8.369 8.369 0 001.256.9 13.984 13.984 0 001.6.808q.872.376 1.8.672t1.824.5a3.285 3.285 0 00-.432.456q-.224.28-.432.568a5.868 5.868 0 00-.336.512 16.918 16.918 0 01-1.848-.64 18.994 18.994 0 01-1.824-.864 16.668 16.668 0 01-1.672-1.032 12.48 12.48 0 01-1.408-1.144zm-.9-10.432l2.16.272q-.368.7-.776 1.36t-.744 1.1l-1.7-.32q.288-.528.592-1.2a9.5 9.5 0 00.472-1.212zm-4.1-.032l1.984.4q-.544.928-1.2 1.84a19.387 19.387 0 01-1.456 1.784 15.291 15.291 0 01-1.784 1.656 3.711 3.711 0 00-.384-.456q-.24-.248-.5-.48a3.592 3.592 0 00-.472-.36 12.121 12.121 0 001.624-1.384 13.346 13.346 0 001.288-1.52 10.839 10.839 0 00.908-1.48zM32.6 15.12h1.808v5.04H44.8v1.44H32.608zm17.08 1.808h8.7v1.616h-8.7zm5.152-1.584h1.776V22.7a2.574 2.574 0 01-.16 1.016 1.1 1.1 0 01-.592.552 3.215 3.215 0 01-1.04.216q-.624.04-1.5.04a5.3 5.3 0 00-.192-.8 6.042 6.042 0 00-.3-.8q.528.016 1.04.016h.672a.376.376 0 00.24-.056.282.282 0 00.064-.216zm-4.4 4.288l1.328-.72a8.785 8.785 0 01.712.848q.344.464.632.92a4.68 4.68 0 01.432.84l-1.424.8a5.394 5.394 0 00-.392-.84 11.179 11.179 0 00-.6-.952q-.336-.48-.688-.896zm-3.28-6.544H60.9v14.32h-2.02v-12.48h-9.808v12.48h-1.92zm1.136 11.84h11.36v1.84h-11.36zm27.5-12.432l1.136 1.392q-.912.224-1.984.384t-2.224.28q-1.152.12-2.3.2t-2.232.128a3.585 3.585 0 00-.168-.72 7.5 7.5 0 00-.264-.7q1.056-.048 2.168-.144t2.18-.216q1.056-.12 2.008-.28t1.684-.32zm-7.536 2.9l1.456-.464q.272.464.544 1.032a5.906 5.906 0 01.384.984l-1.52.544a8.069 8.069 0 00-.352-1.016 10.723 10.723 0 00-.508-1.084zm3.072-.336l1.488-.336q.208.48.4 1.072a8.679 8.679 0 01.276 1.004l-1.568.4a8.4 8.4 0 00-.24-1.024q-.18-.608-.352-1.12zm3.872-.56l1.776.528q-.432.8-.888 1.624t-.84 1.384l-1.408-.48q.24-.416.5-.952t.48-1.088q.224-.556.384-1.016zm-7.616 2.88h9.744V20h-1.776v-1.072H69.3v1.056h-1.712zm.848 2.928h6.816v1.568h-6.816zm6.224 0h.336l.3-.064 1.136.432a9.129 9.129 0 01-1.3 2.632 8.694 8.694 0 01-1.94 1.932 10.821 10.821 0 01-2.484 1.328 18.739 18.739 0 01-2.912.84 4.3 4.3 0 00-.2-.56 6.737 6.737 0 00-.3-.624 3.194 3.194 0 00-.328-.5 15.126 15.126 0 002.656-.624 10.555 10.555 0 002.24-1.048 7 7 0 001.72-1.5 6.125 6.125 0 001.08-2.008zm-4.224 1.36a6.679 6.679 0 002.648 2.7 11.938 11.938 0 004.348 1.408 3.355 3.355 0 00-.424.488q-.216.3-.408.608t-.32.552a11.415 11.415 0 01-4.56-1.84 9.257 9.257 0 01-2.9-3.472zm-8.1-1.184q.96-.208 2.3-.56t2.7-.736l.24 1.728-2.488.744q-1.256.376-2.328.68zm.192-5.04h4.9V17.2h-4.9zm1.728-3.024h1.76v12.988a3.285 3.285 0 01-.128 1.048 1.143 1.143 0 01-.5.616 2.409 2.409 0 01-.9.3 8.039 8.039 0 01-1.32.064 5.122 5.122 0 00-.176-.872 6.073 6.073 0 00-.32-.9q.432.016.808.024a4.666 4.666 0 00.52-.008.309.309 0 00.208-.056.309.309 0 00.056-.216zM78.9 22.192h14.268v1.584H78.9zm.048-7.168H93.12v1.568H78.944zm.656 2.864H92.5v1.5H79.6zm.784 2.208H91.76v1.392H80.384zm4.64-1.456h1.9v8.8h-1.9zm-1.392-6.256h1.792v3.392h-1.792zm2.976 0h1.808v3.28h-1.808zM84.672 22.9l1.52.688a9.7 9.7 0 01-1.816 1.54 14.884 14.884 0 01-2.276 1.248 17.448 17.448 0 01-2.448.872 4.609 4.609 0 00-.352-.536q-.216-.3-.448-.584a4.48 4.48 0 00-.44-.48 21.834 21.834 0 002.392-.656 14 14 0 002.2-.944 8.1 8.1 0 001.668-1.148zm2.64-.048a6.9 6.9 0 001.184.9 10.829 10.829 0 001.512.768 14.871 14.871 0 001.744.6 15.88 15.88 0 001.864.4q-.224.224-.472.52a6.758 6.758 0 00-.464.624q-.216.328-.36.6a13.829 13.829 0 01-1.88-.616 14.41 14.41 0 01-1.752-.856 12.32 12.32 0 01-1.568-1.072 9.115 9.115 0 01-1.3-1.264zm2.976-10.32l2 .48q-.368.656-.752 1.272t-.7 1.048l-1.568-.48q.192-.32.384-.728t.36-.832q.164-.428.276-.764zm-2.112 3.424l2.032.48q-.336.56-.64 1.08t-.544.888l-1.632-.448q.208-.448.432-1a10 10 0 00.352-1.004zm-8.1-2.912l1.648-.56a11.309 11.309 0 01.7 1.144 7.624 7.624 0 01.512 1.112l-1.728.64a5.933 5.933 0 00-.464-1.136q-.328-.66-.664-1.204zm2.032 3.584l1.872-.3a7.636 7.636 0 01.408.76 5.478 5.478 0 01.3.744l-1.952.336a7.022 7.022 0 00-.256-.752 6.032 6.032 0 00-.368-.792zM102 17.872a1.932 1.932 0 011.032.28 2.207 2.207 0 01.736.736 1.932 1.932 0 01.28 1.032 1.944 1.944 0 01-.28 1.024 2.183 2.183 0 01-.736.744 1.932 1.932 0 01-1.032.28 1.944 1.944 0 01-1.024-.28 2.16 2.16 0 01-.744-.744 1.944 1.944 0 01-.28-1.024 1.932 1.932 0 01.28-1.032 2.183 2.183 0 01.744-.736 1.944 1.944 0 011.024-.28zm13.424-4.64h9.616V27.28h-1.824V14.9h-6.032v12.524h-1.76zm2.176 3.616h5.264v1.392H117.6zm-1.264 7.968h7.764v1.664h-7.76zm3.088-9.6h1.488v5.152h-1.488zm-.032 5.744v1.68h1.616v-1.68zM118 19.632h4.464v4.32H118zm-4.544-7.184l1.744.544a25.148 25.148 0 01-1.1 2.776 24.758 24.758 0 01-1.416 2.64 16.194 16.194 0 01-1.616 2.2 5.983 5.983 0 00-.224-.64q-.16-.4-.352-.8t-.332-.656a12.147 12.147 0 001.288-1.712 18.051 18.051 0 001.128-2.088 19.856 19.856 0 00.88-2.264zm-1.312 4.4l1.808-1.808.016.016v12.4h-1.824zm23.024-2.5h1.856v9.056h-1.856zm3.776-1.616h1.9V25.1a3.293 3.293 0 01-.2 1.3 1.388 1.388 0 01-.7.688 4.081 4.081 0 01-1.3.3q-.8.072-1.9.072a3.519 3.519 0 00-.144-.648q-.1-.364-.24-.724a4.536 4.536 0 00-.28-.616q.784.016 1.488.024t.944.008a.5.5 0 00.328-.088.392.392 0 00.1-.312zm-9.456 7.316h3.68v1.68h-3.68zm2.832 0h1.78l-.008.136q-.008.136-.008.3v.264q-.084 1.94-.184 3.164a15.746 15.746 0 01-.232 1.872 2.352 2.352 0 01-.36.936 1.413 1.413 0 01-.528.432 2.378 2.378 0 01-.672.176 7.5 7.5 0 01-.848.064q-.528.016-1.088-.016a3.458 3.458 0 00-.16-.856 3.441 3.441 0 00-.352-.808q.5.048.936.064t.648.016a.946.946 0 00.3-.04.546.546 0 00.232-.168 1.585 1.585 0 00.24-.712q.1-.552.176-1.648t.128-2.888zm-3.232-5.2v2.192h3.012v-2.192zm-1.744-1.7h6.608v5.584h-6.608zm1.632 5.072h1.872q-.064 1.264-.208 2.552a16.513 16.513 0 01-.472 2.5 9.871 9.871 0 01-.928 2.272 7 7 0 01-1.576 1.9 4.575 4.575 0 00-.576-.752 4.256 4.256 0 00-.72-.64 5.234 5.234 0 001.36-1.6 8.138 8.138 0 00.752-1.952 14.06 14.06 0 00.352-2.128q.096-1.092.144-2.148zm26.816-5.72l1.136 1.392q-.912.224-1.984.384t-2.224.28q-1.152.12-2.3.2t-2.232.128a3.585 3.585 0 00-.168-.72 7.5 7.5 0 00-.264-.7q1.056-.048 2.168-.144t2.176-.22q1.056-.12 2.008-.28t1.684-.32zm-7.536 2.9l1.456-.464q.272.464.544 1.032a5.906 5.906 0 01.384.984l-1.52.544a8.069 8.069 0 00-.352-1.016 10.723 10.723 0 00-.512-1.088zm3.072-.336l1.488-.336q.208.48.4 1.072a8.679 8.679 0 01.272 1l-1.568.4a8.4 8.4 0 00-.24-1.024q-.18-.608-.352-1.12zm3.872-.564l1.776.528q-.432.8-.888 1.624t-.84 1.384l-1.408-.48q.24-.416.5-.952t.48-1.088q.22-.556.38-1.016zm-7.616 2.88h9.744V20h-1.776v-1.072H149.3v1.056h-1.716zm.848 2.92h6.816v1.568h-6.816zm6.224 0h.336l.3-.064 1.136.432a9.129 9.129 0 01-1.3 2.632 8.694 8.694 0 01-1.944 1.94 10.82 10.82 0 01-2.484 1.328 18.739 18.739 0 01-2.912.84 4.3 4.3 0 00-.2-.56 6.737 6.737 0 00-.3-.624 3.194 3.194 0 00-.328-.5 15.126 15.126 0 002.656-.624 10.555 10.555 0 002.24-1.048 7 7 0 001.72-1.5 6.125 6.125 0 001.08-2.008zm-4.224 1.36a6.679 6.679 0 002.648 2.7 11.938 11.938 0 004.344 1.416 3.355 3.355 0 00-.424.488q-.216.3-.408.608t-.32.552a11.415 11.415 0 01-4.56-1.84 9.257 9.257 0 01-2.9-3.472zm-8.1-1.184q.96-.208 2.3-.56t2.7-.736l.24 1.728-2.488.744q-1.256.376-2.328.68zm.192-5.04h4.9V17.2h-4.9zm1.728-3.024h1.76v12.996a3.285 3.285 0 01-.132 1.048 1.143 1.143 0 01-.5.616 2.409 2.409 0 01-.9.3 8.039 8.039 0 01-1.32.064 5.122 5.122 0 00-.176-.872 6.073 6.073 0 00-.32-.9q.432.016.808.024a4.666 4.666 0 00.52-.008.309.309 0 00.208-.056.309.309 0 00.056-.216zm14.648 9.78h14.268v1.584H158.9zm.048-7.168h14.172v1.568h-14.176zm.652 2.864h12.9v1.5h-12.9zm.784 2.212h11.376v1.392h-11.376zm4.64-1.456h1.9v8.8h-1.9zm-1.392-6.256h1.792v3.392h-1.792zm2.976 0h1.808v3.28h-1.808zM164.672 22.9l1.52.688a9.7 9.7 0 01-1.816 1.54 14.884 14.884 0 01-2.276 1.248 17.448 17.448 0 01-2.448.872 4.609 4.609 0 00-.352-.536q-.216-.3-.448-.584a4.479 4.479 0 00-.44-.48 21.834 21.834 0 002.392-.656 14 14 0 002.2-.944 8.1 8.1 0 001.668-1.148zm2.64-.048a6.9 6.9 0 001.184.9 10.828 10.828 0 001.512.768 14.871 14.871 0 001.744.6 15.88 15.88 0 001.864.4q-.224.224-.472.52a6.757 6.757 0 00-.464.624q-.216.328-.36.6a13.829 13.829 0 01-1.88-.616 14.41 14.41 0 01-1.752-.856 12.32 12.32 0 01-1.568-1.072 9.115 9.115 0 01-1.3-1.264zm2.976-10.32l2 .48q-.368.656-.752 1.272t-.7 1.048l-1.568-.48q.192-.32.384-.728t.36-.832q.164-.428.276-.764zm-2.112 3.424l2.032.48q-.336.56-.64 1.08t-.544.888l-1.632-.448q.208-.448.432-1a10 10 0 00.352-1.004zm-8.1-2.912l1.648-.56a11.308 11.308 0 01.7 1.144 7.623 7.623 0 01.512 1.112l-1.728.64a5.933 5.933 0 00-.464-1.136q-.328-.66-.664-1.204zm2.032 3.584l1.872-.3a7.635 7.635 0 01.408.76 5.477 5.477 0 01.3.744l-1.952.336a7.022 7.022 0 00-.256-.752 6.031 6.031 0 00-.368-.792z" fill="#fff"/></g></svg>