<svg data-name="グループ 61516" xmlns="http://www.w3.org/2000/svg" width="188" height="60"><defs><clipPath id="a"><path data-name="長方形 24733" transform="translate(0 .331)" fill="#fff" d="M0 0h18v18H0z"/></clipPath></defs><path data-name="長方形 22927" d="M0 0h188v60H0z"/><path data-name="パス 158739" d="M66.388 29.008h4.544V30.5h-4.544zm-.784-5.152h5.168v1.616H65.6zm-.544 2.7h7.824v1.648H65.06zm2.368-4.16H69.2v4.976h-1.776zm4.352.4l1.776.5a18.539 18.539 0 01-3.128 5.248 16.468 16.468 0 01-4.44 3.68 3.419 3.419 0 00-.352-.472q-.24-.28-.5-.552t-.432-.448a13.776 13.776 0 004.252-3.252 15.09 15.09 0 002.824-4.7zm-3.632 8.5h1.808v4.336a2.732 2.732 0 01-.144.976 1.025 1.025 0 01-.576.56 3.406 3.406 0 01-1 .224q-.568.048-1.336.048a4.3 4.3 0 00-.208-.832 5.836 5.836 0 00-.336-.8q.48.016.928.016h.592a.4.4 0 00.224-.064.248.248 0 00.048-.176zm2.384-2.288h.4l.352-.1 1.024.832a15.647 15.647 0 01-1.336 1.46 11.467 11.467 0 01-1.512 1.248 3.428 3.428 0 00-.424-.512q-.28-.288-.472-.464.352-.288.736-.664a9.653 9.653 0 00.712-.776 6.187 6.187 0 00.52-.72zm-5.6 3.776q1.008-.08 2.312-.176T70 32.4q1.448-.112 2.856-.24v1.648q-1.344.128-2.736.248l-2.672.232q-1.28.112-2.32.192zm9.2-7.456h5.888V27.1h-5.888zm.224-2.928l1.952.3a29.329 29.329 0 01-.7 3.1 21.356 21.356 0 01-1.008 2.808 10.662 10.662 0 01-1.328 2.256 3.435 3.435 0 00-.424-.448q-.28-.256-.584-.512a5.308 5.308 0 00-.528-.4 8.347 8.347 0 001.2-1.944 15.706 15.706 0 00.864-2.448 24.662 24.662 0 00.556-2.712zm2.816 4l1.968.176a24.019 24.019 0 01-1.08 4.824 11.129 11.129 0 01-2.008 3.592 10.308 10.308 0 01-3.3 2.512 5.735 5.735 0 00-.288-.56q-.192-.336-.416-.664a3.672 3.672 0 00-.416-.52 8.526 8.526 0 002.952-2.088 8.8 8.8 0 001.736-3.088 19.376 19.376 0 00.852-4.184zm-1.984.3a24.5 24.5 0 00.936 3.816 11.4 11.4 0 001.592 3.136 7.085 7.085 0 002.464 2.124 6.113 6.113 0 00-.464.488q-.256.3-.488.608a4.6 4.6 0 00-.376.584 8.546 8.546 0 01-2.664-2.5 13.382 13.382 0 01-1.688-3.548 32 32 0 01-1.04-4.416zm12.272 4.26h1.984v4.992H87.46zm-4.208-4.624h10.56v1.632h-10.56zm-1.824 8.976h14.24v1.68h-14.24zm1.408-2.9h11.552v1.648H82.836zm2.976-5.136l2.048.48q-.3.528-.632 1.072t-.648 1.016q-.32.472-.592.84l-1.568-.48q.24-.4.512-.912t.5-1.048q.236-.532.38-.964zM82.564 29.5q1.344-.032 3.1-.056t3.7-.064q1.944-.04 3.848-.072l-.08 1.584q-1.872.08-3.776.136l-3.632.1q-1.728.048-3.072.08zm7.5-.864l1.408-.928q.608.432 1.272.968t1.264 1.088a9.135 9.135 0 01.972 1.02l-1.5 1.04a7.34 7.34 0 00-.892-1.024q-.568-.56-1.232-1.128t-1.288-1.032zm-2.608-6.224h1.984v2.24h-1.98zm-6 1.024h14.132V26.8H93.62v-1.616H83.348V26.8H81.46zm22.816-.272q-.08.432-.256 1.12a13.746 13.746 0 01-.508 1.556q-.256.592-.584 1.224a11.277 11.277 0 01-.664 1.128 2.687 2.687 0 01.528-.168 6.381 6.381 0 01.664-.112 5.39 5.39 0 01.616-.04 2.46 2.46 0 011.672.576 2.144 2.144 0 01.66 1.712q0 .32.008.784t.024.968l.032.984q.016.484.016.864h-1.916q.036-.272.036-.648t.02-.792l.016-.808q.008-.388.008-.712a1.232 1.232 0 00-.408-1.064 1.5 1.5 0 00-.9-.3 3.091 3.091 0 00-1.352.328 4.353 4.353 0 00-1.144.776q-.352.352-.712.784t-.776.976l-1.712-1.28a21.338 21.338 0 001.8-1.856 13.5 13.5 0 001.284-1.772 11.168 11.168 0 00.864-1.76 9.684 9.684 0 00.392-1.332 8.141 8.141 0 00.184-1.3zM98.26 24.64q.608.1 1.408.144t1.408.048q1.056 0 2.312-.048t2.552-.168q1.3-.12 2.464-.312l-.016 1.856q-.848.112-1.832.2t-2 .144q-1.016.056-1.944.08t-1.648.024q-.32 0-.792-.008t-.972-.032q-.5-.024-.944-.056zm12.672 4.544q-.256.08-.6.2l-.688.24q-.344.12-.616.232-.768.3-1.816.736t-2.184 1.008a9.774 9.774 0 00-1.216.752 3.209 3.209 0 00-.752.748 1.434 1.434 0 00-.26.82.976.976 0 00.144.552.979.979 0 00.432.344 2.452 2.452 0 00.72.176 9.429 9.429 0 001.028.048q1.024 0 2.256-.12t2.288-.328l-.068 2.064q-.512.064-1.3.136t-1.616.108q-.84.028-1.608.028a9.552 9.552 0 01-2.24-.24 3.151 3.151 0 01-1.56-.824 2.208 2.208 0 01-.568-1.608 3.027 3.027 0 01.376-1.5 4.575 4.575 0 011-1.216 9.208 9.208 0 011.368-.984q.748-.444 1.464-.812.736-.384 1.328-.656t1.112-.488q.52-.216 1-.44.464-.208.9-.408t.88-.424zm7.268 1.536h9.58v1.712h-9.58zm5.136-5.568h1.712v2.32a.533.533 0 00.072.344.4.4 0 00.28.072h.768a.3.3 0 00.224-.08.605.605 0 00.108-.336q.032-.256.048-.8a2.671 2.671 0 00.7.368 5.95 5.95 0 00.808.256 4.358 4.358 0 01-.28 1.288 1.278 1.278 0 01-.536.64 1.789 1.789 0 01-.864.184h-1.268a2.786 2.786 0 01-1.12-.176.946.946 0 01-.52-.608 3.953 3.953 0 01-.136-1.152zm-4.976-2.016h9.392v3.2h-1.716v-1.568h-6.048v1.648h-1.632zM122 29.12h1.888v8.3H122zm-1.232-3.952h1.732a10.353 10.353 0 01-.208 1.648 3.809 3.809 0 01-.528 1.3 3.235 3.235 0 01-1.056.976 6.5 6.5 0 01-1.776.688 3.551 3.551 0 00-.384-.712 3.713 3.713 0 00-.528-.648 5.76 5.76 0 001.416-.472 2.19 2.19 0 00.808-.672 2.408 2.408 0 00.376-.912 9.63 9.63 0 00.152-1.196zm3.6 6.384a8.475 8.475 0 001.016 1.456 10.269 10.269 0 001.36 1.32 9.142 9.142 0 001.512 1q-.204.172-.456.432t-.468.54a4.8 4.8 0 00-.368.52 9.541 9.541 0 01-1.564-1.268 12.969 12.969 0 01-1.4-1.64 12.755 12.755 0 01-1.1-1.832zm-2.784-.176l1.488.5a11.8 11.8 0 01-1.208 2.04 11.469 11.469 0 01-1.572 1.74 8.839 8.839 0 01-1.856 1.288q-.224-.336-.568-.776a3.675 3.675 0 00-.664-.68 8.79 8.79 0 001.776-1.032 9 9 0 001.52-1.432 8.146 8.146 0 001.088-1.648zm-8.748-.928q.96-.208 2.3-.56t2.7-.736l.24 1.728q-1.232.368-2.488.736t-2.328.672zm.256-5.008h4.9v1.76h-4.9zm1.68-3.024h1.76v12.992a3.285 3.285 0 01-.132 1.048 1.143 1.143 0 01-.5.616 2.264 2.264 0 01-.888.3 8.179 8.179 0 01-1.336.064 5.122 5.122 0 00-.184-.868 6.073 6.073 0 00-.32-.9q.448.016.824.024a4.666 4.666 0 00.52-.008.28.28 0 00.2-.056.309.309 0 00.056-.216zm24.176.688q-.016.128-.04.408t-.04.56q-.016.28-.032.408-.016.32-.016.856v1.192q0 .656.008 1.32t.016 1.252q.008.584.008.968l-2-.672V27.48q0-.6-.008-1.192t-.024-1.072q-.016-.48-.032-.72-.032-.5-.08-.872t-.08-.52zm-9.04 1.984q.7 0 1.6-.016l1.872-.032 1.92-.032q.944-.016 1.776-.024t1.44-.008q.608 0 1.328-.008t1.424-.008h2.192l-.016 1.888q-.752-.032-1.984-.056t-3.008-.024q-1.088 0-2.208.024t-2.224.056q-1.1.032-2.128.072t-1.936.1zm8.656 4.736a6.481 6.481 0 01-.312 2.176 2.629 2.629 0 01-.936 1.3 2.627 2.627 0 01-1.552.44 2.554 2.554 0 01-.936-.192 3.038 3.038 0 01-.9-.56 2.687 2.687 0 01-.664-.912 3.062 3.062 0 01-.248-1.28 2.825 2.825 0 01.432-1.576 3 3 0 011.16-1.04 3.451 3.451 0 011.608-.376 3.132 3.132 0 011.768.472 2.939 2.939 0 011.072 1.272 4.36 4.36 0 01.36 1.808 5.64 5.64 0 01-.256 1.632 5.584 5.584 0 01-.84 1.656 6.027 6.027 0 01-1.572 1.468 8.663 8.663 0 01-2.456 1.072l-1.712-1.696a12.067 12.067 0 001.9-.544 6.035 6.035 0 001.548-.844 3.62 3.62 0 001.04-1.264 4.005 4.005 0 00.376-1.808 1.585 1.585 0 00-.376-1.152 1.22 1.22 0 00-.9-.384 1.309 1.309 0 00-.592.144 1.128 1.128 0 00-.464.432 1.326 1.326 0 00-.176.7 1.1 1.1 0 00.376.872 1.266 1.266 0 00.856.328 1.049 1.049 0 00.68-.24 1.264 1.264 0 00.392-.8 3.666 3.666 0 00-.16-1.5z" fill="#fff"/><g data-name="グループ 61410" transform="translate(41 20.669)" clip-path="url(#a)" fill="#fff"><path data-name="パス 153958" d="M6.443 4.621A2.377 2.377 0 004.07 6.996a.329.329 0 10.658 0A1.718 1.718 0 016.443 5.28a.33.33 0 000-.659"/><path data-name="パス 153959" d="M12.24 10.726A6.014 6.014 0 003.939 2.42a6.059 6.059 0 00-1.85 1.851 6.014 6.014 0 008.3 8.306 6.06 6.06 0 001.849-1.851m-3.125.574a4.272 4.272 0 01-5.75-5.754 4.3 4.3 0 011.85-1.85 4.272 4.272 0 015.751 5.754 4.3 4.3 0 01-1.849 1.851"/><path data-name="パス 153960" d="M16.468 14.949l-3.473-3.466a7.154 7.154 0 01-1.85 1.85l3.473 3.466a1.308 1.308 0 101.85-1.85"/></g></svg>