<svg data-name="コンポーネント 65 – 1" xmlns="http://www.w3.org/2000/svg" width="70" height="66.211"><defs><clipPath id="a"><path data-name="長方形 24649" fill="#ff0" d="M0 0h70v66.211H0z"/></clipPath></defs><g data-name="グループ 61247"><g data-name="グループ 61246" clip-path="url(#a)"><path data-name="パス 152955" d="M65.753 20.555a140.277 140.277 0 00-20.641-17.45 17.858 17.858 0 00-20.507.268A177.036 177.036 0 004.39 20.624a14.646 14.646 0 00.132 21.04A194.944 194.944 0 0026.5 59.762a14.717 14.717 0 0016.876.048l.032-.022a21.051 21.051 0 0014.018 6.424S50.113 61.977 49 55.728a171.433 171.433 0 0016.675-14.45 14.664 14.664 0 00.082-20.723" fill="#ff0"/></g></g><path data-name="パス 158741" d="M19.992 24.976a6.273 6.273 0 01-2.32-.448 6.056 6.056 0 01-2-1.28l1.36-1.632a5.047 5.047 0 001.432.952 3.858 3.858 0 001.576.36 2.286 2.286 0 001.408-.368 1.185 1.185 0 00.48-.992 1.04 1.04 0 00-.228-.716 2.149 2.149 0 00-.632-.472 9.85 9.85 0 00-.928-.416l-1.572-.684a5.229 5.229 0 01-1.144-.648 3.341 3.341 0 01-.912-1.032 2.928 2.928 0 01-.36-1.488 3.005 3.005 0 01.528-1.744 3.705 3.705 0 011.456-1.224 4.727 4.727 0 012.112-.456 5.308 5.308 0 012.032.4 4.994 4.994 0 011.7 1.136l-1.2 1.472a4.677 4.677 0 00-1.168-.72 3.473 3.473 0 00-1.36-.256 2.055 2.055 0 00-1.228.332 1.068 1.068 0 00-.456.92.964.964 0 00.256.688 2.247 2.247 0 00.672.472q.416.2.912.408l1.552.624a4.865 4.865 0 011.256.72 3.02 3.02 0 01.832 1.04 3.338 3.338 0 01.3 1.472 3.241 3.241 0 01-.52 1.776 3.733 3.733 0 01-1.492 1.308 5.09 5.09 0 01-2.344.496zm8.352-.224V14.88h-3.328v-1.984h9.04v1.984h-3.344v9.872zm7.648 0V12.896h7.264v1.984h-4.9v2.736H42.5V19.6h-4.14v3.168h5.072v1.984zm9.84 0V12.896h3.888a7.389 7.389 0 012.36.352 3.388 3.388 0 011.664 1.16 3.575 3.575 0 01.616 2.216 3.75 3.75 0 01-.616 2.216 3.631 3.631 0 01-1.644 1.288 6.135 6.135 0 01-2.312.416H48.2v4.208zm2.368-6.08h1.424a2.743 2.743 0 001.816-.512 1.908 1.908 0 00.6-1.536 1.572 1.572 0 00-.632-1.432 3.464 3.464 0 00-1.864-.408H48.2z"/><path data-name="パス 158742" d="M28.08 49.63a5.063 5.063 0 01-3.18-1.044 6.638 6.638 0 01-2.1-3.06 14.363 14.363 0 01-.744-4.944 14.134 14.134 0 01.744-4.932 6.4 6.4 0 012.1-2.988 5.184 5.184 0 013.18-1.008 5.184 5.184 0 013.18 1.008 6.4 6.4 0 012.1 2.988 14.134 14.134 0 01.74 4.932 14.363 14.363 0 01-.744 4.944 6.638 6.638 0 01-2.1 3.06 5.063 5.063 0 01-3.176 1.044zm0-2.76a1.97 1.97 0 001.392-.564 3.928 3.928 0 00.936-1.944 16.712 16.712 0 00.336-3.78 16.356 16.356 0 00-.336-3.768 3.644 3.644 0 00-.936-1.872 2.043 2.043 0 00-1.392-.528 2.027 2.027 0 00-1.356.528 3.711 3.711 0 00-.972 1.872 15.3 15.3 0 00-.36 3.768 15.635 15.635 0 00.36 3.78 4 4 0 00.972 1.944 1.957 1.957 0 001.356.564zm9.048 2.424v-2.88h3.84V35.686h-3.24v-2.208a15.132 15.132 0 002.316-.624 10.808 10.808 0 001.812-.864h2.616v14.424h3.336v2.88z"/></svg>