<svg data-name="コンポーネント 65 – 4" xmlns="http://www.w3.org/2000/svg" width="70" height="66.211"><defs><clipPath id="a"><path data-name="長方形 24649" fill="#ff0" d="M0 0h70v66.211H0z"/></clipPath></defs><g data-name="グループ 61247"><g data-name="グループ 61246" clip-path="url(#a)"><path data-name="パス 152955" d="M65.753 20.555a140.277 140.277 0 00-20.641-17.45 17.858 17.858 0 00-20.507.268A177.036 177.036 0 004.39 20.624a14.646 14.646 0 00.132 21.04A194.944 194.944 0 0026.5 59.762a14.717 14.717 0 0016.876.048l.032-.022a21.051 21.051 0 0014.018 6.424S50.113 61.977 49 55.728a171.433 171.433 0 0016.675-14.45 14.664 14.664 0 00.082-20.723" fill="#ff0"/></g></g><text transform="translate(15 24.752)" font-size="16" font-family="NotoSansJP-Bold, Noto Sans JP" font-weight="700"><tspan x="0" y="0">STEP</tspan></text><text data-name="3" transform="translate(21 49.294)" font-size="24" font-family="NotoSansJP-Bold, Noto Sans JP" font-weight="700"><tspan x="0" y="0">03</tspan></text></svg>