<svg data-name="グループ 61057" xmlns="http://www.w3.org/2000/svg" width="38.013" height="40.299"><defs><clipPath id="a"><path data-name="長方形 22348" fill="#f8f8f8" d="M0 0h38.013v40.299H0z"/></clipPath></defs><g data-name="グループ 59415" clip-path="url(#a)" fill="#f8f8f8"><path data-name="パス 145459" d="M9.782 14.1a2.261 2.261 0 00-.164-2.979c-.778-.878-.347-1.307-.347-1.307l9.273-1.848 9.273-1.849s.562.231.181 1.34a2.258 2.258 0 00.992 2.815 29.135 29.135 0 006.869.7c1.605-.149 2.17-2.069 2.154-2.582S38.165 2.677 33 .951 21.644.2 17.174 1.094 6.609 3.458 2.5 7.031s-1.96 8.31-1.777 8.79 1.44 2.037 2.98 1.559a29.226 29.226 0 006.079-3.28"/><path data-name="パス 145460" d="M20.827 32.075a5.271 5.271 0 10-3.729-1.543 5.244 5.244 0 003.729 1.543"/><path data-name="パス 145461" d="M29.67 13.031a.9.9 0 00-.8-.484h-2.657a.6.6 0 00-.6.6v1.819a.6.6 0 01-.6.6h-8.37a.6.6 0 01-.6-.6v-1.817a.6.6 0 00-.6-.6h-2.664a.9.9 0 00-.8.484l-6.551 12.54a15.291 15.291 0 00-1.739 7.089v2.926a3 3 0 003 3h.751v1.71h3.057v-1.705h20.658v1.71h3.057v-1.71h.75a3 3 0 003-3V32.66a15.308 15.308 0 00-1.74-7.089zM12.588 26.802a8.239 8.239 0 118.239 8.238 8.241 8.241 0 01-8.239-8.238"/></g></svg>