<svg xmlns="http://www.w3.org/2000/svg" width="30" height="30"><defs><clipPath id="a"><path data-name="長方形 22957" fill="none" d="M0 0h30v30H0z"/></clipPath></defs><g data-name="グループ 61112" clip-path="url(#a)"><path data-name="パス 148158" d="M23.532 30H6.849A6.849 6.849 0 010 23.15V6.467A6.849 6.849 0 016.849-.382h16.683a6.849 6.849 0 016.849 6.849V23.15a6.849 6.849 0 01-6.849 6.849" fill="#70c55e"/><path data-name="パス 148159" d="M25.317 13.378c0-4.532-4.544-8.22-10.129-8.22S5.059 8.846 5.059 13.378c0 4.063 3.6 7.466 8.471 8.11.33.071.779.218.892.5a2.08 2.08 0 01.033.916l-.145.867c-.044.256-.2 1 .877.546a32.705 32.705 0 007.959-5.881 7.314 7.314 0 002.171-5.058" fill="#fff"/><path data-name="パス 148160" d="M21.947 15.995h-2.846a.193.193 0 01-.193-.193v-4.413a.193.193 0 01.193-.193h2.846a.194.194 0 01.193.193v.718a.193.193 0 01-.193.193h-1.934v.746h1.934a.194.194 0 01.193.193v.718a.193.193 0 01-.193.193h-1.934v.746h1.934a.194.194 0 01.193.193v.718a.193.193 0 01-.193.193" fill="#70c55e"/><path data-name="パス 148161" d="M11.42 15.995a.193.193 0 00.193-.193v-.718a.194.194 0 00-.193-.193H9.486v-3.509a.194.194 0 00-.193-.193h-.718a.193.193 0 00-.193.193v4.417a.193.193 0 00.193.193h2.846z" fill="#70c55e"/><path data-name="パス 148162" d="M13.134 11.188h-.718a.193.193 0 00-.193.193v4.421a.193.193 0 00.193.193h.718a.193.193 0 00.193-.193v-4.421a.193.193 0 00-.193-.193" fill="#70c55e"/><path data-name="パス 148163" d="M18.024 11.188h-.718a.193.193 0 00-.193.193v2.626l-2.023-2.731-.016-.02-.012-.012-.011-.009h-.005l-.01-.007h-.006l-.011-.006h-.803a.193.193 0 00-.193.193v4.421a.193.193 0 00.193.193h.718a.193.193 0 00.193-.193v-2.625l2.025 2.735a.2.2 0 00.05.049l.012.007h.043a.2.2 0 00.051.007h.714a.193.193 0 00.193-.193v-4.421a.193.193 0 00-.193-.193" fill="#70c55e"/></g></svg>