<svg xmlns="http://www.w3.org/2000/svg" width="30" height="23.112"><defs><clipPath id="a"><path data-name="長方形 22261" fill="none" stroke="rgba(0,0,0,0)" d="M0 0h30v23.112H0z"/></clipPath></defs><g data-name="Youtube-icon" clip-path="url(#a)" stroke="rgba(0,0,0,0)"><path data-name="パス 145455" d="M10.968 23.057q5.488.152 10.976-.109c1.188-.064 2.377-.134 3.559-.291a5.38 5.38 0 001.886-.507 4.094 4.094 0 002.017-2.77 30.037 30.037 0 00.51-4.618 61.536 61.536 0 00-.041-7.145 26.214 26.214 0 00-.481-3.94 4.081 4.081 0 00-2.031-2.73 6.053 6.053 0 00-2.075-.522C23.466.212 21.634.141 19.8.078Q13.943-.114 8.081.162a33.768 33.768 0 00-4.444.439A3.825 3.825 0 00.945 2.725a7.729 7.729 0 00-.575 2.31A55.774 55.774 0 000 11.459a58.585 58.585 0 00.327 6.282 8.334 8.334 0 00.662 2.736 3.933 3.933 0 001.654 1.689 6.132 6.132 0 002.1.523c2.068.239 4.147.3 6.223.367M12 16.494V6.618l7.77 4.938L12 16.494" fill="#da546c"/><path data-name="パス 145456" d="M11.999 16.493q3.886-2.467 7.77-4.939l-7.77-4.938v9.876" fill="#fff"/></g></svg>