<svg width="52" height="63" fill="none" xmlns="http://www.w3.org/2000/svg"><g clip-path="url(#clip0_345_86)"><mask id="a" style="mask-type:luminance" maskUnits="userSpaceOnUse" x="0" y="0" width="213" height="63"><path d="M212.155 0H0v62.88h212.155V0z" fill="#fff"/></mask><g mask="url(#a)" fill-rule="evenodd" clip-rule="evenodd"><path d="M34.192 24.945a40.87 40.87 0 004.97 1.993 1.534 1.534 0 001.826-.655c.26-.471.395-1.011.64-1.492a1.343 1.343 0 00-.135-1.543 1.912 1.912 0 01-.3-1.12c-.011-.643.205-1.26.2-1.88-.01-1.058.818-1.488 1.377-2.128a.207.207 0 01.2 0c.33.53.637-.164.979-.017.187.08.283-.045.407-.273a1.451 1.451 0 01.9-.716 6.382 6.382 0 012.467.01 5.063 5.063 0 013.012 1.714c.25.354.66.558.838 1a5.42 5.42 0 01.072 2.453 9.857 9.857 0 01-1.118 2.54 2.75 2.75 0 01-1.478 1.369 1.468 1.468 0 00-.815.835 83.858 83.858 0 01-2.273 4.336 8.832 8.832 0 01-1.974 2.5c-.357.3-.721.589-1.086.877a.938.938 0 01-.252.14 5.78 5.78 0 01-4.021.053c-1.28-.43-2.49-.991-3.726-1.505-.5-.21-.55-.2-.732.3a6.29 6.29 0 01-2.6 3.473 1.57 1.57 0 01-.886.388.624.624 0 00-.433.344 1.406 1.406 0 00.58 2.123 16.82 16.82 0 013.444 2.685c.099.141.224.263.368.359a8.503 8.503 0 011.877 1.7c.175.159.388.553.316.66-.263.393.043.536.238.686.358.275.77.48 1.137.744.91.656 1.786 1.362 2.69 2.02a27.353 27.353 0 013.295 2.517.715.715 0 00.532.228 9.381 9.381 0 001.469-.2c.714-.085 1.45.024 2.17-.036a2.47 2.47 0 011.533.554 1.4 1.4 0 01.636 1.176 3.867 3.867 0 01-.481 2.187 5.457 5.457 0 01-1.181 1.579c-.463.386-.92.779-1.38 1.17a10.854 10.854 0 01-3 1.763 9.246 9.246 0 01-3.3.267 1.1 1.1 0 01-.523-.22 14.064 14.064 0 01-2.785-2.755c-.42-.56-.89-1.081-1.4-1.56-.785-.728-1.622-1.4-2.44-2.1a11.207 11.207 0 00-1.468-1.206 13.902 13.902 0 00-2.164-1.264c-.806-.3-1.527-.78-2.35-1.08-.59-.215-1.186-.47-1.787-.671-.332-.111-.355-.63-.8-.52-.347.084-.7.13-1.05.215-.151.037-.287.188-.434.193-1.14.137-2.285.212-3.433.227a4.81 4.81 0 01-2.022-.383 1.31 1.31 0 00-1.42.085c-.71.5-1.543.8-2.41.868a12.287 12.287 0 01-5.447-.55 10.438 10.438 0 01-3.652-2.184c-.431-.446-.662-.438-1.2-.062a10.28 10.28 0 01-1.47.962 4.295 4.295 0 01-1.975.226.858.858 0 01-.951-.905 5.428 5.428 0 01.006-.827c.032-.252.153-.492.195-.744.038-.526.116-1.048.234-1.562.288-.845.63-1.67 1.023-2.471.31-.641.86-1.135 1.17-1.792.124-.265.424-.447.643-.667-.24-.277-.16-.614-.166-.933a7.105 7.105 0 01.009-1.137c.04-.484.156-.958.345-1.405a31.187 31.187 0 001.093-3.067 17.681 17.681 0 011.869-4.191 31.99 31.99 0 012.236-2.9 9.53 9.53 0 012.02-1.6 3.12 3.12 0 00.919-.862 3.454 3.454 0 012.987-1.65c.827.02 1.656-.013 2.483.012.354.01.749-.162 1.064.189a.4.4 0 00.388-.006c.217-.271.5-.148.755-.2a.33.33 0 00.17-.277c-.051-.18-.2-.332-.26-.511-.1-.272-.072-.637-.247-.816-.175-.18-.606.093-.818-.241-.515.133-.83-.307-1.1-.546a2.439 2.439 0 01-.83-1.383 3.312 3.312 0 01.665-3.014c.15-.148 0-.192-.026-.3a3.016 3.016 0 01-.063-2.4c.022-.041-.072-.21-.13-.22-.166-.03-.393-.08-.507 0-.65.465-1.294.132-1.9-.03a6.05 6.05 0 01-2.272-1.238 1.243 1.243 0 01-.3-.746c-.01-.066.309-.258.479-.261 1.046-.018 1.762-.573 1.96-2.044.075-.558.112-1.131.226-1.67a5.67 5.67 0 01.984-2.17c.134-.143.296-.258.476-.338A7.137 7.137 0 0119.6 2.356c.712.022 1.382.239 2.087.246a.638.638 0 01.406.246c.18.23.34.474.478.73a1.173 1.173 0 001.529.487 7.185 7.185 0 012.837-.65c.413.018.829-.018 1.242.009.399-.042.802.017 1.172.172.344.195.872-.124 1.244.236.579-.164 1.01.265 1.472.446a11.14 11.14 0 013.117 1.715 16.9 16.9 0 001.686 1.439 4.16 4.16 0 011.43 1.475 8.132 8.132 0 011.446 4.468c-.017.354-.2.7-.186 1.052a5.43 5.43 0 01-.707 2.817c-.084.156-.186.239-.063.435.3.594.422 1.263.35 1.926a1.431 1.431 0 01-.4 1.078 10.5 10.5 0 01-.81.8c-.198.164-.43.284-.678.35a9.565 9.565 0 01-1.361.21c-.228.02-.2.176-.29.3-.567.779-1.184 1.522-1.838 2.345.15.092.284.189.43.259m-8.472 22.88c1.35-.344 2.532-1.061 3.857-1.435.79-.3 1.62-.485 2.464-.55.321-.034.639-.098.948-.192.291-.033.58-.083.865-.15a6.345 6.345 0 011.633-.065 1.12 1.12 0 00.337-.131 1.113 1.113 0 00-.175-.338c-.6-.545-1.216-1.065-1.807-1.616a15.174 15.174 0 00-1.854-1.494 25.961 25.961 0 01-2.31-1.663 1.843 1.843 0 00-1.695-.261 5.07 5.07 0 01-.671.12c-1 .014-2-.004-3 .01a11.405 11.405 0 01-3.827-.744c-1.3-.441-2.6-.863-3.89-1.338-.626-.24-1.23-.53-1.81-.866-.186-.106-.226-.08-.38.022-.482.317-1.021.553-1.483.9-.558.431-1.092.893-1.6 1.384-.16.149-.227.4-.376.562a.79.79 0 00.025 1.228c.194.173.333.4.4.652a4.84 4.84 0 001.445 2.4 20.02 20.02 0 002.037 2.052 7.8 7.8 0 002.746 1.61c.21.072.426.134.637.209a5.87 5.87 0 002.8.406 16.078 16.078 0 004.683-.711m.406-35.421a4.446 4.446 0 01-1.8 1.17c-.5.183-.57.182-.721-.325-.111-.37-.184-.406-.426-.193-.632.558-1.273 1.106-1.883 1.687-.28.267-.63.476-.62.993.007.313-.478.4-.677.1-.55-.838-1.373-.614-2.131-.6a.9.9 0 00-.552.383 2.234 2.234 0 00.8 3.357c.375.134.775.19 1.173.166.423.054.618.188.583.628a3.79 3.79 0 00.819 2.147 6.795 6.795 0 001.842 2.013c.68.54 1.451.954 2.278 1.22.442.188.906.323 1.38.4 1.065.06 2.136.029 3.2.014a21.708 21.708 0 003.415-1.25 9.77 9.77 0 001.1-1.09c.708-.844 1.3-1.781 1.757-2.784.12-.297.218-.601.294-.911a6.55 6.55 0 00.27-1.126 2.6 2.6 0 00-.34-1.615 16.759 16.759 0 00-1.187-1.986 1.548 1.548 0 01-.313-.692c-.084-.588-.562-.937-.8-1.43-.11-.226-.323-.232-.49-.015a7.55 7.55 0 00-.838.992c-.27.38-.638.681-1.063.874a1.01 1.01 0 01-.75-.055.508.508 0 01-.19-.715c.167-.365.23-.77.18-1.168a.337.337 0 00-.1-.258.315.315 0 00-.27.052c-.581.43-1.134.905-1.741 1.3-.29.22-.652.326-1.016.295-.286-.042-.72-.494-.571-.716.133-.192.198-.422.185-.654v-.761a4.791 4.791 0 00-.8.554m2.448 26.61a.534.534 0 00.25-.14 2.05 2.05 0 00.762-1.53 8.784 8.784 0 01.656-3.258c.184-.692.333-1.393.445-2.1a22.68 22.68 0 00.157-4.058 9.394 9.394 0 00-.2-1.568.25.25 0 00-.092-.164 1.2 1.2 0 00-1.114.27 3.55 3.55 0 01-3.381 1.786c-.07 0-.138.005-.206 0-.331-.031-.747.049-.976-.121a2.343 2.343 0 01-1.058-1.406A2.172 2.172 0 0022.529 25c-.264-.116-.346-.055-.38.229a16.93 16.93 0 01-.274 1.746c-.227.527-.42 1.068-.576 1.62-.8.99-1.052 2.34-2.113 3.164a3.808 3.808 0 00-.618.762 5.968 5.968 0 01-1.918 1.563c-.313.175-.573.442-.871.648a1.269 1.269 0 00-.473 1.157.858.858 0 00.645.969c.9.324 1.79.668 2.679 1.02a23.06 23.06 0 002.624.887 8.441 8.441 0 002.92.486 5.764 5.764 0 011.5.244c1.012-.166 1.952-.318 2.89-.48m-1.6-28.498c.137-.132.263-.391.49-.234a.728.728 0 01.283.489c.035.585.02 1.172.008 1.758-.02.135-.058.268-.112.394.162-.015.378.03.478-.055a13.72 13.72 0 001.966-1.52c.22-.271.456-.663.915-.438.394.192.27.584.275.915.005.48 0 .96 0 1.47.267.05.323-.2.45-.3.142-.14.269-.294.378-.46a5.21 5.21 0 01.363-.47c.7-.718 1.085-.708 1.648.1.463.66.882 1.35 1.254 2.065a20.73 20.73 0 011.5 2.69c.077.227.216.2.388.088.1-.064.3-.15.34-.11.423.413.563.06.718-.247a3.5 3.5 0 00.425-1.587c0-.663.225-1.3.22-1.983a5.382 5.382 0 00-.45-1.892 5.927 5.927 0 00-1.445-2.505 22.95 22.95 0 00-2.271-2.023 15.738 15.738 0 00-4.02-2.023 11.338 11.338 0 00-3.454-.4 5.8 5.8 0 00-2.524.407c-.58.263-.668.28-.445.829a.586.586 0 01-.006.643.593.593 0 00-.1.368c.066.7-.365 1.014-.906 1.289-.178.09-.364.14-.531.217-.316.145-.666.107-.94.229-.164.074-.143.529-.24.8a1.016 1.016 0 01-1.194.81c-.488-.078-1.016.176-1.477-.188-.051-.04-.272.043-.337.128a5.2 5.2 0 00-1.206 3.735c.037.254.107.502.209.739a.3.3 0 00.225.135c.31.026.62.026.93 0a1.215 1.215 0 01.938.228.51.51 0 00.73-.086c.54-.508 1.017-1.085 1.517-1.637.159-.175.3-.485.479-.5.934-.1 1.122-.941 1.59-1.5.087-.137.184-.269.289-.393.116-.1.317-.26.406-.221.205.09.418.262.339.553-.1.37-.226.735-.326 1.105-.05.178-.066.364-.108.607a11 11 0 002.342-2.02zm16.2 22.942a8.567 8.567 0 001.247-1.221 23.723 23.723 0 002.019-3.3c.324-.693.684-1.37 1.015-2.06.082-.174.139-.359.17-.548.026-.161-.01-.256-.216-.363a37.27 37.27 0 00-3.927-1.75c-.67-.254-.712-.137-1.046.555-.277.574-.207 1.315-.807 1.734-.207.78-.961.927-1.522 1.29a.594.594 0 01-.49.036c-.585-.272-1.24-.276-1.827-.587a18.394 18.394 0 00-2.228-.852 20.305 20.305 0 01-.534-.207l-.828-.332c.062.279.04.627.2.818a1.136 1.136 0 01.184.86c.008 1.55.008 3.1 0 4.65 0 .277.01.475.369.426.129-.018.312-.032.39.04a9.72 9.72 0 002.767 1.314c.79.383 1.667.555 2.544.5a2.9 2.9 0 002.52-1m-28.736-9.564a5.782 5.782 0 00-3.66 1.154 14.06 14.06 0 00-3.091 3.145 15.25 15.25 0 00-1.12 1.7A29.158 29.158 0 005.2 33.365a1.053 1.053 0 00.525 1.3c.802.387 1.625.729 2.465 1.023a3.03 3.03 0 001.127.01c.077-.005.175-.15.21-.25a22.224 22.224 0 011.2-3.322 4.54 4.54 0 013.192-2.244c.825-.146 1.663-.2 2.5-.161a.988.988 0 00.967-.587 13.94 13.94 0 00.85-2.333 12.3 12.3 0 00.209-2.891c-1.41 0-2.718.047-4.022-.013M45.7 52.274c-.562 0-1.1.222-1.5.617-1.414 1.378-2.854 2.729-4.284 4.09a.628.628 0 00-.143.147c-.1.189-.562.024-.421.422.052.187.154.356.294.49.56.55 1.212.996 1.926 1.319.182.06.367.111.554.153.1.02.242.047.3 0 .434-.358.977-.087 1.438-.27.325-.128.67-.215.98-.371a9.27 9.27 0 001.07-.651c.725-.5 1.463-.985 2.147-1.535a5.944 5.944 0 001.584-2.433c.47-1.107-.231-1.965-1.474-1.978h-1.237c-.413 0-.826-.01-1.238 0m-14.728-1.888c1.024.556 1.999 1.2 2.912 1.925.175.14.239.128.378-.015.082-.083.253-.076.342-.156.756-.673 1.524-1.337 2.246-2.046.476-.467.884-1 1.32-1.513a.454.454 0 00-.014-.7 5.604 5.604 0 00-.466-.367c-.394-.293-.783-.594-1.188-.871a1.5 1.5 0 00-.877-.375 5.193 5.193 0 00-1.836.052c-.541.237-1.163-.1-1.6.365a5.336 5.336 0 00-2.2.414c-.452.156-.912.289-1.351.476-.644.273-1.271.586-1.907.882 1.379.7 2.873 1.175 4.247 1.932M45.93 18.532c.166.135.315.29.443.46.256.33.46.696.6 1.089.063.514.072 1.034.026 1.55.15-.346.323-.684.515-1.01a.5.5 0 01.409-.206.513.513 0 01.3.366 2.838 2.838 0 01-.107.67 3.47 3.47 0 00-.02.353c.143-.047.322-.057.419-.151.11-.156.21-.319.3-.487a.3.3 0 01.555.07c.106.235.118.502.033.746-.211.307-.09.57-.12.877.193-.048.376-.13.54-.242.187-.2.26-.065.377.049a.26.26 0 01-.005.428c-.114.129-.237.25-.368.36-.668.466-1.14.294-1.374-.53-.081-.284-.17-.328-.4-.177a.252.252 0 01-.213.032.909.909 0 00-.841-.013c-.564.207-.665.156-.813-.444-.068-.276-.125-.314-.392-.214-.77.289-1.188.28-1.5-.673-.087-.265-.377-.462-.563-.7a.208.208 0 01-.035-.184.338.338 0 01.207-.155 9.981 9.981 0 011.24 0 .518.518 0 00.58-.311.688.688 0 00-.093-.76c-.22-.205-.385-.46-.772-.4a5.88 5.88 0 01-1.135.009 1.472 1.472 0 00-1.175.414c-.313.337-.49.777-.5 1.237-.047.547-.014 1.1-.01 1.653 0 .639.19.98.808 1.025 1.035.22 2.033.588 2.963 1.095a6.292 6.292 0 012.062 1 .717.717 0 00.737.19c.334-.1.632-.298.856-.566a8.137 8.137 0 001.273-2.464c.068-.336.327-.634.39-.97a2.447 2.447 0 00-.63-1.9 5.293 5.293 0 00-2.51-1.674 1.385 1.385 0 00-.491-.06c-.687-.006-1.374 0-2.295 0 .334.283.537.447.729.622M37.625 55.64c.314.34.61.7.883 1.074a.25.25 0 00.424.005 6566.99 6566.99 0 004.507-4.305c.338-.324.323-.48-.011-.714-.692-.487-1.393-.961-2.075-1.46-.611-.447-1.2-.92-1.8-1.383a.441.441 0 00-.631.009 2.414 2.414 0 00-.434.44 19.883 19.883 0 01-2.638 2.82 9.473 9.473 0 01-1.1.865c.982.9 1.942 1.76 2.87 2.649M14.88 11.267a2.525 2.525 0 002.656-1.255 2.289 2.289 0 00.474-1.763 1.816 1.816 0 01.856-1.6c.275-.118.577-.158.873-.115.249 0 .335-.055.37-.334.045-.351.188-.678.209-1.053.034-.638.479-1 1.163-1.108.092-.024.182-.058.267-.1-.05-.117-.065-.277-.153-.345a1.493 1.493 0 00-.978-.384 13.963 13.963 0 00-2.065.027c-1.214.22-2.468.464-3.064 1.786a3.38 3.38 0 00-.377 1.3c-.04.423-.106.844-.2 1.259a6.76 6.76 0 01-.22 1.254 2.51 2.51 0 01-1.845 1.55 15.98 15.98 0 002.029.887M3.664 46.662c.4-.325.86-.582 1.282-.885a.8.8 0 00.237-.311A449.69 449.69 0 007.2 41.039c.154-.344.055-.4-.34-.578a2.118 2.118 0 00-.951-.2 2.051 2.051 0 01-1.61-.35.352.352 0 00-.336.042 5.714 5.714 0 00-1.247 1.439c-.276.539-.56 1.075-.838 1.613A8.14 8.14 0 001 45.752c-.072.557-.123 1.11-.175 1.683a3.017 3.017 0 002.838-.773m5.866-4.92c-.577-.13-.97-.644-1.583-.616a14.227 14.227 0 01-.521 1.54c-.35.753-.77 1.473-1.155 2.209-.044.083-.038.19-.077.277-.556 1.213-.473 1.118.49 1.97.939.624 1.93 1.166 2.962 1.618.048.03.267-.08.289-.16a66.69 66.69 0 00.824-3.066c.045-.221.115-.436.21-.64.098-.23.171-.47.218-.716a2.283 2.283 0 00-1.657-2.415zm5.494-10.59a1.74 1.74 0 00.093-.27c.014-.164.04-.361-.227-.345a3.793 3.793 0 00-3.284 1.657c-.435.602-.72 1.3-.831 2.034-.64.925-.32 2.107-.818 3.075a1.113 1.113 0 00-.007.515.811.811 0 001.093.632c.151-.052.293-.128.42-.224a10.757 10.757 0 012.41-1.682 1.955 1.955 0 00.8-2.158 3.506 3.506 0 01-.141-.911 5.228 5.228 0 01.5-2.318M31.7 36.203a5.964 5.964 0 001.837-2.957c.412-1.419.546-2.904.393-4.373-.027-.3-.222-.632-.162-.95a4.856 4.856 0 00-.432-2.207.563.563 0 00-.742-.327c-.118.046-.225.122-.34.178-.743.363-1.006.824-.713 1.574.094.244.142.505.14.767.015.793.029 1.587 0 2.379a9.05 9.05 0 01-.2 1.259c-.071.385.188.827-.2 1.158a9.366 9.366 0 01-.785 3.087 4.09 4.09 0 00-.02 1.213c.424-.244.833-.511 1.226-.8m-12.72-9.054a9.998 9.998 0 01-.907 2.2c-.427.71-.652 1.517-1.074 2.239a4.346 4.346 0 01-1.522 1.65c-.1.059-.137.278-.133.42 0 .066.23.2.26.178.387-.3.888-.39 1.24-.766a58.054 58.054 0 012.259-2.262c.283-.314.504-.679.65-1.075.504-.85.916-1.75 1.232-2.686.18-.592.299-1.201.353-1.817.027-1.095-.03-1.293-.7-1.912a.977.977 0 00-1.255-.021.56.56 0 00-.113.355c-.015.343 0 .687 0 1.03l.048.007a13.67 13.67 0 01-.328 2.46m-11.74 8.968a7.292 7.292 0 01-2.315-1.16c-.024-.023-.178.029-.207.08a4.317 4.317 0 00-.787 2.157c.009.413 0 .828 0 1.24 0 .483.1.7.528.774a.993.993 0 01.706.315.334.334 0 00.256.113c.244-.033.579-.227.705-.131.267.2.52.115.779.134.275.026.551.026.826 0a.66.66 0 00.426-.2c.298-.342.54-.728.719-1.145.143-.59.24-1.19.289-1.794a3.06 3.06 0 01-1.925-.383zm9.258 12.26c-.473-.267-.966-.505-1.415-.81-.47-.316-.718-.9-1.3-1.1-.33-.635-1.167-.823-1.383-1.564-.025-.087-.134-.154-.213-.22-.157-.131-.31-.145-.384.08-.19.576-.36 1.157-.548 1.732a16.44 16.44 0 01-.465 1.767c-.244.547.076.89.694.9 1.03.007 2.063.017 3.093-.007a2.84 2.84 0 00.84-.2c.269-.094.52-.238.782-.354.116-.051.239-.085.364-.13-.03-.041-.04-.075-.063-.09m6.878-43.23a2.91 2.91 0 00-1.345-.49 1.242 1.242 0 00-1.126 1.357c.007.738.534 1.392 1.15 1.314a2.6 2.6 0 001.239-.455c.233-.182.258-.63.31-.771-.017-.482.043-.746-.227-.957m14.655 12.825a.474.474 0 00-.6-.265.588.588 0 00-.4.509 13.23 13.23 0 01-.555 2.235c-.074.25-.123.507-.15.767.255-.03.5-.104.729-.22.435-.32.83-.692 1.177-1.107.137-.172.05-.523.078-1.012a7.054 7.054 0 00-.285-.907m-10.816 8.423a5.92 5.92 0 01-2.308-.412.749.749 0 00-.205 0c-.215-.016-.352.128-.27.3.112.299.26.583.439.847a1.376 1.376 0 001.433.49 9.225 9.225 0 001.6-.614c.298-.18.58-.384.842-.612-.652 0-1.092-.005-1.532 0m-14.24-3.514c-.067.03-.147.2-.13.219.078.08.22.2.282.177a6.525 6.525 0 012.5-.19c.859-.028 1.72 0 2.58-.012.143 0 .378-.058.41-.147.125-.337-.255-.2-.37-.33a.424.424 0 00-.255-.131c-.865-.08-1.73-.148-2.9-.245a4.444 4.444 0 00-2.117.66M20.127 9.01c.318.034.7 0 .763-.317.063-.317.184-.734-.178-1.036-.3-.253-.512-.578-1.018-.533a.971.971 0 00-.836.605c-.4.807-.07 1.27.86 1.28h.2c.068 0 .137-.006.2 0M10.3 39.378s-.1-.147-.133-.14c-.23.053-.32-.463-.608-.144-.137.152-.285.3-.436.436-.121.113-.25.3-.382.3-.29.012-.606.079-.6.35 0 .15.377.32.608.43.364.17.749.3 1.19.466.024-.594-.106-1.222.359-1.7m5.825-8.913c-.3.45-.5.96-.588 1.493-.015.052.03.12.048.182.072-.038.173-.058.212-.118.226-.348.447-.7.646-1.061.07-.144.11-.3.115-.46 0-.062-.1-.132-.17-.22a1.336 1.336 0 00-.263.184z" fill="#1A1311"/><path d="M21.038 48.539a16.078 16.078 0 004.683-.711c1.35-.343 2.532-1.061 3.857-1.435.79-.3 1.62-.485 2.463-.55.322-.033.639-.098.948-.192.29-.033.58-.083.864-.15a6.372 6.372 0 011.633-.065c.119-.025.233-.07.337-.131a1.125 1.125 0 00-.175-.338c-.6-.545-1.216-1.065-1.807-1.616a15.174 15.174 0 00-1.854-1.494 25.872 25.872 0 01-2.31-1.663 1.843 1.843 0 00-1.695-.261c-.22.054-.445.095-.67.12-1 .014-2-.004-3 .01a11.408 11.408 0 01-3.828-.744c-1.3-.441-2.6-.863-3.89-1.338-.626-.24-1.231-.53-1.81-.866-.187-.106-.226-.08-.38.022-.483.317-1.022.553-1.484.9-.558.431-1.092.893-1.6 1.384-.16.149-.227.4-.376.562a.792.792 0 00.025 1.228c.194.173.334.4.4.65a4.84 4.84 0 001.445 2.4c.629.733 1.31 1.419 2.037 2.053a7.8 7.8 0 002.746 1.61c.212.074.427.135.637.21a5.869 5.869 0 002.8.406" fill="#FFEC00"/><path d="M26.922 12.614c.013.232-.052.462-.185.654-.149.222.285.674.571.716a1.47 1.47 0 001.016-.295c.607-.392 1.16-.866 1.742-1.3a.314.314 0 01.27-.052.335.335 0 01.1.258c.05.398-.013.803-.18 1.168a.507.507 0 00.19.715c.234.114.502.133.75.055a2.633 2.633 0 001.062-.874 7.51 7.51 0 01.84-.992c.165-.217.38-.211.49.016.236.492.715.84.8 1.429.045.253.152.49.312.692.441.635.838 1.3 1.187 1.989a2.6 2.6 0 01.341 1.615 6.54 6.54 0 01-.27 1.126c-.077.31-.176.614-.296.91a12.22 12.22 0 01-1.756 2.786 9.77 9.77 0 01-1.1 1.09c-1.1.508-2.24.924-3.41 1.242-1.068.015-2.139.047-3.2-.013a6.063 6.063 0 01-1.38-.4 7.195 7.195 0 01-2.278-1.221 6.789 6.789 0 01-1.842-2.013 3.79 3.79 0 01-.819-2.147c.035-.44-.16-.573-.583-.628a2.933 2.933 0 01-1.173-.166 2.234 2.234 0 01-.8-3.357.9.9 0 01.552-.383c.757-.016 1.581-.24 2.131.6.2.3.684.215.678-.1-.01-.517.34-.726.62-.993.61-.581 1.251-1.13 1.882-1.687.242-.213.315-.177.425.193.152.508.225.508.722.326a4.446 4.446 0 001.8-1.171 4.79 4.79 0 01.8-.554v.76m-1.35 7.372c-.3.158-.21.343-.116.619.3.879.73 1.7 1.067 2.558.14.23.341.415.581.537.45.3.468.29.824-.074a10.841 10.841 0 012.587-1.994c.118-.07.22-.163.3-.273a.388.388 0 00-.177-.547 7.333 7.333 0 00-1.183-.402c-.8-.17-1.608-.276-2.41-.428-.282-.053-.554-.161-.91-.268-.173.084-.376.175-.57.279m5.018-4.2c-.473.3-.357.763-.34 1.2a.315.315 0 00.251.088c.135-.09.313-.211.34-.346.1-.531.488-.464.857-.474.37-.01.527.154.618.507.102.269.237.525.4.762.131.238.288.268.436.042.1-.154.232-.432.166-.53-.275-.4-.346-.918-.749-1.25-.268-.218-.476-.521-.823-.338a1.486 1.486 0 00-1.156.344m-4.556-.994c-.209-.11-.409-.287-.633-.187-.348.135-.67.332-.95.58-.196.25-.338.536-.42.843-.04.106-.01.335.056.366a.546.546 0 00.464.024c.165-.136.228-.39.381-.546.153-.157.056-.565.513-.468.324.069.674-.018.856.368.063.146.148.283.25.406.08.053.177.073.271.058.036 0 .08-.1.094-.157a2.428 2.428 0 000-.4c-.027-.386-.426-.647-.886-.887m1.946 4.229c.5-.34.5-.332 1.065.064a.351.351 0 00.337-.038c.108-.106.242-.294.215-.413a.958.958 0 00-1.617-.441 3.768 3.768 0 00-.43.445c-.036.049.021.19.07.27.062.083.135.158.215.224.048-.037.095-.077.145-.112" fill="#fff"/><path d="M25.682 39.498c1.012-.166 1.952-.318 2.89-.48a.525.525 0 00.25-.14 2.046 2.046 0 00.762-1.53 8.774 8.774 0 01.656-3.258 20.91 20.91 0 00.445-2.1c.174-1.345.227-2.703.157-4.058a9.373 9.373 0 00-.2-1.568.25.25 0 00-.092-.164 1.2 1.2 0 00-1.114.269 3.55 3.55 0 01-3.38 1.787h-.207c-.33-.031-.747.049-.976-.121a2.345 2.345 0 01-1.058-1.406 2.171 2.171 0 00-1.285-1.728c-.264-.116-.346-.056-.379.229-.06.586-.152 1.17-.275 1.746a13.285 13.285 0 00-.576 1.621c-.8.989-1.052 2.34-2.113 3.163a3.814 3.814 0 00-.618.763 5.977 5.977 0 01-1.919 1.563c-.313.174-.573.442-.87.648a1.269 1.269 0 00-.473 1.157.858.858 0 00.645.968c.9.324 1.79.668 2.68 1.02.855.349 1.732.645 2.623.887a8.439 8.439 0 002.92.486 5.764 5.764 0 011.5.245" fill="#fff"/><path d="M24.621 12.533a11.018 11.018 0 002.345-2.013c.136-.132.262-.391.49-.235a.728.728 0 01.282.489c.035.585.02 1.172.008 1.758a1.6 1.6 0 01-.113.394c.163-.015.378.031.48-.055.7-.446 1.357-.954 1.965-1.519.221-.272.456-.663.915-.439.394.192.271.584.275.915.005.48 0 .961 0 1.47.267.051.323-.2.451-.3.141-.14.268-.294.377-.46a5.2 5.2 0 01.363-.473c.7-.718 1.085-.709 1.648.1.465.66.886 1.35 1.26 2.066a20.682 20.682 0 011.5 2.689c.076.227.215.2.387.088.1-.064.3-.149.34-.109.423.412.563.06.718-.248a3.5 3.5 0 00.418-1.586c0-.663.225-1.3.221-1.983a5.382 5.382 0 00-.45-1.892 5.927 5.927 0 00-1.446-2.505 23.02 23.02 0 00-2.27-2.02 15.755 15.755 0 00-4.019-2.027 11.322 11.322 0 00-3.455-.4 5.789 5.789 0 00-2.524.407c-.579.263-.668.281-.445.829a.585.585 0 01-.006.643.593.593 0 00-.1.368c.066.7-.365 1.014-.906 1.289-.178.09-.364.141-.53.218-.317.145-.667.107-.94.229-.165.074-.144.529-.24.8a1.016 1.016 0 01-1.195.812c-.488-.079-1.016.174-1.477-.19-.05-.04-.272.043-.337.128a5.2 5.2 0 00-1.206 3.735c.037.254.108.503.21.739a.3.3 0 00.224.135c.31.026.62.026.93 0a1.215 1.215 0 01.937.228.512.512 0 00.731-.086c.54-.508 1.016-1.085 1.516-1.637.16-.175.3-.485.48-.5.933-.1 1.121-.94 1.59-1.5.087-.137.183-.268.288-.393.116-.1.317-.26.406-.221.205.091.418.262.34.553-.1.37-.227.734-.327 1.1-.049.178-.066.365-.108.607" fill="#1A1311"/><path d="M40.647 34.465a2.9 2.9 0 002.52-1 8.53 8.53 0 001.246-1.223 23.77 23.77 0 002.02-3.3c.324-.693.684-1.37 1.015-2.06a2.07 2.07 0 00.17-.548c.026-.16-.009-.255-.217-.363a37.154 37.154 0 00-3.928-1.75c-.669-.254-.713-.137-1.047.555-.277.574-.207 1.315-.806 1.734-.207.78-.962.927-1.522 1.29a.594.594 0 01-.49.036c-.584-.272-1.239-.276-1.827-.587a18.496 18.496 0 00-2.228-.852 21.766 21.766 0 01-.534-.207l-.828-.332c.062.278.041.627.2.818a1.133 1.133 0 01.184.86c.008 1.55.008 3.1 0 4.65 0 .275.012.474.37.425.128-.018.311-.032.39.04a9.692 9.692 0 002.766 1.312 5.106 5.106 0 002.544.5M18.451 23.91c-1.41 0-2.718.048-4.022-.012a5.785 5.785 0 00-3.659 1.154 14.043 14.043 0 00-3.092 3.145c-.41.54-.784 1.109-1.12 1.7a29.15 29.15 0 00-1.356 3.464 1.054 1.054 0 00.525 1.3c.802.387 1.625.728 2.465 1.023.372.073.755.077 1.128.01.077-.005.175-.15.21-.25a22.266 22.266 0 011.206-3.316 4.541 4.541 0 013.192-2.244c.825-.146 1.664-.2 2.5-.161a.988.988 0 00.966-.587 13.97 13.97 0 00.85-2.334 12.32 12.32 0 00.21-2.891M46.933 52.27c-.412 0-.826-.01-1.238 0-.562.001-1.1.222-1.5.617-1.414 1.378-2.854 2.73-4.284 4.09a.648.648 0 00-.143.147c-.1.19-.562.023-.421.422.052.187.154.357.294.492a6.69 6.69 0 001.926 1.318c.182.06.367.112.555.153.1.02.242.047.3 0 .434-.359.977-.087 1.438-.269.325-.128.67-.215.98-.372a9.27 9.27 0 001.07-.65c.725-.5 1.463-.986 2.147-1.536a5.948 5.948 0 001.584-2.433c.47-1.107-.23-1.965-1.474-1.978h-1.234zm-20.21-3.816c1.379.7 2.873 1.175 4.246 1.932 1.024.556 1.999 1.2 2.912 1.924.176.141.239.128.378-.014.082-.084.253-.076.343-.156.756-.674 1.523-1.337 2.246-2.046.476-.468.884-1 1.32-1.513a.457.457 0 00-.014-.7 5.635 5.635 0 00-.467-.367c-.393-.293-.782-.594-1.188-.87a1.5 1.5 0 00-.877-.375 5.165 5.165 0 00-1.836.052c-.541.237-1.163-.1-1.6.365a5.333 5.333 0 00-2.2.414c-.452.156-.912.29-1.351.476-.643.274-1.27.586-1.906.882m18.476-30.552c.334.284.537.447.729.623.165.135.314.29.443.46.256.329.459.696.6 1.088A7.32 7.32 0 0147 21.63c.15-.347.322-.685.514-1.01a.507.507 0 01.41-.207.515.515 0 01.3.366 2.836 2.836 0 01-.107.67 3.357 3.357 0 00-.018.353c.142-.048.32-.057.417-.15.11-.156.21-.319.3-.488a.3.3 0 01.554.07c.106.236.117.503.033.746-.212.307-.09.57-.12.876.216-.092.428-.12.54-.242.187-.2.26-.065.377.05a.26.26 0 01-.006.427 3.38 3.38 0 01-.367.361c-.669.465-1.14.293-1.373-.53-.081-.285-.17-.328-.4-.177a.252.252 0 01-.214.032.907.907 0 00-.846-.013c-.563.207-.664.156-.813-.444-.067-.276-.124-.314-.39-.214-.771.29-1.19.28-1.5-.673-.087-.265-.377-.46-.563-.7a.2.2 0 01-.035-.184.337.337 0 01.208-.155c.412-.025.826-.025 1.238 0a.517.517 0 00.581-.31.689.689 0 00-.093-.762c-.22-.2-.386-.458-.773-.4-.377.04-.757.043-1.135.01a1.476 1.476 0 00-1.175.413c-.312.337-.49.778-.5 1.237-.046.547-.013 1.1-.01 1.653 0 .64.191.981.809 1.026a10.95 10.95 0 012.961 1.095 6.287 6.287 0 012.063 1.005.717.717 0 00.736.19c.335-.101.633-.298.856-.567a8.136 8.136 0 001.273-2.468c.069-.336.328-.634.39-.97a2.447 2.447 0 00-.63-1.9 5.289 5.289 0 00-2.51-1.674 1.377 1.377 0 00-.492-.06c-.687-.007-1.373 0-2.294 0m-10.45 35.077c.982.9 1.942 1.76 2.872 2.649.314.34.609.7.882 1.074a.25.25 0 00.424.005 6566.99 6566.99 0 004.507-4.305c.338-.324.323-.48-.01-.714-.692-.487-1.393-.961-2.076-1.46-.61-.447-1.2-.92-1.8-1.383a.441.441 0 00-.63.009 2.399 2.399 0 00-.434.44 19.946 19.946 0 01-2.635 2.82 9.503 9.503 0 01-1.1.865z" fill="#fff"/><path d="M12.852 10.38c.655.342 1.332.638 2.029.885a2.526 2.526 0 002.656-1.255 2.286 2.286 0 00.474-1.761 1.817 1.817 0 01.856-1.6c.275-.118.577-.158.873-.115.249 0 .335-.055.37-.335.044-.35.188-.678.208-1.053.035-.638.479-1 1.163-1.107.092-.024.181-.058.267-.1-.05-.119-.065-.277-.152-.345a1.5 1.5 0 00-.978-.385 13.956 13.956 0 00-2.064.027c-1.214.221-2.47.464-3.064 1.786a3.39 3.39 0 00-.377 1.3c-.04.424-.107.845-.2 1.26a6.811 6.811 0 01-.22 1.253 2.513 2.513 0 01-1.845 1.551" fill="#1A1311"/><path d="M.832 47.436a3.017 3.017 0 002.838-.773c.4-.325.86-.582 1.281-.885a.8.8 0 00.237-.311c.674-1.476 1.352-2.947 2.013-4.427.154-.344.056-.4-.339-.58a2.124 2.124 0 00-.952-.2 2.049 2.049 0 01-1.612-.348.356.356 0 00-.337.04 5.709 5.709 0 00-1.248 1.439c-.276.539-.56 1.075-.838 1.613a8.14 8.14 0 00-.872 2.747c-.072.557-.123 1.11-.175 1.683m10.359-3.274a2.283 2.283 0 00-1.656-2.42c-.577-.13-.97-.646-1.582-.618a14.335 14.335 0 01-.52 1.54c-.35.753-.77 1.473-1.156 2.21-.043.083-.038.19-.077.276-.555 1.213-.473 1.118.49 1.971a19.44 19.44 0 002.961 1.62c.048.031.267-.08.29-.159.291-1.018.58-2.037.823-3.067a2.9 2.9 0 01.21-.64c.097-.23.17-.47.217-.716" fill="#fff"/><path d="M14.53 33.468c-.012-.8.16-1.594.5-2.318a1.81 1.81 0 00.094-.27c.014-.165.04-.362-.227-.346a3.793 3.793 0 00-3.284 1.657c-.435.602-.72 1.3-.831 2.034-.64.925-.32 2.107-.818 3.075a1.126 1.126 0 00-.01.512.811.811 0 001.095.631c.152-.051.294-.126.422-.223a10.744 10.744 0 012.409-1.682 1.956 1.956 0 00.8-2.158 3.497 3.497 0 01-.141-.91m15.931 3.533c.424-.244.833-.51 1.226-.8a5.96 5.96 0 001.837-2.957 11.41 11.41 0 00.394-4.372c-.027-.3-.223-.632-.162-.95a4.856 4.856 0 00-.433-2.208.56.56 0 00-.741-.326c-.12.046-.225.123-.34.179-.743.363-1.006.824-.713 1.573.094.245.141.505.14.767.015.793.028 1.587 0 2.379a9.11 9.11 0 01-.2 1.259c-.071.385.187.828-.2 1.158a9.372 9.372 0 01-.785 3.087 4.09 4.09 0 00-.02 1.213M19.314 24.688a13.67 13.67 0 01-.328 2.46 9.953 9.953 0 01-.908 2.2c-.427.71-.652 1.517-1.074 2.239a4.355 4.355 0 01-1.522 1.65c-.1.059-.137.278-.134.421 0 .065.232.2.26.177.387-.3.888-.39 1.24-.766a57.363 57.363 0 012.259-2.262c.285-.313.507-.678.654-1.075.503-.85.916-1.75 1.232-2.686.18-.592.298-1.2.352-1.817.027-1.094-.03-1.293-.7-1.912a.977.977 0 00-1.255-.021.56.56 0 00-.113.355c-.015.343-.005.687-.005 1.031l.049.006" fill="#C2C3C2"/><path d="M9.18 36.496a3.056 3.056 0 01-1.929-.378 7.3 7.3 0 01-2.31-1.163c-.024-.023-.178.029-.207.08a4.313 4.313 0 00-.793 2.157c.01.413 0 .827 0 1.24 0 .484.1.7.528.774a.993.993 0 01.706.315.333.333 0 00.256.113c.244-.033.58-.227.705-.131.267.2.521.115.78.134a4.4 4.4 0 00.825 0 .665.665 0 00.426-.2c.298-.342.541-.728.72-1.145.143-.59.24-1.19.288-1.794m7.397 11.974c-.03-.042-.04-.076-.063-.089-.473-.269-.966-.506-1.415-.81-.47-.317-.718-.905-1.3-1.1-.33-.636-1.167-.824-1.383-1.565-.025-.087-.134-.154-.213-.219-.157-.132-.31-.146-.384.08-.19.574-.36 1.155-.548 1.731a16.416 16.416 0 01-.465 1.767c-.244.547.076.891.694.9 1.03.008 2.063.017 3.093-.007a2.8 2.8 0 00.84-.2c.269-.094.52-.238.782-.353.116-.05.239-.085.364-.129m7.044-42.371c-.017-.482.043-.746-.227-.956a2.9 2.9 0 00-1.345-.49 1.241 1.241 0 00-1.126 1.358c.007.738.533 1.392 1.15 1.314a2.6 2.6 0 001.24-.455c.232-.182.257-.629.31-.77M38.332 18.88a7.176 7.176 0 00-.285-.907.474.474 0 00-.6-.265.59.59 0 00-.4.51 13.12 13.12 0 01-.554 2.234c-.074.25-.124.507-.15.767.254-.03.5-.104.728-.219.437-.32.834-.693 1.183-1.109.137-.172.05-.523.078-1.012m-9.577 7.516h-1.53a5.932 5.932 0 01-2.309-.412c-.059-.024-.136 0-.2 0-.215-.016-.352.13-.27.3.112.3.26.584.44.847a1.375 1.375 0 001.431.49 9.26 9.26 0 001.6-.614c.298-.179.58-.384.842-.612" fill="#fff"/><path d="M15.1 22.223a4.452 4.452 0 00-2.117.66c-.067.032-.147.2-.129.22.076.08.22.2.28.177a6.525 6.525 0 012.5-.19c.86-.028 1.72 0 2.58-.012.143 0 .378-.058.411-.148.124-.336-.256-.2-.372-.33a.42.42 0 00-.25-.131c-.865-.08-1.73-.15-2.9-.246" fill="#C2C3C2"/><path d="M19.924 9.007c.066-.003.133-.003.2 0 .318.034.7 0 .763-.317.063-.317.184-.734-.178-1.035-.3-.253-.512-.578-1.018-.534a.972.972 0 00-.836.606c-.4.807-.07 1.27.86 1.28h.2m-3.522 21.274a1.34 1.34 0 00-.263.184c-.3.45-.5.96-.588 1.493-.015.051.031.121.048.182.072-.038.173-.058.212-.118.226-.348.447-.7.647-1.062.07-.143.109-.3.114-.46 0-.062-.1-.13-.17-.219z" fill="#fff"/><path d="M27.06 19.972c.8.151 1.612.26 2.41.428.401.103.794.24 1.172.41a.385.385 0 01.21.233c.017.051.023.106.017.16a.386.386 0 01-.05.152.999.999 0 01-.3.273c-.958.53-1.83 1.203-2.587 1.994-.356.365-.374.37-.824.074a1.446 1.446 0 01-.58-.537c-.34-.86-.77-1.679-1.068-2.558-.094-.276-.182-.462.116-.619.2-.1.4-.195.571-.279.356.107.628.215.91.268m1.418 1.046a4.347 4.347 0 00-.94-.232 6.588 6.588 0 01-1.044-.174c-.05-.006-.2.207-.175.263.238.551.495 1.1.764 1.633.223.447.42.483.77.165.15-.138.282-.3.437-.432.35-.3.71-.59 1.177-.978-.376-.095-.678-.2-.989-.245zm3.273-5.574a1.49 1.49 0 00-1.157.344c-.473.3-.357.763-.34 1.195a.314.314 0 00.252.088c.134-.089.313-.211.34-.346.1-.531.488-.464.857-.474.37-.01.527.154.618.507.102.27.236.525.4.762.131.238.288.268.436.042.1-.154.232-.432.166-.529-.275-.4-.346-.919-.749-1.25-.268-.219-.476-.522-.823-.339zm-4.825.238c-.027-.386-.426-.647-.886-.887-.21-.109-.41-.287-.633-.186-.349.135-.67.331-.95.58-.196.248-.34.535-.42.842-.04.106-.01.335.056.366a.546.546 0 00.464.024c.165-.136.228-.389.38-.546.154-.157.057-.565.514-.468.324.07.674-.018.856.368.063.147.147.284.25.406.08.053.176.074.27.058.037 0 .08-.1.095-.157a2.67 2.67 0 000-.4m.924 3.454c.048-.037.094-.077.145-.112.5-.34.5-.332 1.064.064a.35.35 0 00.338-.038c.108-.106.242-.294.215-.413a.959.959 0 00-1.617-.441 3.69 3.69 0 00-.43.445c-.036.049.021.19.07.27.062.083.135.16.215.225z" fill="#1A1311"/><path d="M29.46 21.265c-.376-.1-.679-.2-.99-.245a4.287 4.287 0 00-.94-.232 6.589 6.589 0 01-1.044-.175c-.05-.006-.2.207-.175.263.24.552.5 1.1.764 1.633.223.447.42.484.77.165.151-.138.283-.3.438-.433.35-.3.71-.59 1.177-.978" fill="#fff"/></g></g><defs><clipPath id="clip0_345_86"><path fill="#fff" d="M0 0h52v63H0z"/></clipPath></defs></svg>