<svg xmlns="http://www.w3.org/2000/svg" width="208.511" height="33.428"><path data-name="パス 158740" d="M24.173 31.792l-.342-.239a.619.619 0 01-.1-.444l-.172-.04-.205.547a.651.651 0 01-.581.137l-.342-.273-.072-.342.379-1.367-.171-.1a5.862 5.862 0 01-.376 1.06l-.479.171-.375-.21a.654.654 0 01-.137-.513q.444-1.436.991-2.871t1.128-2.87l-2.153-1.946-.034-.444a.615.615 0 01.376-.376l.342-.239a.719.719 0 01.41-.444 8.533 8.533 0 011.025-.273 9.381 9.381 0 001.436.889l1.606-2.974h-.239q-1.3.1-2.546.325t-2.478.5q-.205 1.667-.326 3.376t-.188 3.418v2.324a1.044 1.044 0 00-.171.786l.034.308-.204.342-.479.41-.342.034-.307-.171a.883.883 0 01-.171-.718h-.068a1.313 1.313 0 01-.171.991.764.764 0 01-.547.137l-.376-.308-.035-.307a.6.6 0 01-.615-.239 4.228 4.228 0 01-.239-.923.618.618 0 01-.41-.376l-.034-.137v-1.538q.308-4.512 1.008-8.989a54.258 54.258 0 012.136-8.784.749.749 0 01.513-.1l.342.171a1.312 1.312 0 01.308-.615.749.749 0 01.513-.1l.273.171a.764.764 0 01.137.547l-.068.205.581.068a4.209 4.209 0 01.479-1.025.749.749 0 01.513-.1l.273.171a.764.764 0 01.137.547q-.479 1.777-1.06 3.521a21.25 21.25 0 00-.854 3.555h.137q1.333-.171 2.683-.308t2.717-.239l.308.034.513-.034.171.034a3.583 3.583 0 01.854-.991l.547-.068a8.263 8.263 0 011.23.718l.308-.41a.749.749 0 01.513-.1l.273.171a.654.654 0 01.137.513.653.653 0 01.615.171.764.764 0 01.137.547q-1.23 1.833-2.33 3.764t-2.013 3.913q1.094.615 2.17 1.3t2.1 1.436a.6.6 0 01.137.479l-.205.342-.1.034v.1a7.347 7.347 0 011.06.649.619.619 0 01.1.444l-.171.308-.171.137a.559.559 0 01-.171.41l-.236.138a.742.742 0 01-.273.479 1.283 1.283 0 01-.684.376v.137l.034.205-.205.342a.6.6 0 01-.479.137q-1.129-.89-2.222-1.864t-2.222-1.863q-.273.82-.5 1.641a15.587 15.587 0 01-.53 1.606l-.41.137-.444-.205a3.474 3.474 0 01-.342.923.654.654 0 01-.509.141zm-11.381-.859l-.308-.241v-.067a1.017 1.017 0 01-.513-.137l-.273.034-.308-.171a4.754 4.754 0 01-.222-1.077 1.62 1.62 0 00-.427-.974v-2.358a42.284 42.284 0 01.291-4.341q.256-2.153.5-4.307h-.1l-1.23.273a.78.78 0 01-.342.376l-4.546.957-.342 2.6h.171q1.094-.273 2.17-.5t2.2-.427l.308.205a.654.654 0 01.138.514l-.239.41a.78.78 0 01.615.273l.1.444-.205.41.068.342-.205.342q-1.369.344-2.734.55a18.5 18.5 0 00-2.7.615q-.1 1.128-.154 2.29t-.12 2.29l.068.752-.308.376a6.2 6.2 0 00-1.128.239.616.616 0 01-.41-.41l-.035-.274a.642.642 0 01-.547-.17 1.343 1.343 0 01-.137-.854h-.1l-.239.1a.742.742 0 01-.273.479.619.619 0 01-.444.1l-.345-.204a3.89 3.89 0 01-.171-1.365l.034-.718-.273-.273a4.625 4.625 0 01-.069-1.128 73.964 73.964 0 01.889-8.938 49.452 49.452 0 012.222-8.7q.615-.171 1.265-.308l.1.034a2.465 2.465 0 011.06-.376l.273.171.342.581a1.423 1.423 0 011.162.376.764.764 0 01.138.544l-.034.137h.171q1.2-.205 2.375-.461t2.375-.461l.308.205a.749.749 0 01.1.513h.1l.1-.034a4.1 4.1 0 01.291-1.111q.222-.53.461-1.042a.749.749 0 01.513-.1l.273.171.1.239a.606.606 0 01.581.171l.171.137.137-.205a2.193 2.193 0 01.991-.376l.308.171a.764.764 0 01.137.547l-.034.1h.076a.738.738 0 01.444-.068l.273.171a.764.764 0 01.137.547l-.239 1.094a.682.682 0 01.1.479 44.172 44.172 0 00-1.436 7.314q-.41 3.726-.513 7.451v4.1l-.199.311-.41.137-.103-.037a.682.682 0 01-.479.1.654.654 0 00-.513-.137.6.6 0 01-.137.479l-.308.137a1.015 1.015 0 01-.239.854.879.879 0 01-.545.108zm-1.026-15.586v-.034l.615-3.486h-.171q-1.47.273-2.871.53t-2.837.6q-.205.752-.376 1.5t-.307 1.535h.1q1.34-.3 2.686-.56t2.717-.427a.736.736 0 01.41.376zM29.3 14.082l-.547-.308a.512.512 0 01-.1-.41h-.137l-.205.034-.376-.239a2.3 2.3 0 00-.256-.906 1.746 1.746 0 01-.188-.94l.068-.342-.376-.342-.034-.479q.171-.923.359-1.846t.427-1.846h-.1q-1.914.239-3.811.513t-3.777.615l-.239-.034a1.021 1.021 0 01-.581.1l-.273-.171a.8.8 0 01-.137-.649l-.342-.171a.651.651 0 01-.137-.581.615.615 0 01.376-.376l.547-.137.137-.41-.273-.273-.034-.444a.615.615 0 01.376-.376q1.948-.376 3.914-.615t3.948-.41a4.835 4.835 0 011.538.171 5.688 5.688 0 01.615-1.436.749.749 0 01.513-.1l.171.034a.749.749 0 01.513-.1l.273.171a.764.764 0 01.137.547l.137.034a2.212 2.212 0 011.094-.342l.273.171a5.453 5.453 0 01.342 1.23 20.8 20.8 0 00-1.812 4.717q-.615 2.461-1.025 4.888l-.171.137a1.272 1.272 0 01-.273.82.879.879 0 01-.554.101zm26.079 18.9l-.444-.239-.376.068-.308-.171a3.33 3.33 0 01-.273-1.367h-.068l-.444.1a.865.865 0 01-.581-.308 5.268 5.268 0 01-.24-1.602v-2.7a37.712 37.712 0 01.714-5.76 48.125 48.125 0 011.5-5.623l.137-.1.205-.376a.749.749 0 01.513-.1 1.407 1.407 0 00.718.342.738.738 0 01.444-.068l.273.171.1.239.376.171a.505.505 0 01.137.444l.342.171.171.308.342.342.068.171.342.308.034.82q-.171 1.06-.291 2.119t-.211 2.15q.615.239 1.248.427t1.282.325a20.077 20.077 0 01.785-2.052q.444-.991.957-1.982a17.654 17.654 0 01-1.3-2q-.581-1.042-1.128-2.1l-.479-.205-.171-.479.068-.376a.736.736 0 01-.306-.758l.171-.273.1-.034q.376-1.3.837-2.6A22.471 22.471 0 0161.7 7.856h-.171q-1.641.273-3.3.53t-3.3.632l-.273-.171a3.35 3.35 0 01-.615-1.4.615.615 0 01.376-.376l.205-.034.068-.171a.749.749 0 01-.1-.513.615.615 0 01.376-.376 37.389 37.389 0 014.238-.718q2.153-.239 4.307-.41l.513-.82a5.649 5.649 0 011.06-.308l.308.137a.738.738 0 01.444-.068l.273.171a.505.505 0 01.137.444h.068a.618.618 0 01.615-.205l.547.239.171.342.376.205a.764.764 0 01.137.547q-1.5 2.085-2.786 4.29a45.722 45.722 0 00-2.307 4.529q.547.684 1.008 1.384a9.811 9.811 0 001.084 1.356h.068a.54.54 0 01.615-.205l.273.171a3.421 3.421 0 01.342.957h.1l.376-.034.273.171a.764.764 0 01.137.547q-.684 1.265-1.35 2.581a18.136 18.136 0 00-1.112 2.712.633.633 0 01.239.649l-.171.273a.654.654 0 01-.513.137v.141l.273.137a.654.654 0 01.137.513l-.171.308a.74.74 0 01-.615.137l-.034.308a.656.656 0 01.205.479l-.239.41a1.355 1.355 0 01-.684.1 10.5 10.5 0 01-2.581-.6 15.024 15.024 0 01-2.41-1.145v4.034l.068 1.2-.239.342a1.093 1.093 0 01-.752.376l-.335-.175-.205-.41-.1-.034a.661.661 0 01-.205.649.879.879 0 01-.547.1v.205l.068.342-.205.376a.6.6 0 01-.485.139zm-16.884-1.673l-.308-.205a1.019 1.019 0 01-.137-.649h-.068l-.205.137a1.5 1.5 0 01-.581.41l-.308.034-.444-.308a5.515 5.515 0 00-.359-.974 1.677 1.677 0 01-.12-1.042q.137-1.982.444-3.914a12.724 12.724 0 011.2-3.708.749.749 0 01.513-.1l.376.171a.606.606 0 01.581-.171l.48.302.137.171a2.044 2.044 0 01.752.205q1.5-.308 3.025-.547t3.059-.376a2.546 2.546 0 01.684-.786h.342l.273.171.1.205a.7.7 0 01.513.205l.171.137.171-.068a2.714 2.714 0 01.444-.889.749.749 0 01.513-.1l.273.171a.764.764 0 01.137.547l-.068.239.547.376a.764.764 0 01.137.547l-.21.512.068.444a16.039 16.039 0 00-.768 3.486q-.188 1.777-.461 3.521l-.1.034a3.271 3.271 0 01-.239 1.572l-.41.137-.41-.1-.137.034-.41-.239q-.034-.205-.273-.171l-.273.034a2 2 0 00-.718-.205l-.239.034-.308-.171a.967.967 0 01-.171-.684h-.068q-1.538.308-3.127.5t-3.127.393l-.41.581a.682.682 0 01-.483.097zm7.007-4.2v-.273q.068-.889.154-1.76t.222-1.726h-.171l-5.23.742q-.137.854-.222 1.726t-.12 1.76h.273q1.265-.166 2.53-.286t2.564-.187zm-8.785-6.84l-.273-.171a.8.8 0 01-.137-.649.642.642 0 01-.547-.171.651.651 0 01-.137-.581.719.719 0 01.444-.41l.786-.205a1.118 1.118 0 01.513-.513 6.76 6.76 0 00.854-.256 2.511 2.511 0 01.889-.154v-.067l-.308-.205a1.66 1.66 0 01-.1-.889q.1-1.162.256-2.324a7.452 7.452 0 01.632-2.187 3.311 3.311 0 00.837-.171 4.737 4.737 0 01.837-.205l.308.1a.606.606 0 01.581-.171l.273.171a1.272 1.272 0 01.273.82 10.8 10.8 0 00-.513 2.273q-.137 1.179-.205 2.341h.205l3.145-.41a9.793 9.793 0 01.6-2.974 13.407 13.407 0 011.384-2.734.749.749 0 01.513-.1l.273.171.137.308a1.667 1.667 0 01.684.068.618.618 0 01.615-.205l.273.171a2.04 2.04 0 01.41 1.025 18.512 18.512 0 00-.923 1.914q-.41.991-.752 2.017h.1l2.8-.137.342.308.034.41-.1.273.273.308.068.308a1.265 1.265 0 01.991.205l.137.41-.239.41q-4.033.581-8.118.94t-8.115.938zm-.273-8.853l-.273-.171a.651.651 0 01-.137-.581.894.894 0 01.41-.41l.068-.308a.661.661 0 01-.205-.654.615.615 0 01.376-.376 1.775 1.775 0 01.991-.376.618.618 0 01.205-.615 17.964 17.964 0 012.239-.342l2.273-.205q.068-1.538.256-3.059a9.364 9.364 0 01.837-2.888q.581-.137 1.2-.239l.273.1a1.949 1.949 0 01.376-.752.749.749 0 01.513-.1 2.04 2.04 0 00.581.308.606.606 0 01.581-.171q.342.205.684.376a.764.764 0 01.137.547 12.782 12.782 0 00-.735 2.7q-.222 1.4-.325 2.837h.41l2.8-.1a.615.615 0 01.376.376l.034.205h.444l.718-.034a.624.624 0 01.376.342l.034.342-.137.273a.817.817 0 01-.547.205l-.034.171h.516l.854-.034a.618.618 0 01.41.376v.376l-.342.342q-4.067.205-8.135.6t-8.102.939zm44.741 22.012l-.376-.308a5.2 5.2 0 01-.205-.854 1.47 1.47 0 01-.889-.273.6.6 0 01-.137-.479l.239-.376a3.066 3.066 0 011.265-.41l1.368-.136v-1.539l.068-.547h-.171l-1.23.171-.308-.069-.239.034-.342-.205a.764.764 0 01-.137-.547 5.153 5.153 0 01.41-.786.619.619 0 01-.1-.444l.239-.513a2.039 2.039 0 01.547-.444 6.943 6.943 0 011.008-.137l1.042-.068q.239-.718.513-1.4a4.34 4.34 0 01.786-1.265 6.731 6.731 0 01.684-.718l.308-.034.376.239.1.342h.1l.513-.137v-.133a.736.736 0 01-.376-.41v-.69l.1-1.436a10.427 10.427 0 00-1.042-.085 2.492 2.492 0 01-.974-.222.825.825 0 01-.137-.581q.205-.479.376-.991a1.825 1.825 0 01.615-.239h1.367a10.733 10.733 0 00.376-1.333h-.163a3.656 3.656 0 01-.991.205l-.308-.205-.479-.547-.034-.376.034-.1-.034-.273.205-.342.376-.171v-.068a.779.779 0 01-.239-.649l.137-.273a3.72 3.72 0 011.348-.314 9.468 9.468 0 001.418-.171l.889-1.709a6.224 6.224 0 011.128-1.538l.957-.137.444.137a.748.748 0 01.718-.239.615.615 0 01.376.376l.034.308-.068.273a4.77 4.77 0 01.41 1.606l-.205.444h.171l1.367-.068.376.342.034.1.205.068a3.309 3.309 0 01.479-1.128 1.37 1.37 0 01.581-.205 1.427 1.427 0 01.581-.581 2.007 2.007 0 01.752-.137l.376.171a.608.608 0 01.41-.068l.308.137a.654.654 0 01.513-.137l.171-.273.444-.137.376.205a.764.764 0 01.137.547 24.59 24.59 0 00-1.555 4.016 35.262 35.262 0 00-.942 4.198 9.662 9.662 0 001.829.171 2.66 2.66 0 011.658.547.749.749 0 01.1.513l-.205.308-.273.1a1.189 1.189 0 01-.1.649l.273.308.034.308-.239.376-.137.1a2.133 2.133 0 01-.308.854.737.737 0 01-.649.171q-1.5-.205-2.957-.547a7.485 7.485 0 01-2.717-1.265l-.034-.1h-.068a.74.74 0 01-.205-.684l.034-.1a.682.682 0 01-.1-.479l.137-.273.171-.137.034-.615a.858.858 0 01-.137-.684q.1-1.025.239-2.034a18.155 18.155 0 01.376-1.965h-.1l-2.734.41q-.205.547-.393 1.094a7.443 7.443 0 00-.291 1.128l.94.068a1.779 1.779 0 01.837.273.654.654 0 01.137.513l-.205.342-.273.137-.034.205a.687.687 0 01.205.581l-.145.269a.85.85 0 01-.786.171l-1.3-.137q-.137.718-.205 1.453a9.449 9.449 0 01-.239 1.418l.034.41-.171.273a.651.651 0 01-.581.137.78.78 0 01-.376-.342l-.1-.684a.876.876 0 01-.752-.205 8.881 8.881 0 00-.524 1.215A10.206 10.206 0 0087 25.225h.547l1.094-.068.342.239a.682.682 0 01.1.479l-.239.444.342.205a4.275 4.275 0 00.41.547l.034.342-.171.308a4.31 4.31 0 01-1.4.256q-.752.017-1.538.085l-.175 2.187h.479l2.5-.137.334.171a.691.691 0 01.171.547l-.034.171.034.1.308.137.171.308a1.449 1.449 0 01.684.239.825.825 0 01.137.581.616.616 0 01-.41.41l-.649.034-.034.068q-2.188.273-4.409.359t-4.443.191zm-4.375-8l-.308-.171a1.288 1.288 0 01-.171-.889l.205-1.5h-.137q-.854.239-1.726.461t-1.76.393a.736.736 0 01-.41-.376l-.034-.308.239-.376.41-.171.068-.308a.742.742 0 01-.171-.581l.273-.376.205-.137a.6.6 0 01.171-.513 9.8 9.8 0 011.931-.5q1.008-.154 2-.325l.273-.479.273-.308.479-1.094h-.239q-.854.137-1.692.308t-1.692.342l-.308-.171a3 3 0 01-.342-.889l.171-.513-.034-.308.239-.342a15.549 15.549 0 013.367-.786 23.439 23.439 0 003.367-.649q.444.171.854.376l.308-.034.41.239v.068h.068l.068.171.239.137a.764.764 0 01.137.547l-2.151 2.946h.269l1.094-.068.308.205.137.444-.1.342a.691.691 0 01.171.547 1.863 1.863 0 01-.444.684 5.443 5.443 0 01-1.145.291 8.367 8.367 0 00-1.179.256 11.394 11.394 0 00-.171 1.555 5.53 5.53 0 01-.271 1.524 4.841 4.841 0 01-.991.239l-.479-.273a3.474 3.474 0 01-1.095.234l-.135-.033a.691.691 0 01-.549.171zm-1.23-9.707l-.376-.239a.92.92 0 00-.342-.615l-.239-.41h-.064a.69.69 0 01-.615.239 3.571 3.571 0 01-.957-.41l-.137-.41a24.092 24.092 0 01.461-2.461 7.293 7.293 0 011.008-2.29 4.859 4.859 0 00.649-.547l.308-.034.342.205.1.205.239.034.376-.342a1.581 1.581 0 01.649-.137l.273.137a.653.653 0 01.171.615 13.206 13.206 0 00-.547 1.914q-.205.991-.342 1.982h.068v-.034l.308-.171.308-.342a8.929 8.929 0 011.948-.342q1.025-.068 2.017-.205l.173-1.433h-.14q-.82.205-1.624.427t-1.624.427l-.342-.239q-.137-.513-.239-1.06l.239-.41-.034-.137.239-.41a18.4 18.4 0 012.1-.564q1.077-.222 2.17-.393a2.494 2.494 0 01.376-.684.823.823 0 01.684-.239l.41.171.376-.034.239.137.137.273.137.034a.616.616 0 01.41-.41h.342l.308.205a4.391 4.391 0 01.308.923 22.035 22.035 0 00-.854 2.751 18.907 18.907 0 01-.889 2.751 2.434 2.434 0 01-1.025.376 1.508 1.508 0 00-.581-.273.54.54 0 01-.205.342.749.749 0 01-.513.1.736.736 0 01-.41-.376v-.1h-.205q-1.025.205-2.051.427t-2.085.393l-.342-.171a.742.742 0 01-.168-.575l.034-.137-.068-.171h-.068a4.706 4.706 0 01-.342 1.606.842.842 0 01-.479.133zm-2.632-7.656l-.376-.239a.879.879 0 01-.1-.547.615.615 0 01.376-.376l.581-.034v-.205a1.609 1.609 0 01-.444-.513l-.41-.205-.137-.444.205-.376a21.212 21.212 0 012.615-.461q1.35-.154 2.649-.325.1-1.06.273-2.1A3.993 3.993 0 0179 .377a.654.654 0 01.513-.137 2.326 2.326 0 00.684.308 3.66 3.66 0 01.854-.239l.273-.273.41-.034.308.205.137.205a.615.615 0 01.479.239l.137.41a6.814 6.814 0 00-.461 1.436q-.154.752-.256 1.538h.308l.034-.034h2.188a1.853 1.853 0 011.128.273 4 4 0 00.547.684v.376l-.171.273-.342.137v.1l.034.41-.273.342q-3.145.273-6.289.718t-6.294.752zm43.545 21.876a32.544 32.544 0 01-4.836-.7 25.035 25.035 0 01-4.631-1.521.6.6 0 01-.137-.479l.342-.684.308-.205v-.1a.932.932 0 01-.547-.513v-.308l.205-.308.1-.171a3.77 3.77 0 01-.273-.991l.239-.308v-.068l-.304-.343-.034-.308.205-.342a4.625 4.625 0 011.265-.444.817.817 0 01.205-.547 8.5 8.5 0 012.444-.974q1.282-.291 2.615-.5v-1.88a30.416 30.416 0 011.145-6.306 22.712 22.712 0 012.615-5.793 2.238 2.238 0 01.82-.376 5.862 5.862 0 011.06.376l.1.239h.068l.205-.376a.764.764 0 01.547-.137.736.736 0 01.41.376l.137.957-.684 2.769h.068q1.094-.273 2.188-.513t2.222-.41l.342.205.137.171a.551.551 0 01.444.205l.1.239h.171l.684-.068.239.137a.742.742 0 01.171.581l-.239.342-.1.034-.171.376.376.205.137.444-.239.41a2.2 2.2 0 01-.854.171v.1l.068.308-.239.41q-1.572.308-3.179.6t-3.179.667q-.1.752-.154 1.538t-.12 1.572v2.022h1.572q1.914.068 3.777.291a15.575 15.575 0 013.606.872.682.682 0 01.1.479l-.239.342a.749.749 0 01-.513.1l-.684-.171a2.127 2.127 0 01-.273.752.725.725 0 01.171.479l-.239.41-.205.171.068.479-.137.239a.742.742 0 01-.581.171 19.033 19.033 0 00-3.019-.649 28.67 28.67 0 00-3.127-.239v.376l.444 2.666.273.171a.879.879 0 01.1.547.615.615 0 01-.376.376l-.314.033-.273-.034v.1l.034.239-.205.342-.273.137-.034.137a.879.879 0 01.1.547l-.171.273q-.479.205-.957.427a2.023 2.023 0 01-1.087.156zm-1.914-4.272q-.068-.547-.171-1.077a8.252 8.252 0 00-.273-1.042l-.41-.034q-1.162.1-2.324.273t-2.256.444v.068a10.053 10.053 0 002.632.923q1.367.273 2.769.479zm24.712 3.623a7.573 7.573 0 01-2.187-.461 6.9 6.9 0 01-1.945-1.111v-.068l-.581-.513a7.63 7.63 0 01-1.436-2.632 12.93 12.93 0 01-.547-2.974v-2.187a39.912 39.912 0 011.111-6.7 29.024 29.024 0 012.41-6.289.6.6 0 01.479-.137l.342.205a.654.654 0 01.137.513l.308.034.068-.1a.654.654 0 01.513-.137l.342.171.171-.308.273-.1.205-.342a.654.654 0 01.513-.137l.273.137.137.1.649-1.128.444-.137.444.239.034.1a.69.69 0 01.615.239 1.617 1.617 0 00.308.547l.308.308.034.376a34.2 34.2 0 00-2.957 6.716 25.329 25.329 0 00-1.179 7.229 13.734 13.734 0 00.273 2.393 8.606 8.606 0 00.786 2.222 6.437 6.437 0 001.06.188q.547.051 1.162.051a20.73 20.73 0 002.922-.752q1.418-.479 2.854-1.025a.736.736 0 01.41.376l.034.273-.239.41-.28.211h.1q.41-.171.837-.325a3.37 3.37 0 01.906-.188l.342.205a.6.6 0 01.137.479l-.034.171.444.171a.691.691 0 01.171.547l-.203.34q-.513.239-1.042.444t-1.077.41a.765.765 0 01-.273.513 20.213 20.213 0 01-3.367.94q-1.726.325-3.538.5zm22.388.786a4.234 4.234 0 01-.837-.513q-.393-.308-.8-.615v-.068l-.82-.752a11.418 11.418 0 01-1.76-2.546 7.515 7.515 0 01-.8-2.922l.171-.273a.725.725 0 01.479-.171.559.559 0 01.205-.513l.444-.137.376.137a.6.6 0 01.479-.137l.239.068a.653.653 0 01.615-.171l.239.137.171.205a.654.654 0 01.513.137q.239.41.513.82a2.687 2.687 0 00.718.718v.068a19.068 19.068 0 002.393 1.606 16.659 16.659 0 002.6 1.2.879.879 0 01.1.547.624.624 0 01-.342.376l-.376.034-.137-.034a.651.651 0 01-.581.239l-.171-.034v.034a.725.725 0 01.171.479l-.205.376a.764.764 0 01-.547.137l-.41-.137-.376.068v.513l.034.171-.218.372a.885.885 0 01-.581.137 1.172 1.172 0 01-.786-.205.571.571 0 01-.239.547.682.682 0 01-.475.102zm7.759-8.921l-.342-.239q-.034-.137-.205-.1l-.342.034a1.7 1.7 0 01-.684-.854h-.068v.068l.034.239-.205.342a.764.764 0 01-.547.137 1.383 1.383 0 01-.649-.82q-.41-.923-.8-1.88t-.735-1.948h-.239q-2.632.444-5.2 1.008t-5.126 1.248l-.376-.308-.034-.82a1.136 1.136 0 00.239-.718.641.641 0 01-.205-.581l.239-.376a5.52 5.52 0 011.094-.308l.205-.547a29.076 29.076 0 014.067-1.145q2.085-.427 4.2-.837l.034-.1-.479-1.88-.171-.034q-1.23.239-2.41.53t-2.41.53l-.308-.205-.137-.273a.917.917 0 01-.479-.308.764.764 0 01-.137-.547l.1-.273-.034-.273.137-.444-.034-.1.171-.444-.034-.239.239-.376a19.386 19.386 0 012.461-.6q1.265-.222 2.529-.393v-.342q-.1-.82-.154-1.641t-.051-1.675l.239-.444.479-.137a.619.619 0 01.273-.513.6.6 0 01.479-.137l.342.205q.308 1.094.581 2.17t.581 2.17h.1l2.461-.308.342.171a.691.691 0 01.171.547l-.034.171h.137l.649-.068.308.205a.879.879 0 01.1.547l-.205.376.376.205.137.444-.205.376a9.842 9.842 0 01-1.572.291q-.82.085-1.606.188v.1l.82 1.948h.1q1.5-.239 3.042-.393t3.11-.222l.273.137v.068h.068l.137.444-.068.239.137.444-.205.376a2.663 2.663 0 01-1.06.205v.068l.1.137a3.2 3.2 0 00.752.239l.718-.068.444.239a.879.879 0 01.1.547.624.624 0 01-.342.376q-1.4.1-2.786.222t-2.786.291v.1q.615 1.23 1.3 2.375a15.8 15.8 0 011.18 2.375.736.736 0 01-.376.41l-.273.034-.376-.205-.649-1.128h-.068l-.1.171-.137.171a1.317 1.317 0 01.41.854l-.239.376a.749.749 0 01-.514.103zm19 12.271l-.376-.308a5.2 5.2 0 01-.205-.854 1.47 1.47 0 01-.889-.273.6.6 0 01-.137-.479l.239-.376a3.066 3.066 0 011.265-.41l1.367-.137v-1.538l.068-.547h-.171l-1.23.171-.308-.068-.239.034-.342-.205a.764.764 0 01-.137-.547 5.155 5.155 0 01.41-.786.619.619 0 01-.1-.444l.239-.513a2.039 2.039 0 01.547-.444 6.943 6.943 0 011.008-.137l1.042-.068q.239-.718.513-1.4a4.34 4.34 0 01.786-1.265 6.73 6.73 0 01.684-.718l.308-.034.376.239.1.342h.1l.513-.137v-.134a.736.736 0 01-.376-.41v-.69l.1-1.436a10.427 10.427 0 00-1.042-.085 2.492 2.492 0 01-.974-.222.825.825 0 01-.137-.581q.205-.479.376-.991a1.825 1.825 0 01.615-.239h1.367a10.733 10.733 0 00.376-1.333h-.171a3.656 3.656 0 01-.991.205l-.308-.205-.479-.547-.034-.376.034-.1-.034-.273.205-.342.376-.171v-.068a.779.779 0 01-.239-.649l.137-.273a3.72 3.72 0 011.359-.314 9.468 9.468 0 001.418-.171l.889-1.709a6.223 6.223 0 011.128-1.538l.957-.137.444.137a.748.748 0 01.718-.239.615.615 0 01.376.376l.034.308-.068.273a4.771 4.771 0 01.41 1.606l-.205.444h.171l1.367-.068.376.342.034.1.205.068a3.309 3.309 0 01.479-1.128 1.371 1.371 0 01.581-.205 1.427 1.427 0 01.581-.581 2.007 2.007 0 01.752-.137l.376.171a.608.608 0 01.41-.068l.308.137a.654.654 0 01.513-.137l.171-.273.444-.137.376.205a.764.764 0 01.137.547 24.59 24.59 0 00-1.555 4.016 35.262 35.262 0 00-.94 4.187 9.662 9.662 0 001.829.171 2.66 2.66 0 011.658.547.749.749 0 01.1.513l-.205.308-.273.1a1.189 1.189 0 01-.1.649l.273.308.034.308-.239.376-.137.1a2.133 2.133 0 01-.308.854.737.737 0 01-.649.171q-1.5-.205-2.957-.547a7.485 7.485 0 01-2.717-1.265l-.034-.1h-.068a.74.74 0 01-.205-.684l.034-.1a.682.682 0 01-.1-.479l.137-.273.171-.137.034-.615a.858.858 0 01-.137-.684q.1-1.025.239-2.034a18.155 18.155 0 01.376-1.965h-.1l-2.734.41q-.205.547-.393 1.094a7.443 7.443 0 00-.291 1.128l.94.068a1.779 1.779 0 01.837.273.654.654 0 01.137.513l-.205.342-.273.137-.034.205a.687.687 0 01.205.581l-.137.273a.85.85 0 01-.786.171l-1.3-.137q-.137.718-.205 1.453a9.449 9.449 0 01-.239 1.418l.034.41-.171.273a.651.651 0 01-.581.137.78.78 0 01-.376-.342l-.1-.684a.876.876 0 01-.752-.205 8.882 8.882 0 00-.53 1.213 10.2 10.2 0 00-.359 1.282h.547l1.094-.068.342.239a.682.682 0 01.1.479l-.239.444.342.205a4.276 4.276 0 00.41.547l.034.342-.171.308a4.31 4.31 0 01-1.4.256q-.752.017-1.538.085l-.178 2.196h.479l2.5-.137.342.171a.691.691 0 01.171.547l-.034.171.034.1.308.137.171.308a1.449 1.449 0 01.684.239.825.825 0 01.137.581.616.616 0 01-.41.41l-.649.034-.034.068q-2.187.273-4.409.359t-4.451.191zm-4.375-8l-.308-.171a1.288 1.288 0 01-.171-.889l.205-1.5h-.13q-.854.239-1.726.461t-1.76.393a.736.736 0 01-.41-.376l-.034-.308.239-.376.41-.171.068-.308a.742.742 0 01-.171-.581l.273-.376.205-.137a.6.6 0 01.171-.513 9.8 9.8 0 011.931-.5q1.008-.154 2-.325l.273-.479.273-.308.479-1.094h-.239q-.854.137-1.692.308t-1.692.342l-.308-.171a3 3 0 01-.342-.889l.171-.513-.034-.308.239-.342a15.549 15.549 0 013.367-.786 23.44 23.44 0 003.367-.649q.444.171.854.376l.308-.034.41.239v.068h.07l.068.171.239.137a.764.764 0 01.137.547l-2.157 2.946h.273l1.094-.068.308.205.137.444-.1.342a.691.691 0 01.171.547 1.863 1.863 0 01-.444.684 5.443 5.443 0 01-1.145.291 8.368 8.368 0 00-1.179.256 11.394 11.394 0 00-.171 1.555 5.53 5.53 0 01-.273 1.521 4.841 4.841 0 01-.991.239l-.479-.273a3.474 3.474 0 01-1.097.237l-.137-.034a.691.691 0 01-.547.172zm-1.23-9.707l-.376-.239a.92.92 0 00-.342-.615l-.239-.41h-.068a.69.69 0 01-.615.239 3.571 3.571 0 01-.957-.41l-.137-.41a24.1 24.1 0 01.461-2.461 7.293 7.293 0 011.008-2.29 4.859 4.859 0 00.649-.547l.308-.034.342.205.1.205.239.034.376-.342a1.581 1.581 0 01.649-.137l.273.137a.653.653 0 01.171.615 13.207 13.207 0 00-.547 1.914q-.205.991-.342 1.982h.068v-.034l.308-.171.308-.342a8.929 8.929 0 011.948-.342q1.025-.068 2.017-.205l.171-1.436h-.137q-.82.205-1.624.427t-1.624.427l-.342-.239q-.137-.513-.239-1.06l.239-.41-.034-.137.239-.41a18.4 18.4 0 012.1-.564q1.077-.222 2.17-.393a2.494 2.494 0 01.376-.684.823.823 0 01.684-.239l.41.171.376-.034.239.137.137.273.137.034a.616.616 0 01.41-.41h.342l.308.205a4.391 4.391 0 01.308.923 22.034 22.034 0 00-.854 2.751 18.907 18.907 0 01-.889 2.751 2.434 2.434 0 01-1.025.376 1.508 1.508 0 00-.581-.273.54.54 0 01-.205.342.749.749 0 01-.513.1.736.736 0 01-.41-.376v-.1h-.205q-1.025.205-2.051.427t-2.085.393l-.342-.171a.742.742 0 01-.162-.572l.034-.137-.068-.171h-.066a4.706 4.706 0 01-.342 1.606.842.842 0 01-.481.133zm-2.632-7.656l-.376-.239a.879.879 0 01-.1-.547.615.615 0 01.376-.376l.581-.034v-.205a1.609 1.609 0 01-.444-.513l-.41-.205-.137-.444.205-.376a21.212 21.212 0 012.615-.461q1.35-.154 2.649-.325.1-1.06.273-2.1a3.993 3.993 0 01.82-1.863.654.654 0 01.513-.137 2.326 2.326 0 00.684.308 3.66 3.66 0 01.854-.239l.273-.273.41-.034.308.205.137.205a.615.615 0 01.479.239l.137.41a6.814 6.814 0 00-.461 1.436q-.154.752-.256 1.538h.308l.034-.034h2.186a1.853 1.853 0 011.128.273 4 4 0 00.547.684v.376l-.171.273-.342.137v.1l.034.41-.273.342q-3.145.273-6.289.718t-6.289.752z" fill="#1a1311"/></svg>