<svg xmlns="http://www.w3.org/2000/svg" width="25.804" height="24.587"><g data-name="グループ 61119"><path data-name="パス 148159" d="M25.804 10.47c0-5.773-5.788-10.47-12.9-10.47S.004 4.7.004 10.47c0 5.176 4.59 9.51 10.79 10.33.42.091.992.277 1.137.636a2.649 2.649 0 01.042 1.167s-.151.91-.184 1.1c-.056.326-.259 1.276 1.118.7s7.43-4.375 10.137-7.491a9.316 9.316 0 002.766-6.442" fill="#fff"/><path data-name="パス 148160" d="M21.512 13.804h-3.623a.246.246 0 01-.246-.246V7.925a.246.246 0 01.246-.246h3.625a.247.247 0 01.246.246v.915a.246.246 0 01-.246.246h-2.465v.95h2.463a.247.247 0 01.246.246v.915a.246.246 0 01-.246.246h-2.463v.95h2.463a.247.247 0 01.246.246v.915a.246.246 0 01-.246.246" fill="#70c55e"/><path data-name="パス 148161" d="M8.104 13.804a.246.246 0 00.246-.246v-.915a.247.247 0 00-.246-.246H5.641V7.925a.247.247 0 00-.246-.246H4.48a.246.246 0 00-.246.246v5.626a.246.246 0 00.246.246h3.625z" fill="#70c55e"/><path data-name="パス 148162" d="M10.286 7.68h-.915a.246.246 0 00-.246.246v5.631a.246.246 0 00.246.246h.915a.246.246 0 00.246-.246V7.925a.246.246 0 00-.246-.246" fill="#70c55e"/><path data-name="パス 148163" d="M16.515 7.68H15.6a.246.246 0 00-.246.246v3.344l-2.576-3.479a.278.278 0 00-.02-.026l-.015-.015-.013-.011h-.007l-.013-.009h-.007l-.014-.007h-.008l-.014-.006h-1.002a.246.246 0 00-.246.246v5.631a.246.246 0 00.246.246h.915a.246.246 0 00.246-.246v-3.343l2.579 3.484a.25.25 0 00.064.062l.016.009h.007l.012.006.012.005h.008l.017.005a.251.251 0 00.064.009h.91a.246.246 0 00.246-.246v-5.66a.246.246 0 00-.246-.246" fill="#70c55e"/></g></svg>