<svg data-name="グループ 61073" xmlns="http://www.w3.org/2000/svg" width="18.778" height="17.89"><defs><clipPath id="a"><path data-name="長方形 22367" fill="#d00303" d="M0 0h18.778v17.89H0z"/></clipPath></defs><g data-name="グループ 59422" clip-path="url(#a)" fill="#d00303"><path data-name="パス 145477" d="M12.124 3.292A4.554 4.554 0 0010.801.079a.332.332 0 00-.521.127c-.168.286-.631 1.006-.631 1.006a.307.307 0 01-.52 0S8.666.492 8.498.206a.332.332 0 00-.521-.127 4.57 4.57 0 001.412 7.4 4.572 4.572 0 002.734-4.186"/><path data-name="パス 145478" d="M7.5 8.851a4.57 4.57 0 00-6.6-3.63.332.332 0 00-.04.535c.22.249.762.911.762.911a.307.307 0 01-.16.494S.635 7.379.31 7.45a.332.332 0 00-.282.456 4.57 4.57 0 007.474.944"/><path data-name="パス 145479" d="M3.549 12.851a4.553 4.553 0 00-.819 3.377.332.332 0 00.5.2c.3-.133 1.1-.443 1.1-.443a.307.307 0 01.42.306s-.048.854-.081 1.185a.332.332 0 00.347.409 4.57 4.57 0 003.207-6.817 4.571 4.571 0 00-4.673 1.78"/><path data-name="パス 145480" d="M10.556 11.071a4.57 4.57 0 003.207 6.817.332.332 0 00.347-.409 43.433 43.433 0 01-.081-1.185.307.307 0 01.42-.306s.8.31 1.1.443a.332.332 0 00.5-.2 4.57 4.57 0 00-5.492-5.156"/><path data-name="パス 145481" d="M18.47 7.451c-.325-.071-1.152-.289-1.152-.289a.307.307 0 01-.161-.494s.541-.663.762-.911a.333.333 0 00-.04-.535 4.57 4.57 0 00-6.6 3.63 4.569 4.569 0 007.474-.944.332.332 0 00-.282-.456"/></g></svg>