<svg data-name="グループ 60975" xmlns="http://www.w3.org/2000/svg" width="18.708" height="19.833"><defs><clipPath id="a"><path data-name="長方形 22348" d="M0 0h18.708v19.833H0z"/></clipPath></defs><g data-name="グループ 59415" clip-path="url(#a)"><path data-name="パス 145459" d="M4.814 6.94a1.113 1.113 0 00-.081-1.466c-.383-.432-.171-.643-.171-.643l4.564-.91 4.564-.91s.277.114.089.659a1.111 1.111 0 00.488 1.385 14.339 14.339 0 003.381.344c.79-.073 1.068-1.018 1.06-1.271a3.688 3.688 0 00-2.467-3.66C13.7-.381 10.652.1 8.452.538S3.253 1.7 1.231 3.46a3.687 3.687 0 00-.874 4.327 1.363 1.363 0 001.467.767 14.384 14.384 0 002.99-1.614"/><path data-name="パス 145460" d="M10.251 15.786a2.594 2.594 0 10-1.835-.76 2.581 2.581 0 001.835.76"/><path data-name="パス 145461" d="M14.604 6.413a.44.44 0 00-.393-.238h-1.315a.3.3 0 00-.295.3v.9a.3.3 0 01-.3.3h-4.11a.3.3 0 01-.3-.3v-.9a.3.3 0 00-.3-.3h-1.31a.441.441 0 00-.393.238l-3.224 6.172a7.526 7.526 0 00-.856 3.489v1.44a1.478 1.478 0 001.488 1.477h.37v.842h1.5v-.842h10.167v.842h1.5v-.842h.369a1.478 1.478 0 001.478-1.478v-1.44a7.534 7.534 0 00-.857-3.489zm-8.408 6.778a4.055 4.055 0 114.055 4.054 4.056 4.056 0 01-4.055-4.054"/></g></svg>