<svg id="グループ_61166" data-name="グループ 61166" xmlns="http://www.w3.org/2000/svg" xmlns:xlink="http://www.w3.org/1999/xlink" width="34.926" height="39.807" viewBox="0 0 34.926 39.807">
  <defs>
    <clipPath id="clip-path">
      <rect id="長方形_23003" data-name="長方形 23003" width="34.926" height="39.807" fill="none"/>
    </clipPath>
  </defs>
  <g id="グループ_61166-2" data-name="グループ 61166" clip-path="url(#clip-path)">
    <path id="パス_148415" data-name="パス 148415" d="M4.061,44.241C3.045,41.769,1.2,43.681.919,45.319c-.409,2.347.643,3.405,2.394,4.832" transform="translate(-0.5 -25.921)" fill="#fff"/>
    <path id="パス_148416" data-name="パス 148416" d="M3.878,43.816c-.284-.668-.758-1.366-1.572-1.322a2.2,2.2,0,0,0-1.584,1.04,4.15,4.15,0,0,0-.154,4.431,8.727,8.727,0,0,0,2,2.024c.208.17.769-.131.492-.357C2.012,48.778.9,47.835.689,46.42a4.106,4.106,0,0,1,.235-2.1,2.565,2.565,0,0,1,1-1.287c.645-.355,1.108.456,1.318.95.116.272.745.089.635-.17" transform="translate(0 -25.581)" fill="#fff"/>
    <path id="パス_148417" data-name="パス 148417" d="M74.452,55.27c.995-.109,2.287-.473,2.9.556.574.962-.328,2.192-.838,2.956-.93,1.394-3.217,3.523-5.227,2.4" transform="translate(-42.916 -33.182)" fill="#fff"/>
    <path id="パス_148418" data-name="パス 148418" d="M73.951,55.134a4.131,4.131,0,0,1,2.123-.025c.841.386.726,1.357.392,2.049a7.494,7.494,0,0,1-3.035,3.33,2.5,2.5,0,0,1-2.438.092c-.275-.147-.721.256-.361.448,1.759.942,3.683-.273,4.891-1.549a9.432,9.432,0,0,0,1.494-2.113,1.921,1.921,0,0,0-.207-2.48c-.776-.644-1.908-.347-2.809-.244-.141.016-.336.1-.347.266s.161.241.3.226" transform="translate(-42.44 -32.8)" fill="#fff"/>
    <path id="パス_148419" data-name="パス 148419" d="M27.489,1.362C25.1,1.06,22.3.406,19.941.963A13.551,13.551,0,0,0,14.956,3.5,16.9,16.9,0,0,0,9.5,9.526a20.553,20.553,0,0,0-1.665,7.561c-.114,1.654.226,3.285.193,4.955C7.985,24.027,7.567,25.6,7.8,27.6c.435,3.676.693,8.471,6.111,10.438,1.281.466,2.867,1.644,4.689,1.848,4.3.481,9.546-1.527,11.842-3.8,2.256-2.231,1.718-3.641,3.209-6.375a27.918,27.918,0,0,0,2.9-9.38c.672-3.794-.533-7.81-1.848-11.415-1.258-3.447-3.023-5.067-6.27-7.126Z" transform="translate(-4.654 -0.449)" fill="#fff"/>
    <path id="パス_148420" data-name="パス 148420" d="M27.024.629a34.358,34.358,0,0,0-6.3-.609,11.547,11.547,0,0,0-5.535,1.949c-3.277,2.1-6.33,4.908-7.607,8.676a23.05,23.05,0,0,0-1.059,6.248A27.9,27.9,0,0,0,6.678,20.2a20.745,20.745,0,0,1-.1,3.54,17.781,17.781,0,0,0-.111,3.168c.055.682.147,1.365.233,2.044a16.738,16.738,0,0,0,.888,3.936A8.211,8.211,0,0,0,9.983,36.3a22.563,22.563,0,0,0,4.463,2.351,10.057,10.057,0,0,0,2.735,1.018,11.66,11.66,0,0,0,2.706.1A18.533,18.533,0,0,0,25.5,38.5a14.351,14.351,0,0,0,4.248-2.456,8.4,8.4,0,0,0,2.472-3.9,17.907,17.907,0,0,1,.839-2.275c.433-.909.932-1.78,1.322-2.712a28.749,28.749,0,0,0,1.627-5.783,22.5,22.5,0,0,0,.46-3.161,16.636,16.636,0,0,0-.169-3.155A33.4,33.4,0,0,0,34.5,8.5a12.745,12.745,0,0,0-2.364-4.18,18,18,0,0,0-3.807-3.059,9.31,9.31,0,0,0-1.213-.6.826.826,0,0,0-.731.094c-.133.086-.317.307-.088.411a13.6,13.6,0,0,1,6.093,5.228A23.537,23.537,0,0,1,34.4,11.556a21.232,21.232,0,0,1,1.046,6.329,26.546,26.546,0,0,1-.935,5.786,23.01,23.01,0,0,1-2.03,5.418,15.171,15.171,0,0,0-1,2.256c-.215.631-.389,1.276-.641,1.894a7.642,7.642,0,0,1-2.984,3.417,16.051,16.051,0,0,1-4.711,2.032,12.841,12.841,0,0,1-5.337.415,9.5,9.5,0,0,1-2.614-.99c-.755-.382-1.518-.7-2.291-1.034a7.878,7.878,0,0,1-3.412-2.774C8.068,32.2,7.833,29.569,7.551,27.112c-.235-2.058.246-4.081.209-6.137-.02-1.114-.176-2.219-.209-3.332A20.818,20.818,0,0,1,7.76,14.52,16.51,16.51,0,0,1,9.348,8.8a14.933,14.933,0,0,1,3.525-4.285,19.241,19.241,0,0,1,4.719-3.183,10.742,10.742,0,0,1,5.9-.548c.97.128,1.935.293,2.9.418a.878.878,0,0,0,.73-.2c.129-.143.143-.342-.1-.374" transform="translate(-3.875 -0.001)" fill="#fff"/>
    <path id="パス_148421" data-name="パス 148421" d="M22.412,50.361c-.507-1.17-3.838-1.822-4.75-.912" transform="translate(-10.633 -29.511)" fill="#fff"/>
    <path id="パス_148422" data-name="パス 148422" d="M22.128,49.61c-.431-.944-1.666-1.309-2.6-1.485a3.61,3.61,0,0,0-3.136.561.309.309,0,0,0,.138.517.757.757,0,0,0,.76-.2c-.1.094.008,0,.028-.016.091-.086-.066.02.024-.016.035-.014.072-.033.106-.051.113-.059-.114.028.014-.006.092-.025.183-.051.277-.07l-.033.006.094-.013.145-.015c.1-.008.2-.012.3-.013.063,0,.069,0,.018,0l.079,0c.062,0,.125.006.187.011a6.249,6.249,0,0,1,.677.094,5.164,5.164,0,0,1,.587.16c.107.036.214.076.319.119s.191.084.235.108a2.577,2.577,0,0,1,.485.324c.064.055-.021-.027.039.038.026.028.052.057.076.086s.045.058.066.089c.01.015.076.142.039.061a.514.514,0,0,0,.635.221c.172-.046.55-.267.439-.509" transform="translate(-9.811 -28.905)" fill="#fff"/>
    <path id="パス_148423" data-name="パス 148423" d="M45.751,51.26c.868-1.226,4.578-1.583,5.746-.412" transform="translate(-27.543 -30.181)" fill="#fff"/>
    <path id="パス_148424" data-name="パス 148424" d="M45.425,50.776a1.82,1.82,0,0,1,.858-.538c.024-.009.026-.011.1-.032s.123-.037.185-.054q.175-.048.352-.086a6.479,6.479,0,0,1,.733-.1,3.364,3.364,0,0,1,2.52.586c.294.285,1.312-.129.993-.438a4.487,4.487,0,0,0-3.452-.8,4.572,4.572,0,0,0-3.3,1.4c-.155.211.133.35.3.36a.83.83,0,0,0,.706-.3" transform="translate(-26.712 -29.669)" fill="#fff"/>
    <path id="パス_148425" data-name="パス 148425" d="M47.569,43.458a20.64,20.64,0,0,1,3.072-.416c1.054-.039,1.278.351,2.253.883" transform="translate(-28.637 -25.91)" fill="#fff"/>
    <path id="パス_148426" data-name="パス 148426" d="M46.152,43.2a18.693,18.693,0,0,1,2.9-.4,2.908,2.908,0,0,1,.295,0c-.112-.009.136.025.162.031q.112.03.028,0c.039.013.077.028.115.043a2.443,2.443,0,0,1,.22.106c.357.192.687.43,1.042.627a1.37,1.37,0,0,0,1.205-.162c.245-.15.5-.461.152-.654-.373-.206-.718-.462-1.1-.655a2.992,2.992,0,0,0-1.367-.3,18.026,18.026,0,0,0-3.421.431c-.314.062-.886.192-.969.573-.08.364.518.4.733.355" transform="translate(-27.339 -25.191)" fill="#fff"/>
    <path id="パス_148427" data-name="パス 148427" d="M22.157,41.911c-.8-.13-1.573-1.175-2.353-1.242-.664-.057-1.1.6-1.736.828" transform="translate(-10.877 -24.482)" fill="#fff"/>
    <path id="パス_148428" data-name="パス 148428" d="M21.127,40.27c-.168-.031.164.066,0,0-.041-.016-.082-.029-.122-.047s-.08-.039-.121-.057c.164.071.006,0-.027-.019-.183-.111-.356-.24-.529-.366a4.1,4.1,0,0,0-1.143-.663,2.21,2.21,0,0,0-1.753.193c-.228.129-.441.281-.654.431l-.119.082c-.118.079-.051,0,.016-.008a1.883,1.883,0,0,0-.312.151c-.324.125-.647.6-.39.923a.981.981,0,0,0,1.164.153,3.412,3.412,0,0,0,.646-.361,4.259,4.259,0,0,0,.469-.326c-.148.131-.066.041,0,0l.1-.048c.172-.09-.2.086-.021.012.106-.045-.031.006-.075.011.168-.019-.156-.036-.007,0a.36.36,0,0,0,.1.018q-.165-.044-.079-.017l.071.026c.04.016.079.039.119.053.088.029-.145-.09,0,0l.119.073c.081.051.16.106.238.162.16.114.317.233.478.346a3.217,3.217,0,0,0,1.264.577,1.055,1.055,0,0,0,1.105-.535c.153-.412-.146-.7-.533-.767" transform="translate(-9.562 -23.491)" fill="#fff"/>
    <path id="パス_148429" data-name="パス 148429" d="M23.773,49.757c-.027.206-.014,1.172-.213,1.278-.563.3-.843-.663-.743-1.088" transform="translate(-13.724 -29.954)" fill="#fff"/>
    <path id="パス_148430" data-name="パス 148430" d="M21.637,49.276c-.027.217-.025.439-.04.656,0-.032,0-.064.007-.1-.009.129-.021.259-.043.387a.792.792,0,0,1-.086.279l.064-.1a.221.221,0,0,1-.031.038l.115-.1-.015.011.158-.1-.043.021.195-.088-.025.01c-.092.038.266-.081.181-.059-.105.027.288-.051.165-.037l.213-.021-.045,0,.186.006a.391.391,0,0,1-.064-.008l.151.031a.392.392,0,0,1-.089-.033l.107.056a.56.56,0,0,1-.189-.179l.054.08a1.333,1.333,0,0,1-.2-.809c0,.032,0,.064-.007.1a.818.818,0,0,1,.017-.116c.075-.332-.524-.28-.7-.249a2.012,2.012,0,0,0-.648.209l-.158.1a.5.5,0,0,0-.18.205,1.431,1.431,0,0,0,.033.693,1.191,1.191,0,0,0,.127.3.81.81,0,0,0,.244.279,1.1,1.1,0,0,0,.661.142,2.585,2.585,0,0,0,.772-.169,1.416,1.416,0,0,0,.555-.336,1.043,1.043,0,0,0,.2-.613c.027-.261.032-.522.05-.784,0,.032,0,.064-.007.1,0-.02,0-.041.006-.061a.112.112,0,0,0-.02-.136.176.176,0,0,0-.134-.1,1.174,1.174,0,0,0-.55-.016,2.006,2.006,0,0,0-.647.209l-.158.1a.5.5,0,0,0-.18.2" transform="translate(-12.433 -29.342)" fill="#fff"/>
    <path id="パス_148431" data-name="パス 148431" d="M52.2,51.054c.711,1.089-1.462,1.427-1.205.239" transform="translate(-30.684 -30.735)" fill="#fff"/>
    <path id="パス_148432" data-name="パス 148432" d="M49.57,50.419q.029.045.055.093l-.085-.164a.737.737,0,0,1,.088.3l-.008-.185a.5.5,0,0,1-.028.188l.066-.185a.5.5,0,0,1-.068.125l.133-.178a.6.6,0,0,1-.089.094l.19-.161a.734.734,0,0,1-.109.076l.239-.135a.889.889,0,0,1-.125.057l.279-.1a1.043,1.043,0,0,1-.143.039l.292-.053a1,1,0,0,1-.166.016l.274,0a.893.893,0,0,1-.163-.014l.245.044a.776.776,0,0,1-.152-.045l.2.088a.591.591,0,0,1-.15-.092l.15.128a.515.515,0,0,1-.115-.144l.085.164a.574.574,0,0,1-.06-.232l.009.185a.878.878,0,0,1,.02-.221.481.481,0,0,0-.244-.477.764.764,0,0,0-.326-.11,1.064,1.064,0,0,0-.4-.02,1.692,1.692,0,0,0-.81.288.824.824,0,0,0-.41.7,1.57,1.57,0,0,0,.02.32.553.553,0,0,0,.041.127,1.245,1.245,0,0,0,.145.26,1.5,1.5,0,0,0,1,.469,1.922,1.922,0,0,0,.526,0,2.976,2.976,0,0,0,.8-.218,2.2,2.2,0,0,0,.625-.42,1.617,1.617,0,0,0,.207-.259.555.555,0,0,0,.06-.1,1.044,1.044,0,0,0,.089-.632.7.7,0,0,0-.046-.167,2.077,2.077,0,0,0-.177-.337.522.522,0,0,0-.252-.172.789.789,0,0,0-.347-.088,1.243,1.243,0,0,0-.42.029,1.358,1.358,0,0,0-.425.127l-.239.135a1.04,1.04,0,0,0-.322.339q-.033.093-.066.186a.431.431,0,0,0,.094.349" transform="translate(-29.047 -29.649)" fill="#fff"/>
    <path id="パス_148433" data-name="パス 148433" d="M35.771,57.057c.674-.378.777.5.609.933-.189.487-.688.638-1.088.937-.782.583-1.7,1.64-2.785,1.456-1.135-.194-1.662-1.384-2.154-2.26-.186-.332-.8-.946-.585-1.381.25-.517,2.8-5.441,3.058-5.033" transform="translate(-17.895 -31.115)" fill="#fff"/>
    <path id="パス_148434" data-name="パス 148434" d="M35.425,56.835c.195-.1.195.289.18.445a1,1,0,0,1-.579.756c-.533.333-.985.748-1.484,1.127a1.627,1.627,0,0,1-2,.291,3.918,3.918,0,0,1-1.12-1.441,7.675,7.675,0,0,0-.413-.7c-.184-.262-.513-.611-.416-.955a3.566,3.566,0,0,1,.31-.608q.62-1.2,1.281-2.372c.246-.434.5-.868.767-1.285.1-.148.195-.3.3-.436a.972.972,0,0,0,.138-.166c0-.01.022-.049.012-.012.017-.057-.145.246-.382-.048.2.249.84-.026.615-.3-.56-.69-1.471,1.089-1.648,1.384-.631,1.052-1.21,2.138-1.773,3.228-.191.369-.423.71-.264,1.14a6.079,6.079,0,0,0,.6.965c.23.382.417.787.669,1.156a2.5,2.5,0,0,0,1.917,1.229,3.473,3.473,0,0,0,2.251-1.049,14.7,14.7,0,0,1,1.213-.886,1.459,1.459,0,0,0,.669-.9c.164-.79-.371-1.359-1.145-.979-.412.2-.045.593.3.421" transform="translate(-17.396 -30.683)" fill="#fff"/>
    <path id="パス_148435" data-name="パス 148435" d="M75.315,30.081c-.175,1.362-.215,2.857-1.209,3.906-.21.221-.766.434-.862.712-.182.53.423,1.225.637,1.662.669,1.367.535,3.25,1.312,4.5Z" transform="translate(-44.074 -18.109)" fill="#fff"/>
    <path id="パス_148436" data-name="パス 148436" d="M73.173,29.371a8.846,8.846,0,0,1-.635,3.041,2.686,2.686,0,0,1-.93.958,1.1,1.1,0,0,0-.507,1.174,5.222,5.222,0,0,0,.642,1.24,5.771,5.771,0,0,1,.47,1.522,9.591,9.591,0,0,0,.906,3.091c.264.447,1.637.076,1.642-.44q.054-4.716.106-9.433l.016-1.345c.009-.757-1.7-.425-1.709.191L73.066,38.8q-.007.672-.015,1.345l1.642-.44a9.472,9.472,0,0,1-.794-2.935,6.081,6.081,0,0,0-.455-1.445,4.946,4.946,0,0,1-.642-1.24c-.039-.228-.042-.205.133-.316a3.525,3.525,0,0,0,.536-.387,3.6,3.6,0,0,0,.816-1.226,10.967,10.967,0,0,0,.593-2.979c.091-.728-1.631-.438-1.709.191" transform="translate(-42.786 -17.303)" fill="#fff"/>
    <path id="パス_148437" data-name="パス 148437" d="M9.278,24.722c-.047,1.13.8,2.356,1.294,3.344.181.359.415.579.34.975-.131.692-1.33,1.807-1.736,2.343a6.868,6.868,0,0,0-1.067,1.964Z" transform="translate(-4.882 -14.883)" fill="#fff"/>
    <path id="パス_148438" data-name="パス 148438" d="M7.134,24.108a5.345,5.345,0,0,0,.839,2.619c.205.378.405.761.618,1.134a.822.822,0,0,1,.006.961A14.144,14.144,0,0,1,7.24,30.464a7.366,7.366,0,0,0-1.275,2.27l1.7-.219q.512-3.777,1.024-7.554l.146-1.073c.088-.653-1.625-.35-1.7.219q-.512,3.777-1.024,7.554-.073.536-.145,1.073c-.1.7,1.527.266,1.7-.219A6.683,6.683,0,0,1,8.945,30.35a9.234,9.234,0,0,0,1.333-1.67,1.237,1.237,0,0,0,.165-.978,7.555,7.555,0,0,0-.63-1.181,5.7,5.7,0,0,1-.977-2.631c0-.371-.448-.388-.732-.352-.24.03-.966.22-.97.571" transform="translate(-3.589 -14.159)" fill="#fff"/>
    <path id="パス_148439" data-name="パス 148439" d="M47.083,65.777c.394.613.573,1.336.919,1.958" transform="translate(-28.345 -39.599)" fill="#fff"/>
    <path id="パス_148440" data-name="パス 148440" d="M46.724,65.718c.389.613.571,1.325.919,1.958.042.076.311-.025.283-.076-.349-.634-.53-1.346-.919-1.959-.048-.075-.312.031-.283.076" transform="translate(-28.127 -39.502)" fill="#fff"/>
    <path id="パス_148441" data-name="パス 148441" d="M25.3,76.039c.671,1.172,3.047,5.951,4.861,5.776,4.316-.415,4.751-5.729,5.09-5.776,0,0-1.364.465-1.607.607-.013.008-3.735.686-4.882.43-1.779-.4-3.843-.814-4.513-1.986" transform="translate(-14.597 -45.206)" fill="#fff"/>
    <path id="パス_148442" data-name="パス 148442" d="M23.808,75.828c.6,1.057,1.163,2.132,1.836,3.147.629.948,1.445,2.215,2.577,2.608a3.342,3.342,0,0,0,1.9-.116,5.849,5.849,0,0,0,1.921-.9A6.466,6.466,0,0,0,34.113,77.8a14.606,14.606,0,0,0,.512-1.457c.05-.166.1-.334.154-.5.135-.378.183-.168-.384-.005l-.245-.287c-.34.116-.68.236-1.017.362-.213.08-.427.159-.634.254-.546.251.675-.123.242-.07-.794.1-1.579.259-2.376.345a12.672,12.672,0,0,1-1.422.094,6.8,6.8,0,0,1-1.5-.252c-1.19-.277-2.809-.59-3.5-1.719-.17-.276-1.263.181-1.18.316.718,1.166,2.321,1.515,3.559,1.809a8.6,8.6,0,0,0,1.676.3,12.213,12.213,0,0,0,1.627-.079c.954-.094,1.912-.227,2.855-.4a15.362,15.362,0,0,0,2.076-.721c.081-.028.457-.159.373-.3s-.523-.018-.618.01c-.733.211-.738.737-.944,1.387A9.184,9.184,0,0,1,32.1,79.557c-.549.752-1.652,1.829-2.692,1.646a2.6,2.6,0,0,1-1.217-.808,10.6,10.6,0,0,1-1.264-1.589c-.716-1.058-1.3-2.187-1.935-3.295-.156-.275-1.264.168-1.18.316" transform="translate(-13.697 -44.836)" fill="#fff"/>
    <path id="パス_148443" data-name="パス 148443" d="M4.061,44.241C3.045,41.769,1.2,43.681.919,45.319c-.409,2.347.643,3.405,2.394,4.832" transform="translate(-0.5 -25.921)" fill="#fff" fill-rule="evenodd"/>
    <path id="パス_148444" data-name="パス 148444" d="M3.878,43.816c-.284-.668-.758-1.366-1.572-1.322a2.2,2.2,0,0,0-1.584,1.04,4.15,4.15,0,0,0-.154,4.431,8.727,8.727,0,0,0,2,2.024c.208.17.769-.131.492-.357C2.012,48.778.9,47.835.689,46.42a4.106,4.106,0,0,1,.235-2.1,2.565,2.565,0,0,1,1-1.287c.645-.355,1.108.456,1.318.95.116.272.745.089.635-.17" transform="translate(0 -25.581)"/>
    <path id="パス_148445" data-name="パス 148445" d="M74.452,55.27c.995-.109,2.287-.473,2.9.556.574.962-.328,2.192-.838,2.956-.93,1.394-3.217,3.523-5.227,2.4" transform="translate(-42.916 -33.182)" fill="#fff" fill-rule="evenodd"/>
    <path id="パス_148446" data-name="パス 148446" d="M73.951,55.134a4.131,4.131,0,0,1,2.123-.025c.841.386.726,1.357.392,2.049a7.494,7.494,0,0,1-3.035,3.33,2.5,2.5,0,0,1-2.438.092c-.275-.147-.721.256-.361.448,1.759.942,3.683-.273,4.891-1.549a9.432,9.432,0,0,0,1.494-2.113,1.921,1.921,0,0,0-.207-2.48c-.776-.644-1.908-.347-2.809-.244-.141.016-.336.1-.347.266s.161.241.3.226" transform="translate(-42.44 -32.8)"/>
    <path id="パス_148447" data-name="パス 148447" d="M27.489,1.362C25.1,1.06,22.3.406,19.941.963A13.551,13.551,0,0,0,14.956,3.5,16.9,16.9,0,0,0,9.5,9.526a20.553,20.553,0,0,0-1.665,7.561c-.114,1.654.226,3.285.193,4.955C7.985,24.027,7.567,25.6,7.8,27.6c.435,3.676.693,8.471,6.111,10.438,1.281.466,2.867,1.644,4.689,1.848,4.3.481,9.546-1.527,11.842-3.8,2.256-2.231,1.718-3.641,3.209-6.375a27.918,27.918,0,0,0,2.9-9.38c.672-3.794-.533-7.81-1.848-11.415-1.258-3.447-3.023-5.067-6.27-7.126Z" transform="translate(-4.654 -0.449)" fill="#fff" fill-rule="evenodd"/>
    <path id="パス_148448" data-name="パス 148448" d="M27.024.629a34.358,34.358,0,0,0-6.3-.609,11.547,11.547,0,0,0-5.535,1.949c-3.277,2.1-6.33,4.908-7.607,8.676a23.05,23.05,0,0,0-1.059,6.248A27.9,27.9,0,0,0,6.678,20.2a20.745,20.745,0,0,1-.1,3.54,17.781,17.781,0,0,0-.111,3.168c.055.682.147,1.365.233,2.044a16.738,16.738,0,0,0,.888,3.936A8.211,8.211,0,0,0,9.983,36.3a22.563,22.563,0,0,0,4.463,2.351,10.057,10.057,0,0,0,2.735,1.018,11.66,11.66,0,0,0,2.706.1A18.533,18.533,0,0,0,25.5,38.5a14.351,14.351,0,0,0,4.248-2.456,8.4,8.4,0,0,0,2.472-3.9,17.907,17.907,0,0,1,.839-2.275c.433-.909.932-1.78,1.322-2.712a28.749,28.749,0,0,0,1.627-5.783,22.5,22.5,0,0,0,.46-3.161,16.636,16.636,0,0,0-.169-3.155A33.4,33.4,0,0,0,34.5,8.5a12.745,12.745,0,0,0-2.364-4.18,18,18,0,0,0-3.807-3.059,9.31,9.31,0,0,0-1.213-.6.826.826,0,0,0-.731.094c-.133.086-.317.307-.088.411a13.6,13.6,0,0,1,6.093,5.228A23.537,23.537,0,0,1,34.4,11.556a21.232,21.232,0,0,1,1.046,6.329,26.546,26.546,0,0,1-.935,5.786,23.01,23.01,0,0,1-2.03,5.418,15.171,15.171,0,0,0-1,2.256c-.215.631-.389,1.276-.641,1.894a7.642,7.642,0,0,1-2.984,3.417,16.051,16.051,0,0,1-4.711,2.032,12.841,12.841,0,0,1-5.337.415,9.5,9.5,0,0,1-2.614-.99c-.755-.382-1.518-.7-2.291-1.034a7.878,7.878,0,0,1-3.412-2.774C8.068,32.2,7.833,29.569,7.551,27.112c-.235-2.058.246-4.081.209-6.137-.02-1.114-.176-2.219-.209-3.332A20.818,20.818,0,0,1,7.76,14.52,16.51,16.51,0,0,1,9.348,8.8a14.933,14.933,0,0,1,3.525-4.285,19.241,19.241,0,0,1,4.719-3.183,10.742,10.742,0,0,1,5.9-.548c.97.128,1.935.293,2.9.418a.878.878,0,0,0,.73-.2c.129-.143.143-.342-.1-.374" transform="translate(-3.875 -0.001)"/>
    <path id="パス_148449" data-name="パス 148449" d="M22.128,49.61c-.431-.944-1.666-1.309-2.6-1.485a3.61,3.61,0,0,0-3.136.561.309.309,0,0,0,.138.517.757.757,0,0,0,.76-.2c-.1.094.008,0,.028-.016.091-.086-.066.02.024-.016.035-.014.072-.033.106-.051.113-.059-.114.028.014-.006.092-.025.183-.051.277-.07l-.033.006.094-.013.145-.015c.1-.008.2-.012.3-.013.063,0,.069,0,.018,0l.079,0c.062,0,.125.006.187.011a6.249,6.249,0,0,1,.677.094,5.164,5.164,0,0,1,.587.16c.107.036.214.076.319.119s.191.084.235.108a2.577,2.577,0,0,1,.485.324c.064.055-.021-.027.039.038.026.028.052.057.076.086s.045.058.066.089c.01.015.076.142.039.061a.514.514,0,0,0,.635.221c.172-.046.55-.267.439-.509" transform="translate(-9.811 -28.905)"/>
    <path id="パス_148450" data-name="パス 148450" d="M45.425,50.776a1.82,1.82,0,0,1,.858-.538c.024-.009.026-.011.1-.032s.123-.037.185-.054q.175-.048.352-.086a6.479,6.479,0,0,1,.733-.1,3.364,3.364,0,0,1,2.52.586c.294.285,1.312-.129.993-.438a4.487,4.487,0,0,0-3.452-.8,4.572,4.572,0,0,0-3.3,1.4c-.155.211.133.35.3.36a.83.83,0,0,0,.706-.3" transform="translate(-26.712 -29.669)"/>
    <path id="パス_148451" data-name="パス 148451" d="M46.152,43.2a18.693,18.693,0,0,1,2.9-.4,2.908,2.908,0,0,1,.295,0c-.112-.009.136.025.162.031q.112.03.028,0c.039.013.077.028.115.043a2.443,2.443,0,0,1,.22.106c.357.192.687.43,1.042.627a1.37,1.37,0,0,0,1.205-.162c.245-.15.5-.461.152-.654-.373-.206-.718-.462-1.1-.655a2.992,2.992,0,0,0-1.367-.3,18.026,18.026,0,0,0-3.421.431c-.314.062-.886.192-.969.573-.08.364.518.4.733.355" transform="translate(-27.339 -25.191)"/>
    <path id="パス_148452" data-name="パス 148452" d="M21.127,40.27c-.168-.031.164.066,0,0-.041-.016-.082-.029-.122-.047s-.08-.039-.121-.057c.164.071.006,0-.027-.019-.183-.111-.356-.24-.529-.366a4.1,4.1,0,0,0-1.143-.663,2.21,2.21,0,0,0-1.753.193c-.228.129-.441.281-.654.431l-.119.082c-.118.079-.051,0,.016-.008a1.883,1.883,0,0,0-.312.151c-.324.125-.647.6-.39.923a.981.981,0,0,0,1.164.153,3.412,3.412,0,0,0,.646-.361,4.259,4.259,0,0,0,.469-.326c-.148.131-.066.041,0,0l.1-.048c.172-.09-.2.086-.021.012.106-.045-.031.006-.075.011.168-.019-.156-.036-.007,0a.36.36,0,0,0,.1.018q-.165-.044-.079-.017l.071.026c.04.016.079.039.119.053.088.029-.145-.09,0,0l.119.073c.081.051.16.106.238.162.16.114.317.233.478.346a3.217,3.217,0,0,0,1.264.577,1.055,1.055,0,0,0,1.105-.535c.153-.412-.146-.7-.533-.767" transform="translate(-9.562 -23.491)"/>
    <path id="パス_148453" data-name="パス 148453" d="M21.637,49.276c-.027.217-.025.439-.04.656,0-.032,0-.064.007-.1-.009.129-.021.259-.043.387a.792.792,0,0,1-.086.279l.064-.1a.221.221,0,0,1-.031.038l.115-.1-.015.011.158-.1-.043.021.195-.088-.025.01c-.092.038.266-.081.181-.059-.105.027.288-.051.165-.037l.213-.021-.045,0,.186.006a.391.391,0,0,1-.064-.008l.151.031a.392.392,0,0,1-.089-.033l.107.056a.56.56,0,0,1-.189-.179l.054.08a1.333,1.333,0,0,1-.2-.809c0,.032,0,.064-.007.1a.818.818,0,0,1,.017-.116c.075-.332-.524-.28-.7-.249a2.012,2.012,0,0,0-.648.209l-.158.1a.5.5,0,0,0-.18.205,1.431,1.431,0,0,0,.033.693,1.191,1.191,0,0,0,.127.3.81.81,0,0,0,.244.279,1.1,1.1,0,0,0,.661.142,2.585,2.585,0,0,0,.772-.169,1.416,1.416,0,0,0,.555-.336,1.043,1.043,0,0,0,.2-.613c.027-.261.032-.522.05-.784,0,.032,0,.064-.007.1,0-.02,0-.041.006-.061a.112.112,0,0,0-.02-.136.176.176,0,0,0-.134-.1,1.174,1.174,0,0,0-.55-.016,2.006,2.006,0,0,0-.647.209l-.158.1a.5.5,0,0,0-.18.2" transform="translate(-12.433 -29.342)"/>
    <path id="パス_148454" data-name="パス 148454" d="M49.57,50.419q.029.045.055.093l-.085-.164a.737.737,0,0,1,.088.3l-.008-.185a.5.5,0,0,1-.028.188l.066-.185a.5.5,0,0,1-.068.125l.133-.178a.6.6,0,0,1-.089.094l.19-.161a.734.734,0,0,1-.109.076l.239-.135a.889.889,0,0,1-.125.057l.279-.1a1.043,1.043,0,0,1-.143.039l.292-.053a1,1,0,0,1-.166.016l.274,0a.893.893,0,0,1-.163-.014l.245.044a.776.776,0,0,1-.152-.045l.2.088a.591.591,0,0,1-.15-.092l.15.128a.515.515,0,0,1-.115-.144l.085.164a.574.574,0,0,1-.06-.232l.009.185a.878.878,0,0,1,.02-.221.481.481,0,0,0-.244-.477.764.764,0,0,0-.326-.11,1.064,1.064,0,0,0-.4-.02,1.692,1.692,0,0,0-.81.288.824.824,0,0,0-.41.7,1.57,1.57,0,0,0,.02.32.553.553,0,0,0,.041.127,1.245,1.245,0,0,0,.145.26,1.5,1.5,0,0,0,1,.469,1.922,1.922,0,0,0,.526,0,2.976,2.976,0,0,0,.8-.218,2.2,2.2,0,0,0,.625-.42,1.617,1.617,0,0,0,.207-.259.555.555,0,0,0,.06-.1,1.044,1.044,0,0,0,.089-.632.7.7,0,0,0-.046-.167,2.077,2.077,0,0,0-.177-.337.522.522,0,0,0-.252-.172.789.789,0,0,0-.347-.088,1.243,1.243,0,0,0-.42.029,1.358,1.358,0,0,0-.425.127l-.239.135a1.04,1.04,0,0,0-.322.339q-.033.093-.066.186a.431.431,0,0,0,.094.349" transform="translate(-29.047 -29.649)"/>
    <path id="パス_148455" data-name="パス 148455" d="M35.425,56.835c.195-.1.195.289.18.445a1,1,0,0,1-.579.756c-.533.333-.985.748-1.484,1.127a1.627,1.627,0,0,1-2,.291,3.918,3.918,0,0,1-1.12-1.441,7.675,7.675,0,0,0-.413-.7c-.184-.262-.513-.611-.416-.955a3.566,3.566,0,0,1,.31-.608q.62-1.2,1.281-2.372c.246-.434.5-.868.767-1.285.1-.148.195-.3.3-.436a.972.972,0,0,0,.138-.166c0-.01.022-.049.012-.012.017-.057-.145.246-.382-.048.2.249.84-.026.615-.3-.56-.69-1.471,1.089-1.648,1.384-.631,1.052-1.21,2.138-1.773,3.228-.191.369-.423.71-.264,1.14a6.079,6.079,0,0,0,.6.965c.23.382.417.787.669,1.156a2.5,2.5,0,0,0,1.917,1.229,3.473,3.473,0,0,0,2.251-1.049,14.7,14.7,0,0,1,1.213-.886,1.459,1.459,0,0,0,.669-.9c.164-.79-.371-1.359-1.145-.979-.412.2-.045.593.3.421" transform="translate(-17.396 -30.683)"/>
    <path id="パス_148456" data-name="パス 148456" d="M75.315,30.081c-.175,1.362-.215,2.857-1.209,3.906-.21.221-.766.434-.862.712-.182.53.423,1.225.637,1.662.669,1.367.535,3.25,1.312,4.5Z" transform="translate(-44.074 -18.109)" fill="#251e1c" fill-rule="evenodd"/>
    <path id="パス_148457" data-name="パス 148457" d="M73.173,29.371a8.846,8.846,0,0,1-.635,3.041,2.686,2.686,0,0,1-.93.958,1.1,1.1,0,0,0-.507,1.174,5.222,5.222,0,0,0,.642,1.24,5.771,5.771,0,0,1,.47,1.522,9.591,9.591,0,0,0,.906,3.091c.264.447,1.637.076,1.642-.44q.054-4.716.106-9.433l.016-1.345c.009-.757-1.7-.425-1.709.191L73.066,38.8q-.007.672-.015,1.345l1.642-.44a9.472,9.472,0,0,1-.794-2.935,6.081,6.081,0,0,0-.455-1.445,4.946,4.946,0,0,1-.642-1.24c-.039-.228-.042-.205.133-.316a3.525,3.525,0,0,0,.536-.387,3.6,3.6,0,0,0,.816-1.226,10.967,10.967,0,0,0,.593-2.979c.091-.728-1.631-.438-1.709.191" transform="translate(-42.786 -17.303)"/>
    <path id="パス_148458" data-name="パス 148458" d="M9.278,24.722c-.047,1.13.8,2.356,1.294,3.344.181.359.415.579.34.975-.131.692-1.33,1.807-1.736,2.343a6.868,6.868,0,0,0-1.067,1.964Z" transform="translate(-4.882 -14.883)" fill="#251e1c" fill-rule="evenodd"/>
    <path id="パス_148459" data-name="パス 148459" d="M7.134,24.108a5.345,5.345,0,0,0,.839,2.619c.205.378.405.761.618,1.134a.822.822,0,0,1,.006.961A14.144,14.144,0,0,1,7.24,30.464a7.366,7.366,0,0,0-1.275,2.27l1.7-.219q.512-3.777,1.024-7.554l.146-1.073c.088-.653-1.625-.35-1.7.219q-.512,3.777-1.024,7.554-.073.536-.145,1.073c-.1.7,1.527.266,1.7-.219A6.683,6.683,0,0,1,8.945,30.35a9.234,9.234,0,0,0,1.333-1.67,1.237,1.237,0,0,0,.165-.978,7.555,7.555,0,0,0-.63-1.181,5.7,5.7,0,0,1-.977-2.631c0-.371-.448-.388-.732-.352-.24.03-.966.22-.97.571" transform="translate(-3.589 -14.159)"/>
    <path id="パス_148460" data-name="パス 148460" d="M46.724,65.718c.389.613.571,1.325.919,1.958.042.076.311-.025.283-.076-.349-.634-.53-1.346-.919-1.959-.048-.075-.312.031-.283.076" transform="translate(-28.127 -39.502)"/>
    <path id="パス_148461" data-name="パス 148461" d="M23.808,75.828c.6,1.057,1.163,2.132,1.836,3.147.629.948,1.445,2.215,2.577,2.608a3.342,3.342,0,0,0,1.9-.116,5.849,5.849,0,0,0,1.921-.9A6.466,6.466,0,0,0,34.113,77.8a14.606,14.606,0,0,0,.512-1.457c.05-.166.1-.334.154-.5.135-.378.183-.168-.384-.005l-.245-.287c-.34.116-.68.236-1.017.362-.213.08-.427.159-.634.254-.546.251.675-.123.242-.07-.794.1-1.579.259-2.376.345a12.672,12.672,0,0,1-1.422.094,6.8,6.8,0,0,1-1.5-.252c-1.19-.277-2.809-.59-3.5-1.719-.17-.276-1.263.181-1.18.316.718,1.166,2.321,1.515,3.559,1.809a8.6,8.6,0,0,0,1.676.3,12.213,12.213,0,0,0,1.627-.079c.954-.094,1.912-.227,2.855-.4a15.362,15.362,0,0,0,2.076-.721c.081-.028.457-.159.373-.3s-.523-.018-.618.01c-.733.211-.738.737-.944,1.387A9.184,9.184,0,0,1,32.1,79.557c-.549.752-1.652,1.829-2.692,1.646a2.6,2.6,0,0,1-1.217-.808,10.6,10.6,0,0,1-1.264-1.589c-.716-1.058-1.3-2.187-1.935-3.295-.156-.275-1.264.168-1.18.316" transform="translate(-13.697 -44.836)" fill="#251e1c"/>
  </g>
</svg>
