<svg id="グループ_61168" data-name="グループ 61168" xmlns="http://www.w3.org/2000/svg" xmlns:xlink="http://www.w3.org/1999/xlink" width="28.404" height="39.921" viewBox="0 0 28.404 39.921">
  <defs>
    <clipPath id="clip-path">
      <rect id="長方形_23004" data-name="長方形 23004" width="28.404" height="39.921" fill="none"/>
    </clipPath>
  </defs>
  <g id="グループ_61167" data-name="グループ 61167" clip-path="url(#clip-path)">
    <path id="パス_148462" data-name="パス 148462" d="M131.081,130.723c2.264-1.6,1.838,1.159,1.475,2.539-.419,1.591-2.621,3.8-4.25,4.052" transform="translate(-105.853 -107.446)" fill="#fff"/>
    <path id="パス_148463" data-name="パス 148463" d="M128.025,129.288c.086-.06.173-.119.263-.174.048-.029.1-.055.145-.085-.108.067-.04.019-.011.006.045-.02.2-.077-.011,0,.124-.045-.084.023-.088.024.148-.04-.209.04-.066.015.008,0-.284.022-.2.023-.158,0-.018,0,.03.014-.1-.031.016.016.043.035a.365.365,0,0,1,.151.187,2.731,2.731,0,0,1,.087,1.519,5.784,5.784,0,0,1-.43,1.662,7.322,7.322,0,0,1-2.518,2.79c-.1.061-.2.118-.3.173.113-.061,0,0-.025.011l-.172.079c-.128.058.024,0,.034-.013-.069.062-.264.025-.036.018a.517.517,0,0,0-.094.026c-.143.041.2-.036-.023,0a2.388,2.388,0,0,0-.593.183c-.076.035-.286.13-.321.229-.089.251.541.142.616.129a6.342,6.342,0,0,0,2.939-1.424,7.734,7.734,0,0,0,1.9-2.245,5.928,5.928,0,0,0,.574-2.035,2.336,2.336,0,0,0-.172-1.655,1.157,1.157,0,0,0-1.162-.253,4.313,4.313,0,0,0-1.746.74c-.048.033-.21.126-.185.219s.213.1.27.1a2.027,2.027,0,0,0,1.1-.295" transform="translate(-102.205 -106)" fill="#fff"/>
    <path id="パス_148464" data-name="パス 148464" d="M3.073,112.023c-2.557-.138-.272,4.929.25,5.7" transform="translate(-1.554 -92.417)" fill="#fff"/>
    <path id="パス_148465" data-name="パス 148465" d="M1.735,111.3a1.814,1.814,0,0,0-1.437.5A1.711,1.711,0,0,0,0,112.978a8.921,8.921,0,0,0,.874,3.136,7.054,7.054,0,0,0,.562,1.1c.1.151.7-.114.659-.177a9.452,9.452,0,0,1-.974-2.153,9.182,9.182,0,0,1-.4-1.507,2.965,2.965,0,0,1,0-1.281.984.984,0,0,1,.266-.466.946.946,0,0,1,.085-.064c.029-.021.034-.015.029-.015-.058,0-.021,0,.025,0a1.478,1.478,0,0,1,.169,0,.865.865,0,0,0,.466-.125c.1-.066.1-.122-.034-.128" transform="translate(0 -91.823)" fill="#fff"/>
    <path id="パス_148466" data-name="パス 148466" d="M31.731,58.162c-1.233,1.734-1.105,4.33-1.646,6.056-.487,1.553-2.435,3.216-3.516,4.462-2.143,2.47-4.2,4.075-7.458,4.08a5.928,5.928,0,0,1-3.222-.611A20.8,20.8,0,0,1,13.8,70.293c-1.09-.952-1-2.248-1.834-3.453A9.89,9.89,0,0,1,9.98,62.035c-.071-1.817-.472-3.1-.184-4.863.714-4.369-.73-9.643,2.053-13.46,0,0,5.788-4.336,11.843-3.655s14.363,9.207,8.04,18.106" transform="translate(-7.997 -32.987)" fill="#fff"/>
    <path id="パス_148467" data-name="パス 148467" d="M29.853,57.554a10.328,10.328,0,0,0-1.307,4.454,7.536,7.536,0,0,1-.507,2.028,8.163,8.163,0,0,1-1.389,1.937c-.532.593-1.1,1.151-1.64,1.736-.522.566-1.017,1.153-1.57,1.691A8.816,8.816,0,0,1,19.9,71.655a7.769,7.769,0,0,1-2.2.3,6.918,6.918,0,0,1-2.534-.319,6.774,6.774,0,0,1-2.081-1.626,9.6,9.6,0,0,1-.9-.874,3.9,3.9,0,0,1-.552-1.016c-.143-.365-.261-.739-.409-1.1a6.074,6.074,0,0,0-.611-1.105A13.566,13.566,0,0,1,9.3,63.525a7.8,7.8,0,0,1-.409-1.264,8.149,8.149,0,0,1-.151-1.313c-.056-.9-.2-1.793-.254-2.694A8.755,8.755,0,0,1,8.51,56.9c.042-.421.122-.838.168-1.26.085-.789.114-1.584.124-2.377.02-1.636-.044-3.275.083-4.908a11.053,11.053,0,0,1,1.225-4.565q.148-.266.317-.52c.05-.076.1-.154.156-.226,0,0-.041.028-.025.011a.939.939,0,0,1,.129-.093c.23-.163.466-.318.7-.47a19.474,19.474,0,0,1,7.145-2.857,10.961,10.961,0,0,1,4.372.073,11.166,11.166,0,0,1,3.244,1.414,13.152,13.152,0,0,1,5.107,5.845,10.057,10.057,0,0,1-.117,8.359,13.646,13.646,0,0,1-1.291,2.223c-.073.1.24.08.267.075a.585.585,0,0,0,.384-.186,12.181,12.181,0,0,0,2.077-4.65,10.047,10.047,0,0,0-.089-4.281,12.558,12.558,0,0,0-4.458-6.719,12.949,12.949,0,0,0-3.271-1.92,10.07,10.07,0,0,0-3.824-.694,18.756,18.756,0,0,0-8.788,2.537,20.341,20.341,0,0,0-2,1.233,2.755,2.755,0,0,0-.7.956,9.1,9.1,0,0,0-.877,2.281c-.8,3.254-.17,6.634-.6,9.927-.057.439-.136.873-.16,1.316a9.9,9.9,0,0,0,.029,1.361c.076.927.194,1.847.251,2.777a7.276,7.276,0,0,0,.775,2.664,13.638,13.638,0,0,0,.683,1.241c.229.372.5.722.712,1.1.4.711.563,1.525.942,2.247a3.347,3.347,0,0,0,.745.948c.341.3.663.629.994.944a4.777,4.777,0,0,0,2.214,1.353,9.965,9.965,0,0,0,2.559.167,8.81,8.81,0,0,0,4.36-1.312,16.613,16.613,0,0,0,3.421-3.14,18.519,18.519,0,0,0,3.117-3.721,6.894,6.894,0,0,0,.557-2.068c.128-.8.229-1.608.419-2.4a6.261,6.261,0,0,1,.9-2.15c.073-.1-.24-.08-.267-.076a.583.583,0,0,0-.384.187" transform="translate(-6.445 -32.323)" fill="#fff"/>
    <path id="パス_148468" data-name="パス 148468" d="M17.064,10.183a3.955,3.955,0,0,1-1.886.761c-.627.113-1.848-.255-2.353-.051-.3.12-.39.593-.594.85a2.989,2.989,0,0,1-1.5,1.026c-.672.25-1.978.173-2.477.5-.94.625-.646,2.137-1.728,2.784-.624.373-1.485.373-1.907,1.017-.362.553-.218,1.815-.376,2.483a8.718,8.718,0,0,0-.283,1.7c-.793-4.422-2.446-10.453.537-14.411,1.3-1.721,2.824-4.087,4.768-5.238A12.475,12.475,0,0,1,16.676.069a4.805,4.805,0,0,1,2.64,1.119c.556.494,1.01,1.946,1.664,2.046.336.052,1.093-.457,1.492-.535a4.61,4.61,0,0,1,1.67-.028A10.575,10.575,0,0,1,27.7,4.245c3.845,2.388,3.218,7.223,2.306,10.818-.511,2.018-.812,4.111-1.379,6.132-.592,2.109-1.052,5.194-2.783,6.8-.96-.872-.232-4.092-.114-5.29a13.857,13.857,0,0,0,.08-2.967c-.2-1.772-.431-4.19-2.19-5.344-1.115-.731-2.475-.511-3.634-1.1-1.355-.693-1.692-1.7-2.323-2.861Z" transform="translate(-2.292 -0.001)" fill="#fff"/>
    <path id="パス_148469" data-name="パス 148469" d="M17.064,10.183a3.955,3.955,0,0,1-1.886.761c-.627.113-1.848-.255-2.353-.051-.3.12-.39.593-.594.85a2.989,2.989,0,0,1-1.5,1.026c-.672.25-1.978.173-2.477.5-.94.625-.646,2.137-1.728,2.784-.624.373-1.485.373-1.907,1.017-.362.553-.218,1.815-.376,2.483a8.718,8.718,0,0,0-.283,1.7c-.793-4.422-2.446-10.453.537-14.411,1.3-1.721,2.824-4.087,4.768-5.238A12.475,12.475,0,0,1,16.676.069a4.805,4.805,0,0,1,2.64,1.119c.556.494,1.01,1.946,1.664,2.046.336.052,1.093-.457,1.492-.535a4.61,4.61,0,0,1,1.67-.028A10.575,10.575,0,0,1,27.7,4.245c3.845,2.388,3.218,7.223,2.306,10.818-.511,2.018-.812,4.111-1.379,6.132-.592,2.109-1.052,5.194-2.783,6.8-.96-.872-.232-4.092-.114-5.29a13.857,13.857,0,0,0,.08-2.967c-.2-1.772-.431-4.19-2.19-5.344-1.115-.731-2.475-.511-3.634-1.1-1.355-.693-1.692-1.7-2.323-2.861Z" transform="translate(-2.292 -0.001)" fill="#fff"/>
    <path id="パス_148470" data-name="パス 148470" d="M77.961,103.3a9.319,9.319,0,0,1,3.054-1.326c.92-.275,1.3.026,2.009.827" transform="translate(-64.318 -84.051)" fill="#fff"/>
    <path id="パス_148471" data-name="パス 148471" d="M74.887,101.553c.089-.069.18-.138.275-.2-.086.055.093-.053.091-.052l.121-.069q.092-.051.186-.1c.015-.008.181-.087.1-.051s.111-.048.106-.046l.164-.069c.22-.09.445-.168.669-.248.093-.033-.119.037.031-.01l.2-.064.328-.1c.107-.032.213-.066.321-.1.026-.007.2-.038.079-.022s.045-.01.066-.006c-.072-.014-.118.007-.011.007.086,0-.125-.007,0,0s-.052-.021.02,0c.037.012.074.025.109.04a3.091,3.091,0,0,1,.869.779c.313.353,1.791-.194,1.452-.576a2.294,2.294,0,0,0-2.95-.83,10.358,10.358,0,0,0-3.451,1.531c-.076.059-.2.179-.165.293s.194.156.29.171a1.565,1.565,0,0,0,1.1-.295" transform="translate(-60.632 -82.214)" fill="#fff"/>
    <path id="パス_148472" data-name="パス 148472" d="M29.557,99.606a7.281,7.281,0,0,0-2.837-1.491c-.736-.221-.922.141-1.586.5" transform="translate(-20.735 -80.89)" fill="#fff"/>
    <path id="パス_148473" data-name="パス 148473" d="M26.537,96.673a3.551,3.551,0,0,0-1.039-.794,11.207,11.207,0,0,0-1.413-.646,3.43,3.43,0,0,0-1.5-.325,2.189,2.189,0,0,0-.87.269c-.141.079-.276.166-.412.254l-.134.087-.086.054q.1-.061-.02.009c-.257.141-.613.456-.375.772a.909.909,0,0,0,1.052.1c.234-.129.458-.272.682-.416l.071-.045q.075-.046-.056.033c0-.015.077-.038.092-.046.149-.081-.177.047-.012.007-.039.009-.167.032-.055.016-.164.024-.026,0,.04.014-.079-.014,0,0,.033.013.072.023.145.045.216.069.181.06.36.126.537.2s.38.154.566.239c.016.008.141.066.051.023l.141.07q.139.07.275.145a4.935,4.935,0,0,1,.492.308c.036.026.071.052.106.08.011.009.119.1.059.046s.036.036.047.047c.03.031.059.064.086.1a.909.909,0,0,0,1.051.1c.247-.127.627-.469.375-.772" transform="translate(-17.002 -78.293)" fill="#fff"/>
    <path id="パス_148474" data-name="パス 148474" d="M49.537,146.941c.429,2.157-2.239,2.422-3.739,2.113-.793-.164-1.73-.544-1.854-1.454a1.072,1.072,0,0,1,.779-1.267" transform="translate(-36.242 -120.725)" fill="#fff"/>
    <path id="パス_148475" data-name="パス 148475" d="M47.291,145.844a1.436,1.436,0,0,1-.309,1.317,1.985,1.985,0,0,1-1.1.486,4.918,4.918,0,0,1-1.48.007,2.869,2.869,0,0,1-1.541-.615,1.227,1.227,0,0,1-.4-.948.74.74,0,0,1,.463-.727c.136-.041.37-.156.326-.336s-.325-.166-.451-.128a1.527,1.527,0,0,0-1.007.8,1.488,1.488,0,0,0-.007,1.142,2.462,2.462,0,0,0,1.868,1.24,5.991,5.991,0,0,0,1.911.1,3.624,3.624,0,0,0,1.835-.649,1.849,1.849,0,0,0,.665-1.9c-.059-.315-.839-.121-.777.208" transform="translate(-34.385 -119.525)" fill="#fff"/>
    <path id="パス_148476" data-name="パス 148476" d="M33,172.77c.541.944,2.456,4.8,3.918,4.656,3.479-.334,3.829-4.618,4.1-4.656,0,0-1.1.375-1.295.49a17.362,17.362,0,0,1-3.935.346c-1.434-.32-3.1-.656-3.638-1.6" transform="translate(-26.523 -141.905)" fill="#fff"/>
    <path id="パス_148477" data-name="パス 148477" d="M30.262,171.965c.469.822.905,1.659,1.424,2.452a10.735,10.735,0,0,0,1.017,1.347,2.915,2.915,0,0,0,1.078.826,2.7,2.7,0,0,0,1.63-.1,4.715,4.715,0,0,0,1.625-.808,5.376,5.376,0,0,0,1.576-2.241c.151-.371.273-.752.388-1.135.038-.125.073-.251.117-.373.014-.038.032-.074.045-.112,0-.01.024-.032.023-.041.006.079-.72.262-.52.218l-.07-.26a9.141,9.141,0,0,0-1.5.581l.326-.13c.27-.078-.018,0-.091.011q-.259.045-.52.086c-.472.074-.944.139-1.475.191a5.918,5.918,0,0,1-1.291.038,12.294,12.294,0,0,1-1.944-.474,2.973,2.973,0,0,1-1.741-1.1c-.132-.222-1.018.141-.951.255a3.375,3.375,0,0,0,2.066,1.248c.458.135.925.24,1.392.344a4.159,4.159,0,0,0,.894.112,15.019,15.019,0,0,0,2.131-.181c.482-.066.967-.133,1.444-.228.053-.01.1-.021.157-.035a1.224,1.224,0,0,0,.181-.061.832.832,0,0,0,.146-.069q-.093.047-.032.017c.034-.015.2-.083.117-.051.085-.033.17-.065.255-.1q.376-.139.755-.268c.06-.021.343-.115.314-.224s-.322-.05-.384-.037c-.349.077-.576.165-.687.492-.087.257-.157.519-.241.777a6.914,6.914,0,0,1-1.114,2.2,3.579,3.579,0,0,1-1.028.888,2.624,2.624,0,0,1-.264.127c.043-.018-.084.031-.114.042-.094.033-.036.013-.015.007-.04.013-.08.023-.12.034A2.562,2.562,0,0,1,35,176.3l-.108.012c-.09.01.061,0,0,0s0,.008-.085-.007a2.106,2.106,0,0,1-1-.641A8.375,8.375,0,0,1,32.8,174.4c-.588-.863-1.067-1.786-1.584-2.692-.126-.221-1.019.135-.951.255" transform="translate(-24.264 -140.973)" fill="#fff"/>
    <path id="パス_148478" data-name="パス 148478" d="M79.019,123.862c-1.153-.75-3.652-1.289-4.722-.1" transform="translate(-61.295 -101.529)" fill="#fff"/>
    <path id="パス_148479" data-name="パス 148479" d="M77.513,122.754a5.722,5.722,0,0,0-2.684-.842,3.408,3.408,0,0,0-2.759.886c-.128.137.109.2.2.2a.707.707,0,0,0,.515-.206,2.153,2.153,0,0,1,1.872-.46,5.086,5.086,0,0,1,2.129.712.574.574,0,0,0,.511-.005c.056-.023.358-.2.213-.289" transform="translate(-59.427 -100.568)" fill="#fff"/>
    <path id="パス_148480" data-name="パス 148480" d="M84.842,123.675c.186,1.826-2.416-.185-.668-.394" transform="translate(-68.942 -101.707)" fill="#fff"/>
    <path id="パス_148481" data-name="パス 148481" d="M82.6,122.511c0,.031.006.062.007.093l0-.069a1.045,1.045,0,0,1-.04.385l.023-.07a.507.507,0,0,1-.065.129l.047-.066a.4.4,0,0,1-.056.063l.068-.06a.358.358,0,0,1-.057.041l.086-.05a.39.39,0,0,1-.056.026l.1-.037a.412.412,0,0,1-.064.017l.106-.019a.485.485,0,0,1-.081.007h.1a.644.644,0,0,1-.117-.012l.089.018a.877.877,0,0,1-.19-.063l.074.034a1.169,1.169,0,0,1-.283-.185l.055.048a.938.938,0,0,1-.217-.269l.032.062a.488.488,0,0,1-.056-.19l0,.069a.324.324,0,0,1,.015-.118l-.023.069a.315.315,0,0,1,.042-.081l-.047.066a.375.375,0,0,1,.056-.061l-.068.06a.5.5,0,0,1,.078-.055l-.086.05a.769.769,0,0,1,.114-.053l-.1.037a1.224,1.224,0,0,1,.2-.052l-.106.019q.05-.009.1-.015a.632.632,0,0,0,.293-.105.318.318,0,0,0,.139-.2c.012-.186-.2-.25-.353-.231a1.761,1.761,0,0,0-.6.163,1.107,1.107,0,0,0-.268.189.408.408,0,0,0-.043.049.7.7,0,0,0-.075.113.536.536,0,0,0-.039.357.818.818,0,0,0,.144.292,1.4,1.4,0,0,0,.589.441,1.011,1.011,0,0,0,.353.081,1.181,1.181,0,0,0,.323-.03.955.955,0,0,0,.293-.128.851.851,0,0,0,.352-.783c0-.063-.006-.126-.012-.189s-.1-.126-.161-.144a.532.532,0,0,0-.294,0,.52.52,0,0,0-.255.146l-.047.066a.191.191,0,0,0-.02.139" transform="translate(-67.09 -100.439)" fill="#fff"/>
    <path id="パス_148482" data-name="パス 148482" d="M29.627,120.893c-.476-.845-3.053-1.171-3.985-.867" transform="translate(-21.155 -98.929)" fill="#fff"/>
    <path id="パス_148483" data-name="パス 148483" d="M28.167,119.744a2.823,2.823,0,0,0-1.969-.961,5.3,5.3,0,0,0-2.452.019c-.108.034-.378.124-.341.283s.346.1.437.075c.029-.009.2-.051.107-.032.07-.014.141-.024.212-.032a3.564,3.564,0,0,1,.438-.02,6.417,6.417,0,0,1,1.117.107,4.64,4.64,0,0,1,1.03.3,1.353,1.353,0,0,1,.643.471c.145.245.888-.021.777-.208" transform="translate(-19.307 -97.885)" fill="#fff"/>
    <path id="パス_148484" data-name="パス 148484" d="M35.232,120.41c-.255,2.109-1.514.275-.548-.309" transform="translate(-28.318 -99.084)" fill="#fff"/>
    <path id="パス_148485" data-name="パス 148485" d="M33.014,119.758c0,.031-.008.061-.012.092l.005-.036a2,2,0,0,1-.185.66.732.732,0,0,1-.068.106l.031-.04a.436.436,0,0,1-.076.076l.054-.041a.338.338,0,0,1-.038.024l.074-.04-.013.006-.006,0c-.027.013-.092.029.081-.033-.061.022.111-.033.076-.023a.655.655,0,0,0,.078-.018c-.01,0,.128-.013.081-.011h-.013l.084,0-.033,0,.068.008a.269.269,0,0,1-.062-.016l.047.019a.408.408,0,0,1-.162-.13l.023.029a.824.824,0,0,1-.163-.468.85.85,0,0,1,.007-.154l-.005.036a.733.733,0,0,1,.146-.349L33,119.5a.736.736,0,0,1,.132-.13l-.054.041a.864.864,0,0,1,.073-.05c.028-.017.1-.07.091-.117s-.1-.055-.137-.056a.945.945,0,0,0-.284.038,1.068,1.068,0,0,0-.265.109.9.9,0,0,0-.422.53.919.919,0,0,0,.028.542.814.814,0,0,0,.132.225.416.416,0,0,0,.148.122.535.535,0,0,0,.193.049,1.082,1.082,0,0,0,.361-.043,1.2,1.2,0,0,0,.342-.143.634.634,0,0,0,.134-.112,1.5,1.5,0,0,0,.293-.776q.014-.088.024-.176c.006-.046-.125-.055-.137-.056a.909.909,0,0,0-.284.038.9.9,0,0,0-.265.109l-.054.041a.084.084,0,0,0-.037.076" transform="translate(-26.489 -98.328)" fill="#fff"/>
    <path id="パス_148486" data-name="パス 148486" d="M32.53,112.728a42.041,42.041,0,0,0-4.37.142c-.715.043-.47.06-1.033-.369a2.55,2.55,0,0,0-1.091-.565,12.146,12.146,0,0,0-5.956-.062c-.759.216-1.1.631-1.917.45-.967-.213-1.589-1.106-2.659-1.423-1.805-.535-3.994-.9-5.515.491" transform="translate(-8.24 -91.101)" fill="#fff"/>
    <path id="パス_148487" data-name="パス 148487" d="M31.747,112.345a28.892,28.892,0,0,0-2.892.051c-.479.028-.958.06-1.437.089-.213.013-.468.082-.651-.055-.242-.182-.462-.39-.718-.555a3,3,0,0,0-1.029-.378,14.883,14.883,0,0,0-2.678-.342,10.762,10.762,0,0,0-2.607.216,6.1,6.1,0,0,0-1.151.351,1.8,1.8,0,0,1-1.059.244,5.512,5.512,0,0,1-1.907-1.044,6.2,6.2,0,0,0-2.1-.711,5.261,5.261,0,0,0-4.62.891c-.065.058.058.054.089.053a.479.479,0,0,0,.261-.09,4.6,4.6,0,0,1,4.239-.649,8.665,8.665,0,0,1,1.113.307,4.308,4.308,0,0,1,.914.5,4.058,4.058,0,0,0,1.792.9,4.9,4.9,0,0,0,1.91-.515,9.163,9.163,0,0,1,2.666-.311,14.2,14.2,0,0,1,2.658.309,3.271,3.271,0,0,1,1.088.366,6.934,6.934,0,0,1,.731.557.66.66,0,0,0,.512.121c.47-.025.939-.058,1.408-.087a30.846,30.846,0,0,1,3.208-.07.465.465,0,0,0,.275-.074c.05-.042.065-.07-.02-.074" transform="translate(-7.33 -90.791)" fill="#fff"/>
    <path id="パス_148488" data-name="パス 148488" d="M24.244,118.49a2.551,2.551,0,0,1-.6,1.4c-.361.416-.6.4-1.184.39a22.366,22.366,0,0,1-3.395-.27c-1.335-.227-1.484-1.857-1.657-2.938" transform="translate(-14.366 -96.587)" fill="#fff"/>
    <path id="パス_148489" data-name="パス 148489" d="M23.123,117.773a2.378,2.378,0,0,1-.358,1.05,1.163,1.163,0,0,1-.586.552,3.168,3.168,0,0,1-.862.025q-.625-.012-1.249-.053c-.395-.026-.789-.063-1.182-.112a3.673,3.673,0,0,1-.983-.19,1.752,1.752,0,0,1-.881-1.1,9.6,9.6,0,0,1-.34-1.647c-.03-.191-.42-.092-.389.1.16,1.011.274,2.381,1.321,2.89a3.308,3.308,0,0,0,1.02.229c.46.061.922.1,1.385.133s.9.045,1.347.053a2.889,2.889,0,0,0,.951-.062,2.234,2.234,0,0,0,1.2-1.892c.019-.209-.378-.163-.395.025" transform="translate(-13.442 -95.858)" fill="#fff"/>
    <path id="パス_148490" data-name="パス 148490" d="M72.017,124.837a2.656,2.656,0,0,1-1.353,1.953,7.238,7.238,0,0,1-2.738-.042c-.542-.048-1.089-.135-1.633-.162-.584-.028-1.563.051-1.883-.517a4.316,4.316,0,0,1-.365-2.053" transform="translate(-52.829 -102.315)" fill="#fff"/>
    <path id="パス_148491" data-name="パス 148491" d="M70.905,124.547A2.508,2.508,0,0,1,70,126.194c-.545.472-1.4.309-2.055.229-.817-.1-1.642-.222-2.465-.257-.54-.023-1.313.074-1.711-.379a2.157,2.157,0,0,1-.371-1.011,4.462,4.462,0,0,1-.075-1.154c0-.048-.38-.009-.388.1a4.47,4.47,0,0,0,.075,1.154,2.213,2.213,0,0,0,.375,1.019c.416.488,1.247.4,1.82.42.926.036,1.848.2,2.769.289a3.385,3.385,0,0,0,2.137-.267,2.606,2.606,0,0,0,1.185-1.9c0-.055-.386-.006-.388.1" transform="translate(-51.911 -101.973)" fill="#fff"/>
    <path id="パス_148492" data-name="パス 148492" d="M131.081,130.723c2.264-1.6,1.838,1.159,1.475,2.539-.419,1.591-2.621,3.8-4.25,4.052" transform="translate(-105.853 -107.446)" fill="#fff"/>
    <path id="パス_148493" data-name="パス 148493" d="M128.025,129.288c.086-.06.173-.119.263-.174.048-.029.1-.055.145-.085-.108.067-.04.019-.011.006.045-.02.2-.077-.011,0,.124-.045-.084.023-.088.024.148-.04-.209.04-.066.015.008,0-.284.022-.2.023-.158,0-.018,0,.03.014-.1-.031.016.016.043.035a.365.365,0,0,1,.151.187,2.731,2.731,0,0,1,.087,1.519,5.784,5.784,0,0,1-.43,1.662,7.322,7.322,0,0,1-2.518,2.79c-.1.061-.2.118-.3.173.113-.061,0,0-.025.011l-.172.079c-.128.058.024,0,.034-.013-.069.062-.264.025-.036.018a.517.517,0,0,0-.094.026c-.143.041.2-.036-.023,0a2.388,2.388,0,0,0-.593.183c-.076.035-.286.13-.321.229-.089.251.541.142.616.129a6.342,6.342,0,0,0,2.939-1.424,7.734,7.734,0,0,0,1.9-2.245,5.928,5.928,0,0,0,.574-2.035,2.336,2.336,0,0,0-.172-1.655,1.157,1.157,0,0,0-1.162-.253,4.313,4.313,0,0,0-1.746.74c-.048.033-.21.126-.185.219s.213.1.27.1a2.027,2.027,0,0,0,1.1-.295" transform="translate(-102.205 -106)" fill="#251e1c"/>
    <path id="パス_148494" data-name="パス 148494" d="M3.073,112.023c-2.557-.138-.272,4.929.25,5.7" transform="translate(-1.554 -92.417)" fill="#fff"/>
    <path id="パス_148495" data-name="パス 148495" d="M1.735,111.3a1.814,1.814,0,0,0-1.437.5A1.711,1.711,0,0,0,0,112.978a8.921,8.921,0,0,0,.874,3.136,7.054,7.054,0,0,0,.562,1.1c.1.151.7-.114.659-.177a9.452,9.452,0,0,1-.974-2.153,9.182,9.182,0,0,1-.4-1.507,2.965,2.965,0,0,1,0-1.281.984.984,0,0,1,.266-.466.946.946,0,0,1,.085-.064c.029-.021.034-.015.029-.015-.058,0-.021,0,.025,0a1.478,1.478,0,0,1,.169,0,.865.865,0,0,0,.466-.125c.1-.066.1-.122-.034-.128" transform="translate(0 -91.823)" fill="#251e1c"/>
    <path id="パス_148496" data-name="パス 148496" d="M31.731,58.162c-1.233,1.734-1.105,4.33-1.646,6.056-.487,1.553-2.435,3.216-3.516,4.462-2.143,2.47-4.2,4.075-7.458,4.08a5.928,5.928,0,0,1-3.222-.611A20.8,20.8,0,0,1,13.8,70.293c-1.09-.952-1-2.248-1.834-3.453A9.89,9.89,0,0,1,9.98,62.035c-.071-1.817-.472-3.1-.184-4.863.714-4.369-.73-9.643,2.053-13.46,0,0,5.788-4.336,11.843-3.655s14.363,9.207,8.04,18.106" transform="translate(-7.997 -32.987)" fill="#fff"/>
    <path id="パス_148497" data-name="パス 148497" d="M29.853,57.554a10.328,10.328,0,0,0-1.307,4.454,7.536,7.536,0,0,1-.507,2.028,8.163,8.163,0,0,1-1.389,1.937c-.532.593-1.1,1.151-1.64,1.736-.522.566-1.017,1.153-1.57,1.691A8.816,8.816,0,0,1,19.9,71.655a7.769,7.769,0,0,1-2.2.3,6.918,6.918,0,0,1-2.534-.319,6.774,6.774,0,0,1-2.081-1.626,9.6,9.6,0,0,1-.9-.874,3.9,3.9,0,0,1-.552-1.016c-.143-.365-.261-.739-.409-1.1a6.074,6.074,0,0,0-.611-1.105A13.566,13.566,0,0,1,9.3,63.525a7.8,7.8,0,0,1-.409-1.264,8.149,8.149,0,0,1-.151-1.313c-.056-.9-.2-1.793-.254-2.694A8.755,8.755,0,0,1,8.51,56.9c.042-.421.122-.838.168-1.26.085-.789.114-1.584.124-2.377.02-1.636-.044-3.275.083-4.908a11.053,11.053,0,0,1,1.225-4.565q.148-.266.317-.52c.05-.076.1-.154.156-.226,0,0-.041.028-.025.011a.939.939,0,0,1,.129-.093c.23-.163.466-.318.7-.47a19.474,19.474,0,0,1,7.145-2.857,10.961,10.961,0,0,1,4.372.073,11.166,11.166,0,0,1,3.244,1.414,13.152,13.152,0,0,1,5.107,5.845,10.057,10.057,0,0,1-.117,8.359,13.646,13.646,0,0,1-1.291,2.223c-.073.1.24.08.267.075a.585.585,0,0,0,.384-.186,12.181,12.181,0,0,0,2.077-4.65,10.047,10.047,0,0,0-.089-4.281,12.558,12.558,0,0,0-4.458-6.719,12.949,12.949,0,0,0-3.271-1.92,10.07,10.07,0,0,0-3.824-.694,18.756,18.756,0,0,0-8.788,2.537,20.341,20.341,0,0,0-2,1.233,2.755,2.755,0,0,0-.7.956,9.1,9.1,0,0,0-.877,2.281c-.8,3.254-.17,6.634-.6,9.927-.057.439-.136.873-.16,1.316a9.9,9.9,0,0,0,.029,1.361c.076.927.194,1.847.251,2.777a7.276,7.276,0,0,0,.775,2.664,13.638,13.638,0,0,0,.683,1.241c.229.372.5.722.712,1.1.4.711.563,1.525.942,2.247a3.347,3.347,0,0,0,.745.948c.341.3.663.629.994.944a4.777,4.777,0,0,0,2.214,1.353,9.965,9.965,0,0,0,2.559.167,8.81,8.81,0,0,0,4.36-1.312,16.613,16.613,0,0,0,3.421-3.14,18.519,18.519,0,0,0,3.117-3.721,6.894,6.894,0,0,0,.557-2.068c.128-.8.229-1.608.419-2.4a6.261,6.261,0,0,1,.9-2.15c.073-.1-.24-.08-.267-.076a.583.583,0,0,0-.384.187" transform="translate(-6.445 -32.323)" fill="#251e1c"/>
    <path id="パス_148498" data-name="パス 148498" d="M17.064,10.183a3.955,3.955,0,0,1-1.886.761c-.627.113-1.848-.255-2.353-.051-.3.12-.39.593-.594.85a2.989,2.989,0,0,1-1.5,1.026c-.672.25-1.978.173-2.477.5-.94.625-.646,2.137-1.728,2.784-.624.373-1.485.373-1.907,1.017-.362.553-.218,1.815-.376,2.483a8.718,8.718,0,0,0-.283,1.7c-.793-4.422-2.446-10.453.537-14.411,1.3-1.721,2.824-4.087,4.768-5.238A12.475,12.475,0,0,1,16.676.069a4.805,4.805,0,0,1,2.64,1.119c.556.494,1.01,1.946,1.664,2.046.336.052,1.093-.457,1.492-.535a4.61,4.61,0,0,1,1.67-.028A10.575,10.575,0,0,1,27.7,4.245c3.845,2.388,3.218,7.223,2.306,10.818-.511,2.018-.812,4.111-1.379,6.132-.592,2.109-1.052,5.194-2.783,6.8-.96-.872-.232-4.092-.114-5.29a13.857,13.857,0,0,0,.08-2.967c-.2-1.772-.431-4.19-2.19-5.344-1.115-.731-2.475-.511-3.634-1.1-1.355-.693-1.692-1.7-2.323-2.861Z" transform="translate(-2.292 -0.001)" fill="#251e1c"/>
    <path id="パス_148499" data-name="パス 148499" d="M74.887,101.553c.089-.069.18-.138.275-.2-.086.055.093-.053.091-.052l.121-.069q.092-.051.186-.1c.015-.008.181-.087.1-.051s.111-.048.106-.046l.164-.069c.22-.09.445-.168.669-.248.093-.033-.119.037.031-.01l.2-.064.328-.1c.107-.032.213-.066.321-.1.026-.007.2-.038.079-.022s.045-.01.066-.006c-.072-.014-.118.007-.011.007.086,0-.125-.007,0,0s-.052-.021.02,0c.037.012.074.025.109.04a3.091,3.091,0,0,1,.869.779c.313.353,1.791-.194,1.452-.576a2.294,2.294,0,0,0-2.95-.83,10.358,10.358,0,0,0-3.451,1.531c-.076.059-.2.179-.165.293s.194.156.29.171a1.565,1.565,0,0,0,1.1-.295" transform="translate(-60.632 -82.214)" fill="#251e1c"/>
    <path id="パス_148500" data-name="パス 148500" d="M26.537,96.673a3.551,3.551,0,0,0-1.039-.794,11.207,11.207,0,0,0-1.413-.646,3.43,3.43,0,0,0-1.5-.325,2.189,2.189,0,0,0-.87.269c-.141.079-.276.166-.412.254l-.134.087-.086.054q.1-.061-.02.009c-.257.141-.613.456-.375.772a.909.909,0,0,0,1.052.1c.234-.129.458-.272.682-.416l.071-.045q.075-.046-.056.033c0-.015.077-.038.092-.046.149-.081-.177.047-.012.007-.039.009-.167.032-.055.016-.164.024-.026,0,.04.014-.079-.014,0,0,.033.013.072.023.145.045.216.069.181.06.36.126.537.2s.38.154.566.239c.016.008.141.066.051.023l.141.07q.139.07.275.145a4.935,4.935,0,0,1,.492.308c.036.026.071.052.106.08.011.009.119.1.059.046s.036.036.047.047c.03.031.059.064.086.1a.909.909,0,0,0,1.051.1c.247-.127.627-.469.375-.772" transform="translate(-17.002 -78.293)" fill="#251e1c"/>
    <path id="パス_148501" data-name="パス 148501" d="M47.291,145.844a1.436,1.436,0,0,1-.309,1.317,1.985,1.985,0,0,1-1.1.486,4.918,4.918,0,0,1-1.48.007,2.869,2.869,0,0,1-1.541-.615,1.227,1.227,0,0,1-.4-.948.74.74,0,0,1,.463-.727c.136-.041.37-.156.326-.336s-.325-.166-.451-.128a1.527,1.527,0,0,0-1.007.8,1.488,1.488,0,0,0-.007,1.142,2.462,2.462,0,0,0,1.868,1.24,5.991,5.991,0,0,0,1.911.1,3.624,3.624,0,0,0,1.835-.649,1.849,1.849,0,0,0,.665-1.9c-.059-.315-.839-.121-.777.208" transform="translate(-34.385 -119.525)" fill="#251e1c"/>
    <path id="パス_148502" data-name="パス 148502" d="M30.262,171.965c.469.822.905,1.659,1.424,2.452a10.735,10.735,0,0,0,1.017,1.347,2.915,2.915,0,0,0,1.078.826,2.7,2.7,0,0,0,1.63-.1,4.715,4.715,0,0,0,1.625-.808,5.376,5.376,0,0,0,1.576-2.241c.151-.371.273-.752.388-1.135.038-.125.073-.251.117-.373.014-.038.032-.074.045-.112,0-.01.024-.032.023-.041.006.079-.72.262-.52.218l-.07-.26a9.141,9.141,0,0,0-1.5.581l.326-.13c.27-.078-.018,0-.091.011q-.259.045-.52.086c-.472.074-.944.139-1.475.191a5.918,5.918,0,0,1-1.291.038,12.294,12.294,0,0,1-1.944-.474,2.973,2.973,0,0,1-1.741-1.1c-.132-.222-1.018.141-.951.255a3.375,3.375,0,0,0,2.066,1.248c.458.135.925.24,1.392.344a4.159,4.159,0,0,0,.894.112,15.019,15.019,0,0,0,2.131-.181c.482-.066.967-.133,1.444-.228.053-.01.1-.021.157-.035a1.224,1.224,0,0,0,.181-.061.832.832,0,0,0,.146-.069q-.093.047-.032.017c.034-.015.2-.083.117-.051.085-.033.17-.065.255-.1q.376-.139.755-.268c.06-.021.343-.115.314-.224s-.322-.05-.384-.037c-.349.077-.576.165-.687.492-.087.257-.157.519-.241.777a6.914,6.914,0,0,1-1.114,2.2,3.579,3.579,0,0,1-1.028.888,2.624,2.624,0,0,1-.264.127c.043-.018-.084.031-.114.042-.094.033-.036.013-.015.007-.04.013-.08.023-.12.034A2.562,2.562,0,0,1,35,176.3l-.108.012c-.09.01.061,0,0,0s0,.008-.085-.007a2.106,2.106,0,0,1-1-.641A8.375,8.375,0,0,1,32.8,174.4c-.588-.863-1.067-1.786-1.584-2.692-.126-.221-1.019.135-.951.255" transform="translate(-24.264 -140.973)" fill="#251e1c"/>
    <path id="パス_148503" data-name="パス 148503" d="M77.513,122.754a5.722,5.722,0,0,0-2.684-.842,3.408,3.408,0,0,0-2.759.886c-.128.137.109.2.2.2a.707.707,0,0,0,.515-.206,2.153,2.153,0,0,1,1.872-.46,5.086,5.086,0,0,1,2.129.712.574.574,0,0,0,.511-.005c.056-.023.358-.2.213-.289" transform="translate(-59.427 -100.568)" fill="#251e1c"/>
    <path id="パス_148504" data-name="パス 148504" d="M84.842,123.675c.186,1.826-2.416-.185-.668-.394" transform="translate(-68.942 -101.707)" fill="#251e1c"/>
    <path id="パス_148505" data-name="パス 148505" d="M82.6,122.511c0,.031.006.062.007.093l0-.069a1.045,1.045,0,0,1-.04.385l.023-.07a.507.507,0,0,1-.065.129l.047-.066a.4.4,0,0,1-.056.063l.068-.06a.358.358,0,0,1-.057.041l.086-.05a.39.39,0,0,1-.056.026l.1-.037a.412.412,0,0,1-.064.017l.106-.019a.485.485,0,0,1-.081.007h.1a.644.644,0,0,1-.117-.012l.089.018a.877.877,0,0,1-.19-.063l.074.034a1.169,1.169,0,0,1-.283-.185l.055.048a.938.938,0,0,1-.217-.269l.032.062a.488.488,0,0,1-.056-.19l0,.069a.324.324,0,0,1,.015-.118l-.023.069a.315.315,0,0,1,.042-.081l-.047.066a.375.375,0,0,1,.056-.061l-.068.06a.5.5,0,0,1,.078-.055l-.086.05a.769.769,0,0,1,.114-.053l-.1.037a1.224,1.224,0,0,1,.2-.052l-.106.019q.05-.009.1-.015a.632.632,0,0,0,.293-.105.318.318,0,0,0,.139-.2c.012-.186-.2-.25-.353-.231a1.761,1.761,0,0,0-.6.163,1.107,1.107,0,0,0-.268.189.408.408,0,0,0-.043.049.7.7,0,0,0-.075.113.536.536,0,0,0-.039.357.818.818,0,0,0,.144.292,1.4,1.4,0,0,0,.589.441,1.011,1.011,0,0,0,.353.081,1.181,1.181,0,0,0,.323-.03.955.955,0,0,0,.293-.128.851.851,0,0,0,.352-.783c0-.063-.006-.126-.012-.189s-.1-.126-.161-.144a.532.532,0,0,0-.294,0,.52.52,0,0,0-.255.146l-.047.066a.191.191,0,0,0-.02.139" transform="translate(-67.09 -100.439)" fill="#251e1c"/>
    <path id="パス_148506" data-name="パス 148506" d="M28.167,119.744a2.823,2.823,0,0,0-1.969-.961,5.3,5.3,0,0,0-2.452.019c-.108.034-.378.124-.341.283s.346.1.437.075c.029-.009.2-.051.107-.032.07-.014.141-.024.212-.032a3.564,3.564,0,0,1,.438-.02,6.417,6.417,0,0,1,1.117.107,4.64,4.64,0,0,1,1.03.3,1.353,1.353,0,0,1,.643.471c.145.245.888-.021.777-.208" transform="translate(-19.307 -97.885)" fill="#251e1c"/>
    <path id="パス_148507" data-name="パス 148507" d="M35.232,120.41c-.255,2.109-1.514.275-.548-.309" transform="translate(-28.318 -99.084)" fill="#251e1c"/>
    <path id="パス_148508" data-name="パス 148508" d="M33.014,119.758c0,.031-.008.061-.012.092l.005-.036a2,2,0,0,1-.185.66.732.732,0,0,1-.068.106l.031-.04a.436.436,0,0,1-.076.076l.054-.041a.338.338,0,0,1-.038.024l.074-.04-.013.006-.006,0c-.027.013-.092.029.081-.033-.061.022.111-.033.076-.023a.655.655,0,0,0,.078-.018c-.01,0,.128-.013.081-.011h-.013l.084,0-.033,0,.068.008a.269.269,0,0,1-.062-.016l.047.019a.408.408,0,0,1-.162-.13l.023.029a.824.824,0,0,1-.163-.468.85.85,0,0,1,.007-.154l-.005.036a.733.733,0,0,1,.146-.349L33,119.5a.736.736,0,0,1,.132-.13l-.054.041a.864.864,0,0,1,.073-.05c.028-.017.1-.07.091-.117s-.1-.055-.137-.056a.945.945,0,0,0-.284.038,1.068,1.068,0,0,0-.265.109.9.9,0,0,0-.422.53.919.919,0,0,0,.028.542.814.814,0,0,0,.132.225.416.416,0,0,0,.148.122.535.535,0,0,0,.193.049,1.082,1.082,0,0,0,.361-.043,1.2,1.2,0,0,0,.342-.143.634.634,0,0,0,.134-.112,1.5,1.5,0,0,0,.293-.776q.014-.088.024-.176c.006-.046-.125-.055-.137-.056a.909.909,0,0,0-.284.038.9.9,0,0,0-.265.109l-.054.041a.084.084,0,0,0-.037.076" transform="translate(-26.489 -98.328)" fill="#251e1c"/>
    <path id="パス_148509" data-name="パス 148509" d="M31.747,112.345a28.892,28.892,0,0,0-2.892.051c-.479.028-.958.06-1.437.089-.213.013-.468.082-.651-.055-.242-.182-.462-.39-.718-.555a3,3,0,0,0-1.029-.378,14.883,14.883,0,0,0-2.678-.342,10.762,10.762,0,0,0-2.607.216,6.1,6.1,0,0,0-1.151.351,1.8,1.8,0,0,1-1.059.244,5.512,5.512,0,0,1-1.907-1.044,6.2,6.2,0,0,0-2.1-.711,5.261,5.261,0,0,0-4.62.891c-.065.058.058.054.089.053a.479.479,0,0,0,.261-.09,4.6,4.6,0,0,1,4.239-.649,8.665,8.665,0,0,1,1.113.307,4.308,4.308,0,0,1,.914.5,4.058,4.058,0,0,0,1.792.9,4.9,4.9,0,0,0,1.91-.515,9.163,9.163,0,0,1,2.666-.311,14.2,14.2,0,0,1,2.658.309,3.271,3.271,0,0,1,1.088.366,6.934,6.934,0,0,1,.731.557.66.66,0,0,0,.512.121c.47-.025.939-.058,1.408-.087a30.846,30.846,0,0,1,3.208-.07.465.465,0,0,0,.275-.074c.05-.042.065-.07-.02-.074" transform="translate(-7.33 -90.791)" fill="#251e1c"/>
    <path id="パス_148510" data-name="パス 148510" d="M23.123,117.773a2.378,2.378,0,0,1-.358,1.05,1.163,1.163,0,0,1-.586.552,3.168,3.168,0,0,1-.862.025q-.625-.012-1.249-.053c-.395-.026-.789-.063-1.182-.112a3.673,3.673,0,0,1-.983-.19,1.752,1.752,0,0,1-.881-1.1,9.6,9.6,0,0,1-.34-1.647c-.03-.191-.42-.092-.389.1.16,1.011.274,2.381,1.321,2.89a3.308,3.308,0,0,0,1.02.229c.46.061.922.1,1.385.133s.9.045,1.347.053a2.889,2.889,0,0,0,.951-.062,2.234,2.234,0,0,0,1.2-1.892c.019-.209-.378-.163-.395.025" transform="translate(-13.442 -95.858)" fill="#251e1c"/>
    <path id="パス_148511" data-name="パス 148511" d="M70.905,124.547A2.508,2.508,0,0,1,70,126.194c-.545.472-1.4.309-2.055.229-.817-.1-1.642-.222-2.465-.257-.54-.023-1.313.074-1.711-.379a2.157,2.157,0,0,1-.371-1.011,4.462,4.462,0,0,1-.075-1.154c0-.048-.38-.009-.388.1a4.47,4.47,0,0,0,.075,1.154,2.213,2.213,0,0,0,.375,1.019c.416.488,1.247.4,1.82.42.926.036,1.848.2,2.769.289a3.385,3.385,0,0,0,2.137-.267,2.606,2.606,0,0,0,1.185-1.9c0-.055-.386-.006-.388.1" transform="translate(-51.911 -101.973)" fill="#251e1c"/>
  </g>
</svg>
