<svg width="56" height="63" viewBox="0 0 56 63" fill="none" xmlns="http://www.w3.org/2000/svg">
<g clip-path="url(#clip0_345_2)">
<mask id="mask0_345_2" style="mask-type:luminance" maskUnits="userSpaceOnUse" x="-156" y="0" width="213" height="63">
<path d="M56.155 0H-156V62.88H56.155V0Z" fill="white"/>
</mask>
<g mask="url(#mask0_345_2)">
<path d="M39.5214 24.637C40.5045 25.1248 41.5859 25.382 42.6834 25.389C43.3344 25.989 43.7834 25.416 44.2074 25.071C44.6854 24.6029 45.0785 24.0555 45.3694 23.453C45.9564 22.494 46.0254 22.463 45.2254 21.746C44.7489 21.3132 44.3905 20.7661 44.184 20.1564C43.9775 19.5466 43.9298 18.8943 44.0454 18.261C44.1412 17.6557 44.4373 17.1 44.8864 16.6829C45.3355 16.2659 45.9116 16.0117 46.5224 15.961C46.8654 15.951 46.9224 15.781 47.0984 15.548C47.3314 15.1662 47.6769 14.8658 48.0874 14.688C48.8821 14.4499 49.7253 14.4233 50.5334 14.611C51.7449 14.9784 52.9109 15.4816 54.0094 16.111C54.6651 16.4085 55.1911 16.9331 55.4904 17.588C56.1307 18.7566 56.3115 20.1221 55.9974 21.417C55.8667 22.1708 55.5272 22.8729 55.0173 23.4433C54.5075 24.0138 53.8479 24.4298 53.1134 24.644C52.8994 24.72 52.6134 24.817 52.5254 24.989C51.8184 26.407 50.8704 27.682 50.1394 29.089C49.3609 30.6791 48.2199 32.0643 46.8084 33.133C46.0728 33.7187 45.1672 34.0502 44.2274 34.078C43.4167 33.9803 42.6144 33.8219 41.8274 33.604C40.3476 33.337 38.9142 32.8577 37.5714 32.181C37.2824 32.045 37.1794 32.032 37.0834 32.387C36.8669 33.0403 36.6148 33.6812 36.3284 34.307C36.014 35.1326 35.5953 35.9147 35.0824 36.634C34.7275 37.0456 34.2632 37.3483 33.7434 37.507C33.4504 37.607 33.4514 37.786 33.3194 37.953C32.8264 38.571 32.7584 39.382 32.2894 40.016C32.1137 40.1977 31.9854 40.4199 31.916 40.663C31.8465 40.906 31.838 41.1625 31.8912 41.4096C31.9444 41.6567 32.0576 41.8869 32.2209 42.0799C32.3842 42.2729 32.5925 42.4227 32.8274 42.516C32.9274 42.574 33.0434 42.599 33.1394 42.658C34.4274 43.445 35.7394 44.202 36.9924 45.034C38.6434 46.127 40.2824 47.246 42.0144 48.199C42.9683 48.7303 43.8721 49.3472 44.7144 50.042C45.8794 50.993 46.9544 52.058 48.0384 53.104C48.1501 53.2177 48.284 53.3071 48.4318 53.3666C48.5796 53.4262 48.7381 53.4545 48.8974 53.45C49.4062 53.405 49.9116 53.3271 50.4104 53.217C51.4425 53.1499 52.4777 53.1445 53.5104 53.201C53.8604 53.2082 54.2043 53.2943 54.5164 53.453C54.7214 53.5361 54.8983 53.6763 55.0261 53.8569C55.1539 54.0375 55.2272 54.251 55.2374 54.472C55.2747 55.2639 55.0978 56.0512 54.7254 56.751C54.205 57.9148 53.4295 58.9466 52.4564 59.77C51.7334 60.323 50.9774 60.827 50.2954 61.44C49.8255 61.8529 49.307 62.2068 48.7514 62.494C47.6244 63.094 46.3834 62.822 45.1854 62.863C45.1274 62.863 45.0724 62.73 45.0034 62.714C43.9284 62.472 43.2874 61.34 42.1124 61.302C42.0824 61.302 42.0554 61.246 42.0244 61.218C41.2984 60.574 40.5244 59.975 39.8564 59.278C38.7031 58.2415 37.4707 57.2966 36.1704 56.452C35.2148 55.802 34.2172 55.2157 33.1844 54.697C30.9091 53.516 28.5372 52.5314 26.0944 51.754C26.0232 51.7379 25.9494 51.7371 25.8779 51.7516C25.8064 51.7661 25.7387 51.7955 25.6794 51.838C24.6963 52.6094 23.6604 53.3111 22.5794 53.938C21.2426 54.8151 19.7032 55.3346 18.1084 55.447C16.6243 55.3402 15.1617 55.031 13.7614 54.528C12.9104 54.322 12.0914 53.973 11.2614 53.685C10.1756 53.2055 9.06505 52.7842 7.9344 52.423C7.6874 52.366 7.43439 51.941 7.27639 51.986C6.99639 52.065 6.77639 52.378 6.54339 52.599C6.39239 52.739 6.2434 52.888 6.1044 53.037C5.65229 53.4707 5.10659 53.7947 4.50939 53.984C3.60093 54.1898 2.665 54.2462 1.73839 54.151C1.35099 54.1206 0.991412 53.9379 0.73839 53.643C0.598285 53.4784 0.492498 53.2874 0.427241 53.0814C0.361984 52.8753 0.338577 52.6583 0.358393 52.443C0.454074 51.8318 0.600926 51.2297 0.797396 50.643C1.312 49.0769 1.98516 47.5674 2.80639 46.138C3.25038 45.1646 3.88447 44.2898 4.6714 43.565C4.80318 43.4192 4.97857 43.3199 5.1714 43.282C6.05351 43.1746 6.94838 43.2546 7.7974 43.517C8.51599 43.9901 9.34812 44.2622 10.2074 44.305C10.3664 44.288 10.5534 44.454 10.7154 44.556C11.1774 44.842 11.6154 45.175 12.0944 45.423C12.4489 45.6397 12.8532 45.7617 13.2684 45.7771C13.6836 45.7925 14.0958 45.7009 14.4654 45.511C14.7996 45.3763 15.0827 45.1393 15.274 44.834C15.4653 44.5286 15.555 44.1705 15.5304 43.811C15.397 42.8462 15.4689 41.8641 15.7414 40.929C15.8414 40.682 15.8874 40.278 15.3554 40.24C15.1494 40.225 14.9554 40.017 14.7554 39.907C14.3327 39.6959 13.9582 39.3997 13.6555 39.0369C13.3528 38.6741 13.1284 38.2527 12.9964 37.799C12.6964 36.821 12.4144 35.836 12.1964 34.81C12.0034 35.3293 11.7793 35.8366 11.5254 36.329C11.3844 36.569 10.9574 36.668 10.8744 36.907C10.7914 37.146 11.0984 37.513 11.0214 37.759C10.8333 38.3016 10.5904 38.8237 10.2964 39.317C9.8174 40.18 8.25639 41.058 7.51039 40.749C7.06439 40.565 6.5744 40.715 6.2544 40.506C5.8134 40.219 5.39639 40.352 4.97139 40.289C4.14054 40.1362 3.40253 39.6642 2.91539 38.974C2.85139 38.894 2.86639 38.747 2.85639 38.629C2.78529 37.8004 2.89186 36.9661 3.16899 36.182C3.44611 35.3979 3.88742 34.6819 4.4634 34.082C4.6174 33.912 4.82939 33.689 4.82139 33.497C4.86527 32.3237 5.13308 31.1697 5.61039 30.097C6.23454 28.1357 7.24963 26.3212 8.59439 24.763C9.45052 23.8807 10.4399 23.1383 11.5264 22.563C12.0783 22.2016 12.7134 21.9871 13.3714 21.94C14.3627 21.7697 15.3657 21.6771 16.3714 21.663C16.5284 21.686 16.7324 21.534 16.8804 21.418C17.5399 20.9491 18.2887 20.6206 19.0804 20.453C19.5205 20.3811 19.9668 20.3537 20.4124 20.371C20.6314 19.824 19.9804 19.593 19.9604 19.112C19.915 18.7266 19.8363 18.3459 19.7254 17.974C19.7193 17.8598 19.6892 17.7481 19.6371 17.6463C19.5849 17.5445 19.5118 17.4548 19.4226 17.3832C19.3334 17.3115 19.2301 17.2595 19.1195 17.2305C19.0088 17.2016 18.8932 17.1963 18.7804 17.215C18.1099 17.2349 17.4467 17.0714 16.8624 16.742C16.2768 16.4792 15.8022 16.0191 15.5214 15.442C15.1639 14.6428 15.1319 13.7358 15.4321 12.9134C15.7323 12.091 16.3411 11.418 17.1294 11.037C17.4164 10.904 17.4954 10.837 17.4924 10.564C17.4473 9.73813 17.4523 8.91028 17.5074 8.08501C17.5635 6.91561 17.9297 5.7822 18.5684 4.80101C18.9014 4.34201 19.2684 3.93301 19.6394 3.51301C20.0104 3.09301 20.3324 2.63901 20.6984 2.21801C21.4863 1.45621 22.447 0.89659 23.4984 0.587009C24.3424 0.140236 25.3054 -0.0301173 26.2514 0.100009C26.8438 0.19741 27.4478 0.201122 28.0414 0.111009C29.6151 -0.118027 31.2184 -0.0358052 32.7604 0.353009C33.3244 0.553009 33.8964 0.505009 34.4604 0.739009C35.7997 1.24161 37.0656 1.92131 38.2244 2.76001C39.8292 3.85344 41.0044 5.47018 41.5494 7.33401C41.8625 8.18124 42.0316 9.07494 42.0494 9.97801C42 10.4036 41.9215 10.8252 41.8144 11.24C41.7505 11.7857 41.657 12.3275 41.5344 12.863C41.2664 13.786 41.2344 13.777 41.8904 14.415C41.9445 14.4778 42.0037 14.536 42.0674 14.589C42.3035 14.815 42.4916 15.0864 42.6203 15.3868C42.749 15.6873 42.8156 16.0107 42.8163 16.3375C42.8169 16.6644 42.7516 16.988 42.6241 17.289C42.4966 17.5899 42.3096 17.8621 42.0744 18.089C41.4096 18.7029 40.5613 19.081 39.6604 19.165C39.4858 19.1596 39.3133 19.2047 39.1636 19.2948C39.0139 19.3849 38.8934 19.5162 38.8164 19.673C38.2085 20.8007 37.4112 21.8155 36.4594 22.673C36.2424 22.857 36.0354 23.052 35.7704 23.29C37.0804 23.76 38.3034 24.201 39.5274 24.639M21.2964 41.244C20.277 41.0364 19.2706 40.7692 18.2824 40.444C18.1754 40.414 18.0894 40.306 17.9824 40.276C17.7585 40.1731 17.5122 40.1283 17.2664 40.146C16.9464 40.246 17.0664 40.63 16.9664 40.872C16.7681 41.6084 16.6878 42.3715 16.7284 43.133C16.7211 44.3233 17.1591 45.4732 17.9564 46.357C18.3907 46.9889 18.8993 47.5664 19.4714 48.077C20.2785 48.9457 21.3462 49.5283 22.5134 49.737C23.0564 49.796 23.5824 50.121 24.1674 50.225C24.7524 50.329 25.3504 50.368 25.9244 50.477C26.8246 50.6744 27.7098 50.935 28.5734 51.257C30.5965 51.969 32.5467 52.8731 34.3974 53.957C36.122 54.8786 37.7573 55.9582 39.2824 57.182C39.8634 57.682 40.4314 58.188 41.0024 58.695C41.2481 58.8877 41.5053 59.0653 41.7724 59.227C41.9654 59.36 42.1984 59.644 42.3404 59.604C42.6624 59.511 43.0894 59.324 43.2014 59.06C43.449 58.647 43.7552 58.2721 44.1104 57.947C44.3794 57.605 44.6214 57.242 44.9044 56.913C45.5374 56.178 46.1924 55.463 46.8264 54.728C46.9474 54.587 46.9744 54.359 47.1024 54.228C47.2574 54.072 47.2394 54.008 47.0934 53.864C45.5233 52.3054 43.832 50.8739 42.0354 49.583C41.3854 49.12 40.6024 48.843 39.9174 48.421C38.9244 47.809 37.9644 47.144 36.9904 46.499C35.5364 45.536 34.0904 44.567 32.5654 43.714C31.8264 43.302 31.0824 42.899 30.3384 42.495C29.5494 42.0689 28.6863 41.7974 27.7954 41.695C26.9184 41.6 26.0365 41.5566 25.1544 41.565C23.8674 41.465 22.5674 41.436 21.2954 41.24M33.3064 23.082C33.5884 22.964 33.8744 22.857 34.1524 22.73C35.9766 21.7545 37.3801 20.1443 38.0974 18.204C38.5477 17.0141 38.8947 15.7875 39.1344 14.538C39.1534 14.421 39.4044 14.327 39.1744 14.188C38.7884 13.953 38.8514 13.58 38.8224 13.213C38.7442 12.1556 38.3144 11.1548 37.6014 10.37C36.9874 9.67001 36.1524 9.17001 35.7524 8.28301C35.7107 8.21108 35.6511 8.15115 35.5794 8.10901C35.0364 7.72601 34.5004 7.33001 33.9404 6.97301C33.5764 6.74101 33.1314 6.85901 33.1404 7.18901C33.1594 8.28101 32.3484 9.14901 32.3784 10.231C32.0584 10.384 32.3724 10.989 31.7964 10.996C31.6813 11.0158 31.5632 11.0092 31.451 10.9767C31.3388 10.9442 31.2354 10.8866 31.1487 10.8083C31.062 10.73 30.9943 10.633 30.9506 10.5247C30.9069 10.4164 30.8883 10.2995 30.8964 10.183C30.8688 9.67096 30.7962 9.16233 30.6794 8.66301C30.5354 8.13701 30.0004 7.75401 30.1444 7.14201C30.0054 7.11401 29.7824 7.01601 29.7384 7.06901C29.2771 7.61368 28.8344 8.17367 28.4104 8.74901C28.1705 9.05277 27.969 9.38494 27.8104 9.73801C27.7692 9.9055 27.6668 10.0515 27.5234 10.1474C27.38 10.2432 27.2059 10.282 27.0354 10.256C26.4824 10.243 26.6134 9.73801 26.4614 9.49401C26.2934 9.22501 26.4304 8.77301 26.4204 8.40101C26.4353 8.20368 26.406 8.00551 26.3344 7.82101C26.2804 7.72101 26.1794 7.37901 25.9134 7.64701C25.8182 7.72688 25.7308 7.81561 25.6524 7.91201C24.8618 9.02767 23.8876 10.0011 22.7714 10.791C22.3985 11.1441 21.9833 11.4498 21.5354 11.701C21.3444 11.7526 21.1793 11.8732 21.072 12.0394C20.9647 12.2056 20.9228 12.4057 20.9544 12.601C20.9536 12.6674 20.9363 12.7325 20.904 12.7905C20.8718 12.8486 20.8256 12.8976 20.7696 12.9334C20.7137 12.9691 20.6497 12.9903 20.5835 12.9951C20.5173 13 20.4509 12.9882 20.3904 12.961C20.2513 12.8785 20.128 12.7718 20.0264 12.646C19.7793 12.2749 19.4074 12.0045 18.9781 11.884C18.5488 11.7635 18.0906 11.8007 17.6864 11.989C17.1854 12.243 16.8025 12.6815 16.6186 13.2123C16.4346 13.743 16.464 14.3245 16.7004 14.834C17.0594 15.656 17.7344 15.702 18.3624 15.928C18.6184 16.02 18.9394 15.913 19.2244 15.952C19.5734 15.998 20.0074 15.74 20.2574 16.126C20.4604 16.4508 20.6103 16.806 20.7014 17.178C20.7774 17.478 20.6174 17.841 20.9624 18.065C20.8764 19.135 21.6244 19.792 22.2004 20.528C23.5004 22.197 25.0234 22.64 26.7944 23.164C27.4724 23.364 28.1714 23.24 28.7944 23.427C29.4759 23.5851 30.1739 23.6603 30.8734 23.651C31.7229 23.6869 32.5659 23.4887 33.3104 23.078M23.6964 26.345C23.3984 27.2236 22.9703 28.0525 22.4264 28.804C21.7097 29.8706 20.8736 30.852 19.9344 31.729C19.5476 32.0716 19.1434 32.394 18.7234 32.695C18.6278 32.76 18.5181 32.8015 18.4034 32.816C18.2034 32.848 17.8864 32.786 17.8284 32.887C17.6466 33.1812 17.5341 33.5129 17.4994 33.857C17.3115 35.3036 17.2206 36.7612 17.2274 38.22C17.2072 38.4164 17.2645 38.6129 17.387 38.7677C17.5095 38.9226 17.6876 39.0235 17.8834 39.049C18.9721 39.2895 20.0416 39.6097 21.0834 40.007C21.1633 40.0257 21.2461 40.0295 21.3274 40.018C22.9416 40.1875 24.5633 40.2742 26.1864 40.278C26.7842 40.1969 27.3928 40.2699 27.9544 40.49C28.4424 40.704 29.0544 40.34 29.5934 40.742C29.7774 40.881 30.1584 40.742 30.4444 40.77C30.8534 40.817 30.8374 40.594 30.9144 40.278C31.2026 39.3672 31.5627 38.4807 31.9914 37.627C32.1914 37.157 32.0444 36.712 32.2574 36.248C32.7484 35.175 33.0444 34.013 33.4344 32.892C33.7008 32.2398 33.8507 31.546 33.8774 30.842C33.8624 29.188 33.8774 27.534 33.8774 25.881C33.873 25.7984 33.873 25.7156 33.8774 25.633C33.9088 25.4033 33.8834 25.1693 33.8036 24.9516C33.7237 24.7339 33.5918 24.539 33.4194 24.384C33.0064 24.669 32.3614 24.546 32.0944 25.061C31.621 25.7137 31.0949 26.3264 30.5214 26.893C29.7084 27.993 28.5714 27.876 27.4404 27.856C27.3625 27.8564 27.287 27.8291 27.2274 27.779C26.7094 27.211 26.1604 26.665 25.6974 26.055C25.1751 25.3604 24.7958 24.5692 24.5814 23.727C24.2374 24.749 23.9514 25.542 23.7054 26.347M28.9414 5.93701C28.9874 5.45501 29.8264 5.35201 30.2414 5.73701C30.6782 6.13517 30.9925 6.6496 31.1474 7.22001C31.1584 7.25801 31.1344 7.31001 31.1474 7.34201C31.3384 7.71801 31.5344 8.09101 31.7294 8.46401C31.8644 8.09001 32.0124 7.72001 32.1294 7.34001C32.3203 6.99237 32.4094 6.59796 32.3864 6.20201C32.2864 5.74101 32.7344 5.59401 32.9654 5.33501C33.0154 5.27901 33.2534 5.34001 33.3734 5.40501C33.9042 5.6347 34.4041 5.93 34.8614 6.28401C35.5414 6.92201 36.5284 7.21001 36.9354 8.18401C37.1546 8.53626 37.4469 8.83737 37.7924 9.06701C38.3567 9.49992 38.8285 10.0415 39.1799 10.6599C39.5313 11.2782 39.7552 11.9607 39.8384 12.667C39.8564 12.78 40.0064 12.867 40.0954 12.967C40.1724 12.896 40.2954 12.838 40.3184 12.75C40.5327 12.1731 40.6943 11.578 40.8014 10.972C40.8561 10.2299 40.8618 9.48491 40.8184 8.74201C40.5391 7.66529 40.1259 6.62786 39.5884 5.65401C38.7254 4.35437 37.5402 3.30075 36.1484 2.59601C35.2255 2.12683 34.2527 1.7632 33.2484 1.51201C31.7349 1.11041 30.1655 0.961074 28.6034 1.07001C27.9754 1.07901 27.3514 1.25701 26.7214 1.29701C26.0623 1.26197 25.4016 1.27467 24.7444 1.33501C24.0333 1.48624 23.3556 1.76545 22.7444 2.15901C21.8607 2.6358 21.1268 3.34861 20.6244 4.21801C20.3355 4.6469 20.0045 5.04588 19.6364 5.40901C19.059 6.25247 18.7384 7.24517 18.7134 8.26701C18.6334 8.97801 18.9844 9.73401 18.4854 10.407C18.4584 10.444 18.6034 10.692 18.7044 10.723C18.9284 10.793 19.2654 10.695 19.3994 10.823C20.1224 11.528 20.6994 10.9 21.1994 10.577C21.8908 10.0889 22.5356 9.53792 23.1254 8.93101C23.9924 8.10401 24.8254 7.24001 25.6744 6.39301C25.8744 6.19301 26.0354 5.98501 26.3874 6.00601C26.9094 6.03701 27.0954 6.17501 27.1684 6.69701C27.2284 7.11701 27.3244 7.53201 27.4394 8.13201C28.1004 7.36301 28.8394 6.91101 28.9304 5.93901M14.9604 22.9C14.4053 22.9046 13.8526 22.9738 13.3134 23.106C12.2188 23.4441 11.2021 23.9957 10.3219 24.7289C9.44178 25.4622 8.71562 26.3625 8.1854 27.378C7.44945 28.5932 6.87781 29.9006 6.48539 31.266C6.25744 31.9736 6.10919 32.7045 6.04339 33.445C6.03319 33.6269 6.07041 33.8083 6.15139 33.9715C6.23238 34.1347 6.35436 34.2741 6.5054 34.376C7.50364 35.228 8.79606 35.6549 10.1054 35.565C10.4854 35.524 10.7264 35.398 10.7724 35.014C11.0905 33.4283 11.6893 31.9122 12.5404 30.537C12.8656 30.0315 13.3099 29.6136 13.8344 29.32C15.1635 28.5015 16.7335 28.1647 18.2814 28.366C18.4758 28.3689 18.6614 28.447 18.7994 28.584C19.0804 28.973 19.3054 28.757 19.4144 28.512C19.8804 27.5868 20.2342 26.6092 20.4684 25.6C20.5574 25.107 20.7204 24.629 20.8334 24.14C20.9014 23.84 20.9414 23.54 21.0134 23.124C18.9134 23.303 16.9584 22.699 14.9604 22.903M20.4814 53.533C21.5624 52.952 22.6434 52.37 23.7194 51.777C23.7984 51.732 23.8334 51.606 23.8894 51.52C23.8174 51.494 23.7454 51.467 23.6724 51.444C22.778 51.2269 21.898 50.9544 21.0374 50.628C19.1491 49.7475 17.5665 48.3234 16.4924 46.538C16.4104 46.409 16.3584 46.258 16.2664 46.138C16.2432 46.0925 16.2089 46.0537 16.1665 46.0252C16.1241 45.9967 16.0752 45.9795 16.0244 45.9752C15.9735 45.9709 15.9224 45.9796 15.8758 46.0006C15.8293 46.0216 15.7889 46.0541 15.7584 46.095C15.4277 46.407 15.0368 46.6483 14.6098 46.8042C14.1827 46.9602 13.7283 47.0275 13.2744 47.002C12.5312 46.963 11.8145 46.7129 11.2084 46.281C10.9598 46.0937 10.6996 45.9224 10.4294 45.768C10.2231 45.6868 9.99457 45.6825 9.78543 45.756C9.5763 45.8294 9.40058 45.9757 9.29039 46.168C9.01584 46.4544 8.7734 46.7699 8.56739 47.109C8.26978 47.8561 8.01766 48.6205 7.8124 49.398C7.73741 49.8224 7.81479 50.2597 8.03089 50.6326C8.24698 51.0055 8.58788 51.29 8.99339 51.436C10.2774 51.928 11.5394 52.504 12.8464 52.896C14.0947 53.427 15.4134 53.7742 16.7614 53.927C17.1284 54.277 17.5894 54.153 18.1454 54.189C18.9611 54.1343 19.7568 53.9116 20.4824 53.535M46.9734 31.3C47.85 30.3392 48.6124 29.2802 49.2454 28.144C49.9164 27.153 50.5064 26.108 51.1584 25.104C51.3674 24.784 51.1584 24.615 50.9714 24.512C50.1741 24.0592 49.3344 23.6854 48.4644 23.396C48.2919 23.3145 48.113 23.2476 47.9294 23.196C47.6144 23.1189 47.2864 23.1117 46.9684 23.175C46.7684 23.242 46.6584 23.575 46.5254 23.797C46.1557 24.6654 45.6111 25.4484 44.9254 26.097C44.695 26.3362 44.4187 26.5265 44.113 26.6564C43.8073 26.7863 43.4785 26.8532 43.1464 26.853C41.9113 26.7349 40.6992 26.4419 39.5464 25.983C39.1674 25.806 38.7594 25.69 38.3684 25.54C38.0554 25.42 37.7464 25.286 37.4344 25.158C37.3411 25.3346 37.304 25.5354 37.3282 25.7337C37.3523 25.9319 37.4365 26.118 37.5694 26.267C37.6694 26.382 37.6014 26.667 37.5824 26.867C37.6496 28.0448 37.6057 29.2264 37.4514 30.396C37.4064 30.555 37.8184 30.947 38.0914 31.066C38.7914 31.366 39.5494 31.532 40.2424 31.843C40.9354 32.154 41.7194 32.229 42.4304 32.543C42.9082 32.6381 43.399 32.6483 43.8804 32.573C44.46 32.6246 45.0434 32.5356 45.5812 32.3134C46.119 32.0913 46.5952 31.7426 46.9694 31.297M50.1424 54.414C49.5175 54.3745 48.894 54.5105 48.3423 54.8067C47.7907 55.1029 47.3328 55.5474 47.0204 56.09C46.3453 57.1147 45.6009 58.092 44.7924 59.015C44.5322 59.3108 44.2955 59.6264 44.0844 59.959C43.7194 60.459 43.6974 60.493 44.1144 60.814C44.6882 61.2879 45.3921 61.577 46.1334 61.643C46.8258 61.6673 47.5157 61.5464 48.1586 61.288C48.8015 61.0297 49.3833 60.6397 49.8664 60.143C50.1034 59.943 50.3944 59.807 50.6354 59.611C51.8377 58.7722 52.8182 57.6538 53.4924 56.352C53.7214 55.9952 53.9134 55.6159 54.0654 55.22C54.1054 55.041 54.3274 54.891 54.1144 54.709C53.9792 54.5699 53.8047 54.4754 53.6144 54.438C52.8714 54.408 52.1264 54.425 51.3814 54.425C50.9686 54.4442 50.555 54.4419 50.1424 54.418M50.1574 16.644C50.4062 16.7854 50.6128 16.9904 50.7562 17.238C50.8996 17.4856 50.9746 17.7669 50.9734 18.053C51.1088 18.8234 51.016 19.6166 50.7064 20.335C51.3874 20.294 51.4204 19.666 51.6824 19.305C51.8234 19.112 51.8254 18.892 52.1454 18.924C52.2877 18.9215 52.4256 18.9734 52.531 19.0691C52.6363 19.1648 52.7012 19.2971 52.7124 19.439C52.7175 19.6755 52.6876 19.9114 52.6234 20.139C52.6014 20.248 52.4854 20.345 52.4854 20.449C52.5006 20.6025 52.5342 20.7535 52.5854 20.899C52.7264 20.851 52.9124 20.842 52.9994 20.745C53.1699 20.5336 53.319 20.3059 53.4444 20.065C53.5194 19.934 53.5254 19.724 53.6304 19.656C53.8193 19.5226 54.0433 19.4478 54.2744 19.441C54.5744 19.458 54.4554 19.752 54.4574 19.931C54.4471 20.5288 54.2002 21.0982 53.7707 21.5142C53.3412 21.9302 52.7643 22.1588 52.1664 22.15C52.0116 22.1476 51.8609 22.1004 51.7324 22.014C51.5675 21.8509 51.4182 21.6728 51.2864 21.482C51.1204 21.762 50.8474 21.634 50.6154 21.656C50.4762 21.6898 50.3303 21.6841 50.1941 21.6396C50.0579 21.5951 49.9368 21.5135 49.8444 21.404C49.7102 21.2633 49.5267 21.1801 49.3324 21.172C48.6414 21.153 48.4164 20.757 48.2244 20.147C48.0934 19.732 48.0724 19.22 47.6324 18.897C47.3854 18.715 47.4404 18.406 47.6614 18.15C47.9074 17.866 48.0694 17.939 48.3664 18.131C48.7136 18.3023 49.0926 18.3993 49.4794 18.416C49.5964 18.432 49.7734 18.289 49.8574 18.173C49.9004 18.113 49.8364 17.917 49.7624 17.837C49.3562 17.3951 48.8242 17.0884 48.2382 16.9584C47.6522 16.8284 47.0404 16.8813 46.4854 17.11C45.5064 17.41 45.3314 17.732 45.2684 18.668C45.2172 19.1076 45.2783 19.5531 45.446 19.9626C45.6137 20.3722 45.8825 20.7326 46.2274 21.01C46.6914 21.4967 47.2829 21.8432 47.9344 22.01C49.199 22.3273 50.4049 22.8445 51.5064 23.542C51.7064 23.656 52.0354 23.912 52.0824 23.866C52.2824 23.675 52.5334 23.716 52.7394 23.626C53.3876 23.4213 53.953 23.0139 54.3523 22.4637C54.7516 21.9136 54.9637 21.2498 54.9574 20.57C54.9634 20.322 54.9384 20.07 54.9574 19.827C55.0278 19.2361 54.9047 18.6383 54.6065 18.1233C54.3082 17.6083 53.851 17.204 53.3034 16.971C52.4986 16.5312 51.6631 16.1502 50.8034 15.831C50.2774 15.657 49.6684 15.944 49.2034 15.477C49.1454 15.418 48.7504 15.694 48.5084 15.816C48.9734 16.245 49.6244 16.268 50.1564 16.64M6.0454 44.256C5.96929 44.238 5.89006 44.2376 5.81378 44.2549C5.73751 44.2723 5.66622 44.3068 5.60539 44.356C5.2114 44.7526 4.84645 45.177 4.51339 45.626C3.63639 47.037 3.11339 48.604 2.33539 50.053C2.03586 50.5558 1.86418 51.1244 1.83539 51.709C1.80888 51.8987 1.74823 52.082 1.65639 52.25C1.56739 52.459 1.55639 52.569 1.82039 52.699C2.36738 52.916 2.96133 52.9874 3.54415 52.906C4.12697 52.8247 4.67871 52.5935 5.1454 52.235C5.3334 52.075 5.47939 51.864 5.67539 51.716C6.00717 51.4811 6.26787 51.1594 6.42891 50.7862C6.58996 50.4129 6.64514 50.0025 6.5884 49.6C6.61875 48.3935 7.00338 47.2225 7.69439 46.233C7.95629 45.8218 8.24317 45.4271 8.55339 45.051C7.72239 44.784 6.8894 44.505 6.0474 44.251M16.2704 33.651C16.5214 32.374 16.9704 31.135 17.3324 29.88C17.3744 29.737 17.4204 29.597 17.4644 29.456C17.2724 29.422 16.9704 29.294 16.9044 29.369C16.5114 29.821 15.8844 29.428 15.4654 29.836C15.138 30.1697 14.736 30.4206 14.2924 30.568C13.7974 30.709 13.8524 31.197 13.5494 31.427C13.6864 32.349 12.8984 33.206 13.4684 34.209C13.7314 34.67 13.4814 35.367 13.7424 35.95C13.8726 36.4 13.964 36.8604 14.0154 37.326C14.2183 37.8959 14.5955 38.3875 15.0934 38.731C15.1898 38.8243 15.3043 38.8968 15.4299 38.9439C15.5555 38.991 15.6894 39.0118 15.8234 39.005C16.1824 38.905 15.9634 38.515 15.9864 38.254C16.0194 37.886 15.9954 37.511 15.9954 37.139L15.9364 37.133C15.986 35.967 16.0968 34.8044 16.2684 33.65M5.1434 39.033C6.0343 39.1145 6.91614 39.2755 7.77839 39.514C7.92539 39.567 8.1544 39.453 8.3244 39.373C8.75778 39.2262 9.13346 38.9458 9.39742 38.5721C9.66138 38.1983 9.80001 37.7505 9.79339 37.293C9.79339 37.086 10.2754 36.746 9.5754 36.787C8.85305 36.8081 8.13386 36.6836 7.46071 36.4207C6.78757 36.1578 6.17426 35.7621 5.6574 35.257C5.3674 35.003 5.14639 34.987 4.97439 35.296C4.53909 35.9664 4.23819 36.7149 4.0884 37.5C4.0784 38.554 4.36639 38.9 5.14839 39.031M36.3484 25.49C36.3541 25.3319 36.3248 25.1744 36.2626 25.029C36.2003 24.8835 36.1067 24.7535 35.9885 24.6484C35.8702 24.5433 35.7301 24.4657 35.5783 24.421C35.4265 24.3763 35.2668 24.3657 35.1104 24.39C35.0214 24.4 34.8754 24.51 34.8724 24.579C34.7821 25.0668 34.7882 25.5676 34.8904 26.053C35.1066 26.9132 35.1786 27.8033 35.1034 28.687C35.1364 29.18 35.0974 29.677 35.1114 30.173C35.1031 31.9732 34.6765 33.7469 33.8654 35.354C33.8174 35.459 33.6784 35.54 33.6654 35.641C33.6756 35.7813 33.7094 35.9189 33.7654 36.048C33.8754 36.014 34.0354 36.015 34.0874 35.941C34.4178 35.5106 34.709 35.0514 34.9574 34.569C35.3025 33.8034 35.5991 33.0169 35.8454 32.214C36.1869 31.2467 36.3594 30.2278 36.3554 29.202C36.3344 28.707 36.3554 28.211 36.3554 27.717C36.3554 26.974 36.3634 26.23 36.3554 25.487M27.7554 24.631C27.3422 24.3834 26.8508 24.3009 26.3794 24.4C26.3094 24.4 26.1614 24.693 26.1994 24.745C26.4934 25.165 26.8574 25.537 27.1364 25.965C27.8914 27.126 29.3854 26.713 30.1584 25.57C30.2924 25.37 30.4584 25.198 30.7214 24.883C29.6314 24.945 28.7284 24.467 27.7544 24.63M20.7854 28.783C20.8444 28.783 20.9254 28.773 20.9564 28.734C21.8438 27.6632 22.5222 26.4352 22.9564 25.114C23.0934 24.677 23.2794 24.254 23.3864 23.814C23.41 23.5903 23.3883 23.3641 23.3224 23.149C23.3094 23.082 23.1904 22.971 23.1584 22.982C22.8157 23.0995 22.4816 23.2405 22.1584 23.404C22.1013 23.4458 22.0545 23.5002 22.0217 23.563C21.989 23.6258 21.971 23.6952 21.9694 23.766C21.9573 24.8245 21.7487 25.8716 21.3544 26.854C21.2609 27.4634 21.0456 28.0477 20.7214 28.572C20.7014 28.596 20.7214 28.653 20.7214 28.693C20.7414 28.726 20.7634 28.786 20.7834 28.786M41.4454 15.479C41.168 15.1984 40.8489 14.9623 40.4994 14.779C40.4364 14.744 40.0924 14.992 40.0994 15.079C40.0973 15.635 40.0071 16.1872 39.8324 16.715C39.8104 16.833 39.8634 17.002 39.7994 17.07C39.5414 17.342 39.3934 17.67 39.7194 17.905C40.0034 18.11 40.3344 17.837 40.5894 17.67C41.1264 17.313 41.7084 16.961 41.6084 16.148C41.5584 15.918 41.5794 15.62 41.4414 15.472M18.5154 21.7C18.9784 22.143 19.5834 21.768 20.1384 22.1C20.5814 22.367 21.3124 22.154 21.9164 22.154C20.8424 21.305 19.6464 21.872 18.5164 21.698" fill="white"/>
<path d="M25.1552 41.5681C23.8682 41.4681 22.5682 41.4391 21.2962 41.2431C20.2768 41.0353 19.2705 40.7681 18.2822 40.4431C18.1752 40.4131 18.0882 40.3051 17.9822 40.2751C17.7583 40.1722 17.5121 40.1271 17.2662 40.1441C16.9462 40.2441 17.0662 40.6291 16.9662 40.8711C16.7682 41.6075 16.6882 42.3707 16.7292 43.1321C16.722 44.3222 17.1596 45.472 17.9562 46.3561C18.3907 46.9879 18.8993 47.5654 19.4712 48.0761C20.2782 48.9449 21.3459 49.5275 22.5132 49.7361C23.0562 49.7951 23.5812 50.1201 24.1672 50.2241C24.7532 50.3281 25.3502 50.3671 25.9242 50.4761C26.8243 50.6734 27.7095 50.9337 28.5732 51.2551C30.5962 51.9674 32.5464 52.8715 34.3972 53.9551C36.1216 54.877 37.7569 55.9566 39.2822 57.1801C39.8622 57.6801 40.4302 58.1861 41.0022 58.6931C41.248 58.8857 41.5051 59.0634 41.7722 59.2251C41.9652 59.3581 42.1982 59.6421 42.3402 59.6011C42.6622 59.5081 43.0892 59.3211 43.2012 59.0571C43.4487 58.6441 43.7549 58.2692 44.1102 57.9441C44.3792 57.6021 44.6202 57.2391 44.9042 56.9101C45.5372 56.1751 46.1932 55.4601 46.8262 54.7251C46.9472 54.5841 46.9732 54.3561 47.1022 54.2251C47.2582 54.0701 47.2392 54.0051 47.0932 53.8621C45.5232 52.3034 43.8319 50.8719 42.0352 49.5811C41.3842 49.1171 40.6022 48.8411 39.9172 48.4191C38.9242 47.8061 37.9632 47.1421 36.9902 46.4971C35.5362 45.5341 34.0902 44.5651 32.5652 43.7121C31.8262 43.2991 31.0822 42.8961 30.3372 42.4931C29.5485 42.067 28.6857 41.7955 27.7952 41.6931C26.9182 41.5976 26.0363 41.5542 25.1542 41.5631" fill="white"/>
<path d="M28.7927 23.4372C28.1667 23.2492 27.4687 23.3742 26.7927 23.1732C25.0217 22.6492 23.5017 22.2062 22.1987 20.5372C21.6237 19.8012 20.8747 19.1442 20.9607 18.0742C20.6157 17.8502 20.7757 17.4872 20.6997 17.1872C20.6086 16.8152 20.4587 16.4601 20.2557 16.1352C20.0047 15.7492 19.5707 16.0072 19.2217 15.9612C18.9377 15.9222 18.6167 16.0292 18.3597 15.9372C17.7317 15.7102 17.0597 15.6652 16.6977 14.8432C16.461 14.3337 16.4316 13.7522 16.6155 13.2214C16.7995 12.6906 17.1825 12.252 17.6837 11.9982C18.0878 11.8095 18.5462 11.7721 18.9756 11.8926C19.405 12.0132 19.7769 12.2838 20.0237 12.6552C20.1255 12.7806 20.2488 12.8869 20.3877 12.9692C20.4482 12.9965 20.5146 13.0082 20.5808 13.0034C20.647 12.9985 20.711 12.9773 20.767 12.9416C20.8229 12.9059 20.8691 12.8568 20.9013 12.7988C20.9336 12.7408 20.9509 12.6756 20.9517 12.6092C20.9201 12.4139 20.962 12.2139 21.0693 12.0476C21.1766 11.8814 21.3417 11.7609 21.5327 11.7092C21.9802 11.4575 22.395 11.1515 22.7677 10.7982C23.8844 10.0086 24.8589 9.03512 25.6497 7.91925C25.7279 7.82301 25.815 7.73429 25.9097 7.65425C26.1767 7.38625 26.2767 7.73225 26.3307 7.82825C26.4022 8.01276 26.4316 8.21092 26.4167 8.40825C26.4277 8.78025 26.2907 9.23325 26.4577 9.50225C26.6087 9.74625 26.4787 10.2512 27.0317 10.2632C27.2033 10.2889 27.3783 10.249 27.5219 10.1516C27.6655 10.0541 27.7672 9.90622 27.8067 9.73725C27.9652 9.38413 28.1668 9.05195 28.4067 8.74825C28.8307 8.17425 29.273 7.61425 29.7337 7.06825C29.7777 7.01625 30.0007 7.11325 30.1397 7.14225C29.9957 7.75325 30.5307 8.13625 30.6757 8.66325C30.792 9.16233 30.8646 9.67058 30.8927 10.1822C30.8845 10.2988 30.9028 10.4158 30.9465 10.5242C30.9901 10.6326 31.0579 10.7297 31.1446 10.808C31.2314 10.8864 31.3348 10.9439 31.4471 10.9764C31.5594 11.0088 31.6776 11.0153 31.7927 10.9952C32.3697 10.9882 32.0557 10.3832 32.3757 10.2302C32.3457 9.14925 33.1577 8.28025 33.1377 7.18825C33.1317 6.85925 33.5767 6.74025 33.9377 6.97225C34.4987 7.32925 35.0377 7.72525 35.5777 8.10825C35.6492 8.15102 35.7088 8.21123 35.7507 8.28325C36.1507 9.17125 36.9847 9.67325 37.5997 10.3692C38.3125 11.1541 38.7424 12.1549 38.8207 13.2122C38.8497 13.5792 38.7857 13.9522 39.1727 14.1872C39.4027 14.3272 39.1507 14.4202 39.1327 14.5372C38.8932 15.7871 38.5462 17.014 38.0957 18.2042C37.3785 20.1443 35.9755 21.7544 34.1517 22.7302C33.8737 22.8572 33.5867 22.9642 33.3057 23.0822C32.5613 23.4931 31.7182 23.6913 30.8687 23.6552C30.1692 23.6643 29.4712 23.5891 28.7897 23.4312M27.0097 19.3942C27.3917 20.1392 27.7667 20.8882 28.1557 21.6292C28.4267 22.1452 28.8387 22.3612 29.3047 22.0952C30.5228 21.5096 31.5431 20.5805 32.2397 19.4222C32.5397 18.8482 32.3607 18.5482 31.7267 18.4222C31.3487 18.3492 30.9767 18.2272 30.5957 18.1842C30.2307 18.1432 29.8527 18.2142 29.4887 18.1672C28.9487 18.0962 28.4157 17.9672 27.8807 17.8602C26.5457 17.9312 26.3957 18.1882 27.0097 19.3892M32.5567 13.6392C33.2727 13.0392 33.8117 13.1122 34.0827 13.9572C34.1727 14.2372 34.2147 14.5092 34.4617 14.6572C34.6106 14.7265 34.7801 14.7376 34.9367 14.6882C35.3597 14.5662 35.2967 14.1882 35.1297 13.5032C34.8747 12.4632 34.0007 12.3202 33.2497 12.0112C32.9454 11.9714 32.6373 12.0486 32.3877 12.2272C31.9087 12.5022 31.3997 12.7782 31.3737 13.4552C31.3607 13.7952 31.3977 14.0322 31.8807 14.0492C32.116 13.9292 32.3417 13.7911 32.5557 13.6362M27.6557 11.8362C27.0927 11.597 26.46 11.5798 25.8849 11.7881C25.3097 11.9965 24.8348 12.4149 24.5557 12.9592C24.4097 13.2592 24.5827 13.6422 24.9977 13.9002C25.2977 14.0862 25.4407 13.8242 25.5847 13.6552C25.7037 13.5142 25.7367 13.3002 25.8547 13.1552C26.3797 12.5152 26.8737 12.5612 27.4077 13.2782C27.4787 13.3732 27.5377 13.5022 27.6347 13.5462C27.8045 13.6355 27.9921 13.6857 28.1837 13.6932C28.5077 13.6862 28.3717 13.4072 28.3977 13.2312C28.4043 13.118 28.4043 13.0045 28.3977 12.8912C28.5437 12.3462 28.2047 12.0532 27.6567 11.8322M29.5237 16.4072C29.9147 15.9282 30.2367 16.2782 30.3527 16.5682C30.4617 16.8402 30.4977 17.0342 30.7937 16.8762C30.9269 16.8205 31.0344 16.7169 31.0949 16.5859C31.1555 16.4548 31.1647 16.3058 31.1207 16.1682C31.0069 15.9192 30.8337 15.702 30.6162 15.5357C30.3988 15.3693 30.1438 15.2589 29.8737 15.2142C29.4447 15.0912 29.0737 15.4372 28.7617 15.7212C28.7032 15.7976 28.6642 15.887 28.6482 15.9818C28.6322 16.0766 28.6396 16.1739 28.6697 16.2652C28.7237 16.3852 28.9867 16.4102 29.0777 16.4452C29.2927 16.4312 29.4727 16.4702 29.5237 16.4072ZM33.6227 9.60725C34.1434 9.73544 34.6805 9.78366 35.2157 9.75025C35.4247 9.71425 35.6547 9.71825 35.5857 9.43025C35.5475 9.20312 35.4432 8.99232 35.2857 8.82425C34.9367 8.52925 34.3997 8.97425 34.0337 8.56825C34.0097 8.54125 33.7987 8.66825 33.6847 8.74125C33.5507 8.82525 33.4277 8.92825 33.2497 9.06025C33.3565 9.25321 33.4804 9.43627 33.6197 9.60725" fill="white"/>
<path d="M24.5716 23.7344C24.2276 24.7564 23.9416 25.5494 23.6956 26.3544C23.3976 27.2332 22.9695 28.0624 22.4256 28.8144C21.7085 29.8807 20.8721 30.8617 19.9326 31.7384C19.5458 32.0809 19.1416 32.4033 18.7216 32.7044C18.6258 32.769 18.5162 32.8104 18.4016 32.8254C18.2016 32.8574 17.8846 32.7954 17.8266 32.8964C17.6448 33.1906 17.5323 33.5223 17.4976 33.8664C17.31 35.313 17.2195 36.7706 17.2266 38.2294C17.2065 38.4257 17.2638 38.6221 17.3863 38.7767C17.5088 38.9314 17.6869 39.0321 17.8826 39.0574C18.9713 39.2982 20.0409 39.6187 21.0826 40.0164C21.1626 40.0351 21.2453 40.0388 21.3266 40.0274C22.9408 40.1968 24.5626 40.2836 26.1856 40.2874C26.7833 40.2061 27.3918 40.2788 27.9536 40.4984C28.4416 40.7124 29.0586 40.3484 29.5926 40.7504C29.7766 40.8894 30.1576 40.7504 30.4436 40.7784C30.8526 40.8254 30.8366 40.6024 30.9136 40.2864C31.2018 39.3756 31.5619 38.4891 31.9906 37.6354C32.1906 37.1654 32.0436 36.7204 32.2566 36.2564C32.7476 35.1824 33.0436 34.0214 33.4336 32.9004C33.7 32.2482 33.8499 31.5544 33.8766 30.8504C33.8616 29.1954 33.8766 27.5424 33.8766 25.8884C33.8722 25.8058 33.8722 25.723 33.8766 25.6404C33.9078 25.4109 33.8825 25.1772 33.8029 24.9597C33.7232 24.7422 33.5917 24.5474 33.4196 24.3924C33.0066 24.6774 32.3616 24.5544 32.0946 25.0694C31.6209 25.722 31.0945 26.3348 30.5206 26.9014C29.7076 28.0014 28.5706 27.8854 27.4396 27.8644C27.3617 27.8652 27.286 27.8378 27.2266 27.7874C26.7086 27.2194 26.1596 26.6744 25.6966 26.0634C25.1745 25.3687 24.7952 24.5775 24.5806 23.7354" fill="white"/>
<path d="M27.4377 8.13564C28.0987 7.36664 28.8377 6.91464 28.9297 5.94264C28.9747 5.46064 29.8137 5.35764 30.2297 5.74264C30.6669 6.14048 30.9812 6.65503 31.1357 7.22564C31.1467 7.26364 31.1227 7.31564 31.1357 7.34764C31.3267 7.72364 31.5227 8.09664 31.7177 8.46964C31.8527 8.09564 32.0007 7.72564 32.1177 7.34564C32.3083 6.9979 32.3974 6.60356 32.3747 6.20764C32.2747 5.74664 32.7227 5.59964 32.9527 5.34064C33.0027 5.28464 33.2407 5.34564 33.3607 5.41064C33.8914 5.64032 34.3913 5.93563 34.8487 6.28964C35.5297 6.92764 36.5157 7.21564 36.9227 8.18964C37.1419 8.54188 37.4341 8.843 37.7797 9.07264C38.3439 9.50555 38.8157 10.0472 39.1671 10.6655C39.5186 11.2838 39.7425 11.9663 39.8257 12.6726C39.8437 12.7856 39.9937 12.8726 40.0827 12.9726C40.1597 12.9006 40.2827 12.8426 40.3057 12.7556C40.52 12.1788 40.6816 11.5837 40.7887 10.9776C40.8434 10.2355 40.849 9.49054 40.8057 8.74764C40.5305 7.67012 40.1213 6.63135 39.5877 5.65564C38.7258 4.35566 37.5416 3.30136 36.1507 2.59564C35.2278 2.12645 34.255 1.76282 33.2507 1.51164C31.7375 1.11011 30.1684 0.960775 28.6067 1.06964C27.9787 1.07864 27.3547 1.25664 26.7247 1.29664C26.0653 1.26157 25.4042 1.27427 24.7467 1.33464C24.0356 1.48587 23.3579 1.76507 22.7467 2.15864C21.863 2.63543 21.129 3.34824 20.6267 4.21764C20.3378 4.64653 20.0068 5.04551 19.6387 5.40864C19.0613 6.2521 18.7407 7.2448 18.7157 8.26664C18.6357 8.97764 18.9867 9.73364 18.4877 10.4066C18.4607 10.4436 18.6057 10.6916 18.7067 10.7226C18.9307 10.7926 19.2677 10.6946 19.4017 10.8226C20.1247 11.5276 20.7017 10.8996 21.2017 10.5766C21.8932 10.0887 22.538 9.53769 23.1277 8.93064C23.9947 8.10364 24.8277 7.23964 25.6767 6.39364C25.8767 6.19364 26.0387 5.98464 26.3897 6.00664C26.9117 6.03764 27.0977 6.17564 27.1707 6.69764C27.2307 7.11764 27.3267 7.53264 27.4417 8.13264" fill="white"/>
<path d="M21.0147 23.123C18.9147 23.302 16.9597 22.698 14.9617 22.902C14.4066 22.9067 13.8539 22.9758 13.3147 23.108C12.2202 23.4462 11.2035 23.9978 10.3233 24.731C9.44319 25.4643 8.717 26.3646 8.18669 27.38C7.45096 28.5953 6.87933 29.9027 6.48668 31.268C6.25881 31.9757 6.11056 32.7065 6.04468 33.447C6.03428 33.6289 6.07141 33.8104 6.15242 33.9737C6.23342 34.1369 6.35551 34.2763 6.50669 34.378C7.50471 35.2304 8.79729 35.6573 10.1067 35.567C10.4877 35.527 10.7277 35.401 10.7737 35.017C11.0912 33.4313 11.6896 31.9151 12.5407 30.54C12.866 30.0343 13.3103 29.6161 13.8347 29.322C15.1638 28.5036 16.7338 28.1668 18.2817 28.368C18.476 28.3712 18.6616 28.4493 18.7997 28.586C19.0807 28.976 19.3057 28.759 19.4147 28.514C19.8792 27.587 20.231 26.6077 20.4627 25.597C20.5517 25.105 20.7137 24.626 20.8267 24.137C20.8957 23.837 20.9347 23.537 21.0077 23.121" fill="white"/>
<path d="M18.145 54.1863C18.9608 54.1316 19.7564 53.9089 20.482 53.5323C21.563 52.9513 22.644 52.3693 23.72 51.7763C23.799 51.7313 23.834 51.6053 23.89 51.5193C23.818 51.4933 23.746 51.4663 23.673 51.4433C22.7786 51.2262 21.8986 50.9536 21.038 50.6273C19.1497 49.7467 17.5672 48.3226 16.493 46.5373C16.411 46.4083 16.359 46.2573 16.267 46.1373C16.2439 46.0918 16.2095 46.053 16.1671 46.0245C16.1248 45.996 16.0759 45.9788 16.025 45.9745C15.9741 45.9702 15.923 45.9789 15.8765 45.9999C15.8299 46.0208 15.7895 46.0533 15.759 46.0943C15.4283 46.4063 15.0375 46.6476 14.6104 46.8035C14.1833 46.9594 13.729 47.0267 13.275 47.0013C12.5318 46.9623 11.8151 46.7122 11.209 46.2803C10.9605 46.093 10.7003 45.9216 10.43 45.7673C10.2238 45.6861 9.99521 45.6818 9.78608 45.7553C9.57694 45.8287 9.40122 45.975 9.29104 46.1673C9.01648 46.4537 8.77404 46.7692 8.56804 47.1083C8.27041 47.8554 8.01829 48.6198 7.81304 49.3973C7.73806 49.8217 7.81544 50.259 8.03153 50.6319C8.24762 51.0048 8.58852 51.2893 8.99404 51.4353C10.278 51.9273 11.54 52.5033 12.847 52.8953C14.0954 53.4262 15.4141 53.7735 16.762 53.9263C17.129 54.2763 17.59 54.1523 18.146 54.1883" fill="white"/>
<path d="M43.8862 32.5721C44.4658 32.6239 45.0493 32.5349 45.5871 32.3127C46.1249 32.0906 46.6011 31.7418 46.9752 31.2961C47.8522 30.3358 48.615 29.277 49.2482 28.1411C49.9182 27.1491 50.5082 26.1051 51.1612 25.1011C51.3692 24.7811 51.1612 24.6121 50.9742 24.5091C50.1773 24.0562 49.338 23.6824 48.4682 23.3931C48.2958 23.3115 48.1168 23.2446 47.9332 23.1931C47.6183 23.1157 47.2903 23.1082 46.9722 23.1711C46.7722 23.2381 46.6622 23.5711 46.5292 23.7931C46.1598 24.6617 45.6151 25.4447 44.9292 26.0931C44.6988 26.3324 44.4225 26.5227 44.1168 26.6526C43.8111 26.7825 43.4824 26.8493 43.1502 26.8491C41.9151 26.7311 40.7029 26.4381 39.5502 25.9791C39.1712 25.8011 38.7632 25.6861 38.3722 25.5361C38.0582 25.4161 37.7492 25.2821 37.4382 25.1541C37.3446 25.3305 37.3073 25.5314 37.3313 25.7296C37.3552 25.9279 37.4393 26.114 37.5722 26.2631C37.6722 26.3781 37.6042 26.6631 37.5852 26.8631C37.6524 28.0409 37.6085 29.2225 37.4542 30.3921C37.4102 30.5511 37.8212 30.9431 38.0942 31.0621C38.7942 31.3621 39.5522 31.5281 40.2452 31.8391C40.9382 32.1501 41.7222 32.2251 42.4332 32.5391C42.911 32.6342 43.4018 32.6444 43.8832 32.5691" fill="white"/>
<path d="M51.3842 54.4199C50.9711 54.4393 50.5572 54.437 50.1442 54.4129C49.5194 54.3736 48.896 54.5097 48.3443 54.8059C47.7927 55.102 47.3348 55.5464 47.0222 56.0889C46.3476 57.1139 45.6032 58.0912 44.7942 59.0139C44.5346 59.3099 44.2983 59.6255 44.0872 59.9579C43.7212 60.4579 43.7002 60.4919 44.1172 60.8129C44.6912 61.2874 45.3955 61.5768 46.1372 61.6429C46.8297 61.667 47.5195 61.5461 48.1624 61.2877C48.8053 61.0294 49.387 60.6394 49.8702 60.1429C50.1062 59.9429 50.3982 59.8059 50.6392 59.6099C51.8416 58.7711 52.8221 57.6527 53.4962 56.3509C53.7251 55.9939 53.9171 55.6146 54.0692 55.2189C54.1092 55.0399 54.3312 54.8899 54.1182 54.7079C53.9826 54.5693 53.8084 54.4749 53.6182 54.4369C52.8752 54.4069 52.1302 54.4239 51.3852 54.4239" fill="white"/>
<path d="M48.5154 15.816C48.9804 16.245 49.6314 16.268 50.1634 16.64C50.4122 16.7813 50.6189 16.9863 50.7623 17.2339C50.9057 17.4815 50.9806 17.7629 50.9794 18.049C51.1151 18.8193 51.0226 19.6126 50.7134 20.331C51.3944 20.29 51.4274 19.662 51.6894 19.301C51.8304 19.107 51.8324 18.888 52.1524 18.92C52.2947 18.9175 52.4326 18.9694 52.5379 19.0651C52.6433 19.1608 52.7082 19.2931 52.7194 19.435C52.7245 19.6715 52.6945 19.9074 52.6304 20.135C52.6084 20.244 52.4924 20.341 52.4924 20.445C52.5078 20.5988 52.5414 20.7501 52.5924 20.896C52.7344 20.847 52.9204 20.839 53.0064 20.742C53.1769 20.5307 53.3259 20.3029 53.4514 20.062C53.5264 19.931 53.5324 19.721 53.6374 19.653C53.8262 19.5195 54.0502 19.4447 54.2814 19.438C54.5814 19.455 54.4624 19.749 54.4644 19.928C54.4541 20.5258 54.2071 21.0952 53.7776 21.5112C53.3482 21.9272 52.7712 22.1558 52.1734 22.147C52.0186 22.1446 51.8678 22.0974 51.7394 22.011C51.5745 21.8479 51.4252 21.6698 51.2934 21.479C51.1274 21.759 50.8544 21.631 50.6224 21.653C50.4831 21.6868 50.3372 21.6811 50.201 21.6366C50.0649 21.5921 49.9438 21.5105 49.8514 21.401C49.7172 21.2603 49.5336 21.1771 49.3394 21.169C48.6484 21.15 48.4234 20.754 48.2314 20.144C48.1004 19.729 48.0794 19.217 47.6394 18.894C47.3924 18.712 47.4474 18.403 47.6684 18.146C47.9144 17.862 48.0764 17.935 48.3734 18.127C48.7206 18.2983 49.0996 18.3953 49.4864 18.412C49.6034 18.428 49.7804 18.285 49.8644 18.169C49.9074 18.109 49.8434 17.913 49.7694 17.833C49.3632 17.3911 48.8312 17.0844 48.2451 16.9544C47.6591 16.8244 47.0473 16.8773 46.4924 17.106C45.5134 17.406 45.3384 17.728 45.2754 18.664C45.2242 19.1035 45.2853 19.5487 45.4531 19.9581C45.6208 20.3676 45.8896 20.7277 46.2344 21.005C46.6981 21.4921 47.2897 21.8386 47.9414 22.005C49.2058 22.3228 50.4116 22.8399 51.5134 23.537C51.7134 23.651 52.0424 23.907 52.0894 23.862C52.2894 23.671 52.5404 23.712 52.7464 23.622C53.3945 23.4172 53.9598 23.0097 54.359 22.4596C54.7583 21.9095 54.9705 21.2457 54.9644 20.566C54.9704 20.318 54.9454 20.066 54.9644 19.823C55.0346 19.2321 54.9114 18.6344 54.6132 18.1194C54.315 17.6045 53.8579 17.2001 53.3104 16.967C52.5057 16.5271 51.6701 16.1461 50.8104 15.827C50.2844 15.653 49.6754 15.94 49.2104 15.473C49.1524 15.414 48.7574 15.69 48.5154 15.812" fill="white"/>
<path d="M8.55243 45.052C7.72143 44.784 6.88843 44.506 6.04643 44.252C5.97032 44.234 5.8911 44.2337 5.81484 44.251C5.73858 44.2684 5.6673 44.3029 5.60643 44.352C5.2123 44.7485 4.84735 45.1729 4.51443 45.622C3.63743 47.033 3.11443 48.6 2.33743 50.048C2.03806 50.5509 1.86639 51.1195 1.83743 51.704C1.81116 51.8937 1.7505 52.0771 1.65843 52.245C1.56943 52.454 1.55843 52.563 1.82243 52.693C2.36933 52.9102 2.96324 52.9817 3.54606 52.9005C4.12888 52.8193 4.68066 52.5883 5.14743 52.23C5.33543 52.07 5.48143 51.858 5.67843 51.711C6.00868 51.4753 6.26783 51.1533 6.4276 50.7804C6.58737 50.4074 6.64162 49.9977 6.58443 49.596C6.61484 48.3895 6.99947 47.2186 7.69043 46.229C7.95248 45.8182 8.23935 45.4238 8.54943 45.048" fill="white"/>
<path d="M15.9375 37.1319C15.9868 35.9659 16.0976 34.8033 16.2695 33.6489C16.5205 32.3719 16.9695 31.1329 17.3315 29.8779C17.3725 29.7349 17.4195 29.5949 17.4635 29.4539C17.2715 29.4199 16.9695 29.2919 16.9035 29.3669C16.5105 29.8189 15.8835 29.4269 15.4645 29.8339C15.137 30.1675 14.735 30.4184 14.2915 30.5659C13.7965 30.7069 13.8515 31.1949 13.5485 31.4249C13.6855 32.3469 12.8975 33.2039 13.4675 34.2069C13.7305 34.6689 13.4805 35.3649 13.7415 35.9479C13.8721 36.3979 13.9638 36.8583 14.0155 37.3239C14.2186 37.8937 14.5957 38.3852 15.0935 38.7289C15.19 38.822 15.3046 38.8944 15.4301 38.9415C15.5557 38.9886 15.6895 39.0095 15.8235 39.0029C16.1825 38.9029 15.9635 38.5129 15.9865 38.2519C16.0195 37.8839 15.9955 37.5089 15.9955 37.1369L15.9365 37.1309" fill="white"/>
<path d="M4.08228 37.5031C4.07228 38.5571 4.36029 38.9031 5.14329 39.0341C6.03426 39.1152 6.91614 39.2762 7.77828 39.5151C7.92528 39.5681 8.15429 39.4541 8.32429 39.3741C8.75767 39.2274 9.13335 38.9469 9.39731 38.5732C9.66127 38.1995 9.7999 37.7516 9.79328 37.2941C9.79328 37.0871 10.2763 36.7471 9.57529 36.7881C8.85298 36.809 8.13386 36.6842 7.46075 36.4214C6.78765 36.1585 6.17432 35.7629 5.65729 35.2581C5.36729 35.0041 5.14628 34.9881 4.97428 35.2971C4.53691 35.9676 4.23328 36.7169 4.08228 37.5031Z" fill="white"/>
<path d="M36.348 27.7216C36.348 26.9786 36.356 26.2346 36.348 25.4916C36.3537 25.3335 36.3244 25.176 36.2621 25.0306C36.1999 24.8851 36.1063 24.7551 35.988 24.65C35.8697 24.5449 35.7297 24.4673 35.5779 24.4226C35.4261 24.3779 35.2663 24.3673 35.11 24.3916C35.021 24.4016 34.875 24.5116 34.872 24.5806C34.7815 25.0684 34.7876 25.5692 34.89 26.0546C35.106 26.9148 35.1779 27.8049 35.103 28.6886C35.135 29.1816 35.097 29.6796 35.111 30.1746C35.1042 31.9759 34.6787 33.751 33.868 35.3596C33.82 35.4646 33.681 35.5456 33.668 35.6466C33.6784 35.7869 33.7122 35.9245 33.768 36.0536C33.879 36.0196 34.038 36.0206 34.09 35.9466C34.4205 35.5163 34.7117 35.0571 34.96 34.5746C35.3046 33.8088 35.6012 33.0223 35.848 32.2196C36.1893 31.2522 36.3618 30.2334 36.358 29.2076C36.337 28.7136 36.358 28.2166 36.358 27.7226" fill="white"/>
<path d="M30.7127 24.8883C29.6227 24.9503 28.7197 24.4723 27.7457 24.6353C27.3326 24.3875 26.8411 24.305 26.3697 24.4043C26.2997 24.4043 26.1517 24.6973 26.1897 24.7493C26.4837 25.1693 26.8477 25.5413 27.1267 25.9693C27.8817 27.1303 29.3757 26.7173 30.1487 25.5743C30.2827 25.3743 30.4487 25.2023 30.7127 24.8873" fill="white"/>
<path d="M20.7101 28.696C20.7311 28.729 20.7531 28.789 20.7721 28.789C20.8311 28.789 20.9131 28.78 20.9441 28.74C21.8314 27.6695 22.5099 26.4419 22.9441 25.121C23.0811 24.683 23.2671 24.26 23.3741 23.821C23.398 23.5973 23.3762 23.3711 23.3101 23.156C23.2971 23.089 23.1781 22.978 23.1461 22.989C22.8035 23.1066 22.4694 23.2476 22.1461 23.411C22.0888 23.453 22.042 23.5075 22.0092 23.5705C21.9764 23.6334 21.9586 23.7031 21.9571 23.774C21.945 24.8326 21.7365 25.8797 21.3421 26.862C21.2487 27.4716 21.033 28.0559 20.7081 28.58C20.6881 28.605 20.7081 28.661 20.7081 28.701" fill="white"/>
<path d="M41.5997 16.1596C41.5497 15.9296 41.5717 15.6326 41.4337 15.4846C41.1562 15.2041 40.8371 14.968 40.4877 14.7846C40.4247 14.7496 40.0797 14.9976 40.0877 15.0846C40.086 15.6406 39.9958 16.1929 39.8207 16.7206C39.7987 16.8386 39.8517 17.0076 39.7877 17.0746C39.5297 17.3466 39.3877 17.6746 39.7087 17.9096C39.9927 18.1156 40.3237 17.8426 40.5787 17.6746C41.1157 17.3176 41.6977 16.9656 41.5977 16.1526" fill="white"/>
<path d="M21.9156 22.1542C20.8416 21.3062 19.6456 21.8722 18.5156 21.6982C18.9786 22.1412 19.5836 21.7662 20.1386 22.0982C20.5816 22.3652 21.3126 22.1522 21.9166 22.1522" fill="white"/>
<path d="M29.4903 18.1731C29.8543 18.2201 30.2323 18.1491 30.5973 18.1901C30.9623 18.2311 31.3493 18.3551 31.7273 18.4281C32.3613 18.5501 32.5413 18.8501 32.2403 19.4281C31.5436 20.5863 30.5234 21.5155 29.3053 22.1011C28.8393 22.3671 28.4273 22.1511 28.1563 21.6351C27.7663 20.8931 27.3913 20.1451 27.0103 19.4001C26.3963 18.2001 26.5473 17.9411 27.8823 17.8711C28.4173 17.9771 28.9503 18.1081 29.4903 18.1781M29.5643 19.1931C29.0747 19.1572 28.5834 19.1525 28.0933 19.1791C28.4053 19.6301 28.6543 19.9881 28.8983 20.3471C29.1573 20.7291 29.3733 20.7831 29.6813 20.5011C30.0123 20.2011 30.3193 19.8691 30.6443 19.5441C30.2958 19.3943 29.9342 19.2768 29.5643 19.1931Z" fill="white"/>
<path d="M31.885 14.0599C32.1203 13.9398 32.346 13.8018 32.56 13.6469C33.276 13.0469 33.815 13.1199 34.087 13.9649C34.176 14.2459 34.218 14.5169 34.465 14.6649C34.614 14.734 34.7833 14.745 34.94 14.6959C35.363 14.5739 35.301 14.1959 35.133 13.5099C34.878 12.4699 34.004 12.3269 33.253 12.0179C32.9487 11.9784 32.6407 12.0556 32.391 12.2339C31.912 12.5089 31.403 12.7849 31.377 13.4629C31.364 13.8029 31.401 14.0389 31.884 14.0559" fill="white"/>
<path d="M28.4038 12.9039C28.5498 12.3589 28.2118 12.0659 27.6628 11.8449C27.0998 11.6058 26.4672 11.5888 25.8921 11.7971C25.317 12.0054 24.8421 12.4237 24.5628 12.9679C24.4168 13.2679 24.5898 13.6509 25.0048 13.9089C25.3048 14.0949 25.4478 13.8329 25.5918 13.6639C25.7108 13.5229 25.7438 13.3089 25.8618 13.1639C26.3878 12.5239 26.8808 12.5699 27.4148 13.2869C27.4858 13.3819 27.5458 13.5099 27.6418 13.5549C27.8116 13.6441 27.9991 13.6943 28.1908 13.7019C28.5148 13.6949 28.3788 13.4159 28.4048 13.2399C28.4116 13.1266 28.4116 13.0131 28.4048 12.8999" fill="white"/>
<path d="M29.083 16.4594C29.298 16.4454 29.476 16.4844 29.528 16.4214C29.919 15.9424 30.241 16.2924 30.357 16.5824C30.466 16.8544 30.502 17.0494 30.798 16.8904C30.9311 16.8349 31.0386 16.7314 31.0991 16.6005C31.1597 16.4696 31.1689 16.3207 31.125 16.1834C31.0114 15.9343 30.8384 15.7169 30.6211 15.5504C30.4039 15.3839 30.149 15.2733 29.879 15.2284C29.45 15.1064 29.079 15.4514 28.767 15.7364C28.7083 15.8124 28.6692 15.9016 28.653 15.9963C28.6368 16.0909 28.644 16.1881 28.674 16.2794C28.729 16.3994 28.991 16.4244 29.083 16.4604" fill="white"/>
<path d="M33.2588 9.07383C33.3655 9.26691 33.4893 9.44998 33.6288 9.62083C34.1495 9.74908 34.6866 9.7973 35.2218 9.76383C35.4308 9.72783 35.6608 9.73183 35.5928 9.44383C35.5545 9.21676 35.4501 9.006 35.2928 8.83783C34.9438 8.54283 34.4068 8.98783 34.0408 8.58183C34.0168 8.55483 33.8058 8.68183 33.6928 8.75483C33.5588 8.83883 33.4368 8.94183 33.2588 9.07383Z" fill="white"/>
<path d="M30.6447 19.5415C30.2962 19.3917 29.9347 19.2742 29.5648 19.1905C29.0752 19.155 28.5839 19.1506 28.0938 19.1775C28.4058 19.6275 28.6547 19.9855 28.8997 20.3455C29.1587 20.7275 29.3748 20.7815 29.6828 20.4995C30.0138 20.1995 30.3208 19.8675 30.6458 19.5425" fill="white"/>
<path fill-rule="evenodd" clip-rule="evenodd" d="M39.5214 24.637C40.5045 25.1248 41.5859 25.382 42.6834 25.389C43.3344 25.989 43.7834 25.416 44.2074 25.071C44.6854 24.6029 45.0785 24.0555 45.3694 23.453C45.9564 22.494 46.0254 22.463 45.2254 21.746C44.7489 21.3132 44.3905 20.7661 44.184 20.1564C43.9775 19.5466 43.9298 18.8943 44.0454 18.261C44.1412 17.6557 44.4373 17.1 44.8864 16.6829C45.3355 16.2659 45.9116 16.0117 46.5224 15.961C46.8654 15.951 46.9224 15.781 47.0984 15.548C47.3314 15.1662 47.6769 14.8658 48.0874 14.688C48.8821 14.4499 49.7253 14.4233 50.5334 14.611C51.7449 14.9784 52.9109 15.4816 54.0094 16.111C54.6651 16.4085 55.1911 16.9331 55.4904 17.588C56.1307 18.7566 56.3115 20.1221 55.9974 21.417C55.8667 22.1708 55.5272 22.8729 55.0173 23.4433C54.5075 24.0138 53.8479 24.4298 53.1134 24.644C52.8994 24.72 52.6134 24.817 52.5254 24.989C51.8184 26.407 50.8704 27.682 50.1394 29.089C49.3609 30.6791 48.2199 32.0643 46.8084 33.133C46.0728 33.7187 45.1672 34.0502 44.2274 34.078C43.4167 33.9803 42.6144 33.8219 41.8274 33.604C40.3476 33.337 38.9142 32.8577 37.5714 32.181C37.2824 32.045 37.1794 32.032 37.0834 32.387C36.8669 33.0403 36.6148 33.6812 36.3284 34.307C36.014 35.1326 35.5953 35.9147 35.0824 36.634C34.7275 37.0456 34.2632 37.3483 33.7434 37.507C33.4504 37.607 33.4514 37.786 33.3194 37.953C32.8264 38.571 32.7584 39.382 32.2894 40.016C32.1137 40.1977 31.9854 40.4199 31.916 40.663C31.8465 40.906 31.838 41.1625 31.8912 41.4096C31.9444 41.6567 32.0576 41.8869 32.2209 42.0799C32.3842 42.2729 32.5925 42.4227 32.8274 42.516C32.9274 42.574 33.0434 42.599 33.1394 42.658C34.4274 43.445 35.7394 44.202 36.9924 45.034C38.6434 46.127 40.2824 47.246 42.0144 48.199C42.9683 48.7303 43.8721 49.3472 44.7144 50.042C45.8794 50.993 46.9544 52.058 48.0384 53.104C48.1501 53.2177 48.284 53.3071 48.4318 53.3666C48.5796 53.4262 48.7381 53.4545 48.8974 53.45C49.4062 53.405 49.9116 53.3271 50.4104 53.217C51.4425 53.1499 52.4777 53.1445 53.5104 53.201C53.8604 53.2082 54.2043 53.2943 54.5164 53.453C54.7214 53.5361 54.8983 53.6763 55.0261 53.8569C55.1539 54.0375 55.2272 54.251 55.2374 54.472C55.2747 55.2639 55.0978 56.0512 54.7254 56.751C54.205 57.9148 53.4295 58.9466 52.4564 59.77C51.7334 60.323 50.9774 60.827 50.2954 61.44C49.8255 61.8529 49.307 62.2068 48.7514 62.494C47.6244 63.094 46.3834 62.822 45.1854 62.863C45.1274 62.863 45.0724 62.73 45.0034 62.714C43.9284 62.472 43.2874 61.34 42.1124 61.302C42.0824 61.302 42.0554 61.246 42.0244 61.218C41.2984 60.574 40.5244 59.975 39.8564 59.278C38.7031 58.2415 37.4707 57.2966 36.1704 56.452C35.2148 55.802 34.2172 55.2157 33.1844 54.697C30.9091 53.516 28.5372 52.5314 26.0944 51.754C26.0232 51.7379 25.9494 51.7371 25.8779 51.7516C25.8064 51.7661 25.7387 51.7955 25.6794 51.838C24.6963 52.6094 23.6604 53.3111 22.5794 53.938C21.2426 54.8151 19.7032 55.3346 18.1084 55.447C16.6243 55.3402 15.1617 55.031 13.7614 54.528C12.9104 54.322 12.0914 53.973 11.2614 53.685C10.1756 53.2055 9.06505 52.7842 7.9344 52.423C7.6874 52.366 7.43439 51.941 7.27639 51.986C6.99639 52.065 6.77639 52.378 6.54339 52.599C6.39239 52.739 6.2434 52.888 6.1044 53.037C5.65229 53.4707 5.10659 53.7947 4.50939 53.984C3.60093 54.1898 2.665 54.2462 1.73839 54.151C1.35099 54.1206 0.991412 53.9379 0.73839 53.643C0.598285 53.4784 0.492498 53.2874 0.427241 53.0814C0.361984 52.8753 0.338577 52.6583 0.358393 52.443C0.454074 51.8318 0.600926 51.2297 0.797396 50.643C1.312 49.0769 1.98516 47.5674 2.80639 46.138C3.25038 45.1646 3.88447 44.2898 4.6714 43.565C4.80318 43.4192 4.97857 43.3199 5.1714 43.282C6.05351 43.1746 6.94838 43.2546 7.7974 43.517C8.51599 43.9901 9.34812 44.2622 10.2074 44.305C10.3664 44.288 10.5534 44.454 10.7154 44.556C11.1774 44.842 11.6154 45.175 12.0944 45.423C12.4489 45.6397 12.8532 45.7617 13.2684 45.7771C13.6836 45.7925 14.0958 45.7009 14.4654 45.511C14.7996 45.3763 15.0827 45.1393 15.274 44.834C15.4653 44.5286 15.555 44.1705 15.5304 43.811C15.397 42.8462 15.4689 41.8641 15.7414 40.929C15.8414 40.682 15.8874 40.278 15.3554 40.24C15.1494 40.225 14.9554 40.017 14.7554 39.907C14.3327 39.6959 13.9582 39.3997 13.6555 39.0369C13.3528 38.6741 13.1284 38.2527 12.9964 37.799C12.6964 36.821 12.4144 35.836 12.1964 34.81C12.0034 35.3293 11.7793 35.8366 11.5254 36.329C11.3844 36.569 10.9574 36.668 10.8744 36.907C10.7914 37.146 11.0984 37.513 11.0214 37.759C10.8333 38.3016 10.5904 38.8237 10.2964 39.317C9.8174 40.18 8.25639 41.058 7.51039 40.749C7.06439 40.565 6.5744 40.715 6.2544 40.506C5.8134 40.219 5.39639 40.352 4.97139 40.289C4.14054 40.1362 3.40253 39.6642 2.91539 38.974C2.85139 38.894 2.86639 38.747 2.85639 38.629C2.78529 37.8004 2.89186 36.9661 3.16899 36.182C3.44611 35.3979 3.88742 34.6819 4.4634 34.082C4.6174 33.912 4.82939 33.689 4.82139 33.497C4.86527 32.3237 5.13308 31.1697 5.61039 30.097C6.23454 28.1357 7.24963 26.3212 8.59439 24.763C9.45052 23.8807 10.4399 23.1383 11.5264 22.563C12.0783 22.2016 12.7134 21.9871 13.3714 21.94C14.3627 21.7697 15.3657 21.6771 16.3714 21.663C16.5284 21.686 16.7324 21.534 16.8804 21.418C17.5399 20.9491 18.2887 20.6206 19.0804 20.453C19.5205 20.3811 19.9668 20.3537 20.4124 20.371C20.6314 19.824 19.9804 19.593 19.9604 19.112C19.915 18.7266 19.8363 18.3459 19.7254 17.974C19.7193 17.8598 19.6892 17.7481 19.6371 17.6463C19.5849 17.5445 19.5118 17.4548 19.4226 17.3832C19.3334 17.3115 19.2301 17.2595 19.1195 17.2305C19.0088 17.2016 18.8932 17.1963 18.7804 17.215C18.1099 17.2349 17.4467 17.0714 16.8624 16.742C16.2768 16.4792 15.8022 16.0191 15.5214 15.442C15.1639 14.6428 15.1319 13.7358 15.4321 12.9134C15.7323 12.091 16.3411 11.418 17.1294 11.037C17.4164 10.904 17.4954 10.837 17.4924 10.564C17.4473 9.73813 17.4523 8.91028 17.5074 8.08501C17.5635 6.91561 17.9297 5.7822 18.5684 4.80101C18.9014 4.34201 19.2684 3.93301 19.6394 3.51301C20.0104 3.09301 20.3324 2.63901 20.6984 2.21801C21.4863 1.45621 22.447 0.89659 23.4984 0.587009C24.3424 0.140236 25.3054 -0.0301173 26.2514 0.100009C26.8438 0.19741 27.4478 0.201122 28.0414 0.111009C29.6151 -0.118027 31.2184 -0.0358052 32.7604 0.353009C33.3244 0.553009 33.8964 0.505009 34.4604 0.739009C35.7997 1.24161 37.0656 1.92131 38.2244 2.76001C39.8292 3.85344 41.0044 5.47018 41.5494 7.33401C41.8625 8.18124 42.0316 9.07494 42.0494 9.97801C42 10.4036 41.9215 10.8252 41.8144 11.24C41.7505 11.7857 41.657 12.3275 41.5344 12.863C41.2664 13.786 41.2344 13.777 41.8904 14.415C41.9445 14.4778 42.0037 14.536 42.0674 14.589C42.3035 14.815 42.4916 15.0864 42.6203 15.3868C42.749 15.6873 42.8156 16.0107 42.8163 16.3375C42.8169 16.6644 42.7516 16.988 42.6241 17.289C42.4966 17.5899 42.3096 17.8621 42.0744 18.089C41.4096 18.7029 40.5613 19.081 39.6604 19.165C39.4858 19.1596 39.3133 19.2047 39.1636 19.2948C39.0139 19.3849 38.8934 19.5162 38.8164 19.673C38.2085 20.8007 37.4112 21.8155 36.4594 22.673C36.2424 22.857 36.0354 23.052 35.7704 23.29C37.0804 23.76 38.3034 24.201 39.5274 24.639M21.2964 41.244C20.277 41.0364 19.2706 40.7692 18.2824 40.444C18.1754 40.414 18.0894 40.306 17.9824 40.276C17.7585 40.1731 17.5122 40.1283 17.2664 40.146C16.9464 40.246 17.0664 40.63 16.9664 40.872C16.7681 41.6084 16.6878 42.3715 16.7284 43.133C16.7211 44.3233 17.1591 45.4732 17.9564 46.357C18.3907 46.9889 18.8993 47.5664 19.4714 48.077C20.2785 48.9457 21.3462 49.5283 22.5134 49.737C23.0564 49.796 23.5824 50.121 24.1674 50.225C24.7524 50.329 25.3504 50.368 25.9244 50.477C26.8246 50.6744 27.7098 50.935 28.5734 51.257C30.5965 51.969 32.5467 52.8731 34.3974 53.957C36.122 54.8786 37.7573 55.9582 39.2824 57.182C39.8634 57.682 40.4314 58.188 41.0024 58.695C41.2481 58.8877 41.5053 59.0653 41.7724 59.227C41.9654 59.36 42.1984 59.644 42.3404 59.604C42.6624 59.511 43.0894 59.324 43.2014 59.06C43.449 58.647 43.7552 58.2721 44.1104 57.947C44.3794 57.605 44.6214 57.242 44.9044 56.913C45.5374 56.178 46.1924 55.463 46.8264 54.728C46.9474 54.587 46.9744 54.359 47.1024 54.228C47.2574 54.072 47.2394 54.008 47.0934 53.864C45.5233 52.3054 43.832 50.8739 42.0354 49.583C41.3854 49.12 40.6024 48.843 39.9174 48.421C38.9244 47.809 37.9644 47.144 36.9904 46.499C35.5364 45.536 34.0904 44.567 32.5654 43.714C31.8264 43.302 31.0824 42.899 30.3384 42.495C29.5494 42.0689 28.6863 41.7974 27.7954 41.695C26.9184 41.6 26.0365 41.5566 25.1544 41.565C23.8674 41.465 22.5674 41.436 21.2954 41.24M33.3064 23.082C33.5884 22.964 33.8744 22.857 34.1524 22.73C35.9766 21.7545 37.3801 20.1443 38.0974 18.204C38.5477 17.0141 38.8947 15.7875 39.1344 14.538C39.1534 14.421 39.4044 14.327 39.1744 14.188C38.7884 13.953 38.8514 13.58 38.8224 13.213C38.7442 12.1556 38.3144 11.1548 37.6014 10.37C36.9874 9.67001 36.1524 9.17001 35.7524 8.28301C35.7107 8.21108 35.6511 8.15115 35.5794 8.10901C35.0364 7.72601 34.5004 7.33001 33.9404 6.97301C33.5764 6.74101 33.1314 6.85901 33.1404 7.18901C33.1594 8.28101 32.3484 9.14901 32.3784 10.231C32.0584 10.384 32.3724 10.989 31.7964 10.996C31.6813 11.0158 31.5632 11.0092 31.451 10.9767C31.3388 10.9442 31.2354 10.8866 31.1487 10.8083C31.062 10.73 30.9943 10.633 30.9506 10.5247C30.9069 10.4164 30.8883 10.2995 30.8964 10.183C30.8688 9.67096 30.7962 9.16233 30.6794 8.66301C30.5354 8.13701 30.0004 7.75401 30.1444 7.14201C30.0054 7.11401 29.7824 7.01601 29.7384 7.06901C29.2771 7.61368 28.8344 8.17367 28.4104 8.74901C28.1705 9.05277 27.969 9.38494 27.8104 9.73801C27.7692 9.9055 27.6668 10.0515 27.5234 10.1474C27.38 10.2432 27.2059 10.282 27.0354 10.256C26.4824 10.243 26.6134 9.73801 26.4614 9.49401C26.2934 9.22501 26.4304 8.77301 26.4204 8.40101C26.4353 8.20368 26.406 8.00551 26.3344 7.82101C26.2804 7.72101 26.1794 7.37901 25.9134 7.64701C25.8182 7.72688 25.7308 7.81561 25.6524 7.91201C24.8618 9.02767 23.8876 10.0011 22.7714 10.791C22.3985 11.1441 21.9833 11.4498 21.5354 11.701C21.3444 11.7526 21.1793 11.8732 21.072 12.0394C20.9647 12.2056 20.9228 12.4057 20.9544 12.601C20.9536 12.6674 20.9363 12.7325 20.904 12.7905C20.8718 12.8486 20.8256 12.8976 20.7696 12.9334C20.7137 12.9691 20.6497 12.9903 20.5835 12.9951C20.5173 13 20.4509 12.9882 20.3904 12.961C20.2513 12.8785 20.128 12.7718 20.0264 12.646C19.7793 12.2749 19.4074 12.0045 18.9781 11.884C18.5488 11.7635 18.0906 11.8007 17.6864 11.989C17.1854 12.243 16.8025 12.6815 16.6186 13.2123C16.4346 13.743 16.464 14.3245 16.7004 14.834C17.0594 15.656 17.7344 15.702 18.3624 15.928C18.6184 16.02 18.9394 15.913 19.2244 15.952C19.5734 15.998 20.0074 15.74 20.2574 16.126C20.4604 16.4508 20.6103 16.806 20.7014 17.178C20.7774 17.478 20.6174 17.841 20.9624 18.065C20.8764 19.135 21.6244 19.792 22.2004 20.528C23.5004 22.197 25.0234 22.64 26.7944 23.164C27.4724 23.364 28.1714 23.24 28.7944 23.427C29.4759 23.5851 30.1739 23.6603 30.8734 23.651C31.7229 23.6869 32.5659 23.4887 33.3104 23.078M23.6964 26.345C23.3984 27.2236 22.9703 28.0525 22.4264 28.804C21.7097 29.8706 20.8736 30.852 19.9344 31.729C19.5476 32.0716 19.1434 32.394 18.7234 32.695C18.6278 32.76 18.5181 32.8015 18.4034 32.816C18.2034 32.848 17.8864 32.786 17.8284 32.887C17.6466 33.1812 17.5341 33.5129 17.4994 33.857C17.3115 35.3036 17.2206 36.7612 17.2274 38.22C17.2072 38.4164 17.2645 38.6129 17.387 38.7677C17.5095 38.9226 17.6876 39.0235 17.8834 39.049C18.9721 39.2895 20.0416 39.6097 21.0834 40.007C21.1633 40.0257 21.2461 40.0295 21.3274 40.018C22.9416 40.1875 24.5633 40.2742 26.1864 40.278C26.7842 40.1969 27.3928 40.2699 27.9544 40.49C28.4424 40.704 29.0544 40.34 29.5934 40.742C29.7774 40.881 30.1584 40.742 30.4444 40.77C30.8534 40.817 30.8374 40.594 30.9144 40.278C31.2026 39.3672 31.5627 38.4807 31.9914 37.627C32.1914 37.157 32.0444 36.712 32.2574 36.248C32.7484 35.175 33.0444 34.013 33.4344 32.892C33.7008 32.2398 33.8507 31.546 33.8774 30.842C33.8624 29.188 33.8774 27.534 33.8774 25.881C33.873 25.7984 33.873 25.7156 33.8774 25.633C33.9088 25.4033 33.8834 25.1693 33.8036 24.9516C33.7237 24.7339 33.5918 24.539 33.4194 24.384C33.0064 24.669 32.3614 24.546 32.0944 25.061C31.621 25.7137 31.0949 26.3264 30.5214 26.893C29.7084 27.993 28.5714 27.876 27.4404 27.856C27.3625 27.8564 27.287 27.8291 27.2274 27.779C26.7094 27.211 26.1604 26.665 25.6974 26.055C25.1751 25.3604 24.7958 24.5692 24.5814 23.727C24.2374 24.749 23.9514 25.542 23.7054 26.347M28.9414 5.93701C28.9874 5.45501 29.8264 5.35201 30.2414 5.73701C30.6782 6.13517 30.9925 6.6496 31.1474 7.22001C31.1584 7.25801 31.1344 7.31001 31.1474 7.34201C31.3384 7.71801 31.5344 8.09101 31.7294 8.46401C31.8644 8.09001 32.0124 7.72001 32.1294 7.34001C32.3203 6.99237 32.4094 6.59796 32.3864 6.20201C32.2864 5.74101 32.7344 5.59401 32.9654 5.33501C33.0154 5.27901 33.2534 5.34001 33.3734 5.40501C33.9042 5.6347 34.4041 5.93 34.8614 6.28401C35.5414 6.92201 36.5284 7.21001 36.9354 8.18401C37.1546 8.53626 37.4469 8.83737 37.7924 9.06701C38.3567 9.49992 38.8285 10.0415 39.1799 10.6599C39.5313 11.2782 39.7552 11.9607 39.8384 12.667C39.8564 12.78 40.0064 12.867 40.0954 12.967C40.1724 12.896 40.2954 12.838 40.3184 12.75C40.5327 12.1731 40.6943 11.578 40.8014 10.972C40.8561 10.2299 40.8618 9.48491 40.8184 8.74201C40.5391 7.66529 40.1259 6.62786 39.5884 5.65401C38.7254 4.35437 37.5402 3.30075 36.1484 2.59601C35.2255 2.12683 34.2527 1.7632 33.2484 1.51201C31.7349 1.11041 30.1655 0.961074 28.6034 1.07001C27.9754 1.07901 27.3514 1.25701 26.7214 1.29701C26.0623 1.26197 25.4016 1.27467 24.7444 1.33501C24.0333 1.48624 23.3556 1.76545 22.7444 2.15901C21.8607 2.6358 21.1268 3.34861 20.6244 4.21801C20.3355 4.6469 20.0045 5.04588 19.6364 5.40901C19.059 6.25247 18.7384 7.24517 18.7134 8.26701C18.6334 8.97801 18.9844 9.73401 18.4854 10.407C18.4584 10.444 18.6034 10.692 18.7044 10.723C18.9284 10.793 19.2654 10.695 19.3994 10.823C20.1224 11.528 20.6994 10.9 21.1994 10.577C21.8908 10.0889 22.5356 9.53792 23.1254 8.93101C23.9924 8.10401 24.8254 7.24001 25.6744 6.39301C25.8744 6.19301 26.0354 5.98501 26.3874 6.00601C26.9094 6.03701 27.0954 6.17501 27.1684 6.69701C27.2284 7.11701 27.3244 7.53201 27.4394 8.13201C28.1004 7.36301 28.8394 6.91101 28.9304 5.93901M14.9604 22.9C14.4053 22.9046 13.8526 22.9738 13.3134 23.106C12.2188 23.4441 11.2021 23.9957 10.3219 24.7289C9.44178 25.4622 8.71562 26.3625 8.1854 27.378C7.44945 28.5932 6.87781 29.9006 6.48539 31.266C6.25744 31.9736 6.10919 32.7045 6.04339 33.445C6.03319 33.6269 6.07041 33.8083 6.15139 33.9715C6.23238 34.1347 6.35436 34.2741 6.5054 34.376C7.50364 35.228 8.79606 35.6549 10.1054 35.565C10.4854 35.524 10.7264 35.398 10.7724 35.014C11.0905 33.4283 11.6893 31.9122 12.5404 30.537C12.8656 30.0315 13.3099 29.6136 13.8344 29.32C15.1635 28.5015 16.7335 28.1647 18.2814 28.366C18.4758 28.3689 18.6614 28.447 18.7994 28.584C19.0804 28.973 19.3054 28.757 19.4144 28.512C19.8804 27.5868 20.2342 26.6092 20.4684 25.6C20.5574 25.107 20.7204 24.629 20.8334 24.14C20.9014 23.84 20.9414 23.54 21.0134 23.124C18.9134 23.303 16.9584 22.699 14.9604 22.903M20.4814 53.533C21.5624 52.952 22.6434 52.37 23.7194 51.777C23.7984 51.732 23.8334 51.606 23.8894 51.52C23.8174 51.494 23.7454 51.467 23.6724 51.444C22.778 51.2269 21.898 50.9544 21.0374 50.628C19.1491 49.7475 17.5665 48.3234 16.4924 46.538C16.4104 46.409 16.3584 46.258 16.2664 46.138C16.2432 46.0925 16.2089 46.0537 16.1665 46.0252C16.1241 45.9967 16.0752 45.9795 16.0244 45.9752C15.9735 45.9709 15.9224 45.9796 15.8758 46.0006C15.8293 46.0216 15.7889 46.0541 15.7584 46.095C15.4277 46.407 15.0368 46.6483 14.6098 46.8042C14.1827 46.9602 13.7283 47.0275 13.2744 47.002C12.5312 46.963 11.8145 46.7129 11.2084 46.281C10.9598 46.0937 10.6996 45.9224 10.4294 45.768C10.2231 45.6868 9.99457 45.6825 9.78543 45.756C9.5763 45.8294 9.40058 45.9757 9.29039 46.168C9.01584 46.4544 8.7734 46.7699 8.56739 47.109C8.26978 47.8561 8.01766 48.6205 7.8124 49.398C7.73741 49.8224 7.81479 50.2597 8.03089 50.6326C8.24698 51.0055 8.58788 51.29 8.99339 51.436C10.2774 51.928 11.5394 52.504 12.8464 52.896C14.0947 53.427 15.4134 53.7742 16.7614 53.927C17.1284 54.277 17.5894 54.153 18.1454 54.189C18.9611 54.1343 19.7568 53.9116 20.4824 53.535M46.9734 31.3C47.85 30.3392 48.6124 29.2802 49.2454 28.144C49.9164 27.153 50.5064 26.108 51.1584 25.104C51.3674 24.784 51.1584 24.615 50.9714 24.512C50.1741 24.0592 49.3344 23.6854 48.4644 23.396C48.2919 23.3145 48.113 23.2476 47.9294 23.196C47.6144 23.1189 47.2864 23.1117 46.9684 23.175C46.7684 23.242 46.6584 23.575 46.5254 23.797C46.1557 24.6654 45.6111 25.4484 44.9254 26.097C44.695 26.3362 44.4187 26.5265 44.113 26.6564C43.8073 26.7863 43.4785 26.8532 43.1464 26.853C41.9113 26.7349 40.6992 26.4419 39.5464 25.983C39.1674 25.806 38.7594 25.69 38.3684 25.54C38.0554 25.42 37.7464 25.286 37.4344 25.158C37.3411 25.3346 37.304 25.5354 37.3282 25.7337C37.3523 25.9319 37.4365 26.118 37.5694 26.267C37.6694 26.382 37.6014 26.667 37.5824 26.867C37.6496 28.0448 37.6057 29.2264 37.4514 30.396C37.4064 30.555 37.8184 30.947 38.0914 31.066C38.7914 31.366 39.5494 31.532 40.2424 31.843C40.9354 32.154 41.7194 32.229 42.4304 32.543C42.9082 32.6381 43.399 32.6483 43.8804 32.573C44.46 32.6246 45.0434 32.5356 45.5812 32.3134C46.119 32.0913 46.5952 31.7426 46.9694 31.297M50.1424 54.414C49.5175 54.3745 48.894 54.5105 48.3423 54.8067C47.7907 55.1029 47.3328 55.5474 47.0204 56.09C46.3453 57.1147 45.6009 58.092 44.7924 59.015C44.5322 59.3108 44.2955 59.6264 44.0844 59.959C43.7194 60.459 43.6974 60.493 44.1144 60.814C44.6882 61.2879 45.3921 61.577 46.1334 61.643C46.8258 61.6673 47.5157 61.5464 48.1586 61.288C48.8015 61.0297 49.3833 60.6397 49.8664 60.143C50.1034 59.943 50.3944 59.807 50.6354 59.611C51.8377 58.7722 52.8182 57.6538 53.4924 56.352C53.7214 55.9952 53.9134 55.6159 54.0654 55.22C54.1054 55.041 54.3274 54.891 54.1144 54.709C53.9792 54.5699 53.8047 54.4754 53.6144 54.438C52.8714 54.408 52.1264 54.425 51.3814 54.425C50.9686 54.4442 50.555 54.4419 50.1424 54.418M50.1574 16.644C50.4062 16.7854 50.6128 16.9904 50.7562 17.238C50.8996 17.4856 50.9746 17.7669 50.9734 18.053C51.1088 18.8234 51.016 19.6166 50.7064 20.335C51.3874 20.294 51.4204 19.666 51.6824 19.305C51.8234 19.112 51.8254 18.892 52.1454 18.924C52.2877 18.9215 52.4256 18.9734 52.531 19.0691C52.6363 19.1648 52.7012 19.2971 52.7124 19.439C52.7175 19.6755 52.6876 19.9114 52.6234 20.139C52.6014 20.248 52.4854 20.345 52.4854 20.449C52.5006 20.6025 52.5342 20.7535 52.5854 20.899C52.7264 20.851 52.9124 20.842 52.9994 20.745C53.1699 20.5336 53.319 20.3059 53.4444 20.065C53.5194 19.934 53.5254 19.724 53.6304 19.656C53.8193 19.5226 54.0433 19.4478 54.2744 19.441C54.5744 19.458 54.4554 19.752 54.4574 19.931C54.4471 20.5288 54.2002 21.0982 53.7707 21.5142C53.3412 21.9302 52.7643 22.1588 52.1664 22.15C52.0116 22.1476 51.8609 22.1004 51.7324 22.014C51.5675 21.8509 51.4182 21.6728 51.2864 21.482C51.1204 21.762 50.8474 21.634 50.6154 21.656C50.4762 21.6898 50.3303 21.6841 50.1941 21.6396C50.0579 21.5951 49.9368 21.5135 49.8444 21.404C49.7102 21.2633 49.5267 21.1801 49.3324 21.172C48.6414 21.153 48.4164 20.757 48.2244 20.147C48.0934 19.732 48.0724 19.22 47.6324 18.897C47.3854 18.715 47.4404 18.406 47.6614 18.15C47.9074 17.866 48.0694 17.939 48.3664 18.131C48.7136 18.3023 49.0926 18.3993 49.4794 18.416C49.5964 18.432 49.7734 18.289 49.8574 18.173C49.9004 18.113 49.8364 17.917 49.7624 17.837C49.3562 17.3951 48.8242 17.0884 48.2382 16.9584C47.6522 16.8284 47.0404 16.8813 46.4854 17.11C45.5064 17.41 45.3314 17.732 45.2684 18.668C45.2172 19.1076 45.2783 19.5531 45.446 19.9626C45.6137 20.3722 45.8825 20.7326 46.2274 21.01C46.6914 21.4967 47.2829 21.8432 47.9344 22.01C49.199 22.3273 50.4049 22.8445 51.5064 23.542C51.7064 23.656 52.0354 23.912 52.0824 23.866C52.2824 23.675 52.5334 23.716 52.7394 23.626C53.3876 23.4213 53.953 23.0139 54.3523 22.4637C54.7516 21.9136 54.9637 21.2498 54.9574 20.57C54.9634 20.322 54.9384 20.07 54.9574 19.827C55.0278 19.2361 54.9047 18.6383 54.6065 18.1233C54.3082 17.6083 53.851 17.204 53.3034 16.971C52.4986 16.5312 51.6631 16.1502 50.8034 15.831C50.2774 15.657 49.6684 15.944 49.2034 15.477C49.1454 15.418 48.7504 15.694 48.5084 15.816C48.9734 16.245 49.6244 16.268 50.1564 16.64M6.0454 44.256C5.96929 44.238 5.89006 44.2376 5.81378 44.2549C5.73751 44.2723 5.66622 44.3068 5.60539 44.356C5.2114 44.7526 4.84645 45.177 4.51339 45.626C3.63639 47.037 3.11339 48.604 2.33539 50.053C2.03586 50.5558 1.86418 51.1244 1.83539 51.709C1.80888 51.8987 1.74823 52.082 1.65639 52.25C1.56739 52.459 1.55639 52.569 1.82039 52.699C2.36738 52.916 2.96133 52.9874 3.54415 52.906C4.12697 52.8247 4.67871 52.5935 5.1454 52.235C5.3334 52.075 5.47939 51.864 5.67539 51.716C6.00717 51.4811 6.26787 51.1594 6.42891 50.7862C6.58996 50.4129 6.64514 50.0025 6.5884 49.6C6.61875 48.3935 7.00338 47.2225 7.69439 46.233C7.95629 45.8218 8.24317 45.4271 8.55339 45.051C7.72239 44.784 6.8894 44.505 6.0474 44.251M16.2704 33.651C16.5214 32.374 16.9704 31.135 17.3324 29.88C17.3744 29.737 17.4204 29.597 17.4644 29.456C17.2724 29.422 16.9704 29.294 16.9044 29.369C16.5114 29.821 15.8844 29.428 15.4654 29.836C15.138 30.1697 14.736 30.4206 14.2924 30.568C13.7974 30.709 13.8524 31.197 13.5494 31.427C13.6864 32.349 12.8984 33.206 13.4684 34.209C13.7314 34.67 13.4814 35.367 13.7424 35.95C13.8726 36.4 13.964 36.8604 14.0154 37.326C14.2183 37.8959 14.5955 38.3875 15.0934 38.731C15.1898 38.8243 15.3043 38.8968 15.4299 38.9439C15.5555 38.991 15.6894 39.0118 15.8234 39.005C16.1824 38.905 15.9634 38.515 15.9864 38.254C16.0194 37.886 15.9954 37.511 15.9954 37.139L15.9364 37.133C15.986 35.967 16.0968 34.8044 16.2684 33.65M5.1434 39.033C6.0343 39.1145 6.91614 39.2755 7.77839 39.514C7.92539 39.567 8.1544 39.453 8.3244 39.373C8.75778 39.2262 9.13346 38.9458 9.39742 38.5721C9.66138 38.1983 9.80001 37.7505 9.79339 37.293C9.79339 37.086 10.2754 36.746 9.5754 36.787C8.85305 36.8081 8.13386 36.6836 7.46071 36.4207C6.78757 36.1578 6.17426 35.7621 5.6574 35.257C5.3674 35.003 5.14639 34.987 4.97439 35.296C4.53909 35.9664 4.23819 36.7149 4.0884 37.5C4.0784 38.554 4.36639 38.9 5.14839 39.031M36.3484 25.49C36.3541 25.3319 36.3248 25.1744 36.2626 25.029C36.2003 24.8835 36.1067 24.7535 35.9885 24.6484C35.8702 24.5433 35.7301 24.4657 35.5783 24.421C35.4265 24.3763 35.2668 24.3657 35.1104 24.39C35.0214 24.4 34.8754 24.51 34.8724 24.579C34.7821 25.0668 34.7882 25.5676 34.8904 26.053C35.1066 26.9132 35.1786 27.8033 35.1034 28.687C35.1364 29.18 35.0974 29.677 35.1114 30.173C35.1031 31.9732 34.6765 33.7469 33.8654 35.354C33.8174 35.459 33.6784 35.54 33.6654 35.641C33.6756 35.7813 33.7094 35.9189 33.7654 36.048C33.8754 36.014 34.0354 36.015 34.0874 35.941C34.4178 35.5106 34.709 35.0514 34.9574 34.569C35.3025 33.8034 35.5991 33.0169 35.8454 32.214C36.1869 31.2467 36.3594 30.2278 36.3554 29.202C36.3344 28.707 36.3554 28.211 36.3554 27.717C36.3554 26.974 36.3634 26.23 36.3554 25.487M27.7554 24.631C27.3422 24.3834 26.8508 24.3009 26.3794 24.4C26.3094 24.4 26.1614 24.693 26.1994 24.745C26.4934 25.165 26.8574 25.537 27.1364 25.965C27.8914 27.126 29.3854 26.713 30.1584 25.57C30.2924 25.37 30.4584 25.198 30.7214 24.883C29.6314 24.945 28.7284 24.467 27.7544 24.63M20.7854 28.783C20.8444 28.783 20.9254 28.773 20.9564 28.734C21.8438 27.6632 22.5222 26.4352 22.9564 25.114C23.0934 24.677 23.2794 24.254 23.3864 23.814C23.41 23.5903 23.3883 23.3641 23.3224 23.149C23.3094 23.082 23.1904 22.971 23.1584 22.982C22.8157 23.0995 22.4816 23.2405 22.1584 23.404C22.1013 23.4458 22.0545 23.5002 22.0217 23.563C21.989 23.6258 21.971 23.6952 21.9694 23.766C21.9573 24.8245 21.7487 25.8716 21.3544 26.854C21.2609 27.4634 21.0456 28.0477 20.7214 28.572C20.7014 28.596 20.7214 28.653 20.7214 28.693C20.7414 28.726 20.7634 28.786 20.7834 28.786M41.4454 15.479C41.168 15.1984 40.8489 14.9623 40.4994 14.779C40.4364 14.744 40.0924 14.992 40.0994 15.079C40.0973 15.635 40.0071 16.1872 39.8324 16.715C39.8104 16.833 39.8634 17.002 39.7994 17.07C39.5414 17.342 39.3934 17.67 39.7194 17.905C40.0034 18.11 40.3344 17.837 40.5894 17.67C41.1264 17.313 41.7084 16.961 41.6084 16.148C41.5584 15.918 41.5794 15.62 41.4414 15.472M18.5154 21.7C18.9784 22.143 19.5834 21.768 20.1384 22.1C20.5814 22.367 21.3124 22.154 21.9164 22.154C20.8424 21.305 19.6464 21.872 18.5164 21.698" fill="#1A1311"/>
<path fill-rule="evenodd" clip-rule="evenodd" d="M25.1552 41.5681C23.8682 41.4681 22.5682 41.4391 21.2962 41.2431C20.2768 41.0353 19.2705 40.7681 18.2822 40.4431C18.1752 40.4131 18.0882 40.3051 17.9822 40.2751C17.7583 40.1722 17.5121 40.1271 17.2662 40.1441C16.9462 40.2441 17.0662 40.6291 16.9662 40.8711C16.7682 41.6075 16.6882 42.3707 16.7292 43.1321C16.722 44.3222 17.1596 45.472 17.9562 46.3561C18.3907 46.9879 18.8993 47.5654 19.4712 48.0761C20.2782 48.9449 21.3459 49.5275 22.5132 49.7361C23.0562 49.7951 23.5812 50.1201 24.1672 50.2241C24.7532 50.3281 25.3502 50.3671 25.9242 50.4761C26.8243 50.6734 27.7095 50.9337 28.5732 51.2551C30.5962 51.9674 32.5464 52.8715 34.3972 53.9551C36.1216 54.877 37.7569 55.9566 39.2822 57.1801C39.8622 57.6801 40.4302 58.1861 41.0022 58.6931C41.248 58.8857 41.5051 59.0634 41.7722 59.2251C41.9652 59.3581 42.1982 59.6421 42.3402 59.6011C42.6622 59.5081 43.0892 59.3211 43.2012 59.0571C43.4487 58.6441 43.7549 58.2692 44.1102 57.9441C44.3792 57.6021 44.6202 57.2391 44.9042 56.9101C45.5372 56.1751 46.1932 55.4601 46.8262 54.7251C46.9472 54.5841 46.9732 54.3561 47.1022 54.2251C47.2582 54.0701 47.2392 54.0051 47.0932 53.8621C45.5232 52.3034 43.8319 50.8719 42.0352 49.5811C41.3842 49.1171 40.6022 48.8411 39.9172 48.4191C38.9242 47.8061 37.9632 47.1421 36.9902 46.4971C35.5362 45.5341 34.0902 44.5651 32.5652 43.7121C31.8262 43.2991 31.0822 42.8961 30.3372 42.4931C29.5485 42.067 28.6857 41.7955 27.7952 41.6931C26.9182 41.5976 26.0363 41.5542 25.1542 41.5631" fill="#1A1311"/>
<path fill-rule="evenodd" clip-rule="evenodd" d="M28.7927 23.4372C28.1667 23.2492 27.4687 23.3742 26.7927 23.1732C25.0217 22.6492 23.5017 22.2062 22.1987 20.5372C21.6237 19.8012 20.8747 19.1442 20.9607 18.0742C20.6157 17.8502 20.7757 17.4872 20.6997 17.1872C20.6086 16.8152 20.4587 16.4601 20.2557 16.1352C20.0047 15.7492 19.5707 16.0072 19.2217 15.9612C18.9377 15.9222 18.6167 16.0292 18.3597 15.9372C17.7317 15.7102 17.0597 15.6652 16.6977 14.8432C16.461 14.3337 16.4316 13.7522 16.6155 13.2214C16.7995 12.6906 17.1825 12.252 17.6837 11.9982C18.0878 11.8095 18.5462 11.7721 18.9756 11.8926C19.405 12.0132 19.7769 12.2838 20.0237 12.6552C20.1255 12.7806 20.2488 12.8869 20.3877 12.9692C20.4482 12.9965 20.5146 13.0082 20.5808 13.0034C20.647 12.9985 20.711 12.9773 20.767 12.9416C20.8229 12.9059 20.8691 12.8568 20.9013 12.7988C20.9336 12.7408 20.9509 12.6756 20.9517 12.6092C20.9201 12.4139 20.962 12.2139 21.0693 12.0476C21.1766 11.8814 21.3417 11.7609 21.5327 11.7092C21.9802 11.4575 22.395 11.1515 22.7677 10.7982C23.8844 10.0086 24.8589 9.03512 25.6497 7.91925C25.7279 7.82301 25.815 7.73429 25.9097 7.65425C26.1767 7.38625 26.2767 7.73225 26.3307 7.82825C26.4022 8.01276 26.4316 8.21092 26.4167 8.40825C26.4277 8.78025 26.2907 9.23325 26.4577 9.50225C26.6087 9.74625 26.4787 10.2512 27.0317 10.2632C27.2033 10.2889 27.3783 10.249 27.5219 10.1516C27.6655 10.0541 27.7672 9.90622 27.8067 9.73725C27.9652 9.38413 28.1668 9.05195 28.4067 8.74825C28.8307 8.17425 29.273 7.61425 29.7337 7.06825C29.7777 7.01625 30.0007 7.11325 30.1397 7.14225C29.9957 7.75325 30.5307 8.13625 30.6757 8.66325C30.792 9.16233 30.8646 9.67058 30.8927 10.1822C30.8845 10.2988 30.9028 10.4158 30.9465 10.5242C30.9901 10.6326 31.0579 10.7297 31.1446 10.808C31.2314 10.8864 31.3348 10.9439 31.4471 10.9764C31.5594 11.0088 31.6776 11.0153 31.7927 10.9952C32.3697 10.9882 32.0557 10.3832 32.3757 10.2302C32.3457 9.14925 33.1577 8.28025 33.1377 7.18825C33.1317 6.85925 33.5767 6.74025 33.9377 6.97225C34.4987 7.32925 35.0377 7.72525 35.5777 8.10825C35.6492 8.15102 35.7088 8.21123 35.7507 8.28325C36.1507 9.17125 36.9847 9.67325 37.5997 10.3692C38.3125 11.1541 38.7424 12.1549 38.8207 13.2122C38.8497 13.5792 38.7857 13.9522 39.1727 14.1872C39.4027 14.3272 39.1507 14.4202 39.1327 14.5372C38.8932 15.7871 38.5462 17.014 38.0957 18.2042C37.3785 20.1443 35.9755 21.7544 34.1517 22.7302C33.8737 22.8572 33.5867 22.9642 33.3057 23.0822C32.5613 23.4931 31.7182 23.6913 30.8687 23.6552C30.1692 23.6643 29.4712 23.5891 28.7897 23.4312M27.0097 19.3942C27.3917 20.1392 27.7667 20.8882 28.1557 21.6292C28.4267 22.1452 28.8387 22.3612 29.3047 22.0952C30.5228 21.5096 31.5431 20.5805 32.2397 19.4222C32.5397 18.8482 32.3607 18.5482 31.7267 18.4222C31.3487 18.3492 30.9767 18.2272 30.5957 18.1842C30.2307 18.1432 29.8527 18.2142 29.4887 18.1672C28.9487 18.0962 28.4157 17.9672 27.8807 17.8602C26.5457 17.9312 26.3957 18.1882 27.0097 19.3892M32.5567 13.6392C33.2727 13.0392 33.8117 13.1122 34.0827 13.9572C34.1727 14.2372 34.2147 14.5092 34.4617 14.6572C34.6106 14.7265 34.7801 14.7376 34.9367 14.6882C35.3597 14.5662 35.2967 14.1882 35.1297 13.5032C34.8747 12.4632 34.0007 12.3202 33.2497 12.0112C32.9454 11.9714 32.6373 12.0486 32.3877 12.2272C31.9087 12.5022 31.3997 12.7782 31.3737 13.4552C31.3607 13.7952 31.3977 14.0322 31.8807 14.0492C32.116 13.9292 32.3417 13.7911 32.5557 13.6362M27.6557 11.8362C27.0927 11.597 26.46 11.5798 25.8849 11.7881C25.3097 11.9965 24.8348 12.4149 24.5557 12.9592C24.4097 13.2592 24.5827 13.6422 24.9977 13.9002C25.2977 14.0862 25.4407 13.8242 25.5847 13.6552C25.7037 13.5142 25.7367 13.3002 25.8547 13.1552C26.3797 12.5152 26.8737 12.5612 27.4077 13.2782C27.4787 13.3732 27.5377 13.5022 27.6347 13.5462C27.8045 13.6355 27.9921 13.6857 28.1837 13.6932C28.5077 13.6862 28.3717 13.4072 28.3977 13.2312C28.4043 13.118 28.4043 13.0045 28.3977 12.8912C28.5437 12.3462 28.2047 12.0532 27.6567 11.8322M29.5237 16.4072C29.9147 15.9282 30.2367 16.2782 30.3527 16.5682C30.4617 16.8402 30.4977 17.0342 30.7937 16.8762C30.9269 16.8205 31.0344 16.7169 31.0949 16.5859C31.1555 16.4548 31.1647 16.3058 31.1207 16.1682C31.0069 15.9192 30.8337 15.702 30.6162 15.5357C30.3988 15.3693 30.1438 15.2589 29.8737 15.2142C29.4447 15.0912 29.0737 15.4372 28.7617 15.7212C28.7032 15.7976 28.6642 15.887 28.6482 15.9818C28.6322 16.0766 28.6396 16.1739 28.6697 16.2652C28.7237 16.3852 28.9867 16.4102 29.0777 16.4452C29.2927 16.4312 29.4727 16.4702 29.5237 16.4072ZM33.6227 9.60725C34.1434 9.73544 34.6805 9.78366 35.2157 9.75025C35.4247 9.71425 35.6547 9.71825 35.5857 9.43025C35.5475 9.20312 35.4432 8.99232 35.2857 8.82425C34.9367 8.52925 34.3997 8.97425 34.0337 8.56825C34.0097 8.54125 33.7987 8.66825 33.6847 8.74125C33.5507 8.82525 33.4277 8.92825 33.2497 9.06025C33.3565 9.25321 33.4804 9.43627 33.6197 9.60725" fill="white"/>
<path fill-rule="evenodd" clip-rule="evenodd" d="M24.5716 23.7344C24.2276 24.7564 23.9416 25.5494 23.6956 26.3544C23.3976 27.2332 22.9695 28.0624 22.4256 28.8144C21.7085 29.8807 20.8721 30.8617 19.9326 31.7384C19.5458 32.0809 19.1416 32.4033 18.7216 32.7044C18.6258 32.769 18.5162 32.8104 18.4016 32.8254C18.2016 32.8574 17.8846 32.7954 17.8266 32.8964C17.6448 33.1906 17.5323 33.5223 17.4976 33.8664C17.31 35.313 17.2195 36.7706 17.2266 38.2294C17.2065 38.4257 17.2638 38.6221 17.3863 38.7767C17.5088 38.9314 17.6869 39.0321 17.8826 39.0574C18.9713 39.2982 20.0409 39.6187 21.0826 40.0164C21.1626 40.0351 21.2453 40.0388 21.3266 40.0274C22.9408 40.1968 24.5626 40.2836 26.1856 40.2874C26.7833 40.2061 27.3918 40.2788 27.9536 40.4984C28.4416 40.7124 29.0586 40.3484 29.5926 40.7504C29.7766 40.8894 30.1576 40.7504 30.4436 40.7784C30.8526 40.8254 30.8366 40.6024 30.9136 40.2864C31.2018 39.3756 31.5619 38.4891 31.9906 37.6354C32.1906 37.1654 32.0436 36.7204 32.2566 36.2564C32.7476 35.1824 33.0436 34.0214 33.4336 32.9004C33.7 32.2482 33.8499 31.5544 33.8766 30.8504C33.8616 29.1954 33.8766 27.5424 33.8766 25.8884C33.8722 25.8058 33.8722 25.723 33.8766 25.6404C33.9078 25.4109 33.8825 25.1772 33.8029 24.9597C33.7232 24.7422 33.5917 24.5474 33.4196 24.3924C33.0066 24.6774 32.3616 24.5544 32.0946 25.0694C31.6209 25.722 31.0945 26.3348 30.5206 26.9014C29.7076 28.0014 28.5706 27.8854 27.4396 27.8644C27.3617 27.8652 27.286 27.8378 27.2266 27.7874C26.7086 27.2194 26.1596 26.6744 25.6966 26.0634C25.1745 25.3687 24.7952 24.5775 24.5806 23.7354" fill="white"/>
<path fill-rule="evenodd" clip-rule="evenodd" d="M27.4377 8.13564C28.0987 7.36664 28.8377 6.91464 28.9297 5.94264C28.9747 5.46064 29.8137 5.35764 30.2297 5.74264C30.6669 6.14048 30.9812 6.65503 31.1357 7.22564C31.1467 7.26364 31.1227 7.31564 31.1357 7.34764C31.3267 7.72364 31.5227 8.09664 31.7177 8.46964C31.8527 8.09564 32.0007 7.72564 32.1177 7.34564C32.3083 6.9979 32.3974 6.60356 32.3747 6.20764C32.2747 5.74664 32.7227 5.59964 32.9527 5.34064C33.0027 5.28464 33.2407 5.34564 33.3607 5.41064C33.8914 5.64032 34.3913 5.93563 34.8487 6.28964C35.5297 6.92764 36.5157 7.21564 36.9227 8.18964C37.1419 8.54188 37.4341 8.843 37.7797 9.07264C38.3439 9.50555 38.8157 10.0472 39.1671 10.6655C39.5186 11.2838 39.7425 11.9663 39.8257 12.6726C39.8437 12.7856 39.9937 12.8726 40.0827 12.9726C40.1597 12.9006 40.2827 12.8426 40.3057 12.7556C40.52 12.1788 40.6816 11.5837 40.7887 10.9776C40.8434 10.2355 40.849 9.49054 40.8057 8.74764C40.5305 7.67012 40.1213 6.63135 39.5877 5.65564C38.7258 4.35566 37.5416 3.30136 36.1507 2.59564C35.2278 2.12645 34.255 1.76282 33.2507 1.51164C31.7375 1.11011 30.1684 0.960775 28.6067 1.06964C27.9787 1.07864 27.3547 1.25664 26.7247 1.29664C26.0653 1.26157 25.4042 1.27427 24.7467 1.33464C24.0356 1.48587 23.3579 1.76507 22.7467 2.15864C21.863 2.63543 21.129 3.34824 20.6267 4.21764C20.3378 4.64653 20.0068 5.04551 19.6387 5.40864C19.0613 6.2521 18.7407 7.2448 18.7157 8.26664C18.6357 8.97764 18.9867 9.73364 18.4877 10.4066C18.4607 10.4436 18.6057 10.6916 18.7067 10.7226C18.9307 10.7926 19.2677 10.6946 19.4017 10.8226C20.1247 11.5276 20.7017 10.8996 21.2017 10.5766C21.8932 10.0887 22.538 9.53769 23.1277 8.93064C23.9947 8.10364 24.8277 7.23964 25.6767 6.39364C25.8767 6.19364 26.0387 5.98464 26.3897 6.00664C26.9117 6.03764 27.0977 6.17564 27.1707 6.69764C27.2307 7.11764 27.3267 7.53264 27.4417 8.13264" fill="#1A1311"/>
<path fill-rule="evenodd" clip-rule="evenodd" d="M21.0147 23.123C18.9147 23.302 16.9597 22.698 14.9617 22.902C14.4066 22.9067 13.8539 22.9758 13.3147 23.108C12.2202 23.4462 11.2035 23.9978 10.3233 24.731C9.44319 25.4643 8.717 26.3646 8.18669 27.38C7.45096 28.5953 6.87933 29.9027 6.48668 31.268C6.25881 31.9757 6.11056 32.7065 6.04468 33.447C6.03428 33.6289 6.07141 33.8104 6.15242 33.9737C6.23342 34.1369 6.35551 34.2763 6.50669 34.378C7.50471 35.2304 8.79729 35.6573 10.1067 35.567C10.4877 35.527 10.7277 35.401 10.7737 35.017C11.0912 33.4313 11.6896 31.9151 12.5407 30.54C12.866 30.0343 13.3103 29.6161 13.8347 29.322C15.1638 28.5036 16.7338 28.1668 18.2817 28.368C18.476 28.3712 18.6616 28.4493 18.7997 28.586C19.0807 28.976 19.3057 28.759 19.4147 28.514C19.8792 27.587 20.231 26.6077 20.4627 25.597C20.5517 25.105 20.7137 24.626 20.8267 24.137C20.8957 23.837 20.9347 23.537 21.0077 23.121" fill="white"/>
<path fill-rule="evenodd" clip-rule="evenodd" d="M18.145 54.1863C18.9608 54.1316 19.7564 53.9089 20.482 53.5323C21.563 52.9513 22.644 52.3693 23.72 51.7763C23.799 51.7313 23.834 51.6053 23.89 51.5193C23.818 51.4933 23.746 51.4663 23.673 51.4433C22.7786 51.2262 21.8986 50.9536 21.038 50.6273C19.1497 49.7467 17.5672 48.3226 16.493 46.5373C16.411 46.4083 16.359 46.2573 16.267 46.1373C16.2439 46.0918 16.2095 46.053 16.1671 46.0245C16.1248 45.996 16.0759 45.9788 16.025 45.9745C15.9741 45.9702 15.923 45.9789 15.8765 45.9999C15.8299 46.0208 15.7895 46.0533 15.759 46.0943C15.4283 46.4063 15.0375 46.6476 14.6104 46.8035C14.1833 46.9594 13.729 47.0267 13.275 47.0013C12.5318 46.9623 11.8151 46.7122 11.209 46.2803C10.9605 46.093 10.7003 45.9216 10.43 45.7673C10.2238 45.6861 9.99521 45.6818 9.78608 45.7553C9.57694 45.8287 9.40122 45.975 9.29104 46.1673C9.01648 46.4537 8.77404 46.7692 8.56804 47.1083C8.27041 47.8554 8.01829 48.6198 7.81304 49.3973C7.73806 49.8217 7.81544 50.259 8.03153 50.6319C8.24762 51.0048 8.58852 51.2893 8.99404 51.4353C10.278 51.9273 11.54 52.5033 12.847 52.8953C14.0954 53.4262 15.4141 53.7735 16.762 53.9263C17.129 54.2763 17.59 54.1523 18.146 54.1883" fill="#1A1311"/>
<path fill-rule="evenodd" clip-rule="evenodd" d="M43.8862 32.5721C44.4658 32.6239 45.0493 32.5349 45.5871 32.3127C46.1249 32.0906 46.6011 31.7418 46.9752 31.2961C47.8522 30.3358 48.615 29.277 49.2482 28.1411C49.9182 27.1491 50.5082 26.1051 51.1612 25.1011C51.3692 24.7811 51.1612 24.6121 50.9742 24.5091C50.1773 24.0562 49.338 23.6824 48.4682 23.3931C48.2958 23.3115 48.1168 23.2446 47.9332 23.1931C47.6183 23.1157 47.2903 23.1082 46.9722 23.1711C46.7722 23.2381 46.6622 23.5711 46.5292 23.7931C46.1598 24.6617 45.6151 25.4447 44.9292 26.0931C44.6988 26.3324 44.4225 26.5227 44.1168 26.6526C43.8111 26.7825 43.4824 26.8493 43.1502 26.8491C41.9151 26.7311 40.7029 26.4381 39.5502 25.9791C39.1712 25.8011 38.7632 25.6861 38.3722 25.5361C38.0582 25.4161 37.7492 25.2821 37.4382 25.1541C37.3446 25.3305 37.3073 25.5314 37.3313 25.7296C37.3552 25.9279 37.4393 26.114 37.5722 26.2631C37.6722 26.3781 37.6042 26.6631 37.5852 26.8631C37.6524 28.0409 37.6085 29.2225 37.4542 30.3921C37.4102 30.5511 37.8212 30.9431 38.0942 31.0621C38.7942 31.3621 39.5522 31.5281 40.2452 31.8391C40.9382 32.1501 41.7222 32.2251 42.4332 32.5391C42.911 32.6342 43.4018 32.6444 43.8832 32.5691" fill="white"/>
<path fill-rule="evenodd" clip-rule="evenodd" d="M51.3842 54.4199C50.9711 54.4393 50.5572 54.437 50.1442 54.4129C49.5194 54.3736 48.896 54.5097 48.3443 54.8059C47.7927 55.102 47.3348 55.5464 47.0222 56.0889C46.3476 57.1139 45.6032 58.0912 44.7942 59.0139C44.5346 59.3099 44.2983 59.6255 44.0872 59.9579C43.7212 60.4579 43.7002 60.4919 44.1172 60.8129C44.6912 61.2874 45.3955 61.5768 46.1372 61.6429C46.8297 61.667 47.5195 61.5461 48.1624 61.2877C48.8053 61.0294 49.387 60.6394 49.8702 60.1429C50.1062 59.9429 50.3982 59.8059 50.6392 59.6099C51.8416 58.7711 52.8221 57.6527 53.4962 56.3509C53.7251 55.9939 53.9171 55.6146 54.0692 55.2189C54.1092 55.0399 54.3312 54.8899 54.1182 54.7079C53.9826 54.5693 53.8084 54.4749 53.6182 54.4369C52.8752 54.4069 52.1302 54.4239 51.3852 54.4239" fill="white"/>
<path fill-rule="evenodd" clip-rule="evenodd" d="M48.5154 15.816C48.9804 16.245 49.6314 16.268 50.1634 16.64C50.4122 16.7813 50.6189 16.9863 50.7623 17.2339C50.9057 17.4815 50.9806 17.7629 50.9794 18.049C51.1151 18.8193 51.0226 19.6126 50.7134 20.331C51.3944 20.29 51.4274 19.662 51.6894 19.301C51.8304 19.107 51.8324 18.888 52.1524 18.92C52.2947 18.9175 52.4326 18.9694 52.5379 19.0651C52.6433 19.1608 52.7082 19.2931 52.7194 19.435C52.7245 19.6715 52.6945 19.9074 52.6304 20.135C52.6084 20.244 52.4924 20.341 52.4924 20.445C52.5078 20.5988 52.5414 20.7501 52.5924 20.896C52.7344 20.847 52.9204 20.839 53.0064 20.742C53.1769 20.5307 53.3259 20.3029 53.4514 20.062C53.5264 19.931 53.5324 19.721 53.6374 19.653C53.8262 19.5195 54.0502 19.4447 54.2814 19.438C54.5814 19.455 54.4624 19.749 54.4644 19.928C54.4541 20.5258 54.2071 21.0952 53.7776 21.5112C53.3482 21.9272 52.7712 22.1558 52.1734 22.147C52.0186 22.1446 51.8678 22.0974 51.7394 22.011C51.5745 21.8479 51.4252 21.6698 51.2934 21.479C51.1274 21.759 50.8544 21.631 50.6224 21.653C50.4831 21.6868 50.3372 21.6811 50.201 21.6366C50.0649 21.5921 49.9438 21.5105 49.8514 21.401C49.7172 21.2603 49.5336 21.1771 49.3394 21.169C48.6484 21.15 48.4234 20.754 48.2314 20.144C48.1004 19.729 48.0794 19.217 47.6394 18.894C47.3924 18.712 47.4474 18.403 47.6684 18.146C47.9144 17.862 48.0764 17.935 48.3734 18.127C48.7206 18.2983 49.0996 18.3953 49.4864 18.412C49.6034 18.428 49.7804 18.285 49.8644 18.169C49.9074 18.109 49.8434 17.913 49.7694 17.833C49.3632 17.3911 48.8312 17.0844 48.2451 16.9544C47.6591 16.8244 47.0473 16.8773 46.4924 17.106C45.5134 17.406 45.3384 17.728 45.2754 18.664C45.2242 19.1035 45.2853 19.5487 45.4531 19.9581C45.6208 20.3676 45.8896 20.7277 46.2344 21.005C46.6981 21.4921 47.2897 21.8386 47.9414 22.005C49.2058 22.3228 50.4116 22.8399 51.5134 23.537C51.7134 23.651 52.0424 23.907 52.0894 23.862C52.2894 23.671 52.5404 23.712 52.7464 23.622C53.3945 23.4172 53.9598 23.0097 54.359 22.4596C54.7583 21.9095 54.9705 21.2457 54.9644 20.566C54.9704 20.318 54.9454 20.066 54.9644 19.823C55.0346 19.2321 54.9114 18.6344 54.6132 18.1194C54.315 17.6045 53.8579 17.2001 53.3104 16.967C52.5057 16.5271 51.6701 16.1461 50.8104 15.827C50.2844 15.653 49.6754 15.94 49.2104 15.473C49.1524 15.414 48.7574 15.69 48.5154 15.812" fill="white"/>
<path fill-rule="evenodd" clip-rule="evenodd" d="M8.55243 45.052C7.72143 44.784 6.88843 44.506 6.04643 44.252C5.97032 44.234 5.8911 44.2337 5.81484 44.251C5.73858 44.2684 5.6673 44.3029 5.60643 44.352C5.2123 44.7485 4.84735 45.1729 4.51443 45.622C3.63743 47.033 3.11443 48.6 2.33743 50.048C2.03806 50.5509 1.86639 51.1195 1.83743 51.704C1.81116 51.8937 1.7505 52.0771 1.65843 52.245C1.56943 52.454 1.55843 52.563 1.82243 52.693C2.36933 52.9102 2.96324 52.9817 3.54606 52.9005C4.12888 52.8193 4.68066 52.5883 5.14743 52.23C5.33543 52.07 5.48143 51.858 5.67843 51.711C6.00868 51.4753 6.26783 51.1533 6.4276 50.7804C6.58737 50.4074 6.64162 49.9977 6.58443 49.596C6.61484 48.3895 6.99947 47.2186 7.69043 46.229C7.95248 45.8182 8.23935 45.4238 8.54943 45.048" fill="white"/>
<path fill-rule="evenodd" clip-rule="evenodd" d="M15.9375 37.1319C15.9868 35.9659 16.0976 34.8033 16.2695 33.6489C16.5205 32.3719 16.9695 31.1329 17.3315 29.8779C17.3725 29.7349 17.4195 29.5949 17.4635 29.4539C17.2715 29.4199 16.9695 29.2919 16.9035 29.3669C16.5105 29.8189 15.8835 29.4269 15.4645 29.8339C15.137 30.1675 14.735 30.4184 14.2915 30.5659C13.7965 30.7069 13.8515 31.1949 13.5485 31.4249C13.6855 32.3469 12.8975 33.2039 13.4675 34.2069C13.7305 34.6689 13.4805 35.3649 13.7415 35.9479C13.8721 36.3979 13.9638 36.8583 14.0155 37.3239C14.2186 37.8937 14.5957 38.3852 15.0935 38.7289C15.19 38.822 15.3046 38.8944 15.4301 38.9415C15.5557 38.9886 15.6895 39.0095 15.8235 39.0029C16.1825 38.9029 15.9635 38.5129 15.9865 38.2519C16.0195 37.8839 15.9955 37.5089 15.9955 37.1369L15.9365 37.1309" fill="#1A1311"/>
<path fill-rule="evenodd" clip-rule="evenodd" d="M4.08228 37.5031C4.07228 38.5571 4.36029 38.9031 5.14329 39.0341C6.03426 39.1152 6.91614 39.2762 7.77828 39.5151C7.92528 39.5681 8.15429 39.4541 8.32429 39.3741C8.75767 39.2274 9.13335 38.9469 9.39731 38.5732C9.66127 38.1995 9.7999 37.7516 9.79328 37.2941C9.79328 37.0871 10.2763 36.7471 9.57529 36.7881C8.85298 36.809 8.13386 36.6842 7.46075 36.4214C6.78765 36.1585 6.17432 35.7629 5.65729 35.2581C5.36729 35.0041 5.14628 34.9881 4.97428 35.2971C4.53691 35.9676 4.23328 36.7169 4.08228 37.5031Z" fill="white"/>
<path fill-rule="evenodd" clip-rule="evenodd" d="M36.348 27.7216C36.348 26.9786 36.356 26.2346 36.348 25.4916C36.3537 25.3335 36.3244 25.176 36.2621 25.0306C36.1999 24.8851 36.1063 24.7551 35.988 24.65C35.8697 24.5449 35.7297 24.4673 35.5779 24.4226C35.4261 24.3779 35.2663 24.3673 35.11 24.3916C35.021 24.4016 34.875 24.5116 34.872 24.5806C34.7815 25.0684 34.7876 25.5692 34.89 26.0546C35.106 26.9148 35.1779 27.8049 35.103 28.6886C35.135 29.1816 35.097 29.6796 35.111 30.1746C35.1042 31.9759 34.6787 33.751 33.868 35.3596C33.82 35.4646 33.681 35.5456 33.668 35.6466C33.6784 35.7869 33.7122 35.9245 33.768 36.0536C33.879 36.0196 34.038 36.0206 34.09 35.9466C34.4205 35.5163 34.7117 35.0571 34.96 34.5746C35.3046 33.8088 35.6012 33.0223 35.848 32.2196C36.1893 31.2522 36.3618 30.2334 36.358 29.2076C36.337 28.7136 36.358 28.2166 36.358 27.7226" fill="#1A1311"/>
<path fill-rule="evenodd" clip-rule="evenodd" d="M30.7127 24.8883C29.6227 24.9503 28.7197 24.4723 27.7457 24.6353C27.3326 24.3875 26.8411 24.305 26.3697 24.4043C26.2997 24.4043 26.1517 24.6973 26.1897 24.7493C26.4837 25.1693 26.8477 25.5413 27.1267 25.9693C27.8817 27.1303 29.3757 26.7173 30.1487 25.5743C30.2827 25.3743 30.4487 25.2023 30.7127 24.8873" fill="white"/>
<path fill-rule="evenodd" clip-rule="evenodd" d="M20.7101 28.696C20.7311 28.729 20.7531 28.789 20.7721 28.789C20.8311 28.789 20.9131 28.78 20.9441 28.74C21.8314 27.6695 22.5099 26.4419 22.9441 25.121C23.0811 24.683 23.2671 24.26 23.3741 23.821C23.398 23.5973 23.3762 23.3711 23.3101 23.156C23.2971 23.089 23.1781 22.978 23.1461 22.989C22.8035 23.1066 22.4694 23.2476 22.1461 23.411C22.0888 23.453 22.042 23.5075 22.0092 23.5705C21.9764 23.6334 21.9586 23.7031 21.9571 23.774C21.945 24.8326 21.7365 25.8797 21.3421 26.862C21.2487 27.4716 21.033 28.0559 20.7081 28.58C20.6881 28.605 20.7081 28.661 20.7081 28.701" fill="#1A1311"/>
<path fill-rule="evenodd" clip-rule="evenodd" d="M41.5997 16.1596C41.5497 15.9296 41.5717 15.6326 41.4337 15.4846C41.1562 15.2041 40.8371 14.968 40.4877 14.7846C40.4247 14.7496 40.0797 14.9976 40.0877 15.0846C40.086 15.6406 39.9958 16.1929 39.8207 16.7206C39.7987 16.8386 39.8517 17.0076 39.7877 17.0746C39.5297 17.3466 39.3877 17.6746 39.7087 17.9096C39.9927 18.1156 40.3237 17.8426 40.5787 17.6746C41.1157 17.3176 41.6977 16.9656 41.5977 16.1526" fill="white"/>
<path fill-rule="evenodd" clip-rule="evenodd" d="M21.9156 22.1542C20.8416 21.3062 19.6456 21.8722 18.5156 21.6982C18.9786 22.1412 19.5836 21.7662 20.1386 22.0982C20.5816 22.3652 21.3126 22.1522 21.9166 22.1522" fill="#1A1311"/>
<path fill-rule="evenodd" clip-rule="evenodd" d="M29.4903 18.1731C29.8543 18.2201 30.2323 18.1491 30.5973 18.1901C30.9623 18.2311 31.3493 18.3551 31.7273 18.4281C32.3613 18.5501 32.5413 18.8501 32.2403 19.4281C31.5436 20.5863 30.5234 21.5155 29.3053 22.1011C28.8393 22.3671 28.4273 22.1511 28.1563 21.6351C27.7663 20.8931 27.3913 20.1451 27.0103 19.4001C26.3963 18.2001 26.5473 17.9411 27.8823 17.8711C28.4173 17.9771 28.9503 18.1081 29.4903 18.1781M29.5643 19.1931C29.0747 19.1572 28.5834 19.1525 28.0933 19.1791C28.4053 19.6301 28.6543 19.9881 28.8983 20.3471C29.1573 20.7291 29.3733 20.7831 29.6813 20.5011C30.0123 20.2011 30.3193 19.8691 30.6443 19.5441C30.2958 19.3943 29.9342 19.2768 29.5643 19.1931Z" fill="#1A1311"/>
<path fill-rule="evenodd" clip-rule="evenodd" d="M31.885 14.0599C32.1203 13.9398 32.346 13.8018 32.56 13.6469C33.276 13.0469 33.815 13.1199 34.087 13.9649C34.176 14.2459 34.218 14.5169 34.465 14.6649C34.614 14.734 34.7833 14.745 34.94 14.6959C35.363 14.5739 35.301 14.1959 35.133 13.5099C34.878 12.4699 34.004 12.3269 33.253 12.0179C32.9487 11.9784 32.6407 12.0556 32.391 12.2339C31.912 12.5089 31.403 12.7849 31.377 13.4629C31.364 13.8029 31.401 14.0389 31.884 14.0559" fill="#1A1311"/>
<path fill-rule="evenodd" clip-rule="evenodd" d="M28.4038 12.9039C28.5498 12.3589 28.2118 12.0659 27.6628 11.8449C27.0998 11.6058 26.4672 11.5888 25.8921 11.7971C25.317 12.0054 24.8421 12.4237 24.5628 12.9679C24.4168 13.2679 24.5898 13.6509 25.0048 13.9089C25.3048 14.0949 25.4478 13.8329 25.5918 13.6639C25.7108 13.5229 25.7438 13.3089 25.8618 13.1639C26.3878 12.5239 26.8808 12.5699 27.4148 13.2869C27.4858 13.3819 27.5458 13.5099 27.6418 13.5549C27.8116 13.6441 27.9991 13.6943 28.1908 13.7019C28.5148 13.6949 28.3788 13.4159 28.4048 13.2399C28.4116 13.1266 28.4116 13.0131 28.4048 12.8999" fill="#1A1311"/>
<path fill-rule="evenodd" clip-rule="evenodd" d="M29.083 16.4594C29.298 16.4454 29.476 16.4844 29.528 16.4214C29.919 15.9424 30.241 16.2924 30.357 16.5824C30.466 16.8544 30.502 17.0494 30.798 16.8904C30.9311 16.8349 31.0386 16.7314 31.0991 16.6005C31.1597 16.4696 31.1689 16.3207 31.125 16.1834C31.0114 15.9343 30.8384 15.7169 30.6211 15.5504C30.4039 15.3839 30.149 15.2733 29.879 15.2284C29.45 15.1064 29.079 15.4514 28.767 15.7364C28.7083 15.8124 28.6692 15.9016 28.653 15.9963C28.6368 16.0909 28.644 16.1881 28.674 16.2794C28.729 16.3994 28.991 16.4244 29.083 16.4604" fill="#1A1311"/>
<path fill-rule="evenodd" clip-rule="evenodd" d="M33.2588 9.07383C33.3655 9.26691 33.4893 9.44998 33.6288 9.62083C34.1495 9.74908 34.6866 9.7973 35.2218 9.76383C35.4308 9.72783 35.6608 9.73183 35.5928 9.44383C35.5545 9.21676 35.4501 9.006 35.2928 8.83783C34.9438 8.54283 34.4068 8.98783 34.0408 8.58183C34.0168 8.55483 33.8058 8.68183 33.6928 8.75483C33.5588 8.83883 33.4368 8.94183 33.2588 9.07383Z" fill="#1A1311"/>
<path fill-rule="evenodd" clip-rule="evenodd" d="M30.6447 19.5415C30.2962 19.3917 29.9347 19.2742 29.5648 19.1905C29.0752 19.155 28.5839 19.1506 28.0938 19.1775C28.4058 19.6275 28.6547 19.9855 28.8997 20.3455C29.1587 20.7275 29.3748 20.7815 29.6828 20.4995C30.0138 20.1995 30.3208 19.8675 30.6458 19.5425" fill="white"/>
</g>
</g>
<defs>
<clipPath id="clip0_345_2">
<rect width="56" height="63" fill="white"/>
</clipPath>
</defs>
</svg>
