<svg id="グループ_61223" data-name="グループ 61223" xmlns="http://www.w3.org/2000/svg" xmlns:xlink="http://www.w3.org/1999/xlink" width="86.417" height="83.629" viewBox="0 0 86.417 83.629">
  <defs>
    <clipPath id="clip-path">
      <rect id="長方形_24634" data-name="長方形 24634" width="86.417" height="83.629" fill="none"/>
    </clipPath>
  </defs>
  <g id="グループ_61222" data-name="グループ 61222" clip-path="url(#clip-path)">
    <path id="パス_152257" data-name="パス 152257" d="M45.239.306c-.017-.295.14-.336.349-.291a1.71,1.71,0,0,1,.761.251A14.379,14.379,0,0,1,47.571,1.6a3.754,3.754,0,0,1,.885,1.18c.212.742.911.382,1.266.724.041.04.109.049.16.078a14.975,14.975,0,0,1,3.44,2.469,3.806,3.806,0,0,0,.344.342,9.643,9.643,0,0,1,2.383,3.575,6.713,6.713,0,0,1,.441,1.657,8.41,8.41,0,0,1,.016.967,1.748,1.748,0,0,0,.145.915c.114.189-.117.568-.145.866a6.6,6.6,0,0,1-.7,2.72.47.47,0,0,0,.1.666,1.375,1.375,0,0,1,.4,1.193,4.408,4.408,0,0,0,0,.679,2.608,2.608,0,0,1-.567,1.907,3.521,3.521,0,0,1-2.082,1.393c-.333.076-.785.069-.979.419a14.926,14.926,0,0,1-1.216,2.021c-.02.025.094.22.174.244A.742.742,0,0,0,52,25.564a8.682,8.682,0,0,1,1.224-.316,16.476,16.476,0,0,0,2.255-.17c.468-.112.953-.183,1.421-.332.544-.173,1.094-.329,1.645-.479.873-.236,1.76-.426,2.621-.7,1.112-.353,2.2-.775,3.3-1.155.511-.175,1.033-.315,1.549-.477a7.85,7.85,0,0,1,2.4-.775A14.534,14.534,0,0,1,70.3,20.32c.915-.421,1.521-1.349,2.582-1.5.1-.014.218-.148.276-.255.926-1.718,2.612-2.125,4.312-2.425.593-.1,1.173-.077,1.618-.572a1.432,1.432,0,0,1,.481-.23c.707-.324,1.411-.653,2.121-.969a4.825,4.825,0,0,1,2.588-.778c.237-.23.435-.194.726-.023.21.124.553-.018.782.215.124.127.317.206.4.351a1.812,1.812,0,0,1-.2,2.076,11.552,11.552,0,0,1-2.642,2.278c-.26.142-.3.378-.187.727,1.071,3.215.874,2.628.9,4.092A5.057,5.057,0,0,1,83.3,26.1,3.462,3.462,0,0,1,82,27.4a5.725,5.725,0,0,1-3.183.759,6.9,6.9,0,0,1-1.67-.428,6.6,6.6,0,0,1-.874-.462c-.093-.046-.28-.073-.319-.025-.266.334-.7.373-1.013.612a18.024,18.024,0,0,1-3.023,1.6c-.568.286-1.236.431-1.834.718s-1.242.433-1.858.664a10,10,0,0,1-2.081.582,3.192,3.192,0,0,0-1.067.246,7.051,7.051,0,0,1-1.127.326,9.865,9.865,0,0,0-2.108.778c-.265.168-.663.11-.965.239a11.363,11.363,0,0,1-2.2.532c-1.013.209-2.019.478-3.043.654a7.106,7.106,0,0,0-1.328.286,13.367,13.367,0,0,1-1.849.456A1.616,1.616,0,0,0,51.084,36a10.677,10.677,0,0,0-.591,1.694c-.428,1.722-1.1,3.367-1.568,5.077-.214.778-.563,1.521-.757,2.3-.3,1.228-.769,2.4-1.16,3.594-.306.938-.907,1.741-1.147,2.7a16.533,16.533,0,0,1,2.614,1.421c.022.015.068-.009.095,0a48.4,48.4,0,0,1,4.748,2.578c.7.426,1.4.858,2.082,1.306A19.022,19.022,0,0,1,57.424,58.1a32.962,32.962,0,0,1,2.739,2.313c.624.663,1.164,1.383,1.725,2.1A39.329,39.329,0,0,1,64.4,66.427c.55.9,1.091,1.818,1.554,2.753.941,1.9,2.1,3.728,2.391,5.9.011.082.128.177.218.216a2.287,2.287,0,0,0,.6.195,6.609,6.609,0,0,1,2.246.668,20.094,20.094,0,0,1,2.246,1.4A3.249,3.249,0,0,1,75.046,79.4a1.6,1.6,0,0,1,0,.9,1.564,1.564,0,0,1-.717.956,11.268,11.268,0,0,1-2.69.985,16.717,16.717,0,0,1-4.23.813c-.394.272-.911.049-1.261.227-.48.243-.935.079-1.391.165-.115.021-.22.113-.334.124a5.049,5.049,0,0,1-1.764-.055,6.065,6.065,0,0,1-3.037-2.39,5.654,5.654,0,0,1-.968-1.629,21.481,21.481,0,0,0-1.983-3.738c-.359-.568-.757-1.111-1.139-1.664A28.562,28.562,0,0,0,52,69.551c-.313-.3-.708-.521-1.006-.834a12.466,12.466,0,0,0-2.181-1.773,17.232,17.232,0,0,0-3.8-2.058,8.285,8.285,0,0,0-1.382-.4c-.782-.126-1.48-.5-2.255-.67a7,7,0,0,1-2.3-.531.444.444,0,0,0-.57.228,12.449,12.449,0,0,0-.632,1.1,17.238,17.238,0,0,1-1.286,2.184c-.556.819-1.24,1.553-1.757,2.382A6.343,6.343,0,0,1,32.858,71a4.789,4.789,0,0,1-2.146.9,12.241,12.241,0,0,1-1.618.282,20.533,20.533,0,0,1-3.9-.144c-1.186-.26-2.381-.428-3.564-.765a28.552,28.552,0,0,1-3.974-1.424c-.766-.346-1.565-.6-2.337-.918a11.2,11.2,0,0,0-1.775-.651,6.32,6.32,0,0,1-1.305-.344c-.432-.2-.865-.412-1.312-.579a5.376,5.376,0,0,0-1.294-.376c-.43-.044-.771-.045-.939-.555-.1-.308-.269-.28-.59-.064a3.2,3.2,0,0,1-.706.4,6.254,6.254,0,0,1-2.587.783c-.336.322-.806.25-1.205.36a5.621,5.621,0,0,1-1.447.029.449.449,0,0,0-.1,0,2.027,2.027,0,0,1-1.684-.6c-.23-.165-.512-.546-.3-.87.278-.417-.015-.947.344-1.316a6.194,6.194,0,0,1,.972-2.992c.141-.266.318-.514.448-.785a11.94,11.94,0,0,1,2.74-3.719,2.863,2.863,0,0,1,1.914-.77,5.1,5.1,0,0,1,1.382.159,11.88,11.88,0,0,0,2.241.214c.332.016.66.348,1.012.02.048-.045.225.044.341.078a20.2,20.2,0,0,0,2.3.774A24.818,24.818,0,0,1,16.2,58.8c.292.083.592.136.889.2.328.068.66.12.986.2s.639.171.954.273a18.765,18.765,0,0,0,2.142.672,5.215,5.215,0,0,0,1.835,0,7.989,7.989,0,0,0,1.523-.758.343.343,0,0,0,.142-.2c.214-.622.41-1.253.631-1.873.231-.647.5-1.283.722-1.931A2.268,2.268,0,0,0,26,54.744a4.614,4.614,0,0,1-1.807,2.167,1.622,1.622,0,0,1-1.03.345c-.452-.012-.9,0-1.358,0a3.062,3.062,0,0,1-.757-.048c-.548-.153-1.072-.4-1.624-.519a15.908,15.908,0,0,1-1.655-.467c-1.251-.419-2.51-.809-3.769-1.2a3.97,3.97,0,0,0-1.045-.271,8.373,8.373,0,0,1-1.441-.29,7.244,7.244,0,0,1-1.381-.409c-.8-.33-1.588-.7-2.368-1.073a1.187,1.187,0,0,1-.355-.393A2.287,2.287,0,0,1,7.02,50.9a.8.8,0,0,0-.307-.844.69.69,0,0,1-.287-.661,3.6,3.6,0,0,1,.2-1.183,21.315,21.315,0,0,1,1.008-2.879c.654-1.216,1.174-2.5,1.86-3.7a4.122,4.122,0,0,1,1.145-1.443c.446-.306.9-.9,1.615-.415.209.143.359-.026.4-.318a3.983,3.983,0,0,1,.253-1.346c.441-.793.672-1.665,1.069-2.472a33.511,33.511,0,0,1,2.55-4.765,4.756,4.756,0,0,1,2.121-1.753c.529-.209,1.074-.379,1.621-.535.58-.166,1.171-.3,1.758-.44a8.382,8.382,0,0,0,1.682-.388c.892.138,1.673-.456,2.556-.388a30.086,30.086,0,0,1,3.079-.762,4.412,4.412,0,0,1,1.369-.2c.5-.013,1.006-.187,1.47-.17,1.313.048,2.591-.315,3.9-.233a5.879,5.879,0,0,0,.66-.036c-.178-.265-.32-.464-.449-.671-.415-.668-.836-1.333-1.231-2.013a5.158,5.158,0,0,1-.494-1.348c-.136-.534-.228-.618-.743-.575a1.906,1.906,0,0,1-1.575-.671,5.075,5.075,0,0,1-.892-1.283,3.73,3.73,0,0,1-.062-2.809c.069-.276.437-.477.506-.753s-.136-.58-.128-.87a15.914,15.914,0,0,1,.154-2.934,9.87,9.87,0,0,1,1.186-3.2c.426-.611.877-1.2,1.341-1.781a8.792,8.792,0,0,1,1.441-1.441c.605-.478,1.262-.859,1.9-1.284A16.838,16.838,0,0,1,40.3,3.131a1.636,1.636,0,0,1,.884-.226c.189.022.394-.126.6-.175.225-.054.1-.114.043-.232A5.316,5.316,0,0,0,40.8,1.076.5.5,0,0,1,40.68.627c.107-.175.433-.43.474-.4.359.276.789.113,1.168.244a17.178,17.178,0,0,1,2.924,1.3c0-.561.019-1.015-.007-1.466M29.1,71.028a6.026,6.026,0,0,0,4.229-1.744c.758-.761,1.334-1.654,2.007-2.476A30.974,30.974,0,0,0,37.62,63a1.311,1.311,0,0,1,1.068-.7c.639-.084,1.215.268,1.843.237.334.361.893-.058,1.213.35.817-.021,1.486.493,2.267.621a6.531,6.531,0,0,1,1.381.407,21.236,21.236,0,0,1,4.494,2.51,35.117,35.117,0,0,1,4.2,3.871,10.478,10.478,0,0,1,1.171,1.546q1.356,2,2.675,4.032a9.753,9.753,0,0,1,1.3,2.374,1.079,1.079,0,0,0,.509.531c.112.06.332-.095.506-.136a23,23,0,0,0,4.094-1.59q1.1-.5,2.218-.969c.247-.1.691-.121.731-.265a2.19,2.19,0,0,0-.034-1.094A19.282,19.282,0,0,0,65.6,70.753c-.821-1.575-1.725-3.108-2.626-4.641-.522-.887-1.041-1.774-1.631-2.616a12.005,12.005,0,0,0-1.763-2.273,32.067,32.067,0,0,0-5.637-4.174c-.561-.307-1.036-.766-1.582-1.105a18.782,18.782,0,0,0-1.664-.9c-1.673-.82-3.223-1.866-4.916-2.648a.661.661,0,0,1-.22-.168c-.219-.259-.426-.241-.739-.11-.66.277-1.363.454-2.035.707-.458.173-.941.232-1.4.363a15.846,15.846,0,0,1-3.415.184,7.294,7.294,0,0,1-1.9-.32c-.687-.136-1.364-.3-2.046-.456-.95-.21-1.913-.368-2.86-.595-.581-.139-1.137-.375-1.712-.544a2.176,2.176,0,0,0-.852-.15c-.387.051-.219.479-.325.722-.288.655-.45,1.364-.713,2.032a9.885,9.885,0,0,0-.637,2.054c-.151.972-.654,1.83-.731,2.822A1.792,1.792,0,0,1,25.5,59.99a4.921,4.921,0,0,1-3.011,1.145c-1.779.045-1.451-.047-4.135-.791-.29-.355-.814-.021-1.105-.374a5.8,5.8,0,0,1-1.872-.4c-.726-.2-1.462-.365-2.188-.569-.578-.162-1.162-.313-1.726-.516-.237-.084-.26-.055-.388.165-.4.683-.869,1.325-1.321,1.977-.21.3-.1.734-.409,1a18.225,18.225,0,0,0-.184,2.924,2.68,2.68,0,0,0,.4,1.087,1.385,1.385,0,0,0,.816.492c.9.157,1.671.658,2.558.872a12.6,12.6,0,0,1,2.218.722,9.5,9.5,0,0,0,2.192.8c.081.014.142.12.223.16a23.026,23.026,0,0,0,3.845,1.48,14.223,14.223,0,0,0,2.027.526c.654.086,1.32.249,1.98.331a17.554,17.554,0,0,0,2.131.019c.517,0,1.035.018,1.551,0m12.43-18.847a13.743,13.743,0,0,0,3.208-1.143.617.617,0,0,0,.3-.345,8.347,8.347,0,0,1,.777-1.718A26.935,26.935,0,0,0,47.2,44.89c.217-.869.569-1.7.838-2.56.189-.6.345-1.217.507-1.827.155-.581.461-1.1.6-1.7a21.043,21.043,0,0,1,.767-2.4,8.014,8.014,0,0,1,.679-1.462,2.674,2.674,0,0,1,1.721-.976c.609-.176,1.228-.315,1.843-.47a7.193,7.193,0,0,1,1.23-.3,9.407,9.407,0,0,0,1.712-.334,4.748,4.748,0,0,0,1.652-.457,6.273,6.273,0,0,0,2.656-.611c1.19-.521,2.5-.65,3.654-1.25.358-.186.818.042,1.147-.274a5.677,5.677,0,0,0,2.448-.649,32.175,32.175,0,0,0,4.868-2.064c.178-.1.477-.1.563-.247.251-.417.976-.288,1.016-.794a5.346,5.346,0,0,0-.288-1.321,9.651,9.651,0,0,0-.957-2.709c-.069-.128-.018-.322-.092-.445-.251-.418-.058-.978-.517-1.352-.251-.2-.194-.812-.566-.835-.257-.016-.534.376-.81.573a13.622,13.622,0,0,1-2.6,1.451c-.262.112-.527.066-.8.168-1.769.653-3.592,1.163-5.348,1.847-.843.328-1.711.547-2.558.846-.6.21-1.222.331-1.837.484a6.7,6.7,0,0,0-.976.221,12.338,12.338,0,0,1-2.283.594,14.005,14.005,0,0,1-2.547.149c-.439.012-.813.288-1.281.232-.17-.021-.512.268-.55.46a7.626,7.626,0,0,1-1.183,2.329c-.227.387-.425.792-.619,1.2s-.374.815-.547,1.228a11.437,11.437,0,0,1-1.522,2.374,21.238,21.238,0,0,1-2.8,3.205,22.7,22.7,0,0,1-2.026,1.657c-.433.3-.782.713-1.214,1.04-.953.723-1.968,1.345-2.957,2.008-.561.377-1.088.8-1.643,1.191-.322.225-.665.42-1,.619-.778.46-1.562.913-2.34,1.374-.805.477-1.613.95-2.406,1.447-.16.1-.27.246-.5.228a.419.419,0,0,0-.3.18,12.3,12.3,0,0,0-1.666,2.8c-.1.295-.076.387.177.5.415.193.922.064,1.3.383.674-.1,1.205.479,1.876.389.463.4,1.063.157,1.6.358,1.014.381,2.117.468,3.168.776a13.7,13.7,0,0,0,2.489.281,15.853,15.853,0,0,0,2.572-.278m1.033-19.171a4.162,4.162,0,0,1-2.25-.437,3.31,3.31,0,0,1-1.876-2.28,17.617,17.617,0,0,1-.2-3.311H35.189c-.623.361-1.3.122-1.956.2-.459.052-.917.123-1.374.193a4.969,4.969,0,0,0-1.294.152,8.347,8.347,0,0,1-1.361.218c-.833.169-1.657.414-2.483.542-.791.122-1.549.372-2.346.473a21.627,21.627,0,0,0-2.767.56,19.089,19.089,0,0,0-2.58.794c-.526.222-1.215.353-1.378,1.085-1.252,1.3-1.763,3.019-2.58,4.56-.416.782-.688,1.652-1.051,2.472a24.654,24.654,0,0,0-.888,2.54c-.19.6-.335,1.222-.479,1.838-.06.257.07.371.308.549A4.318,4.318,0,0,0,15,43.9c.527.085,1.047.123,1.573.168a1.221,1.221,0,0,0,1.318-.833,20.457,20.457,0,0,0,.948-2.031,19.742,19.742,0,0,1,.814-2.089,17.525,17.525,0,0,1,1.124-1.965,5.167,5.167,0,0,1,3.166-2.4c.767-.258,1.543-.5,2.324-.708a6.755,6.755,0,0,1,1.443-.254c.9-.04,1.81-.012,2.715-.012.1,0,.222-.038.285.008.141.1.345.249.346.378s-.2.29-.341.38c-.094.058-.255-.006-.381.014a.935.935,0,0,0-.784.743A22.827,22.827,0,0,1,28,39.9c-.3.741-.461,1.549-.767,2.3-.039.1.177.337.136.382-.171.185-.266.515-.152.579a1.3,1.3,0,0,0,.815.108,2.846,2.846,0,0,0,1.094-.386c1.024-.7,2.188-1.165,3.2-1.894a7.308,7.308,0,0,1,1.2-.613c1.588-.744,3.046-1.713,4.549-2.605.784-.465,1.546-.959,2.3-1.472a10.533,10.533,0,0,0,1.048-.741c.908-.8,1.792-1.622,2.818-2.557a12.808,12.808,0,0,0-1.667.013m.966-21.336a2.77,2.77,0,0,0-1.3.959c-.173.178.022.167.127.182.254.038.155.236.165.375.018.257-.185.225-.329.2a3.773,3.773,0,0,0-2.467.6,8.36,8.36,0,0,1-1.909.782,8.835,8.835,0,0,1-1.9.574,4.985,4.985,0,0,0-.6.182c-.686.129-.721.2-.763.874a5.061,5.061,0,0,0,.2,1.278,9.421,9.421,0,0,0,.15,1.291,9.148,9.148,0,0,1,.235,1.457,9.049,9.049,0,0,0,1.341,3.516c.177.287.488.518.582.823a1.078,1.078,0,0,0,.519.646,26.555,26.555,0,0,1,2.355,1.566,4.615,4.615,0,0,0,1.893.559,7.65,7.65,0,0,0,1.952.234c.672-.064,1.36.037,2.032-.03a4.632,4.632,0,0,0,1.474-.4,8.158,8.158,0,0,0,3.424-2.467,9.329,9.329,0,0,0,1.5-2.957c.17-.646.3-1.306.435-1.961a16.2,16.2,0,0,0,.155-2.448c0-.032,0-.065,0-.1A1.669,1.669,0,0,0,52.4,15.8c-.381-.523-.759-1.049-1.167-1.551a18.107,18.107,0,0,1-1.925-2.789,8.9,8.9,0,0,0-.951-1.254c-.173-.216-.332-.1-.463.062a.8.8,0,0,0-.124.238,4.355,4.355,0,0,1-1.607,2.034,3.829,3.829,0,0,1-2.892,1.033l.262-1.9m-9.956,3.468c.122,0,.3.015.359-.055.494-.561,1.228-.506,1.848-.7A14.237,14.237,0,0,0,40.5,12.43a5.969,5.969,0,0,0,1.987-1.27c.453-.315,1.028-.672,1.065-1.386,0-.091.274-.265.355-.235.148.058.256.235.363.376.032.04.014.127,0,.189a19.113,19.113,0,0,0,.206,2.337,4.036,4.036,0,0,0,2.322-2.02c.168-.384.378-.75.579-1.118.231-.421.357-.449.814-.232a4.1,4.1,0,0,1,1.5,1.4c.408.559.7,1.2,1.1,1.77s.872,1.124,1.292,1.7a11.462,11.462,0,0,1,1.376,1.95,2.1,2.1,0,0,0,.427.778c.184.15.567-.081.782.216.008.01.242-.079.265-.154a16.623,16.623,0,0,0,.625-1.98,13.572,13.572,0,0,0,.162-2.155,5.628,5.628,0,0,0-.589-2.471,10.991,10.991,0,0,0-1.157-2.14,6.69,6.69,0,0,0-2.046-1.929,2.412,2.412,0,0,1-.589-.438,11.994,11.994,0,0,0-2.022-1.441c-.4-.272-.96-.219-1.278-.676-.285-.408-.639-.769-.951-1.16S46.484,1.547,46.063,1c0,.6-.193,1.005.114,1.415.1.128-.269.853-.411.851a1.091,1.091,0,0,1-.389-.149c-.311-.145-.406-.591-.821-.593-.539-.647-1.415-.662-2.069-1.093a.137.137,0,0,0-.129.024c-.024.054-.046.156-.018.179a2.624,2.624,0,0,1,.666,1.279c.188.555.06.781-.494.782a6.241,6.241,0,0,0-2.163.4,12.6,12.6,0,0,0-1.872.859c-.66.376-1.251.873-1.907,1.256a5.856,5.856,0,0,0-1.581,1.5c-.276.349-.517.777-.812,1.1-.686.747-.782,1.77-1.345,2.558-.03.042-.01.127,0,.191.129,1.178-.377,2.322-.138,3.59.311,0,.6,0,.888,0M12,50.31a2.962,2.962,0,0,1-1.166-1.15,3.327,3.327,0,0,1-.248-2.36,5.69,5.69,0,0,1,.206-.981c.237-.773.507-1.536.747-2.309.249-.8.488-1.611.711-2.422a.41.41,0,0,0-.566-.419,2.46,2.46,0,0,0-.867.688A6.444,6.444,0,0,0,9.9,43.11a9.55,9.55,0,0,1-.884,1.765,43.08,43.08,0,0,0-1.573,4.1c-.1.244.253.674.584.911.553.4,1.254.416,1.818.769,1.031,0,1.88.667,2.88.776.334.323.815.179,1.2.388a8.985,8.985,0,0,0,1.25.49,6.752,6.752,0,0,0,1.189.4,19.117,19.117,0,0,0,2.931.677,5.247,5.247,0,0,1,1.325.3c.856.244,1.18.129,1.585-.663.449-.879.871-1.774,1.308-2.659.053-.108.191-.212.181-.307a1.372,1.372,0,0,1,.3-.945,13.173,13.173,0,0,0,.961-1.931,18.617,18.617,0,0,1,1.373-2.535c.158-.227.084-.381-.09-.465a4.377,4.377,0,0,0-1.235-.559,14.7,14.7,0,0,1-1.795-.559,11.322,11.322,0,0,0-2.29-.557c-.064-.006-.151.026-.191,0a1.054,1.054,0,0,0-1.232-.094c-.265.182-.3.688-.453,1.047a.709.709,0,0,1-.193.3.55.55,0,0,0-.177.693,3.415,3.415,0,0,1-.033,2.462c-.249.953-.629,1.871-.953,2.8a2.072,2.072,0,0,1-2.015,1.324,6.674,6.674,0,0,1-.679,0,7.739,7.739,0,0,1-3-.734M84.871,14.56a4.675,4.675,0,0,0-2.572.587,9.287,9.287,0,0,1-2.218.969,3.588,3.588,0,0,1-1.323.786,3.729,3.729,0,0,1-1.492.389,4.737,4.737,0,0,0-3.494,1.845c.177.191-.337.267-.055.551a3.339,3.339,0,0,1,.627,1.088,5.419,5.419,0,0,1,.343,1.214c.111.7.619,1.238.76,1.918a6.2,6.2,0,0,1,.284,1.151,1.126,1.126,0,0,0,.648,1,12.458,12.458,0,0,0,1.61.811,4.47,4.47,0,0,0,1.407.113,3.562,3.562,0,0,0,2.289-.562,1.816,1.816,0,0,0,.635-.629,5.024,5.024,0,0,0,.745-3.369,9.585,9.585,0,0,0-.618-2.163,2.621,2.621,0,0,0-.662-1.284c-.046-.037.011-.212.03-.322.1-.535.61-.685.962-.929a17.379,17.379,0,0,0,2.5-2.144c.273-.279.063-.614.174-1.011a4.156,4.156,0,0,1-.582,0M65.355,82.314c.369-.221.888.018,1.374-.181a5.442,5.442,0,0,1,1.358-.218,23.673,23.673,0,0,0,4.5-1.07c.313-.1.621-.226.94-.3.345-.081.414-.289.444-.613a1.4,1.4,0,0,0-.813-1.54c-.511-.263-.955-.655-1.443-.966a7.2,7.2,0,0,0-2.314-.964c-.115-.026-.217-.1-.332-.131-.269-.062-.536-.162-.789.083a6.283,6.283,0,0,1-2.1,1c-.685.291-1.4.521-2.063.865a22.137,22.137,0,0,1-3.245,1.292,5,5,0,0,1-.5.188.283.283,0,0,0-.167.447,11.6,11.6,0,0,0,1.48,1.7,2.829,2.829,0,0,0,2.193.57c.476-.125.97.146,1.481-.161M6.391,58.022a1.54,1.54,0,0,0-1.544.725,26.512,26.512,0,0,0-2.855,4.437,6.861,6.861,0,0,0-.6,2.075,2.682,2.682,0,0,1-.149.617.8.8,0,0,0,.781,1.085A12.646,12.646,0,0,0,5.038,66.5a6.036,6.036,0,0,0,.856-.266l.768-.251c.52-.174.852-.688,1.419-.79.053-.01.1-.216.1-.331.009-.613.038-1.229,0-1.84a7.733,7.733,0,0,1,.681-3.016,1.542,1.542,0,0,1,.85-1.09.408.408,0,0,0,.211-.289c.018-.159.11-.39-.219-.411a10.6,10.6,0,0,0-2.377-.189,5.715,5.715,0,0,1-.932-.007M48.225,28a1.388,1.388,0,0,0-.413.6c-.617,1.438-1.462,2.756-2.181,4.14a2.219,2.219,0,0,1-.366.525c-.677.694-1.334,1.415-2.061,2.053a29.471,29.471,0,0,1-4.535,3.321c-.835.489-1.669.986-2.481,1.52-.923.607-1.961,1.036-2.93,1.578-1.052.589-2.133,1.123-3.142,1.8-.481.32-.946.819-1.636.722a3.634,3.634,0,0,1-.914.6c-.227.123-.522.39-.52.591,0,.221.373.32.64.364.032.005.077-.014.1,0,.757.65,1.415.236,2.164-.095a38.608,38.608,0,0,0,3.468-1.933c1.507-.86,2.953-1.8,4.37-2.805.569-.4,1.129-.829,1.733-1.188a16.21,16.21,0,0,0,1.642-1.209,29.349,29.349,0,0,0,3.924-3.6,14.225,14.225,0,0,0,2.844-4.051c.555-1.4,1.408-2.609,2.05-4-.587.355-1.187.69-1.751,1.077m-23.55,7.607a7.129,7.129,0,0,0-1.963.88,3.882,3.882,0,0,0-1.058,1.167c-.4.706-.8,1.411-1.15,2.144-.191.4-.323.835-.486,1.253-.053.136-.207.332-.165.388.172.231.3.015.459-.082a.453.453,0,0,1,.375-.008c.561.283,1.227.179,1.762.426.561.258,1.172.272,1.72.532.431.2.882.367,1.33.534.381.143.447.067.545-.315.119-.461.3-.908.46-1.358.5-1.409,1.009-2.814,1.5-4.225.2-.566.377-1.138.548-1.712.145-.488.134-.492-.3-.485a19.525,19.525,0,0,0-3.583.863m.2,19.062a8.325,8.325,0,0,0,.9-1.756c.153-.628.689-1.094.652-1.772.7-1.121,1.123-2.4,1.917-3.474.351-.474.329-.5-.3-.733-.362-.138-.709-.318-1.064-.475-.323-.144-.407-.112-.592.254-.445.882-.9,1.761-1.319,2.654-.269.566-.482,1.159-.743,1.728-.187.408-.417.8-.619,1.2s-.4.806-.582,1.214a3.142,3.142,0,0,1-1.157,1.212.537.537,0,0,1-.731.051c-.307-.2-.822-.069-1.259-.208a10.7,10.7,0,0,0-1.753-.227,3.43,3.43,0,0,1-.6-.189c-1.193-.4-2.416-.7-3.6-1.148-1.284-.493-2.612-.877-3.926-1.29a9.686,9.686,0,0,1-1.386-.4c-.138-.067-.344,0-.519.013.012.217.017.435.043.65.006.051.078.108.132.136a7.664,7.664,0,0,0,1.776.847,15.481,15.481,0,0,0,2.447.663c.341.343.892-.062,1.217.341A18.406,18.406,0,0,1,17.454,55c.835.263,1.709.384,2.516.71.56.225,1.165.278,1.712.552.207.1.509.017.768.017a2.537,2.537,0,0,0,2.422-1.614m-13.1-9.246a2.946,2.946,0,0,0-.292,1.43.738.738,0,0,1-.163.617c-.072.087.129.374.164.577a1.9,1.9,0,0,0,1.6,1.647,13.7,13.7,0,0,0,2.727.2.9.9,0,0,0,.908-.545,8.032,8.032,0,0,0,.512-1.237,9.647,9.647,0,0,0,.663-3.079c-.693,0-1.365-.048-2.027.014a8.422,8.422,0,0,1-2.045-.24,5.832,5.832,0,0,1-1.514-.723c-.183.458-.367.9-.533,1.345M43.9,28.718c-.427-.023-.854.118-1.293-.159-.312-.2-.821.15-1.164-.219a3.7,3.7,0,0,1-1.182-.178c-.367-.045-.549-.542-.98-.352-.015.382-.021.763-.048,1.144a2.955,2.955,0,0,0,.571,2.1,1.482,1.482,0,0,0,.448.41,3.511,3.511,0,0,0,2.1.569,4.037,4.037,0,0,1,.775,0,1.591,1.591,0,0,0,1.549-.7,7.265,7.265,0,0,0,1.359-2.6c-.728,0-1.431.029-2.131-.01m9.892-11.033c-.071.813-.112,1.629-.207,2.439-.048.417-.2.823-.284,1.237-.036.171-.113.437-.035.506a.415.415,0,0,0,.583-.076c.151-.144.369-.216.527-.354.244-.212.447-.469.694-.676a.671.671,0,0,0,.274-.667c-.02-.127-.058-.322.005-.377.378-.324.031-.608.007-.917-.067-.853-.8-.977-1.335-1.323-.023-.014-.063,0-.134,0a.677.677,0,0,0-.095.211m-21.506,1.45a5.457,5.457,0,0,0,1.206,1.219c.091.06.246.028.371.03.306.006.466-.152.311-.393-.267-.415-.019-.912-.221-1.257-.244-.414-.088-.8-.148-1.2-.074-.486-.129-.976-.2-1.462-.024-.17-.382-.239-.546-.085-.574.54-1.2,1.063-.987,1.981a1.4,1.4,0,0,0,.213,1.164" transform="translate(0 0)" fill="#1a1311" fill-rule="evenodd"/>
    <path id="パス_152258" data-name="パス 152258" d="M40.634,144.632c.517,0,1.035.018,1.551,0a6.025,6.025,0,0,0,4.229-1.744c.758-.761,1.334-1.654,2.007-2.476A30.973,30.973,0,0,0,50.7,136.6a1.311,1.311,0,0,1,1.068-.7c.639-.084,1.215.268,1.843.237.334.361.893-.058,1.213.35.817-.021,1.486.493,2.267.621a6.509,6.509,0,0,1,1.381.407,21.23,21.23,0,0,1,4.494,2.51,35.146,35.146,0,0,1,4.2,3.871,10.45,10.45,0,0,1,1.171,1.546q1.356,2,2.675,4.032a9.759,9.759,0,0,1,1.3,2.373,1.076,1.076,0,0,0,.509.531c.112.06.332-.095.506-.136a23,23,0,0,0,4.094-1.59q1.1-.5,2.218-.969c.247-.1.691-.121.731-.265a2.195,2.195,0,0,0-.033-1.094,19.305,19.305,0,0,0-1.654-3.967c-.821-1.575-1.725-3.108-2.626-4.641-.522-.887-1.041-1.774-1.631-2.616a11.989,11.989,0,0,0-1.763-2.273,32.088,32.088,0,0,0-5.637-4.174c-.561-.307-1.036-.766-1.582-1.105a18.673,18.673,0,0,0-1.664-.9c-1.673-.82-3.223-1.866-4.916-2.648a.668.668,0,0,1-.22-.168c-.219-.259-.426-.241-.739-.11-.66.278-1.363.454-2.035.707-.458.173-.941.232-1.4.363a15.847,15.847,0,0,1-3.415.184,7.293,7.293,0,0,1-1.9-.32c-.686-.136-1.364-.3-2.046-.456-.951-.21-1.913-.368-2.86-.595-.581-.139-1.137-.375-1.712-.544a2.175,2.175,0,0,0-.852-.15c-.387.051-.219.479-.325.722-.288.655-.45,1.365-.713,2.032a9.862,9.862,0,0,0-.637,2.054c-.151.972-.654,1.83-.731,2.822a1.79,1.79,0,0,1-.693,1.049,4.921,4.921,0,0,1-3.011,1.145c-1.779.044-1.451-.047-4.134-.792-.291-.355-.815-.021-1.106-.374a5.788,5.788,0,0,1-1.872-.4c-.726-.2-1.462-.365-2.187-.568-.579-.162-1.162-.313-1.727-.516-.237-.084-.26-.055-.388.165-.4.683-.869,1.325-1.321,1.977-.21.3-.1.734-.409,1a18.228,18.228,0,0,0-.184,2.924,2.686,2.686,0,0,0,.4,1.087,1.385,1.385,0,0,0,.816.492c.9.157,1.671.658,2.558.872a12.631,12.631,0,0,1,2.218.722,9.513,9.513,0,0,0,2.192.8c.081.014.142.12.223.16a23.04,23.04,0,0,0,3.845,1.48,14.225,14.225,0,0,0,2.027.526c.655.086,1.32.249,1.98.331a17.639,17.639,0,0,0,2.131.018" transform="translate(-13.082 -73.601)" fill="#1a1311" fill-rule="evenodd"/>
    <path id="パス_152259" data-name="パス 152259" d="M79.567,80.959a15.8,15.8,0,0,0,2.572-.278,13.733,13.733,0,0,0,3.208-1.143.617.617,0,0,0,.3-.345,8.3,8.3,0,0,1,.777-1.718A26.965,26.965,0,0,0,87.8,73.389c.217-.869.569-1.7.838-2.561.189-.6.344-1.216.507-1.827.154-.581.461-1.1.6-1.7a21.016,21.016,0,0,1,.766-2.4,8.029,8.029,0,0,1,.679-1.462,2.674,2.674,0,0,1,1.721-.976c.608-.176,1.228-.316,1.843-.47a7.165,7.165,0,0,1,1.23-.3,9.427,9.427,0,0,0,1.712-.333,4.755,4.755,0,0,0,1.652-.458,6.272,6.272,0,0,0,2.656-.61c1.19-.521,2.5-.651,3.654-1.25.358-.186.818.042,1.148-.274a5.68,5.68,0,0,0,2.448-.649,32.1,32.1,0,0,0,4.868-2.064c.178-.1.477-.1.563-.247.251-.417.976-.287,1.016-.794a5.328,5.328,0,0,0-.288-1.321A9.625,9.625,0,0,0,114.46,51c-.068-.128-.018-.322-.092-.445-.251-.418-.058-.978-.516-1.351-.251-.205-.195-.812-.566-.835-.257-.016-.533.376-.81.573a13.645,13.645,0,0,1-2.6,1.45c-.262.112-.527.066-.8.168-1.769.653-3.592,1.162-5.348,1.847-.843.328-1.712.547-2.559.846-.6.209-1.222.331-1.837.484a6.679,6.679,0,0,0-.976.221,12.368,12.368,0,0,1-2.284.595,14.073,14.073,0,0,1-2.546.149c-.44.012-.814.288-1.281.231a.737.737,0,0,0-.55.46,7.629,7.629,0,0,1-1.183,2.328c-.227.387-.425.793-.619,1.2s-.374.815-.547,1.228a11.424,11.424,0,0,1-1.522,2.374,21.238,21.238,0,0,1-2.8,3.205,22.7,22.7,0,0,1-2.026,1.657c-.433.3-.782.713-1.214,1.04-.953.724-1.968,1.345-2.957,2.009-.561.377-1.088.8-1.643,1.191-.322.225-.665.42-1,.619-.779.46-1.562.913-2.341,1.373-.805.477-1.613.951-2.406,1.447-.161.1-.27.246-.5.228a.416.416,0,0,0-.3.18,12.315,12.315,0,0,0-1.667,2.8c-.1.295-.076.387.177.505.415.193.922.063,1.3.382.674-.1,1.206.479,1.876.389.463.4,1.063.156,1.6.358,1.013.381,2.117.468,3.168.776a13.7,13.7,0,0,0,2.489.281" transform="translate(-40.605 -28.499)" fill="#fff" fill-rule="evenodd"/>
    <path id="パス_152260" data-name="パス 152260" d="M62.363,71.707a12.807,12.807,0,0,0-1.667.013,4.163,4.163,0,0,1-2.25-.437A3.309,3.309,0,0,1,56.569,69a17.617,17.617,0,0,1-.2-3.311H53.318c-.623.361-1.3.122-1.956.2-.459.052-.917.123-1.374.192a4.986,4.986,0,0,0-1.294.152,8.31,8.31,0,0,1-1.361.218c-.833.169-1.657.414-2.483.542-.791.122-1.549.372-2.345.473a21.579,21.579,0,0,0-2.768.561,19.048,19.048,0,0,0-2.58.793c-.526.222-1.215.354-1.377,1.085-1.252,1.3-1.763,3.019-2.58,4.56-.415.782-.687,1.652-1.05,2.472a24.687,24.687,0,0,0-.889,2.54c-.19.6-.335,1.221-.479,1.838-.06.257.07.371.308.549a4.318,4.318,0,0,0,2.038.742c.526.085,1.047.123,1.573.168a1.221,1.221,0,0,0,1.318-.833,20.454,20.454,0,0,0,.947-2.031,19.833,19.833,0,0,1,.814-2.089A17.479,17.479,0,0,1,38.9,75.856a5.167,5.167,0,0,1,3.166-2.4c.767-.258,1.542-.5,2.324-.708a6.754,6.754,0,0,1,1.443-.254c.9-.04,1.81-.011,2.715-.011.1,0,.222-.039.285.008.141.1.345.249.346.377s-.2.29-.341.38c-.094.058-.255-.006-.381.014a.935.935,0,0,0-.784.743,22.852,22.852,0,0,1-1.546,4.6c-.3.741-.461,1.549-.767,2.3-.038.1.177.337.136.382-.17.185-.265.515-.152.579a1.3,1.3,0,0,0,.815.108,2.846,2.846,0,0,0,1.094-.386c1.024-.7,2.188-1.165,3.2-1.894a7.292,7.292,0,0,1,1.2-.613c1.588-.744,3.046-1.713,4.549-2.605.784-.465,1.545-.959,2.3-1.472a10.647,10.647,0,0,0,1.048-.741c.908-.8,1.792-1.623,2.818-2.557" transform="translate(-18.129 -38.709)" fill="#fff" fill-rule="evenodd"/>
    <path id="パス_152261" data-name="パス 152261" d="M95.743,27.018a4.356,4.356,0,0,0,1.606-2.034.816.816,0,0,1,.124-.239c.131-.164.29-.277.463-.061a8.874,8.874,0,0,1,.951,1.254,18.107,18.107,0,0,0,1.925,2.789c.407.5.786,1.028,1.167,1.551a1.668,1.668,0,0,1,.414,1.606c0,.032,0,.064,0,.1a16.252,16.252,0,0,1-.154,2.448c-.133.655-.266,1.315-.436,1.961a9.325,9.325,0,0,1-1.5,2.957,8.157,8.157,0,0,1-3.423,2.467,4.648,4.648,0,0,1-1.475.4c-.671.067-1.36-.034-2.032.03a7.669,7.669,0,0,1-1.952-.234,4.628,4.628,0,0,1-1.893-.559,26.26,26.26,0,0,0-2.355-1.566,1.079,1.079,0,0,1-.519-.646c-.094-.305-.406-.536-.582-.823A9.054,9.054,0,0,1,84.727,34.9a9.14,9.14,0,0,0-.235-1.457,9.494,9.494,0,0,1-.15-1.291,5.064,5.064,0,0,1-.2-1.277c.042-.677.077-.745.763-.874a4.844,4.844,0,0,1,.6-.182,8.858,8.858,0,0,0,1.9-.574,8.378,8.378,0,0,0,1.909-.782,3.77,3.77,0,0,1,2.467-.6c.144.022.347.053.329-.2-.009-.139.09-.337-.165-.375-.1-.015-.3,0-.127-.182a2.773,2.773,0,0,1,1.3-.959l-.262,1.9a3.83,3.83,0,0,0,2.892-1.033M90.362,37.105a11.929,11.929,0,0,0,1.351,2.54,1.563,1.563,0,0,0,2.135.368,28.616,28.616,0,0,0,2.526-2.319.736.736,0,0,0,.176-.789c-.043-.179-.275-.275-.531-.314a13.75,13.75,0,0,0-2.938-.371c-.378.024-.676-.279-1.084-.212A1.663,1.663,0,0,1,91,35.858c-.507-.235-.838.081-.833.837.016.034.106.221.193.41m4.932-5.519c-.167.184-.1.7.058.751a.7.7,0,0,0,.814-.312.452.452,0,0,1,.271-.286c.532-.235.536-.275.875.086.274.292.5.629.757.937a.229.229,0,0,0,.4-.1A1.366,1.366,0,0,0,98.5,32.1a2.02,2.02,0,0,0-1.713-1.318,1.746,1.746,0,0,0-1.5.8M89.764,30.5a3.065,3.065,0,0,1-.545.542.6.6,0,0,0-.2.682.668.668,0,0,0,.328.4c.072.035.275-.112.368-.219.159-.181.255-.417.418-.592.4-.433.5-.435.991-.051.175.138.3.349.487.46a.453.453,0,0,0,.431-.028.436.436,0,0,0,.04-.428,8.412,8.412,0,0,0-1.02-1.019c-.119-.1-.365-.043-.727-.071a.721.721,0,0,0-.571.326M93.3,34.265c.448-.347.683-.173.9.247.044.083.269.173.3.142a.843.843,0,0,0,.307-.431.884.884,0,0,0-.707-.913c-.191-.059-.432-.2-.571-.136a4.182,4.182,0,0,0-.815.6c-.035.028-.021.117-.029.178.034.176.449.437.607.315m3.843-5.732a4.4,4.4,0,0,0,1.252.147c.214-.032.39-.091.305-.342-.057-.168-.173-.429-.286-.443a8.931,8.931,0,0,0-1.355-.01c-.043,0-.08.149-.138.265a2.653,2.653,0,0,0,.222.383" transform="translate(-49.579 -14.475)" fill="#fff" fill-rule="evenodd"/>
    <path id="パス_152262" data-name="パス 152262" d="M79.492,16.576c.311,0,.6,0,.888,0,.122,0,.3.015.359-.055.494-.561,1.228-.506,1.848-.7A14.246,14.246,0,0,0,87.3,13.86a5.969,5.969,0,0,0,1.987-1.27c.453-.315,1.028-.672,1.065-1.386,0-.091.274-.266.355-.235.148.058.256.235.363.375.032.04.014.127,0,.19a19.2,19.2,0,0,0,.205,2.337,4.037,4.037,0,0,0,2.323-2.02c.168-.384.378-.75.579-1.118.231-.421.357-.449.814-.232a4.1,4.1,0,0,1,1.5,1.4c.408.559.7,1.2,1.1,1.77s.872,1.124,1.292,1.7a11.463,11.463,0,0,1,1.376,1.95,2.1,2.1,0,0,0,.427.778c.184.149.567-.081.782.216.008.011.242-.079.265-.154a16.549,16.549,0,0,0,.625-1.98,13.574,13.574,0,0,0,.162-2.156,5.627,5.627,0,0,0-.589-2.471,10.991,10.991,0,0,0-1.157-2.14,6.69,6.69,0,0,0-2.046-1.929,2.4,2.4,0,0,1-.589-.438,11.971,11.971,0,0,0-2.022-1.441c-.4-.272-.96-.219-1.279-.676-.285-.408-.639-.769-.95-1.16s-.61-.793-1.031-1.343c0,.6-.193,1.006.114,1.416.1.128-.269.853-.411.851a1.091,1.091,0,0,1-.389-.149c-.311-.145-.406-.591-.821-.593-.539-.647-1.415-.662-2.069-1.093a.137.137,0,0,0-.129.024c-.024.054-.046.156-.018.179a2.624,2.624,0,0,1,.666,1.279c.188.555.06.781-.494.782a6.241,6.241,0,0,0-2.163.4,12.6,12.6,0,0,0-1.872.859c-.66.376-1.251.873-1.907,1.256a5.857,5.857,0,0,0-1.581,1.5c-.276.349-.517.777-.812,1.1-.686.747-.782,1.769-1.345,2.558-.03.042-.01.127,0,.191.129,1.178-.377,2.322-.138,3.59" transform="translate(-46.803 -1.43)" fill="#1a1311" fill-rule="evenodd"/>
    <path id="パス_152263" data-name="パス 152263" d="M25.654,109.331a7.743,7.743,0,0,1-3-.734,2.964,2.964,0,0,1-1.166-1.15,3.324,3.324,0,0,1-.248-2.36,5.646,5.646,0,0,1,.205-.98c.237-.773.508-1.537.747-2.309q.374-1.2.711-2.422a.41.41,0,0,0-.566-.419,2.461,2.461,0,0,0-.867.688,6.444,6.444,0,0,0-.919,1.753,9.509,9.509,0,0,1-.883,1.765,43.122,43.122,0,0,0-1.573,4.1c-.1.245.253.674.584.911.553.4,1.254.416,1.818.769,1.031,0,1.88.667,2.88.776.334.323.816.179,1.2.388a8.924,8.924,0,0,0,1.25.49,6.756,6.756,0,0,0,1.189.4,19.113,19.113,0,0,0,2.93.678,5.228,5.228,0,0,1,1.325.3c.856.244,1.181.129,1.585-.663.45-.879.871-1.774,1.309-2.659.053-.108.191-.212.181-.307a1.368,1.368,0,0,1,.3-.945,13.137,13.137,0,0,0,.961-1.932,18.678,18.678,0,0,1,1.373-2.535c.158-.228.084-.381-.09-.465a4.387,4.387,0,0,0-1.235-.559,14.7,14.7,0,0,1-1.795-.559,11.329,11.329,0,0,0-2.29-.557c-.064-.006-.151.026-.191,0a1.054,1.054,0,0,0-1.232-.094c-.265.182-.3.689-.454,1.047a.7.7,0,0,1-.193.3.549.549,0,0,0-.177.693A3.417,3.417,0,0,1,29.3,105.2c-.249.953-.629,1.871-.953,2.8a2.071,2.071,0,0,1-2.015,1.324,6.556,6.556,0,0,1-.679,0" transform="translate(-10.656 -58.286)" fill="#002e85" fill-rule="evenodd"/>
    <path id="パス_152264" data-name="パス 152264" d="M190.907,36.413a17.379,17.379,0,0,1-2.5,2.145c-.352.244-.866.393-.961.929-.019.109-.077.285-.031.322a2.621,2.621,0,0,1,.662,1.284,9.586,9.586,0,0,1,.618,2.163,5.027,5.027,0,0,1-.745,3.369,1.813,1.813,0,0,1-.636.628,3.557,3.557,0,0,1-2.289.562,4.457,4.457,0,0,1-1.407-.113,12.453,12.453,0,0,1-1.61-.811,1.125,1.125,0,0,1-.648-1,6.229,6.229,0,0,0-.284-1.151c-.14-.681-.649-1.216-.76-1.918a5.4,5.4,0,0,0-.343-1.214,3.345,3.345,0,0,0-.626-1.088c-.283-.284.232-.361.054-.551a4.738,4.738,0,0,1,3.494-1.845,3.74,3.74,0,0,0,1.493-.389,3.6,3.6,0,0,0,1.323-.786,9.277,9.277,0,0,0,2.218-.969A4.672,4.672,0,0,1,190.5,35.4a4.168,4.168,0,0,0,.582,0c-.11.4.1.732-.174,1.012m-4.349,7.321a.535.535,0,0,0,.36-.257c.04-.1-.051-.278-.132-.388-.321-.437-.743-.369-1.183-.216-.163.057-.341.075-.718.154.452-.472.735-.8,1.236-.84.111-.009.211-.116.324-.147.249-.069.538-.155.5-.446-.025-.183-.252-.347-.409-.5a.29.29,0,0,0-.255-.051c-.387.159-.765.338-1.215.542a8.345,8.345,0,0,0-.248-1.169,2.591,2.591,0,0,0-.5-.757.439.439,0,0,0-.383-.135.586.586,0,0,0-.258.361.62.62,0,0,0,.013.467c.34.439.156.932.143,1.386-.007.22-.3.438-.49.64-.025.027-.182-.027-.243-.082a7.585,7.585,0,0,1-.55-.546.425.425,0,0,0-.592-.073.476.476,0,0,0-.186.657,1.543,1.543,0,0,0,1.209,1.007c.273.035.307.13.3.353-.011.42-.009.84,0,1.26a1.786,1.786,0,0,0,1.733,1.7,4.49,4.49,0,0,0,.773-.011.533.533,0,0,0,.359-.261c.039-.1-.058-.278-.139-.388a.71.71,0,0,0-.643-.326,2.43,2.43,0,0,1-.789-.186.255.255,0,0,1-.12-.211.24.24,0,0,1,.168-.162,12.137,12.137,0,0,1,1.356,0c.4.032.579-.253.763-.486.156-.2-.089-.365-.232-.447a4.089,4.089,0,0,0-.72-.262c.009-.058.018-.115.027-.172a4.454,4.454,0,0,0,.741-.011" transform="translate(-105.629 -20.838)" fill="#fff" fill-rule="evenodd"/>
    <path id="パス_152265" data-name="パス 152265" d="M150.16,191.875c.476-.125.97.146,1.481-.161.369-.222.888.018,1.374-.181a5.425,5.425,0,0,1,1.358-.217,23.676,23.676,0,0,0,4.5-1.07c.314-.1.621-.226.94-.3.345-.081.414-.289.444-.612a1.4,1.4,0,0,0-.813-1.541c-.511-.262-.955-.654-1.443-.966a7.2,7.2,0,0,0-2.314-.964c-.115-.026-.217-.1-.332-.131-.269-.062-.535-.162-.789.083a6.279,6.279,0,0,1-2.1,1c-.685.291-1.4.521-2.063.865a22.185,22.185,0,0,1-3.245,1.293,5.091,5.091,0,0,1-.5.188.283.283,0,0,0-.168.447,11.6,11.6,0,0,0,1.48,1.7,2.826,2.826,0,0,0,2.193.57" transform="translate(-86.286 -109.399)" fill="#fff" fill-rule="evenodd"/>
    <path id="パス_152266" data-name="パス 152266" d="M9.017,141.225a5.708,5.708,0,0,1-.932-.008,1.541,1.541,0,0,0-1.544.725,26.532,26.532,0,0,0-2.855,4.437,6.861,6.861,0,0,0-.6,2.075,2.687,2.687,0,0,1-.149.617.8.8,0,0,0,.781,1.084,12.645,12.645,0,0,0,3.011-.456,6.037,6.037,0,0,0,.856-.267c.256-.083.512-.166.768-.251.52-.174.852-.688,1.419-.79.053-.01.1-.216.1-.331.009-.613.038-1.229,0-1.84a7.731,7.731,0,0,1,.681-3.016,1.543,1.543,0,0,1,.85-1.09.408.408,0,0,0,.211-.289c.018-.159.11-.389-.219-.411a10.546,10.546,0,0,0-2.377-.189" transform="translate(-1.694 -83.195)" fill="#fff" fill-rule="evenodd"/>
    <path id="パス_152267" data-name="パス 152267" d="M88.774,65.548c-.587.355-1.186.69-1.751,1.077a1.4,1.4,0,0,0-.413.6c-.617,1.438-1.462,2.756-2.181,4.14a2.218,2.218,0,0,1-.366.525c-.677.694-1.334,1.415-2.061,2.053a29.471,29.471,0,0,1-4.535,3.321c-.835.49-1.669.986-2.481,1.52-.923.607-1.961,1.036-2.93,1.578-1.052.589-2.133,1.123-3.142,1.8-.481.32-.946.819-1.636.722a3.622,3.622,0,0,1-.914.6c-.227.123-.522.39-.52.591,0,.221.373.32.64.364.032,0,.077-.014.1,0,.757.65,1.415.236,2.164-.095A38.721,38.721,0,0,0,72.212,82.4c1.507-.86,2.953-1.8,4.37-2.805.569-.4,1.129-.829,1.733-1.188A16.2,16.2,0,0,0,79.956,77.2a29.324,29.324,0,0,0,3.924-3.6,14.233,14.233,0,0,0,2.844-4.051c.555-1.4,1.408-2.609,2.05-4" transform="translate(-38.798 -38.624)" fill="#002e85" fill-rule="evenodd"/>
    <path id="パス_152268" data-name="パス 152268" d="M34.212,122.822a2.538,2.538,0,0,0,2.422-1.614,8.354,8.354,0,0,0,.9-1.756c.153-.628.689-1.094.652-1.772.7-1.121,1.123-2.4,1.917-3.474.351-.474.329-.5-.3-.733-.362-.138-.708-.318-1.063-.475-.323-.144-.407-.112-.592.254-.445.882-.9,1.761-1.319,2.654-.269.566-.482,1.159-.743,1.728-.186.408-.417.8-.619,1.2s-.4.806-.582,1.214a3.144,3.144,0,0,1-1.157,1.212.536.536,0,0,1-.731.051c-.307-.2-.822-.069-1.259-.208a10.706,10.706,0,0,0-1.753-.227,3.4,3.4,0,0,1-.6-.189c-1.193-.4-2.416-.7-3.6-1.148-1.285-.493-2.612-.877-3.926-1.29a9.734,9.734,0,0,1-1.386-.4c-.138-.067-.344,0-.519.013.012.217.016.435.043.65.006.051.078.108.132.136a7.67,7.67,0,0,0,1.776.847,15.485,15.485,0,0,0,2.448.663c.341.343.892-.062,1.217.341a18.413,18.413,0,0,1,3.64,1.05c.835.263,1.708.384,2.516.71.559.225,1.165.278,1.712.552.207.1.509.017.768.017" transform="translate(-11.762 -66.538)" fill="#002e85" fill-rule="evenodd"/>
    <path id="パス_152269" data-name="パス 152269" d="M28.51,107.315c-.183.458-.366.9-.533,1.345a2.941,2.941,0,0,0-.292,1.43.74.74,0,0,1-.164.617c-.072.087.129.373.164.577a1.9,1.9,0,0,0,1.6,1.647,13.7,13.7,0,0,0,2.727.195.9.9,0,0,0,.908-.544,8.033,8.033,0,0,0,.512-1.237,9.649,9.649,0,0,0,.663-3.08c-.693,0-1.365-.048-2.027.014a8.419,8.419,0,0,1-2.045-.24,5.828,5.828,0,0,1-1.514-.723" transform="translate(-16.208 -63.236)" fill="#fff" fill-rule="evenodd"/>
    <path id="パス_152270" data-name="パス 152270" d="M102.288,68.565c-.728,0-1.431.029-2.131-.01-.427-.023-.854.118-1.294-.159-.312-.2-.821.15-1.164-.219A3.7,3.7,0,0,1,96.517,68c-.367-.045-.549-.542-.98-.352-.015.382-.02.764-.047,1.144a2.955,2.955,0,0,0,.571,2.1,1.484,1.484,0,0,0,.448.411,3.513,3.513,0,0,0,2.1.569,4,4,0,0,1,.775,0,1.591,1.591,0,0,0,1.549-.7,7.266,7.266,0,0,0,1.359-2.6" transform="translate(-56.262 -39.836)" fill="#fff" fill-rule="evenodd"/>
    <path id="パス_152271" data-name="パス 152271" d="M130.244,42.536a.667.667,0,0,0-.094.211c-.071.813-.112,1.629-.207,2.439-.049.417-.2.823-.284,1.237-.036.171-.113.437-.035.506a.415.415,0,0,0,.583-.076c.152-.144.369-.216.527-.354.244-.212.447-.469.694-.676a.671.671,0,0,0,.273-.667c-.02-.127-.058-.322.006-.377.378-.323.03-.607.006-.917-.067-.853-.8-.977-1.335-1.323-.023-.014-.063,0-.134,0" transform="translate(-76.362 -25.062)" fill="#fff" fill-rule="evenodd"/>
    <path id="パス_152272" data-name="パス 152272" d="M78.014,40.79a1.4,1.4,0,0,0,.213,1.164,5.457,5.457,0,0,0,1.206,1.219c.091.06.246.028.371.03.306.006.466-.152.311-.393-.267-.415-.019-.912-.222-1.256-.244-.414-.088-.8-.148-1.2-.074-.486-.128-.975-.2-1.462-.024-.17-.382-.239-.546-.085-.574.54-1.2,1.063-.987,1.981" transform="translate(-45.946 -22.818)" fill="#fff" fill-rule="evenodd"/>
    <path id="パス_152273" data-name="パス 152273" d="M99.653,51.952a1.664,1.664,0,0,0,.994.148c.409-.066.706.237,1.084.213a13.75,13.75,0,0,1,2.938.371c.256.038.488.134.531.314a.737.737,0,0,1-.176.789,28.622,28.622,0,0,1-2.527,2.319,1.563,1.563,0,0,1-2.134-.368,11.929,11.929,0,0,1-1.351-2.54c-.087-.189-.177-.377-.193-.411,0-.756.326-1.071.833-.836m2.478,3.339c.6-.506,1.186-1.037,1.77-1.565a.248.248,0,0,0-.1-.407.406.406,0,0,0-.178-.034c-.892.146-1.74-.273-2.626-.2a1.952,1.952,0,0,1-.482,0c-.163-.027-.292-.341-.469-.133-.144.169-.057.377.077.59a11.8,11.8,0,0,1,.635,1.281.9.9,0,0,0,1.072.573.468.468,0,0,0,.3-.1" transform="translate(-58.23 -30.568)" fill="#1a1311" fill-rule="evenodd"/>
    <path id="パス_152274" data-name="パス 152274" d="M112.653,39.7a1.745,1.745,0,0,0-1.5.8c-.167.184-.1.7.058.751a.7.7,0,0,0,.814-.312.45.45,0,0,1,.271-.285c.532-.235.536-.276.875.086.274.292.5.629.757.937a.229.229,0,0,0,.4-.1,1.373,1.373,0,0,0,.035-.561,2.02,2.02,0,0,0-1.713-1.317" transform="translate(-65.441 -23.387)" fill="#1a1311" fill-rule="evenodd"/>
    <path id="パス_152275" data-name="パス 152275" d="M97.3,38.222a.72.72,0,0,0-.571.326,3.051,3.051,0,0,1-.545.542.6.6,0,0,0-.2.682.668.668,0,0,0,.329.4c.072.036.275-.112.368-.219.159-.181.255-.417.418-.592.4-.433.5-.435.991-.051.175.138.3.349.487.46A.453.453,0,0,0,99,39.739a.436.436,0,0,0,.039-.428,8.406,8.406,0,0,0-1.019-1.018c-.119-.1-.365-.042-.727-.071" transform="translate(-56.539 -22.52)" fill="#1a1311" fill-rule="evenodd"/>
    <path id="パス_152276" data-name="パス 152276" d="M104.958,46.277c.034.175.449.437.607.314.448-.347.682-.173.9.247.044.084.268.174.3.142a.842.842,0,0,0,.307-.431.885.885,0,0,0-.708-.914c-.191-.058-.432-.2-.571-.136a4.192,4.192,0,0,0-.814.6c-.035.028-.021.117-.029.178" transform="translate(-61.847 -26.801)" fill="#1a1311" fill-rule="evenodd"/>
    <path id="パス_152277" data-name="パス 152277" d="M115.253,32.884a2.66,2.66,0,0,0,.222.383,4.4,4.4,0,0,0,1.252.147c.214-.032.39-.09.305-.342-.057-.168-.173-.429-.286-.442a8.93,8.93,0,0,0-1.355-.01c-.043,0-.08.148-.138.265" transform="translate(-67.913 -19.209)" fill="#1a1311" fill-rule="evenodd"/>
    <path id="パス_152278" data-name="パス 152278" d="M189.338,49.7a4.453,4.453,0,0,0,.741-.011.537.537,0,0,0,.361-.257c.04-.1-.052-.279-.132-.388-.321-.437-.743-.369-1.183-.216-.164.057-.341.075-.718.154.452-.472.735-.8,1.236-.84.111-.009.211-.116.324-.147.249-.069.538-.155.5-.446-.024-.183-.252-.348-.409-.5A.291.291,0,0,0,189.8,47c-.386.159-.764.338-1.215.542a8.344,8.344,0,0,0-.248-1.169,2.6,2.6,0,0,0-.5-.757.44.44,0,0,0-.383-.135.587.587,0,0,0-.258.361.619.619,0,0,0,.014.468c.34.439.155.932.142,1.386-.007.22-.3.438-.49.64-.025.027-.182-.027-.243-.082a7.583,7.583,0,0,1-.55-.546.425.425,0,0,0-.592-.073.477.477,0,0,0-.187.657A1.543,1.543,0,0,0,186.5,49.3c.273.035.307.13.3.353-.011.42-.01.84,0,1.259a1.787,1.787,0,0,0,1.733,1.7,4.449,4.449,0,0,0,.773-.011.529.529,0,0,0,.359-.261c.039-.1-.058-.277-.139-.387a.71.71,0,0,0-.643-.326,2.441,2.441,0,0,1-.789-.186.255.255,0,0,1-.119-.211.239.239,0,0,1,.168-.162,12.131,12.131,0,0,1,1.355,0c.4.032.579-.253.763-.486.156-.2-.088-.365-.232-.448a4.16,4.16,0,0,0-.72-.262l.027-.172" transform="translate(-109.149 -26.793)" fill="#1a1311" fill-rule="evenodd"/>
    <path id="パス_152279" data-name="パス 152279" d="M103.483,56.832a.462.462,0,0,0,.3-.1c.6-.506,1.185-1.037,1.77-1.565a.248.248,0,0,0-.1-.407.41.41,0,0,0-.178-.034c-.892.146-1.74-.273-2.627-.2a1.929,1.929,0,0,1-.482,0c-.163-.026-.292-.34-.469-.132-.144.169-.058.377.077.59a11.9,11.9,0,0,1,.635,1.281.9.9,0,0,0,1.073.573" transform="translate(-59.882 -32.007)" fill="#fff" fill-rule="evenodd"/>
  </g>
</svg>
