<svg id="グループ_61516" data-name="グループ 61516" xmlns="http://www.w3.org/2000/svg" xmlns:xlink="http://www.w3.org/1999/xlink" width="188" height="60" viewBox="0 0 188 60">
  <defs>
    <clipPath id="clip-path">
      <rect id="長方形_24733" data-name="長方形 24733" width="18" height="18" transform="translate(0 0.331)" fill="#fff"/>
    </clipPath>
  </defs>
  <rect id="長方形_22927" data-name="長方形 22927" width="188" height="60"/>
  <path id="パス_158739" data-name="パス 158739" d="M-38.112-6.992h4.544V-5.5h-4.544Zm-.784-5.152h5.168v1.616H-38.9Zm-.544,2.7h7.824v1.648H-39.44Zm2.368-4.16H-35.3v4.976h-1.776Zm4.352.4,1.776.5a18.539,18.539,0,0,1-3.128,5.248,16.468,16.468,0,0,1-4.44,3.68,3.419,3.419,0,0,0-.352-.472q-.24-.28-.5-.552t-.432-.448A13.776,13.776,0,0,0-35.544-8.5,15.09,15.09,0,0,0-32.72-13.2Zm-3.632,8.5h1.808V-.368a2.732,2.732,0,0,1-.144.976,1.025,1.025,0,0,1-.576.56,3.406,3.406,0,0,1-1,.224q-.568.048-1.336.048a4.3,4.3,0,0,0-.208-.832,5.836,5.836,0,0,0-.336-.8q.48.016.928.016h.592A.4.4,0,0,0-36.4-.24a.248.248,0,0,0,.048-.176Zm2.384-2.288h.4l.352-.1,1.024.832A15.647,15.647,0,0,1-33.528-4.8,11.467,11.467,0,0,1-35.04-3.552a3.428,3.428,0,0,0-.424-.512q-.28-.288-.472-.464.352-.288.736-.664a9.653,9.653,0,0,0,.712-.776,6.187,6.187,0,0,0,.52-.72Zm-5.6,3.776q1.008-.08,2.312-.176T-34.5-3.6q1.448-.112,2.856-.24v1.648q-1.344.128-2.736.248l-2.672.232q-1.28.112-2.32.192Zm9.2-7.456h5.888V-8.9h-5.888Zm.224-2.928,1.952.3a29.329,29.329,0,0,1-.7,3.1A21.356,21.356,0,0,1-29.9-7.392a10.662,10.662,0,0,1-1.328,2.256,3.435,3.435,0,0,0-.424-.448q-.28-.256-.584-.512a5.308,5.308,0,0,0-.528-.4,8.347,8.347,0,0,0,1.2-1.944,15.706,15.706,0,0,0,.864-2.448A24.662,24.662,0,0,0-30.144-13.6Zm2.816,4,1.968.176A24.019,24.019,0,0,1-26.44-4.6a11.129,11.129,0,0,1-2.008,3.592,10.308,10.308,0,0,1-3.3,2.512,5.735,5.735,0,0,0-.288-.56q-.192-.336-.416-.664a3.672,3.672,0,0,0-.416-.52,8.526,8.526,0,0,0,2.952-2.088,8.8,8.8,0,0,0,1.736-3.088A19.376,19.376,0,0,0-27.328-9.6Zm-1.984.3a24.5,24.5,0,0,0,.936,3.816,11.4,11.4,0,0,0,1.592,3.136A7.085,7.085,0,0,0-24.32-.224a6.113,6.113,0,0,0-.464.488q-.256.3-.488.608a4.6,4.6,0,0,0-.376.584,8.546,8.546,0,0,1-2.664-2.5A13.382,13.382,0,0,1-30-4.592a32,32,0,0,1-1.04-4.416ZM-17.04-5.04h1.984V-.048H-17.04Zm-4.208-4.624h10.56v1.632h-10.56ZM-23.072-.688h14.24V.992h-14.24Zm1.408-2.9h11.552v1.648H-21.664Zm2.976-5.136,2.048.48q-.3.528-.632,1.072t-.648,1.016q-.32.472-.592.84l-1.568-.48q.24-.4.512-.912t.5-1.048Q-18.832-8.288-18.688-8.72ZM-21.936-6.5q1.344-.032,3.1-.056t3.7-.064q1.944-.04,3.848-.072l-.08,1.584q-1.872.08-3.776.136l-3.632.1q-1.728.048-3.072.08Zm7.5-.864,1.408-.928q.608.432,1.272.968t1.264,1.088A9.135,9.135,0,0,1-9.52-5.216l-1.5,1.04A7.34,7.34,0,0,0-11.912-5.2q-.568-.56-1.232-1.128T-14.432-7.36Zm-2.608-6.224h1.984v2.24H-17.04Zm-6,1.024H-8.912V-9.2H-10.88v-1.616H-21.152V-9.2H-23.04Zm22.816-.272q-.08.432-.256,1.12A13.746,13.746,0,0,1-.992-10.16q-.256.592-.584,1.224A11.277,11.277,0,0,1-2.24-7.808a2.687,2.687,0,0,1,.528-.168,6.381,6.381,0,0,1,.664-.112,5.39,5.39,0,0,1,.616-.04,2.46,2.46,0,0,1,1.672.576A2.144,2.144,0,0,1,1.9-5.84q0,.32.008.784t.024.968q.016.5.032.984t.016.864H.064Q.1-2.512.1-2.888T.12-3.68Q.128-4.1.136-4.488T.144-5.2A1.232,1.232,0,0,0-.264-6.264a1.5,1.5,0,0,0-.9-.3,3.091,3.091,0,0,0-1.352.328,4.353,4.353,0,0,0-1.144.776q-.352.352-.712.784t-.776.976l-1.712-1.28a21.338,21.338,0,0,0,1.8-1.856A13.5,13.5,0,0,0-3.776-8.608a11.168,11.168,0,0,0,.864-1.76A9.684,9.684,0,0,0-2.52-11.7a8.141,8.141,0,0,0,.184-1.3ZM-6.24-11.36q.608.1,1.408.144t1.408.048q1.056,0,2.312-.048t2.552-.168q1.3-.12,2.464-.312L3.888-9.84q-.848.112-1.832.2t-2,.144q-1.016.056-1.944.08t-1.648.024q-.32,0-.792-.008T-5.3-9.432q-.5-.024-.944-.056ZM6.432-6.816q-.256.08-.6.2l-.688.24q-.344.12-.616.232-.768.3-1.816.736T.528-4.4a9.774,9.774,0,0,0-1.216.752A3.209,3.209,0,0,0-1.44-2.9,1.434,1.434,0,0,0-1.7-2.08a.976.976,0,0,0,.144.552.979.979,0,0,0,.432.344,2.452,2.452,0,0,0,.72.176A9.429,9.429,0,0,0,.624-.96q1.024,0,2.256-.12t2.288-.328L5.1.656q-.512.064-1.3.136T2.184.9Q1.344.928.576.928a9.552,9.552,0,0,1-2.24-.24,3.151,3.151,0,0,1-1.56-.824,2.208,2.208,0,0,1-.568-1.608,3.027,3.027,0,0,1,.376-1.5,4.575,4.575,0,0,1,1-1.216,9.208,9.208,0,0,1,1.368-.984Q-.3-5.888.416-6.256q.736-.384,1.328-.656T2.856-7.4q.52-.216,1-.44.464-.208.9-.408t.88-.424ZM13.7-5.28H23.28v1.712H13.7Zm5.136-5.568h1.712v2.32a.533.533,0,0,0,.072.344.4.4,0,0,0,.28.072h.768a.3.3,0,0,0,.224-.08A.605.605,0,0,0,22-8.528q.032-.256.048-.8a2.671,2.671,0,0,0,.7.368,5.95,5.95,0,0,0,.808.256,4.358,4.358,0,0,1-.28,1.288,1.278,1.278,0,0,1-.536.64,1.789,1.789,0,0,1-.864.184H20.608a2.786,2.786,0,0,1-1.12-.176.946.946,0,0,1-.52-.608,3.953,3.953,0,0,1-.136-1.152Zm-4.976-2.016h9.392v3.2H21.536v-1.568H15.488v1.648H13.856ZM17.5-6.88h1.888v8.3H17.5Zm-1.232-3.952H18a10.353,10.353,0,0,1-.208,1.648,3.809,3.809,0,0,1-.528,1.3,3.235,3.235,0,0,1-1.056.976,6.5,6.5,0,0,1-1.776.688,3.551,3.551,0,0,0-.384-.712,3.713,3.713,0,0,0-.528-.648,5.76,5.76,0,0,0,1.416-.472,2.19,2.19,0,0,0,.808-.672,2.408,2.408,0,0,0,.376-.912A9.63,9.63,0,0,0,16.272-10.832Zm3.6,6.384a8.475,8.475,0,0,0,1.016,1.456,10.269,10.269,0,0,0,1.36,1.32,9.142,9.142,0,0,0,1.512,1Q23.552-.5,23.3-.24T22.832.3a4.8,4.8,0,0,0-.368.52A9.541,9.541,0,0,1,20.9-.448a12.969,12.969,0,0,1-1.4-1.64A12.755,12.755,0,0,1,18.4-3.92Zm-2.784-.176,1.488.5a11.8,11.8,0,0,1-1.208,2.04A11.469,11.469,0,0,1,15.792-.344,8.839,8.839,0,0,1,13.936.944q-.224-.336-.568-.776a3.675,3.675,0,0,0-.664-.68A8.79,8.79,0,0,0,14.48-1.544,9,9,0,0,0,16-2.976,8.146,8.146,0,0,0,17.088-4.624ZM8.336-5.552q.96-.208,2.3-.56t2.7-.736l.24,1.728q-1.232.368-2.488.736t-2.328.672Zm.256-5.008h4.9V-8.8h-4.9Zm1.68-3.024h1.76V-.592A3.285,3.285,0,0,1,11.9.456a1.143,1.143,0,0,1-.5.616,2.264,2.264,0,0,1-.888.3,8.179,8.179,0,0,1-1.336.064A5.122,5.122,0,0,0,8.992.568a6.073,6.073,0,0,0-.32-.9q.448.016.824.024a4.666,4.666,0,0,0,.52-.008.28.28,0,0,0,.2-.056.309.309,0,0,0,.056-.216Zm24.176.688q-.016.128-.04.408t-.04.56q-.016.28-.032.408-.016.32-.016.856v1.192q0,.656.008,1.32T34.344-6.9q.008.584.008.968l-2-.672V-8.52q0-.6-.008-1.192t-.024-1.072q-.016-.48-.032-.72-.032-.5-.08-.872t-.08-.52Zm-9.04,1.984q.7,0,1.6-.016l1.872-.032,1.92-.032q.944-.016,1.776-.024t1.44-.008q.608,0,1.328-.008t1.424-.008H38.96l-.016,1.888q-.752-.032-1.984-.056t-3.008-.024q-1.088,0-2.208.024t-2.224.056q-1.1.032-2.128.072t-1.936.1Zm8.656,4.736A6.481,6.481,0,0,1,33.752-4a2.629,2.629,0,0,1-.936,1.3,2.627,2.627,0,0,1-1.552.44,2.554,2.554,0,0,1-.936-.192,3.038,3.038,0,0,1-.9-.56,2.687,2.687,0,0,1-.664-.912,3.062,3.062,0,0,1-.248-1.28,2.825,2.825,0,0,1,.432-1.576,3,3,0,0,1,1.16-1.04,3.451,3.451,0,0,1,1.608-.376,3.132,3.132,0,0,1,1.768.472,2.939,2.939,0,0,1,1.072,1.272,4.36,4.36,0,0,1,.36,1.808,5.64,5.64,0,0,1-.256,1.632,5.584,5.584,0,0,1-.84,1.656A6.027,6.027,0,0,1,32.248.112a8.663,8.663,0,0,1-2.456,1.072L28.08-.512a12.067,12.067,0,0,0,1.9-.544A6.035,6.035,0,0,0,31.528-1.9a3.62,3.62,0,0,0,1.04-1.264,4.005,4.005,0,0,0,.376-1.808,1.585,1.585,0,0,0-.376-1.152,1.22,1.22,0,0,0-.9-.384,1.309,1.309,0,0,0-.592.144,1.128,1.128,0,0,0-.464.432,1.326,1.326,0,0,0-.176.7,1.1,1.1,0,0,0,.376.872,1.266,1.266,0,0,0,.856.328,1.049,1.049,0,0,0,.68-.24,1.264,1.264,0,0,0,.392-.8,3.666,3.666,0,0,0-.16-1.5Z" transform="translate(104.5 36)" fill="#fff"/>
  <g id="グループ_61410" data-name="グループ 61410" transform="translate(41 20.669)" clip-path="url(#clip-path)">
    <path id="パス_153958" data-name="パス 153958" d="M26.181,25.6a2.377,2.377,0,0,0-2.373,2.375.329.329,0,1,0,.658,0,1.718,1.718,0,0,1,1.715-1.716.329.329,0,0,0,0-.659" transform="translate(-19.738 -20.979)" fill="#fff"/>
    <path id="パス_153959" data-name="パス 153959" d="M11.091,9.246A6.014,6.014,0,0,0,2.79.94,6.059,6.059,0,0,0,.94,2.791a6.014,6.014,0,0,0,8.3,8.306,6.06,6.06,0,0,0,1.849-1.851m-3.125.574a4.272,4.272,0,0,1-5.75-5.754,4.3,4.3,0,0,1,1.85-1.85A4.272,4.272,0,0,1,9.815,7.97,4.3,4.3,0,0,1,7.966,9.821" transform="translate(1.149 1.48)" fill="#fff"/>
    <path id="パス_153960" data-name="パス 153960" d="M86.813,85l-3.473-3.466a7.154,7.154,0,0,1-1.85,1.85l3.473,3.466A1.308,1.308,0,1,0,86.813,85" transform="translate(-70.345 -70.051)" fill="#fff"/>
  </g>
</svg>
