<svg xmlns="http://www.w3.org/2000/svg" xmlns:xlink="http://www.w3.org/1999/xlink" width="187" height="60" viewBox="0 0 187 60">
  <defs>
    <clipPath id="clip-path">
      <rect id="長方形_22929" data-name="長方形 22929" width="16.345" height="12.829" fill="#fff"/>
    </clipPath>
  </defs>
  <g id="グループ_61517" data-name="グループ 61517" transform="translate(-188)">
    <rect id="長方形_22928" data-name="長方形 22928" width="187" height="60" transform="translate(188)" fill="#d00303"/>
    <g id="グループ_61061" data-name="グループ 61061" transform="translate(197 23)">
      <g id="グループ_61060" data-name="グループ 61060" transform="translate(0 0)" clip-path="url(#clip-path)">
        <path id="パス_147665" data-name="パス 147665" d="M16.3,1.827a2.262,2.262,0,0,0-.468-.991A1.954,1.954,0,0,0,15.68.665,2.262,2.262,0,0,0,14.077,0H2.267a2.265,2.265,0,0,0-1.6.665A2,2,0,0,0,.51.835a2.235,2.235,0,0,0-.466.991A2.2,2.2,0,0,0,0,2.267v8.295a2.254,2.254,0,0,0,.188.9,2.222,2.222,0,0,0,.476.7c.051.051.1.1.156.143a2.265,2.265,0,0,0,1.447.521h11.81a2.251,2.251,0,0,0,1.447-.523,1.957,1.957,0,0,0,.156-.141,2.269,2.269,0,0,0,.479-.7v0a2.242,2.242,0,0,0,.186-.9V2.267a2.334,2.334,0,0,0-.042-.441M1.485,1.485a1.1,1.1,0,0,1,.783-.325h11.81a1.091,1.091,0,0,1,.783.325,1.078,1.078,0,0,1,.1.116L8.769,7A.909.909,0,0,1,7.576,7L1.388,1.6a.822.822,0,0,1,.1-.114M1.16,10.562V2.8l4.48,3.908-4.477,3.9a.327.327,0,0,1,0-.048m12.918,1.107H2.267a1.091,1.091,0,0,1-.548-.145L6.443,7.407l.441.384a1.963,1.963,0,0,0,2.579,0L9.9,7.407l4.722,4.117a1.092,1.092,0,0,1-.548.145m1.107-1.107a.346.346,0,0,1,0,.048l-4.477-3.9L15.185,2.8Z" transform="translate(0 0)" fill="#fff"/>
      </g>
    </g>
    <path id="パス_158738" data-name="パス 158738" d="M-68.24-13.6l1.888.56a13.119,13.119,0,0,1-1.024,1.728,13.7,13.7,0,0,1-1.272,1.568A13.913,13.913,0,0,1-70-8.48a3.538,3.538,0,0,0-.448-.432q-.288-.24-.592-.464t-.528-.368a9.451,9.451,0,0,0,1.92-1.7A8.726,8.726,0,0,0-68.24-13.6Zm-.128,1.7h11.024v1.68H-68.832Zm-2.848,3.728h14.464v1.712H-71.216Zm.256,3.744h13.968V-2.72H-70.96Zm4.752-6.88h1.6v7.776h-1.6Zm-2.848,0h1.712V-3.52h-1.712Zm5.632,0h1.6V-3.52h-1.6Zm2.816,0h1.76V-3.52h-1.76Zm-6.08,9.488,1.776-.192q.16.72.28,1.568A13.062,13.062,0,0,1-64.5.992l-1.888.272q0-.384-.04-.912t-.1-1.1Q-66.592-1.328-66.688-1.824Zm3.184.048,1.792-.3q.208.464.4,1.008t.336,1.056a7.905,7.905,0,0,1,.208.928l-1.92.368A11.989,11.989,0,0,0-63-.176Q-63.232-1.04-63.5-1.776Zm3.168-.1,1.84-.576q.384.5.768,1.072t.736,1.144A7.83,7.83,0,0,1-56.448.784l-1.968.656A10.444,10.444,0,0,0-58.9.432q-.312-.576-.688-1.176T-60.336-1.872Zm-9.232-.512,1.856.464A10.141,10.141,0,0,1-68.464-.1a7.228,7.228,0,0,1-1.072,1.552L-71.376.7a6.052,6.052,0,0,0,1.04-1.36A8.238,8.238,0,0,0-69.568-2.384ZM-52.96-13.52h1.76V1.392h-1.76Zm-2.432,5.264h6.56v1.792h-6.56Zm2.08.944,1.072.528q-.208.8-.48,1.688t-.608,1.768q-.336.88-.7,1.656A8.608,8.608,0,0,1-54.816-.32a4.989,4.989,0,0,0-.232-.664q-.152-.36-.32-.712T-55.68-2.3a8.812,8.812,0,0,0,.936-1.464q.456-.872.84-1.808A13.691,13.691,0,0,0-53.312-7.312Zm2.1.928q.128.128.376.4t.552.616q.3.344.584.688t.512.616a4.943,4.943,0,0,1,.328.416l-1.168,1.5q-.16-.352-.416-.824t-.56-.976q-.3-.5-.592-.952t-.5-.736Zm-4.192-5.9,1.344-.352a12.867,12.867,0,0,1,.376,1.248q.168.672.28,1.312t.16,1.152l-1.44.384a9.221,9.221,0,0,0-.12-1.16q-.1-.648-.256-1.328A12.83,12.83,0,0,0-55.408-12.288Zm5.264-.432,1.616.352q-.192.656-.416,1.344t-.448,1.32q-.224.632-.416,1.112l-1.216-.352q.176-.512.344-1.176t.312-1.352Q-50.224-12.16-50.144-12.72Zm6.064-.88h1.792V1.424H-44.08ZM-48.864-3.584l8.224-1.472.288,1.776-8.224,1.488Zm.9-7.84.944-1.3q.448.256.936.592t.928.688a4.985,4.985,0,0,1,.7.656l-.992,1.44a4.594,4.594,0,0,0-.664-.688q-.424-.368-.9-.736T-47.968-11.424Zm-.72,4.032.9-1.376A10.8,10.8,0,0,1-46.8-8.2q.512.328.976.656a5.068,5.068,0,0,1,.752.632l-.976,1.536a5.114,5.114,0,0,0-.7-.664q-.448-.36-.952-.72A11.2,11.2,0,0,0-48.688-7.392Zm12.224-6.144,1.824.56a26.672,26.672,0,0,1-1.112,2.712A26.045,26.045,0,0,1-37.16-7.672,16.168,16.168,0,0,1-38.736-5.52q-.1-.24-.28-.616t-.392-.76a5.523,5.523,0,0,0-.384-.624,11.629,11.629,0,0,0,1.3-1.7A18.682,18.682,0,0,0-37.352-11.3,18.981,18.981,0,0,0-36.464-13.536ZM-37.76-9.1l1.824-1.824V1.408H-37.76Zm6.816-4.416h1.872V1.312h-1.872Zm-4.064,2.784H-24.64v1.824H-35.008Zm1.952,7.76h6.144v1.712h-6.144Zm4.672-6.736A19.854,19.854,0,0,0-27.312-7a19.518,19.518,0,0,0,1.456,2.544,12.045,12.045,0,0,0,1.664,1.992,5.972,5.972,0,0,0-.76.672,5.723,5.723,0,0,0-.68.816,13.914,13.914,0,0,1-1.648-2.3,21.885,21.885,0,0,1-1.408-2.9A31.668,31.668,0,0,1-29.76-9.328Zm-3.152-.16,1.392.384a27.315,27.315,0,0,1-1.1,3.264,21.866,21.866,0,0,1-1.472,2.96A12.855,12.855,0,0,1-34.48-.928q-.16-.224-.4-.5t-.5-.536a5.62,5.62,0,0,0-.472-.416A10.712,10.712,0,0,0-34.1-4.408a18.842,18.842,0,0,0,1.488-2.624A19.7,19.7,0,0,0-31.536-9.872ZM-14.688-5.92v1.472h4.1V-5.92Zm-1.568-1.392h7.3v4.256h-7.3Zm3.488-4.608a9.677,9.677,0,0,1-.912,1.344,11.842,11.842,0,0,1-1.256,1.344A9.965,9.965,0,0,1-16.4-8.112a5.608,5.608,0,0,0-.384-.808,4.98,4.98,0,0,0-.5-.744,7.493,7.493,0,0,0,1.464-1.088,11.074,11.074,0,0,0,1.256-1.4,8.9,8.9,0,0,0,.9-1.432h1.68a13.333,13.333,0,0,0,1.072,1.432,10.474,10.474,0,0,0,1.3,1.28,7.381,7.381,0,0,0,1.392.92,5.831,5.831,0,0,0-.52.792q-.264.472-.44.856a9.191,9.191,0,0,1-1.36-1.016,13.363,13.363,0,0,1-1.248-1.272A10.265,10.265,0,0,1-12.768-11.92Zm-.752,2.928h1.7v3.136A14.536,14.536,0,0,1-11.96-3.9a7.027,7.027,0,0,1-.576,1.968A6.413,6.413,0,0,1-13.824-.1,8.322,8.322,0,0,1-16.1,1.472a4.48,4.48,0,0,0-.328-.456q-.2-.248-.424-.5a3.026,3.026,0,0,0-.416-.392,7.471,7.471,0,0,0,2.008-1.3,5.161,5.161,0,0,0,1.12-1.5,5.655,5.655,0,0,0,.5-1.608,10.989,10.989,0,0,0,.12-1.6Zm1.856,5.1a7.08,7.08,0,0,0,1.288,2.264A5.4,5.4,0,0,0-8.288-.1a4.266,4.266,0,0,0-.44.44Q-8.96.608-9.168.9t-.352.528A6.127,6.127,0,0,1-11.736-.592,11.233,11.233,0,0,1-13.12-3.52Zm-3.488-5.76h4.944V-8.16h-4.944Zm-6.688-.928h4.672V-9.12H-21.84Zm0,2.432h4.672V-6.7H-21.84Zm-.912,2.432h5.488v1.488h-5.488ZM-20.08-12.1h1.52v7.2h-1.52Zm.528,8.592.752-.24a9.622,9.622,0,0,1,.456,1.04,6.292,6.292,0,0,1,.3.992l-.784.288a7.921,7.921,0,0,0-.28-1.008A8.44,8.44,0,0,0-19.552-3.5Zm-1.04.224.816-.144a10.32,10.32,0,0,1,.352,1.336,9.667,9.667,0,0,1,.176,1.24l-.848.176a10.423,10.423,0,0,0-.168-1.256A12.257,12.257,0,0,0-20.592-3.28Zm-1.1.08.832-.08a10.93,10.93,0,0,1,.16,1.528q.032.824.016,1.416l-.88.128a11.559,11.559,0,0,0,.008-1.44Q-21.6-2.48-21.7-3.2Zm-1.184-.336,1.056.208q-.032.736-.12,1.456a8.1,8.1,0,0,1-.272,1.336,3.576,3.576,0,0,1-.5,1.064L-23.7,0a3.3,3.3,0,0,0,.448-.968A8.286,8.286,0,0,0-23-2.184Q-22.912-2.848-22.88-3.536Zm.128-9.456h5.9v1.552h-4.32v6.752h-1.584Zm4.656,7.28h1.568v.24q0,.24-.016.4-.064,1.936-.16,3.136a17.282,17.282,0,0,1-.224,1.848,2.188,2.188,0,0,1-.32.888,1.243,1.243,0,0,1-.416.392,1.661,1.661,0,0,1-.528.168,3.633,3.633,0,0,1-.616.056q-.376.008-.792-.008A3.6,3.6,0,0,0-19.728.64a2.981,2.981,0,0,0-.288-.72q.32.032.576.048t.416.016A.5.5,0,0,0-18.8-.064a.637.637,0,0,0,.192-.16,1.676,1.676,0,0,0,.216-.688q.088-.528.16-1.616T-18.1-5.44Zm17.072-7.28q-.016.128-.048.392t-.056.528q-.024.264-.04.472-.032.464-.056,1.016t-.04,1.136q-.016.584-.024,1.176T-1.3-7.12q0,.656.016,1.448T-1.24-4.1q.024.776.032,1.416T-1.2-1.7A4.313,4.313,0,0,1-1.416-.16,1.406,1.406,0,0,1-2.032.6,1.923,1.923,0,0,1-2.96.816,3.7,3.7,0,0,1-4.192.584,4.731,4.731,0,0,1-5.416-.064a3.71,3.71,0,0,1-.928-.968A2.141,2.141,0,0,1-6.7-2.224,2.5,2.5,0,0,1-6.12-3.752a6.336,6.336,0,0,1,1.552-1.4A9.149,9.149,0,0,1-2.48-6.176,11.61,11.61,0,0,1-.272-6.76a12.929,12.929,0,0,1,2.048-.184A5.8,5.8,0,0,1,4-6.536,3.7,3.7,0,0,1,5.584-5.344a3.043,3.043,0,0,1,.592,1.888,4.131,4.131,0,0,1-.352,1.712A3.4,3.4,0,0,1,4.7-.392,5.881,5.881,0,0,1,2.64.5Q2.1.608,1.56.664T.544.752L-.192-1.312q.544,0,1.048-.024a8.849,8.849,0,0,0,.92-.088A4.819,4.819,0,0,0,2.96-1.808a2.187,2.187,0,0,0,.832-.672,1.635,1.635,0,0,0,.3-.992A1.475,1.475,0,0,0,3.8-4.4a1.881,1.881,0,0,0-.824-.592A3.349,3.349,0,0,0,1.744-5.2,10.306,10.306,0,0,0-.3-4.992a11.905,11.905,0,0,0-1.976.576,6.989,6.989,0,0,0-1.264.632,3.833,3.833,0,0,0-.88.744,1.172,1.172,0,0,0-.32.736.608.608,0,0,0,.12.36,1.186,1.186,0,0,0,.312.3,1.815,1.815,0,0,0,.392.2,1.044,1.044,0,0,0,.344.072A.514.514,0,0,0-3.2-1.512a.741.741,0,0,0,.144-.536q0-.432-.024-1.24t-.048-1.8q-.024-.992-.024-1.968,0-.672.008-1.36t.008-1.312q0-.624.008-1.1t.008-.752q0-.176-.016-.448t-.04-.552a2.872,2.872,0,0,0-.056-.408Zm4.56,1.728q.608.288,1.368.7t1.456.824a10.962,10.962,0,0,1,1.112.728l-.96,1.632a8.423,8.423,0,0,0-.792-.576q-.488-.32-1.056-.656t-1.1-.632q-.528-.3-.912-.472Zm-9.808.88q.7.08,1.24.1t.968.024q.624,0,1.376-.056t1.536-.16q.784-.1,1.528-.248t1.352-.32l.048,1.984Q1.1-8.9.32-8.776t-1.576.216q-.792.1-1.5.144T-4-8.368q-.8,0-1.312-.016t-.928-.064ZM9.552-11.456H22.528v9.52h-2v-7.68H11.472v7.76H9.552ZM10.816-8H21.472v1.776H10.816ZM10.8-4.544H21.5V-2.7H10.8ZM14.944-13.6H16.96V1.424H14.944Zm14.992.912q-.064.5-.12,1.072t-.088,1.056q-.016.656-.056,1.592t-.064,1.96q-.024,1.024-.048,2.016t-.024,1.728a2.376,2.376,0,0,0,.3,1.272,1.644,1.644,0,0,0,.792.672,2.973,2.973,0,0,0,1.12.2,5.851,5.851,0,0,0,1.808-.264A5.991,5.991,0,0,0,35.04-2.1a6.446,6.446,0,0,0,1.208-1.04,10.289,10.289,0,0,0,.968-1.248l1.456,1.76a8.649,8.649,0,0,1-1.008,1.216,8.732,8.732,0,0,1-1.48,1.2A7.935,7.935,0,0,1,34.208.7a8.244,8.244,0,0,1-2.48.352,5.842,5.842,0,0,1-2.28-.408,3.185,3.185,0,0,1-1.5-1.264,4.119,4.119,0,0,1-.536-2.216q0-.656.016-1.5t.048-1.752q.032-.912.048-1.784t.032-1.576q.016-.7.016-1.12,0-.576-.048-1.128a7.345,7.345,0,0,0-.16-1.032Zm16.528-.24h3.392V-11.1H46.464Zm2.416,0H50.9a30.585,30.585,0,0,0,.352,3.264,14.411,14.411,0,0,0,.768,2.872A8.392,8.392,0,0,0,53.36-4.464a6.456,6.456,0,0,0,2.1,1.648,4.422,4.422,0,0,0-.52.416q-.28.256-.544.536a5.594,5.594,0,0,0-.44.52,7.694,7.694,0,0,1-2.144-1.88,9.78,9.78,0,0,1-1.4-2.5,15.97,15.97,0,0,1-.816-2.992,30.88,30.88,0,0,1-.392-3.344h-.32Zm-.048,3.344,1.968.272a15.96,15.96,0,0,1-1.616,4.72A9.554,9.554,0,0,1,46.32-1.328a5.059,5.059,0,0,0-.408-.464q-.264-.272-.56-.552a5.1,5.1,0,0,0-.52-.44A7.254,7.254,0,0,0,47.48-5.536,12.524,12.524,0,0,0,48.832-9.584Zm-4.4,2.224v5.9H42.56V-5.584H40.7V-7.36Zm0,5.072a2.908,2.908,0,0,0,1.392,1.152,6.278,6.278,0,0,0,2.144.416q.7.032,1.672.04t2.04-.008q1.072-.016,2.1-.064t1.832-.112q-.1.224-.224.576t-.232.72a6.189,6.189,0,0,0-.152.656q-.72.048-1.648.072t-1.9.032q-.976.008-1.888-.008t-1.632-.048A8.158,8.158,0,0,1,45.424.68a4.525,4.525,0,0,1-1.84-1.32q-.528.448-1.08.928T41.3,1.28l-.944-2q.56-.336,1.168-.736t1.168-.832ZM40.72-12.064l1.424-1.152a10.581,10.581,0,0,1,1.008.744q.512.424.96.864a6.98,6.98,0,0,1,.72.808l-1.52,1.28a5.434,5.434,0,0,0-.664-.832q-.424-.448-.936-.9T40.72-12.064Zm18.688-.048q.336.032.712.056t.632.024q.352,0,.808-.016l.936-.032q.48-.016.912-.048t.7-.048a3.744,3.744,0,0,0,.584-.08,3.457,3.457,0,0,0,.5-.144l1.28.992q-.16.192-.3.344a1.568,1.568,0,0,0-.24.328,11.985,11.985,0,0,0-.624,1.224q-.352.776-.744,1.672T63.808-6.1q-.24.544-.5,1.152t-.528,1.208q-.272.6-.528,1.12t-.5.9A3.33,3.33,0,0,1,60.688-.648,2.788,2.788,0,0,1,59.264-.3,2.417,2.417,0,0,1,57.5-.992a2.54,2.54,0,0,1-.7-1.9,3.832,3.832,0,0,1,.432-1.792,4.388,4.388,0,0,1,1.224-1.448,5.857,5.857,0,0,1,1.864-.952,7.833,7.833,0,0,1,2.352-.336,11.173,11.173,0,0,1,2.688.32,14.862,14.862,0,0,1,2.424.816,18.93,18.93,0,0,1,2.032,1.032q.9.536,1.544.968l-.944,2.224A14.55,14.55,0,0,0,68.8-3.36,16.472,16.472,0,0,0,66.888-4.5a10.83,10.83,0,0,0-2.16-.824,9.212,9.212,0,0,0-2.376-.3,4.867,4.867,0,0,0-1.992.368,3.222,3.222,0,0,0-1.256.92A1.836,1.836,0,0,0,58.672-3.2a.82.82,0,0,0,.2.592.634.634,0,0,0,.472.208.715.715,0,0,0,.432-.128,2.027,2.027,0,0,0,.4-.432,4.989,4.989,0,0,0,.408-.688q.2-.4.416-.88t.432-.976q.216-.5.424-.96.288-.64.592-1.336t.584-1.352q.28-.656.52-1.152-.24.016-.592.024t-.744.024q-.392.016-.768.04l-.648.04q-.24.016-.616.048t-.68.08ZM69.952-8.32a26.928,26.928,0,0,1-.344,3.112,10.391,10.391,0,0,1-.784,2.576,7.324,7.324,0,0,1-1.464,2.1,9.488,9.488,0,0,1-2.368,1.688L63.3-.24a8.214,8.214,0,0,0,2.36-1.472A6.235,6.235,0,0,0,67-3.456a7.171,7.171,0,0,0,.632-1.784,12.263,12.263,0,0,0,.224-1.576q.032-.464.032-.92t-.032-.824Z" transform="translate(290 46)" fill="#fff"/>
    <path id="パス_158737" data-name="パス 158737" d="M-71.232-3.744h14.464v1.52H-71.232Zm3.072-5.968h9.7v1.248h-9.7Zm0,1.92h9.728v1.264H-68.16Zm-.384-4.064h10.88v1.488h-10.88Zm4,.944h1.84V-5.3h-1.84Zm-.448,6.144h1.9V1.424h-1.9Zm-.16,1.648,1.44.72a12.167,12.167,0,0,1-1.4,1.16,15.327,15.327,0,0,1-1.7,1.056,19.528,19.528,0,0,1-1.856.872,17.436,17.436,0,0,1-1.856.64Q-70.752.976-71.1.5a5.975,5.975,0,0,0-.656-.76q.912-.192,1.856-.488t1.832-.672a15.149,15.149,0,0,0,1.64-.808A7.889,7.889,0,0,0-65.152-3.12Zm2.288-.048a8.369,8.369,0,0,0,1.256.9,13.984,13.984,0,0,0,1.6.808q.872.376,1.8.672t1.824.5a3.285,3.285,0,0,0-.432.456q-.224.28-.432.568a5.868,5.868,0,0,0-.336.512,16.918,16.918,0,0,1-1.848-.64,18.994,18.994,0,0,1-1.824-.864,16.668,16.668,0,0,1-1.672-1.032,12.48,12.48,0,0,1-1.408-1.144Zm-.9-10.432,2.16.272q-.368.7-.776,1.36t-.744,1.1l-1.7-.32q.288-.528.592-1.2A9.5,9.5,0,0,0-63.76-13.6Zm-4.1-.032,1.984.4q-.544.928-1.2,1.84a19.387,19.387,0,0,1-1.456,1.784A15.291,15.291,0,0,1-70.32-7.952a3.711,3.711,0,0,0-.384-.456q-.24-.248-.5-.48a3.592,3.592,0,0,0-.472-.36,12.121,12.121,0,0,0,1.624-1.384,13.346,13.346,0,0,0,1.288-1.52A10.839,10.839,0,0,0-67.856-13.632Zm-1.536,2.752h1.808v5.04H-57.2V-4.4H-69.392ZM-52.32-9.072h8.7v1.616h-8.7Zm5.152-1.584h1.776V-3.3a2.574,2.574,0,0,1-.16,1.016,1.1,1.1,0,0,1-.592.552,3.215,3.215,0,0,1-1.04.216q-.624.04-1.5.04a5.3,5.3,0,0,0-.192-.8,6.042,6.042,0,0,0-.3-.8q.528.016,1.04.016h.672a.376.376,0,0,0,.24-.056.282.282,0,0,0,.064-.216Zm-4.4,4.288,1.328-.72a8.785,8.785,0,0,1,.712.848q.344.464.632.92a4.68,4.68,0,0,1,.432.84l-1.424.8a5.394,5.394,0,0,0-.392-.84,11.179,11.179,0,0,0-.6-.952Q-51.216-5.952-51.568-6.368Zm-3.28-6.544H-41.1V1.408H-43.12v-12.48h-9.808V1.408h-1.92Zm1.136,11.84h11.36V.768h-11.36Zm27.5-12.432,1.136,1.392q-.912.224-1.984.384t-2.224.28q-1.152.12-2.3.2t-2.232.128a3.585,3.585,0,0,0-.168-.72,7.5,7.5,0,0,0-.264-.7q1.056-.048,2.168-.144T-29.9-12.9q1.056-.12,2.008-.28T-26.208-13.5Zm-7.536,2.9,1.456-.464q.272.464.544,1.032a5.906,5.906,0,0,1,.384.984l-1.52.544a8.069,8.069,0,0,0-.352-1.016A10.723,10.723,0,0,0-33.744-10.608Zm3.072-.336,1.488-.336q.208.48.4,1.072A8.679,8.679,0,0,1-28.512-9.2l-1.568.4a8.4,8.4,0,0,0-.24-1.024Q-30.5-10.432-30.672-10.944Zm3.872-.56,1.776.528q-.432.8-.888,1.624t-.84,1.384l-1.408-.48q.24-.416.5-.952t.48-1.088Q-26.96-11.04-26.8-11.5Zm-7.616,2.88h9.744V-6h-1.776V-7.072H-32.7v1.056h-1.712Zm.848,2.928h6.816v1.568h-6.816Zm6.224,0h.336l.3-.064,1.136.432a9.129,9.129,0,0,1-1.3,2.632A8.694,8.694,0,0,1-28.816-.76,10.821,10.821,0,0,1-31.3.568a18.739,18.739,0,0,1-2.912.84,4.3,4.3,0,0,0-.2-.56,6.737,6.737,0,0,0-.3-.624,3.194,3.194,0,0,0-.328-.5A15.126,15.126,0,0,0-32.384-.9a10.555,10.555,0,0,0,2.24-1.048,7,7,0,0,0,1.72-1.5,6.125,6.125,0,0,0,1.08-2.008Zm-4.224,1.36a6.679,6.679,0,0,0,2.648,2.7A11.938,11.938,0,0,0-24.576-.224,3.355,3.355,0,0,0-25,.264q-.216.3-.408.608t-.32.552a11.415,11.415,0,0,1-4.56-1.84,9.257,9.257,0,0,1-2.9-3.472Zm-8.1-1.184q.96-.208,2.3-.56t2.7-.736l.24,1.728-2.488.744q-1.256.376-2.328.68Zm.192-5.04h4.9V-8.8h-4.9Zm1.728-3.024h1.76V-.592A3.285,3.285,0,0,1-36.12.456a1.143,1.143,0,0,1-.5.616,2.409,2.409,0,0,1-.9.3,8.039,8.039,0,0,1-1.32.064,5.122,5.122,0,0,0-.176-.872,6.073,6.073,0,0,0-.32-.9q.432.016.808.024a4.666,4.666,0,0,0,.52-.008A.309.309,0,0,0-37.8-.376a.309.309,0,0,0,.056-.216ZM-23.1-3.808H-8.832v1.584H-23.1Zm.048-7.168H-8.88v1.568H-23.056Zm.656,2.864H-9.5v1.5H-22.4Zm.784,2.208H-10.24v1.392H-21.616Zm4.64-1.456h1.9v8.8h-1.9Zm-1.392-6.256h1.792v3.392h-1.792Zm2.976,0h1.808v3.28h-1.808ZM-17.328-3.1l1.52.688A9.7,9.7,0,0,1-17.624-.872,14.884,14.884,0,0,1-19.9.376a17.448,17.448,0,0,1-2.448.872A4.609,4.609,0,0,0-22.7.712q-.216-.3-.448-.584a4.48,4.48,0,0,0-.44-.48,21.834,21.834,0,0,0,2.392-.656,14,14,0,0,0,2.2-.944A8.1,8.1,0,0,0-17.328-3.1Zm2.64-.048a6.9,6.9,0,0,0,1.184.9,10.829,10.829,0,0,0,1.512.768,14.871,14.871,0,0,0,1.744.6,15.88,15.88,0,0,0,1.864.4q-.224.224-.472.52A6.758,6.758,0,0,0-9.32.664q-.216.328-.36.6A13.829,13.829,0,0,1-11.56.648a14.41,14.41,0,0,1-1.752-.856A12.32,12.32,0,0,1-14.88-1.28a9.115,9.115,0,0,1-1.3-1.264Zm2.976-10.32,2,.48q-.368.656-.752,1.272t-.7,1.048l-1.568-.48q.192-.32.384-.728t.36-.832Q-11.824-13.136-11.712-13.472Zm-2.112,3.424,2.032.48q-.336.56-.64,1.08t-.544.888l-1.632-.448q.208-.448.432-1A10,10,0,0,0-13.824-10.048Zm-8.1-2.912,1.648-.56a11.309,11.309,0,0,1,.7,1.144,7.624,7.624,0,0,1,.512,1.112l-1.728.64a5.933,5.933,0,0,0-.464-1.136Q-21.584-12.416-21.92-12.96Zm2.032,3.584,1.872-.3a7.636,7.636,0,0,1,.408.76,5.478,5.478,0,0,1,.3.744l-1.952.336a7.022,7.022,0,0,0-.256-.752A6.032,6.032,0,0,0-19.888-9.376ZM0-8.128a1.932,1.932,0,0,1,1.032.28,2.207,2.207,0,0,1,.736.736,1.932,1.932,0,0,1,.28,1.032,1.944,1.944,0,0,1-.28,1.024,2.183,2.183,0,0,1-.736.744A1.932,1.932,0,0,1,0-4.032a1.944,1.944,0,0,1-1.024-.28,2.16,2.16,0,0,1-.744-.744,1.944,1.944,0,0,1-.28-1.024,1.932,1.932,0,0,1,.28-1.032,2.183,2.183,0,0,1,.744-.736A1.944,1.944,0,0,1,0-8.128Zm13.424-4.64H23.04V1.28H21.216V-11.1H15.184V1.424h-1.76ZM15.6-9.152h5.264V-7.76H15.6ZM14.336-1.184H22.1V.48h-7.76Zm3.088-9.6h1.488v5.152H17.424ZM17.392-5.04v1.68h1.616V-5.04ZM16-6.368h4.464v4.32H16Zm-4.544-7.184,1.744.544a25.148,25.148,0,0,1-1.1,2.776,24.758,24.758,0,0,1-1.416,2.64,16.194,16.194,0,0,1-1.616,2.2,5.983,5.983,0,0,0-.224-.64q-.16-.4-.352-.8T8.16-7.488A12.147,12.147,0,0,0,9.448-9.2a18.051,18.051,0,0,0,1.128-2.088A19.856,19.856,0,0,0,11.456-13.552Zm-1.312,4.4,1.808-1.808.016.016v12.4H10.144Zm23.024-2.5h1.856v9.056H33.168Zm3.776-1.616h1.9V-.9a3.293,3.293,0,0,1-.2,1.3,1.388,1.388,0,0,1-.7.688,4.081,4.081,0,0,1-1.3.3q-.8.072-1.9.072a3.519,3.519,0,0,0-.144-.648Q34.5.448,34.36.088a4.536,4.536,0,0,0-.28-.616q.784.016,1.488.024t.944.008a.5.5,0,0,0,.328-.088.392.392,0,0,0,.1-.312ZM27.488-5.952h3.68v1.68h-3.68Zm2.832,0H32.1l-.008.136q-.008.136-.008.3v.264Q32-3.312,31.9-2.088a15.746,15.746,0,0,1-.232,1.872,2.352,2.352,0,0,1-.36.936,1.413,1.413,0,0,1-.528.432,2.378,2.378,0,0,1-.672.176,7.5,7.5,0,0,1-.848.064q-.528.016-1.088-.016a3.458,3.458,0,0,0-.16-.856,3.441,3.441,0,0,0-.352-.808q.5.048.936.064t.648.016a.946.946,0,0,0,.3-.04.546.546,0,0,0,.232-.168,1.585,1.585,0,0,0,.24-.712q.1-.552.176-1.648t.128-2.888Zm-3.232-5.2V-8.96H30.1v-2.192Zm-1.744-1.7h6.608v5.584H25.344Zm1.632,5.072h1.872q-.064,1.264-.208,2.552a16.513,16.513,0,0,1-.472,2.5A9.871,9.871,0,0,1,27.24-.456a7,7,0,0,1-1.576,1.9,4.575,4.575,0,0,0-.576-.752,4.256,4.256,0,0,0-.72-.64,5.234,5.234,0,0,0,1.36-1.6A8.138,8.138,0,0,0,26.48-3.5a14.06,14.06,0,0,0,.352-2.128Q26.928-6.72,26.976-7.776ZM53.792-13.5l1.136,1.392q-.912.224-1.984.384t-2.224.28q-1.152.12-2.3.2t-2.232.128a3.585,3.585,0,0,0-.168-.72,7.5,7.5,0,0,0-.264-.7q1.056-.048,2.168-.144T50.1-12.9q1.056-.12,2.008-.28T53.792-13.5Zm-7.536,2.9,1.456-.464q.272.464.544,1.032a5.906,5.906,0,0,1,.384.984l-1.52.544a8.069,8.069,0,0,0-.352-1.016A10.723,10.723,0,0,0,46.256-10.608Zm3.072-.336,1.488-.336q.208.48.4,1.072A8.679,8.679,0,0,1,51.488-9.2l-1.568.4a8.4,8.4,0,0,0-.24-1.024Q49.5-10.432,49.328-10.944ZM53.2-11.5l1.776.528q-.432.8-.888,1.624t-.84,1.384l-1.408-.48q.24-.416.5-.952t.48-1.088Q53.04-11.04,53.2-11.5Zm-7.616,2.88h9.744V-6H53.552V-7.072H47.3v1.056H45.584ZM46.432-5.7h6.816v1.568H46.432Zm6.224,0h.336l.3-.064,1.136.432a9.129,9.129,0,0,1-1.3,2.632A8.694,8.694,0,0,1,51.184-.76,10.82,10.82,0,0,1,48.7.568a18.739,18.739,0,0,1-2.912.84,4.3,4.3,0,0,0-.2-.56,6.737,6.737,0,0,0-.3-.624,3.194,3.194,0,0,0-.328-.5A15.126,15.126,0,0,0,47.616-.9a10.555,10.555,0,0,0,2.24-1.048,7,7,0,0,0,1.72-1.5,6.125,6.125,0,0,0,1.08-2.008Zm-4.224,1.36a6.679,6.679,0,0,0,2.648,2.7A11.938,11.938,0,0,0,55.424-.224,3.355,3.355,0,0,0,55,.264q-.216.3-.408.608t-.32.552a11.415,11.415,0,0,1-4.56-1.84,9.257,9.257,0,0,1-2.9-3.472Zm-8.1-1.184q.96-.208,2.3-.56t2.7-.736l.24,1.728-2.488.744q-1.256.376-2.328.68Zm.192-5.04h4.9V-8.8h-4.9Zm1.728-3.024h1.76V-.592A3.285,3.285,0,0,1,43.88.456a1.143,1.143,0,0,1-.5.616,2.409,2.409,0,0,1-.9.3,8.039,8.039,0,0,1-1.32.064,5.122,5.122,0,0,0-.176-.872,6.073,6.073,0,0,0-.32-.9q.432.016.808.024a4.666,4.666,0,0,0,.52-.008A.309.309,0,0,0,42.2-.376a.309.309,0,0,0,.056-.216ZM56.9-3.808H71.168v1.584H56.9Zm.048-7.168H71.12v1.568H56.944ZM57.6-8.112H70.5v1.5H57.6ZM58.384-5.9H69.76v1.392H58.384Zm4.64-1.456h1.9v8.8h-1.9Zm-1.392-6.256h1.792v3.392H61.632Zm2.976,0h1.808v3.28H64.608ZM62.672-3.1l1.52.688A9.7,9.7,0,0,1,62.376-.872,14.884,14.884,0,0,1,60.1.376a17.448,17.448,0,0,1-2.448.872A4.609,4.609,0,0,0,57.3.712q-.216-.3-.448-.584a4.479,4.479,0,0,0-.44-.48,21.834,21.834,0,0,0,2.392-.656,14,14,0,0,0,2.2-.944A8.1,8.1,0,0,0,62.672-3.1Zm2.64-.048a6.9,6.9,0,0,0,1.184.9,10.828,10.828,0,0,0,1.512.768,14.871,14.871,0,0,0,1.744.6,15.88,15.88,0,0,0,1.864.4q-.224.224-.472.52a6.757,6.757,0,0,0-.464.624q-.216.328-.36.6A13.829,13.829,0,0,1,68.44.648a14.41,14.41,0,0,1-1.752-.856A12.32,12.32,0,0,1,65.12-1.28a9.115,9.115,0,0,1-1.3-1.264Zm2.976-10.32,2,.48q-.368.656-.752,1.272t-.7,1.048l-1.568-.48q.192-.32.384-.728t.36-.832Q68.176-13.136,68.288-13.472Zm-2.112,3.424,2.032.48q-.336.56-.64,1.08t-.544.888l-1.632-.448q.208-.448.432-1A10,10,0,0,0,66.176-10.048Zm-8.1-2.912,1.648-.56a11.308,11.308,0,0,1,.7,1.144,7.623,7.623,0,0,1,.512,1.112l-1.728.64a5.933,5.933,0,0,0-.464-1.136Q58.416-12.416,58.08-12.96Zm2.032,3.584,1.872-.3a7.635,7.635,0,0,1,.408.76,5.477,5.477,0,0,1,.3.744l-1.952.336a7.022,7.022,0,0,0-.256-.752A6.031,6.031,0,0,0,60.112-9.376Z" transform="translate(290 26)" fill="#fff"/>
  </g>
</svg>
