<svg id="コンポーネント_65_2" data-name="コンポーネント 65 – 2" xmlns="http://www.w3.org/2000/svg" xmlns:xlink="http://www.w3.org/1999/xlink" width="70" height="66.211" viewBox="0 0 70 66.211">
  <defs>
    <clipPath id="clip-path">
      <rect id="長方形_24649" data-name="長方形 24649" width="70" height="66.211" fill="#ff0"/>
    </clipPath>
  </defs>
  <g id="グループ_61247" data-name="グループ 61247">
    <g id="グループ_61246" data-name="グループ 61246" clip-path="url(#clip-path)">
      <path id="パス_152955" data-name="パス 152955" d="M65.753,20.555A140.277,140.277,0,0,0,45.112,3.105a17.858,17.858,0,0,0-20.507.268A177.036,177.036,0,0,0,4.39,20.624a14.646,14.646,0,0,0,.132,21.04A194.944,194.944,0,0,0,26.5,59.762a14.717,14.717,0,0,0,16.876.048l.032-.022a21.051,21.051,0,0,0,14.018,6.424S50.113,61.977,49,55.728a171.433,171.433,0,0,0,16.675-14.45,14.664,14.664,0,0,0,.082-20.723" transform="translate(0 0)" fill="#ff0"/>
    </g>
  </g>
  <path id="パス_158744" data-name="パス 158744" d="M4.992.224a6.273,6.273,0,0,1-2.32-.448,6.056,6.056,0,0,1-2-1.28l1.36-1.632a5.047,5.047,0,0,0,1.432.952,3.858,3.858,0,0,0,1.576.36,2.286,2.286,0,0,0,1.408-.368,1.185,1.185,0,0,0,.48-.992A1.04,1.04,0,0,0,6.7-3.9a2.149,2.149,0,0,0-.632-.472,9.85,9.85,0,0,0-.928-.416L3.568-5.472A5.229,5.229,0,0,1,2.424-6.12a3.341,3.341,0,0,1-.912-1.032,2.928,2.928,0,0,1-.36-1.488,3.005,3.005,0,0,1,.528-1.744,3.705,3.705,0,0,1,1.456-1.224,4.727,4.727,0,0,1,2.112-.456,5.308,5.308,0,0,1,2.032.4,4.994,4.994,0,0,1,1.7,1.136l-1.2,1.472a4.677,4.677,0,0,0-1.168-.72,3.473,3.473,0,0,0-1.36-.256A2.055,2.055,0,0,0,4.024-9.7a1.068,1.068,0,0,0-.456.92.964.964,0,0,0,.256.688,2.247,2.247,0,0,0,.672.472q.416.2.912.408l1.552.624a4.865,4.865,0,0,1,1.256.72,3.02,3.02,0,0,1,.832,1.04,3.338,3.338,0,0,1,.3,1.472,3.241,3.241,0,0,1-.52,1.776A3.733,3.733,0,0,1,7.336-.272,5.09,5.09,0,0,1,4.992.224ZM13.344,0V-9.872H10.016v-1.984h9.04v1.984H15.712V0Zm7.648,0V-11.856h7.264v1.984h-4.9v2.736H27.5v1.984H23.36v3.168h5.072V0Zm9.84,0V-11.856H34.72a7.389,7.389,0,0,1,2.36.352,3.388,3.388,0,0,1,1.664,1.16,3.575,3.575,0,0,1,.616,2.216,3.75,3.75,0,0,1-.616,2.216A3.631,3.631,0,0,1,37.1-4.624a6.135,6.135,0,0,1-2.312.416H33.2V0ZM33.2-6.08h1.424a2.743,2.743,0,0,0,1.816-.512,1.908,1.908,0,0,0,.6-1.536,1.572,1.572,0,0,0-.632-1.432,3.464,3.464,0,0,0-1.864-.408H33.2Z" transform="translate(15 24.752)"/>
  <path id="パス_158743" data-name="パス 158743" d="M7.08.336A5.063,5.063,0,0,1,3.9-.708a6.638,6.638,0,0,1-2.1-3.06,14.363,14.363,0,0,1-.744-4.944A14.134,14.134,0,0,1,1.8-13.644a6.4,6.4,0,0,1,2.1-2.988A5.184,5.184,0,0,1,7.08-17.64a5.184,5.184,0,0,1,3.18,1.008,6.4,6.4,0,0,1,2.1,2.988A14.134,14.134,0,0,1,13.1-8.712a14.363,14.363,0,0,1-.744,4.944,6.638,6.638,0,0,1-2.1,3.06A5.063,5.063,0,0,1,7.08.336Zm0-2.76a1.97,1.97,0,0,0,1.392-.564,3.928,3.928,0,0,0,.936-1.944,16.712,16.712,0,0,0,.336-3.78,16.356,16.356,0,0,0-.336-3.768,3.644,3.644,0,0,0-.936-1.872A2.043,2.043,0,0,0,7.08-14.88a2.027,2.027,0,0,0-1.356.528,3.711,3.711,0,0,0-.972,1.872,15.3,15.3,0,0,0-.36,3.768,15.635,15.635,0,0,0,.36,3.78,4,4,0,0,0,.972,1.944A1.957,1.957,0,0,0,7.08-2.424ZM15.192,0V-2.04q2.3-2.208,4.032-4A22.542,22.542,0,0,0,21.912-9.3a5.117,5.117,0,0,0,.96-2.748,3.352,3.352,0,0,0-.312-1.512,2.223,2.223,0,0,0-.9-.96,2.888,2.888,0,0,0-1.452-.336,3.051,3.051,0,0,0-1.764.552,8.921,8.921,0,0,0-1.476,1.272L15-14.952a9.853,9.853,0,0,1,2.556-2,6.624,6.624,0,0,1,3.108-.684,6.157,6.157,0,0,1,2.94.672,4.824,4.824,0,0,1,1.956,1.884,5.612,5.612,0,0,1,.7,2.844,6.478,6.478,0,0,1-.828,3.048,17.822,17.822,0,0,1-2.184,3.156Q21.888-4.44,20.28-2.76q.672-.1,1.488-.156t1.44-.06H27.1V0Z" transform="translate(21 49.294)"/>
</svg>
