<svg id="グループ_61057" data-name="グループ 61057" xmlns="http://www.w3.org/2000/svg" xmlns:xlink="http://www.w3.org/1999/xlink" width="38.013" height="40.299" viewBox="0 0 38.013 40.299">
  <defs>
    <clipPath id="clip-path">
      <rect id="長方形_22348" data-name="長方形 22348" width="38.013" height="40.299" fill="#f8f8f8"/>
    </clipPath>
  </defs>
  <g id="グループ_59415" data-name="グループ 59415" clip-path="url(#clip-path)">
    <path id="パス_145459" data-name="パス 145459" d="M9.782,14.1a2.261,2.261,0,0,0-.164-2.979c-.778-.878-.347-1.307-.347-1.307l9.273-1.848,9.273-1.849s.562.231.181,1.34a2.258,2.258,0,0,0,.992,2.815,29.135,29.135,0,0,0,6.869.7c1.605-.149,2.17-2.069,2.154-2.582S38.165,2.677,33,.951,21.644.2,17.174,1.094,6.609,3.458,2.5,7.031s-1.96,8.31-1.777,8.79,1.44,2.037,2.98,1.559A29.226,29.226,0,0,0,9.782,14.1" transform="translate(0 0)" fill="#f8f8f8"/>
    <path id="パス_145460" data-name="パス 145460" d="M54.677,78.929a5.271,5.271,0,1,0-3.729-1.543,5.244,5.244,0,0,0,3.729,1.543" transform="translate(-33.85 -46.854)" fill="#f8f8f8"/>
    <path id="パス_145461" data-name="パス 145461" d="M37.7,40.338a.9.9,0,0,0-.8-.484H34.243a.6.6,0,0,0-.6.6v1.819a.6.6,0,0,1-.6.6H24.673a.6.6,0,0,1-.6-.6V40.456a.6.6,0,0,0-.6-.6H20.809a.9.9,0,0,0-.8.484l-6.551,12.54a15.291,15.291,0,0,0-1.739,7.089v2.926a3,3,0,0,0,3,3h.751v1.71h3.057V65.9H39.185v1.71h3.057V65.9h.75a3,3,0,0,0,3-3V59.967a15.308,15.308,0,0,0-1.74-7.089ZM20.618,54.109a8.239,8.239,0,1,1,8.239,8.238,8.241,8.241,0,0,1-8.239-8.238" transform="translate(-8.03 -27.307)" fill="#f8f8f8"/>
  </g>
</svg>
