<svg id="LINE_icon" xmlns="http://www.w3.org/2000/svg" xmlns:xlink="http://www.w3.org/1999/xlink" width="30" height="30" viewBox="0 0 30 30">
  <defs>
    <clipPath id="clip-path">
      <rect id="長方形_22957" data-name="長方形 22957" width="30" height="30" fill="none"/>
    </clipPath>
  </defs>
  <g id="グループ_61112" data-name="グループ 61112" clip-path="url(#clip-path)">
    <path id="パス_148158" data-name="パス 148158" d="M23.532,30.382H6.849A6.849,6.849,0,0,1,0,23.532V6.849A6.849,6.849,0,0,1,6.849,0H23.532a6.849,6.849,0,0,1,6.849,6.849V23.532a6.849,6.849,0,0,1-6.849,6.849" transform="translate(0 -0.382)" fill="#70c55e"/>
    <path id="パス_148159" data-name="パス 148159" d="M73.538,66.565c0-4.532-4.544-8.22-10.129-8.22s-10.129,3.688-10.129,8.22c0,4.063,3.6,7.466,8.471,8.11.33.071.779.218.892.5a2.08,2.08,0,0,1,.033.916s-.119.715-.145.867c-.044.256-.2,1,.877.546a32.705,32.705,0,0,0,7.959-5.881h0a7.314,7.314,0,0,0,2.171-5.058" transform="translate(-48.221 -53.187)" fill="#fff"/>
    <path id="パス_148160" data-name="パス 148160" d="M202.191,126.663h-2.846a.193.193,0,0,1-.193-.193v0h0v-4.413h0v0a.193.193,0,0,1,.193-.193h2.846a.194.194,0,0,1,.193.193v.718a.193.193,0,0,1-.193.193h-1.934v.746h1.934a.194.194,0,0,1,.193.193v.718a.193.193,0,0,1-.193.193h-1.934v.746h1.934a.194.194,0,0,1,.193.193v.718a.193.193,0,0,1-.193.193" transform="translate(-180.244 -110.668)" fill="#70c55e"/>
    <path id="パス_148161" data-name="パス 148161" d="M91.317,126.663a.193.193,0,0,0,.193-.193v-.718a.194.194,0,0,0-.193-.193H89.383v-3.509a.194.194,0,0,0-.193-.193h-.718a.193.193,0,0,0-.193.193v4.417h0v0a.193.193,0,0,0,.193.193h2.846Z" transform="translate(-79.897 -110.668)" fill="#70c55e"/>
    <path id="パス_148162" data-name="パス 148162" d="M129.642,121.855h-.718a.193.193,0,0,0-.193.193v4.421a.193.193,0,0,0,.193.193h.718a.193.193,0,0,0,.193-.193v-4.421a.193.193,0,0,0-.193-.193" transform="translate(-116.508 -110.667)" fill="#70c55e"/>
    <path id="パス_148163" data-name="パス 148163" d="M151.652,121.855h-.718a.193.193,0,0,0-.193.193v2.626l-2.023-2.731-.016-.02h0l-.012-.012,0,0-.011-.009-.005,0-.01-.007-.006,0-.011-.006-.006,0-.011,0-.006,0-.012,0-.007,0-.011,0h-.75a.193.193,0,0,0-.193.193v4.421a.193.193,0,0,0,.193.193h.718a.193.193,0,0,0,.193-.193v-2.625l2.025,2.735a.2.2,0,0,0,.05.049l0,0,.012.007.006,0,.009,0,.009,0,.006,0,.013,0h0a.2.2,0,0,0,.051.007h.714a.193.193,0,0,0,.193-.193v-4.421a.193.193,0,0,0-.193-.193" transform="translate(-133.628 -110.667)" fill="#70c55e"/>
  </g>
</svg>
