<svg id="Youtube-icon" xmlns="http://www.w3.org/2000/svg" xmlns:xlink="http://www.w3.org/1999/xlink" width="30" height="23.112" viewBox="0 0 30 23.112">
  <defs>
    <clipPath id="clip-path">
      <rect id="長方形_22261" data-name="長方形 22261" width="30" height="23.112" fill="none" stroke="rgba(0,0,0,0)" stroke-width="1"/>
    </clipPath>
  </defs>
  <g id="Youtube-icon-2" data-name="Youtube-icon" clip-path="url(#clip-path)">
    <path id="パス_145455" data-name="パス 145455" d="M10.968,23.056q5.488.152,10.976-.109c1.188-.064,2.377-.134,3.559-.291a5.38,5.38,0,0,0,1.886-.507,4.094,4.094,0,0,0,2.017-2.77,30.037,30.037,0,0,0,.51-4.618,61.536,61.536,0,0,0-.041-7.145,26.214,26.214,0,0,0-.481-3.94A4.081,4.081,0,0,0,27.363.946,6.053,6.053,0,0,0,25.288.424C23.466.211,21.634.14,19.8.077Q13.943-.115,8.081.161A33.768,33.768,0,0,0,3.637.6,3.825,3.825,0,0,0,.945,2.724,7.729,7.729,0,0,0,.37,5.034,55.774,55.774,0,0,0,0,11.458,58.585,58.585,0,0,0,.327,17.74a8.334,8.334,0,0,0,.662,2.736,3.933,3.933,0,0,0,1.654,1.689,6.132,6.132,0,0,0,2.1.523c2.068.239,4.147.3,6.223.367M12,16.493q0-4.938,0-9.876l7.77,4.938Q15.885,14.025,12,16.493" transform="translate(0 0.001)" fill="#da546c" stroke="rgba(0,0,0,0)" stroke-width="1"/>
    <path id="パス_145456" data-name="パス 145456" d="M170.322,95.261q3.886-2.467,7.77-4.939l-7.77-4.938q0,4.938,0,9.876" transform="translate(-158.323 -78.768)" fill="#fff" stroke="rgba(0,0,0,0)" stroke-width="1"/>
  </g>
</svg>
