<svg id="グループ_61221" data-name="グループ 61221" xmlns="http://www.w3.org/2000/svg" xmlns:xlink="http://www.w3.org/1999/xlink" width="75.528" height="79.426" viewBox="0 0 75.528 79.426">
  <defs>
    <clipPath id="clip-path">
      <rect id="長方形_24633" data-name="長方形 24633" width="75.528" height="79.426" fill="none"/>
    </clipPath>
  </defs>
  <g id="グループ_61220" data-name="グループ 61220" clip-path="url(#clip-path)">
    <path id="パス_152232" data-name="パス 152232" d="M84.271,24.038a19.92,19.92,0,0,0,.975,3.861,9.717,9.717,0,0,0,.531,1.529A6.81,6.81,0,0,0,88.328,32.1a4.152,4.152,0,0,0,1.575.88,9.083,9.083,0,0,0,1.519.308c.712-.016,1.431.064,2.133-.018a10.436,10.436,0,0,0,3.967-.955A6.879,6.879,0,0,0,99.8,30.339a25.675,25.675,0,0,0,1.749-3.747c.15-.29.021-.639.173-1a6.993,6.993,0,0,0,.267-1.824,3.96,3.96,0,0,1-1.889-.389,8.748,8.748,0,0,1-2.047-.685c-.575-.347-1.237-.49-1.829-.836a22.564,22.564,0,0,1-3.765-2.4c-.37-.329-.777-.631-1.134-.983-.125-.121-.269-.241-.4-.062a.1.1,0,0,1-.018.021c.44.611,1.014,1.38,1.786,2.365a22.429,22.429,0,0,0-1.941-2.21,1.352,1.352,0,0,1-.96.127,2.116,2.116,0,0,1-.774-.228c-.119-.057-.271-.277-.241-.36a.656.656,0,0,1,.373-.354.711.711,0,0,1,.541.064,3.775,3.775,0,0,1,1.061.75.6.6,0,0,0,.156-.155,13.287,13.287,0,0,1-1.56-2.616c-.13-.282-.244-.233-.4-.085a13.853,13.853,0,0,0-1.739,2.186,13.325,13.325,0,0,1-.947,1.255,18.091,18.091,0,0,0-1.573,2.068c-.015.021.01.08-.005.093a1.291,1.291,0,0,0-.582,1.315c.091.455-.189.96.166,1.387m9.923,1.842c-.007.078-.064.2-.121.212a.653.653,0,0,1-.373-.015c-.052-.018-.037-.176-.088-.243-.279-.365-.422-.453-.724-.073a3.64,3.64,0,0,1-.481.473c-.057.05-.207.08-.248.044-.114-.1-.3-.261-.271-.352a2.121,2.121,0,0,1,.4-.883,1.6,1.6,0,0,1,.652-.3c.89-.008,1.317.439,1.255,1.133m-3.87,1.778c.289-.011.579,0,.869,0a8.069,8.069,0,0,1,.87.007c.3.034.59.156.888.181.908.081,1.816.127,2.722.21a.773.773,0,0,1,.391.214c.166.14-.042.282-.037.393.021.549-.422.841-.691,1.162A5.818,5.818,0,0,1,93.1,31.788a.82.82,0,0,1-1-.112,16.106,16.106,0,0,1-2.308-3.11c-.29-.432.01-.89.535-.908m-1.749-4.239a1.781,1.781,0,0,1,1.248-1.384,7.555,7.555,0,0,1,.964,0,.5.5,0,0,1,.329.127c.243.277.458.58.691.87.186.233-.023.336-.145.466-.145.153-.274.1-.4-.036s-.269-.277-.409-.41a.685.685,0,0,0-1.123.055,4.442,4.442,0,0,0-.345.533.4.4,0,0,1-.517.119c-.145-.057-.232-.261-.295-.339" transform="translate(-49.544 -9.202)" fill="#fff" fill-rule="evenodd"/>
    <path id="パス_152233" data-name="パス 152233" d="M46.851,24.817c1.2.277,2.29.885,3.477,1.215a9.734,9.734,0,0,1,1.41.575,24.591,24.591,0,0,1,2.723,1.157c.41.25.846.458,1.263.7.341.2.691.364,1.02.6a9.071,9.071,0,0,0,2.242,1.136,1.6,1.6,0,0,0,1.632-.287,10.182,10.182,0,0,0,2.3-2.62c.149-.266.291-.52.42-.8a6.651,6.651,0,0,1,.941-1.355.824.824,0,0,0,.166-.938,3.951,3.951,0,0,1-.376-2.067,2.851,2.851,0,0,0,.192-.7,2.11,2.11,0,0,1,2.217-2.191.786.786,0,0,0,.668-.275,1.575,1.575,0,0,1,1.339-.518,4.493,4.493,0,0,1,2.868.585c.062.046.2-.021.285.01A5.558,5.558,0,0,1,74.766,21.3a4.282,4.282,0,0,1,.546,3.786,2.472,2.472,0,0,1-.709,1.161,18.719,18.719,0,0,1-2.1,1.931A6.345,6.345,0,0,0,70.879,30.6a33.4,33.4,0,0,1-2.3,3.41c-.534.718-1.068,1.436-1.618,2.142-.215.275-.485.508-.711.776a6.572,6.572,0,0,1-.629.8c-.442.379-.934.7-1.409,1.038a7.447,7.447,0,0,1-2.7,1.2,7.065,7.065,0,0,1-3-.222,10.762,10.762,0,0,1-3.255-1.265,6.9,6.9,0,0,0-1.3-.614c-1.048-.361-2.069-.782-3.076-1.243-.462-.212-.94-.391-1.389-.627-.277-.145-.519-.137-.657.115a6.468,6.468,0,0,0-.9,1.666,2.128,2.128,0,0,1-.285.656A7.345,7.345,0,0,0,46.205,42.1c-.343.4-.11.909-.252,1.351a4.963,4.963,0,0,0,0,2.407c.2.692.019,1.091-.645,1.306-.346.112-.723.124-1.079.209a.484.484,0,0,0-.282.228c-.026.053.067.2.14.264a15.474,15.474,0,0,0,3.045,2.016c1.48.8,3.033,1.442,4.475,2.319a11.808,11.808,0,0,1,2.739,2.047c.337.372.644.776.979,1.138a28.705,28.705,0,0,1,2.465,3.06,33.115,33.115,0,0,1,2.254,3.242c.214.4.511.757.746,1.147a17.1,17.1,0,0,1,1.725,3.556c.4,1.228.833,2.44,1.173,3.688a3.555,3.555,0,0,1,.169.9c0,.258-.016.519.009.775a.35.35,0,0,0,.18.252c.962.335,1.944.616,2.89.989a10.13,10.13,0,0,1,2.427,1.161,1.83,1.83,0,0,1,.9,1.358,1.945,1.945,0,0,1-1.314,1.928,18.838,18.838,0,0,1-2.877.789,8.857,8.857,0,0,0-1.584.389,20.262,20.262,0,0,1-3.566.744,14.432,14.432,0,0,1-2.422.02,1.535,1.535,0,0,1-.449-.084A3.129,3.129,0,0,1,56.144,77.5a13.483,13.483,0,0,1-1.018-2.587c-.014-.071-.1-.184-.153-.181-.688.046-.639-.673-1.006-.954a7.954,7.954,0,0,0-.819-1.893,17.29,17.29,0,0,0-.932-1.942A8.68,8.68,0,0,0,50.411,67.4a25.978,25.978,0,0,1-2.055-2.557c-.384-.437-.655-.974-1.089-1.388A12.278,12.278,0,0,0,45.447,62a7.935,7.935,0,0,0-2.689-1.256,5.123,5.123,0,0,1-1.644-.711,4.177,4.177,0,0,0-.693-.434c-.689-.291-1.393-.551-2.08-.834s-1.459-.367-2.132-.713c-.058-.03-.214.066-.283.142-.144.159-.255.346-.387.516a6.3,6.3,0,0,0-.95,1.256,4.708,4.708,0,0,1-1,1.417,20.5,20.5,0,0,1-3.5,3.206A8.063,8.063,0,0,1,25.058,65.8c-.326-.332-.777-.115-1.151-.267-.831-.338-1.675-.641-2.51-.968-.752-.293-1.485-.636-2.249-.891-1.024-.342-2.011-.769-3-1.182s-1.959-.893-2.933-1.352c-.541-.255-1.1-.5-1.641-.723a11.991,11.991,0,0,1-2.326-1.186,1.531,1.531,0,0,0-1.427-.154c-.643.242-1.291.477-1.917.757a10.994,10.994,0,0,1-2.614.7,10.365,10.365,0,0,1-2.033.02,1.207,1.207,0,0,1-1.243-1.2c-.068-.547.271-.93.4-1.393A24.882,24.882,0,0,1,1.7,55.489a21.486,21.486,0,0,0,2.474-3.436,5.839,5.839,0,0,1,.757-.945,7.426,7.426,0,0,1,1.017-.822,1.244,1.244,0,0,1,.594-.194,4.1,4.1,0,0,1,2.017.274,15.873,15.873,0,0,0,2.072.84c.87.245,1.73.489,2.585.8,1.293.471,2.56,1.008,3.859,1.46.762.264,1.513.565,2.248.9a17.781,17.781,0,0,0,2.32.717,1.758,1.758,0,0,0,1.97-.538c.4-.487.826-.95,1.23-1.433.156-.187.264-.412.416-.6a.864.864,0,0,0,.075-1.271,2.243,2.243,0,0,1-.45-.778.927.927,0,0,0-.612-.756,7.563,7.563,0,0,0-.757-.282c-1.047-.362-2.075-.8-3.148-1.06-1.321-.315-2.6-.757-3.9-1.145-1.062-.318-2.121-.674-3.182-.968q-2-.554-3.969-1.209c-.217-.072-.407-.2-.368-.476a3.261,3.261,0,0,1,.106-.926,15.206,15.206,0,0,0,.476-1.841A7.331,7.331,0,0,1,10.7,38.982a2.094,2.094,0,0,0,.587-1.609c-.018-.158.15-.328.176-.5a20.37,20.37,0,0,0,.588-2.377,26.388,26.388,0,0,0,1.276-2.868c.78-1.523,1.48-3.088,2.4-4.534a5.72,5.72,0,0,1,.492-.858c.661-.71,1.337-1.41,2.058-2.057a5.791,5.791,0,0,1,1.924-.964,11.835,11.835,0,0,1,2.05-.66,6.327,6.327,0,0,1,2.051-.224c.469.069.611-.408.877-.654.041-.038-.154-.434-.318-.571-.285-.238-.073-.619-.221-.779-.413-.448-.02-.742.112-1.081a.348.348,0,0,1,.484-.2c.475.3.986.13,1.479.184.545.06.8-.192,1.087-.671a13.952,13.952,0,0,0,.712-2.039,2.948,2.948,0,0,1,1.893-2,.626.626,0,0,0,.489-.647,2.37,2.37,0,0,1,.807-1.791c.417-.373.421-.438.238-1a1.246,1.246,0,0,1-.1-.442A11.1,11.1,0,0,1,32.068,8.3a13.223,13.223,0,0,1,1.526-3.343A16.428,16.428,0,0,1,36,2.17,7.088,7.088,0,0,1,38.226.991,3.9,3.9,0,0,0,40.2.6c.142-.04.281-.2.4-.179A15.162,15.162,0,0,0,43.047.2a4.83,4.83,0,0,0,2.061-.17,1.277,1.277,0,0,1,.654.033c.177.027.346.1.52.145a6.979,6.979,0,0,1,1.052.269,22.161,22.161,0,0,1,3.182,1.682,23.369,23.369,0,0,1,2.376,1.752,25.15,25.15,0,0,1,1.858,1.845,1.983,1.983,0,0,1,.536.743,5.9,5.9,0,0,1,.436,2.253,9.342,9.342,0,0,0,0,1.454,1.612,1.612,0,0,0,.163,1,.97.97,0,0,1,0,.844,2.283,2.283,0,0,0-.175,1c-.008.118-.078.231-.088.349-.038.451-.387.746-.57,1.123-.1.208-.132.3.022.481a2.934,2.934,0,0,1,.262,3.361A4.33,4.33,0,0,1,52.2,20.385a.623.623,0,0,0-.689.423,2.945,2.945,0,0,1-.271.469A5.107,5.107,0,0,1,49.4,23.314a8.556,8.556,0,0,1-2.93,1.241c.179.127.271.236.382.262m-7.039-18.2c-.131-.281-.244-.232-.406-.085A13.9,13.9,0,0,0,37.667,8.72a13.214,13.214,0,0,1-.945,1.253,18.349,18.349,0,0,0-1.576,2.068c-.015.022.013.081,0,.093a1.289,1.289,0,0,0-.581,1.314c.091.458-.189.96.166,1.387A19.9,19.9,0,0,0,35.7,18.7a9.719,9.719,0,0,0,.532,1.529,6.787,6.787,0,0,0,2.55,2.674,4.174,4.174,0,0,0,1.576.878,8.594,8.594,0,0,0,1.52.308c.711-.016,1.431.064,2.132-.018a10.479,10.479,0,0,0,3.966-.953,6.89,6.89,0,0,0,2.283-1.979,25.562,25.562,0,0,0,1.749-3.746c.15-.288.021-.639.173-.994a7.038,7.038,0,0,0,.266-1.826,3.938,3.938,0,0,1-1.889-.389,8.6,8.6,0,0,1-2.045-.685c-.575-.346-1.238-.488-1.83-.835a22.556,22.556,0,0,1-3.764-2.4c-.37-.329-.776-.632-1.134-.982-.125-.122-.269-.242-.4-.063-.3.423-.736.329-1.134.3a2.136,2.136,0,0,1-.773-.229c-.119-.058-.273-.277-.242-.359a.652.652,0,0,1,.373-.354.7.7,0,0,1,.54.065c.341.242.663.028,1,.074a5.3,5.3,0,0,1-1.344-2.1m-7.35,18.57a4.341,4.341,0,0,1,.756,2.02,6.369,6.369,0,0,1,.182,1.277c-.075.489-.135.981-.2,1.471s.133,1.008-.184,1.479c-.075.11-.007.315-.012.477a4.007,4.007,0,0,1-.082,1.42c-.182.412.079.89-.292,1.246-.082.079-.055.3.232.4.492.168,1.009.2,1.5.328.511.131.685.543,1.035.792.259.184.11.479.119.72.023.613-.049,1.235.024,1.84a8.048,8.048,0,0,1-.22,1.473c-.023.46.145.937-.168,1.387-.106.152-.007.441-.018.667a10.875,10.875,0,0,0-.192,2.15c-.363.38-.125.852-.194,1.277-.064.393-.131.787-.194,1.18-.042.269.026.434.35.391a.557.557,0,0,1,.365.043,1.586,1.586,0,0,0,1.219.337c.426-.069.9.177,1.28-.189.016-.016.063-.007.094,0,.862.141,1.685-.25,2.538-.191a11.4,11.4,0,0,0,2.826-.446,15.413,15.413,0,0,0,1.623-.521c.182-.055.122-.074.081-.222a8.617,8.617,0,0,1,.077-2.8c.06-.428.163-.848.211-1.275a10.024,10.024,0,0,1,1.32-3.53,3.46,3.46,0,0,0,.427-.695,20.005,20.005,0,0,1,1.374-2.437,1,1,0,0,1,.472-.465c.161-.053.394.082.584.161.442.184.9.322,1.337.522,1.14.519,2.29,1.021,3.475,1.447a11.518,11.518,0,0,1,1.8.785,8.407,8.407,0,0,0,2.664,1.045,8.632,8.632,0,0,0,2.61.266,2.512,2.512,0,0,0,.771-.239,9.56,9.56,0,0,0,3.812-2.98c.476-.679,1.025-1.328,1.549-1.985a23.548,23.548,0,0,0,2.46-3.537c.257-.481.6-.917.9-1.374a.935.935,0,0,0-.107-1.388,6.322,6.322,0,0,0-2.4-1.465c-.438-.168-.841-.558-1.382-.412-.414-.374-.916-.136-1.375-.183a.605.605,0,0,0-.4.19,3.571,3.571,0,0,0-.89,1.179,10.194,10.194,0,0,1-2.824,3.674,2.71,2.71,0,0,1-3.228.437A23.511,23.511,0,0,1,55.9,29.639a21.344,21.344,0,0,0-2.318-1.183c-1.315-.649-2.7-1.137-4.063-1.662-.752-.29-1.486-.627-2.228-.943a.749.749,0,0,1-.087-.024c-.417-.232-.937-.228-1.306-.568-.174.413-.147.9-.473,1.258a1.9,1.9,0,0,1-.977,1.527,4.571,4.571,0,0,1-3.52,1.063,2.624,2.624,0,0,1-1.209-.566,7.051,7.051,0,0,1-1.845-3.01,2.729,2.729,0,0,1-.018-.962.631.631,0,0,0-.559-.676c-.52-.08-1.046-.125-1.567-.2-.331-.048-.656-.14-.987-.187-.3-.043-.64.088-.892-.2-.014-.016-.063-.006-.094,0-1.015.15-2-.291-3.144-.171a12.448,12.448,0,0,1,1.844,2.051M40.7,48.141a11.376,11.376,0,0,0-1.482.156,14.61,14.61,0,0,1-2.529.234,4.234,4.234,0,0,1-1.8-.343c-.37-.135-.463-.056-.532.338-.041.235-.138.461-.186.7a5.355,5.355,0,0,1-.089.644,2.6,2.6,0,0,1-1.62,1.183c-.685.156-1.4.164-2.071.386-.479.158-.9-.225-1.374-.186a2.158,2.158,0,0,1-1.268-.464,9.617,9.617,0,0,0-1.769-.636c-.037-.012-.152.072-.148.1a.771.771,0,0,0,.109.244,7.185,7.185,0,0,0,.983,1.519c.4.377.562.934,1.118,1.206.492.241.835.77,1.313,1.056.743.445,1.54.8,2.323,1.179a22.72,22.72,0,0,0,2.645,1.112c.511.171,1.039.294,1.55.465s1.029.346,1.562.469a9.76,9.76,0,0,1,1.763.643,13.3,13.3,0,0,1,2.5,1.235,3.12,3.12,0,0,0,1.681.613,1.135,1.135,0,0,1,.332.13,11.972,11.972,0,0,1,2.984,1.674,7.986,7.986,0,0,1,1.839,1.933c.416.649.959,1.215,1.4,1.85.456.659,1.071,1.168,1.573,1.777a11.072,11.072,0,0,1,1.272,1.894c.7,1.353,1.235,2.79,1.954,4.137.108.2.17.551.491.181a22.505,22.505,0,0,0,3.149-.831,3.069,3.069,0,0,1,.427-.135,10.172,10.172,0,0,0,3.884-1.169c.292-.16.6-.3.206-.672a26.392,26.392,0,0,0-1.189-4.166,15.006,15.006,0,0,0-1.631-3.3c-.514-.829-1.127-1.6-1.629-2.434-.429-.717-1.008-1.315-1.45-2.016-.511-.812-1.2-1.491-1.72-2.294a3.117,3.117,0,0,0-.338-.346,4.708,4.708,0,0,1-1.1-1.291,28.689,28.689,0,0,0-2.591-1.936c-1.607-.877-3.269-1.647-4.874-2.521a9.969,9.969,0,0,1-3.134-2.269c-.307-.376-.709-.18-1.147-.258-.416.065-.9.147-1.394.214m-12.6-13.628c.132-.391.075-.483-.321-.534-.1-.012-.224.039-.286-.008-.714-.532-1.616-.464-2.4-.77a18.909,18.909,0,0,1-2.634-.9.869.869,0,0,0-1.115.226A18.209,18.209,0,0,0,19.4,35.107a16.247,16.247,0,0,0-1.258,2.975,10.408,10.408,0,0,0-.27,1.052c-.023.087-.025.219-.082.252-.642.366-.485.981-.5,1.544a7.292,7.292,0,0,1-.058,1.337,2.969,2.969,0,0,1-.991,1.618,3.977,3.977,0,0,1-1.693,1.07,2.084,2.084,0,0,1-1.12.057,13.02,13.02,0,0,1-1.454-.476,4.807,4.807,0,0,0-1.758-.665.984.984,0,0,1-.277-.115c.033.169.013.441.109.489a5.29,5.29,0,0,0,1.4.584c1.25.235,2.424.722,3.649,1.034.813.208,1.605.5,2.413.727,2.624.748,5.228,1.557,7.8,2.459a16.742,16.742,0,0,0,1.654.464c.552.131,1.083.349,1.625.522a.889.889,0,0,0,.729-.34,9.386,9.386,0,0,0,1.538-3.337c.5-1.666.983-3.342,1.586-4.97.427-1.153.8-2.318,1.208-3.476a4.9,4.9,0,0,1,.508-1.537c.021-.029-.091-.23-.169-.251-.524-.147-1.067-.231-1.578-.408s-.983-.439-1.473-.654c-.426-.187-.509.01-.645.239a9.91,9.91,0,0,0-.765,1.427c-.143.368-.485.435-.723.524-.713.266-1.034-.031-1.039-.839,0-.065,0-.129,0-.206a4.168,4.168,0,0,1,.336-1.691m.351,29.879a6.342,6.342,0,0,0,2.3-1.475c.551-.591,1.133-1.153,1.712-1.717a17.707,17.707,0,0,0,1.9-2.417c.054-.075.11-.148.16-.225.184-.287.7-.414.584-.8-.087-.288-.625.07-.827-.284a21.61,21.61,0,0,1-5.012-2.181,5.934,5.934,0,0,1-1.928-1.451,11.409,11.409,0,0,0-.888-.895c-.215-.207-.406-.211-.525.058a12.646,12.646,0,0,1-1.4,1.934,5.013,5.013,0,0,1-1.208,1.035,1.067,1.067,0,0,1-.527.122,8.394,8.394,0,0,1-3.318-.656c-1.559-.512-3.067-1.176-4.586-1.806-.962-.4-1.969-.717-2.95-1.077a1.6,1.6,0,0,0-1.859.374c-.185.18-.359.373-.551.548a2.509,2.509,0,0,0-.836,1.4,5.464,5.464,0,0,0-.321,1.51,5.915,5.915,0,0,0,.2,1.273c.068.219.318.543.48.539.564-.012.8.531,1.307.637a7.191,7.191,0,0,1,1.285.63c.655.293,1.316.573,1.988.822a9.218,9.218,0,0,0,1.974.865c.219.029.4.269.62.368,1.144.519,2.329.935,3.505,1.374.782.292,1.56.6,2.322.951a19.545,19.545,0,0,0,2.995.964,5.254,5.254,0,0,0,1.212.014,3.714,3.714,0,0,0,2.192-.439M54.94,9a8.085,8.085,0,0,0-.449-2.144.775.775,0,0,0-.205-.4c-.74-.649-1.367-1.407-2.152-2.026-.754-.6-1.532-1.145-2.324-1.679A17.341,17.341,0,0,0,46.866,1.2,3.647,3.647,0,0,0,45.4,1c-1.429.031-2.859.086-4.282.2a7.284,7.284,0,0,0-1.468.423,1.535,1.535,0,0,1-.426.135,4.145,4.145,0,0,0-2.8,1.183,11.378,11.378,0,0,0-2.941,4.105,6.878,6.878,0,0,0-.663,3.6,2.416,2.416,0,0,0,.2.693.51.51,0,0,0,.621.315,1.594,1.594,0,0,0,1.1-.621c.6-.9,1.318-1.718,1.965-2.586.476-.636.9-1.31,1.382-1.945a3.28,3.28,0,0,1,.756-.748,2.485,2.485,0,0,1,1.054-.474c.528-.053.493.559.642.853A8.467,8.467,0,0,0,41.86,8.012a16.566,16.566,0,0,0,3.017,2.575,18.108,18.108,0,0,0,3.41,1.819,14.664,14.664,0,0,0,3.071,1.02c.143.023.273.166.41.168a1.544,1.544,0,0,1,1.056.509.889.889,0,0,0,1.322,0,2.589,2.589,0,0,0,.782-1.807c.039-.612.008-1.228.008-1.841,0-.486-.016-.971,0-1.455M28.737,25.11a13.223,13.223,0,0,0-.926-1.458,1.153,1.153,0,0,0-1.13-.561c-.7.08-1.422-.011-2.132.026a13.476,13.476,0,0,0-4.161.956,7.764,7.764,0,0,0-3.055,2.212,6.567,6.567,0,0,0-1,1.427c-.6,1.245-1.41,2.388-1.931,3.661-.486,1.188-1.083,2.334-1.465,3.564-.241.774-.419,1.567-.69,2.333a.45.45,0,0,0,.271.557,7.836,7.836,0,0,0,1.323.548,9.964,9.964,0,0,0,2.724.455.511.511,0,0,0,.539-.416c.27-.762.4-1.562.746-2.311a16.368,16.368,0,0,1,1.8-3.039c.3-.318.527-.7.835-1.006a10.581,10.581,0,0,0,1.062-.912,3.691,3.691,0,0,1,1.484-1.085,4.154,4.154,0,0,1,1.215-.336,14.624,14.624,0,0,1,2.65-.416c.9.044,1.81.009,2.838.009a9.233,9.233,0,0,0-1-4.21m31.821,53.3c.358-.077.776.179,1.081-.194a6,6,0,0,0,2.256-.4c1.516-.388,3.074-.616,4.552-1.155a3.221,3.221,0,0,0,.5-.2c.673-.383.757-1.068.1-1.474a6.556,6.556,0,0,0-1.668-.875,16.047,16.047,0,0,1-2.485-1c-.684-.324-1.446-.389-2.124-.715-.058-.028-.17.042-.251.078a10.507,10.507,0,0,1-3.212.91,12.385,12.385,0,0,0-2.167.587c-.173.049-.343.108-.513.163-.734.239-.844.393-.474,1.09a15.113,15.113,0,0,1,.722,1.638A3.22,3.22,0,0,0,58.065,78.3a4.05,4.05,0,0,0,1.282.38l1.211-.263M26.245,21.293c.255.3.519.565.973.467a.841.841,0,0,1,.35.081,12.546,12.546,0,0,0,2.8.488c.677.029,1.358-.018,2.034.013.492.024.98.172,1.47.169a2.136,2.136,0,0,0,1.041-.269,2.231,2.231,0,0,0,.557-.723,1.047,1.047,0,0,0,.223-.467.921.921,0,0,0-.165-.5,14.17,14.17,0,0,1-.961-2.8c-.142-.375-.244-.612-.773-.7A3.08,3.08,0,0,1,31.814,16a4.152,4.152,0,0,0-.478-.48c-.128-.117-.28-.31-.408-.3a1.155,1.155,0,0,0-.655.261,3.367,3.367,0,0,0-1.137,2.138,3.666,3.666,0,0,1-.949,2.021,1.705,1.705,0,0,1-1.3.561c-.451-.011-.9,0-1.566,0,.375.442.649.769.927,1.093m39.169,2.835a.591.591,0,0,0,.606.347,6.372,6.372,0,0,1,2.373.584,8.816,8.816,0,0,1,2.37,1.319,2.449,2.449,0,0,1,.876.9c.163.368.386.379.657.112.6-.589,1.207-1.171,1.779-1.785a2.636,2.636,0,0,0,.443-2.932,6.089,6.089,0,0,0-.843-1.5,6.426,6.426,0,0,0-2.349-1.358c-.3-.129-.617-.226-.921-.351a6.01,6.01,0,0,0-2.327-.228c-.046,0-.132.07-.131.106,0,.087.025.234.073.249a.916.916,0,0,1,.711.963,1.422,1.422,0,0,1-.357,1.25c-.083.093-.212.184-.227.29s.086.22.161.31a.211.211,0,0,0,.2.037,3.34,3.34,0,0,0,1.22-.812c.117-.147.244-.427.532-.18a.475.475,0,0,1,.135.664,3.267,3.267,0,0,0-.265.472c-.034.092.021.217.037.328.087-.018.2-.012.258-.062.15-.121.271-.277.417-.4a.431.431,0,0,1,.663.052c.185.182.118.3-.017.479a4.266,4.266,0,0,0-.414.795.28.28,0,0,0,.025.251.3.3,0,0,0,.259.052,1.265,1.265,0,0,0,.391-.219c.173-.145.3-.382.49-.458a2.127,2.127,0,0,1,.712-.028,2.138,2.138,0,0,1-.077.522,4.932,4.932,0,0,1-.332.541,1.006,1.006,0,0,0-.132.331.314.314,0,0,0,.069.252.256.256,0,0,0,.249-.008,8.482,8.482,0,0,0,.688-.682.53.53,0,0,1,.662-.206c.145.069.107.62-.07.776-.376.329-.635.783-1.146.974-.461.172-1.153.045-1.2-.384s-.208-.437-.527-.436c-.693,0-.777-.075-.856-.854-.034-.329-.09-.369-.4-.226a.518.518,0,0,1-.648-.275c-.139-.383-.374-.4-.711-.395-.794.014-.833.015-1.138-.679-.132-.3-.235-.5-.575-.476-.25.018-.159-.226-.249-.307-.328-.3.046-.419.157-.451.239-.069.617.069.736-.062.153-.169.563,0,.511-.445s-.073-.523-.473-.683a2.533,2.533,0,0,0-1.374-.177,1.621,1.621,0,0,0-1.075,1.459c-.021.289,0,.582,0,.96a2.687,2.687,0,0,0,.386,1.691M5.717,58.816c.443-.177.9-.334,1.329-.531.582-.262.65-.428.482-.987a3.4,3.4,0,0,1,0-1.827,7.946,7.946,0,0,1,.354-1.308,5.052,5.052,0,0,1,1.884-2.142c.065-.046.145-.127.145-.191a.255.255,0,0,0-.143-.188,10.911,10.911,0,0,1-1.284-.408c-.389-.185-.823-.127-1.214-.351-.331-.19-.733.045-1.023.272a4.72,4.72,0,0,0-.888.888,13.457,13.457,0,0,0-1.24,1.906,11.021,11.021,0,0,1-1.039,1.5A12.4,12.4,0,0,0,1.1,58.994c-.1.323,0,.571.288.593.321.024.645.005.968.005a8.179,8.179,0,0,0,3.358-.775M12.206,38.7c-.085-.043-.284-.035-.318.019a17.569,17.569,0,0,0-1.09,1.872,7.287,7.287,0,0,0-.481,1.638c-.1.485.225.711.657.879a16.974,16.974,0,0,0,2.136.911,2.228,2.228,0,0,0,2.115-.453A3.133,3.133,0,0,0,16.3,42.174a9.631,9.631,0,0,0,.212-1.754c.018-.186,0-.376,0-.568a12.665,12.665,0,0,1-4.31-1.151M32.257,50.073a1.5,1.5,0,0,0,1.132-1.5c.026-.755.274-1.478.229-2.25-.02-.341.171-.7.183-1.082a1.9,1.9,0,0,1,.146-1.1c.174-.281-.063-.789.056-1.136.181-.527.057-1.076.2-1.568.154-.533.045-1.082.2-1.568a3.35,3.35,0,0,0,.046-1.581,4.914,4.914,0,0,1-.133.686c-.085.254-.238.485-.326.737s-.13.528-.2.791c-.156.58-.426,1.118-.613,1.689-.447,1.366-.915,2.725-1.334,4.1a12.055,12.055,0,0,1-1.348,3.322c-.129.193-.232.4-.347.606a4.47,4.47,0,0,0,2.114-.148m8.03-22.3a1.317,1.317,0,0,0,1,.39,3.987,3.987,0,0,0,2.615-.92,3.39,3.39,0,0,0,.941-1.635c.076-.22.22-.6.148-.653a.624.624,0,0,0-.773.029c-.106.081-.3.056-.451.069a11.207,11.207,0,0,1-3.7-.4,7.763,7.763,0,0,1-1.208-.548,4.287,4.287,0,0,0,1.432,3.666M29.476,35.047c.191-.739.691-1.337.817-2.086a20.271,20.271,0,0,1,.619-2.07,9.66,9.66,0,0,0,.325-3.62,4.913,4.913,0,0,0-1.555-3.506c-.283-.235-.589-.441-.893-.649a.177.177,0,0,0-.17.031c-.043.075-.094.2-.061.253a7.919,7.919,0,0,0,.541.744,7.789,7.789,0,0,1,1.2,2.792,7.208,7.208,0,0,1,.186,2.051,4.39,4.39,0,0,1-.4,1.769,12.283,12.283,0,0,0-.567,1.7c-.008.03.011.072,0,.1a9.587,9.587,0,0,0-.631,2.157,3.487,3.487,0,0,0-.305,1.692,5.291,5.291,0,0,0,.9-1.354m-3.017-4.782c-.318.184-.813-.117-1.16.22a6.09,6.09,0,0,0-1.961.4,2.1,2.1,0,0,0-.637.32c-.087.059-.185.228-.158.306.109.312.189-.069.3-.031a15.724,15.724,0,0,1,1.768.625c.682.332,1.452.335,2.13.692.414.219.614-.014.844-.555.255-.6.582-1.175.873-1.763.152-.306.114-.366-.231-.377-.192-.006-.386,0-.644,0-.327.065-.717-.068-1.125.168M54.374,15.59a1.1,1.1,0,0,0-.9-.434c-.3.011-.5.191-.464.467a7.149,7.149,0,0,1-.229,1.761,7.08,7.08,0,0,1-.456,1.452,2.039,2.039,0,0,0-.1.345c-.033.23.126.3.292.235.28-.1.54-.255.812-.38a3.4,3.4,0,0,0,1.219-1.151,1.318,1.318,0,0,0,.178-1.047,1.359,1.359,0,0,0-.351-1.249M33.8,14.473a8.931,8.931,0,0,0-.214-1.562.482.482,0,0,0-.568-.472,1.172,1.172,0,0,0-1.168.962,3.073,3.073,0,0,0,.015,1.152,1.108,1.108,0,0,0,.529.806,4.27,4.27,0,0,0,1.372.658c.048.005.09.058.3.2a11.873,11.873,0,0,1-.269-1.746m-1.758,12.4a4.272,4.272,0,0,1,.187,1.76,1.825,1.825,0,0,1-.012.672,19.091,19.091,0,0,0-.446,1.942,12.61,12.61,0,0,1-.511,1.82,6.533,6.533,0,0,0-.378.906c-.044.148-.106.412.226.4a1.018,1.018,0,0,1,.29,0c.133.034.357.162.372.139a1.393,1.393,0,0,0,.257-.564c.087-.809.156-1.621.2-2.434a32.585,32.585,0,0,0,.21-3.789,1.941,1.941,0,0,0-.337-1.136c-.024.11-.085.216-.056.282m4.648-4.42c-.222-.126-.08-.6-.433-.48-.183.064-.27.371-.428.543-.2.215.065.314.124.328.488.113.984.191,1.569.3a6.281,6.281,0,0,0-.832-.686" transform="translate(0 0.001)" fill="#1a1311" fill-rule="evenodd"/>
    <path id="パス_152234" data-name="パス 152234" d="M74.545,56.295a12.467,12.467,0,0,1,1.844,2.051,4.341,4.341,0,0,1,.756,2.02,6.34,6.34,0,0,1,.182,1.277c-.074.489-.134.981-.2,1.471s.133,1.008-.184,1.479c-.075.11-.007.315-.012.477a4.016,4.016,0,0,1-.082,1.42c-.182.412.079.89-.292,1.247-.082.079-.055.3.231.395.493.168,1.01.2,1.5.328.511.131.685.543,1.035.792.259.184.11.479.118.72.023.614-.048,1.235.025,1.84a8.049,8.049,0,0,1-.221,1.473c-.023.46.146.937-.168,1.387-.106.152-.006.441-.018.667a10.875,10.875,0,0,0-.192,2.15c-.363.38-.125.852-.194,1.277-.064.393-.131.787-.193,1.18-.043.269.026.434.35.391a.555.555,0,0,1,.364.043,1.587,1.587,0,0,0,1.219.337c.425-.069.9.177,1.28-.189.016-.016.063-.007.094,0,.862.141,1.685-.251,2.538-.192a11.4,11.4,0,0,0,2.827-.446,15.412,15.412,0,0,0,1.623-.521c.182-.055.122-.074.081-.222a8.63,8.63,0,0,1,.078-2.8c.06-.428.163-.848.211-1.275a10.024,10.024,0,0,1,1.32-3.53,3.46,3.46,0,0,0,.427-.695,20.057,20.057,0,0,1,1.373-2.437,1,1,0,0,1,.472-.465c.161-.053.394.082.584.161.442.184.9.322,1.337.522,1.14.519,2.29,1.021,3.475,1.447a11.518,11.518,0,0,1,1.8.785,8.4,8.4,0,0,0,2.664,1.045,8.63,8.63,0,0,0,2.61.266,2.514,2.514,0,0,0,.771-.239,9.556,9.556,0,0,0,3.812-2.98c.476-.679,1.026-1.328,1.55-1.985a23.577,23.577,0,0,0,2.46-3.537c.257-.481.6-.917.9-1.374a.935.935,0,0,0-.107-1.388,6.325,6.325,0,0,0-2.4-1.465c-.438-.168-.841-.558-1.382-.412-.414-.374-.916-.136-1.376-.183a.607.607,0,0,0-.4.19,3.577,3.577,0,0,0-.89,1.179,10.188,10.188,0,0,1-2.824,3.674,2.711,2.711,0,0,1-3.228.437A23.609,23.609,0,0,1,99.83,62.8a21.3,21.3,0,0,0-2.318-1.183c-1.316-.649-2.7-1.137-4.063-1.662-.753-.29-1.486-.627-2.228-.943a.75.75,0,0,1-.087-.024c-.417-.232-.937-.228-1.306-.568-.174.413-.148.9-.473,1.258a1.9,1.9,0,0,1-.977,1.527,4.572,4.572,0,0,1-3.52,1.063A2.624,2.624,0,0,1,83.65,61.7,7.055,7.055,0,0,1,81.8,58.69a2.729,2.729,0,0,1-.017-.962.631.631,0,0,0-.559-.676c-.52-.08-1.047-.125-1.567-.2-.331-.048-.656-.14-.987-.187-.3-.043-.64.088-.892-.2-.014-.016-.063-.006-.094,0-1.015.15-2-.291-3.143-.171" transform="translate(-43.926 -33.16)" fill="#fff" fill-rule="evenodd"/>
    <path id="パス_152235" data-name="パス 152235" d="M79.169,116.687c-.417.064-.9.147-1.394.214a11.379,11.379,0,0,0-1.482.156,14.521,14.521,0,0,1-2.529.234,4.234,4.234,0,0,1-1.8-.343c-.37-.135-.463-.056-.532.337-.041.236-.138.462-.186.7a5.343,5.343,0,0,1-.089.644,2.6,2.6,0,0,1-1.62,1.184c-.685.156-1.4.163-2.072.386-.479.157-.9-.225-1.373-.186a2.155,2.155,0,0,1-1.268-.464,9.67,9.67,0,0,0-1.77-.636c-.037-.012-.152.072-.147.1a.77.77,0,0,0,.108.244A7.2,7.2,0,0,0,64,120.767c.4.377.562.934,1.118,1.206.492.241.835.77,1.313,1.056.743.446,1.54.8,2.323,1.179a22.65,22.65,0,0,0,2.645,1.112c.511.171,1.039.294,1.549.465s1.03.346,1.562.469a9.783,9.783,0,0,1,1.764.643,13.349,13.349,0,0,1,2.5,1.235,3.12,3.12,0,0,0,1.681.613,1.142,1.142,0,0,1,.332.13,11.966,11.966,0,0,1,2.984,1.674,7.981,7.981,0,0,1,1.84,1.933c.416.649.959,1.215,1.4,1.85.456.659,1.071,1.168,1.572,1.778a11.009,11.009,0,0,1,1.272,1.894c.7,1.353,1.236,2.789,1.954,4.137.108.2.17.551.492.181a22.5,22.5,0,0,0,3.149-.831,2.964,2.964,0,0,1,.427-.135,10.181,10.181,0,0,0,3.884-1.169c.292-.16.6-.3.205-.672a26.365,26.365,0,0,0-1.188-4.167,15.005,15.005,0,0,0-1.631-3.3c-.514-.829-1.127-1.6-1.628-2.434-.429-.717-1.009-1.315-1.45-2.016-.511-.812-1.2-1.491-1.72-2.294a3.123,3.123,0,0,0-.338-.346,4.705,4.705,0,0,1-1.1-1.291,28.77,28.77,0,0,0-2.591-1.936c-1.608-.877-3.269-1.647-4.874-2.52a9.982,9.982,0,0,1-3.134-2.269c-.308-.377-.709-.181-1.147-.258" transform="translate(-37.069 -68.758)" fill="#f7e300" fill-rule="evenodd"/>
    <path id="パス_152236" data-name="パス 152236" d="M42.033,82.375a4.168,4.168,0,0,1,.336-1.691c.132-.391.075-.483-.321-.534-.1-.012-.224.039-.286-.008-.714-.532-1.616-.464-2.4-.77a18.908,18.908,0,0,1-2.634-.9.869.869,0,0,0-1.115.226,18.209,18.209,0,0,0-1.951,2.585,16.247,16.247,0,0,0-1.258,2.975,10.3,10.3,0,0,0-.27,1.051c-.023.087-.025.219-.082.252-.642.366-.485.981-.5,1.544a7.292,7.292,0,0,1-.058,1.337,2.969,2.969,0,0,1-.991,1.618,3.977,3.977,0,0,1-1.693,1.07,2.084,2.084,0,0,1-1.12.057,12.994,12.994,0,0,1-1.454-.476,4.807,4.807,0,0,0-1.758-.665.984.984,0,0,1-.277-.115c.033.169.013.441.108.49a5.31,5.31,0,0,0,1.4.583c1.25.235,2.424.722,3.649,1.034.813.208,1.605.5,2.413.727,2.624.748,5.228,1.557,7.8,2.46a16.82,16.82,0,0,0,1.654.463c.552.131,1.083.349,1.625.522a.888.888,0,0,0,.729-.34,9.386,9.386,0,0,0,1.538-3.337c.5-1.666.983-3.342,1.586-4.97.427-1.153.8-2.318,1.208-3.476a4.908,4.908,0,0,1,.508-1.537c.021-.029-.091-.23-.169-.251-.524-.147-1.067-.231-1.578-.408s-.983-.439-1.473-.654c-.426-.187-.509.01-.645.239A9.911,9.911,0,0,0,43.8,82.9c-.143.368-.485.435-.723.524-.713.266-1.034-.031-1.039-.839,0-.065,0-.129,0-.206" transform="translate(-14.262 -46.171)" fill="#fff" fill-rule="evenodd"/>
    <path id="パス_152237" data-name="パス 152237" d="M38.271,140.025a3.712,3.712,0,0,0,2.193-.439,6.342,6.342,0,0,0,2.3-1.475c.551-.591,1.133-1.153,1.712-1.717a17.775,17.775,0,0,0,1.9-2.417c.054-.075.11-.148.16-.225.184-.287.7-.414.584-.8-.087-.288-.625.071-.827-.283a21.6,21.6,0,0,1-5.011-2.181,5.93,5.93,0,0,1-1.928-1.451,11.332,11.332,0,0,0-.888-.895c-.216-.207-.406-.211-.525.058a12.6,12.6,0,0,1-1.4,1.934,5.015,5.015,0,0,1-1.208,1.035,1.061,1.061,0,0,1-.527.122,8.4,8.4,0,0,1-3.318-.656c-1.559-.512-3.067-1.176-4.586-1.806-.962-.4-1.969-.717-2.951-1.077a1.6,1.6,0,0,0-1.858.374c-.186.181-.36.374-.551.548a2.512,2.512,0,0,0-.836,1.4,5.467,5.467,0,0,0-.321,1.51,5.915,5.915,0,0,0,.205,1.273c.068.218.318.542.48.539.564-.012.8.53,1.307.637a7.154,7.154,0,0,1,1.286.63c.654.293,1.316.573,1.988.822a9.206,9.206,0,0,0,1.974.865c.219.03.4.269.62.368,1.144.519,2.329.935,3.505,1.374.783.292,1.56.6,2.323.951a19.54,19.54,0,0,0,2.994.964,5.28,5.28,0,0,0,1.212.014" transform="translate(-12.005 -75.193)" fill="#f7e300" fill-rule="evenodd"/>
    <path id="パス_152238" data-name="パス 152238" d="M101.969,11.893c0-.486-.017-.971,0-1.455a8.088,8.088,0,0,0-.449-2.144.774.774,0,0,0-.206-.4c-.74-.65-1.367-1.407-2.151-2.027-.755-.6-1.532-1.145-2.324-1.679A17.282,17.282,0,0,0,93.9,2.641a3.64,3.64,0,0,0-1.462-.2c-1.429.031-2.859.086-4.282.2a7.322,7.322,0,0,0-1.468.423,1.536,1.536,0,0,1-.426.136,4.141,4.141,0,0,0-2.8,1.183,11.372,11.372,0,0,0-2.941,4.105,6.881,6.881,0,0,0-.663,3.6,2.431,2.431,0,0,0,.2.693.51.51,0,0,0,.621.315,1.593,1.593,0,0,0,1.1-.621c.6-.9,1.318-1.718,1.966-2.586.476-.637.9-1.311,1.381-1.945a3.273,3.273,0,0,1,.756-.748,2.479,2.479,0,0,1,1.053-.475c.529-.053.493.56.642.853a8.438,8.438,0,0,0,1.327,1.875,16.585,16.585,0,0,0,3.017,2.576,18.115,18.115,0,0,0,3.41,1.818,14.616,14.616,0,0,0,3.071,1.02c.143.023.273.166.41.168a1.545,1.545,0,0,1,1.056.509.889.889,0,0,0,1.323,0,2.593,2.593,0,0,0,.782-1.807c.039-.612.008-1.228.008-1.842" transform="translate(-47.031 -1.436)" fill="#1a1311" fill-rule="evenodd"/>
    <path id="パス_152239" data-name="パス 152239" d="M100.344,22.636a22.486,22.486,0,0,1,1.941,2.21c-.771-.985-1.346-1.754-1.786-2.365a.587.587,0,0,1-.155.155" transform="translate(-59.128 -13.247)" fill="#fff" fill-rule="evenodd"/>
    <path id="パス_152240" data-name="パス 152240" d="M47.275,62.437a9.235,9.235,0,0,0-1-4.211,13.262,13.262,0,0,0-.926-1.458,1.154,1.154,0,0,0-1.13-.561c-.7.08-1.422-.011-2.132.026a13.476,13.476,0,0,0-4.161.956A7.761,7.761,0,0,0,34.873,59.4a6.557,6.557,0,0,0-1,1.427c-.6,1.245-1.41,2.388-1.931,3.661-.486,1.188-1.083,2.334-1.465,3.564-.241.774-.419,1.567-.69,2.333a.45.45,0,0,0,.271.557,7.872,7.872,0,0,0,1.323.548,9.979,9.979,0,0,0,2.724.455.512.512,0,0,0,.538-.417c.27-.762.4-1.562.746-2.31a16.359,16.359,0,0,1,1.8-3.04c.3-.318.527-.7.835-1.006a10.635,10.635,0,0,0,1.062-.912,3.692,3.692,0,0,1,1.484-1.085,4.14,4.14,0,0,1,1.215-.335,14.588,14.588,0,0,1,2.65-.416c.9.044,1.81.009,2.838.009" transform="translate(-17.539 -33.116)" fill="#fff" fill-rule="evenodd"/>
    <path id="パス_152241" data-name="パス 152241" d="M139.607,182.544l1.212-.263c.358-.077.776.18,1.081-.194a6,6,0,0,0,2.255-.4c1.517-.388,3.074-.616,4.552-1.155a3.2,3.2,0,0,0,.5-.2c.673-.383.757-1.068.1-1.474a6.57,6.57,0,0,0-1.668-.875,16.046,16.046,0,0,1-2.485-1c-.684-.324-1.446-.389-2.124-.715-.058-.028-.17.042-.251.078a10.493,10.493,0,0,1-3.212.911,12.393,12.393,0,0,0-2.167.587c-.173.049-.343.108-.513.163-.734.239-.844.393-.474,1.09a15.117,15.117,0,0,1,.722,1.638,3.219,3.219,0,0,0,1.192,1.424,4.05,4.05,0,0,0,1.282.38" transform="translate(-80.26 -103.866)" fill="#fff" fill-rule="evenodd"/>
    <path id="パス_152242" data-name="パス 152242" d="M61.64,42.04c.374.442.649.769.927,1.093.255.3.519.565.974.467a.846.846,0,0,1,.35.081,12.546,12.546,0,0,0,2.8.488c.677.029,1.358-.018,2.034.013.492.024.981.172,1.47.169a2.13,2.13,0,0,0,1.041-.269,2.247,2.247,0,0,0,.557-.723,1.056,1.056,0,0,0,.223-.467.924.924,0,0,0-.165-.505,14.144,14.144,0,0,1-.961-2.8c-.143-.375-.244-.612-.773-.7a3.079,3.079,0,0,1-1.979-1.047,4.215,4.215,0,0,0-.478-.48c-.128-.117-.28-.31-.408-.3a1.152,1.152,0,0,0-.655.262,3.361,3.361,0,0,0-1.137,2.138,3.667,3.667,0,0,1-.949,2.02,1.708,1.708,0,0,1-1.3.561c-.451-.012-.9,0-1.566,0" transform="translate(-36.322 -21.838)" fill="#1a1311" fill-rule="evenodd"/>
    <path id="パス_152243" data-name="パス 152243" d="M158.277,50.023a2.686,2.686,0,0,0,.386,1.691.592.592,0,0,0,.606.348,6.356,6.356,0,0,1,2.373.584,8.808,8.808,0,0,1,2.37,1.319,2.453,2.453,0,0,1,.876.9c.163.368.387.379.657.112.6-.589,1.207-1.171,1.779-1.784a2.636,2.636,0,0,0,.443-2.932,6.074,6.074,0,0,0-.843-1.5,6.42,6.42,0,0,0-2.349-1.358c-.3-.129-.617-.226-.921-.351a6.017,6.017,0,0,0-2.327-.228c-.046,0-.132.07-.131.106,0,.087.025.234.073.249a.918.918,0,0,1,.711.964,1.424,1.424,0,0,1-.357,1.25c-.083.093-.212.184-.227.29s.086.22.161.31a.211.211,0,0,0,.2.036,3.335,3.335,0,0,0,1.22-.812c.117-.146.244-.427.532-.18a.475.475,0,0,1,.135.664,3.287,3.287,0,0,0-.265.472c-.034.092.022.217.037.327.087-.018.2-.011.258-.062.15-.121.272-.276.417-.4a.431.431,0,0,1,.663.052c.186.182.118.3-.017.479a4.25,4.25,0,0,0-.414.794.28.28,0,0,0,.025.251.3.3,0,0,0,.259.052,1.256,1.256,0,0,0,.391-.219c.173-.145.3-.382.49-.458a2.126,2.126,0,0,1,.712-.028,2.145,2.145,0,0,1-.077.522,4.828,4.828,0,0,1-.332.541,1.01,1.01,0,0,0-.132.331.314.314,0,0,0,.07.252.257.257,0,0,0,.249-.008,8.553,8.553,0,0,0,.688-.682.529.529,0,0,1,.662-.206c.145.069.107.62-.07.775-.376.329-.634.783-1.146.974-.461.172-1.153.046-1.2-.384s-.208-.437-.527-.436c-.693,0-.777-.076-.856-.854-.034-.329-.09-.369-.4-.226a.518.518,0,0,1-.648-.275c-.14-.383-.375-.4-.711-.395-.794.014-.832.015-1.138-.679-.132-.3-.235-.5-.575-.476-.249.017-.159-.226-.249-.307-.328-.3.046-.419.157-.451.239-.069.617.069.736-.061.153-.17.563,0,.511-.445s-.074-.523-.474-.683a2.533,2.533,0,0,0-1.374-.177,1.622,1.622,0,0,0-1.075,1.46c-.021.289,0,.581,0,.96" transform="translate(-93.249 -27.585)" fill="#fff" fill-rule="evenodd"/>
    <path id="パス_152244" data-name="パス 152244" d="M3.887,132.49a8.173,8.173,0,0,0,3.358-.775c.443-.177.9-.334,1.329-.53.582-.262.65-.428.482-.987a3.4,3.4,0,0,1,0-1.827,7.935,7.935,0,0,1,.354-1.308,5.05,5.05,0,0,1,1.884-2.142c.065-.046.145-.127.145-.192a.254.254,0,0,0-.143-.188,10.99,10.99,0,0,1-1.284-.408c-.389-.185-.823-.127-1.214-.351-.331-.19-.733.045-1.023.272a4.733,4.733,0,0,0-.888.888,13.461,13.461,0,0,0-1.24,1.906,11.047,11.047,0,0,1-1.039,1.5,12.393,12.393,0,0,0-1.974,3.543c-.1.323,0,.571.288.593.321.024.645,0,.968,0" transform="translate(-1.528 -72.898)" fill="#fff" fill-rule="evenodd"/>
    <path id="パス_152245" data-name="パス 152245" d="M31.295,95.334a12.674,12.674,0,0,1-4.31-1.151c-.085-.043-.284-.035-.318.019a17.6,17.6,0,0,0-1.09,1.872,7.255,7.255,0,0,0-.481,1.637c-.1.485.225.711.657.879a17.055,17.055,0,0,0,2.135.911A2.228,2.228,0,0,0,30,99.048a3.133,3.133,0,0,0,1.076-1.392,9.712,9.712,0,0,0,.212-1.754c.018-.187,0-.376,0-.568" transform="translate(-14.778 -55.481)" fill="#fff" fill-rule="evenodd"/>
    <path id="パス_152246" data-name="パス 152246" d="M73.386,105.151A4.473,4.473,0,0,0,75.5,105a1.5,1.5,0,0,0,1.132-1.5c.027-.755.274-1.479.229-2.25-.019-.341.171-.7.183-1.082a1.9,1.9,0,0,1,.146-1.1c.174-.281-.063-.789.056-1.136.181-.527.058-1.076.2-1.568.154-.533.044-1.082.2-1.569a3.354,3.354,0,0,0,.046-1.58,4.936,4.936,0,0,1-.133.686c-.085.254-.238.485-.326.737s-.13.528-.2.791c-.156.58-.426,1.118-.613,1.689-.447,1.367-.915,2.726-1.334,4.1a12.061,12.061,0,0,1-1.348,3.322c-.129.193-.232.4-.347.606" transform="translate(-43.243 -54.929)" fill="#fff" fill-rule="evenodd"/>
    <path id="パス_152247" data-name="パス 152247" d="M94.547,58.686a4.289,4.289,0,0,0,1.432,3.666,1.317,1.317,0,0,0,1,.39,3.987,3.987,0,0,0,2.615-.92,3.394,3.394,0,0,0,.941-1.635c.076-.22.22-.6.148-.653a.623.623,0,0,0-.773.029c-.106.081-.3.056-.452.069a11.208,11.208,0,0,1-3.7-.4,7.78,7.78,0,0,1-1.208-.548" transform="translate(-55.691 -34.581)" fill="#fff" fill-rule="evenodd"/>
    <path id="パス_152248" data-name="パス 152248" d="M69.534,69.55a5.29,5.29,0,0,0,.9-1.354c.191-.738.691-1.337.817-2.085a20.385,20.385,0,0,1,.62-2.071,9.66,9.66,0,0,0,.325-3.62,4.913,4.913,0,0,0-1.555-3.506c-.283-.235-.59-.441-.893-.649a.177.177,0,0,0-.17.031c-.043.075-.094.2-.061.253a7.92,7.92,0,0,0,.541.744,7.792,7.792,0,0,1,1.2,2.792,7.223,7.223,0,0,1,.186,2.051,4.377,4.377,0,0,1-.4,1.769,12.3,12.3,0,0,0-.566,1.7c-.008.03.011.072,0,.1a9.651,9.651,0,0,0-.631,2.157,3.487,3.487,0,0,0-.3,1.692" transform="translate(-40.954 -33.148)" fill="#fff" fill-rule="evenodd"/>
    <path id="パス_152249" data-name="パス 152249" d="M129.64,38.582a1.36,1.36,0,0,0-.351-1.249,1.1,1.1,0,0,0-.9-.434c-.3.011-.5.191-.465.467a7.148,7.148,0,0,1-.229,1.761,7.106,7.106,0,0,1-.456,1.452,2.031,2.031,0,0,0-.1.345c-.034.229.126.3.292.235.28-.1.54-.255.812-.38a3.39,3.39,0,0,0,1.218-1.151,1.318,1.318,0,0,0,.178-1.047" transform="translate(-74.914 -21.743)" fill="#fff" fill-rule="evenodd"/>
    <path id="パス_152250" data-name="パス 152250" d="M79.706,34.066a11.878,11.878,0,0,1-.269-1.747,8.977,8.977,0,0,0-.214-1.562.482.482,0,0,0-.568-.472,1.171,1.171,0,0,0-1.168.962A3.074,3.074,0,0,0,77.5,32.4a1.108,1.108,0,0,0,.529.805,4.28,4.28,0,0,0,1.372.659c.048.005.09.058.3.2" transform="translate(-45.631 -17.846)" fill="#fff" fill-rule="evenodd"/>
    <path id="パス_152251" data-name="パス 152251" d="M76.363,64.731c-.024.11-.085.216-.056.281a4.274,4.274,0,0,1,.187,1.76,1.827,1.827,0,0,1-.012.672,19.092,19.092,0,0,0-.446,1.942,12.625,12.625,0,0,1-.511,1.82,6.491,6.491,0,0,0-.378.906c-.044.148-.106.412.226.4a1,1,0,0,1,.29,0c.133.034.357.162.372.139a1.393,1.393,0,0,0,.257-.564c.087-.809.156-1.621.2-2.434a32.586,32.586,0,0,0,.21-3.789,1.941,1.941,0,0,0-.337-1.135" transform="translate(-44.26 -38.143)" fill="#fff" fill-rule="evenodd"/>
    <path id="パス_152252" data-name="パス 152252" d="M100.089,44.923c.3.034.589.154.888.182.906.081,1.815.128,2.722.209a.793.793,0,0,1,.39.214c.166.142-.04.283-.036.393.022.549-.421.843-.689,1.163a5.8,5.8,0,0,1-2.239,1.963.821.821,0,0,1-1-.11,16.174,16.174,0,0,1-2.307-3.11c-.291-.434.009-.891.535-.908.29-.01.58,0,.87,0a7.959,7.959,0,0,1,.869.007m2.331,1.16c-.789.063-1.535-.321-2.334-.209-.186.026-.392-.148-.6-.171-.177-.021-.442-.023-.529.081-.159.195.114.306.214.453.39.577.77,1.162,1.161,1.738.159.234.462.383.641.193.332-.352.863-.433,1.082-.973.164-.4.609-.69,1.008-1.114-.281,0-.467-.012-.649,0" transform="translate(-57.571 -26.462)" fill="#1a1311" fill-rule="evenodd"/>
    <path id="パス_152253" data-name="パス 152253" d="M109.932,33.389c.124.166.19.333.308.389.087.04.262-.039.363-.113.227-.168.435-.362.645-.551a.665.665,0,0,1,1.093.221c.087.156.151.327.245.479a.579.579,0,0,0,.659.216,1.494,1.494,0,0,0,.18-.73,1.858,1.858,0,0,0-3.217-.494,3.1,3.1,0,0,0-.276.584" transform="translate(-64.778 -18.903)" fill="#1a1311" fill-rule="evenodd"/>
    <path id="パス_152254" data-name="パス 152254" d="M95.02,32.6c.062.078.15.282.3.339a.4.4,0,0,0,.516-.118,4.3,4.3,0,0,1,.344-.532.684.684,0,0,1,1.123-.055c.142.132.278.269.41.41s.254.189.4.036c.123-.131.331-.234.144-.467-.232-.289-.446-.593-.69-.87a.5.5,0,0,0-.328-.126,7.645,7.645,0,0,0-.965,0A1.785,1.785,0,0,0,95.02,32.6" transform="translate(-55.991 -18.388)" fill="#1a1311" fill-rule="evenodd"/>
    <path id="パス_152255" data-name="パス 152255" d="M104.135,37.847a1.6,1.6,0,0,0-.652.3,2.1,2.1,0,0,0-.4.884c-.025.089.155.255.27.352.044.037.191,0,.25-.044a3.449,3.449,0,0,0,.48-.475c.3-.379.446-.291.725.074.051.067.037.223.088.242a.668.668,0,0,0,.373.018c.056-.014.113-.137.12-.215.064-.693-.364-1.139-1.255-1.132" transform="translate(-60.742 -22.301)" fill="#1a1311" fill-rule="evenodd"/>
    <path id="パス_152256" data-name="パス 152256" d="M104.807,47.205c-.281,0-.467-.012-.649,0-.789.064-1.535-.321-2.334-.209-.186.026-.392-.148-.6-.171-.177-.021-.442-.023-.529.081-.159.195.115.306.214.453.39.577.77,1.162,1.161,1.737.159.234.462.383.641.193.332-.352.863-.433,1.082-.973.164-.4.609-.69,1.008-1.114" transform="translate(-59.31 -27.586)" fill="#fff" fill-rule="evenodd"/>
  </g>
</svg>
