<svg width="52" height="63" viewBox="0 0 52 63" fill="none" xmlns="http://www.w3.org/2000/svg">
<g clip-path="url(#clip0_345_86)">
<mask id="mask0_345_86" style="mask-type:luminance" maskUnits="userSpaceOnUse" x="0" y="0" width="213" height="63">
<path d="M212.155 0H0V62.88H212.155V0Z" fill="white"/>
</mask>
<g mask="url(#mask0_345_86)">
<path fill-rule="evenodd" clip-rule="evenodd" d="M34.1919 24.9447C35.8032 25.717 37.4635 26.3827 39.1619 26.9377C39.4951 27.0556 39.8589 27.0548 40.1916 26.9355C40.5243 26.8161 40.8056 26.5855 40.9879 26.2827C41.2489 25.8117 41.3829 25.2717 41.6279 24.7907C41.7675 24.551 41.8294 24.274 41.8053 23.9978C41.7811 23.7215 41.672 23.4595 41.4929 23.2477C41.2796 22.9147 41.1748 22.5237 41.1929 22.1287C41.1819 21.4847 41.3979 20.8677 41.3929 20.2477C41.3829 19.1897 42.2109 18.7597 42.7699 18.1197C42.8005 18.1028 42.8349 18.0939 42.8699 18.0939C42.9049 18.0939 42.9393 18.1028 42.9699 18.1197C43.3009 18.6497 43.6069 17.9557 43.9489 18.1027C44.1359 18.1827 44.2319 18.0577 44.3559 17.8297C44.4493 17.6553 44.5772 17.5019 44.732 17.3788C44.8868 17.2557 45.065 17.1655 45.2559 17.1137C46.0711 16.9569 46.9091 16.9606 47.7229 17.1247C48.8971 17.3237 49.9636 17.9302 50.7349 18.8377C50.9849 19.1917 51.3959 19.3957 51.5729 19.8377C51.7844 20.6391 51.8091 21.4783 51.6449 22.2907C51.3939 23.1858 51.0175 24.041 50.5269 24.8307C50.2251 25.4575 49.697 25.9467 49.0489 26.1997C48.8632 26.2757 48.695 26.3891 48.5548 26.5327C48.4146 26.6763 48.3054 26.8472 48.2339 27.0347C47.5149 28.4997 46.7639 29.9507 45.9609 31.3707C45.4598 32.3168 44.791 33.1639 43.9869 33.8707C43.6299 34.1707 43.2659 34.4597 42.9009 34.7477C42.8246 34.8071 42.7396 34.8543 42.6489 34.8877C41.3581 35.3861 39.9314 35.4049 38.6279 34.9407C37.3479 34.5117 36.1379 33.9497 34.9019 33.4357C34.4019 33.2257 34.3519 33.2357 34.1699 33.7357C33.7425 35.1651 32.821 36.396 31.5699 37.2087C31.3228 37.428 31.0127 37.5638 30.6839 37.5967C30.5902 37.617 30.5024 37.6586 30.4274 37.7183C30.3523 37.7779 30.2919 37.854 30.2509 37.9407C30.1259 38.1114 30.0411 38.3081 30.0027 38.5162C29.9644 38.7242 29.9734 38.9383 30.0293 39.1423C30.0851 39.3464 30.1863 39.5352 30.3253 39.6948C30.4642 39.8543 30.6374 39.9804 30.8319 40.0637C32.0913 40.8053 33.2488 41.7079 34.2749 42.7487C34.3739 42.8904 34.4988 43.0122 34.6429 43.1077C35.3499 43.5775 35.9826 44.1505 36.5199 44.8077C36.6949 44.9667 36.9079 45.3607 36.8359 45.4677C36.5729 45.8607 36.8789 46.0037 37.0739 46.1537C37.4319 46.4287 37.8439 46.6337 38.2109 46.8977C39.1209 47.5537 39.9969 48.2597 40.9019 48.9177C42.062 49.6722 43.1632 50.5136 44.1959 51.4347C44.2638 51.5076 44.3462 51.5656 44.4379 51.6048C44.5295 51.6441 44.6283 51.6638 44.7279 51.6627C45.2221 51.6349 45.7133 51.568 46.1969 51.4627C46.9109 51.3777 47.6469 51.4867 48.3669 51.4267C48.9259 51.4326 49.4663 51.6279 49.8999 51.9807C50.0956 52.1081 50.2563 52.2825 50.3674 52.4879C50.4784 52.6933 50.5364 52.9232 50.5359 53.1567C50.5948 53.9172 50.4274 54.6781 50.0549 55.3437C49.7604 55.9374 49.3602 56.4724 48.8739 56.9227C48.4109 57.3087 47.9539 57.7017 47.4949 58.0927C46.5962 58.8379 45.5832 59.4332 44.4949 59.8557C43.4199 60.1425 42.302 60.233 41.1949 60.1227C41.0041 60.0968 40.8234 60.0213 40.6709 59.9037C39.6185 59.1195 38.6811 58.1918 37.8859 57.1477C37.4652 56.5885 36.9968 56.0669 36.4859 55.5887C35.7009 54.8597 34.8639 54.1887 34.0469 53.4887C33.5923 53.0455 33.1009 52.6417 32.5779 52.2817C31.8961 51.7961 31.1718 51.373 30.4139 51.0177C29.6079 50.7177 28.8869 50.2377 28.0649 49.9387C27.4749 49.7227 26.8779 49.4687 26.2769 49.2667C25.9449 49.1557 25.9219 48.6377 25.4769 48.7467C25.1299 48.8307 24.7769 48.8767 24.4269 48.9617C24.2759 48.9987 24.1399 49.1497 23.9929 49.1547C22.8535 49.2916 21.7075 49.3674 20.5599 49.3817C19.8662 49.4014 19.1764 49.2707 18.5379 48.9987C18.3183 48.8749 18.0676 48.8171 17.8159 48.8322C17.5642 48.8472 17.3222 48.9346 17.1189 49.0837C16.4077 49.5842 15.5749 49.884 14.7079 49.9517C12.8741 50.1807 11.0122 49.993 9.26092 49.4027C7.90644 48.9329 6.66326 48.1891 5.60892 47.2177C5.17792 46.7717 4.94692 46.7797 4.40892 47.1557C3.94759 47.5177 3.45613 47.8395 2.93992 48.1177C2.30801 48.3466 1.63119 48.424 0.963916 48.3437C0.839583 48.3577 0.7137 48.3442 0.595109 48.3044C0.476519 48.2645 0.368098 48.1991 0.277464 48.1129C0.186829 48.0266 0.116179 47.9216 0.0704761 47.8051C0.0247734 47.6886 0.00512667 47.5636 0.0129162 47.4387C-0.00611784 47.1633 -0.00411202 46.8868 0.0189162 46.6117C0.0509162 46.3597 0.171916 46.1197 0.213916 45.8677C0.251724 45.3418 0.329955 44.8196 0.447916 44.3057C0.735985 43.4611 1.07768 42.6357 1.47092 41.8347C1.78092 41.1937 2.33092 40.6997 2.64092 40.0427C2.76492 39.7777 3.06492 39.5957 3.28392 39.3757C3.04492 39.0987 3.12392 38.7617 3.11792 38.4427C3.09054 38.0641 3.09355 37.6838 3.12692 37.3057C3.16689 36.8221 3.28334 36.3478 3.47192 35.9007C3.8894 34.8981 4.25423 33.8744 4.56492 32.8337C5.00323 31.3614 5.63152 29.9526 6.43392 28.6427C7.12327 27.6341 7.86983 26.6659 8.66992 25.7427C9.26771 25.1204 9.94725 24.5821 10.6899 24.1427C11.0517 23.9208 11.3644 23.6275 11.6089 23.2807C11.9213 22.7706 12.3608 22.3503 12.8844 22.0611C13.408 21.7718 13.9978 21.6235 14.5959 21.6307C15.4229 21.6517 16.2519 21.6177 17.0789 21.6427C17.4329 21.6537 17.8279 21.4807 18.1429 21.8317C18.2028 21.8637 18.2698 21.8799 18.3377 21.8789C18.4056 21.8778 18.4721 21.8595 18.5309 21.8257C18.7479 21.5547 19.0309 21.6777 19.2859 21.6257C19.3359 21.5982 19.3779 21.5582 19.4078 21.5097C19.4378 21.4611 19.4547 21.4057 19.4569 21.3487C19.4049 21.1687 19.2569 21.0167 19.1959 20.8377C19.0959 20.5657 19.1239 20.2007 18.9489 20.0217C18.7739 19.8427 18.3429 20.1147 18.1309 19.7807C17.6159 19.9137 17.3019 19.4737 17.0309 19.2347C16.6054 18.8812 16.3127 18.3935 16.2009 17.8517C16.0587 17.3331 16.0449 16.7876 16.1607 16.2625C16.2766 15.7373 16.5186 15.2483 16.8659 14.8377C17.0169 14.6897 16.8659 14.6457 16.8399 14.5377C16.6656 14.1633 16.5701 13.7571 16.5592 13.3442C16.5484 12.9314 16.6225 12.5207 16.7769 12.1377C16.7989 12.0967 16.7049 11.9287 16.6469 11.9187C16.4809 11.8887 16.2539 11.8387 16.1399 11.9187C15.4899 12.3827 14.8459 12.0497 14.2399 11.8877C13.4021 11.6437 12.6271 11.2214 11.9679 10.6497C11.788 10.4411 11.6825 10.1787 11.6679 9.90369C11.6579 9.83769 11.9769 9.64569 12.1469 9.64269C13.1929 9.62469 13.9089 9.06969 14.1069 7.59869C14.1819 7.04069 14.2189 6.46769 14.3329 5.92969C14.5036 5.14486 14.839 4.40522 15.3169 3.75969C15.4513 3.61599 15.6132 3.50072 15.7929 3.42069C16.9363 2.71431 18.256 2.34515 19.5999 2.35569C20.3119 2.37769 20.9819 2.59469 21.6869 2.60169C21.8489 2.62841 21.9943 2.71652 22.0929 2.84769C22.2727 3.07733 22.4326 3.32188 22.5709 3.57869C22.7164 3.83875 22.9554 4.03371 23.2393 4.12397C23.5233 4.21423 23.831 4.19304 24.0999 4.06469C24.9913 3.65675 25.9568 3.43554 26.9369 3.41469C27.3499 3.43269 27.7659 3.39669 28.1789 3.42369C28.5778 3.38155 28.9809 3.44071 29.3509 3.59569C29.6949 3.79069 30.2229 3.47169 30.5949 3.83169C31.1739 3.66769 31.6049 4.09669 32.0669 4.27769C33.1911 4.6787 34.2435 5.25775 35.1839 5.99269C35.7138 6.50873 36.277 6.98943 36.8699 7.43169C37.4624 7.79611 37.954 8.30323 38.2999 8.90669C39.2108 10.2214 39.7138 11.7756 39.7459 13.3747C39.7289 13.7287 39.5459 14.0747 39.5599 14.4267C39.5844 15.4125 39.3399 16.3863 38.8529 17.2437C38.7689 17.3997 38.6669 17.4827 38.7899 17.6787C39.0903 18.2734 39.2122 18.9423 39.1409 19.6047C39.1524 19.8023 39.1227 20.0001 39.0539 20.1856C38.985 20.3711 38.8785 20.5404 38.7409 20.6827C38.4853 20.9638 38.2145 21.2309 37.9299 21.4827C37.7322 21.6474 37.5008 21.7669 37.2519 21.8327C36.8039 21.9353 36.349 22.0055 35.8909 22.0427C35.6629 22.0637 35.6909 22.2187 35.6009 22.3427C35.0339 23.1217 34.4169 23.8647 33.7629 24.6877C33.9139 24.7797 34.0469 24.8767 34.1929 24.9467M25.7209 47.8267C27.0709 47.4827 28.2529 46.7657 29.5779 46.3917C30.3688 46.092 31.1986 45.9071 32.0419 45.8427C32.3633 45.8084 32.6807 45.7438 32.9899 45.6497C33.281 45.6173 33.5699 45.5672 33.8549 45.4997C34.3942 45.4077 34.9431 45.3859 35.4879 45.4347C35.6066 45.4096 35.7204 45.3653 35.8249 45.3037C35.7864 45.1818 35.7272 45.0675 35.6499 44.9657C35.0499 44.4207 34.4339 43.9007 33.8429 43.3497C33.265 42.8039 32.6451 42.3044 31.9889 41.8557C31.1891 41.344 30.4179 40.7889 29.6789 40.1927C29.4387 40.0151 29.1589 39.8986 28.8636 39.8531C28.5683 39.8077 28.2665 39.8346 27.9839 39.9317C27.7631 39.9867 27.539 40.0271 27.3129 40.0527C26.3129 40.0657 25.3129 40.0477 24.3129 40.0617C23.004 40.0352 21.7094 39.7835 20.4859 39.3177C19.1859 38.8767 17.8859 38.4547 16.5959 37.9797C15.9705 37.7403 15.3655 37.4507 14.7869 37.1137C14.5999 37.0077 14.5599 37.0347 14.4069 37.1357C13.9239 37.4527 13.3849 37.6887 12.9229 38.0357C12.3646 38.4673 11.8305 38.9294 11.3229 39.4197C11.1629 39.5687 11.0959 39.8197 10.9469 39.9817C10.8569 40.0576 10.785 40.1527 10.7365 40.2599C10.688 40.3672 10.664 40.4839 10.6664 40.6017C10.6688 40.7194 10.6975 40.835 10.7503 40.9403C10.8032 41.0455 10.8789 41.1375 10.9719 41.2097C11.1662 41.3832 11.3053 41.6099 11.3719 41.8617C11.6066 42.7866 12.1093 43.6215 12.8169 44.2617C13.4456 44.9939 14.1263 45.6797 14.8539 46.3137C15.6488 47.0334 16.5836 47.5815 17.5999 47.9237C17.8109 47.9957 18.0259 48.0577 18.2369 48.1327C19.1232 48.4943 20.0844 48.6337 21.0369 48.5387C22.6245 48.5342 24.2026 48.2946 25.7199 47.8277M26.1259 12.4067C25.6306 12.9382 25.0126 13.3403 24.3259 13.5777C23.8259 13.7597 23.7559 13.7587 23.6049 13.2517C23.4939 12.8817 23.4209 12.8457 23.1789 13.0587C22.5469 13.6167 21.9059 14.1647 21.2959 14.7457C21.0159 15.0127 20.6659 15.2217 20.6769 15.7387C20.6829 16.0517 20.1979 16.1387 19.9989 15.8387C19.4499 15.0007 18.6259 15.2247 17.8679 15.2387C17.6414 15.2903 17.4436 15.4276 17.3159 15.6217C17.1164 15.8846 16.9777 16.1884 16.9096 16.5113C16.8416 16.8343 16.846 17.1682 16.9225 17.4893C16.999 17.8103 17.1457 18.1104 17.3521 18.3679C17.5584 18.6254 17.8193 18.834 18.1159 18.9787C18.4915 19.1133 18.8907 19.1697 19.2889 19.1447C19.7119 19.1987 19.9069 19.3327 19.8719 19.7727C19.9161 20.5559 20.2023 21.3061 20.6909 21.9197C21.1625 22.7083 21.7891 23.3932 22.5329 23.9327C23.2124 24.4738 23.9842 24.8874 24.8109 25.1537C25.2534 25.3413 25.7167 25.4756 26.1909 25.5537C27.2559 25.6137 28.3269 25.5817 29.3909 25.5667C30.5622 25.2466 31.7045 24.8288 32.8059 24.3177C33.2008 23.984 33.5687 23.6196 33.9059 23.2277C34.6144 22.3827 35.2054 21.4459 35.6629 20.4427C35.7822 20.1463 35.8805 19.8419 35.9569 19.5317C36.0803 19.1651 36.171 18.7883 36.2279 18.4057C36.2927 17.8446 36.173 17.2777 35.8869 16.7907C35.5375 16.1021 35.1408 15.4386 34.6999 14.8047C34.5397 14.6036 34.4322 14.3658 34.3869 14.1127C34.3029 13.5247 33.8249 13.1757 33.5869 12.6837C33.4779 12.4567 33.2639 12.4507 33.0969 12.6677C32.7896 12.9737 32.5092 13.3056 32.2589 13.6597C31.9882 14.0399 31.6213 14.3415 31.1959 14.5337C30.9485 14.6123 30.6802 14.5926 30.4469 14.4787C30.3858 14.4459 30.332 14.401 30.2889 14.3466C30.2458 14.2922 30.2143 14.2296 30.1964 14.1626C30.1785 14.0956 30.1746 14.0256 30.1848 13.957C30.195 13.8884 30.2192 13.8226 30.2559 13.7637C30.4233 13.3986 30.4859 12.9943 30.4369 12.5957C30.4394 12.5481 30.4318 12.5005 30.4145 12.456C30.3973 12.4115 30.3708 12.3712 30.3369 12.3377C30.2909 12.3254 30.2427 12.3237 30.1959 12.3327C30.1492 12.3417 30.1051 12.3612 30.0669 12.3897C29.4849 12.8207 28.9319 13.2947 28.3249 13.6897C28.0346 13.9108 27.6725 14.016 27.3089 13.9847C27.0229 13.9427 26.5889 13.4907 26.7379 13.2687C26.8706 13.0773 26.9357 12.8472 26.9229 12.6147C26.9229 12.4147 26.9229 12.2047 26.9229 11.8537C26.6381 12.0107 26.3701 12.1964 26.1229 12.4077M28.5709 39.0177C28.6654 38.9947 28.7519 38.9463 28.8209 38.8777C29.0506 38.6926 29.2376 38.4601 29.3692 38.196C29.5007 37.9319 29.5736 37.6425 29.5829 37.3477C29.5923 36.2298 29.8149 35.1241 30.2389 34.0897C30.4232 33.3978 30.5717 32.6969 30.6839 31.9897C30.8575 30.6444 30.91 29.2863 30.8409 27.9317C30.8184 27.4043 30.7515 26.8798 30.6409 26.3637C30.6327 26.2992 30.5997 26.2404 30.5489 26.1997C30.3554 26.1482 30.1522 26.1459 29.9576 26.1931C29.763 26.2402 29.5833 26.3353 29.4349 26.4697C29.1006 27.059 28.6045 27.5403 28.0054 27.8568C27.4063 28.1733 26.7292 28.3117 26.0539 28.2557C25.9849 28.2557 25.9159 28.2607 25.8479 28.2557C25.5169 28.2247 25.1009 28.3047 24.8719 28.1347C24.35 27.8213 23.9705 27.317 23.8139 26.7287C23.7684 26.3538 23.626 25.9973 23.4006 25.6942C23.1753 25.3912 22.8748 25.1522 22.5289 25.0007C22.2649 24.8847 22.1829 24.9457 22.1499 25.2297C22.0887 25.8161 21.9969 26.3989 21.8749 26.9757C21.6477 27.5029 21.4553 28.0444 21.2989 28.5967C20.4989 29.5857 20.2469 30.9367 19.1859 31.7597C18.9479 31.986 18.7402 32.2421 18.5679 32.5217C18.0448 33.1709 17.3914 33.7034 16.6499 34.0847C16.3369 34.2597 16.0769 34.5267 15.7789 34.7327C15.6069 34.8683 15.473 35.0462 15.3901 35.2489C15.3072 35.4517 15.2782 35.6724 15.3059 35.8897C15.2719 36.1027 15.3194 36.3207 15.439 36.5003C15.5585 36.6799 15.7413 36.8078 15.9509 36.8587C16.8509 37.1827 17.7409 37.5267 18.6299 37.8787C19.4859 38.227 20.3622 38.5232 21.2539 38.7657C22.191 39.0984 23.1796 39.263 24.1739 39.2517C24.6825 39.2665 25.1869 39.3485 25.6739 39.4957C26.6859 39.3297 27.6259 39.1777 28.5639 39.0157M26.9649 10.5177C27.1009 10.3857 27.2269 10.1267 27.4539 10.2837C27.5313 10.3423 27.5961 10.4157 27.6447 10.4997C27.6933 10.5836 27.7247 10.6764 27.7369 10.7727C27.7719 11.3577 27.7569 11.9447 27.7449 12.5307C27.7244 12.6662 27.6868 12.7986 27.6329 12.9247C27.7949 12.9097 28.0109 12.9557 28.1109 12.8697C28.8109 12.4235 29.4689 11.9148 30.0769 11.3497C30.2979 11.0787 30.5329 10.6867 30.9919 10.9117C31.3859 11.1037 31.2629 11.4957 31.2669 11.8267C31.2719 12.3067 31.2669 12.7867 31.2669 13.2967C31.5339 13.3467 31.5899 13.0967 31.7179 12.9967C31.8592 12.8569 31.9856 12.7027 32.0949 12.5367C32.2069 12.3736 32.3281 12.217 32.4579 12.0677C33.1579 11.3487 33.5429 11.3587 34.1059 12.1677C34.569 12.8272 34.988 13.5167 35.3599 14.2317C35.9259 15.0899 36.4273 15.9891 36.8599 16.9217C36.9369 17.1487 37.0759 17.1217 37.2479 17.0097C37.3479 16.9457 37.5479 16.8607 37.5879 16.9007C38.0109 17.3127 38.1509 16.9607 38.3059 16.6527C38.5715 16.1649 38.7172 15.6209 38.7309 15.0657C38.7309 14.4027 38.9559 13.7657 38.9519 13.0827C38.9177 12.4299 38.7649 11.7887 38.5009 11.1907C38.2335 10.2492 37.737 9.38857 37.0559 8.68569C36.3445 7.9619 35.5858 7.28608 34.7849 6.66269C33.549 5.79936 32.1956 5.11806 30.7659 4.63969C29.6417 4.32945 28.4763 4.19453 27.3109 4.23969C26.4498 4.18593 25.5875 4.32497 24.7869 4.64669C24.2079 4.90969 24.1189 4.92769 24.3419 5.47569C24.4037 5.57178 24.4361 5.68384 24.435 5.79808C24.4339 5.91233 24.3995 6.02376 24.3359 6.11869C24.263 6.227 24.2278 6.35636 24.2359 6.48669C24.3019 7.18669 23.8709 7.50069 23.3299 7.77569C23.1519 7.86569 22.9659 7.91669 22.7989 7.99269C22.4829 8.13769 22.1329 8.09969 21.8599 8.22169C21.6949 8.29569 21.7159 8.75069 21.6199 9.02169C21.5955 9.15379 21.545 9.27972 21.4716 9.39218C21.3981 9.50464 21.303 9.60139 21.1918 9.67683C21.0807 9.75227 20.9557 9.80489 20.824 9.83165C20.6924 9.8584 20.5567 9.85876 20.4249 9.83269C19.9369 9.75369 19.4089 10.0077 18.9479 9.64369C18.8969 9.60369 18.6759 9.68669 18.6109 9.77169C17.7365 10.8114 17.3036 12.152 17.4049 13.5067C17.4422 13.761 17.5125 14.0095 17.6139 14.2457C17.6387 14.2838 17.6719 14.3157 17.7109 14.3391C17.7499 14.3625 17.7936 14.3767 17.8389 14.3807C18.1484 14.4069 18.4595 14.4069 18.7689 14.3807C18.9325 14.3526 19.1002 14.3584 19.2615 14.3976C19.4228 14.4368 19.5744 14.5087 19.7069 14.6087C19.76 14.6523 19.8214 14.6847 19.8874 14.704C19.9533 14.7233 20.0225 14.7291 20.0907 14.7211C20.1589 14.7131 20.2249 14.6914 20.2845 14.6573C20.3442 14.6232 20.3964 14.5774 20.4379 14.5227C20.9779 14.0147 21.4539 13.4377 21.9539 12.8857C22.1129 12.7107 22.2539 12.4007 22.4329 12.3857C23.3669 12.2857 23.5549 11.4447 24.0229 10.8857C24.1105 10.7485 24.2071 10.6172 24.3119 10.4927C24.4279 10.3927 24.6289 10.2327 24.7179 10.2717C24.9229 10.3627 25.1359 10.5337 25.0569 10.8247C24.9569 11.1957 24.8309 11.5597 24.7309 11.9297C24.6819 12.1077 24.6649 12.2937 24.6229 12.5367C25.4948 11.9773 26.2832 11.2976 26.9649 10.5177ZM43.1649 33.4597C43.6207 33.0962 44.0382 32.687 44.4109 32.2387C45.1726 31.1955 45.8479 30.0918 46.4299 28.9387C46.7539 28.2457 47.1139 27.5687 47.4449 26.8787C47.5268 26.7048 47.584 26.5204 47.6149 26.3307C47.6409 26.1697 47.6059 26.0747 47.3989 25.9677C46.1247 25.3093 44.8135 24.725 43.4719 24.2177C42.8029 23.9637 42.7599 24.0807 42.4259 24.7727C42.1489 25.3467 42.2189 26.0877 41.6189 26.5067C41.4119 27.2877 40.6579 27.4337 40.0969 27.7967C40.0225 27.8373 39.9403 27.8615 39.8558 27.8677C39.7713 27.8739 39.6864 27.862 39.6069 27.8327C39.0219 27.5607 38.3669 27.5567 37.7799 27.2457C37.0565 26.9138 36.3122 26.6292 35.5519 26.3937C35.3729 26.3277 35.1949 26.2577 35.0179 26.1867C34.7419 26.0767 34.4659 25.9657 34.1899 25.8547C34.2519 26.1337 34.2309 26.4817 34.3899 26.6727C34.4763 26.7967 34.5371 26.9368 34.5687 27.0846C34.6003 27.2325 34.6021 27.3851 34.5739 27.5337C34.5819 29.0837 34.5819 30.6337 34.5739 32.1837C34.5739 32.4597 34.5849 32.6577 34.9429 32.6087C35.0719 32.5907 35.2549 32.5767 35.3329 32.6487C36.18 33.2302 37.1139 33.6737 38.0999 33.9627C38.8906 34.346 39.767 34.5182 40.6439 34.4627C41.1136 34.5139 41.5888 34.4496 42.028 34.2753C42.4672 34.101 42.8571 33.8221 43.1639 33.4627M14.4279 23.8987C13.1125 23.8557 11.8217 24.2628 10.7689 25.0527C9.57923 25.9318 8.53573 26.9932 7.67692 28.1977C7.26631 28.7389 6.89215 29.3068 6.55692 29.8977C6.03119 31.0233 5.57793 32.1813 5.19992 33.3647C5.11256 33.608 5.11779 33.875 5.21461 34.1148C5.31143 34.3545 5.49307 34.5502 5.72492 34.6647C6.52661 35.052 7.34959 35.3935 8.18992 35.6877C8.56165 35.7615 8.94393 35.7649 9.31692 35.6977C9.39392 35.6927 9.49192 35.5477 9.52792 35.4487C9.83909 34.3109 10.2404 33.1997 10.7279 32.1257C11.0596 31.538 11.5181 31.0317 12.0701 30.6435C12.6221 30.2553 13.2537 29.9951 13.9189 29.8817C14.7438 29.7359 15.5822 29.6819 16.4189 29.7207C16.6208 29.7336 16.8218 29.6843 16.9947 29.5793C17.1677 29.4743 17.3042 29.3188 17.3859 29.1337C17.7381 28.3828 18.0225 27.6021 18.2359 26.8007C18.4193 25.8486 18.4894 24.8782 18.4449 23.9097C17.0349 23.9097 15.7269 23.9567 14.4229 23.8967M45.6999 52.2737C45.1383 52.2745 44.5995 52.4961 44.1999 52.8907C42.7859 54.2687 41.3459 55.6197 39.9159 56.9807C39.8605 57.0215 39.8122 57.0712 39.7729 57.1277C39.6729 57.3167 39.2109 57.1517 39.3519 57.5497C39.4043 57.7367 39.5058 57.9062 39.6459 58.0407C40.2055 58.5898 40.8575 59.0359 41.5719 59.3587C41.7538 59.4192 41.9387 59.4703 42.1259 59.5117C42.2259 59.5327 42.3679 59.5587 42.4259 59.5117C42.8599 59.1537 43.4029 59.4247 43.8639 59.2427C44.1889 59.1137 44.5339 59.0267 44.8439 58.8707C45.2152 58.6781 45.573 58.4606 45.9149 58.2197C46.6389 57.7197 47.3769 57.2347 48.0609 56.6847C48.7819 56.0171 49.3261 55.1811 49.6449 54.2517C50.1149 53.1447 49.4139 52.2867 48.1709 52.2737H46.9339C46.5209 52.2737 46.1079 52.2637 45.6959 52.2737M30.9679 50.3857C31.9925 50.9418 32.9668 51.5859 33.8799 52.3107C34.0549 52.4517 34.1189 52.4387 34.2579 52.2957C34.3399 52.2127 34.5109 52.2197 34.5999 52.1397C35.3559 51.4667 36.1239 50.8027 36.8459 50.0937C37.3219 49.6267 37.7299 49.0937 38.1659 48.5807C38.2165 48.537 38.2568 48.4827 38.284 48.4216C38.3112 48.3605 38.3246 48.2942 38.3232 48.2274C38.3219 48.1606 38.3059 48.0949 38.2762 48.0349C38.2466 47.975 38.2042 47.9223 38.1519 47.8807C38.0031 47.7502 37.8476 47.6277 37.6859 47.5137C37.2919 47.2207 36.9029 46.9197 36.4979 46.6427C36.2542 46.4256 35.9463 46.2939 35.6209 46.2677C35.0107 46.1758 34.389 46.1934 33.7849 46.3197C33.2439 46.5567 32.6219 46.2197 32.1849 46.6847C31.4306 46.6656 30.6807 46.8067 29.9849 47.0987C29.5329 47.2547 29.0729 47.3877 28.6339 47.5747C27.9899 47.8477 27.3629 48.1607 26.7269 48.4567C28.1059 49.1567 29.5999 49.6317 30.9739 50.3887M45.9309 18.5317C46.0969 18.6667 46.2457 18.8215 46.3739 18.9927C46.6305 19.3211 46.8331 19.6884 46.9739 20.0807C47.0372 20.5953 47.0459 21.1152 46.9999 21.6317C47.1508 21.2845 47.3228 20.9469 47.5149 20.6207C47.5618 20.5563 47.6233 20.5039 47.6944 20.4681C47.7656 20.4323 47.8443 20.414 47.9239 20.4147C47.9996 20.4472 48.0663 20.4974 48.1185 20.5611C48.1708 20.6248 48.2069 20.7001 48.2239 20.7807C48.2152 21.0075 48.1792 21.2324 48.1169 21.4507C48.1046 21.568 48.0982 21.6858 48.0979 21.8037C48.2399 21.7567 48.4189 21.7467 48.5159 21.6527C48.6264 21.4971 48.7267 21.3344 48.8159 21.1657C48.8447 21.1125 48.8889 21.0692 48.9427 21.0415C48.9965 21.0139 49.0574 21.0031 49.1174 21.0107C49.1774 21.0182 49.2337 21.0438 49.279 21.0839C49.3242 21.1241 49.3563 21.177 49.3709 21.2357C49.4771 21.4709 49.4889 21.738 49.4039 21.9817C49.1929 22.2887 49.3149 22.5517 49.2839 22.8587C49.4769 22.8109 49.6598 22.7289 49.8239 22.6167C50.0109 22.4167 50.0849 22.5517 50.2009 22.6657C50.2355 22.6899 50.2636 22.7221 50.2829 22.7596C50.3022 22.7972 50.312 22.8388 50.3115 22.881C50.311 22.9232 50.3003 22.9646 50.2801 23.0017C50.26 23.0388 50.2311 23.0703 50.1959 23.0937C50.0822 23.2228 49.9592 23.3434 49.8279 23.4547C49.1599 23.9197 48.6889 23.7477 48.4539 22.9237C48.3729 22.6397 48.2849 22.5957 48.0539 22.7467C48.023 22.7674 47.9878 22.781 47.951 22.7865C47.9142 22.792 47.8766 22.7894 47.8409 22.7787C47.7122 22.7089 47.5685 22.6712 47.422 22.6689C47.2756 22.6667 47.1308 22.6999 46.9999 22.7657C46.4359 22.9727 46.3349 22.9217 46.1869 22.3217C46.1189 22.0457 46.0619 22.0077 45.7949 22.1077C45.0249 22.3967 44.6069 22.3877 44.2949 21.4347C44.2079 21.1697 43.9179 20.9727 43.7319 20.7347C43.712 20.7089 43.6985 20.6788 43.6924 20.6469C43.6863 20.6149 43.6879 20.5819 43.6969 20.5507C43.7426 20.4736 43.8171 20.4179 43.9039 20.3957C44.3168 20.37 44.731 20.37 45.1439 20.3957C45.2618 20.4195 45.3843 20.4015 45.4904 20.3448C45.5964 20.288 45.6794 20.196 45.7249 20.0847C45.7863 19.963 45.8102 19.8257 45.7934 19.6904C45.7767 19.5551 45.7201 19.4278 45.6309 19.3247C45.4119 19.1197 45.2459 18.8657 44.8589 18.9247C44.4818 18.9643 44.1017 18.9673 43.7239 18.9337C43.5097 18.9127 43.2935 18.9388 43.0905 19.0104C42.8875 19.0819 42.7026 19.197 42.5489 19.3477C42.2361 19.6847 42.0582 20.125 42.0489 20.5847C42.0019 21.1317 42.0349 21.6847 42.0389 22.2377C42.0389 22.8767 42.2299 23.2187 42.8469 23.2627C43.8824 23.4822 44.8805 23.8511 45.8099 24.3577C46.5527 24.562 47.2516 24.901 47.8719 25.3577C47.9644 25.4555 48.0826 25.5253 48.213 25.5591C48.3433 25.5929 48.4805 25.5893 48.6089 25.5487C48.9435 25.4474 49.2411 25.2503 49.4649 24.9817C50.0271 24.2393 50.4577 23.4058 50.7379 22.5177C50.8059 22.1817 51.0649 21.8837 51.1279 21.5477C51.1627 21.2045 51.1246 20.8578 51.016 20.5304C50.9074 20.2029 50.7309 19.9021 50.4979 19.6477C49.8413 18.858 48.9692 18.2764 47.9879 17.9737C47.8292 17.9244 47.6629 17.9041 47.4969 17.9137C46.8099 17.9077 46.1229 17.9137 45.2019 17.9137C45.5359 18.1967 45.7389 18.3607 45.9309 18.5357M37.6249 55.6397C37.9393 55.9808 38.2341 56.3393 38.5079 56.7137C38.5298 56.7501 38.5606 56.7804 38.5975 56.8016C38.6343 56.8227 38.676 56.8341 38.7185 56.8346C38.761 56.8351 38.803 56.8247 38.8403 56.8044C38.8777 56.7841 38.9092 56.7546 38.9319 56.7187C38.9549 56.6937 38.9799 56.6697 39.0049 56.6457C40.4836 55.2357 41.9616 53.825 43.4389 52.4137C43.7769 52.0897 43.7619 51.9347 43.4279 51.6997C42.7359 51.2127 42.0349 50.7387 41.3529 50.2397C40.7419 49.7927 40.1529 49.3207 39.5529 48.8567C39.5112 48.8153 39.4616 48.7827 39.4071 48.7607C39.3526 48.7388 39.2943 48.7279 39.2355 48.7287C39.1768 48.7296 39.1188 48.7421 39.0649 48.7656C39.0111 48.7891 38.9625 48.8232 38.9219 48.8657C38.759 48.9932 38.6131 49.141 38.4879 49.3057C37.7022 50.3294 36.8187 51.2742 35.8499 52.1267C35.505 52.4414 35.1374 52.7302 34.7499 52.9907C35.7319 53.8907 36.6919 54.7507 37.6209 55.6397M14.8789 11.2667C15.3972 11.3607 15.9319 11.2902 16.4082 11.0652C16.8845 10.8401 17.2784 10.4718 17.5349 10.0117C17.7307 9.76609 17.8738 9.48282 17.9554 9.17951C18.0369 8.8762 18.0551 8.55935 18.0089 8.24869C17.9987 7.93033 18.0724 7.61489 18.2226 7.33404C18.3729 7.05318 18.5944 6.81682 18.8649 6.64869C19.1397 6.53059 19.4419 6.49079 19.7379 6.53369C19.9869 6.53369 20.0729 6.47869 20.1079 6.19969C20.1529 5.84869 20.2959 5.52169 20.3169 5.14669C20.3509 4.50869 20.7959 4.14669 21.4799 4.03869C21.5721 4.01468 21.6616 3.98117 21.7469 3.93869C21.6979 3.82169 21.6819 3.66169 21.5939 3.59369C21.3252 3.35142 20.9777 3.21496 20.6159 3.20969C19.9279 3.1677 19.2376 3.17673 18.5509 3.23669C17.3369 3.45769 16.0829 3.70069 15.4869 5.02269C15.2752 5.4263 15.147 5.86843 15.1099 6.32269C15.0703 6.74621 15.0035 7.16674 14.9099 7.58169C14.8762 8.00568 14.8025 8.42554 14.6899 8.83569C14.5372 9.22826 14.2882 9.57609 13.9658 9.84714C13.6433 10.1182 13.2579 10.3037 12.8449 10.3867C13.4999 10.7286 14.1779 11.0246 14.8739 11.2727M3.66492 46.6617C4.06492 46.3367 4.52392 46.0797 4.94592 45.7767C5.04942 45.6942 5.13086 45.5874 5.18292 45.4657C5.86092 43.9917 6.53892 42.5177 7.19992 41.0387C7.35392 40.6947 7.25492 40.6387 6.86092 40.4607C6.5634 40.3211 6.23747 40.2526 5.90892 40.2607C5.63116 40.3168 5.34479 40.3148 5.06786 40.2547C4.79093 40.1947 4.52945 40.0779 4.29992 39.9117C4.24482 39.8896 4.18507 39.8818 4.12616 39.889C4.06726 39.8962 4.01112 39.9181 3.96292 39.9527C3.46969 40.3592 3.04817 40.8457 2.71592 41.3917C2.43992 41.9307 2.15592 42.4667 1.87792 43.0047C1.42408 43.8608 1.12675 44.7911 0.999916 45.7517C0.927916 46.3087 0.876916 46.8617 0.824916 47.4347C1.32462 47.5587 1.84774 47.5528 2.3445 47.4175C2.84126 47.2822 3.29513 47.022 3.66292 46.6617M9.52892 41.7427C8.95192 41.6127 8.55892 41.0977 7.94592 41.1257C7.80176 41.6485 7.62781 42.1627 7.42492 42.6657C7.07592 43.4187 6.65492 44.1387 6.26992 44.8747C6.22592 44.9577 6.23192 45.0657 6.19292 45.1517C5.63692 46.3647 5.71992 46.2697 6.68292 47.1227C7.62151 47.7465 8.61258 48.2876 9.64492 48.7397C9.69292 48.7707 9.91192 48.6597 9.93392 48.5807C10.2259 47.5627 10.5149 46.5437 10.7579 45.5137C10.803 45.293 10.8734 45.0782 10.9679 44.8737C11.0661 44.6436 11.1392 44.4035 11.1859 44.1577C11.2367 43.6247 11.0986 43.0909 10.7957 42.6495C10.4928 42.208 10.0444 41.8871 9.52892 41.7427ZM15.0229 31.1527C15.0613 31.0651 15.0924 30.9744 15.1159 30.8817C15.1299 30.7177 15.1569 30.5207 14.8889 30.5367C14.2459 30.5117 13.6072 30.6507 13.0327 30.9406C12.4582 31.2305 11.9669 31.6617 11.6049 32.1937C11.1699 32.7959 10.885 33.4932 10.7739 34.2277C10.1349 35.1527 10.4549 36.3347 9.95592 37.3027C9.91335 37.4714 9.91095 37.6478 9.94892 37.8177C9.96754 37.9373 10.0127 38.0513 10.0811 38.1512C10.1496 38.2511 10.2395 38.3344 10.3443 38.395C10.4491 38.4556 10.5662 38.492 10.6869 38.5015C10.8076 38.5109 10.9289 38.4932 11.0419 38.4497C11.1933 38.3979 11.3354 38.3223 11.4629 38.2257C12.1852 37.5575 12.9958 36.9915 13.8719 36.5437C14.2164 36.3148 14.4794 35.9826 14.6231 35.5949C14.7669 35.2071 14.784 34.7838 14.6719 34.3857C14.585 34.0896 14.5376 33.7832 14.5309 33.4747C14.5184 32.674 14.6894 31.881 15.0309 31.1567M31.6999 36.2027C32.5927 35.4216 33.2323 34.3921 33.5369 33.2457C33.9494 31.8271 34.0828 30.3421 33.9299 28.8727C33.9029 28.5727 33.7079 28.2407 33.7679 27.9227C33.7986 27.1634 33.6506 26.4074 33.3359 25.7157C33.3098 25.6446 33.2697 25.5796 33.2179 25.5244C33.1661 25.4692 33.1037 25.425 33.0344 25.3945C32.9652 25.3639 32.8904 25.3477 32.8148 25.3467C32.7391 25.3457 32.664 25.36 32.5939 25.3887C32.4759 25.4347 32.3689 25.5107 32.2539 25.5667C31.5109 25.9297 31.2479 26.3907 31.5409 27.1407C31.6353 27.3853 31.6828 27.6455 31.6809 27.9077C31.6959 28.7007 31.7099 29.4947 31.6809 30.2867C31.6439 30.7105 31.5771 31.1312 31.4809 31.5457C31.4099 31.9307 31.6689 32.3727 31.2809 32.7037C31.1974 33.77 30.9319 34.8141 30.4959 35.7907C30.4293 36.1918 30.4229 36.6007 30.4769 37.0037C30.8998 36.7599 31.3087 36.4928 31.7019 36.2037M18.9829 27.1497C18.7689 27.9166 18.4641 28.6551 18.0749 29.3497C17.6479 30.0597 17.4229 30.8667 17.0009 31.5887C16.6468 32.2625 16.122 32.8314 15.4789 33.2387C15.3789 33.2977 15.3419 33.5167 15.3459 33.6597C15.3459 33.7247 15.5769 33.8597 15.6069 33.8367C15.9929 33.5367 16.4939 33.4467 16.8459 33.0707C17.5739 32.2937 18.3349 31.5447 19.1049 30.8087C19.3883 30.4952 19.6089 30.1303 19.7549 29.7337C20.2585 28.8839 20.6714 27.9837 20.9869 27.0477C21.1673 26.4559 21.2856 25.847 21.3399 25.2307C21.3669 24.1357 21.3109 23.9377 20.6399 23.3187C20.4665 23.1683 20.2457 23.0838 20.0162 23.08C19.7868 23.0762 19.5633 23.1532 19.3849 23.2977C19.3078 23.3996 19.2679 23.5249 19.2719 23.6527C19.2569 23.9957 19.2719 24.3397 19.2719 24.6837L19.3199 24.6897C19.2854 25.5179 19.1756 26.3413 18.9919 27.1497M7.25192 36.1177C6.41722 35.8722 5.63319 35.4794 4.93692 34.9577C4.91292 34.9347 4.75892 34.9867 4.72992 35.0387C4.27785 35.6732 4.0059 36.4182 3.94292 37.1947C3.95192 37.6077 3.94292 38.0227 3.94292 38.4357C3.94292 38.9177 4.04292 39.1357 4.47092 39.2087C4.60369 39.2113 4.73459 39.2405 4.85586 39.2946C4.97714 39.3487 5.08631 39.4266 5.17692 39.5237C5.20888 39.5599 5.24831 39.5888 5.29251 39.6083C5.33671 39.6278 5.38461 39.6375 5.43292 39.6367C5.67692 39.6037 6.01192 39.4097 6.13792 39.5057C6.40492 39.7057 6.65892 39.6207 6.91692 39.6397C7.19163 39.6659 7.46821 39.6659 7.74292 39.6397C7.90469 39.6277 8.05637 39.5565 8.16892 39.4397C8.46706 39.098 8.70968 38.7116 8.88792 38.2947C9.03101 37.7052 9.12764 37.1053 9.17692 36.5007C8.5106 36.5879 7.83412 36.4533 7.25192 36.1177ZM16.5099 48.3787C16.0369 48.1107 15.5439 47.8727 15.0949 47.5687C14.6259 47.2517 14.3769 46.6687 13.7949 46.4687C13.4659 45.8327 12.6279 45.6447 12.4119 44.9037C12.3869 44.8167 12.2779 44.7497 12.1989 44.6847C12.0419 44.5527 11.8889 44.5387 11.8149 44.7637C11.6259 45.3397 11.4549 45.9207 11.2669 46.4957C11.1448 47.0929 10.9895 47.6828 10.8019 48.2627C10.5579 48.8097 10.8779 49.1537 11.4959 49.1627C12.5269 49.1697 13.5589 49.1797 14.5889 49.1557C14.8775 49.1322 15.1608 49.0648 15.4289 48.9557C15.6979 48.8617 15.9489 48.7177 16.2109 48.6017C16.3269 48.5507 16.4499 48.5167 16.5749 48.4727C16.5459 48.4307 16.5359 48.3967 16.5119 48.3827M23.3899 5.15069C22.9894 4.87791 22.5271 4.70948 22.0449 4.66069C21.8816 4.67523 21.7229 4.72195 21.5777 4.79816C21.4326 4.87436 21.304 4.97854 21.1993 5.10469C21.0946 5.23084 21.016 5.37646 20.9678 5.53316C20.9197 5.68986 20.9031 5.85453 20.9189 6.01769C20.9259 6.75569 21.4529 7.40969 22.0699 7.33169C22.5148 7.28895 22.9412 7.13225 23.3079 6.87669C23.5409 6.69469 23.5659 6.24769 23.6179 6.10569C23.6009 5.62369 23.6609 5.35969 23.3909 5.14869M38.0459 17.9737C37.9994 17.8607 37.911 17.77 37.7992 17.7206C37.6874 17.6713 37.5608 17.667 37.4459 17.7087C37.3368 17.7451 37.2407 17.8127 37.1696 17.9032C37.0985 17.9937 37.0555 18.103 37.0459 18.2177C36.9269 18.9775 36.7412 19.7254 36.4909 20.4527C36.4175 20.7032 36.3676 20.9599 36.3419 21.2197C36.5955 21.1898 36.8419 21.1157 37.0699 21.0007C37.505 20.6796 37.9002 20.3076 38.2469 19.8927C38.3839 19.7207 38.2979 19.3697 38.3249 18.8807C38.2504 18.5723 38.1552 18.2693 38.0399 17.9737M27.2239 26.3967C26.4348 26.4146 25.6501 26.2745 24.9159 25.9847C24.8479 25.9753 24.7789 25.9753 24.7109 25.9847C24.4959 25.9687 24.3589 26.1127 24.4409 26.2847C24.5528 26.5836 24.7002 26.868 24.8799 27.1317C25.0446 27.3447 25.2681 27.5047 25.5228 27.5919C25.7775 27.6792 26.0522 27.6899 26.3129 27.6227C26.8642 27.4678 27.3998 27.2619 27.9129 27.0077C28.2107 26.8284 28.4924 26.6236 28.7549 26.3957C28.1029 26.3957 27.6629 26.3907 27.2229 26.3957M12.9829 22.8817C12.9159 22.9117 12.8359 23.0817 12.8539 23.1007C12.9309 23.1807 13.0729 23.3007 13.1349 23.2777C13.9482 23.0537 14.7972 22.9895 15.6349 23.0887C16.4939 23.0597 17.3549 23.0887 18.2149 23.0757C18.3579 23.0757 18.5929 23.0177 18.6259 22.9287C18.7499 22.5917 18.3699 22.7287 18.2549 22.5997C18.1879 22.5274 18.0977 22.4807 17.9999 22.4677C17.1349 22.3877 16.2699 22.3197 15.0999 22.2227C14.3497 22.2606 13.6214 22.488 12.9829 22.8837M20.1269 9.00869C20.4449 9.04269 20.8269 9.00869 20.8899 8.69169C20.9529 8.37469 21.0739 7.95769 20.7119 7.65569C20.4119 7.40269 20.1999 7.07769 19.6939 7.12269C19.5118 7.13476 19.3368 7.19793 19.1889 7.30494C19.041 7.41195 18.9263 7.55846 18.8579 7.72769C18.4579 8.53469 18.7879 8.99769 19.7179 9.00769H19.9179C19.9859 9.00769 20.0549 9.00169 20.1179 9.00769M10.2999 39.3787C10.2999 39.3787 10.1999 39.2307 10.1669 39.2377C9.93692 39.2907 9.84692 38.7747 9.55892 39.0937C9.42192 39.2457 9.27392 39.3937 9.12292 39.5297C9.00192 39.6427 8.87292 39.8297 8.74092 39.8297C8.45092 39.8417 8.13492 39.9087 8.14092 40.1797C8.14092 40.3307 8.51792 40.5007 8.74892 40.6097C9.11292 40.7807 9.49792 40.9097 9.93892 41.0757C9.96292 40.4817 9.83292 39.8537 10.2979 39.3757M16.1229 30.4627C15.8238 30.9133 15.6234 31.4221 15.5349 31.9557C15.5199 32.0077 15.5659 32.0767 15.5829 32.1377C15.6549 32.0997 15.7559 32.0797 15.7949 32.0197C16.0209 31.6717 16.2419 31.3197 16.4409 30.9587C16.5113 30.8152 16.5505 30.6584 16.5559 30.4987C16.5559 30.4367 16.4559 30.3667 16.3859 30.2797C16.2913 30.3304 16.203 30.3912 16.1229 30.4627Z" fill="#1A1311"/>
<path fill-rule="evenodd" clip-rule="evenodd" d="M21.0381 48.5386C22.6257 48.5341 24.2038 48.2945 25.7211 47.8276C27.0711 47.4846 28.2531 46.7666 29.5781 46.3926C30.3688 46.0932 31.1982 45.9083 32.0411 45.8436C32.3626 45.8096 32.68 45.745 32.9891 45.6506C33.2799 45.6182 33.5685 45.5682 33.8531 45.5006C34.3924 45.4089 34.9413 45.3871 35.4861 45.4356C35.6049 45.4107 35.7188 45.3665 35.8231 45.3046C35.7844 45.1828 35.7252 45.0685 35.6481 44.9666C35.0481 44.4216 34.4321 43.9016 33.8411 43.3506C33.2632 42.8048 32.6433 42.3053 31.9871 41.8566C31.1872 41.3451 30.416 40.7899 29.6771 40.1936C29.4369 40.016 29.1571 39.8995 28.8618 39.854C28.5666 39.8086 28.2647 39.8355 27.9821 39.9326C27.7614 39.9875 27.5372 40.028 27.3111 40.0536C26.3111 40.0666 25.3111 40.0486 24.3111 40.0626C23.0022 40.036 21.7077 39.7844 20.4841 39.3186C19.1841 38.8776 17.8841 38.4556 16.5931 37.9806C15.9678 37.741 15.3629 37.4514 14.7841 37.1146C14.5971 37.0086 14.5581 37.0356 14.4041 37.1366C13.9211 37.4536 13.3821 37.6896 12.9201 38.0366C12.362 38.4684 11.8278 38.9304 11.3201 39.4206C11.1601 39.5696 11.0931 39.8206 10.9441 39.9826C10.8543 40.0586 10.7826 40.1537 10.7341 40.2609C10.6857 40.3682 10.6618 40.4849 10.6642 40.6025C10.6666 40.7202 10.6952 40.8358 10.748 40.941C10.8007 41.0462 10.8763 41.1383 10.9691 41.2106C11.1634 41.3837 11.3025 41.6101 11.3691 41.8616C11.6037 42.7865 12.1064 43.6215 12.8141 44.2616C13.4428 44.9938 14.1236 45.6796 14.8511 46.3136C15.646 47.0337 16.5808 47.5821 17.5971 47.9246C17.8091 47.9976 18.0241 48.0586 18.2341 48.1336C19.1204 48.4953 20.0817 48.6346 21.0341 48.5396" fill="#FFEC00"/>
<path fill-rule="evenodd" clip-rule="evenodd" d="M26.9224 12.6137C26.9351 12.8462 26.87 13.0763 26.7374 13.2677C26.5884 13.4897 27.0224 13.9417 27.3084 13.9837C27.672 14.0148 28.0341 13.9097 28.3244 13.6887C28.9314 13.2967 29.4844 12.8227 30.0664 12.3887C30.1045 12.3601 30.1487 12.3405 30.1954 12.3315C30.2422 12.3225 30.2904 12.3243 30.3364 12.3367C30.3704 12.3701 30.3969 12.4104 30.4141 12.4549C30.4314 12.4994 30.439 12.547 30.4364 12.5947C30.4854 12.9932 30.4228 13.3976 30.2554 13.7627C30.2188 13.8215 30.1945 13.8873 30.1843 13.9559C30.1741 14.0246 30.178 14.0945 30.196 14.1616C30.2139 14.2286 30.2453 14.2912 30.2884 14.3456C30.3315 14.4 30.3853 14.4449 30.4464 14.4777C30.6797 14.5916 30.948 14.6113 31.1954 14.5327C31.621 14.3407 31.9878 14.0391 32.2584 13.6587C32.5089 13.3044 32.7896 12.9725 33.0974 12.6667C33.2634 12.4497 33.4774 12.4557 33.5874 12.6827C33.8244 13.1747 34.3034 13.5237 34.3874 14.1117C34.4327 14.3647 34.5403 14.6026 34.7004 14.8037C35.1413 15.4386 35.5379 16.1032 35.8874 16.7927C36.1735 17.2797 36.2932 17.8466 36.2284 18.4077C36.1715 18.7903 36.0809 19.1671 35.9574 19.5337C35.8809 19.844 35.7823 20.1484 35.6624 20.4447C35.2054 21.448 34.6147 22.3848 33.9064 23.2297C33.5692 23.6215 33.2014 23.986 32.8064 24.3197C31.7064 24.8281 30.5658 25.2436 29.3964 25.5617C28.3284 25.5767 27.2574 25.6087 26.1964 25.5487C25.7222 25.4705 25.2589 25.3363 24.8164 25.1487C23.9896 24.8825 23.2178 24.4689 22.5384 23.9277C21.7945 23.3883 21.1678 22.7034 20.6964 21.9147C20.2078 21.301 19.9216 20.5508 19.8774 19.7677C19.9124 19.3287 19.7174 19.1947 19.2944 19.1397C18.8962 19.1647 18.4971 19.1083 18.1214 18.9737C17.8248 18.829 17.5639 18.6204 17.3576 18.3629C17.1512 18.1053 17.0045 17.8053 16.928 17.4842C16.8515 17.1632 16.8471 16.8292 16.9151 16.5063C16.9832 16.1834 17.1219 15.8795 17.3214 15.6167C17.4491 15.4225 17.6469 15.2853 17.8734 15.2337C18.6304 15.2177 19.4544 14.9937 20.0044 15.8337C20.2044 16.1337 20.6884 16.0487 20.6824 15.7337C20.6724 15.2167 21.0214 15.0077 21.3014 14.7407C21.9114 14.1597 22.5534 13.6117 23.1844 13.0537C23.4264 12.8407 23.4994 12.8767 23.6094 13.2467C23.7614 13.7547 23.8344 13.7547 24.3314 13.5727C25.0181 13.3353 25.6361 12.9332 26.1314 12.4017C26.3786 12.1903 26.6467 12.0047 26.9314 11.8477C26.9314 12.1987 26.9314 12.4047 26.9314 12.6087M25.5814 19.9797C25.2814 20.1377 25.3714 20.3227 25.4654 20.5987C25.7654 21.4777 26.1944 22.2987 26.5324 23.1567C26.6722 23.3863 26.8735 23.5723 27.1134 23.6937C27.5634 23.9937 27.5814 23.9847 27.9374 23.6197C28.6941 22.8282 29.5663 22.1559 30.5244 21.6257C30.642 21.5561 30.7441 21.4632 30.8244 21.3527C30.8516 21.3057 30.8685 21.2536 30.8743 21.1997C30.88 21.1458 30.8743 21.0913 30.8576 21.0398C30.8409 20.9882 30.8136 20.9407 30.7774 20.9004C30.7412 20.8601 30.6969 20.8278 30.6474 20.8057C30.2652 20.6383 29.8695 20.5038 29.4644 20.4037C28.6644 20.2337 27.8564 20.1277 27.0544 19.9757C26.7724 19.9227 26.5004 19.8147 26.1444 19.7077C25.9714 19.7917 25.7684 19.8827 25.5734 19.9867M30.5924 15.7867C30.1194 16.0867 30.2354 16.5497 30.2524 16.9867C30.2853 17.0188 30.3248 17.0433 30.3682 17.0585C30.4115 17.0738 30.4577 17.0792 30.5034 17.0747C30.6384 16.9857 30.8164 16.8637 30.8424 16.7287C30.9424 16.1977 31.3314 16.2647 31.7004 16.2547C32.0694 16.2447 32.2274 16.4087 32.3184 16.7617C32.4203 17.031 32.5546 17.2868 32.7184 17.5237C32.8494 17.7617 33.0064 17.7917 33.1544 17.5657C33.2544 17.4117 33.3864 17.1337 33.3204 17.0367C33.0454 16.6367 32.9744 16.1177 32.5714 15.7867C32.3034 15.5677 32.0954 15.2647 31.7484 15.4477C31.5424 15.4211 31.3331 15.4379 31.134 15.4972C30.9349 15.5564 30.7504 15.6568 30.5924 15.7917M26.0364 14.7977C25.8274 14.6887 25.6274 14.5107 25.4034 14.6107C25.055 14.7464 24.7334 14.9428 24.4534 15.1907C24.2574 15.4401 24.1145 15.7269 24.0334 16.0337C23.9934 16.1397 24.0234 16.3687 24.0894 16.3997C24.1602 16.4376 24.2385 16.4594 24.3187 16.4636C24.399 16.4677 24.4791 16.4541 24.5534 16.4237C24.7184 16.2877 24.7814 16.0347 24.9344 15.8777C25.0874 15.7207 24.9904 15.3127 25.4474 15.4097C25.7714 15.4787 26.1214 15.3917 26.3034 15.7777C26.3665 15.9245 26.4508 16.0612 26.5534 16.1837C26.6331 16.2368 26.73 16.2575 26.8244 16.2417C26.8604 16.2417 26.9034 16.1417 26.9184 16.0847C26.9291 15.9515 26.9291 15.8178 26.9184 15.6847C26.8914 15.2987 26.4924 15.0377 26.0324 14.7977M27.9784 19.0267C28.4784 18.6867 28.4784 18.6947 29.0434 19.0907C29.0982 19.1134 29.1579 19.1218 29.2168 19.1152C29.2758 19.1086 29.3321 19.087 29.3804 19.0527C29.4884 18.9467 29.6224 18.7587 29.5954 18.6397C29.5546 18.4737 29.4701 18.3217 29.3507 18.1993C29.2314 18.077 29.0815 17.9887 28.9166 17.9438C28.7517 17.8988 28.5778 17.8987 28.4128 17.9435C28.2479 17.9883 28.0979 18.0764 27.9784 18.1987C27.8229 18.3347 27.6791 18.4836 27.5484 18.6437C27.5124 18.6927 27.5694 18.8347 27.6174 18.9137C27.6803 18.9966 27.7528 19.0718 27.8334 19.1377C27.8814 19.1007 27.9284 19.0607 27.9784 19.0257" fill="white"/>
<path fill-rule="evenodd" clip-rule="evenodd" d="M25.6824 39.498C26.6944 39.332 27.6344 39.18 28.5724 39.018C28.6671 38.9954 28.7537 38.947 28.8224 38.878C29.0522 38.693 29.2393 38.4604 29.3708 38.1963C29.5023 37.9323 29.5752 37.6429 29.5844 37.348C29.5935 36.2301 29.8162 35.1243 30.2404 34.09C30.4246 33.3981 30.5731 32.6972 30.6854 31.99C30.859 30.6448 30.9115 29.2867 30.8424 27.932C30.82 27.4046 30.7531 26.8801 30.6424 26.364C30.6343 26.2995 30.6013 26.2406 30.5504 26.2C30.3571 26.1484 30.1538 26.1459 29.9593 26.1929C29.7647 26.2399 29.585 26.3348 29.4364 26.469C29.1022 27.0585 28.6062 27.54 28.0071 27.8567C27.408 28.1733 26.7308 28.3119 26.0554 28.256C25.9864 28.256 25.9174 28.256 25.8494 28.256C25.5184 28.225 25.1024 28.305 24.8734 28.135C24.3516 27.8214 23.9722 27.3172 23.8154 26.729C23.77 26.3541 23.6276 25.9975 23.4023 25.6945C23.1769 25.3914 22.8764 25.1524 22.5304 25.001C22.2664 24.885 22.1844 24.945 22.1514 25.23C22.0906 25.8164 21.9988 26.3993 21.8764 26.976C21.6494 27.5032 21.457 28.0447 21.3004 28.597C20.5004 29.586 20.2484 30.937 19.1874 31.76C18.9494 31.9866 18.7417 32.2431 18.5694 32.523C18.0458 33.1722 17.3921 33.7046 16.6504 34.086C16.3374 34.26 16.0774 34.528 15.7804 34.734C15.6084 34.8696 15.4744 35.0474 15.3915 35.2502C15.3086 35.4529 15.2796 35.6737 15.3074 35.891C15.2737 36.1039 15.3214 36.3216 15.4409 36.501C15.5604 36.6803 15.743 36.8082 15.9524 36.859C16.8524 37.183 17.7424 37.527 18.6314 37.879C19.4873 38.2277 20.3636 38.524 21.2554 38.766C22.1925 39.0988 23.1811 39.2633 24.1754 39.252C24.6841 39.2671 25.1884 39.3495 25.6754 39.497" fill="white"/>
<path fill-rule="evenodd" clip-rule="evenodd" d="M24.6211 12.533C25.4935 11.9755 26.2829 11.2978 26.9661 10.52C27.1021 10.388 27.2281 10.129 27.4551 10.285C27.5324 10.3436 27.5973 10.417 27.6458 10.501C27.6944 10.5849 27.7258 10.6777 27.7381 10.774C27.7731 11.359 27.7581 11.946 27.7461 12.532C27.7255 12.6676 27.6875 12.8 27.6331 12.926C27.7961 12.911 28.0111 12.957 28.1121 12.871C28.8121 12.4253 29.4702 11.9168 30.0781 11.352C30.2991 11.08 30.5341 10.689 30.9931 10.913C31.3871 11.105 31.2641 11.497 31.2681 11.828C31.2731 12.308 31.2681 12.789 31.2681 13.298C31.5351 13.349 31.5911 13.098 31.7191 12.998C31.8604 12.8581 31.9868 12.704 32.0961 12.538C32.208 12.3735 32.3292 12.2156 32.4591 12.065C33.1591 11.347 33.5441 11.356 34.1071 12.165C34.5721 12.8249 34.9927 13.5151 35.3661 14.231C35.9322 15.0888 36.4336 15.9876 36.8661 16.92C36.9431 17.147 37.0821 17.12 37.2541 17.008C37.3541 16.944 37.5541 16.859 37.5941 16.899C38.0171 17.311 38.1571 16.959 38.3121 16.651C38.5751 16.1629 38.7184 15.6193 38.7301 15.065C38.7301 14.402 38.9551 13.765 38.9511 13.082C38.9169 12.4291 38.7641 11.788 38.5001 11.19C38.2327 10.2485 37.7362 9.38785 37.0551 8.68497C36.3434 7.96235 35.5848 7.28754 34.7841 6.66497C33.5487 5.80052 32.1955 5.11789 30.7661 4.63797C29.6419 4.32748 28.4765 4.19255 27.3111 4.23797C26.45 4.18384 25.5876 4.32289 24.7871 4.64497C24.2081 4.90797 24.1191 4.92597 24.3421 5.47397C24.404 5.57002 24.4365 5.68209 24.4354 5.79636C24.4343 5.91063 24.3998 6.02209 24.3361 6.11697C24.2632 6.22528 24.228 6.35463 24.2361 6.48497C24.3021 7.18497 23.8711 7.49897 23.3301 7.77397C23.1521 7.86397 22.9661 7.91497 22.7991 7.99197C22.4831 8.13697 22.1331 8.09897 21.8601 8.22097C21.6951 8.29497 21.7161 8.74997 21.6201 9.02097C21.5957 9.15309 21.5452 9.27905 21.4718 9.39156C21.3983 9.50406 21.3032 9.60088 21.1921 9.6764C21.081 9.75192 20.956 9.80464 20.8243 9.83152C20.6926 9.85839 20.557 9.85888 20.4251 9.83296C19.9371 9.75396 19.4091 10.007 18.9481 9.64297C18.8971 9.60297 18.6761 9.68597 18.6111 9.77097C17.7367 10.8106 17.3038 12.1512 17.4051 13.506C17.4424 13.7603 17.5127 14.0087 17.6141 14.245C17.6389 14.283 17.6721 14.315 17.7111 14.3384C17.7501 14.3618 17.7938 14.376 17.8391 14.38C18.1482 14.4061 18.459 14.4061 18.7681 14.38C18.9318 14.3519 19.0994 14.3577 19.2607 14.3969C19.422 14.4361 19.5736 14.5079 19.7061 14.608C19.7592 14.6515 19.8206 14.684 19.8866 14.7033C19.9525 14.7226 20.0217 14.7284 20.0899 14.7204C20.1581 14.7123 20.2241 14.6906 20.2837 14.6565C20.3434 14.6225 20.3956 14.5767 20.4371 14.522C20.9771 14.014 21.4531 13.437 21.9531 12.885C22.1121 12.71 22.2531 12.4 22.4321 12.385C23.3661 12.285 23.5541 11.445 24.0221 10.885C24.1097 10.7478 24.2063 10.6165 24.3111 10.492C24.4271 10.392 24.6281 10.232 24.7171 10.271C24.9221 10.362 25.1351 10.533 25.0561 10.824C24.9561 11.194 24.8301 11.558 24.7301 11.924C24.6811 12.102 24.6641 12.289 24.6221 12.531" fill="#1A1311"/>
<path fill-rule="evenodd" clip-rule="evenodd" d="M40.6474 34.4649C41.1171 34.5161 41.5923 34.4518 42.0315 34.2775C42.4707 34.1032 42.8606 33.8242 43.1674 33.4649C43.6235 33.1009 44.041 32.6911 44.4134 32.2419C45.1753 31.1986 45.8509 30.0949 46.4334 28.9419C46.7574 28.2489 47.1174 27.5719 47.4484 26.8819C47.5299 26.7079 47.5868 26.5235 47.6174 26.3339C47.6444 26.1739 47.6094 26.0789 47.4014 25.9709C46.1269 25.3122 44.8154 24.7279 43.4734 24.2209C42.8044 23.9669 42.7604 24.0839 42.4264 24.7759C42.1494 25.3499 42.2194 26.0909 41.6204 26.5099C41.4134 27.2909 40.6584 27.4369 40.0984 27.7999C40.024 27.8405 39.9418 27.8647 39.8573 27.8709C39.7728 27.8771 39.6879 27.8652 39.6084 27.8359C39.0244 27.5639 38.3694 27.5599 37.7814 27.2489C37.0578 26.9172 36.3136 26.6327 35.5534 26.3969C35.3754 26.3309 35.1964 26.2609 35.0194 26.1899C34.7434 26.0809 34.4674 25.9689 34.1914 25.8579C34.2534 26.1359 34.2324 26.4849 34.3914 26.6759C34.4778 26.7997 34.5386 26.9396 34.5702 27.0873C34.6018 27.235 34.6036 27.3875 34.5754 27.5359C34.5834 29.0859 34.5834 30.6359 34.5754 32.1859C34.5754 32.4609 34.5874 32.6599 34.9444 32.6109C35.0734 32.5929 35.2564 32.5789 35.3344 32.6509C36.1814 33.2321 37.1154 33.675 38.1014 33.9629C38.8922 34.3459 39.7685 34.5181 40.6454 34.4629" fill="white"/>
<path fill-rule="evenodd" clip-rule="evenodd" d="M18.4513 23.9106C17.0413 23.9106 15.7333 23.9576 14.4293 23.8976C13.1139 23.8548 11.8232 24.2619 10.7703 25.0516C9.58074 25.9309 8.53726 26.9923 7.6783 28.1966C7.26782 28.7379 6.89366 29.3058 6.5583 29.8966C6.03302 31.0212 5.5801 32.1782 5.2023 33.3606C5.11517 33.604 5.12052 33.8709 5.21731 34.1105C5.31411 34.3502 5.49561 34.546 5.7273 34.6606C6.52899 35.0479 7.35198 35.3894 8.1923 35.6836C8.56437 35.7574 8.94699 35.7608 9.3203 35.6936C9.3973 35.6886 9.4953 35.5436 9.5303 35.4446C9.84389 34.3087 10.2472 33.1996 10.7363 32.1276C11.0682 31.5399 11.5269 31.0335 12.0791 30.6454C12.6312 30.2572 13.2629 29.997 13.9283 29.8836C14.7532 29.738 15.5916 29.6841 16.4283 29.7226C16.63 29.7353 16.8308 29.6858 17.0035 29.5809C17.1763 29.4759 17.3127 29.3205 17.3943 29.1356C17.7464 28.3844 18.0308 27.6033 18.2443 26.8016C18.4275 25.8495 18.4976 24.8791 18.4533 23.9106" fill="white"/>
<path fill-rule="evenodd" clip-rule="evenodd" d="M46.9328 52.2701C46.5208 52.2701 46.1069 52.2601 45.6949 52.2701C45.1333 52.271 44.5945 52.4925 44.1949 52.8871C42.7809 54.2651 41.3409 55.6161 39.9109 56.9771C39.8557 57.0182 39.8075 57.0678 39.7679 57.1241C39.6679 57.3131 39.2059 57.1471 39.3469 57.5461C39.3993 57.7333 39.5008 57.9031 39.6408 58.0381C40.2006 58.587 40.8525 59.0331 41.5669 59.3561C41.7491 59.4166 41.9343 59.4677 42.1219 59.5091C42.2219 59.5291 42.3639 59.5561 42.4219 59.5091C42.8559 59.1501 43.3989 59.4221 43.8599 59.2401C44.1849 59.1121 44.5299 59.0251 44.8399 58.8681C45.2112 58.6755 45.569 58.458 45.9109 58.2171C46.6349 57.7171 47.3728 57.2321 48.0568 56.6821C48.7777 56.0143 49.3219 55.1784 49.6408 54.2491C50.1118 53.1421 49.4109 52.2841 48.1669 52.2711L46.9328 52.2701Z" fill="white"/>
<path fill-rule="evenodd" clip-rule="evenodd" d="M26.7227 48.4543C28.1017 49.1543 29.5957 49.6293 30.9687 50.3863C31.9934 50.9418 32.9677 51.5856 33.8807 52.3103C34.0567 52.4513 34.1197 52.4383 34.2587 52.2963C34.3407 52.2123 34.5117 52.2203 34.6017 52.1403C35.3577 51.4663 36.1247 50.8033 36.8477 50.0943C37.3237 49.6263 37.7317 49.0943 38.1677 48.5813C38.2182 48.5375 38.2585 48.4832 38.2857 48.4222C38.3129 48.3611 38.3263 48.2948 38.325 48.228C38.3236 48.1611 38.3076 48.0954 38.278 48.0355C38.2484 47.9756 38.2059 47.9229 38.1537 47.8813C38.0045 47.7508 37.8487 47.6283 37.6867 47.5143C37.2937 47.2213 36.9047 46.9203 36.4987 46.6433C36.2548 46.4265 35.9469 46.2952 35.6217 46.2693C35.0115 46.1768 34.3896 46.1944 33.7857 46.3213C33.2447 46.5583 32.6227 46.2213 32.1857 46.6863C31.4313 46.6671 30.6814 46.8082 29.9857 47.1003C29.5337 47.2563 29.0737 47.3893 28.6347 47.5763C27.9917 47.8503 27.3647 48.1623 26.7287 48.4583" fill="white"/>
<path fill-rule="evenodd" clip-rule="evenodd" d="M45.2045 17.9062C45.5385 18.1903 45.7415 18.3532 45.9335 18.5292C46.0994 18.6639 46.2482 18.8184 46.3765 18.9893C46.6331 19.3177 46.8357 19.685 46.9765 20.0772C47.0391 20.5923 47.0469 21.1126 46.9995 21.6292C47.1504 21.2821 47.3224 20.9444 47.5145 20.6182C47.5617 20.5542 47.6233 20.5021 47.6944 20.4663C47.7654 20.4305 47.8439 20.412 47.9235 20.4122C47.9992 20.4448 48.0659 20.495 48.1181 20.5587C48.1703 20.6224 48.2065 20.6977 48.2235 20.7782C48.2148 21.0051 48.1788 21.23 48.1165 21.4482C48.1043 21.5655 48.0983 21.6833 48.0985 21.8012C48.2405 21.7532 48.4195 21.7442 48.5155 21.6502C48.626 21.4946 48.7263 21.332 48.8155 21.1632C48.8443 21.11 48.8885 21.0667 48.9423 21.0391C48.9961 21.0114 49.057 21.0007 49.117 21.0082C49.177 21.0158 49.2333 21.0413 49.2786 21.0815C49.3238 21.1217 49.3559 21.1746 49.3705 21.2332C49.4761 21.4687 49.4875 21.7356 49.4025 21.9792C49.1915 22.2862 49.3135 22.5492 49.2825 22.8552C49.4995 22.7632 49.7105 22.7352 49.8225 22.6132C50.0095 22.4132 50.0835 22.5482 50.1995 22.6622C50.2341 22.6864 50.2622 22.7187 50.2815 22.7562C50.3008 22.7937 50.3106 22.8354 50.3101 22.8776C50.3096 22.9198 50.2988 22.9612 50.2787 22.9982C50.2585 23.0353 50.2296 23.0669 50.1945 23.0902C50.0807 23.2193 49.9578 23.34 49.8265 23.4512C49.1585 23.9162 48.6875 23.7442 48.4535 22.9212C48.3725 22.6362 48.2845 22.5932 48.0535 22.7442C48.0226 22.7649 47.9874 22.7785 47.9506 22.784C47.9138 22.7896 47.8762 22.7869 47.8405 22.7762C47.7112 22.7055 47.5665 22.6673 47.4191 22.6651C47.2717 22.6628 47.126 22.6965 46.9945 22.7632C46.4305 22.9702 46.3295 22.9192 46.1815 22.3192C46.1135 22.0432 46.0565 22.0052 45.7905 22.1052C45.0195 22.3942 44.6015 22.3842 44.2905 21.4322C44.2035 21.1672 43.9145 20.9713 43.7275 20.7323C43.7073 20.7067 43.6936 20.6765 43.6877 20.6445C43.6817 20.6124 43.6837 20.5794 43.6935 20.5482C43.7161 20.51 43.746 20.4766 43.7815 20.45C43.817 20.4234 43.8575 20.4041 43.9005 20.3932C44.3131 20.3678 44.7269 20.3678 45.1395 20.3932C45.2574 20.4171 45.3799 20.3991 45.486 20.3423C45.592 20.2855 45.675 20.1936 45.7205 20.0822C45.782 19.9604 45.8059 19.823 45.7892 19.6875C45.7724 19.552 45.7158 19.4245 45.6265 19.3212C45.4075 19.1212 45.2415 18.8632 44.8545 18.9212C44.4774 18.9608 44.0972 18.9639 43.7195 18.9302C43.5053 18.9094 43.2891 18.9356 43.0862 19.0071C42.8832 19.0786 42.6983 19.1937 42.5445 19.3442C42.2318 19.6813 42.0539 20.1216 42.0445 20.5812C41.9975 21.1282 42.0305 21.6812 42.0345 22.2342C42.0345 22.8732 42.2255 23.2153 42.8425 23.2603C43.8777 23.4798 44.8754 23.8487 45.8045 24.3552C46.5477 24.5609 47.2466 24.9016 47.8665 25.3602C47.9591 25.4579 48.0774 25.5275 48.2077 25.5611C48.3381 25.5947 48.4752 25.5909 48.6035 25.5502C48.938 25.4487 49.2356 25.2517 49.4595 24.9832C50.0221 24.2396 50.4527 23.4048 50.7325 22.5152C50.8005 22.1792 51.0595 21.8812 51.1225 21.5452C51.1573 21.202 51.1192 20.8554 51.0106 20.5279C50.902 20.2005 50.7255 19.8997 50.4925 19.6452C49.8359 18.8552 48.9633 18.2735 47.9815 17.9712C47.8229 17.9214 47.6565 17.9007 47.4905 17.9102C46.8035 17.9042 46.1165 17.9102 45.1955 17.9102" fill="white"/>
<path fill-rule="evenodd" clip-rule="evenodd" d="M34.7461 52.9886C35.7281 53.8886 36.6881 54.7486 37.6181 55.6376C37.9321 55.9787 38.2266 56.3372 38.5001 56.7116C38.5221 56.7478 38.553 56.7778 38.5899 56.7988C38.6267 56.8198 38.6683 56.8311 38.7107 56.8316C38.7531 56.8321 38.7949 56.8218 38.8323 56.8017C38.8696 56.7816 38.9012 56.7523 38.9241 56.7166C38.9471 56.6916 38.9721 56.6676 38.9971 56.6436C40.4758 55.2336 41.9538 53.8229 43.4311 52.4116C43.7691 52.0876 43.7541 51.9326 43.4211 51.6976C42.7291 51.2106 42.0281 50.7366 41.3451 50.2376C40.7351 49.7906 40.1451 49.3186 39.5451 48.8546C39.5034 48.8132 39.4538 48.7806 39.3993 48.7586C39.3448 48.7367 39.2865 48.7258 39.2277 48.7266C39.169 48.7274 39.111 48.74 39.0571 48.7635C39.0033 48.787 38.9546 48.821 38.9141 48.8636C38.7514 48.991 38.6059 49.1389 38.4811 49.3036C37.696 50.3269 36.8136 51.2717 35.8461 52.1246C35.5012 52.4392 35.1335 52.728 34.7461 52.9886Z" fill="white"/>
<path fill-rule="evenodd" clip-rule="evenodd" d="M12.8517 10.3795C13.5065 10.7217 14.1845 11.0178 14.8807 11.2655C15.399 11.3593 15.9336 11.2888 16.4098 11.0638C16.8861 10.8388 17.2801 10.4705 17.5367 10.0105C17.7325 9.76512 17.8756 9.48202 17.9572 9.17886C18.0387 8.87571 18.0569 8.559 18.0107 8.2485C18.0006 7.93018 18.0744 7.61481 18.2246 7.33399C18.3749 7.05318 18.5963 6.81678 18.8667 6.6485C19.1416 6.53065 19.4436 6.49086 19.7397 6.5335C19.9887 6.5335 20.0747 6.4785 20.1097 6.1995C20.1537 5.8485 20.2977 5.5215 20.3177 5.1465C20.3527 4.5085 20.7967 4.1465 21.4807 4.0385C21.5729 4.01468 21.6624 3.98116 21.7477 3.9385C21.6987 3.8205 21.6827 3.6615 21.5957 3.5935C21.3266 3.35178 20.9793 3.21541 20.6177 3.2095C19.9299 3.16754 19.24 3.17656 18.5537 3.2365C17.3397 3.4575 16.0847 3.7005 15.4897 5.0225C15.2779 5.42607 15.1496 5.86822 15.1127 6.3225C15.073 6.74602 15.0062 7.16655 14.9127 7.5815C14.8787 8.00546 14.805 8.42529 14.6927 8.8355C14.5398 9.22797 14.2907 9.57571 13.9683 9.84674C13.6459 10.1178 13.2606 10.3034 12.8477 10.3865" fill="#1A1311"/>
<path fill-rule="evenodd" clip-rule="evenodd" d="M0.832125 47.4357C1.33182 47.5597 1.85495 47.5538 2.35171 47.4185C2.84847 47.2832 3.30234 47.023 3.67013 46.6627C4.07013 46.3377 4.52913 46.0807 4.95113 45.7777C5.05463 45.6952 5.13607 45.5884 5.18812 45.4667C5.86212 43.9907 6.54013 42.5197 7.20113 41.0397C7.35513 40.6957 7.25713 40.6397 6.86213 40.4607C6.56455 40.3213 6.23866 40.2528 5.91012 40.2607C5.63192 40.3175 5.34495 40.3157 5.06744 40.2557C4.78993 40.1956 4.52795 40.0784 4.29813 39.9117C4.243 39.8899 4.18327 39.8822 4.12441 39.8893C4.06554 39.8965 4.0094 39.9183 3.96113 39.9527C3.46755 40.3588 3.04568 40.8449 2.71312 41.3907C2.43712 41.9297 2.15312 42.4657 1.87512 43.0037C1.42338 43.8602 1.12809 44.7905 1.00313 45.7507C0.931125 46.3077 0.880125 46.8607 0.828125 47.4337" fill="white"/>
<path fill-rule="evenodd" clip-rule="evenodd" d="M11.1872 44.1592C11.2393 43.6256 11.1019 43.0907 10.7991 42.6482C10.4963 42.2057 10.0475 41.8839 9.53123 41.7392C8.95423 41.6092 8.56123 41.0942 7.94923 41.1222C7.80484 41.645 7.63089 42.1591 7.42823 42.6622C7.07923 43.4152 6.65823 44.1352 6.27323 44.8712C6.23023 44.9552 6.23523 45.0622 6.19623 45.1482C5.64123 46.3612 5.72323 46.2662 6.68623 47.1192C7.6244 47.744 8.61513 48.2861 9.64723 48.7392C9.69523 48.7702 9.91423 48.6592 9.93623 48.5802C10.2282 47.5622 10.5172 46.5432 10.7602 45.5132C10.8048 45.2925 10.8749 45.0777 10.9692 44.8732C11.0674 44.6431 11.1405 44.403 11.1872 44.1572" fill="white"/>
<path fill-rule="evenodd" clip-rule="evenodd" d="M14.5309 33.4681C14.5181 32.6674 14.6891 31.8744 15.0309 31.1501C15.069 31.0624 15.1001 30.9718 15.1239 30.8791C15.1379 30.7151 15.1649 30.5181 14.8969 30.5341C14.2539 30.5091 13.6151 30.6481 13.0406 30.938C12.4661 31.2279 11.9748 31.6591 11.6129 32.1911C11.1777 32.7932 10.8927 33.4905 10.7819 34.2251C10.1419 35.1501 10.4619 36.3321 9.96385 37.3001C9.92157 37.4678 9.91849 37.643 9.95485 37.8121C9.97357 37.9318 10.0189 38.0457 10.0874 38.1456C10.1559 38.2455 10.246 38.3288 10.3509 38.3893C10.4558 38.4498 10.573 38.4861 10.6938 38.4954C10.8146 38.5047 10.9359 38.4868 11.0489 38.4431C11.2006 38.392 11.3431 38.3167 11.4709 38.2201C12.1931 37.5518 13.0036 36.9858 13.8799 36.5381C14.2243 36.3092 14.4873 35.9771 14.6311 35.5893C14.7748 35.2015 14.7919 34.7782 14.6799 34.3801C14.5929 34.084 14.5455 33.7777 14.5389 33.4691" fill="#C2C3C2"/>
<path fill-rule="evenodd" clip-rule="evenodd" d="M30.4707 37.0028C30.8938 36.7594 31.3028 36.4923 31.6957 36.2028C32.5887 35.4219 33.2283 34.3923 33.5327 33.2458C33.9457 31.8277 34.0796 30.3429 33.9267 28.8738C33.8997 28.5738 33.7037 28.2418 33.7647 27.9238C33.7952 27.164 33.6469 26.4078 33.3317 25.7158C33.3057 25.6449 33.2656 25.5799 33.2138 25.5248C33.1621 25.4697 33.0997 25.4257 33.0306 25.3952C32.9614 25.3648 32.8868 25.3486 32.8112 25.3477C32.7356 25.3468 32.6607 25.3611 32.5907 25.3898C32.4717 25.4358 32.3657 25.5128 32.2507 25.5688C31.5077 25.9318 31.2447 26.3928 31.5377 27.1418C31.6319 27.3865 31.6794 27.6466 31.6777 27.9088C31.6927 28.7018 31.7057 29.4958 31.6777 30.2878C31.6405 30.7116 31.5737 31.1323 31.4777 31.5468C31.4067 31.9318 31.6647 32.3748 31.2777 32.7048C31.1941 33.771 30.9286 34.8151 30.4927 35.7918C30.4261 36.1929 30.4197 36.6018 30.4737 37.0048" fill="#C2C3C2"/>
<path fill-rule="evenodd" clip-rule="evenodd" d="M19.3138 24.688C19.2793 25.5162 19.1695 26.3396 18.9858 27.148C18.7722 27.915 18.4674 28.6536 18.0778 29.348C17.6508 30.058 17.4258 30.865 17.0038 31.587C16.6494 32.2605 16.1246 32.8294 15.4818 33.237C15.3818 33.296 15.3448 33.515 15.3478 33.658C15.3478 33.723 15.5798 33.858 15.6088 33.835C15.9948 33.535 16.4958 33.445 16.8478 33.069C17.5758 32.292 18.3358 31.543 19.1068 30.807C19.3916 30.4938 19.6137 30.1289 19.7608 29.732C20.2641 28.882 20.677 27.9818 20.9928 27.046C21.1729 26.4541 21.2908 25.8452 21.3448 25.229C21.3718 24.135 21.3158 23.936 20.6448 23.317C20.4714 23.1666 20.2506 23.0821 20.0211 23.0783C19.7917 23.0744 19.5682 23.1515 19.3898 23.296C19.3127 23.3979 19.2728 23.5232 19.2768 23.651C19.2618 23.994 19.2718 24.338 19.2718 24.682L19.3208 24.688" fill="#C2C3C2"/>
<path fill-rule="evenodd" clip-rule="evenodd" d="M9.17941 36.4958C8.51265 36.5855 7.83495 36.4526 7.25141 36.1178C6.41832 35.8707 5.63605 35.4769 4.94141 34.9548C4.91741 34.9318 4.76341 34.9838 4.73441 35.0358C4.28002 35.6696 4.00597 36.4147 3.94141 37.1918C3.95041 37.6048 3.94141 38.0188 3.94141 38.4328C3.94141 38.9158 4.04141 39.1328 4.46941 39.2058C4.60218 39.2084 4.73308 39.2376 4.85435 39.2917C4.97563 39.3458 5.0848 39.4237 5.17541 39.5208C5.20732 39.5571 5.24675 39.586 5.29096 39.6055C5.33517 39.625 5.38309 39.6347 5.43141 39.6338C5.67541 39.6008 6.01041 39.4068 6.13641 39.5028C6.40341 39.7028 6.65741 39.6178 6.91541 39.6368C7.19013 39.6627 7.46668 39.6627 7.74141 39.6368C7.90304 39.6243 8.05453 39.5532 8.16741 39.4368C8.4654 39.095 8.70801 38.7087 8.88641 38.2918C9.0298 37.7024 9.12643 37.1025 9.17541 36.4978" fill="white"/>
<path fill-rule="evenodd" clip-rule="evenodd" d="M16.5718 48.4722C16.5428 48.4302 16.5328 48.3962 16.5088 48.3832C16.0358 48.1142 15.5428 47.8772 15.0938 47.5732C14.6248 47.2562 14.3758 46.6682 13.7938 46.4732C13.4648 45.8372 12.6268 45.6492 12.4108 44.9082C12.3858 44.8212 12.2768 44.7542 12.1978 44.6892C12.0408 44.5572 11.8878 44.5432 11.8138 44.7682C11.6248 45.3432 11.4538 45.9242 11.2658 46.5002C11.1437 47.0974 10.9885 47.6873 10.8008 48.2672C10.5568 48.8142 10.8768 49.1582 11.4948 49.1672C12.5258 49.1752 13.5578 49.1842 14.5878 49.1602C14.8764 49.1368 15.1597 49.0694 15.4278 48.9602C15.6968 48.8662 15.9478 48.7222 16.2098 48.6072C16.3258 48.5562 16.4488 48.5222 16.5738 48.4782" fill="white"/>
<path fill-rule="evenodd" clip-rule="evenodd" d="M23.6181 6.10716C23.6011 5.62516 23.6611 5.36116 23.3911 5.15116C22.9908 4.87764 22.5284 4.70883 22.0461 4.66016C21.8826 4.67469 21.7236 4.72148 21.5784 4.79781C21.4331 4.87414 21.3044 4.9785 21.1997 5.10487C21.095 5.23123 21.0164 5.3771 20.9684 5.53403C20.9204 5.69096 20.904 5.85584 20.9201 6.01916C20.9271 6.75716 21.4531 7.41116 22.0701 7.33316C22.5153 7.29059 22.9421 7.13387 23.3091 6.87816C23.5421 6.69616 23.5671 6.24916 23.6191 6.10716" fill="white"/>
<path fill-rule="evenodd" clip-rule="evenodd" d="M38.3318 18.8801C38.257 18.5718 38.1617 18.2688 38.0468 17.9731C38.0002 17.8601 37.9118 17.7695 37.8 17.7201C37.6882 17.6707 37.5616 17.6664 37.4468 17.7081C37.3377 17.7448 37.2418 17.8124 37.1707 17.9029C37.0996 17.9933 37.0566 18.1025 37.0468 18.2171C36.9281 18.977 36.7427 19.7249 36.4928 20.4521C36.4193 20.7026 36.3694 20.9594 36.3438 21.2191C36.597 21.1892 36.8431 21.1151 37.0708 21.0001C37.5081 20.6792 37.9053 20.3069 38.2538 19.8911C38.3908 19.7191 38.3048 19.3681 38.3318 18.8791" fill="white"/>
<path fill-rule="evenodd" clip-rule="evenodd" d="M28.7554 26.3953C28.1034 26.3953 27.6634 26.3953 27.2244 26.3953C26.4354 26.4129 25.6507 26.2728 24.9164 25.9833C24.8574 25.9593 24.7804 25.9833 24.7164 25.9833C24.5014 25.9673 24.3644 26.1123 24.4454 26.2833C24.5576 26.5823 24.7053 26.8667 24.8854 27.1303C25.05 27.3431 25.2734 27.503 25.528 27.5901C25.7825 27.6772 26.057 27.6877 26.3174 27.6203C26.8686 27.4655 27.4042 27.26 27.9174 27.0063C28.2154 26.8272 28.4971 26.6224 28.7594 26.3943" fill="white"/>
<path fill-rule="evenodd" clip-rule="evenodd" d="M15.1001 22.2227C14.35 22.2609 13.6217 22.4883 12.9831 22.8837C12.9161 22.9147 12.8361 23.0837 12.8541 23.1027C12.9301 23.1837 13.0731 23.3027 13.1341 23.2797C13.9474 23.0557 14.7964 22.9915 15.6341 23.0907C16.4931 23.0617 17.3531 23.0907 18.2131 23.0777C18.3571 23.0777 18.5921 23.0197 18.6251 22.9297C18.7491 22.5937 18.3691 22.7297 18.2531 22.6007C18.1875 22.5292 18.0992 22.4825 18.0031 22.4687C17.1381 22.3887 16.2721 22.3197 15.1031 22.2227" fill="#C2C3C2"/>
<path fill-rule="evenodd" clip-rule="evenodd" d="M19.9237 9.00722C19.9903 9.00374 20.057 9.00374 20.1237 9.00722C20.4417 9.04122 20.8237 9.00722 20.8867 8.69022C20.9497 8.37322 21.0707 7.95622 20.7087 7.65522C20.4087 7.40222 20.1967 7.07722 19.6907 7.12122C19.5085 7.1335 19.3334 7.19686 19.1855 7.30404C19.0377 7.41121 18.923 7.55788 18.8547 7.72722C18.4547 8.53422 18.7847 8.99622 19.7147 9.00722H19.9147" fill="white"/>
<path fill-rule="evenodd" clip-rule="evenodd" d="M16.393 30.2812C16.2983 30.3318 16.21 30.3936 16.13 30.4653C15.8309 30.9159 15.6305 31.4247 15.542 31.9583C15.527 32.0093 15.573 32.0793 15.59 32.1403C15.662 32.1023 15.763 32.0823 15.802 32.0223C16.028 31.6743 16.249 31.3223 16.449 30.9603C16.5189 30.8166 16.5577 30.6599 16.563 30.5003C16.563 30.4383 16.463 30.3692 16.393 30.2812Z" fill="white"/>
<path fill-rule="evenodd" clip-rule="evenodd" d="M27.0593 19.9721C27.8593 20.1231 28.6723 20.2311 29.4693 20.4001C29.8711 20.503 30.2635 20.6399 30.6423 20.8091C30.6917 20.8311 30.736 20.8633 30.7722 20.9036C30.8084 20.9438 30.8357 20.9912 30.8524 21.0427C30.8691 21.0942 30.8748 21.1486 30.8691 21.2024C30.8634 21.2563 30.8464 21.3083 30.8193 21.3551C30.739 21.4657 30.6369 21.5586 30.5193 21.6281C29.5612 22.1583 28.689 22.8306 27.9323 23.6221C27.5763 23.9871 27.5583 23.9911 27.1083 23.6961C26.8685 23.5746 26.6673 23.3887 26.5273 23.1591C26.1883 22.2991 25.7573 21.4801 25.4603 20.6011C25.3663 20.3251 25.2783 20.1391 25.5763 19.9821C25.7763 19.8821 25.9763 19.7871 26.1473 19.7031C26.5033 19.8101 26.7753 19.9181 27.0573 19.9711M28.4753 21.0171C28.1716 20.905 27.8563 20.8272 27.5353 20.7851C27.1832 20.7552 26.8341 20.697 26.4913 20.6111C26.4413 20.6051 26.2913 20.8181 26.3163 20.8741C26.5543 21.4251 26.8113 21.9741 27.0803 22.5071C27.3033 22.9541 27.4993 22.9901 27.8493 22.6721C28.0003 22.5341 28.1323 22.3721 28.2873 22.2401C28.6373 21.9401 28.9963 21.6501 29.4643 21.2621C29.0883 21.1671 28.7863 21.0621 28.4753 21.0171Z" fill="#1A1311"/>
<path fill-rule="evenodd" clip-rule="evenodd" d="M31.7483 15.443C31.5421 15.4164 31.3327 15.4333 31.1334 15.4925C30.9341 15.5518 30.7495 15.6521 30.5913 15.787C30.1183 16.087 30.2343 16.55 30.2513 16.982C30.2843 17.0143 30.3239 17.0389 30.3675 17.0541C30.4111 17.0693 30.4574 17.0748 30.5033 17.07C30.6373 16.981 30.8163 16.859 30.8423 16.724C30.9423 16.193 31.3313 16.26 31.7003 16.25C32.0693 16.24 32.2273 16.404 32.3183 16.757C32.4202 17.0263 32.5545 17.2822 32.7183 17.519C32.8493 17.757 33.0063 17.787 33.1543 17.561C33.2543 17.407 33.3863 17.129 33.3203 17.032C33.0453 16.632 32.9743 16.113 32.5713 15.782C32.3033 15.563 32.0953 15.26 31.7483 15.443Z" fill="#1A1311"/>
<path fill-rule="evenodd" clip-rule="evenodd" d="M26.9227 15.6811C26.8957 15.2951 26.4967 15.0341 26.0367 14.7941C25.8277 14.6851 25.6277 14.5071 25.4037 14.6081C25.0552 14.7433 24.7336 14.9394 24.4537 15.1871C24.2576 15.4365 24.1147 15.7234 24.0337 16.0301C23.9937 16.1361 24.0237 16.3651 24.0897 16.3961C24.1605 16.434 24.2388 16.4558 24.319 16.46C24.3992 16.4641 24.4793 16.4505 24.5537 16.4201C24.7187 16.2841 24.7817 16.0311 24.9347 15.8741C25.0877 15.7171 24.9907 15.3091 25.4477 15.4061C25.7717 15.4751 26.1217 15.3881 26.3037 15.7741C26.3668 15.9209 26.451 16.0576 26.5537 16.1801C26.6333 16.2332 26.7302 16.2539 26.8247 16.2381C26.8607 16.2381 26.9037 16.1381 26.9187 16.0811C26.9294 15.948 26.9294 15.8142 26.9187 15.6811" fill="#1A1311"/>
<path fill-rule="evenodd" clip-rule="evenodd" d="M27.8432 19.1349C27.8912 19.0979 27.9372 19.0579 27.9882 19.0229C28.4882 18.6829 28.4882 18.6909 29.0522 19.0869C29.1072 19.1098 29.167 19.1183 29.2261 19.1116C29.2853 19.105 29.3417 19.0834 29.3902 19.0489C29.4982 18.9429 29.6322 18.7549 29.6052 18.6359C29.5643 18.47 29.4799 18.3179 29.3605 18.1956C29.2412 18.0732 29.0913 17.985 28.9264 17.94C28.7615 17.8951 28.5875 17.895 28.4226 17.9398C28.2577 17.9846 28.1077 18.0727 27.9882 18.1949C27.8326 18.3309 27.6887 18.4797 27.5582 18.6399C27.5222 18.6889 27.5792 18.8309 27.6272 18.9099C27.6901 18.9929 27.7626 19.0691 27.8432 19.1349Z" fill="#1A1311"/>
<path fill-rule="evenodd" clip-rule="evenodd" d="M29.4604 21.2654C29.0844 21.1654 28.7814 21.0654 28.4704 21.0204C28.1668 20.9078 27.8515 20.83 27.5304 20.7884C27.1783 20.7582 26.8291 20.6996 26.4864 20.6134C26.4354 20.6074 26.2864 20.8204 26.3114 20.8764C26.5504 21.4284 26.8114 21.9764 27.0754 22.5094C27.2984 22.9564 27.4944 22.9934 27.8454 22.6744C27.9964 22.5364 28.1284 22.3744 28.2834 22.2414C28.6334 21.9414 28.9924 21.6514 29.4604 21.2634" fill="white"/>
</g>
</g>
<defs>
<clipPath id="clip0_345_86">
<rect width="52" height="63" fill="white"/>
</clipPath>
</defs>
</svg>
