<svg xmlns="http://www.w3.org/2000/svg" width="25.804" height="24.587" viewBox="0 0 25.804 24.587">
  <g id="LINE" transform="translate(-7.25 -7.889)">
    <g id="グループ_61119" data-name="グループ 61119" transform="translate(7.25 7.889)">
      <path id="パス_148159" data-name="パス 148159" d="M79.083,68.815c0-5.773-5.788-10.47-12.9-10.47s-12.9,4.7-12.9,10.47c0,5.176,4.59,9.51,10.79,10.33.42.091.992.277,1.137.636a2.649,2.649,0,0,1,.042,1.167s-.151.91-.184,1.1c-.056.326-.259,1.276,1.118.7s7.43-4.375,10.137-7.491h0a9.316,9.316,0,0,0,2.766-6.442" transform="translate(-53.279 -58.345)" fill="#fff"/>
      <path id="パス_148160" data-name="パス 148160" d="M203.023,127.979H199.4a.246.246,0,0,1-.246-.246v0h0v-5.621h0V122.1a.246.246,0,0,1,.246-.246h3.625a.247.247,0,0,1,.246.246v.915a.246.246,0,0,1-.246.246H200.56v.95h2.463a.247.247,0,0,1,.246.246v.915a.246.246,0,0,1-.246.246H200.56v.95h2.463a.247.247,0,0,1,.246.246v.915a.246.246,0,0,1-.246.246" transform="translate(-181.511 -114.175)" fill="#70c55e"/>
      <path id="パス_148161" data-name="パス 148161" d="M92.149,127.979a.246.246,0,0,0,.246-.246v-.915a.247.247,0,0,0-.246-.246H89.686V122.1a.247.247,0,0,0-.246-.246h-.915a.246.246,0,0,0-.246.246v5.626h0v0a.246.246,0,0,0,.246.246h3.625Z" transform="translate(-84.045 -114.175)" fill="#70c55e"/>
      <path id="パス_148162" data-name="パス 148162" d="M129.891,121.855h-.915a.246.246,0,0,0-.246.246v5.631a.246.246,0,0,0,.246.246h.915a.246.246,0,0,0,.246-.246V122.1a.246.246,0,0,0-.246-.246" transform="translate(-119.605 -114.175)" fill="#70c55e"/>
      <path id="パス_148163" data-name="パス 148163" d="M152.749,121.855h-.915a.246.246,0,0,0-.246.246v3.344l-2.576-3.479a.278.278,0,0,0-.02-.026l0,0-.015-.015,0,0-.013-.011-.007,0-.013-.009-.007,0-.014-.007-.008,0-.014-.006-.008,0-.015,0-.009,0-.015,0-.01,0-.013,0h-.932a.246.246,0,0,0-.246.246v5.631a.246.246,0,0,0,.246.246h.915a.246.246,0,0,0,.246-.246v-3.343l2.579,3.484a.25.25,0,0,0,.064.062l0,0,.016.009.007,0,.012.006.012.005.008,0,.017.005h0a.251.251,0,0,0,.064.009h.91a.246.246,0,0,0,.246-.246V122.1a.246.246,0,0,0-.246-.246" transform="translate(-136.234 -114.175)" fill="#70c55e"/>
    </g>
  </g>
</svg>
