<svg id="グループ_61073" data-name="グループ 61073" xmlns="http://www.w3.org/2000/svg" xmlns:xlink="http://www.w3.org/1999/xlink" width="18.778" height="17.89" viewBox="0 0 18.778 17.89">
  <defs>
    <clipPath id="clip-path">
      <rect id="長方形_22367" data-name="長方形 22367" width="18.778" height="17.89" fill="#d00303"/>
    </clipPath>
  </defs>
  <g id="グループ_59422" data-name="グループ 59422" transform="translate(0 0)" clip-path="url(#clip-path)">
    <path id="パス_145477" data-name="パス 145477" d="M50.832,3.292A4.554,4.554,0,0,0,49.509.079a.332.332,0,0,0-.521.127c-.168.286-.631,1.006-.631,1.006a.307.307,0,0,1-.52,0s-.463-.72-.631-1.006a.332.332,0,0,0-.521-.127,4.57,4.57,0,0,0,1.412,7.4,4.572,4.572,0,0,0,2.734-4.186" transform="translate(-38.708 0)" fill="#d00303"/>
    <path id="パス_145478" data-name="パス 145478" d="M7.5,36.374a4.57,4.57,0,0,0-6.6-3.63.332.332,0,0,0-.04.535c.22.249.762.911.762.911a.307.307,0,0,1-.16.494s-.827.218-1.152.289a.332.332,0,0,0-.282.456,4.57,4.57,0,0,0,7.474.944" transform="translate(0 -27.523)" fill="#d00303"/>
    <path id="パス_145479" data-name="パス 145479" d="M19.119,76.637a4.553,4.553,0,0,0-.819,3.377.332.332,0,0,0,.5.2c.3-.133,1.1-.443,1.1-.443a.307.307,0,0,1,.42.306s-.048.854-.081,1.185a.332.332,0,0,0,.347.409,4.57,4.57,0,0,0,3.207-6.817,4.571,4.571,0,0,0-4.673,1.78" transform="translate(-15.57 -63.786)" fill="#d00303"/>
    <path id="パス_145480" data-name="パス 145480" d="M68.325,74.858a4.57,4.57,0,0,0,3.207,6.817.332.332,0,0,0,.347-.409c-.033-.331-.081-1.185-.081-1.185a.307.307,0,0,1,.42-.306s.8.31,1.1.443a.332.332,0,0,0,.5-.2,4.57,4.57,0,0,0-5.492-5.156" transform="translate(-57.769 -63.787)" fill="#d00303"/>
    <path id="パス_145481" data-name="パス 145481" d="M84.065,34.974c-.325-.071-1.152-.289-1.152-.289a.307.307,0,0,1-.161-.494s.541-.663.762-.911a.333.333,0,0,0-.04-.535,4.57,4.57,0,0,0-6.6,3.63,4.569,4.569,0,0,0,7.474-.944.332.332,0,0,0-.282-.456" transform="translate(-65.595 -27.523)" fill="#d00303"/>
  </g>
</svg>
