<svg id="グループ_60975" data-name="グループ 60975" xmlns="http://www.w3.org/2000/svg" xmlns:xlink="http://www.w3.org/1999/xlink" width="18.708" height="19.833" viewBox="0 0 18.708 19.833">
  <defs>
    <clipPath id="clip-path">
      <rect id="長方形_22348" data-name="長方形 22348" width="18.708" height="19.833"/>
    </clipPath>
  </defs>
  <g id="グループ_59415" data-name="グループ 59415" clip-path="url(#clip-path)">
    <path id="パス_145459" data-name="パス 145459" d="M4.814,6.94a1.113,1.113,0,0,0-.081-1.466c-.383-.432-.171-.643-.171-.643l4.564-.91,4.564-.91s.277.114.089.659a1.111,1.111,0,0,0,.488,1.385,14.339,14.339,0,0,0,3.381.344c.79-.073,1.068-1.018,1.06-1.271A3.688,3.688,0,0,0,16.241.468C13.7-.381,10.652.1,8.452.538S3.253,1.7,1.231,3.46A3.687,3.687,0,0,0,.357,7.787a1.363,1.363,0,0,0,1.467.767A14.384,14.384,0,0,0,4.814,6.94" transform="translate(0 0)"/>
    <path id="パス_145460" data-name="パス 145460" d="M52,73.574a2.594,2.594,0,1,0-1.835-.76,2.581,2.581,0,0,0,1.835.76" transform="translate(-41.749 -57.788)"/>
    <path id="パス_145461" data-name="パス 145461" d="M24.508,40.092a.44.44,0,0,0-.393-.238H22.8a.3.3,0,0,0-.295.3v.9a.3.3,0,0,1-.3.3H18.095a.3.3,0,0,1-.3-.3v-.9a.3.3,0,0,0-.3-.3h-1.31a.441.441,0,0,0-.393.238l-3.224,6.172a7.526,7.526,0,0,0-.856,3.489v1.44A1.478,1.478,0,0,0,13.2,52.67h.37v.842h1.5V52.67H25.237v.842h1.5V52.67h.369a1.478,1.478,0,0,0,1.478-1.478v-1.44a7.534,7.534,0,0,0-.857-3.489ZM16.1,46.87a4.055,4.055,0,1,1,4.055,4.054A4.056,4.056,0,0,1,16.1,46.87" transform="translate(-9.904 -33.679)"/>
  </g>
</svg>
